<?xml version="1.0" standalone="no"?>
<!DOCTYPE svg PUBLIC "-//W3C//DTD SVG 1.1//EN" "http://www.w3.org/Graphics/SVG/1.1/DTD/svg11.dtd" >
<svg>
<metadata>
Created by FontForge 20120731 at Fri Jul 15 08:43:40 2016
 By www-data
(c) 2000 Borna Rayaneh
</metadata>
<defs>
<font id="BSetarehBold" horiz-adv-x="0" >
  <font-face 
    font-family="B Setareh"
    font-weight="700"
    font-stretch="normal"
    units-per-em="2048"
    panose-1="0 0 7 0 0 0 0 0 0 0"
    ascent="1638"
    descent="-410"
    bbox="-181 -1560.05 1766 2301"
    underline-thickness="100"
    underline-position="-950"
    unicode-range="U+0020-FEFC"
  />
<missing-glyph horiz-adv-x="1024" 
d="M128 0v1221h768v-1221h-768zM256 128h512v965h-512v-965z" />
    <glyph glyph-name="uE818" unicode="&#x651;&#x64b;" 
d="M579 1674q0 -40 -13 -72q-4 -10 -28 -53q-58 -33 -113 -39q-42 9 -47 13q-14 10 -24 54q-36 -50 -57 -63q-13 -9 -48 -14q-56 14 -56 66q16 83 96 162q-16 -24 -26 -41q-16 -27 -16 -45q0 -50 73 -50q15 0 35 1q-1 18 -1 30q0 42 24 69q10 11 31 24q0 -63 2 -82
q3 -39 43 -39h13q25 0 61 10q-21 39 -33 58q5 11 22 38q21 31 28 43q29 -34 34 -70zM636 2142q0 -4 -20 -8l-24 -5q-20 -8 -80 -33q-11 -5 -70 -30q-42 -18 -79 -33q-8 -5 -43 -18h-32q-67 0 -83 18q-3 3 0 7q3 3 9 5l281 119q10 4 16 4q-21 0 62 -8q21 -1 37 -2
q26 -2 26 -16zM636 1975q0 -6 -19 -9q-13 -3 -25 -5q-26 -10 -80 -33l-70 -30q-21 -9 -55 -23l-24 -10q-7 -3 -25 -10l-18 -7q-2 0 -32 -1q-84 0 -84 22q0 3 8.5 7.5t163.5 69.5l119 50q11 4 16 4q4 0 10 -1q29 -4 47 -6q7 -1 33 -3q35 -1 35 -15z" />
    <glyph glyph-name="uFC5E" unicode="&#x651;&#x64c;" arabic-form="isolated" 
d="M574 1659q0 -40 -13 -72q-4 -10 -28 -54q-58 -32 -113 -38q-41 9 -47 13q-13 10 -24 54q-36 -50 -56 -63q-14 -9 -48 -14q-57 14 -57 66q17 83 96 162q-16 -24 -25 -41q-16 -27 -16 -45q0 -50 72 -50q15 0 35 1q-1 18 -1 30q0 42 24 69q10 11 31 24q0 -63 2 -82
q3 -39 43 -39h14q24 0 60 10q-21 39 -33 58q5 11 23 38q20 31 27 43q29 -34 34 -70zM763 2202q4 -28 -30 -107.5t-57 -103.5q-46 -47 -120 -91q-85 -50 -139 -50q-11 0 -18 3l22 19q84 43 104 66q49 54 83 114q-3 13 -22 13q-4 0 -20 -1q-10 0 -15 3q-15 26 -15 51
q0 31 32 126q18 57 61 57q20 0 50 -11q14 -5 37 -14q5 -5 22 -15q28 -17 28 -39q0 -9 -3 -20zM468 2202q4 -28 -30.5 -107.5t-57.5 -103.5q-46 -47 -120 -91q-85 -50 -139 -50q-10 0 -18 3l22 19q85 44 105 66q47 53 82 113q-2 13 -22 13h-9h-10q-11 0 -17 3q-14 26 -14 50
q0 29 32 127q19 57 61 57q21 0 51 -11q14 -5 37 -14q4 -5 23 -15q28 -17 28 -40q0 -8 -4 -19zM722 2151q-18 20 -35 41q-26 25 -50 25q-42 0 -40 -45q1 -25 57 -25q3 0 19 1zM429 2151q-12 14 -37 40t-50 26q-42 0 -41 -45q1 -25 59 -25l18 1z" />
    <glyph glyph-name="uFC5F" unicode="&#x651;&#x64d;" arabic-form="isolated" 
d="M572 2027q0 -40 -13 -73q-4 -10 -28 -53q-58 -32 -113 -38q-41 9 -47 13q-13 10 -24 54q-36 -50 -56 -63q-14 -9 -48 -15q-57 15 -57 66q17 84 96 163q-16 -24 -25 -41q-16 -28 -16 -45q0 -50 72 -50q15 0 35 1q-1 18 -1 30q0 42 24 69q10 11 32 24q0 -63 1 -82
q3 -39 43 -39h14q24 0 60 9q-21 40 -33 59q6 11 23 37q20 32 27 44q29 -34 34 -70zM612 1770q0 -4 -19 -8l-25 -5q-19 -8 -80 -33q-11 -5 -70 -30q-42 -18 -78 -33q-9 -5 -44 -18h-32q-67 0 -82 18q-3 3 0 6q3 4 9 6l281 119q9 4 16 4q-21 0 62 -8q20 -1 37 -3q25 -1 25 -15
zM613 1603q0 -6 -20 -9q-12 -3 -25 -5q-25 -10 -80 -33l-70 -30q-21 -9 -51 -22l-27 -11q-7 -3 -25 -10l-19 -7q-1 0 -32 -1q-84 0 -84 22q0 3 8.5 7.5t164.5 69.5l119 50q10 4 15 4t11 -1q29 -4 46 -6q8 -1 33 -3q36 -2 36 -15z" />
    <glyph glyph-name="uFC60" unicode="&#x651;&#x64e;" arabic-form="isolated" 
d="M599 1667q0 -40 -12 -72q-4 -10 -28 -53q-58 -32 -114 -39q-41 10 -47 14q-13 10 -24 53q-35 -49 -56 -63q-13 -8 -48 -14q-57 15 -57 66q17 84 96 163q-15 -25 -25 -41q-16 -28 -16 -46q0 -50 72 -50q16 0 36 2q-2 18 -2 30q0 42 24 68q11 12 32 24q0 -62 1 -81
q4 -40 44 -40h13q24 0 60 10q-20 40 -33 59q6 10 23 37q21 32 27 43q29 -33 34 -70zM636 1934q0 -5 -19 -9q-12 -2 -25 -5q-57 -22 -117 -48l-112 -48q-40 -17 -40.5 -17t-35.5 -1q-67 0 -81 18q-3 4 0 7q2 3 8 6l282 118q11 4 15 4q10 0 30.5 -3t26.5 -4q16 -2 33 -3
q35 -1 35 -15z" />
    <glyph glyph-name="uFC61" unicode="&#x651;&#x64f;" arabic-form="isolated" 
d="M594 1677q0 -40 -13 -72q-4 -10 -28 -53q-58 -33 -113 -39q-42 9 -47 13q-14 10 -25 54q-35 -49 -56 -63q-13 -9 -48 -14q-56 15 -56 66q16 83 95 162q-15 -24 -25 -41q-16 -27 -16 -45q0 -50 72 -50q16 0 36 1q-2 18 -2 30q0 42 25 69q10 11 31 24q0 -63 2 -82
q3 -39 43 -39h13q25 0 61 10q-21 39 -33 59q5 10 22 37q21 31 28 43q29 -34 34 -70zM647 2172q4 -28 -30 -107.5t-58 -103.5q-44 -47 -119 -90q-85 -49 -139 -49q-11 0 -18 3l22 18q84 43 105 66q46 53 82 114q-3 12 -23 12h-9h-9q-11 0 -16 2q-15 26 -15 52q0 20 9 51
q6 25 23 75q18 56 60 56q21 0 51 -11q15 -6 38 -14q18 -13 37 -26q12 -11 12 -27q0 -10 -3 -21zM608 2121q-12 14 -38 42q-24 25 -49 25q-40 -4 -40 -45q0 -25 59 -25h11h5z" />
    <glyph glyph-name="uFC62" unicode="&#x651;&#x650;" arabic-form="isolated" 
d="M655 1874q0 -40 -13 -72q-4 -10 -28 -53q-58 -32 -113 -39q-41 10 -47 14q-13 10 -24 53q-36 -49 -56 -62q-14 -9 -48 -15q-57 15 -57 66q17 84 96 163q-16 -24 -25 -41q-16 -28 -16 -46q0 -50 72 -50q15 0 35 2q-1 18 -1 30q0 42 24 68q10 12 32 25q0 -63 1 -82
q3 -39 43 -39h14q24 0 60 9q-21 40 -33 59q6 11 23 37q20 32 27 43q29 -33 34 -70zM687 1601q0 -4 -19 -8l-25 -5q-19 -8 -80 -33q-11 -5 -70 -30q-42 -18 -79 -33q-8 -5 -43 -18h-32q-67 0 -82 18q-2 2 -2 3q0 5 10 9l281 119q10 4 16 4q-21 0 63 -8q20 -2 36 -3
q26 -1 26 -15z" />
    <glyph glyph-name="uFDF2" unicode="&#xfedf;&#xfee0;&#xfeea;" horiz-adv-x="1731" arabic-form="isolated" 
d="M1470 1691h-8t-15 -1t-15 -1t-7 1q-7 1 -33 5q-21 4 -33 4q-5 0 -14 -4l-330 -137q-3 3 -5 7l1 7q14 -16 66 -16q16 0 28 1l24 1q14 5 45 18q28 13 92 40l84 35q46 20 94 39q8 4 20 -10zM1435 1393q0 -42 -13 -77q-7 -17 -31 -60q-61 -34 -121 -42q-35 7 -44 16
q-17 18 -35 83q-52 -72 -78 -92q-17 -13 -50 -18q-53 13 -53 59q18 82 95 173q-9 8 -15 19q-25 -39 -32 -54q-13 -26 -13 -46q0 -50 58 -64q24 -6 99 -6l-2 24q-1 11 -1 24q0 30 9 45l4 8l24 -5l2 -35q2 -30 18.5 -44.5t46.5 -14.5h14q32 0 94 15l-44 79l46 72
q18 -37 22 -59zM1686 669q0 -6 1 -16q3 -50 3 -87q0 -176 -34 -282q-21 -68 -61 -112q-31 -35 -68 -78q-91 -98 -141 -98q-32 0 -62 52q-10 18 -45 97q-23 53 -35 53q-18 0 -67 -51q-69 -71 -100 -95q-65 -52 -120 -52q-61 0 -61 141v13q0 4 1 6l-15 122q-14 113 -66 113
q-8 0 -76 -55q-84 -69 -153 -104q-109 -56 -213 -56q-119 0 -197 77t-78 196q0 73 113 233q66 94 168 214q125 113 221 165q76 41 130 41q123 0 173 -167q5 -14 22 -111q11 -65 33 -197l30 -185l12 -78q42 -225 79 -229q27 0 55 51q33 57 57 176q18 93 18 193q0 126 -23 295
l-9 66q0 38 48 38q70 0 88 -35q15 -27 20 -152q8 -190 25 -342q7 -59 41 -136q38 -86 70 -86q48 0 74 110q17 77 17 149q0 101 -8 186q-5 47 -16 121q-9 56 -9 74q0 48 42 80q6 4 23 12q33 17 50 20q15 -38 27 -115q7 -40 16 -175zM771 483v51q-7 48 -38 157
q-39 143 -75 171q-4 4 -13.5 11.5t-20.5 7.5q-46 0 -204 -100q-59 -38 -98 -108q-36 -64 -36 -113q0 -89 60 -138q56 -46 147 -46q20 0 80.5 9t70.5 16q9 11 39 50q25 32 88 32z" />
    <glyph glyph-name="uFEF5" unicode="&#xfedf;&#xfe82;" horiz-adv-x="1118" arabic-form="isolated" 
d="M562 496q-88 -191 -121 -196q-2 1 -3 2q6 12 6 18q0 9 -2 63l-4 116q0 46 -2 126l-8 139q-3 55 22 147q48 173 80 173l10 -42q0 -60 4 -115q8 -135 8 -293q0 -21 5 -64t5 -64v-10zM1072 1162q0 -184 -5 -260q-17 -271 -131 -459q-60 -98 -84 -129q-30 -39 -84 -88
q-84 -77 -164 -149q-114 -102 -242 -146q-94 -33 -193 -33q-55 0 -55 49q0 51 14 113q16 77 40 77q8 0 38.5 -19.5t50.5 -19.5q160 0 378 188q66 57 93 92q22 28 65 85q58 82 96 180q49 129 49 259q0 46 -6 96q0 117 48 117q7 0 11 -5q24 17 50 60q10 17 15 17q8 0 16 -25z
M739 1443q7 -6 7 -16q0 -27 -55 -82q-18 -19 -55 -22q-46 -3 -58 -8q-63 -27 -83 -34q-47 -17 -87 -18q-7 -1 -10 -1q-26 0 -54 6q-71 14 -107 14q-10 0 -36.5 -12t-37.5 -12q-8 0 -12.5 5.5t-4.5 18.5q0 42 23 60q29 18 43 30q22 22 36 33q19 17 39 17q-6 0 37 -10
q11 -2 60 -18q36 -11 56 -11q15 0 148 49q50 19 89 19q46 0 62 -8z" />
    <glyph glyph-name="uFEF6" unicode="&#xfee0;&#xfe82;" horiz-adv-x="1064" arabic-form="final" 
d="M524 455q0 -118 -113 -182q-16 10 -16 54q0 21 8 93q10 106 10 192q0 124 -19 194l-29 67q-11 27 -11 42q0 23 37 76.5t54 53.5q33 0 52 -98q12 -66 12 -121q0 -220 11 -328zM1096 0h-25q-54 0 -101 -28q-10 -6 -97 -63q-11 0 -11 81q0 14 9 91q4 42 4 94q0 47 -3 71
q-6 41 -33 159q-34 -93 -44 -118q-33 -83 -56 -112q-13 -16 -38 -48q-56 -73 -93 -142q-24 -44 -43 -58q-26 -21 -120 -64q-48 -22 -144 -37.5t-138.5 -36t-73.5 -57.5v11q12 40 12 73q0 24 72 129q15 22 21 62q3 15 45 15l150 36l83 19q17 4 68 39q144 100 173 180
q21 56 44 177q7 39 36 213q21 128 34 175q3 17 9 52q11 52 32 71q4 5 24 23q14 14 25 29q13 30 22 49q22 46 37 46t15 -26q0 -9 -18 -110q-8 -48 -8 -79l-1 -335q0 -121 1 -136q5 -172 24 -229q21 -61 59 -61h48v-155zM713 1392q8 -5 8 -16q0 -27 -55 -82q-19 -19 -56 -21
q-46 -4 -58 -9q-63 -27 -83 -34q-47 -17 -87 -18q-7 -1 -10 -1q-25 0 -54 6q-70 14 -107 14q-10 0 -36.5 -12t-37.5 -12q-7 0 -11 4q-5 8 -5 20q0 42 22 60q29 18 43 30q23 22 36 33q19 17 40 17q-7 0 36 -10q11 -2 60 -18q37 -11 56 -11q16 0 148 49q50 19 89 19
q46 0 62 -8z" />
    <glyph glyph-name="uFEF7" unicode="&#xfedf;&#xfe84;" horiz-adv-x="1118" arabic-form="isolated" 
d="M562 509q-88 -190 -121 -195q-2 1 -3 2q6 12 6 18q0 8 -2 63l-4 116q0 45 -2 126l-8 139q-3 55 22 146q48 174 80 174l10 -42q0 -61 4 -116q8 -134 8 -292q0 -21 5 -64t5 -64v-11zM1072 1175q0 -184 -5 -259q-17 -271 -131 -459q-60 -98 -84 -129q-30 -40 -84 -89
q-84 -77 -164 -149q-114 -101 -242 -146q-94 -32 -193 -32q-55 0 -55 49q0 51 14 113q16 77 40 77q8 0 38.5 -19.5t50.5 -19.5q160 0 378 188q66 57 93 92q22 28 65 85q58 82 96 180q49 129 49 259q0 46 -6 96q0 117 48 117q7 0 11 -5q24 17 50 60q10 17 15 17q8 0 16 -26z
M614 1404q0 -31 -6 -50q-3 -4 -12.5 -24t-30.5 -20q-6 0 -15 2l-19 5q-32 0 -56 -4q-59 -10 -73 -10q-50 -10 -140 -39q-32 -8 -51 -8q3 22 21 95q3 11 25 18q33 10 50 20q-24 41 -24 75l15 72q3 15 8 26q21 48 74 71q47 19 117 19q60 0 103 -83q0 -14 -9 -43
q-10 -32 -20 -35q-13 0 -17 17q-8 35 -52 46q-23 6 -32 6q-44 0 -89 -20q-31 -13 -48 -34q31 -66 110 -95h138q7 -3 33 -7z" />
    <glyph glyph-name="uFEF8" unicode="&#xfee0;&#xfe84;" horiz-adv-x="1090" arabic-form="final" 
d="M550 455q0 -118 -113 -182q-16 10 -16 54q0 21 7 93q11 106 11 192q0 124 -19 194l-29 67q-12 27 -12 43q0 22 37.5 75.5t54.5 53.5q33 0 51 -97q13 -67 13 -122q0 -220 10 -328zM1122 0h-25q-54 0 -102 -28q-9 -6 -97 -63q-10 0 -10 81q0 14 8 92q5 41 5 93q0 47 -4 71
q-5 41 -33 159q-33 -93 -43 -118q-34 -83 -56 -112l-39 -48q-55 -72 -92 -141q-24 -45 -43 -59q-26 -21 -120 -64q-48 -22 -144 -37.5t-138.5 -36t-74.5 -57.5q1 6 1 11q11 40 11 74q0 23 73 128q15 22 21 62q3 15 45 15q50 12 149 36l84 19q17 4 68 39q144 100 173 180
q21 56 44 177q7 39 36 213q21 128 34 175q2 17 9 52q11 52 32 72q4 4 24 22q14 14 25 29q13 30 22 49q22 47 37 47t15 -27q0 -8 -18 -110q-8 -48 -8 -79l-1 -334q0 -122 1 -137q5 -172 24 -229q21 -61 59 -61h48v-155zM583 1309q0 -32 -6 -50q-3 -4 -12.5 -24.5t-30.5 -20.5
q-6 0 -15 2l-19 5q-32 0 -56 -4q-59 -9 -73 -9q-50 -11 -140 -40q-32 -8 -50 -8q2 23 20 95q3 12 25 18q34 10 50 21q-24 41 -24 74l15 73q3 15 8 25q21 49 74 71q47 19 117 19q60 0 103 -83q0 -14 -9 -42q-10 -32 -20 -36q-12 0 -17 18q-8 35 -51 45q-24 6 -33 6
q-43 0 -89 -19q-31 -14 -48 -34q31 -66 110 -95h138q7 -4 33 -7z" />
    <glyph glyph-name="uFEF9" unicode="&#xfedf;&#xfe88;" horiz-adv-x="1143" arabic-form="isolated" 
d="M588 482q-88 -191 -121 -195q-2 0 -4 1q7 12 7 18q0 9 -2 64l-5 116q0 45 -2 125l-7 139q-3 55 22 147q47 173 80 173l10 -42q0 -60 4 -115q8 -135 8 -292q0 -22 5 -64.5t5 -64.5v-10zM1097 1148q0 -184 -4 -260q-17 -271 -132 -459q-59 -98 -83 -129q-30 -39 -84 -88
q-84 -77 -165 -149q-113 -102 -241 -146q-94 -32 -193 -32q-55 0 -55 48q0 51 14 113q16 77 40 77q8 0 38.5 -19t50.5 -19q160 0 377 187q67 58 94 92q22 28 65 85q58 82 95 180q50 129 50 260q0 46 -6 95q0 117 48 117q7 0 11 -5q23 18 50 60q10 17 15 17q7 0 15 -25z
M706 -364q0 -31 -6 -50q-3 -4 -12.5 -24t-30.5 -20q-6 0 -15 2l-19 5q-32 0 -56 -4q-59 -10 -73 -10q-50 -10 -140 -39q-32 -8 -50 -8q2 22 20 95q3 12 25 18q34 10 50 20q-24 41 -24 75l15 72q3 15 8 26q21 48 74 71q47 19 117 19q60 0 103 -83q0 -14 -9 -43
q-10 -32 -20 -35q-12 0 -17 17q-8 35 -51 46q-24 6 -33 6q-44 0 -89 -20q-31 -13 -48 -33q31 -67 110 -96h138q7 -3 33 -7z" />
    <glyph glyph-name="uFEFA" unicode="&#xfee0;&#xfe88;" horiz-adv-x="1090" arabic-form="final" 
d="M550 455q0 -118 -113 -182q-16 10 -16 54q0 21 7 93q11 106 11 192q0 124 -19 194l-29 67q-12 27 -12 42q0 23 37.5 76.5t54.5 53.5q33 0 51 -97q13 -67 13 -122q0 -220 10 -328zM1122 0h-25q-54 0 -102 -28q-9 -6 -97 -63q-10 0 -10 81q0 14 8 91q5 42 5 94q0 47 -4 71
q-5 41 -33 159q-33 -93 -43 -118q-34 -83 -56 -112l-39 -48q-55 -73 -92 -141q-24 -45 -43 -59q-26 -21 -120 -64q-48 -22 -144 -37.5t-138.5 -36t-74.5 -57.5q1 6 1 11q11 40 11 73q0 24 73 129q15 22 21 62q3 15 45 15q50 12 149 36l84 19q17 4 67 39q145 100 174 180
q21 56 44 177q7 39 36 213q21 128 34 175q2 17 9 52q11 52 32 72q4 4 24 22q14 14 25 29q13 30 22 49q22 46 37 46t15 -26q0 -9 -18 -110q-8 -48 -8 -79l-1 -335q0 -121 1 -136q5 -172 24 -229q21 -61 59 -61h48v-155zM654 -480q0 -32 -7 -50q-2 -5 -11.5 -25t-30.5 -20
q-7 0 -15 2l-20 5q-31 0 -56 -4q-58 -9 -72 -9q-51 -11 -140 -40q-32 -8 -51 -8q2 22 21 95q3 12 25 18q33 10 50 21q-24 41 -24 74l15 73q3 15 8 25q21 49 74 71q46 19 116 19q61 0 104 -83q0 -14 -9 -42q-10 -32 -20 -36q-13 0 -17 18q-8 35 -52 45q-23 6 -32 6
q-44 0 -89 -19q-31 -14 -48 -34q31 -66 110 -95h138q7 -4 33 -7z" />
    <glyph glyph-name="uFEFB" unicode="&#xfedf;&#xfe8e;" horiz-adv-x="1118" arabic-form="isolated" 
d="M562 498q-88 -191 -121 -196q-2 1 -3 2q6 12 6 18q0 9 -2 63l-4 116q0 46 -2 126l-8 139q-3 55 22 147q48 173 80 173l10 -42q0 -60 4 -115q8 -135 8 -293q0 -21 5 -63.5t5 -64.5v-10zM1072 1164q0 -184 -5 -260q-17 -271 -131 -459q-60 -98 -84 -129q-30 -39 -84 -88
q-84 -77 -164 -149q-114 -102 -242 -146q-94 -33 -193 -33q-55 0 -55 49q0 51 14 113q16 77 40 77q8 0 38.5 -19.5t50.5 -19.5q160 0 378 188q66 57 93 92q22 28 65 85q58 82 96 180q49 129 49 260q0 45 -6 95q0 117 48 117q7 0 11 -5q24 17 50 60q10 17 15 17q8 0 16 -25z
" />
    <glyph glyph-name="uFEFC" unicode="&#xfee0;&#xfe8e;" horiz-adv-x="1080" arabic-form="final" 
d="M550 455q0 -118 -113 -182q-16 10 -16 54q0 21 7 93q11 106 11 192q0 124 -19 194l-29 67q-12 27 -12 43q0 22 37.5 75.5t54.5 53.5q33 0 51 -97q13 -67 13 -122q0 -220 10 -328zM1122 0h-25q-54 0 -102 -28q-9 -6 -97 -63q-10 0 -10 81q0 14 8 91q5 42 5 94q0 47 -4 71
q-5 41 -33 159q-33 -93 -43 -118q-34 -83 -56 -112l-39 -48q-55 -72 -92 -141q-24 -45 -43 -59q-26 -21 -120 -64q-48 -22 -144 -37.5t-138.5 -36t-74.5 -57.5q1 6 1 11q11 40 11 74q0 23 73 128q15 22 21 62q3 15 45 15q50 12 149 36l84 19q17 4 67 39q145 100 174 180
q21 56 44 177q7 39 36 213q21 128 34 175q2 17 9 52q11 52 32 72q4 4 24 22q14 14 25 29q13 30 22 49q22 46 37 46t15 -26q0 -8 -18 -110q-8 -48 -8 -79l-1 -335q0 -121 1 -136q5 -172 24 -229q21 -61 59 -61h48v-155z" />
    <glyph glyph-name="u0622" unicode="&#x622;" horiz-adv-x="446" arabic-form="isolated" 
d="M396 1131q14 0 14 -10q0 1 -16 -49q-5 -15 -5 -29l-5 -93q0 -5 3 -110q2 -49 2 -90q-22 -206 -34 -383q-2 -62 -4 -125q-6 -91 -29 -114q-13 -13 -54 -33q-34 -17 -60 -45q-46 -50 -57 -50q-20 0 -20 14q58 149 58 242q3 20 20 116q14 79 21 137q10 83 10 156
q0 277 13 380q4 11 23 21l36 20q66 45 84 45zM636 1345q8 -5 8 -14q0 -25 -50 -75q-17 -17 -51 -20q-42 -3 -52 -7q-57 -25 -75 -31q-43 -15 -79 -17h-10q-23 0 -48 5q-64 13 -98 13q-9 0 -33 -11t-34 -11q-6 0 -10.5 5.5t-4.5 16.5q0 3 2 17q0 22 19 37q26 17 39 28
q20 19 32 30q17 14 36 14q-6 0 34 -8q9 -2 54 -16q33 -11 51 -11q14 0 134 45q45 17 81 17q41 0 55 -7z" />
    <glyph glyph-name="u0623" unicode="&#x623;" horiz-adv-x="413" arabic-form="isolated" 
d="M375 1131q14 0 14 -10q0 1 -17 -49q-4 -15 -5 -29l-5 -93q0 -5 3 -110q2 -49 2 -90q-22 -206 -34 -383q-2 -62 -4 -125q-6 -91 -29 -114q-13 -13 -54 -33q-34 -17 -60 -45q-46 -50 -57 -50q-20 0 -20 14q58 149 58 242q3 20 20 116q14 79 21 137q10 84 10 156
q0 277 13 380q4 11 23 21l36 20q66 45 85 45zM465 1326q0 -28 -6 -45q-1 -4 -10 -22t-28 -18q-6 0 -14 2l-17 4q-29 0 -51 -4q-53 -8 -66 -8q-46 -10 -128 -36q-29 -7 -46 -7q2 20 19 86q3 10 23 16q30 9 45 19q-21 37 -21 67l13 66q3 14 7 24q19 44 68 64q42 18 106 18
q55 0 94 -76q0 -13 -9 -39q-9 -29 -18 -32q-11 0 -15 16q-8 32 -47 42q-21 5 -30 5q-39 0 -80 -18q-28 -12 -44 -31q28 -60 100 -86h125q7 -3 30 -7z" />
    <glyph glyph-name="u0624" unicode="&#x624;" horiz-adv-x="889" arabic-form="isolated" 
d="M771 960q0 -28 -6 -45q-2 -4 -11 -22.5t-28 -18.5q-6 0 -13 2l-18 5q-29 0 -51 -4q-53 -8 -66 -8q-46 -10 -127 -36q-29 -8 -46 -8q1 20 18 86q3 11 23 17q30 9 45 19q-21 37 -21 67l13 66q3 14 7 23q19 45 68 65q42 18 106 18q55 0 94 -76q0 -13 -8 -39q-10 -29 -18 -32
q-12 0 -16 16q-7 32 -47 41q-21 6 -29 6q-40 0 -81 -18q-28 -12 -44 -31q28 -60 100 -86h125q7 -4 31 -7zM839 304q1 -3 1 -6v-6q0 -108 -119 -342q-48 -95 -83 -131q-101 -105 -271 -203q-194 -112 -319 -112q-26 0 -43 8q-5 2 -5 5q0 8 61 30q91 32 130 50q82 38 117 77
q112 127 198 275q-8 35 -58 39q-71 6 -80 10q-30 55 -30 111t33 166q32 105 36 118q28 75 59 102.5t76 27.5q35 0 89 -18q8 -2 108 -40q4 -3 51 -30q57 -33 57 -83q0 -21 -8 -48zM720 181q-30 32 -91 94q-46 45 -92 45q-43 0 -66 -37q-17 -27 -16 -54q2 -54 121 -54h14
q6 0 11 1z" />
    <glyph glyph-name="u0625" unicode="&#x625;" horiz-adv-x="494" arabic-form="isolated" 
d="M402 1131q14 0 14 -10q0 1 -16 -49q-5 -15 -5 -29l-5 -93q0 -5 3 -110q2 -49 2 -90q-22 -206 -34 -383q-2 -62 -4 -125q-6 -91 -29 -114q-13 -13 -54 -33q-34 -17 -60 -45q-46 -50 -57 -50q-20 0 -20 14q58 149 58 242q3 20 20 116q14 79 21 137q10 83 10 156
q0 277 13 380q4 11 23 21l36 20q66 45 84 45zM412 -289q0 -29 -6 -45q-2 -4 -10.5 -22.5t-27.5 -18.5q-6 0 -14 2l-18 5q-28 0 -50 -4q-53 -9 -67 -9q-45 -9 -127 -36q-29 -7 -46 -7q2 20 19 86q3 11 22 17q31 9 46 19q-22 37 -22 67l14 66q3 14 7 23q19 45 68 65
q42 17 106 17q54 0 94 -75q0 -13 -9 -39q-9 -29 -18 -32q-11 0 -15 16q-8 31 -47 41q-22 5 -30 5q-39 0 -80 -17q-28 -13 -44 -31q28 -60 100 -87h125q7 -3 30 -6z" />
    <glyph glyph-name="u0626" unicode="&#x626;" horiz-adv-x="1258" arabic-form="isolated" 
d="M1217 439q0 -61 -61 -98q-82 105 -145 105q-198 0 -294 -49q-67 -35 -81 -92q45 -96 183 -157q79 -32 235 -99q119 -57 130 -163q-44 -179 -197 -269q-135 -80 -328 -80q-276 0 -417 138q-86 85 -143 230q21 45 42 91q34 67 57 67q36 0 42 -63q2 -21 2 -76
q61 -159 221 -197q62 -14 150 -14h71q93 0 146 3q170 10 226 64q-18 93 -159 162q-85 37 -252 115q-136 66 -132 155q3 72 70 164q70 96 174 153q109 60 224 60q89 0 153 -30q83 -40 83 -120zM489 325q0 -29 -6 -46q-2 -3 -10.5 -21.5t-27.5 -18.5q-6 0 -14 2l-17 4
q-29 0 -51 -3q-53 -9 -66 -9q-46 -10 -128 -36q-29 -7 -46 -7q2 20 19 86q3 11 23 17q30 9 45 19q-22 37 -22 67l14 66q3 13 7 23q19 44 68 65q42 17 106 17q54 0 94 -75q0 -13 -9 -39q-9 -29 -18 -32q-11 0 -15 16q-8 31 -47 41q-22 5 -30 5q-39 0 -80 -17q-28 -13 -44 -31
q28 -60 100 -87h125q7 -3 30 -6z" />
    <glyph glyph-name="u0627" unicode="&#x627;" horiz-adv-x="420" arabic-form="isolated" 
d="M365 1132q14 0 14 -11q0 1 -17 -49q-4 -15 -5 -29l-5 -93q0 -4 4 -110q1 -49 1 -90q-22 -206 -34 -383q-2 -62 -4 -125q-6 -91 -29 -114q-13 -13 -54 -33q-34 -17 -60 -45q-46 -50 -57 -50q-20 0 -20 15q58 148 58 241q3 20 20 116q14 79 21 137q10 84 10 157
q0 276 13 379q5 11 23 21l36 20q66 46 85 46z" />
    <glyph glyph-name="u0628" unicode="&#x628;" horiz-adv-x="1202" arabic-form="isolated" 
d="M1154 546q7 0 7 -4l-13 -29q-6 -15 -6 -24q0 -210 -68 -299q-63 -81 -219 -129q-49 -15 -143 -37q-158 -37 -314 -37q-187 0 -252 64q-47 47 -47 129q0 105 51 206q55 113 198 297q42 53 92 109q40 45 63 45q6 0 6 -5q0 -2 -10.5 -29.5t-12.5 -37.5q4 -6 4 -18
q0 -40 -23 -71q-58 -40 -165 -144q-59 -79 -65 -181q-1 -8 -1 -19q0 -120 98 -162q60 -26 199 -29h16q57 0 101 5q113 13 253 68q155 61 161 127q0 4 1 12v11q0 23 -11 57t-11 44v6q0 11 47.5 43t63.5 32zM646 -377q0 -16 -6 -16q-2 0 -11.5 5t-14.5 3l-47 -31
q-10 -3 -32 -36q-10 -14 -38 -59q-19 -32 -23 -32q-6 0 -20 60t-14 89q0 4 -1 9v6q0 7 4 11q17 23 63 65q57 53 79 53q17 0 40 -54q21 -50 21 -73z" />
    <glyph glyph-name="u0629" unicode="&#x629;" horiz-adv-x="647" arabic-form="isolated" 
d="M606 149q0 -37 -15 -72l-25 -54q-3 -2 -16 -8q-53 -15 -261 -15q-155 0 -155 136q0 82 23 137q13 31 49 76q40 50 52 74q-38 42 -81 55q-26 5 -51 9q-27 9 -27 37v10q0 98 29 98q17 0 68 -33q7 -5 91 -62q49 -33 56 -33q5 0 59 44q81 67 103 83q60 45 77 45q13 0 13 -24
q0 -8 -1 -23.5t-1 -22.5t2 -21.5t2 -21.5q0 -20 -14 -29q-27 -18 -81 -55q-49 -35 -49 -54q0 -4 40 -38q113 -98 113 -238zM504 192q-25 54 -74 104q-19 19 -78 68q-11 -15 -68 -77q-40 -44 -40 -61q0 -20 57 -39q50 -17 77 -17q53 0 126 22zM482 845q0 -27 -6 -43
q-2 -3 -10.5 -20.5t-25.5 -17.5q-6 0 -13 2l-17 4q-19 0 -56 -6t-55 -6q-44 -9 -121 -34q-28 -7 -44 -7q2 19 18 82q2 10 21 16q29 8 43 18q-20 35 -20 64l13 62q3 13 6 22q19 42 65 62q40 16 100 16q52 0 90 -71q0 -13 -8 -37q-9 -28 -17 -31q-11 0 -15 15q-7 30 -45 40
q-20 5 -28 5q-37 0 -76 -17q-27 -12 -42 -29q26 -58 95 -83h119q6 -3 29 -6z" />
    <glyph glyph-name="u062A" unicode="&#x62a;" horiz-adv-x="1202" arabic-form="isolated" 
d="M1154 546q7 0 7 -4l-13 -29q-6 -15 -6 -24q0 -210 -68 -299q-63 -81 -219 -129q-49 -15 -143 -37q-158 -37 -314 -37q-187 0 -252 64q-47 47 -47 129q0 105 51 206q55 113 198 297q42 53 92 109q40 45 63 45q6 0 6 -5q0 -2 -10.5 -29.5t-12.5 -37.5q4 -6 4 -18
q0 -40 -23 -71q-58 -40 -165 -144q-59 -79 -65 -181q-1 -8 -1 -19q0 -120 98 -162q60 -26 199 -29h16q57 0 101 5q113 13 253 68q155 61 161 127q0 4 1 12v11q0 23 -11 57t-11 44v6q0 11 47.5 43t63.5 32zM941 663q0 -16 -6 -16q-2 0 -11.5 4.5t-14.5 3.5l-47 -32
q-10 -3 -32 -36q-10 -14 -38 -59q-19 -31 -24 -31t-19 60t-15 89v8v6q0 7 3 12q18 23 63 65q58 52 79 52q18 0 41 -54q21 -50 21 -72zM745 646q0 -16 -7 -16q-1 0 -10.5 4.5t-15.5 3.5l-47 -32q-9 -3 -32 -36q-9 -14 -37 -59q-20 -31 -24 -31q-6 0 -20 60t-14 89v8
q-1 5 -1 6q0 7 4 12q17 23 63 65q57 52 79 52q17 0 40 -54q22 -50 22 -72z" />
    <glyph glyph-name="u062B" unicode="&#x62b;" horiz-adv-x="1202" arabic-form="isolated" 
d="M1154 546q7 0 7 -4l-13 -29q-6 -15 -6 -24q0 -210 -68 -299q-63 -81 -219 -129q-49 -15 -143 -37q-158 -37 -314 -37q-187 0 -252 64q-47 47 -47 129q0 105 51 206q55 113 198 297q42 53 92 109q40 45 63 45q6 0 6 -4q0 -3 -10.5 -30.5t-12.5 -37.5q4 -6 4 -18
q0 -40 -23 -71q-58 -40 -165 -144q-59 -79 -65 -181q-1 -8 -1 -19q0 -120 98 -162q60 -26 199 -29h16q57 0 101 5q113 13 253 68q155 61 161 127q0 4 1 12v11q0 23 -11 57t-11 44v6q0 11 47.5 43t63.5 32zM965 944q0 -16 -6 -16q-2 0 -11.5 5t-15.5 3l-46 -31
q-10 -3 -32 -36q-10 -15 -38 -60q-20 -31 -24 -31q-6 0 -19.5 60t-14.5 89v8v6q0 7 3 12q18 23 63 65q57 53 79 53q17 0 41 -55q21 -50 21 -72zM966 676q0 -16 -6 -16q-2 0 -11.5 5t-14.5 3l-47 -31q-10 -3 -32 -36q-10 -15 -38 -60q-20 -31 -24 -31q-6 0 -19.5 60t-14.5 89
v8v6q0 7 3 12q18 23 63 65q57 53 79 53q18 0 41 -55q21 -49 21 -72zM770 659q0 -16 -7 -16q-1 0 -10.5 5t-15.5 3l-47 -31q-9 -3 -32 -36q-9 -15 -37 -60q-20 -31 -24 -31q-6 0 -20 60t-14 89v8q-1 5 -1 6q0 7 4 12q17 23 63 65q57 53 79 53q17 0 40 -55q22 -49 22 -72z" />
    <glyph glyph-name="u062C" unicode="&#x62c;" horiz-adv-x="1314" arabic-form="isolated" 
d="M1267 573q0 -142 -50 -164q-84 -36 -214 -96q-77 -36 -86 -42q-148 -115 -225 -183q-220 -192 -401 -466q-104 -157 -104 -208q0 -44 59 -73q48 -24 98 -24q60 0 364 68q173 39 254 62q41 14 124 42q70 23 76 24q14 0 14 -32l-8 -72q-7 -54 -11 -60q-11 -20 -22 -20
q-3 0 -13.5 5t-17.5 4l-475 -129q-186 -50 -390 -72q-71 35 -106 144q-11 33 -34 125q0 113 67 243q41 82 115 183q18 25 77 98q79 99 161 196q107 128 202 234q-107 0 -254 -22q-58 -8 -73 -8q-22 0 -26 5.5t-4 13.5q0 5 1 8l1 7q0 73 35 104q31 28 267 39q88 5 101 5
q62 10 131 19q83 12 103 12q50 21 103 21q33 11 71 22q73 22 86 22q10 0 10 -8q0 -4 -3 -13t-3 -14zM858 -264q0 -15 -7 -15q-1 0 -10.5 4.5t-15.5 3.5l-47 -32q-9 -3 -32 -36q-9 -14 -37 -59q-20 -31 -24 -31q-6 0 -20 60t-14 88v9q-1 5 -1 6q0 7 4 12q17 23 63 65
q57 52 79 52q17 0 40 -54q22 -50 22 -73z" />
    <glyph glyph-name="u062D" unicode="&#x62d;" horiz-adv-x="1314" arabic-form="isolated" 
d="M1267 573q0 -142 -50 -164q-84 -36 -214 -96q-77 -36 -86 -42q-148 -115 -225 -183q-220 -192 -401 -466q-104 -157 -104 -208q0 -44 59 -73q48 -24 98 -24q60 0 364 68q173 39 254 62q41 14 124 42q70 23 76 24q14 0 14 -32l-8 -72q-7 -54 -11 -60q-11 -20 -22 -20
q-3 0 -13.5 5t-17.5 4l-475 -129q-186 -50 -390 -72q-71 35 -106 144q-11 33 -34 125q0 113 67 243q41 82 115 183q18 25 77 98q193 240 363 430q-107 0 -254 -22q-58 -8 -73 -8q-22 0 -26 5.5t-4 13.5q0 5 1 8l1 7q0 73 35 104q31 28 267 39q88 5 101 5q62 10 131 19
q83 12 103 12q50 21 103 21q33 11 71 22q73 22 86 22q10 0 10 -8q0 -4 -3 -13t-3 -14z" />
    <glyph glyph-name="u062E" unicode="&#x62e;" horiz-adv-x="1314" arabic-form="isolated" 
d="M1267 515q0 -143 -50 -164q-84 -36 -214 -96q-77 -36 -86 -43q-148 -114 -225 -182q-220 -193 -401 -467q-104 -156 -104 -207q0 -44 59 -73q48 -24 98 -24q60 0 364 68q173 38 254 62q41 14 124 41q70 24 76 25q14 0 14 -32l-8 -72q-7 -54 -11 -60q-11 -20 -22 -20
q-3 0 -13.5 5t-17.5 4l-475 -129q-186 -51 -390 -72q-71 35 -106 144q-11 33 -34 125q0 113 67 243q41 82 115 183q18 25 77 98q79 98 161 196q107 128 202 234q-107 0 -254 -22q-58 -8 -73 -8q-22 0 -26 5.5t-4 13.5q0 4 1 8l1 7q0 73 35 104q31 28 267 39q88 5 101 5
q62 10 131 19q83 12 103 12q50 21 103 21q33 10 71 22q73 22 86 22q10 0 10 -8q0 -4 -3 -13t-3 -14zM750 833q0 -16 -6 -16q-2 0 -11.5 5t-14.5 3l-47 -31q-9 -3 -32 -36q-10 -15 -38 -60q-19 -31 -23 -31q-6 0 -20 60t-14 89q0 3 -1 8v6q0 7 4 12q17 23 63 65q57 53 79 53
q17 0 40 -55q21 -49 21 -72z" />
    <glyph glyph-name="u062F" unicode="&#x62f;" horiz-adv-x="848" arabic-form="isolated" 
d="M807 359q0 -50 -16 -121q-8 -35 -32 -125q-20 -76 -24 -110q-56 -71 -115 -97q-39 -18 -93 -20l-134 -3q-110 -3 -158 -15q-36 -8 -73 -27q-29 -15 -47 -15q-16 0 -16 26q0 16 4 40q11 60 11 72q0 82 32 82q101 -22 140 -22q65 0 138 26q163 15 227 75q41 38 41 95
q0 49 -66 98q-46 34 -56 42l-62 53q-41 33 -74 44l-44 9q-27 6 -27 24q0 13 12.5 40.5t14.5 38.5q1 3 1 7q0 9 -1 18q-4 32 -4 37q0 42 31 45q237 -56 347 -213q43 -60 43 -104z" />
    <glyph glyph-name="u0630" unicode="&#x630;" horiz-adv-x="848" arabic-form="isolated" 
d="M807 353q0 -50 -16 -121q-8 -35 -32 -125q-20 -76 -24 -110q-56 -71 -115 -97q-39 -18 -93 -20l-134 -4q-110 -2 -158 -14q-14 -3 -63 -24q-41 -18 -57 -18t-16 26q0 16 4 40q11 60 11 72q0 82 32 82q101 -22 140 -22q65 0 138 26q163 14 227 75q41 38 41 95q0 49 -66 98
q-46 34 -56 42l-62 53q-41 33 -74 44l-44 9q-27 6 -27 24q0 13 12.5 40.5t14.5 38.5q1 3 1 7q0 9 -1 18q-4 32 -4 37q0 42 31 45q237 -56 347 -213q43 -60 43 -104zM510 1037q0 -16 -6 -16q-2 0 -11.5 4.5t-14.5 3.5l-47 -31q-10 -3 -32 -37q-10 -14 -38 -59
q-19 -31 -23 -31q-6 0 -20 60t-14 89q-1 3 -1 8v6q0 7 4 12q17 23 63 65q57 53 78 53q18 0 41 -55q21 -50 21 -72z" />
    <glyph glyph-name="u0631" unicode="&#x631;" horiz-adv-x="844" arabic-form="isolated" 
d="M802 100q0 -46 -28 -119q-35 -88 -85 -127q-19 -21 -56 -61q-105 -111 -429 -230q-78 -29 -144 -75q-22 -15 -59 -50q-19 -18 -37 -18q-44 0 -44 54q0 33 29 97t55 79q25 23 171 60q12 7 41 17l2 2q37 15 109 45q113 49 196 105q105 73 105 130q0 29 -20 71q-7 14 -39 68
q-20 36 -20 49q0 35 44.5 83.5t79.5 48.5q26 0 73 -89q31 -58 56 -140z" />
    <glyph glyph-name="u0632" unicode="&#x632;" horiz-adv-x="844" arabic-form="isolated" 
d="M802 96q0 -46 -28 -119q-35 -88 -85 -127q-19 -20 -56 -60q-105 -112 -429 -231q-78 -28 -144 -74q-22 -16 -59 -50q-19 -18 -37 -18q-44 0 -44 54q0 32 29 96t55 80q25 22 171 60q11 3 49 11l-6 8q37 14 109 44q113 49 196 106q105 72 105 129q0 30 -20 72q-7 13 -39 68
q-20 36 -20 48q0 35 44.5 83.5t79.5 48.5q26 0 73 -88q31 -59 56 -141zM704 640q0 -16 -7 -16q-1 0 -10.5 5t-15.5 3l-47 -31q-9 -3 -32 -36q-9 -14 -37 -59q-20 -32 -24 -32q-6 0 -20 60.5t-14 88.5v9q-1 4 -1 6q0 7 4 11q17 23 63 65q57 53 79 53q17 0 40 -54
q22 -50 22 -73z" />
    <glyph glyph-name="u0633" unicode="&#x633;" horiz-adv-x="1250" arabic-form="isolated" 
d="M1192 249q-154 -308 -265 -308q-15 0 -28 16q-9 11 -27 46q-23 43 -36 65q-26 -52 -37 -70q-48 -85 -79 -85q-4 18 -29 51q-11 -11 -100 -111q-60 -69 -108 -100q-67 -43 -141 -43q-108 0 -175.5 76t-67.5 184q0 50 18 165q18 120 34 159q18 46 51 106q47 84 69 84
q10 0 10 -22q0 -40 -26 -113q-21 -57 -43 -113q-24 -70 -24 -139q0 -118 69 -188.5t186 -70.5q96 8 96 105q0 37 -14 88q-6 24 -28 90q-17 54 -21 74q6 49 57 118q30 42 65 63q25 -31 46 -127q7 -38 24 -114q13 -51 52 -51q21 0 46 33.5t25 55.5q0 20 -17 45q-8 13 -8 22
q0 42 119 88q27 -3 33 -42q0 -31 1 -62q8 -47 44 -78q41 -43 75 -43q39 0 39 71q0 18 -9 35q-19 38 -19 89q0 32 12 43q22 14 43 32l29 40q13 17 26 35q50 0 50 -113q0 -50 -17 -86z" />
    <glyph glyph-name="u0634" unicode="&#x634;" horiz-adv-x="1250" arabic-form="isolated" 
d="M1192 263q-154 -309 -265 -309q-15 0 -28 16q-9 11 -27 46q-23 44 -36 65q-26 -52 -37 -70q-48 -85 -79 -85q-4 18 -29 52q-11 -11 -100 -112q-60 -69 -108 -100q-67 -43 -141 -43q-108 0 -175.5 76t-67.5 184q0 50 18 165q18 120 34 160q18 45 51 105q47 84 69 84
q10 0 10 -22q0 -39 -26 -113q-21 -56 -43 -113q-24 -70 -24 -139q0 -118 69 -188.5t186 -70.5q96 8 96 105q0 37 -14 88q-6 24 -28 90q-17 54 -21 75q6 48 57 118q30 41 65 63q25 -32 46 -128q7 -38 24 -114q13 -51 52 -51q21 0 46 33.5t25 55.5q0 20 -17 45q-8 13 -8 22
q0 42 119 89q27 -4 33 -43q0 -31 1 -62q8 -47 44 -78q41 -43 75 -43q39 0 39 71q0 19 -9 35q-19 38 -19 89q0 33 12 43q22 14 43 32l29 40q13 17 26 35q50 0 50 -113q0 -50 -17 -85zM1097 966q0 -16 -6 -16q-2 0 -11.5 5t-15.5 3l-47 -31q-9 -3 -31 -36q-10 -15 -38 -60
q-20 -31 -24 -31q-6 0 -19.5 60t-14.5 89v8v6q0 7 3 12q17 23 63 65q57 53 79 53q17 0 41 -55q21 -49 21 -72zM1136 674q0 -16 -6 -16q-2 0 -11.5 5t-15.5 3l-47 -31q-9 -3 -32 -36q-9 -15 -37 -60q-20 -31 -24 -31q-6 0 -19.5 60t-14.5 89v8v6q0 7 3 12q17 23 63 65
q57 53 79 53q17 0 41 -55q21 -49 21 -72zM939 657q0 -16 -6 -16q-2 0 -11.5 5t-14.5 3l-47 -31q-9 -3 -32 -36q-10 -15 -38 -60q-19 -31 -23 -31q-6 0 -20 60t-14 89q0 3 -1 8v6q0 7 4 12q17 23 63 65q57 53 79 53q17 0 40 -55q21 -49 21 -72z" />
    <glyph glyph-name="u0635" unicode="&#x635;" horiz-adv-x="1544" arabic-form="isolated" 
d="M1502 516q0 -48 -32 -122q-40 -94 -110 -172q-95 -105 -212 -155q-94 -39 -163 -64q-149 -56 -312 -56q-9 -9 -87 -98q-56 -65 -103 -96q-66 -43 -141 -43q-107 0 -176 77q-67 74 -67 183q0 160 51 322q82 191 121 191q10 0 10 -22q0 -39 -26 -113q-21 -56 -43 -112
q-24 -71 -24 -140q0 -118 69 -188t186 -70q96 8 96 105q0 36 -14 87q-6 25 -28 90q-17 53 -21 75q7 50 57 118q30 41 66 63q12 -16 22 -42q14 -38 23 -86q7 -41 21 -124q13 -62 54 -62q15 0 45 83q46 130 71 182q76 162 226 267q117 82 241 82q82 0 137 -38q63 -43 63 -122z
M1316 380q0 56 -61 90q-51 30 -111 30q-85 0 -159 -134q-24 -43 -42 -91q3 -3 3 -10q0 -40 -85 -147q173 0 258 33q27 10 46 22q110 68 142 161q9 26 9 46z" />
    <glyph glyph-name="u0636" unicode="&#x636;" horiz-adv-x="1544" arabic-form="isolated" 
d="M1502 515q0 -48 -32 -122q-40 -95 -110 -172q-95 -105 -212 -155q-94 -40 -163 -65q-149 -55 -312 -55q-9 -9 -87 -98q-56 -65 -103 -96q-66 -43 -141 -43q-107 0 -176 77q-67 74 -67 182q0 161 51 323q82 191 121 191q10 0 10 -22q0 -39 -26 -113q-21 -56 -43 -113
q-24 -70 -24 -139q0 -118 69 -188.5t186 -70.5q96 9 96 106q0 36 -14 87q-6 25 -28 90q-17 53 -21 75q7 50 57 118q30 41 66 63q12 -16 22 -42q14 -38 23 -86q7 -41 21 -125q13 -61 54 -61q15 0 45 83q46 130 71 182q76 161 226 267q117 82 241 82q82 0 137 -38
q63 -43 63 -122zM1316 379q0 55 -61 90q-51 30 -111 30q-85 0 -159 -134q-24 -43 -42 -92q3 -3 3 -9q0 -40 -85 -147q173 0 258 33q27 10 46 22q110 68 142 161q9 25 9 46zM1009 1056q0 -16 -6 -16q-2 0 -11.5 5t-15.5 3l-47 -31q-9 -3 -32 -36q-9 -15 -37 -60
q-20 -31 -24 -31q-6 0 -20 60t-14 89v8q-1 5 -1 6q0 7 4 12q17 23 63 65q57 53 79 53q17 0 40 -55q22 -49 22 -72z" />
    <glyph glyph-name="u0637" unicode="&#x637;" horiz-adv-x="1101" arabic-form="isolated" 
d="M1060 360q4 -43 -37 -101q-34 -48 -77 -80q-57 -43 -160 -68q-86 -20 -172 -39l-156 -45q-84 -21 -136 -21q-35 -4 -72 -65q-17 -28 -36 -28q-24 -3 -24 29v10v9q0 20 -8 27q-22 10 -63 10q-13 0 -13 31q0 7 2 41q1 18 1 25q0 10 -3 24q-6 26 -7 29q0 14 19 16
q80 -11 136 -11q29 0 87 77q103 138 141 180q112 124 245 203q21 13 32 29q20 32 30 32q52 0 69 -35q7 -21 13 -41q10 -14 61 -66l83 -99q45 -55 45 -73zM922 313q-110 126 -144 122q-42 0 -150 -81q-98 -73 -184 -164q115 13 259 48q156 38 219 75zM520 545v-4v-3
q0 -10 -12 -22q-34 -31 -49 -55q-9 -10 -24 -37q-23 -43 -46 -43q-14 0 -14 10q0 8 9 28.5t9 30.5q-9 91 -17 160l-42 348q-2 18 -2 28q20 54 39 85q38 61 80 61q0 -62 17 -204q10 -86 32 -242z" />
    <glyph glyph-name="u0638" unicode="&#x638;" horiz-adv-x="1054" arabic-form="isolated" 
d="M1060 376q4 -43 -37 -101q-34 -48 -77 -80q-57 -43 -160 -68q-86 -20 -172 -39l-156 -45q-84 -21 -136 -21q-35 -4 -72 -65q-17 -28 -36 -28q-24 -3 -24 29v10v9q0 20 -8 27q-22 10 -63 10q-13 0 -13 31q0 6 2 41q1 18 1 25q0 9 -3 23q-6 26 -7 29q0 14 19 16
q80 -11 136 -11q29 0 87 78q103 138 141 180q112 123 245 203q21 13 32 29q20 32 30 32q52 0 69 -35q7 -21 13 -42q10 -14 61 -65l83 -100q45 -55 45 -72zM922 328q-110 127 -144 122q-42 0 -150 -80q-98 -74 -184 -164q115 12 259 48q156 38 219 74zM520 561v-4v-4
q0 -9 -12 -21q-34 -31 -49 -55q-9 -10 -24 -37q-23 -44 -46 -44q-14 0 -14 11q0 7 9 27.5t9 30.5q-9 92 -17 161l-42 348q-2 18 -2 27q20 55 39 86q38 60 80 60q0 -61 17 -203q10 -86 32 -242zM725 1085q0 -16 -6 -16q-2 0 -11.5 5t-15.5 3l-47 -31q-9 -3 -32 -36
q-9 -15 -37 -60q-20 -31 -24 -31q-6 0 -20 60t-14 89v9q-1 4 -1 5q0 7 4 12q17 23 63 65q57 53 79 53q17 0 40 -55q22 -49 22 -72z" />
    <glyph glyph-name="u0639" unicode="&#x639;" horiz-adv-x="1288" arabic-form="isolated" 
d="M1211 348q5 2 11 2q25 0 25 -38q0 -65 -56 -65q-16 -87 -27 -114q-27 -64 -84 -64q-14 0 -42.5 2.5t-42.5 2.5q-100 0 -200 -56q-208 -159 -348 -320q-81 -92 -156 -204q-104 -156 -104 -207q0 -45 59 -74q48 -23 98 -23q60 0 364 67q173 39 254 62q41 14 124 42
q70 23 76 24q14 0 14 -32l-8 -72q-7 -54 -11 -60q-11 -20 -22 -20q-3 0 -13.5 5t-17.5 4l-475 -129q-186 -50 -390 -72q-71 35 -106 145q-11 32 -34 124q0 113 67 244q42 82 115 183q39 53 226 272q95 113 161 186v7q0 16 -14 56q-24 67 -30 86q-33 102 -33 180
q0 163 147 212l65 14q35 7 138 7q39 35 58 35q15 0 17 -19q1 -8 -3 -31q-7 -39 -13 -88q-1 -5 -1 -10q0 -16 9 -43t9 -35t-8 -10l-21 4q-12 2 -27 2q-25 0 -59 -7q-152 -32 -219 -102q55 -89 121 -103q85 -34 169 -34q53 0 106 15q16 4 132 49z" />
    <glyph glyph-name="u063A" unicode="&#x63a;" horiz-adv-x="1288" arabic-form="isolated" 
d="M1211 359q5 2 11 2q25 0 25 -38q0 -66 -56 -66q-16 -86 -27 -113q-27 -65 -84 -65q-14 0 -42.5 2.5t-42.5 2.5q-100 0 -200 -55q-208 -160 -348 -320q-81 -93 -156 -205q-104 -155 -104 -207q0 -45 59 -73q48 -24 98 -24q60 0 364 68q173 38 254 62q41 14 124 41
q70 23 76 24q14 0 14 -32l-8 -71q-7 -54 -11 -60q-11 -20 -22 -20q-3 0 -13.5 5t-17.5 4l-475 -129q-186 -51 -390 -72q-71 34 -106 144q-11 32 -34 125q0 113 67 243q42 83 115 183q39 54 226 273q95 112 161 185v7q0 17 -14 57q-24 66 -30 86q-33 101 -33 180
q0 163 147 211l65 14q35 8 138 8q39 35 58 35q15 0 17 -20q1 -8 -3 -30q-7 -39 -13 -89q-1 -5 -1 -10q0 -15 9 -42t9 -35q0 -9 -8 -10l-21 3q-12 3 -27 3q-25 0 -59 -7q-152 -33 -219 -102q55 -89 121 -104q85 -33 169 -33q53 0 106 14q16 5 132 50zM852 1125q0 -16 -6 -16
q-2 0 -11.5 5t-14.5 4l-47 -32q-10 -3 -32 -36q-10 -14 -38 -59q-19 -32 -24 -32t-19 60.5t-15 88.5v8.5v6.5q0 7 3 12q18 23 63 65q57 52 79 52q18 0 41 -54q21 -50 21 -73z" />
    <glyph glyph-name="u0641" unicode="&#x641;" horiz-adv-x="1384" arabic-form="isolated" 
d="M1253 1014q0 -16 -6 -16q-2 0 -11.5 5t-15.5 3l-46 -31q-10 -3 -32 -36q-10 -15 -38 -60q-20 -31 -24 -31q-6 0 -19.5 60t-14.5 89v8v6q0 7 3 12q18 23 63 65q57 53 79 53q18 0 41 -55q21 -49 21 -72zM1343 476q0 -163 -10 -213q-7 -34 -26 -88q-48 -128 -251 -164
q-64 -11 -132 -11h-538q-182 0 -243 64q-44 46 -44 129q0 105 51 206q55 113 198 297q42 53 92 109q40 45 63 45q6 0 6 -5q0 -2 -10.5 -29.5t-12.5 -37.5q4 -6 4 -18q0 -40 -23 -71q-58 -40 -165 -144q-59 -79 -65 -181q-1 -8 -1 -19q0 -191 282 -191h413q22 0 65.5 -3
t65.5 -3q90 0 142 104q9 16 9 37q0 29 -18 61q-20 37 -46 37h-116q-44 -1 -44 30q0 79 13 116q18 46 36 91q26 151 66 151q122 0 185 -92q54 -79 54 -207zM1263 516q-19 23 -57 68q-30 33 -58 33q-53 -6 -53 -67q0 -27 38 -36q26 -6 54 -4z" />
    <glyph glyph-name="u0642" unicode="&#x642;" horiz-adv-x="987" arabic-form="isolated" 
d="M946 861q0 -16 -6 -16q-2 0 -11.5 5t-14.5 3l-47 -31q-10 -3 -32 -36q-10 -14 -38 -59q-19 -32 -23 -32q-6 0 -20 60t-14 89q-1 4 -1 9v6q0 7 4 11q17 23 63 65q57 53 78 53q18 0 41 -54q21 -50 21 -73zM750 844q0 -16 -6 -16q-2 0 -11.5 5t-15.5 3l-47 -31
q-9 -3 -31 -36q-10 -15 -38 -59q-20 -32 -24 -32q-6 0 -19.5 60t-14.5 89v8.5v6.5q0 7 3 11q17 23 63 65q57 53 79 53q17 0 41 -54q21 -50 21 -73zM942 275q0 -117 -31 -224q-9 -32 -11 -34q-40 -174 -109 -263q-40 -51 -143 -115q-86 -54 -205 -54q-210 0 -310 248
q-34 82 -34 137q0 205 39 347q29 105 79 171q13 9 23 9q20 0 20 -34q0 -12 -3 -20q-14 -38 -36 -81q-30 -57 -35 -69q-16 -38 -16 -67q0 -144 73 -266q85 -142 220 -142q105 0 230 73q139 82 139 178q0 25 -24 86q-29 71 -53 71q-92 -29 -155 -29q-57 0 -57 29q0 94 7 118
q14 31 30 70q36 149 81 149q132 0 206.5 -78t74.5 -210zM847 318q-32 32 -65 63q-46 41 -74 40q-25 -1 -43 -21t-18 -46q0 -20 27 -31q33 -13 76 -11z" />
    <glyph glyph-name="u0643" unicode="&#x643;" horiz-adv-x="1458" arabic-form="isolated" 
d="M711 128q2 1 -156.5 14t-171.5 13q-133 0 -133 139q0 60 20 104q17 36 62 103t62 102q2 5 2 10q0 14 -23 25q-14 6 -43 18q-8 3 -58 29q-17 9 -28 12q-31 -29 -68 -126q-31 -79 -55 -169q-22 -81 -22 -99q0 -208 260 -277q105 -28 242 -28q-19 0 136 -9q124 -6 131 2
q79 0 130 13q72 18 112 56q86 43 133 124q51 89 51 185q0 16 -1 32q0 160 -130 189q-76 53 -184 108q-209 56 -285 107q-46 31 -46 59q0 4 2 11q24 105 149 128q120 21 230 21q72 0 131 -40q2 1 5 1q7 0 42.5 -13t56.5 -13q58 0 78 28q12 23 57 46q18 9 18 16q0 16 -34 23
q-49 9 -75 27q-28 6 -62 11q-16 3 -64 10q-44 0 -105 4l-124 7q-174 0 -298 -82q-155 -43 -181 -251q12 -88 67 -112q19 -9 120 -37q31 -26 91 -48q23 -8 106 -36q284 -96 284 -190q0 -102 -106 -187q-21 -17 -62 -30q-30 -10 -61 -19q-97 -4 -202 -11z" />
    <glyph glyph-name="u0644" unicode="&#x644;" horiz-adv-x="1235" arabic-form="isolated" 
d="M1164 205q-51 -351 -234 -614q-40 -57 -76 -94q-126 -127 -312 -144q-11 -1 -15 -1h-13q-195 0 -309 200q-96 167 -96 374q0 52 31 143q10 30 68 183q46 123 68 203q1 6 9 53q8 54 52 70q23 8 54 8q55 0 104 -24q46 -23 46 -47q0 -15 -32 -52q-27 -31 -80 -93
q-111 -134 -149 -310q-21 -95 -21 -200q0 -195 73 -285.5t170 -90.5h10h6q133 12 243 125q91 94 147 235q76 193 105 476q14 132 14 234q0 82 -4 107l-74 434q0 19 5 25t14 6q8 0 51 -16q13 -4 28 -4q8 0 22 3t20 3q14 0 23 -28q37 -113 47 -186q1 -14 1 -22
q24 -223 24 -373q0 -160 -20 -298z" />
    <glyph glyph-name="u0645" unicode="&#x645;" horiz-adv-x="1154" arabic-form="isolated" 
d="M587 418l98 4q62 14 127 7q168 -17 222 -106q23 -37 23 -70q0 -52 -34 -120q-100 -202 -321 -202q-67 0 -105 51q-33 46 -33 116q0 59 65 114q28 23 116 76q-15 1 -32 1q-197 0 -276 -47q-54 -33 -88 -168q-12 -48 -35 -194q-3 -45 -12 -147q-4 -44 -12 -144
q-1 -49 -8 -161q-10 -82 -39 -184q-29 -98 -40 -98q-37 0 -92 91q-12 20 -12 36q0 22 9 37q2 2 9 94q9 111 24 170q9 29 26 94q6 37 18 121q8 78 37 252q5 42 13 121q9 74 48 99q84 53 169 114l2 2l57 31zM933 186q-3 30 -16 46q-1 0 -39 34q-11 -2 -27 -12q-17 -13 -72 -58
l-48 -34q-35 -27 -35 -42q0 -73 56 -73q181 0 181 127v12z" />
    <glyph glyph-name="u0646" unicode="&#x646;" horiz-adv-x="1020" arabic-form="isolated" 
d="M680 564q0 -16 -6 -16q-2 0 -11.5 5t-14.5 3l-47 -31q-10 -3 -32 -36q-10 -15 -38 -60q-19 -31 -23 -31q-6 0 -20 60t-14 89q-1 3 -1 8v6q0 7 4 12q17 23 63 65q57 53 78 53q18 0 41 -55q21 -50 21 -72zM979 98q0 -12 -10 -40q-40 -122 -185 -292q-104 -78 -201 -106
q-69 -20 -143 -20q-34 0 -200 18l-63 6q-33 0 -58 86q-20 69 -20 114q0 20 8 64q25 144 72 209q10 18 29 53q66 117 154 174q12 -19 12 -27q0 -13 -38 -65q-47 -67 -69 -115q-38 -80 -38 -157q0 -56 21 -111q25 -66 68 -85q21 0 61 -6q59 -8 83 -10q61 -6 130 -6l90 27
q151 50 151 228q0 79 -23 166q-12 45 -44 130q-23 64 -23 86q0 24 32 50t57 26q42 0 109 -171q38 -96 38 -226z" />
    <glyph glyph-name="u0647" unicode="&#x647;" horiz-adv-x="647" arabic-form="isolated" 
d="M606 149q0 -37 -15 -72l-25 -54q-3 -2 -16 -8q-53 -15 -261 -15q-155 0 -155 136q0 81 23 137q13 31 49 76q40 50 52 74q-38 42 -81 55q-26 5 -51 9q-27 9 -27 37v9q0 99 29 99q17 0 68 -33q7 -5 91 -62q49 -33 56 -33q5 0 59 44q81 67 103 83q60 45 77 45q13 0 13 -24
q0 -8 -1 -23.5t-1 -22.5t2 -21.5t2 -21.5q0 -20 -14 -30q-27 -17 -81 -54q-49 -35 -49 -54q0 -4 40 -38q113 -99 113 -238zM504 192q-25 54 -74 104q-19 19 -78 68q-11 -15 -68 -77q-40 -44 -40 -61q0 -20 57 -39q50 -17 77 -17q53 0 126 22z" />
    <glyph glyph-name="u0648" unicode="&#x648;" horiz-adv-x="889" arabic-form="isolated" 
d="M839 314q1 -3 1 -6v-6q0 -108 -119 -342q-48 -96 -83 -132q-101 -104 -271 -202q-194 -112 -319 -112q-26 0 -43 7q-5 3 -5 5q0 8 61 30q91 33 130 51q82 37 117 77q112 126 198 275q-8 34 -58 39q-71 5 -80 10q-30 55 -30 111t33 166q32 104 36 118q28 75 59 102.5
t76 27.5q35 0 89 -18q8 -3 108 -40q4 -3 51 -30q57 -34 57 -84q0 -21 -8 -47zM720 191q-30 31 -91 93q-46 45 -92 45q-43 0 -66 -36q-17 -27 -16 -54q2 -55 121 -55h14q6 1 11 1z" />
    <glyph glyph-name="u0649" unicode="&#x649;" horiz-adv-x="1258" arabic-form="isolated" 
d="M1217 439q0 -61 -61 -98q-82 105 -145 105q-198 0 -294 -49q-67 -35 -81 -92q45 -96 183 -157q79 -32 235 -99q119 -57 130 -163q-44 -179 -197 -269q-135 -80 -328 -80q-276 0 -417 138q-86 85 -143 230q21 45 42 91q34 67 57 67q36 0 42 -63q2 -21 2 -76
q61 -159 221 -197q62 -14 150 -14h71q93 0 146 3q170 10 226 64q-18 93 -159 162q-85 37 -252 115q-136 66 -132 155q3 72 70 164q70 96 174 153q109 60 224 60q89 0 153 -30q83 -40 83 -120z" />
    <glyph glyph-name="u064A" unicode="&#x64a;" horiz-adv-x="1258" arabic-form="isolated" 
d="M1217 439q0 -61 -61 -98q-82 105 -145 105q-198 0 -294 -49q-67 -35 -81 -92q45 -96 183 -157q79 -32 235 -99q119 -57 130 -163q-44 -179 -197 -269q-135 -80 -328 -80q-276 0 -417 138q-86 85 -143 230q21 45 42 91q34 67 57 67q36 0 42 -63q2 -21 2 -76
q61 -159 221 -197q62 -14 150 -14h71q93 0 146 3q170 10 226 64q-18 93 -159 162q-85 37 -252 115q-136 66 -132 155q3 72 70 164q70 96 174 153q109 60 224 60q89 0 153 -30q83 -40 83 -120z" />
    <glyph glyph-name="u067E" unicode="&#x67e;" horiz-adv-x="1202" arabic-form="isolated" 
d="M1154 546q7 0 7 -4l-13 -29q-6 -14 -6 -24q0 -210 -68 -299q-63 -81 -219 -129q-49 -15 -143 -37q-158 -37 -314 -37q-187 0 -252 64q-47 47 -47 129q0 105 51 206q55 114 198 297q42 53 92 109q40 45 63 45q6 0 6 -4q0 -3 -10.5 -30.5t-12.5 -36.5q4 -7 4 -19
q0 -40 -23 -71q-58 -40 -165 -144q-59 -79 -65 -181q-1 -8 -1 -19q0 -120 98 -162q60 -26 199 -29h16q57 0 101 5q113 13 253 68q155 61 161 127q0 4 1 12v12q0 22 -11 56t-11 45v5q0 11 47.5 43t63.5 32zM594 -615q0 -16 -6 -16q-2 0 -11.5 5t-15.5 3l-47 -31
q-9 -3 -32 -36q-9 -15 -37 -59q-20 -32 -24 -32q-6 0 -19.5 60t-14.5 89v8.5v5.5q0 8 3 12q17 23 63 65q57 53 79 53q17 0 41 -54q21 -50 21 -73zM759 -348q0 -16 -6 -16q-2 0 -11.5 5t-15.5 4l-46 -32q-10 -3 -32 -36q-10 -14 -38 -59q-20 -32 -24 -32q-6 0 -19.5 60.5
t-14.5 88.5v8.5v6.5q0 7 3 12q18 23 63 65q57 52 79 52q17 0 41 -54q21 -50 21 -73zM562 -365q0 -16 -6 -16q-2 0 -11.5 5t-14.5 4l-47 -32q-9 -3 -32 -36q-10 -14 -37 -59q-20 -32 -24 -32q-6 0 -20 60.5t-14 88.5q0 4 -1 9v6q0 7 4 12q17 23 63 65q57 52 79 52
q17 0 40 -54q21 -50 21 -73z" />
    <glyph glyph-name="u0686" unicode="&#x686;" horiz-adv-x="1314" arabic-form="isolated" 
d="M1267 573q0 -142 -50 -164q-84 -36 -214 -96q-77 -36 -86 -42q-148 -115 -225 -183q-220 -193 -401 -466q-104 -157 -104 -208q0 -44 59 -73q48 -24 98 -24q60 0 364 68q173 39 254 62q41 14 124 42q70 23 76 24q14 0 14 -32l-8 -72q-7 -54 -11 -60q-11 -20 -22 -20
q-3 0 -13.5 5t-17.5 4l-475 -129q-186 -50 -390 -72q-71 35 -106 144q-11 33 -34 125q0 113 67 243q41 82 115 183q18 25 77 98q79 99 161 196q107 128 202 234q-107 0 -254 -22q-58 -8 -73 -8q-22 0 -26 5.5t-4 13.5q0 5 1 8l1 7q0 73 35 104q31 28 267 39q88 5 101 5
q62 10 131 19q83 12 103 12q50 21 103 21q33 11 71 22q73 22 86 22q10 0 10 -8q0 -4 -3 -13t-3 -14zM800 -420q0 -16 -6 -16q-2 0 -11.5 5t-15.5 3l-46 -31q-10 -3 -32 -36q-10 -15 -38 -60q-20 -31 -24 -31q-6 0 -19.5 60t-14.5 89v8v6q0 7 3 12q18 23 63 65q57 53 79 53
q17 0 41 -55q21 -50 21 -72zM1011 -141q0 -16 -6 -16q-2 0 -11.5 5t-14.5 3l-47 -31q-10 -3 -32 -36q-10 -15 -38 -59q-19 -32 -24 -32t-19 60t-15 89v8.5v5.5q0 8 3 12q18 23 63 65q58 53 79 53q18 0 41 -54q21 -50 21 -73zM815 -158q0 -16 -6 -16q-2 0 -11.5 5t-15.5 3
l-47 -31q-9 -3 -32 -36q-9 -15 -37 -59q-20 -32 -24 -32q-6 0 -20 60t-14 89v9q-1 4 -1 5q0 8 4 12q17 23 63 65q57 53 79 53q17 0 40 -54q22 -50 22 -73z" />
    <glyph glyph-name="u0698" unicode="&#x698;" horiz-adv-x="849" arabic-form="isolated" 
d="M802 100q0 -46 -28 -119q-35 -88 -85 -127q-19 -20 -56 -61q-105 -111 -429 -230q-78 -28 -144 -75q-22 -15 -59 -50q-19 -18 -37 -18q-44 0 -44 54q0 33 29 97t55 80q25 22 171 59q11 3 49 11l-6 8q37 15 109 45q113 49 196 105q105 73 105 130q0 29 -20 71
q-7 14 -39 69q-20 35 -20 48q0 35 44.5 83.5t79.5 48.5q26 0 73 -89q31 -58 56 -140zM786 944q0 -15 -6 -15q-2 0 -11.5 4.5t-14.5 3.5l-47 -32q-10 -3 -32 -36q-10 -14 -38 -59q-19 -31 -24 -31t-19 60t-15 88v9v6q0 7 3 12q18 23 63 65q58 52 79 52q18 0 41 -54
q21 -50 21 -73zM799 634q0 -16 -6 -16q-2 0 -11.5 5t-14.5 4l-47 -32q-10 -3 -32 -36q-10 -14 -38 -59q-19 -32 -23 -32q-6 0 -20 60.5t-14 88.5q0 4 -1 9v6q0 7 4 12q17 23 63 65q57 52 78 52q18 0 41 -54q21 -50 21 -73zM603 617q0 -16 -6 -16q-2 0 -11.5 5t-15.5 4
l-46 -32q-10 -3 -32 -36q-10 -14 -38 -59q-20 -32 -24 -32q-6 0 -19.5 60.5t-14.5 88.5v8.5v6.5q0 7 3 12q18 23 63 65q57 52 79 52q17 0 41 -54q21 -50 21 -73z" />
    <glyph glyph-name="u06AF" unicode="&#x6af;" horiz-adv-x="1458" arabic-form="isolated" 
d="M601 1165q40 58 108 77q107 71 257 71q17 -1 108 -6q52 -4 90 -4l55 -8q30 -5 54 -10q21 -15 65 -26q29 -7 29 -21q0 -6 -16 -12q-38 -17 -49 -37q-17 -25 -67 -25q-19 0 -49 11t-36 11h-5q-51 35 -113 35q-102 0 -199 -20q-52 -11 -80 -33q-31 -16 -66 -54zM711 128
q2 1 -156.5 14t-171.5 13q-133 0 -133 139q0 60 20 103q17 37 62 104t62 102q2 5 2 9q0 15 -23 26q-14 6 -43 18q-8 3 -58 29q-17 8 -28 11q-31 -28 -68 -125q-31 -79 -55 -169q-22 -81 -22 -99q0 -208 260 -277q105 -28 242 -28q-19 0 136 -9q124 -7 131 2q79 0 130 13
q72 18 112 56q86 43 133 124q51 88 51 185q0 16 -1 32q0 160 -130 189q-76 53 -184 107q-209 57 -285 108q-46 31 -46 59q0 4 2 11q24 105 149 128q120 21 230 21q72 0 131 -40q2 1 5 1q7 0 42.5 -13t56.5 -13q58 0 78 28q12 23 57 46q18 9 18 16q0 16 -34 23q-49 9 -75 27
q-28 6 -62 11q-16 3 -64 10q-44 0 -105 4l-124 7q-174 0 -298 -82q-155 -43 -181 -252q12 -87 67 -111q19 -9 120 -37q31 -26 91 -48q23 -8 106 -36q284 -97 284 -190q0 -102 -106 -187q-21 -17 -62 -30q-30 -10 -61 -20q-97 -3 -202 -10z" />
    <glyph glyph-name="uFB57" unicode="&#x67e;" horiz-adv-x="1291" arabic-form="final" 
d="M1329 15h-33q-23 0 -33 -2l-72 8q-53 7 -90 50q-20 24 -45 78q-19 40 -29 40q-13 0 -60 -53q-56 -64 -127 -98q-110 -52 -280 -52q-282 0 -391 82q-70 53 -70 140q0 105 51 206q55 114 198 297q42 53 92 109q40 45 63 45q6 0 6 -4q0 -3 -10.5 -30.5t-12.5 -36.5
q4 -7 4 -19q0 -40 -23 -71q-58 -40 -165 -144q-54 -72 -63 -162q-3 -20 -3 -40q0 -140 153 -187q99 -30 273 -30q196 0 296 72q35 26 41 32q26 26 26 57q0 8 -27.5 47t-27.5 61q0 6 70 90q12 14 29 36q30 39 46 39q29 0 38 -43q3 -71 31 -212q15 -41 43 -123q18 -28 102 -28
v-154zM594 -636q0 -16 -6 -16q-2 0 -11.5 4.5t-15.5 3.5l-47 -32q-9 -3 -32 -36q-9 -14 -37 -59q-20 -31 -24 -31q-6 0 -19.5 60t-14.5 89v8v6q0 7 3 12q17 23 63 65q57 52 79 52q17 0 41 -54q21 -50 21 -72zM779 -343q0 -16 -6 -16q-2 0 -11.5 5t-15.5 3l-46 -31
q-10 -3 -32 -36q-10 -15 -38 -60q-20 -31 -24 -31q-6 0 -19.5 60t-14.5 89v8v6q0 7 3 12q18 23 63 65q57 53 79 53q18 0 41 -55q21 -49 21 -72zM583 -360q0 -16 -7 -16q-2 0 -11 5t-15 3l-47 -31q-9 -3 -32 -36q-10 -15 -37 -60q-20 -31 -24 -31q-6 0 -20 60t-14 89v8
q-1 5 -1 6q0 7 4 12q17 23 63 65q57 53 79 53q17 0 40 -55q22 -49 22 -72z" />
    <glyph glyph-name="uFB58" unicode="&#x67e;" horiz-adv-x="506" arabic-form="initial" 
d="M460 295q0 -17 -6 -47q-25 -110 -103 -185q-197 -63 -244 -63h-132v155h125q77 0 167 34q103 40 114 93q0 28 -20 54q-13 17 -52 51q-50 42 -74 65q-71 66 -71 118q0 30 13 62q17 41 42 41q19 0 115 -85q49 -44 77 -80q49 -94 49 -213zM240 -558q0 -16 -6 -16
q-2 0 -11.5 5t-14.5 3l-47 -31q-10 -3 -32 -36q-10 -15 -38 -60q-7 -12 -15 -36.5t-9 -24.5l-20 94q-14 67 -14 99q0 7 3 12q18 23 63 65q58 53 79 53q18 0 41 -55q21 -50 21 -72zM420 -288q0 -16 -6 -16q-2 0 -11.5 5t-15.5 3l-47 -31q-9 -3 -32 -36q-9 -15 -37 -60
q-20 -31 -24 -31q-6 0 -19.5 60t-14.5 89v8v6q0 7 3 12q17 23 63 65q57 53 79 53q17 0 41 -55q21 -49 21 -72zM223 -305q0 -16 -6 -16q-2 0 -11.5 5t-14.5 3l-47 -31q-9 -3 -32 -36q-10 -15 -38 -60q-19 -31 -23 -31q-6 0 -20 60t-14 89q0 3 -1 8v6q0 7 4 12q17 23 63 65
q57 53 79 53q17 0 40 -55q21 -49 21 -72z" />
    <glyph glyph-name="uFB59" unicode="&#x67e;" horiz-adv-x="604" arabic-form="medial" 
d="M638 0q-31 0 -45 5q-25 8 -61 46q-26 29 -53 58q-30 32 -67 32q-13 0 -47 -36q-43 -47 -79 -68q-60 -37 -138 -37h-176v155h165q67 0 125 84q46 66 65 145q10 37 10 98q0 28 -2 59l-4 84q0 46 15 46q5 0 38 -30q21 -19 34.5 -26.5t58.5 -31.5q30 -26 30 -94
q0 -53 -13 -119q-2 -14 -2 -31q0 -47 28 -110q32 -74 72 -74h46v-155zM245 -651q0 -16 -7 -16q-1 0 -10.5 5t-15.5 4l-47 -32q-9 -3 -32 -36q-9 -14 -37 -59q-20 -32 -24 -32q-6 0 -20 60.5t-14 88.5v9q-1 4 -1 6q0 7 4 12q17 23 63 65q57 52 79 52q17 0 40 -54
q22 -50 22 -73zM434 -343q0 -16 -6 -16q-2 0 -11.5 4.5t-14.5 3.5l-47 -32q-10 -3 -32 -36q-10 -14 -38 -59q-19 -31 -24 -31t-19 60t-15 89v8v6q0 7 3 12q18 23 63 65q58 52 79 52q18 0 41 -54q21 -50 21 -72zM238 -360q0 -16 -7 -16q-1 0 -10.5 4.5t-15.5 3.5l-47 -32
q-9 -3 -32 -36q-9 -14 -37 -59q-20 -31 -24 -31q-6 0 -20 60t-14 88v9q-1 5 -1 6q0 7 4 12q17 23 63 65q57 52 79 52q17 0 40 -54q22 -50 22 -72z" />
    <glyph glyph-name="uFB7B" unicode="&#x686;" horiz-adv-x="1251" arabic-form="final" 
d="M734 -470q0 -16 -6 -16q-2 0 -11.5 5t-15.5 4l-46 -32q-10 -3 -32 -36q-10 -14 -38 -59q-20 -32 -24 -32q-6 0 -19.5 60.5t-14.5 88.5v8.5v6.5q0 7 3 12q18 23 63 65q57 52 79 52q18 0 41 -54q21 -50 21 -73zM929 -199q0 -16 -7 -16q-1 0 -10.5 5t-15.5 4l-47 -32
q-9 -3 -32 -36q-9 -14 -37 -59q-20 -32 -24 -32q-6 0 -20 60.5t-14 88.5v9q-1 4 -1 6q0 7 4 12q17 23 63 65q57 52 79 52q17 0 40 -54q22 -50 22 -73zM732 -216q0 -16 -6 -16q-2 0 -11.5 5t-14.5 4l-47 -32q-10 -3 -32 -36q-10 -14 -38 -59q-19 -32 -23 -32q-6 0 -20 60.5
t-14 88.5q-1 4 -1 9v6q0 7 4 12q17 23 62 65q58 52 79 52q18 0 41 -54q21 -50 21 -73zM1293 0h-443h-73q-19 0 -38.5 1t-32.5 13q-4 3 -19 29q-6 9 -12 26q-192 -161 -365 -421q-63 -95 -95 -157q-28 -55 -28 -77q0 -44 59 -73q48 -24 98 -24q60 0 364 68q173 39 254 62
q41 14 124 42q70 23 76 24q14 0 14 -32l-8 -72q-7 -54 -11 -60q-11 -20 -22 -20q-3 0 -13.5 5t-17.5 4l-475 -129q-186 -50 -390 -72q-71 35 -106 144q-11 33 -34 125q0 113 69 248q44 85 117 185q53 73 235 289q110 131 201 232q-107 0 -254 -22q-58 -8 -73 -8
q-22 0 -26 5.5t-4 13.5q0 5 1 8l1 7q0 73 35 104q31 28 267 39q88 5 101 5q62 10 131 19q84 12 103 12q50 21 103 21q33 11 71 22q73 22 86 22q10 0 10 -8q0 -4 -3 -13t-3 -14q0 -142 -50 -164q-11 -5 -52 -23l-96 -44q-45 -21 -63 -30q-43 -22 -73 -40l-59 -35l35 -82h384
v-155z" />
    <glyph glyph-name="uFB7C" unicode="&#x686;" horiz-adv-x="1043" arabic-form="initial" 
d="M1006 320v-8q0 -9 -5.5 -29t-5.5 -31q0 -70 -21 -100q-25 -37 -107 -67q-77 -28 -261 -72q-68 -16 -191 -16q-39 0 -107 2l-83 1h-248v155h235q13 0 104 -3q45 -2 80 -2q278 0 483 89q-105 96 -279 132q-63 13 -112 20q-92 12 -171 12q-29 0 -77 -7q-55 -7 -76 -8h-8
q-28 0 -38 19q-6 12 -15 63q-24 58 -24 71q0 19 18 19q158 0 317 -16q98 -10 153 -24l103 -28q33 -9 61 -21l83 -34q27 -10 80 -31q103 -41 112 -86zM341 -701q0 -16 -6 -16q-2 0 -11.5 5t-15.5 4l-47 -32q-9 -3 -32 -36q-9 -14 -37 -59q-20 -32 -24 -32q-6 0 -19.5 60.5
t-14.5 88.5v8.5v6.5q0 7 3 12q17 23 63 65q57 52 79 52q17 0 41 -54q21 -50 21 -73zM535 -405q0 -16 -6 -16q-2 0 -11.5 5t-14.5 3l-47 -31q-10 -3 -32 -36q-10 -14 -38 -59q-19 -32 -23 -32q-6 0 -20 60.5t-14 88.5q0 4 -1 9v6q0 7 4 11q17 23 63 65q57 53 79 53
q17 0 40 -54q21 -50 21 -73zM339 -422q0 -16 -6 -16q-2 0 -11.5 5t-14.5 3l-47 -31q-10 -3 -32 -36q-10 -14 -38 -59q-19 -32 -24 -32t-19 60.5t-15 88.5v8.5v6.5q0 7 3 11q18 23 63 65q57 53 79 53q18 0 41 -54q21 -50 21 -73z" />
    <glyph glyph-name="uFB7D" unicode="&#x686;" horiz-adv-x="1053" arabic-form="medial" 
d="M1092 0h-92h-9q-7 -1 -11 -1q-126 -1 -194 69l-99 -28q-32 -9 -86 -23q-76 -18 -219 -18h-77l-328 1v155h235q18 0 72 -1l69 -1q189 0 333 31q100 23 191 61q-101 97 -277 134q-62 13 -112 19q-91 12 -171 12q-88 0 -145 -14q-11 -1 -18 -1q-27 0 -36 20q-6 11 -15 64
q-23 51 -23 65q0 16 17 16q193 0 317 -10q100 -8 154.5 -22t162.5 -49l84 -34q27 -10 81 -31q121 -48 121 -102q0 -9 -2.5 -26.5t-2.5 -26.5q0 -37 -42 -104l122 -1v-154zM365 -731q0 -16 -7 -16q-1 0 -10.5 5t-15.5 4l-47 -32q-9 -3 -32 -36q-10 -14 -37 -59
q-20 -32 -24 -32q-6 0 -20 60.5t-14 88.5v9q-1 4 -1 6q0 7 4 12q17 23 63 65q57 52 79 52q17 0 40 -54q22 -50 22 -73zM569 -438q0 -16 -7 -16q-2 0 -11 5t-15 3l-47 -31q-9 -3 -32 -36q-10 -14 -37 -59q-20 -32 -24 -32q-6 0 -20 60t-14 89v9q-1 4 -1 6q0 7 4 11
q17 23 63 65q57 53 79 53q17 0 40 -54q22 -50 22 -73zM372 -455q0 -16 -6 -16q-2 0 -11.5 5t-14.5 3l-47 -31q-10 -3 -32 -36q-10 -14 -38 -59q-19 -32 -24 -32t-19 60t-15 89v8.5v6.5q0 7 3 11q18 23 63 65q58 53 79 53q18 0 41 -54q21 -50 21 -73z" />
    <glyph glyph-name="uFB8B" unicode="&#x698;" horiz-adv-x="966" arabic-form="final" 
d="M1004 0h-223q-41 -105 -92 -146q-19 -20 -56 -61q-105 -111 -429 -230q-78 -28 -144 -75q-22 -15 -59 -50q-19 -18 -37 -18q-44 0 -44 54q0 33 29 97t55 80q25 22 171 59q11 3 49 11l-6 8q37 15 109 45q113 49 196 105q105 73 105 130q0 29 -20 71q-7 14 -39 69
q-20 35 -20 48q0 35 44.5 83.5t79.5 48.5q31 0 112 -175h219v-154zM843 944q0 -15 -6 -15q-2 0 -11.5 4.5t-15.5 3.5l-47 -32q-9 -3 -32 -36q-9 -14 -37 -59q-20 -31 -24 -31q-6 0 -19.5 60t-14.5 88v9v6q0 7 3 12q17 23 63 65q57 52 79 52q17 0 41 -54q21 -50 21 -73z
M852 644q0 -15 -7 -15q-1 0 -10.5 4.5t-15.5 3.5l-47 -32q-9 -3 -32 -36q-9 -14 -37 -59q-20 -31 -24 -31q-6 0 -20 60t-14 88v9q-1 5 -1 6q0 7 4 12q17 23 63 65q57 52 79 52q17 0 40 -54q22 -50 22 -73zM655 627q0 -15 -6 -15q-2 0 -11.5 4.5t-14.5 3.5l-47 -32
q-10 -3 -32 -36q-10 -14 -38 -59q-19 -31 -23 -31q-6 0 -20 60t-14 88q-1 4 -1 9v6q0 7 4 12q17 23 62 65q58 52 79 52q18 0 41 -54q21 -50 21 -73z" />
    <glyph glyph-name="uFEDA" unicode="&#x6a9;" horiz-adv-x="1410" arabic-form="final" 
d="M386 157q-131 0 -131 137q0 60 20 104q17 37 62 103.5t62 100.5q2 5 2 11q0 15 -23 26q-15 6 -44 19q-29 17 -88 42q-32 -31 -69 -127q-30 -78 -56 -170q-22 -82 -22 -100q0 -209 262 -278q106 -27 242 -27q37 0 83 -3q39 -2 48 -2q-5 0 95 0q134 0 238 66
q30 -64 121 -64q14 0 62 4q21 1 35 1h157v153h-242l50 62q28 38 35 71q12 30 12 61q0 18 -4 56q0 160 -130 189q-76 53 -184 108q-214 58 -285 104q-46 29 -46 57q0 4 2 11q25 105 149 131q15 3 106 14q86 9 124 9q72 0 131 -40q2 1 5 1q7 0 42.5 -13t56.5 -13q58 0 78 28
q12 24 57 43q18 8 18 14q0 17 -34 25q-51 13 -75 30q-28 6 -62 11q-16 3 -64 10q-44 0 -105 4l-124 7q-174 0 -298 -82q-155 -43 -181 -251q12 -88 67 -112q19 -9 120 -37q31 -26 91 -48q23 -8 106 -36q284 -96 284 -190q0 -74 -53 -134q-54 -63 -127 -63q-52 -16 -128 -23
l-110 -4q-8 -4 -99 -3q-67 1 -160.5 4t-78.5 3z" />
    <glyph glyph-name="uFEDB" unicode="&#x6a9;" horiz-adv-x="961" arabic-form="initial" 
d="M919 1050q0 -6 -18 -15q-45 -23 -56 -46q-21 -28 -78 -28q-22 0 -57 12.5t-42 12.5h-5q-59 40 -132 40q-110 0 -229 -21q-126 -23 -150 -128q-1 -7 -1 -11q0 -55 164 -115q68 -25 166 -52q109 -55 184 -107q130 -29 130 -190q2 -15 2 -32q0 -96 -51 -184
q-47 -81 -133 -124q-41 -38 -113 -56q-52 -14 -130 -14q-27 0 -140 5q-56 3 -92 3h-161v148h455q110 0 183 135q29 53 29 94q0 93 -284 190l-106 35q-59 23 -90 48q-101 29 -120 38q-55 24 -67 111q26 209 181 252q123 82 298 82q19 -1 124 -7q61 -4 104 -4l64 -10
q35 -5 62 -11q26 -18 75 -27q34 -7 34 -24z" />
    <glyph glyph-name="uFEDC" unicode="&#x6a9;" horiz-adv-x="953" arabic-form="medial" 
d="M929 1046q0 -6 -18 -14q-45 -19 -57 -43q-20 -28 -78 -28q-21 0 -56.5 13t-42.5 13q-3 0 -5 -1q-59 40 -131 40q-38 0 -124 -9q-45 -5 -106 -14q-124 -26 -149 -131q-2 -7 -2 -11q0 -53 164 -111q65 -23 167 -50q108 -55 184 -108q130 -29 130 -189q4 -38 4 -56
q0 -31 -12 -61q-7 -32 -85 -133h282v-153h-197q-14 0 -35 -1q-48 -4 -62 -4q-91 0 -121 64q-104 -66 -238 -66q-32 0 -96.5 3.5t-96.5 3.5h-162v153h250q153 0 238 27q73 0 127 63q53 60 53 134q0 94 -284 190l-106 36q-60 22 -91 48q-100 28 -120 37q-55 24 -67 112
q26 208 181 251q124 82 298 82q20 -1 124 -7q61 -4 105 -4l64 -10q34 -5 62 -11q24 -17 75 -30q34 -8 34 -25z" />
    <glyph glyph-name="uFB93" unicode="&#x6af;" horiz-adv-x="1442" arabic-form="final" 
d="M624 1167q40 58 108 77q107 71 257 71q17 -1 108 -6q52 -4 90 -4l55 -8q30 -5 54 -10q21 -15 65 -26q29 -7 29 -21q0 -6 -16 -12q-38 -17 -49 -37q-17 -25 -67 -25q-19 0 -49 11t-36 11h-5q-51 35 -113 35q-102 0 -199 -20q-52 -11 -80 -33q-31 -16 -66 -54zM386 157
q-131 0 -131 137q0 59 20 103q17 38 62 104.5t62 100.5q2 5 2 11q0 15 -23 26q-15 6 -44 19q-29 17 -88 42q-32 -31 -69 -127q-30 -78 -56 -170q-22 -82 -22 -100q0 -209 262 -278q106 -28 242 -28q37 0 83 -2q39 -2 48 -2q-5 0 95 0q134 0 238 66q30 -64 121 -64q14 0 62 3
q21 2 35 2h197v153h-282l50 62q28 38 35 71q12 29 12 61q0 18 -4 56q0 160 -130 189q-76 53 -184 108q-214 58 -285 104q-46 29 -46 57q0 4 2 11q25 105 149 131q15 3 106 14q86 9 124 9q72 0 131 -40q2 1 5 1q7 0 42.5 -13t56.5 -13q58 0 78 28q12 24 57 43q18 8 18 14
q0 17 -34 25q-51 13 -75 30q-28 6 -62 11q-16 3 -64 10q-44 0 -105 4l-124 7q-174 0 -298 -82q-155 -43 -181 -251q12 -88 67 -112q19 -9 120 -37q31 -26 91 -48q23 -8 106 -36q284 -96 284 -190q0 -74 -53 -134q-54 -63 -127 -63q-52 -17 -128 -23l-110 -4q-8 -4 -99 -3
q-67 1 -160.5 4t-78.5 3z" />
    <glyph glyph-name="uFB94" unicode="&#x6af;" horiz-adv-x="961" arabic-form="initial" 
d="M95 1152q41 59 108 78q107 70 258 70q17 0 107 -6q53 -3 90 -3l56 -8q29 -5 53 -10q21 -15 65 -26q29 -7 29 -22q0 -5 -15 -12q-39 -16 -49 -37q-18 -24 -67 -24q-19 0 -49.5 11t-36.5 11h-4q-51 34 -114 34q-101 0 -198 -20q-52 -11 -81 -33q-30 -15 -66 -53zM919 1051
q0 -7 -18 -16q-45 -23 -56 -46q-21 -28 -78 -28q-22 0 -57 13t-42 13q-4 0 -5 -1q-59 40 -132 40q-110 0 -229 -21q-126 -23 -150 -128q-1 -7 -1 -11q0 -55 164 -115q68 -25 166 -52q109 -54 184 -107q130 -29 130 -189q2 -16 2 -32q0 -97 -51 -185q-47 -81 -133 -124
q-41 -38 -113 -56q-52 -14 -130 -14q-27 0 -140 5q-56 3 -92 3h-161v148h455q110 0 183 135q29 53 29 94q0 93 -284 190l-106 36q-59 22 -90 48q-101 28 -120 37q-55 24 -67 111q26 209 181 252q123 82 298 82q19 -1 124 -7q61 -4 104 -4l64 -10q35 -5 62 -11q26 -18 75 -27
q34 -7 34 -23z" />
    <glyph glyph-name="uFB95" unicode="&#x6af;" horiz-adv-x="960" arabic-form="medial" 
d="M78 1149q40 59 108 78q107 71 257 71q17 -1 108 -7q52 -3 90 -3l55 -8q30 -5 54 -10q21 -15 65 -26q29 -7 29 -22q0 -5 -16 -12q-38 -16 -49 -37q-17 -24 -67 -24q-19 0 -49 11t-36 11h-5q-51 34 -113 34q-102 0 -198 -20q-52 -10 -81 -33q-31 -15 -66 -53zM78 1149
q40 59 108 78q107 71 257 71q17 -1 108 -7q52 -3 90 -3l55 -8q30 -5 54 -10q21 -15 65 -26q29 -7 29 -22q0 -5 -16 -12q-38 -16 -49 -37q-17 -24 -67 -24q-19 0 -49 11t-36 11h-5q-51 34 -113 34q-102 0 -198 -20q-52 -10 -81 -33q-31 -15 -66 -53zM910 1046q0 -6 -18 -14
q-45 -19 -57 -43q-20 -28 -78 -28q-21 0 -56.5 13t-42.5 13q-3 -1 -5 -1q-59 40 -131 40q-38 0 -124 -10q-44 -5 -106 -13q-124 -26 -149 -131q-2 -7 -2 -11q0 -53 164 -111q65 -23 167 -51q108 -54 184 -107q130 -29 130 -189q4 -38 4 -56q0 -32 -11 -61q-8 -33 -86 -133
h302v-153h-217q-14 0 -35 -2q-48 -3 -62 -3q-91 0 -121 64q-104 -66 -238 -66q-32 0 -96.5 3.5t-96.5 3.5h-162v153h250q153 0 238 27q73 0 128 63q52 60 52 134q0 93 -284 190l-106 36q-60 22 -91 47q-100 29 -120 38q-54 24 -67 111q27 209 181 252q124 82 298 82
q20 -1 124 -7q61 -4 105 -4l64 -10q34 -5 62 -11q24 -17 75 -30q34 -8 34 -25z" />
    <glyph glyph-name="uFE94" unicode="&#x6c0;" horiz-adv-x="1063" arabic-form="final" 
d="M1091 0h-241q-25 0 -25 30q6 24 22 101q49 228 49 280q0 6 1.5 17t1.5 17q0 19 -67 19q-50 0 -75 -20q-18 -14 -59 -76q-49 -72 -111 -152q-30 -42 -60 -83q-40 -52 -69 -69q-38 -22 -97 -22q-103 0 -182.5 79t-79.5 183q0 99 44 172q68 116 106 149q21 18 55 18
q50 0 206 8l315 16q159 9 187 9l-2 -6q-14 -18 -14 -32q0 -46 -8 -130l-17 -166q-8 -83 -8 -103q0 -60 16 -73q13 -11 72 -11h40v-155zM618 501q-243 -18 -385 -18q44 -37 44 -109q0 -14 -1 -23l-2 -37q0 -90 143 -90q52 0 113 75q68 84 88 202zM520 857q0 -28 -5 -43
q-2 -4 -10.5 -21.5t-26.5 -17.5q-6 0 -13 2l-17 4q-19 0 -56 -5.5t-55 -5.5q-44 -10 -121 -35q-27 -6 -44 -6q2 19 18 81q3 11 22 16q29 9 43 18q-21 35 -21 64l13 63q3 13 7 22q18 42 64 61q40 17 101 17q52 0 89 -72q0 -12 -8 -37q-9 -28 -17 -30q-11 0 -14 15
q-8 30 -45 39q-20 5 -28 5q-38 0 -77 -17q-27 -11 -41 -29q26 -57 94 -82h120q6 -3 28 -6z" />
    <glyph glyph-name="uFEF2" unicode="&#x6cc;" horiz-adv-x="1119" arabic-form="final" 
d="M1148 0h-63q0 -151 -34 -233.5t-140 -149.5q-8 -8 -39 -25q-122 -63 -339 -63q-188 0 -275 22q-28 7 -43 17q-47 29 -89 177q-10 35 -27 104q0 60 99 145l35 29q33 33 50 82l20 62q18 44 37 44q17 0 33 -24.5t16 -42.5q0 -65 -72 -136q-93 -117 -118 -158
q-15 -26 -15 -50q0 -111 304 -111q74 0 158 10q265 31 340 122q0 16 -31 43q-45 40 -58 58q-32 43 -32 131q0 102 50 102h233v-155z" />
    <glyph glyph-name="uFEF3" unicode="&#x6cc;" horiz-adv-x="465" arabic-form="initial" 
d="M419 295q0 -17 -7 -47q-24 -110 -103 -185q-196 -63 -244 -63h-62v155h55q78 0 167 34q103 40 114 93q0 28 -19 54q-14 17 -53 51q-50 42 -74 65q-70 66 -70 118q0 30 13 62q16 41 41 41q19 0 115 -85q49 -44 77 -80q50 -94 50 -213zM350 -322q0 -16 -6 -16q-2 0 -11.5 5
t-14.5 3l-47 -31q-9 -3 -32 -36q-10 -15 -38 -59q-19 -32 -23 -32q-6 0 -20 60t-14 89q0 4 -1 9v6q0 7 4 11q17 23 63 65q57 53 79 53q17 0 40 -54q21 -50 21 -73zM154 -339q0 -16 -6 -16q-2 0 -11.5 5t-14.5 3l-47 -31q-10 -3 -32 -36q-10 -15 -38 -59q-19 -32 -24 -32
t-19 60t-15 89v8.5v6.5q0 7 3 11q18 23 63 65q58 53 79 53q18 0 41 -54q21 -50 21 -73z" />
    <glyph glyph-name="uFEF4" unicode="&#x6cc;" horiz-adv-x="555" arabic-form="medial" 
d="M589 0q-31 0 -45 5q-25 8 -61 46q-26 29 -53 58q-31 32 -67 32q-13 0 -47 -36q-43 -47 -79 -68q-60 -37 -138 -37h-106v155h25q35 0 87 14q64 18 88 44q59 67 85 171q10 37 10 98q0 29 -2 59l-4 84q0 46 15 46q4 0 38 -30q21 -19 34.5 -26.5t58.5 -31.5q30 -26 30 -94
q0 -53 -13 -119q-2 -14 -2 -31q0 -47 27 -110q33 -74 73 -74h46v-155zM426 -286q0 -16 -6 -16q-2 0 -11.5 4.5t-15.5 3.5l-46 -31q-10 -3 -32 -37q-10 -14 -38 -59q-20 -31 -24 -31q-6 0 -19.5 60t-14.5 89v8v6q0 7 3 12q18 23 63 65q57 53 79 53q18 0 41 -55q21 -50 21 -72
zM230 -303q0 -16 -7 -16q-1 0 -10.5 4.5t-15.5 3.5l-47 -31q-9 -3 -32 -37q-10 -14 -37 -59q-20 -31 -24 -31q-6 0 -20 60t-14 89v8q-1 5 -1 6q0 7 4 12q17 23 63 65q57 52 79 52q17 0 40 -54q22 -50 22 -72z" />
    <glyph glyph-name="Hcircumflex" unicode="&#x622;" horiz-adv-x="527" arabic-form="final" 
d="M560 0h-43q-13 0 -45 -1l-35 -1q-131 0 -186 80q-39 57 -55 161q-5 33 -15 117q-12 106 -21 219q-10 146 -10 255q0 124 7 197q0 21 24 26q38 8 54 18q61 66 91 66q9 0 9 -6q0 -4 -14 -22.5t-14 -24.5q0 -75 -7 -144l-16 -141q-3 -33 -10 -195q-1 -25 -1 -53
q0 -228 84 -326q60 -70 160 -70h43v-155zM550 1361q7 -5 7 -14q0 -25 -50 -75q-17 -17 -50 -19q-42 -4 -53 -8q-57 -25 -75 -31q-43 -15 -79 -16q-6 -1 -9 -1q-23 0 -49 5q-64 13 -97 13q-9 0 -33 -11t-34 -11q-7 0 -11 5.5t-4 16.5q0 3 1 17q0 22 19 37q26 17 40 28
q20 19 32 30q17 15 36 15q-6 0 33 -9q10 -2 54 -16q33 -10 51 -10q14 0 134 44q46 17 81 17q41 0 56 -7z" />
    <glyph glyph-name="uFE84" unicode="&#x623;" horiz-adv-x="546" arabic-form="final" 
d="M565 0h-43q-13 0 -45 -1l-35 -1q-130 0 -185 80q-39 57 -56 161q-5 33 -15 117q-12 106 -20 219q-11 146 -11 255q0 124 7 197q0 21 24 26q39 8 54 18q61 66 91 66q10 0 10 -6q0 -4 -14 -22.5t-14 -24.5q0 -75 -8 -144l-15 -141q-4 -33 -11 -195q-1 -25 -1 -52
q0 -229 84 -327q60 -70 160 -70h43v-155zM396 1334q0 -29 -5 -46l-11 -22t-28 -18q-6 0 -14 2l-17 4q-29 0 -51 -3q-53 -9 -66 -9q-46 -10 -128 -36q-29 -7 -46 -7q2 20 19 86q3 11 23 16q30 10 45 19q-21 37 -21 68l13 66q3 13 7 23q19 44 68 64q42 18 106 18q55 0 94 -76
q0 -13 -8 -39q-10 -29 -19 -32q-11 0 -15 16q-8 32 -47 42q-21 5 -30 5q-39 0 -80 -18q-28 -12 -44 -30q28 -61 100 -87h125q7 -3 30 -6z" />
    <glyph glyph-name="uFE86" unicode="&#x624;" horiz-adv-x="896" arabic-form="final" 
d="M768 757q0 -29 -6 -46q-1 -3 -10 -21.5t-28 -18.5q-6 0 -14 2l-17 4q-29 0 -51 -3q-53 -9 -66 -9q-46 -10 -128 -36q-29 -7 -46 -7q2 20 19 86q3 11 23 17q30 9 45 18q-22 38 -22 68l14 66q3 13 7 23q19 44 68 65q42 17 106 17q55 0 94 -75q0 -13 -9 -39q-9 -29 -18 -32
q-11 0 -15 15q-8 32 -47 42q-22 5 -30 5q-39 0 -80 -18q-28 -12 -44 -30q28 -61 100 -87h125q7 -3 30 -6zM932 0l-39 -1q-32 5 -63 11q-23 7 -56 63q-50 -124 -82 -180q-23 -40 -54 -72q-172 -177 -415 -274q-108 -43 -176 -43q-25 0 -42 7q-5 2 -5 5q0 8 61 30
q92 34 131 52q81 38 116 77q113 129 198 275q-8 35 -58 39q-71 6 -80 10q-30 56 -30 111q0 56 33 166q32 105 36 118q28 76 59 103t76 27q35 0 89 -18q8 -2 108 -40l51 -29q57 -34 57 -85q0 -22 -8 -46q1 -4 1 -9q0 -15 -10 -52q-12 -49 -20 -91h122v-154zM720 182
q-30 32 -91 94q-46 45 -92 45q-43 0 -66 -37q-17 -27 -16 -54q2 -54 121 -54h14q6 0 11 1z" />
    <glyph glyph-name="uFE88" unicode="&#x625;" horiz-adv-x="468" arabic-form="final" 
d="M510 0h-44q-12 0 -44 -1l-36 -1q-130 0 -185 80q-39 57 -55 161q-5 33 -15 117q-12 106 -21 219q-11 146 -11 255q0 124 8 197q0 21 24 26q38 8 53 18q61 66 92 66q9 0 9 -5t-14 -23.5t-14 -24.5q0 -75 -8 -144l-15 -141q-4 -33 -10 -195q-1 -25 -1 -52q0 -229 84 -327
q59 -70 159 -70h44v-155zM425 -330q0 -28 -6 -45q-1 -4 -10 -22t-28 -18q-6 0 -14 2l-17 4q-29 0 -51 -4q-53 -8 -66 -8q-46 -10 -128 -36q-29 -7 -46 -7q2 20 19 86q3 11 23 16q30 10 45 19q-21 37 -21 68l13 66q3 13 7 23q19 44 68 64q42 18 106 18q55 0 94 -76
q0 -13 -9 -39q-9 -29 -18 -32q-11 0 -15 16q-8 32 -47 42q-21 5 -30 5q-39 0 -80 -18q-28 -12 -44 -30q28 -61 100 -87h125q7 -3 30 -7z" />
    <glyph glyph-name="uFE8A" unicode="&#x626;" horiz-adv-x="1116" arabic-form="final" 
d="M1148 -3h-63q0 -151 -34 -233.5t-140 -149.5q-8 -9 -39 -25q-122 -63 -339 -63q-188 0 -275 22q-28 7 -43 16q-47 30 -89 178q-10 34 -27 104q0 60 99 145l34 30.5t51 79.5l20 62q18 45 37 45q17 0 33 -25t16 -42q0 -65 -72 -137q-93 -117 -118 -158q-15 -26 -15 -50
q0 -110 304 -110q74 0 158 10q265 30 340 121q0 17 -31 44q-45 40 -58 58q-32 43 -32 131q0 101 50 101h233v-154zM791 235q0 -29 -6 -45q-2 -4 -10.5 -22.5t-27.5 -18.5q-6 0 -14 2l-18 5q-28 0 -50 -4q-53 -9 -67 -9q-45 -9 -127 -35q-29 -8 -46 -8q2 20 19 86q3 11 22 17
q31 9 46 19q-22 37 -22 67l14 66q3 14 7 23q19 45 68 65q42 17 106 17q54 0 94 -75q0 -13 -9 -39q-9 -29 -18 -32q-11 0 -15 16q-8 32 -47 41q-22 6 -30 6q-39 0 -80 -18q-28 -12 -44 -31q28 -60 100 -87h125q7 -3 30 -6z" />
    <glyph glyph-name="uFE8B" unicode="&#x626;" horiz-adv-x="545" arabic-form="initial" 
d="M504 295q0 -17 -7 -47q-24 -109 -102 -185q-197 -63 -245 -63h-182v155h175q78 0 167 34q104 40 114 93q0 28 -19 54q-14 18 -53 51q-50 42 -73 65q-71 66 -71 118q0 30 13 62q16 41 42 41q18 0 115 -85q48 -44 76 -80q50 -94 50 -213zM363 905q0 -28 -6 -45
q-2 -4 -10.5 -22.5t-27.5 -18.5q-6 0 -14 2l-18 5q-28 0 -50 -4q-53 -8 -67 -8q-45 -10 -127 -36q-29 -8 -46 -8q2 21 19 87q3 10 22 16q31 9 46 19q-22 37 -22 67l14 66q3 14 7 23q19 45 68 65q42 18 106 18q54 0 94 -76q0 -13 -9 -39q-9 -29 -18 -32q-11 0 -15 16
q-8 32 -47 41q-22 6 -30 6q-39 0 -80 -18q-28 -12 -44 -31q28 -60 100 -86h125q7 -3 30 -7z" />
    <glyph glyph-name="uFE8C" unicode="&#x626;" horiz-adv-x="590" arabic-form="medial" 
d="M618 0q-31 0 -45 5q-25 8 -61 46q-26 29 -53 58q-31 32 -67 32q-13 0 -47 -36q-43 -47 -79 -68q-60 -37 -138 -37h-166v155h155q67 0 125 84q46 66 65 145q10 37 10 98q0 28 -2 59l-4 84q0 46 15 46q4 0 38 -30q21 -20 33 -26q15 -9 60 -33q30 -25 30 -93q0 -53 -13 -119
q-2 -14 -2 -31q0 -47 27 -110q33 -74 73 -74h46v-155zM424 898q0 -29 -6 -45q-2 -4 -10.5 -22.5t-27.5 -18.5q-6 0 -14 2l-18 5q-28 0 -50 -4q-53 -9 -66 -9q-46 -9 -128 -36q-29 -7 -46 -7q2 20 19 86q3 11 22 17q31 9 46 19q-22 37 -22 67l14 66q3 14 7 23q19 45 68 65
q42 17 106 17q54 0 94 -75q0 -13 -9 -39q-9 -29 -18 -32q-11 0 -15 16q-8 31 -47 41q-22 5 -30 5q-39 0 -80 -17q-28 -13 -44 -31q28 -60 100 -87h125q7 -3 30 -6z" />
    <glyph glyph-name="uFE8E" unicode="&#x627;" horiz-adv-x="494" arabic-form="final" 
d="M510 0h-44q-13 0 -44 -1l-36 -1q-130 0 -185 80q-39 57 -55 161q-5 33 -15 117q-12 106 -21 219q-11 146 -11 255q0 124 8 197q0 21 24 26q38 8 53 18q61 66 92 66q9 0 9 -6q0 -4 -14 -22.5t-14 -24.5q0 -75 -8 -144l-15 -141q-4 -33 -10 -195q-1 -25 -1 -52
q0 -229 84 -327q59 -70 159 -70h44v-155z" />
    <glyph glyph-name="uFE90" unicode="&#x628;" horiz-adv-x="1296" arabic-form="final" 
d="M1329 0h-33q-23 0 -33 -2l-72 9q-53 6 -90 50q-20 23 -45 77q-19 40 -29 40q-13 0 -60 -52q-56 -65 -127 -98q-110 -53 -280 -53q-282 0 -391 82q-70 53 -70 140q0 105 51 207q55 113 198 296q42 54 92 109q40 46 63 46q6 0 6 -5q0 -3 -11 -29q-10 -29 -12 -38
q4 -6 4 -19q0 -40 -23 -71q-58 -40 -165 -144q-54 -72 -63 -162q-3 -20 -3 -40q0 -140 153 -187q99 -30 273 -30q196 0 296 73q35 26 41 32q26 25 26 57q0 7 -27.5 46.5t-27.5 60.5q0 7 70 91q12 14 29 36q30 38 46 38q29 0 38 -42q3 -72 31 -213q15 -41 43 -122
q18 -28 102 -28v-155zM626 -392q0 -16 -6 -16q-2 0 -11.5 5t-15.5 3l-47 -31q-9 -3 -32 -37q-9 -14 -37 -59q-20 -31 -24 -31q-6 0 -20 60t-14 89v8q-1 5 -1 6q0 7 4 12q17 23 63 65q57 53 79 53q17 0 40 -55q22 -50 22 -72z" />
    <glyph glyph-name="uFE91" unicode="&#x628;" horiz-adv-x="442" arabic-form="initial" 
d="M406 295q0 -17 -7 -47q-24 -110 -103 -185q-196 -63 -244 -63h-62v154h55q78 0 167 35q103 40 114 93q0 28 -19 53q-14 18 -53 51q-50 43 -74 65q-70 67 -70 119q0 30 13 62q16 41 41 41q19 0 115 -86q49 -43 77 -80q50 -93 50 -212zM274 -321q0 -16 -6 -16
q-2 0 -11.5 4.5t-15.5 3.5l-47 -32q-9 -3 -32 -36q-9 -14 -37 -59q-20 -31 -24 -31q-6 0 -20 60t-14 89v8q-1 5 -1 6q0 7 4 12q17 23 63 65q57 52 79 52q17 0 40 -54q22 -50 22 -72z" />
    <glyph glyph-name="uFE92" unicode="&#x628;" horiz-adv-x="489" arabic-form="medial" 
d="M518 0q-31 0 -45 5q-25 8 -61 46q-26 29 -53 58q-31 32 -67 32q-14 0 -47 -36q-43 -47 -79 -68q-60 -37 -138 -37h-36v155h24q68 0 126 84q45 66 65 145q9 37 9 98q0 28 -1 59l-4 84q0 46 15 46q4 0 37 -30q22 -19 33 -26q15 -8 61 -32q30 -26 30 -94q0 -53 -13 -119
q-2 -14 -2 -31q0 -47 27 -110q33 -74 73 -74h46v-155zM241 -348q0 -16 -7 -16q-2 0 -11 5t-15 4l-47 -32q-9 -3 -32 -36q-10 -14 -37 -59q-20 -32 -24 -32q-6 0 -20 60.5t-14 88.5v9q-1 4 -1 6q0 7 4 12q17 23 63 65q57 52 79 52q17 0 40 -54q22 -50 22 -73z" />
    <glyph glyph-name="uFE96" unicode="&#x62a;" horiz-adv-x="1296" arabic-form="final" 
d="M1329 0h-33q-23 0 -33 -2l-72 9q-53 6 -90 50q-20 23 -45 77q-19 40 -29 40q-13 0 -60 -52q-56 -65 -127 -98q-110 -53 -280 -53q-282 0 -391 82q-70 53 -70 140q0 105 51 207q55 113 198 296q42 54 92 109q40 45 63 45q6 0 6 -4q0 -3 -10.5 -30.5t-12.5 -36.5
q4 -6 4 -19q0 -40 -23 -71q-58 -40 -165 -144q-54 -72 -63 -162q-3 -20 -3 -40q0 -140 153 -187q99 -30 273 -30q196 0 296 72q35 26 41 32q26 26 26 58q0 7 -27.5 46.5t-27.5 60.5q0 6 70 90q12 14 29 37q30 38 46 38q29 0 38 -43q3 -71 31 -212q15 -41 43 -123
q18 -27 102 -27v-155zM946 690q0 -16 -7 -16q-2 0 -11 5t-15 3l-47 -31q-9 -3 -32 -36q-10 -15 -37 -60q-20 -31 -24 -31q-6 0 -20 60t-14 89v8q-1 5 -1 6q0 7 4 12q17 23 63 65q57 53 79 53q17 0 40 -55q22 -50 22 -72zM749 673q0 -16 -6 -16q-2 0 -11.5 5t-14.5 3l-47 -31
q-10 -3 -32 -36q-10 -15 -38 -60q-19 -31 -24 -31t-19 60t-15 89v8v6q0 7 4 12q17 23 62 65q58 53 79 53q18 0 41 -55q21 -50 21 -72z" />
    <glyph glyph-name="uFE97" unicode="&#x62a;" horiz-adv-x="579" arabic-form="initial" 
d="M542 295q0 -17 -7 -47q-24 -110 -102 -185q-197 -63 -244 -63h-232v155h224q78 0 167 34q104 40 115 93q0 28 -20 54q-13 17 -52 51q-50 42 -74 65q-71 66 -71 118q0 30 13 62q16 41 42 41q18 0 115 -85q49 -44 77 -80q49 -94 49 -213zM410 968q0 -16 -7 -16
q-1 0 -10.5 4.5t-15.5 3.5l-47 -32q-9 -3 -32 -36q-10 -14 -37 -59q-20 -31 -24 -31q-6 0 -20 60t-14 89v8q-1 5 -1 6q0 7 4 12q17 23 63 65q57 52 79 52q17 0 40 -54q22 -50 22 -72zM213 951q0 -16 -6 -16q-2 0 -11.5 4.5t-14.5 3.5l-47 -32q-10 -3 -32 -36
q-10 -14 -38 -59q-19 -31 -23 -31q-6 0 -20 60t-15 89v8v6q0 7 4 12q17 23 62 65q58 52 79 52q18 0 41 -54q21 -50 21 -72z" />
    <glyph glyph-name="uFE98" unicode="&#x62a;" horiz-adv-x="559" arabic-form="medial" 
d="M588 0q-31 0 -45 5q-25 8 -61 45q-26 30 -52 59q-31 32 -68 32q-13 0 -47 -36q-43 -47 -79 -68q-60 -37 -138 -37h-116v155h105q67 0 125 84q46 66 66 145q9 37 9 98q0 28 -2 59l-4 84q0 46 15 46q5 0 38 -30q21 -20 33 -26q15 -9 61 -33q29 -25 29 -93q0 -53 -12 -119
q-3 -14 -3 -31q0 -47 28 -110q32 -74 72 -74h46v-155zM451 995q0 -16 -6 -16q-2 0 -11.5 5t-14.5 4l-47 -32q-10 -3 -32 -36q-10 -14 -38 -59q-19 -32 -23 -32q-6 0 -20 60.5t-14 88.5q0 4 -1 9v6q0 7 4 12q17 23 63 65q57 52 78 52q18 0 41 -54q21 -50 21 -73zM255 978
q0 -16 -6 -16q-2 0 -11.5 5t-15.5 4l-46 -32q-10 -3 -32 -36q-10 -14 -38 -59q-20 -32 -24 -32q-6 0 -19.5 60.5t-14.5 88.5v8.5v6.5q0 7 3 12q18 23 63 65q57 52 79 52q17 0 41 -54q21 -50 21 -73z" />
    <glyph glyph-name="uFE9A" unicode="&#x62b;" horiz-adv-x="1291" arabic-form="final" 
d="M1329 0h-33q-23 0 -33 -2l-72 9q-53 6 -90 50q-20 23 -45 77q-19 40 -29 40q-13 0 -60 -52q-56 -65 -127 -98q-110 -53 -280 -53q-282 0 -391 82q-70 53 -70 140q0 105 51 207q55 113 198 296q42 54 92 109q40 45 63 45q6 0 6 -4q0 -3 -10.5 -30.5t-12.5 -36.5
q4 -6 4 -19q0 -40 -23 -71q-58 -40 -165 -144q-54 -72 -63 -162q-3 -20 -3 -40q0 -140 153 -187q99 -30 273 -30q196 0 296 72q35 26 41 32q26 26 26 58q0 7 -27.5 46.5t-27.5 60.5q0 7 70 91q12 13 29 36q30 38 46 38q29 0 38 -43q3 -71 31 -212q15 -41 43 -123
q18 -27 102 -27v-155zM907 932q0 -16 -6 -16q-2 0 -11.5 5t-14.5 4l-47 -32q-10 -3 -32 -36q-10 -14 -38 -59q-19 -32 -24 -32t-19 60.5t-15 88.5v8.5v6.5q0 7 4 12q17 23 62 65q58 52 79 52q18 0 41 -54q21 -50 21 -73zM920 671q0 -16 -6 -16q-2 0 -11.5 5t-14.5 3l-47 -31
q-9 -3 -32 -36q-10 -15 -38 -60q-19 -31 -23 -31q-6 0 -20 60t-14 89q0 3 -1 8v6q0 7 4 12q17 23 63 65q57 53 79 53q17 0 40 -55q21 -49 21 -72zM724 654q0 -16 -6 -16q-2 0 -11.5 5t-14.5 3l-47 -31q-10 -3 -32 -36q-10 -15 -38 -60q-19 -31 -24 -31t-19 60t-15 89v8v6
q0 7 3 12q18 23 63 65q58 53 79 53q18 0 41 -55q21 -49 21 -72z" />
    <glyph glyph-name="uFE9B" unicode="&#x62b;" horiz-adv-x="454" arabic-form="initial" 
d="M408 295q0 -17 -7 -47q-24 -110 -102 -185q-197 -63 -245 -63h-62v155h55q78 0 167 34q104 40 114 93q0 28 -19 54q-14 17 -53 51q-50 42 -73 64q-71 67 -71 119q0 30 13 62q16 41 42 41q18 0 115 -85q49 -44 76 -80q50 -94 50 -213zM326 1229q0 -16 -6 -16q-2 0 -11.5 5
t-14.5 4l-47 -32q-9 -3 -32 -36q-10 -14 -37 -59q-20 -32 -24 -32q-6 0 -20 60.5t-14 88.5q0 4 -1 9v6q0 7 4 12q17 23 63 64q57 53 79 53q17 0 40 -54q21 -50 21 -73zM337 958q0 -16 -6 -16q-2 0 -11.5 5t-15.5 3l-47 -31q-9 -3 -32 -36q-9 -15 -37 -60q-20 -31 -24 -31
q-6 0 -19.5 60t-14.5 89v8v6q0 7 3 12q17 23 63 65q57 53 79 53q17 0 40 -55q22 -50 22 -72zM140 941q0 -16 -6 -16q-2 0 -11.5 5t-14.5 3l-47 -31q-10 -3 -32 -36q-10 -15 -38 -60q-19 -31 -23 -31q-6 0 -20 60t-14 89q0 3 -1 8v6q0 7 4 12q17 23 63 65q57 53 78 53
q18 0 41 -55q21 -50 21 -72z" />
    <glyph glyph-name="uFE9C" unicode="&#x62b;" horiz-adv-x="484" arabic-form="medial" 
d="M518 0q-31 0 -45 5q-25 8 -61 46q-26 29 -53 58q-31 32 -67 32q-14 0 -47 -36q-43 -47 -79 -68q-60 -37 -138 -37h-36v155h24q68 0 126 84q45 66 65 145q9 37 9 98q0 28 -1 59l-4 84q0 46 15 46q4 0 37 -30q22 -19 33 -26q15 -8 61 -32q30 -26 30 -94q0 -53 -13 -119
q-2 -14 -2 -31q0 -47 27 -110q33 -74 73 -74h46v-155zM408 1188q0 -16 -6 -16q-2 0 -11.5 5t-14.5 3l-47 -31q-10 -3 -32 -36q-10 -15 -38 -59q-19 -32 -23 -32q-6 0 -20 60t-14 89q0 4 -1 9v6q0 7 4 11q17 23 63 65q57 53 78 53q18 0 41 -54q21 -50 21 -73zM418 908
q0 -16 -6 -16q-2 0 -11.5 5t-15.5 3l-46 -31q-10 -3 -32 -36q-10 -15 -38 -60q-20 -31 -24 -31q-6 0 -19.5 60t-14.5 89v8v6q0 7 3 12q18 23 63 65q57 53 79 53q18 0 41 -55q21 -50 21 -72zM222 891q0 -16 -7 -16q-1 0 -10.5 5t-15.5 3l-47 -31q-9 -3 -32 -36
q-10 -15 -37 -60q-20 -31 -24 -31q-6 0 -20 60t-14 89v8q-1 5 -1 6q0 7 4 12q17 23 63 65q57 53 79 53q17 0 40 -55q22 -50 22 -72z" />
    <glyph glyph-name="uFE9E" unicode="&#x62c;" horiz-adv-x="1255" arabic-form="final" 
d="M792 -329q0 -16 -6 -16q-2 0 -11.5 4.5t-15.5 3.5l-47 -32q-9 -3 -32 -36q-9 -14 -37 -59q-20 -31 -24 -31q-6 0 -20 60t-14 89v8q-1 5 -1 6q0 7 4 12q17 23 63 65q57 52 79 52q17 0 40 -54q22 -50 22 -72zM1293 0h-443h-73q-19 0 -38.5 1t-32.5 13q-4 3 -19 29
q-6 9 -12 26q-192 -161 -365 -421q-63 -95 -95 -157q-28 -55 -28 -77q0 -44 59 -73q48 -24 98 -24q60 0 364 68q173 39 254 62q41 14 124 42q70 23 76 24q14 0 14 -32l-8 -72q-7 -54 -11 -60q-11 -20 -22 -20q-3 0 -13.5 5t-17.5 4l-475 -129q-186 -50 -390 -72
q-71 35 -106 144q-11 33 -34 125q0 113 69 248q44 85 117 185q53 73 235 289q110 131 201 232q-107 0 -254 -22q-58 -8 -73 -8q-22 0 -26 5.5t-4 13.5q0 5 1 8l1 7q0 73 35 104q31 28 267 39q88 5 101 5q62 10 131 19q84 12 103 12q50 21 103 21q33 11 71 22q73 22 86 22
q10 0 10 -8q0 -4 -3 -13t-3 -14q0 -142 -50 -164q-11 -5 -52 -23l-96 -44q-45 -21 -63 -30q-43 -22 -73 -40l-59 -35l35 -82h384v-155z" />
    <glyph glyph-name="uFE9F" unicode="&#x62c;" horiz-adv-x="1038" arabic-form="initial" 
d="M996 320q1 -3 1 -8q0 -9 -6 -29t-6 -31q0 -69 -20 -100q-25 -37 -108 -67q-77 -28 -261 -71q-68 -16 -191 -16q-38 0 -107 1l-83 1h-248v155h236q12 0 103 -3q46 -2 81 -2q277 0 482 89q-105 96 -279 132q-63 13 -112 20q-91 12 -171 12q-29 0 -77 -7q-55 -7 -76 -8h-7
q-29 0 -38 19q-6 12 -16 63q-23 58 -23 71q0 19 18 19q158 0 316 -16q98 -10 153 -24l104 -28q32 -9 60 -21l84 -34q26 -10 79 -31q104 -41 112 -86zM455 -489q0 -16 -6 -16q-2 0 -11.5 5t-14.5 4l-47 -32q-10 -3 -32 -36q-10 -14 -38 -59q-19 -32 -24 -32t-19 60.5
t-15 88.5v8.5v6.5q0 7 3 12q18 23 63 65q57 52 79 52q18 0 41 -54q21 -50 21 -73z" />
    <glyph glyph-name="uFEA0" unicode="&#x62c;" horiz-adv-x="1053" arabic-form="medial" 
d="M1092 0h-92h-9.5h-10.5q-126 -1 -194 68l-99 -28q-32 -9 -86 -23q-76 -18 -219 -18q-25 0 -77 1h-328v155h235q18 0 72 -1l69 -1q189 0 333 32q100 22 191 60q-101 97 -277 134q-62 13 -112 20q-91 11 -171 11q-88 0 -145 -14q-11 -1 -18 -1q-27 0 -36 20q-6 11 -15 64
q-23 51 -23 65q0 16 17 16q193 0 317 -10q100 -8 154.5 -22t162.5 -49l84 -34q27 -10 81 -31q121 -47 121 -102q0 -8 -2.5 -26t-2.5 -27q0 -37 -42 -104l122 -1v-154zM465 -503q0 -16 -7 -16q-1 0 -10.5 5t-15.5 4l-47 -32q-9 -3 -32 -36q-10 -14 -37 -59q-20 -32 -24 -32
q-6 0 -20 60.5t-14 88.5v9q-1 4 -1 6q0 7 4 12q17 23 63 65q57 52 79 52q17 0 40 -54q22 -50 22 -73z" />
    <glyph glyph-name="uFEA2" unicode="&#x62d;" horiz-adv-x="1257" arabic-form="final" 
d="M1293 0h-443h-73q-19 0 -38.5 1t-32.5 13q-4 3 -19 29q-6 9 -12 26q-192 -161 -365 -421q-63 -95 -95 -157q-28 -55 -28 -77q0 -44 59 -73q48 -24 98 -24q60 0 364 68q173 39 254 62q41 14 124 42q70 23 76 24q14 0 14 -32l-8 -72q-7 -54 -11 -60q-11 -20 -22 -20
q-3 0 -13.5 5t-17.5 4l-475 -129q-186 -50 -390 -72q-71 35 -106 144q-11 33 -34 125q0 113 69 248q44 85 117 185q53 73 235 289q110 131 201 232q-107 0 -254 -22q-58 -8 -73 -8q-22 0 -26 5.5t-4 13.5q0 5 1 8l1 7q0 73 35 104q31 28 267 39q88 5 101 5q62 10 131 19
q84 12 103 12q50 21 103 21q33 11 71 22q73 22 86 22q10 0 10 -8q0 -4 -3 -13t-3 -14q0 -142 -50 -164q-11 -5 -52 -23l-96 -44q-45 -21 -63 -30q-43 -22 -73 -40l-59 -35l35 -82h384v-155z" />
    <glyph glyph-name="uFEA3" unicode="&#x62d;" horiz-adv-x="1038" arabic-form="initial" 
d="M996 320q1 -3 1 -8q0 -9 -6 -29t-6 -31q0 -70 -20 -100q-25 -37 -108 -67q-77 -28 -261 -72q-68 -16 -191 -16q-38 0 -107 2l-83 1h-248v155h236q12 0 103 -4q46 -1 81 -1q277 0 482 89q-105 96 -279 132q-63 13 -112 20q-91 12 -171 12q-29 0 -77 -7q-55 -7 -76 -8h-7
q-29 0 -38 19q-6 11 -16 63q-23 57 -23 71q0 19 18 19q158 0 316 -16q98 -10 153 -24l104 -28q32 -9 60 -21l84 -34q26 -10 79 -31q104 -42 112 -86z" />
    <glyph glyph-name="uFEA4" unicode="&#x62d;" horiz-adv-x="1060" arabic-form="medial" 
d="M1092 0h-92h-9.5h-10.5q-126 -1 -194 68l-99 -28q-32 -9 -86 -23q-76 -18 -219 -18q-25 0 -77 1h-328v155h235q18 0 72 -1l69 -1q189 0 333 32q100 22 191 60q-101 97 -277 134q-62 13 -112 19q-91 12 -171 12q-88 0 -145 -14q-11 -1 -18 -1q-27 0 -36 20q-6 11 -15 64
q-23 51 -23 65q0 16 17 16q193 0 317 -10q100 -8 154.5 -22t162.5 -49l84 -34q27 -10 81 -31q121 -48 121 -102q0 -9 -2.5 -26.5t-2.5 -26.5q0 -37 -42 -104l122 -1v-154z" />
    <glyph glyph-name="uFEA6" unicode="&#x62e;" horiz-adv-x="1251" arabic-form="final" 
d="M742 1023q0 -16 -6 -16q-2 0 -11.5 5t-14.5 3l-47 -31q-10 -3 -32 -36q-10 -15 -38 -59q-19 -32 -23 -32q-6 0 -20 60t-14 89q-1 4 -1 9v6q0 7 4 11q17 23 62 65q58 53 79 53q18 0 41 -54q21 -50 21 -73zM1293 0h-443h-73q-19 0 -38.5 1t-32.5 13q-4 3 -19 29
q-6 9 -12 26q-192 -161 -365 -421q-63 -95 -95 -157q-28 -55 -28 -77q0 -44 59 -73q48 -24 98 -24q60 0 364 68q173 39 254 62q41 14 124 42q70 23 76 24q14 0 14 -32l-8 -72q-7 -54 -11 -60q-11 -20 -22 -20q-3 0 -13.5 5t-17.5 4l-475 -129q-186 -50 -390 -72
q-71 35 -106 144q-11 33 -34 125q0 113 69 248q44 85 117 185q53 73 235 289q110 131 201 232q-107 0 -254 -22q-58 -8 -73 -8q-22 0 -26 5.5t-4 13.5q0 5 1 8l1 7q0 73 35 104q31 28 267 39q88 5 101 5q62 10 131 19q84 12 103 12q50 21 103 21q33 11 71 22q73 22 86 22
q10 0 10 -8q0 -4 -3 -13t-3 -14q0 -142 -50 -164q-11 -5 -52 -23l-96 -44q-45 -21 -63 -30q-43 -22 -73 -40l-59 -35l35 -82h384v-155z" />
    <glyph glyph-name="uFEA7" unicode="&#x62e;" horiz-adv-x="1052" arabic-form="initial" 
d="M1015 320q1 -3 1 -8q0 -9 -6 -29t-6 -31q0 -70 -20 -100q-26 -37 -108 -67q-77 -28 -261 -72q-68 -16 -191 -16q-38 0 -107 2l-83 1h-248v155h236q12 0 103 -3q46 -2 81 -2q277 0 482 89q-105 96 -279 132q-63 13 -112 20q-91 12 -171 12q-29 0 -77 -7q-55 -7 -76 -8h-7
q-29 0 -39 19q-5 12 -15 63q-23 58 -23 71q0 19 18 19q157 0 316 -16q98 -10 153 -24l104 -28q32 -9 60 -21l84 -34q26 -10 79 -31q104 -41 112 -86zM448 1073q0 -16 -6 -16q-2 0 -11.5 4.5t-14.5 3.5l-47 -32q-9 -3 -32 -36q-10 -14 -38 -59q-19 -31 -23 -31q-6 0 -20 60
t-14 89q0 3 -1 8v6q0 7 4 12q17 23 63 65q57 52 79 52q17 0 40 -54q21 -50 21 -72z" />
    <glyph glyph-name="uFEA8" unicode="&#x62e;" horiz-adv-x="1049" arabic-form="medial" 
d="M1092 0h-92h-9q-7 0 -11 -1q-126 0 -194 69l-99 -28q-32 -9 -86 -23q-76 -18 -219 -18h-77l-328 1v155h235q18 0 72 -1l69 -1q189 0 333 32q100 22 191 60q-101 97 -277 134q-62 13 -112 19q-91 12 -171 12q-88 0 -145 -14q-11 -1 -18 -1q-27 0 -36 20q-6 11 -15 64
q-23 51 -23 65q0 16 17 16q193 0 317 -10q100 -8 154.5 -22t162.5 -49l84 -34q27 -10 81 -31q121 -48 121 -102q0 -9 -2.5 -26.5t-2.5 -26.5q0 -37 -42 -104l122 -1v-154zM429 1056q0 -16 -6 -16q-2 0 -11.5 5t-14.5 3l-47 -31q-10 -3 -32 -36q-10 -15 -38 -59
q-19 -32 -24 -32t-19 60t-15 89v8.5v6.5q0 7 4 11q17 23 62 65q58 53 79 53q18 0 41 -54q21 -50 21 -73z" />
    <glyph glyph-name="uFEAA" unicode="&#x62f;" horiz-adv-x="849" arabic-form="final" 
d="M883 0h-59q-11 0 -35.5 13t-35.5 13q-35 -47 -56 -68q-69 -69 -172 -72l-132 -3q-110 -4 -158 -15q-36 -8 -73 -27q-29 -15 -47 -15q-16 0 -16 26q0 16 4 40q11 60 11 72q0 80 32 80q101 -21 138 -21q68 0 141 27q146 21 216 76q51 40 51 94q0 49 -66 98q-45 33 -56 42
l-62 53q-41 32 -74 44q-4 1 -33 6q-38 7 -38 27q0 13 12.5 40.5t14.5 38.5q1 3 1 7q0 9 -1 18q-4 32 -4 37q0 42 31 45q235 -55 347 -213q43 -59 43 -104q0 -9 -3 -26q-9 -82 -44 -178h123v-155z" />
    <glyph glyph-name="uFEAC" unicode="&#x630;" horiz-adv-x="848" arabic-form="final" 
d="M883 0h-59q-11 0 -35.5 13t-35.5 13q-35 -47 -56 -68q-69 -69 -172 -72l-132 -4q-110 -3 -158 -14q-36 -8 -73 -27q-29 -15 -47 -15q-16 0 -16 26q0 16 4 40q11 60 11 72q0 80 32 80q101 -21 138 -21q68 0 141 27q146 20 216 76q51 40 51 94q0 49 -66 98q-45 33 -56 42
l-62 53q-41 32 -74 44q-4 1 -33 6q-38 7 -38 27q0 13 12.5 40.5t14.5 38.5q1 3 1 7q0 9 -1 18q-4 31 -4 37q0 42 31 45q235 -55 347 -213q43 -59 43 -104q0 -9 -3 -27q-9 -82 -44 -177h123v-155zM561 1056q0 -16 -6 -16q-2 0 -11.5 5t-15.5 3l-47 -31q-9 -3 -32 -36
q-9 -15 -37 -59q-20 -32 -24 -32q-6 0 -19.5 60t-14.5 89v8.5v5.5q0 8 3 12q17 23 63 65q57 53 79 53q17 0 41 -54q21 -50 21 -73z" />
    <glyph glyph-name="uFEAE" unicode="&#x631;" horiz-adv-x="849" arabic-form="final" 
d="M884 0h-103q-41 -105 -92 -146q-19 -21 -56 -61q-105 -111 -429 -230q-78 -29 -144 -75q-22 -15 -59 -50q-19 -18 -37 -18q-44 0 -44 54q0 33 29 97t55 79q25 23 171 60q11 3 49 11l-6 8q37 15 109 45q113 49 196 105q105 73 105 130q0 29 -20 71q-7 14 -39 68
q-20 36 -20 49q0 35 44.5 83.5t79.5 48.5q31 0 112 -175h99v-154z" />
    <glyph glyph-name="uFEB0" unicode="&#x632;" horiz-adv-x="852" arabic-form="final" 
d="M884 0h-103q-41 -105 -92 -146q-19 -20 -56 -61q-105 -111 -429 -230q-78 -28 -144 -75q-22 -15 -59 -50q-19 -18 -37 -18q-44 0 -44 54q0 33 29 97t55 80q25 22 171 59q11 3 49 11l-6 8q37 15 109 45q113 49 196 105q105 73 105 130q0 29 -20 71q-7 14 -39 69
q-20 35 -20 48q0 35 44.5 83.5t79.5 48.5q31 0 112 -175h99v-154zM661 652q0 -16 -6 -16q-2 0 -11.5 5t-14.5 3l-47 -31q-10 -3 -32 -36q-10 -15 -38 -59q-19 -32 -23 -32q-6 0 -20 60t-14 89q0 4 -1 9v5q0 8 4 12q17 23 63 65q57 53 78 53q18 0 41 -54q21 -50 21 -73z" />
    <glyph glyph-name="uFEB2" unicode="&#x633;" horiz-adv-x="1268" arabic-form="final" 
d="M1298 0h-98q-30 0 -46 42q-11 29 -19 38q-42 -42 -135 -117q-35 -22 -73 -22q-15 0 -28 16q-9 11 -27 46q-23 43 -36 65q-26 -52 -37 -70q-48 -85 -79 -85q-4 18 -29 51q-11 -11 -100 -111q-60 -69 -108 -100q-67 -43 -141 -43q-108 0 -175.5 76t-67.5 184q0 50 18 165
q18 120 34 159q18 46 51 106q47 84 69 84q10 0 10 -22q0 -40 -26 -113q-21 -57 -43 -113q-24 -70 -24 -139q0 -118 69 -188.5t186 -70.5q96 8 96 105q0 37 -14 88q-6 24 -28 90q-17 54 -21 74q6 49 57 118q30 42 65 63q25 -31 46 -127q7 -38 24 -114q13 -51 52 -51
q21 0 46 33.5t25 55.5q0 20 -17 45q-8 13 -8 22q0 42 119 88q27 -3 33 -42q0 -31 1 -62q8 -47 44 -78q41 -43 75 -43q39 0 39 71q0 18 -9 35q-19 38 -19 89q0 32 12 43q22 14 43 32l29 40q13 17 26 35q35 0 35 -128q0 -13 -1 -34q-1 -27 -1 -34q0 -14 22.5 -55.5t29.5 -41.5
h54v-155z" />
    <glyph glyph-name="uFEB3" unicode="&#x633;" horiz-adv-x="963" arabic-form="initial" 
d="M921 430q0 -31 -11 -73q-14 -52 -15 -66l-9 -87q-6 -60 -34 -73q-50 -15 -93 -30q-15 -5 -78 -51q-22 -16 -42 -16q-21 0 -82 121l-69 -86q-33 -40 -95 -67q-23 -10 -72 -40q-38 -24 -62 -24q-30 0 -42 35l-18 77q-12 53 -37 80q-31 -37 -61 -75q-47 -55 -68 -55h-30
l-1 155h15q76 0 102 22q36 31 36 132q0 59 46 101q38 35 73 35q47 0 47 -70q0 -20 -4 -53q-10 -74 -10 -87q0 -11 2 -17q11 -59 30 -80q24 -27 80 -27q64 28 64 93q0 28 -12 70l-12 41q4 26 73 79q59 56 75 56t16 -30v-96q0 -48 23 -98q28 -61 70 -61q22 0 39.5 17.5
t16.5 40.5q0 3 -1 15q-3 41 -3 63q0 38 5 51q34 25 77 50q53 31 67 31q4 0 4 -3z" />
    <glyph glyph-name="uFEB4" unicode="&#x633;" horiz-adv-x="940" arabic-form="medial" 
d="M977 0h-56q-22 0 -51 60q-8 15 -33 69q-40 -12 -94 -28q-15 -5 -78 -51q-21 -16 -41 -16q-22 0 -83 121l-68 -86q-34 -40 -96 -67q-23 -10 -71 -40q-38 -24 -63 -24q-30 0 -42 35l-17 77q-13 53 -38 80q-30 -37 -61 -75q-47 -55 -67 -55h-31v155h14q76 0 102 22
q37 31 37 132q0 59 45 101q38 35 73 35q48 0 48 -73q0 -23 -6 -67.5t-6 -67.5q0 -65 33 -101q23 -25 79 -25q63 27 63 90q0 18 -6 43q-4 16 -20 71q5 26 73 79q60 56 75 56q17 0 17 -30v-96q0 -48 23 -99q28 -63 69 -63q23 0 40 18t17 41q-5 38 -5 79q0 39 6 52q33 25 76 50
q53 31 67 31q4 0 5 -3q0 -31 -12 -73q-15 -57 -19 -129q-4 -54 -9 -70q13 -4 35 -4h22q15 1 23 1h31v-155z" />
    <glyph glyph-name="uFEB6" unicode="&#x634;" horiz-adv-x="1267" arabic-form="final" 
d="M1298 0h-98q-30 0 -46 42q-11 29 -19 38q-42 -42 -135 -117q-35 -22 -73 -22q-15 0 -28 16q-9 11 -27 46q-23 43 -36 65q-26 -52 -37 -70q-48 -85 -79 -85q-4 18 -29 51q-11 -10 -100 -111q-60 -69 -108 -100q-67 -43 -141 -43q-108 0 -175.5 76t-67.5 184q0 50 18 165
q18 120 34 159q18 46 51 106q47 84 69 84q10 0 10 -22q0 -40 -26 -113q-21 -57 -43 -113q-24 -70 -24 -139q0 -118 69 -188.5t186 -70.5q96 8 96 105q0 37 -14 88q-6 24 -28 90q-17 54 -21 74q6 49 57 118q30 42 65 63q25 -31 46 -127q7 -38 24 -114q13 -51 52 -51
q21 0 46 33.5t25 55.5q0 20 -17 45q-8 13 -8 22q0 42 119 88q27 -3 33 -42q0 -31 1 -62q8 -47 44 -78q41 -43 75 -43q39 0 39 71q0 18 -9 35q-19 38 -19 89q0 32 12 43q22 14 43 32l29 40q13 17 26 35q35 0 35 -128q0 -13 -1 -34q-1 -27 -1 -34q0 -14 22.5 -55.5t29.5 -41.5
h54v-155zM1096 923q0 -16 -6 -16q-2 0 -11.5 5t-15.5 3l-47 -31q-9 -3 -32 -36q-9 -15 -37 -60q-20 -31 -24 -31q-6 0 -19.5 60t-14.5 89v8v6q0 7 3 12q17 23 63 65q57 53 79 53q17 0 41 -55q21 -50 21 -72zM1119 619q0 -16 -6 -16q-2 0 -11.5 5t-14.5 4l-47 -32
q-10 -3 -32 -36q-10 -14 -38 -59q-19 -32 -23 -32q-6 0 -20 60.5t-14 88.5q0 4 -1 9v6q0 7 4 12q17 23 63 65q57 52 78 52q18 0 41 -54q21 -50 21 -73zM923 602q0 -16 -6 -16q-2 0 -11.5 5t-15.5 4l-46 -32q-10 -3 -32 -36q-10 -14 -38 -59q-20 -32 -24 -32q-6 0 -19.5 60.5
t-14.5 88.5v8.5v6.5q0 7 3 12q18 23 63 65q57 52 79 52q17 0 41 -54q21 -50 21 -73z" />
    <glyph glyph-name="uFEB7" unicode="&#x634;" horiz-adv-x="953" arabic-form="initial" 
d="M912 430q0 -31 -11 -73q-15 -52 -16 -66l-8 -87q-7 -60 -35 -73q-49 -15 -93 -30q-14 -5 -77 -51q-22 -16 -42 -16q-22 0 -82 121l-69 -86q-34 -40 -96 -67q-22 -10 -71 -40q-38 -24 -63 -24q-29 0 -42 35l-17 78q-12 53 -38 80q-30 -38 -61 -76q-47 -55 -67 -55h-31v155
h14q76 0 102 22q37 31 37 132q0 59 45 101q38 35 74 35q46 0 46 -70q0 -20 -4 -53q-9 -74 -9 -86t1 -17q11 -59 30 -81q24 -27 80 -27q64 28 64 93q0 28 -12 70l-11 41q4 26 72 79q60 57 76 57t16 -31v-96q0 -48 23 -98q28 -61 69 -61q23 0 40 18t17 40q0 3 -1 15
q-4 42 -4 63q0 38 6 51q34 25 76 50q53 32 67 32q5 0 5 -4zM804 1057q0 -16 -6 -16q-2 0 -11.5 5t-15.5 4l-47 -32q-9 -3 -32 -36q-9 -14 -37 -59q-20 -32 -24 -32q-6 0 -19.5 60.5t-14.5 88.5v8.5v6.5q0 7 3 12q17 23 63 65q57 52 79 52q17 0 41 -54q21 -50 21 -73z
M807 765q0 -16 -6 -16q-2 0 -11.5 5t-14.5 4l-47 -32q-10 -3 -32 -36q-10 -14 -38 -59q-19 -32 -23 -32q-6 0 -20 60.5t-15 88.5v8.5v6.5q0 7 4 12q17 23 62 65q58 52 79 52q18 0 41 -54q21 -50 21 -73zM611 748q0 -16 -6 -16q-2 0 -11.5 5t-15.5 4l-47 -32q-9 -3 -32 -36
q-9 -14 -37 -59q-20 -32 -24 -32q-6 0 -19.5 60.5t-14.5 88.5v8.5v6.5q0 7 3 12q17 23 63 65q57 52 79 52q17 0 41 -54q21 -50 21 -73z" />
    <glyph glyph-name="uFEB8" unicode="&#x634;" horiz-adv-x="941" arabic-form="medial" 
d="M977 0h-56q-22 0 -51 60q-8 15 -33 69q-40 -11 -94 -28q-15 -5 -78 -51q-21 -16 -41 -16q-22 0 -83 121l-68 -86q-34 -40 -96 -67q-23 -10 -71 -40q-38 -24 -63 -24q-30 0 -42 35l-17 77q-13 53 -38 80q-30 -37 -61 -75q-47 -55 -67 -55h-31v155h14q76 0 102 22
q37 31 37 132q0 59 45 101q38 35 73 35q48 0 48 -73q0 -23 -6 -67.5t-6 -67.5q0 -65 33 -101q23 -25 79 -25q63 27 63 91q0 17 -6 42q-4 16 -20 71q5 26 73 79q60 56 75 56q17 0 17 -30v-96q0 -48 23 -99q28 -63 69 -63q23 0 40 18t17 41q-5 38 -5 79q0 39 6 52q33 25 76 50
q53 31 67 31q4 0 5 -3q0 -31 -12 -73q-15 -57 -19 -129q-4 -54 -9 -70q13 -4 35 -4h22q15 1 23 1h31v-155zM795 1043q0 -16 -6 -16q-2 0 -11.5 5t-15.5 4l-46 -32q-10 -3 -32 -36q-10 -14 -38 -59q-20 -32 -24 -32q-6 0 -19.5 60.5t-14.5 88.5v8.5v6.5q0 7 3 12q18 23 63 65
q57 52 79 52q18 0 41 -54q21 -50 21 -73zM784 733q0 -16 -6 -16q-2 0 -11.5 5t-14.5 3l-47 -31q-9 -3 -32 -36q-10 -15 -38 -60q-19 -31 -23 -31q-6 0 -20 60t-14 89q0 3 -1 8v6q0 7 4 12q17 23 63 65q57 53 79 53q17 0 40 -55q21 -50 21 -72zM588 716q0 -16 -6 -16
q-2 0 -11.5 5t-14.5 3l-47 -31q-10 -3 -32 -36q-10 -15 -38 -60q-19 -31 -24 -31t-19 60t-15 89v8v6q0 7 3 12q18 23 63 65q58 53 79 53q18 0 41 -55q21 -50 21 -72z" />
    <glyph glyph-name="uFEBA" unicode="&#x635;" horiz-adv-x="1500" arabic-form="final" 
d="M1532 0h-52q-45 0 -78 3q-138 13 -235 73l-176 -71q-148 -58 -318 -58q-9 -9 -87 -98q-56 -65 -103 -96q-66 -43 -141 -43q-107 0 -176 77q-67 74 -67 183q0 160 51 322q82 191 121 191q10 0 10 -22q0 -39 -26 -113q-21 -56 -43 -112q-24 -71 -24 -140q0 -118 69 -188
t186 -70q96 8 96 105q0 36 -14 87q-6 25 -28 90q-17 53 -21 75q7 50 57 118q30 41 66 63q12 -16 22 -42q14 -38 23 -86q7 -41 21 -124q13 -62 54 -62q15 0 45 83q46 130 71 182q76 162 226 267q117 82 241 82q82 0 137 -38q63 -43 63 -122q0 -128 -220 -361h250v-155z
M1315 375q0 69 -68 100q-45 20 -103 20q-51 0 -91 -54q-36 -51 -94 -165t-97 -167q171 0 257 35q24 10 46 23q110 69 142 162q8 25 8 46z" />
    <glyph glyph-name="uFEBB" unicode="&#x635;" horiz-adv-x="1239" arabic-form="initial" 
d="M1198 504q0 -147 -159 -307q-83 -84 -180 -124q-111 -45 -170 -66q-157 -56 -275 -56q-94 0 -153 38q-34 23 -70 73q-29 42 -45 43q-74 -105 -124 -105h-33v155h27q111 0 152 86q11 24 30 85l9 -5q2 13 8 39q10 41 17 52q27 33 34 40q37 38 58 38q16 0 21 -24
q-42 -166 -42 -218q0 -65 46 -128q39 -55 65 -55q15 0 45 82q51 133 74 180q76 156 226 265q116 84 238 84q83 0 139 -44q62 -48 62 -128zM1015 375q0 69 -64 100q-42 20 -98 20q-50 0 -92 -54q-22 -29 -81 -140q-63 -117 -117 -192q169 0 256 35q24 10 46 24
q111 69 142 161q8 24 8 46z" />
    <glyph glyph-name="uFEBC" unicode="&#x635;" horiz-adv-x="1198" arabic-form="medial" 
d="M1234 0h-61q-45 0 -78 3q-139 13 -235 73q-125 -51 -180 -71q-151 -54 -268 -54q-95 0 -153 38q-35 23 -70 74q-29 41 -45 42q-87 -105 -137 -105h-20v155h26q112 0 153 86q11 24 29 85l10 -5q2 13 8 39q10 41 16 52q27 33 35 40q37 38 58 38q16 0 20 -24
q-41 -166 -41 -218q0 -65 45 -128q40 -55 66 -55q14 0 44 82q48 133 71 181q77 160 227 266q117 82 241 82q82 0 137 -38q63 -43 63 -122q0 -127 -219 -361h258v-155zM1013 375q0 69 -69 100q-44 20 -103 20q-51 0 -89 -52.5t-96 -166.5t-96 -167q170 0 257 35q23 10 45 24
q110 68 142 161q9 26 9 46z" />
    <glyph glyph-name="uFEBE" unicode="&#x636;" horiz-adv-x="1494" arabic-form="final" 
d="M1532 0h-52q-45 0 -78 3q-138 13 -235 73l-176 -71q-148 -58 -318 -58q-9 -9 -87 -98q-56 -65 -103 -96q-66 -43 -141 -43q-107 0 -176 77q-67 74 -67 183q0 160 51 322q82 191 121 191q10 0 10 -22q0 -39 -26 -113q-21 -56 -43 -113q-24 -70 -24 -139q0 -118 69 -188
t186 -70q96 8 96 105q0 36 -14 87q-6 25 -28 90q-17 53 -21 75q7 50 57 118q30 41 66 63q12 -16 22 -42q14 -38 23 -86q7 -41 21 -124q13 -62 54 -62q15 0 45 83q46 130 71 182q76 162 226 267q117 82 241 82q82 0 137 -38q63 -43 63 -122q0 -128 -220 -361h250v-155z
M1315 375q0 69 -68 100q-45 20 -103 20q-51 0 -91 -54q-36 -51 -94 -165t-97 -167q171 0 257 35q24 10 46 23q110 69 142 162q8 25 8 46zM1105 1060q0 -16 -6 -16q-2 0 -11.5 5t-14.5 3l-47 -31q-10 -3 -32 -36q-10 -15 -38 -60q-19 -31 -24 -31t-19 60t-15 89v8v6q0 7 3 12
q18 23 63 65q58 53 79 53q18 0 41 -55q21 -50 21 -72z" />
    <glyph glyph-name="uFEBF" unicode="&#x636;" horiz-adv-x="1234" arabic-form="initial" 
d="M1188 504q0 -147 -158 -307q-83 -84 -180 -124q-111 -45 -171 -66q-157 -57 -274 -57q-95 0 -153 39q-34 23 -70 73q-29 42 -45 43q-74 -105 -124 -105h-33v155h26q112 0 153 86q11 24 29 85l9 -5l9 39q10 41 16 52q27 32 35 40q37 38 57 38q17 0 21 -24
q-41 -166 -41 -218q0 -66 45 -128q40 -55 66 -55q14 0 45 82q51 133 73 180q76 156 227 265q115 84 238 84q82 0 139 -44q61 -48 61 -128zM1006 375q0 69 -64 100q-42 20 -98 20q-51 0 -92 -54q-23 -29 -82 -140q-62 -117 -117 -192q170 0 257 35q23 10 45 23
q111 70 142 162q9 24 9 46zM913 1089q0 -16 -6 -16q-2 0 -11.5 4.5t-14.5 3.5l-47 -32q-10 -3 -32 -36q-10 -14 -38 -59q-19 -31 -24 -31t-19 60t-15 89v8v6q0 7 3 12q18 23 63 65q57 52 79 52q18 0 41 -54q21 -50 21 -72z" />
    <glyph glyph-name="uFEC0" unicode="&#x636;" horiz-adv-x="1186" arabic-form="medial" 
d="M1225 0h-62q-44 0 -77 3q-139 13 -235 73q-125 -51 -180 -71q-151 -55 -269 -55q-94 0 -153 39q-34 23 -70 74q-28 41 -45 42q-87 -105 -137 -105h-19v155h26q111 0 152 86q12 24 30 85l9 -5q3 13 8 39q10 41 17 52q27 32 34 40q37 38 58 38q17 0 21 -24
q-42 -166 -42 -218q0 -66 46 -128q40 -55 65 -55q15 0 45 82q47 132 71 181q76 160 227 266q117 82 240 82q83 0 138 -38q63 -43 63 -122q0 -127 -220 -361h259v-155zM1003 375q0 69 -68 100q-45 20 -103 20q-51 0 -91 -54q-36 -51 -94 -165t-97 -167q171 0 257 35
q24 10 46 23q110 69 142 162q8 25 8 46zM864 1063q0 -16 -6 -16q-2 0 -11.5 5t-15.5 3l-47 -31q-9 -3 -32 -36q-9 -15 -37 -60q-20 -31 -24 -31q-6 0 -19.5 60t-14.5 89v8v6q0 7 3 12q17 23 63 65q57 53 79 53q17 0 40 -55q22 -49 22 -72z" />
    <glyph glyph-name="uFEC2" unicode="&#x637;" horiz-adv-x="1116" arabic-form="final" 
d="M1156 0h-296q-33 0 -52 43q-11 36 -22 71q-40 -7 -143 -36q-118 -34 -172 -46q-96 -24 -149 -24q-35 -4 -72 -65q-17 -28 -36 -28q-24 -3 -24 29v10v9q0 20 -8 27q-22 10 -63 10q-13 0 -13 31q0 7 2 41q1 18 1 25q0 10 -3 24q-6 26 -7 29q0 14 19 16q58 -11 94 -11h25
q11 2 17 2q28 0 87 77q103 137 141 179q112 123 245 202q21 13 32 29q20 32 30 32q52 0 69 -35q7 -21 13 -41q10 -14 61 -66l83 -99q45 -55 45 -73q1 -3 1 -6q0 -18 -37 -118q-17 -46 -25 -83h157v-155zM922 314q-110 127 -144 123q-42 0 -150 -81q-98 -73 -184 -164
q115 13 259 48q156 38 219 74zM520 547v-4v-3q0 -10 -12 -22q-34 -31 -49 -55q-9 -10 -24 -37q-23 -43 -46 -43q-14 0 -14 10q0 8 9 28.5t9 30.5q-9 91 -17 160l-42 348q-2 18 -2 28q20 54 39 85q38 61 80 61q0 -62 17 -204q10 -86 32 -242z" />
    <glyph glyph-name="uFEC3" unicode="&#x637;" horiz-adv-x="991" arabic-form="initial" 
d="M949 362q4 -43 -37 -101q-34 -48 -77 -80q-57 -43 -160 -68q-86 -20 -172 -39l-156 -45q-84 -21 -136 -21q-34 -4 -72 -65q-17 -28 -35 -28q-25 -3 -25 29v10v10q0 20 -8 26q-12 5 -45 8q-10 1 -33 2v155q10 0 31 -1h32h10q38 0 77 3q29 0 87 77q103 137 142 179
q112 123 244 202q21 13 32 29q20 32 30 32q52 0 69 -35q7 -21 14 -41q9 -14 61 -66l83 -99q44 -55 44 -73zM811 314q-110 127 -144 123q-42 0 -150 -81q-98 -73 -184 -164q115 13 260 48q155 38 218 74zM409 547q0 -1 1 -4v-3q0 -10 -13 -22q-34 -31 -49 -55q-9 -10 -23 -37
q-23 -43 -47 -43q-14 0 -14 10q0 8 9 28.5t9 30.5q-8 91 -17 160l-42 348q-1 18 -1 28q19 54 39 85q37 61 80 61q0 -62 16 -204q10 -86 32 -242z" />
    <glyph glyph-name="uFEC4" unicode="&#x637;" horiz-adv-x="993" arabic-form="medial" 
d="M1040 0h-296q-33 0 -52 43l-22 72q-40 -8 -143 -37q-118 -34 -171 -46q-97 -24 -150 -24q-34 -4 -72 -65q-17 -28 -35 -28q-24 -3 -24 36q0 5 1 16v16q0 17 -7 17h-81v155h151q28 0 86 77q103 138 142 180q111 124 244 203q21 13 32 29q20 32 30 32q52 0 69 -35
q7 -21 14 -41q9 -14 61 -66l83 -99q44 -55 44 -73q1 -3 1 -6q0 -15 -41 -129q-13 -37 -20 -72h156v-155zM806 315q-110 126 -144 122q-42 0 -150 -81q-98 -73 -184 -164q115 13 260 48q155 38 218 75zM404 548q0 -2 1 -5v-3q0 -10 -13 -22q-34 -31 -49 -55q-9 -10 -23 -37
q-23 -43 -47 -43q-14 0 -14 10q0 8 9 28.5t9 30.5q-8 91 -17 160l-42 348q-1 18 -1 28q19 54 39 85q37 61 80 61q0 -62 16 -203q10 -87 32 -243z" />
    <glyph glyph-name="uFEC6" unicode="&#x638;" horiz-adv-x="1063" arabic-form="final" 
d="M1156 2h-296q-33 0 -52 42l-22 72q-40 -7 -143 -37q-118 -33 -172 -46q-96 -23 -149 -23q-35 -4 -72 -66q-17 -28 -36 -28q-24 -2 -24 29v10v10q0 19 -8 27q-22 10 -63 10q-13 0 -13 30q0 7 2 42q1 18 1 25q0 9 -3 23q-6 26 -7 29q0 14 19 16q58 -10 94 -10h25q11 1 17 2
q28 0 87 77q103 136 141 178q112 123 245 202q21 13 32 30q20 31 30 31q52 0 69 -34q7 -21 13 -42q10 -14 61 -65l83 -100q45 -55 45 -72q1 -4 1 -6q0 -16 -41 -129q-13 -38 -21 -73h157v-154zM922 316q-110 126 -144 122q-42 0 -150 -80q-98 -74 -184 -164q115 12 259 48
q156 38 219 74zM520 549v-4v-4q0 -10 -12 -21q-34 -32 -49 -56q-9 -9 -24 -37q-23 -43 -46 -43q-14 0 -14 10q0 8 9 28.5t9 30.5q-9 91 -17 161l-42 348q-2 17 -2 27q20 54 39 86q38 60 80 60q0 -61 17 -203q10 -87 32 -242zM750 1045q0 -16 -6 -16q-2 0 -11.5 5t-14.5 3
l-47 -31q-9 -3 -32 -36q-10 -15 -38 -60q-19 -31 -23 -31q-6 0 -20 60t-14 89q0 3 -1 8v6q0 7 4 12q17 23 63 65q57 53 79 53q17 0 40 -55q21 -49 21 -72z" />
    <glyph glyph-name="uFEC7" unicode="&#x638;" horiz-adv-x="991" arabic-form="initial" 
d="M949 362q4 -43 -37 -101q-34 -48 -77 -80q-57 -43 -160 -68q-86 -20 -172 -39l-156 -45q-84 -21 -136 -21q-34 -4 -72 -65q-17 -28 -35 -28q-25 -3 -25 29v10v10q0 20 -8 26q-12 5 -45 8q-10 0 -33 2v155q10 0 31 -1h32h10q38 0 77 3q29 0 87 77q103 137 142 179
q112 123 244 202q21 13 32 29q20 32 30 32q52 0 69 -35l14 -42q9 -14 61 -65l83 -100q44 -54 44 -72zM811 314q-110 127 -144 123q-42 0 -150 -81q-98 -74 -184 -164q115 13 260 48q155 38 218 74zM409 547q0 -1 1 -4v-3q0 -10 -13 -22q-34 -31 -49 -55q-9 -10 -23 -37
q-23 -44 -47 -44q-14 0 -14 11q0 8 9 28.5t9 29.5q-8 92 -17 161l-42 348q-1 18 -1 28q19 54 39 85q37 60 80 60q0 -61 16 -203q10 -86 32 -242zM650 1068q0 -16 -6 -16q-2 0 -11.5 5t-14.5 3l-47 -31q-10 -3 -32 -36q-10 -15 -38 -59q-19 -32 -24 -32t-19 60t-15 89v8.5
v5.5q0 8 3 12q18 23 63 65q58 53 79 53q18 0 41 -54q21 -50 21 -73z" />
    <glyph glyph-name="uFEC8" unicode="&#x638;" horiz-adv-x="1002" arabic-form="medial" 
d="M1040 0h-296q-33 0 -52 43q-11 36 -22 71q-40 -7 -143 -36q-118 -34 -171 -47q-97 -23 -150 -23q-34 -4 -72 -65q-17 -28 -35 -28q-24 -3 -24 35q0 6 1 16v16q0 18 -7 18h-81v155h151q28 0 86 77q103 138 142 180q111 123 244 203q21 13 32 29q20 32 30 32q52 0 69 -35
l14 -42q9 -13 61 -65l83 -99q44 -55 44 -73q1 -4 1 -6q0 -16 -41 -128q-13 -38 -20 -73h156v-155zM806 314q-110 127 -144 123q-42 0 -150 -81q-98 -73 -184 -164q115 13 260 48q155 38 218 74zM404 547q0 -1 1 -4v-3q0 -10 -13 -22q-34 -31 -49 -55q-9 -10 -23 -37
q-23 -44 -47 -44q-14 0 -14 11q0 8 9 28.5t9 30.5q-8 91 -17 160l-42 348q-1 18 -1 28q19 54 39 85q37 61 80 61q0 -62 16 -204q10 -86 32 -242zM670 1142q0 -16 -6 -16q-2 0 -11.5 5t-15.5 4l-47 -32q-9 -3 -32 -36q-9 -14 -37 -59q-20 -32 -24 -32q-6 0 -19.5 60.5
t-14.5 88.5v8.5v6.5q0 7 3 12q17 23 63 65q57 52 79 52q17 0 41 -54q21 -50 21 -73z" />
    <glyph glyph-name="uFECA" unicode="&#x639;" horiz-adv-x="1109" arabic-form="final" 
d="M1176 -519l-8 -72q-7 -54 -11 -60q-11 -20 -22 -20q-3 0 -13.5 5t-17.5 4l-475 -129q-186 -50 -390 -72q-71 35 -106 144q-11 33 -34 125q0 63 9 110q26 155 156 335q13 17 57 69q143 163 267 284q0 32 -29 54l-27 18t-26 19q-29 21 -29 52q0 157 63 170q36 10 110 27
q70 17 104 17q36 0 129 -5q46 -3 80 -3q5 2 12 2q36 0 36 -67q0 -9 -5.5 -27.5t-6.5 -26.5q-10 -84 -36 -121q-33 -18 -103 -65q-42 -34 -98 -93h396v-155l-257 -1q-19 0 -47 -9.5t-42 -9.5q-31 0 -72 53l-54 80q-219 -185 -409 -473q-32 -49 -70 -151q-20 -53 -20 -75
q0 -44 59 -73q48 -24 98 -24q60 0 364 68q173 38 254 62q41 14 124 42q70 23 76 24q14 0 14 -32zM874 459l-294 -26l157 -108z" />
    <glyph glyph-name="uFECB" unicode="&#x639;" horiz-adv-x="753" arabic-form="initial" 
d="M712 214q0 -60 -30 -62q-57 -97 -115 -97q-11 0 -50 4q-24 2 -39 2q-131 0 -242 -16q-58 -8 -156 -29q-74 -16 -103 -16v155h36q30 0 64 11q48 15 48 40q-32 84 -32 175q0 138 119 171q35 10 80 10q9 0 20 -1h11q10 0 133 -18q20 2 48 2q25 1 25 -5q0 -7 -10.5 -31
t-22.5 -63v-12q0 -8 2 -21.5t2 -20.5q0 -11 -8 -11q-33 17 -100 17q-134 0 -206 -41q40 -73 90 -93q49 -31 124 -48q50 -11 107 -11q28 0 57 1q85 5 97 5t46 10q5 0 5 -7z" />
    </font>
</defs>
</svg>
