<?xml version="1.0" standalone="no"?>
<!DOCTYPE svg PUBLIC "-//W3C//DTD SVG 1.1//EN" "http://www.w3.org/Graphics/SVG/1.1/DTD/svg11.dtd" >
<svg>
<metadata>
Created by FontForge 20120731 at Fri Jul 15 10:02:45 2016
 By www-data
Copyright (c) 2003 by Bitstream, Inc. All Rights Reserved.
DejaVu changes are in public domain
Copyright (c) 2015 by Saber Rastikerdar. All Rights Reserved.
</metadata>
<defs>
<font id="Parastoo" horiz-adv-x="0" >
  <font-face 
    font-family="Parastoo"
    font-weight="400"
    font-stretch="normal"
    units-per-em="2048"
    panose-1="2 11 6 3 3 8 4 2 2 4"
    ascent="1638"
    descent="-410"
    bbox="-86.6263 -1037.48 2798 2312"
    underline-thickness="100"
    underline-position="-205"
    unicode-range="U+0020-FEFC"
  />
<missing-glyph horiz-adv-x="748" 
d="M68 0v1365h544v-1365h-544zM136 68h408v1229h-408v-1229z" />
    <glyph glyph-name="uni0622" unicode="&#x627;&#x653;" horiz-adv-x="580" 
d="M389.73 1406.92q33.0469 -455.428 6.19629 -1102.28q-12.3926 -303.014 -114.632 -318.437q-23.752 923.557 -38.21 1124.05q-10.3271 162.394 -22.7197 211.384zM196.022 1594.79q-97.9414 6.67773 -172.511 -69.0049q-18.9209 -18.9199 -31.7207 -16.6943
q-12.7988 2.22559 -13.3555 18.3643t3.89551 26.1553q20.0342 89.0381 67.8916 138.565q47.8584 49.5273 94.6035 51.1963q46.7441 1.66992 172.511 -13.9121q125.767 -15.5811 254.872 12.2432q33.3887 7.79102 47.8574 1.66895q14.4688 -6.12109 -20.0332 -47.3008
q-69.0049 -84.5869 -133.558 -102.395q-46.7451 -13.3555 -270.453 1.11328z" />
    <glyph glyph-name="uni0623" unicode="&#x627;&#x654;" horiz-adv-x="518" 
d="M74.9141 1570.39l54.5361 135.783q80.1338 37.8408 120.201 52.3096q-158.043 16.6953 -141.348 148.026q30.0498 222.595 208.126 221.482q99.0547 0 136.896 -135.783q-195.884 57.874 -258.211 -38.9541q-22.2588 -35.6152 -9.45996 -63.9961t29.4941 -40.624
q63.4395 -47.8584 199.223 -16.6943q26.7109 6.67773 62.3262 14.4688l-34.502 -121.314q-75.6826 -21.1465 -367.282 -154.704zM356 1553q32 -502 6 -1215q-12 -334 -111 -351q-23 1018 -37 1239q-10 179 -22 233z" />
    <glyph glyph-name="afii57412" unicode="&#x648;&#x654;" horiz-adv-x="906" 
d="M203.914 740.388l54.5361 135.783q80.1338 37.8408 120.201 52.3096q-158.043 16.6953 -141.348 148.026q30.0498 222.595 208.126 221.482q99.0547 0 136.896 -135.783q-195.884 57.874 -258.211 -38.9541q-22.2588 -35.6152 -9.45996 -63.9961t29.4941 -40.624
q63.4395 -47.8584 199.223 -16.6943q26.7109 6.67773 62.3262 14.4688l-34.502 -121.314q-75.6826 -21.1465 -367.282 -154.704zM512 694q117 0 194 -135q79 -141 95 -286q17 -165 -5 -274q-60 -299 -306 -502q-45 -38 -112 -39q-220 -3 -338 59q-6 3 -7 4q5 8 49 25
q524 208 613 453l-157 -2q-225 3 -300 99q-54 69 -26 239q31 189 136 288q75 70 164 71zM682 305q-46 186 -193 186q-127 1 -172 -119q-21 -55 -20 -128q125 -82 395 -44q1 62 -10 105z" />
    <glyph glyph-name="uni0625" unicode="&#x627;&#x655;" horiz-adv-x="486" 
d="M34.9141 -646.923l54.5361 135.783q80.1338 37.8408 120.201 52.3096q-158.043 16.6943 -141.348 148.025q30.0498 222.596 208.126 221.482q99.0547 0 136.896 -135.783q-195.884 57.875 -258.211 -38.9541q-22.2588 -35.6152 -9.45996 -63.9961t29.4941 -40.623
q63.4395 -47.8584 199.223 -16.6953q26.7109 6.67773 62.3262 14.4688l-34.502 -121.314q-75.6826 -21.1465 -367.282 -154.703zM328 1553q32 -502 6 -1215q-12 -334 -111 -351q-23 1018 -37 1239q-10 179 -22 233z" />
    <glyph glyph-name="afii57414" unicode="&#x64a;&#x654;" horiz-adv-x="1472" 
d="M378.914 723.388l54.5361 135.783q80.1338 37.8408 120.201 52.3096q-158.043 16.6953 -141.348 148.026q30.0498 222.595 208.126 221.482q99.0547 0 136.896 -135.783q-195.884 57.874 -258.211 -38.9541q-22.2588 -35.6152 -9.45996 -63.9961t29.4941 -40.624
q63.4395 -47.8584 199.223 -16.6943q26.7109 6.67773 62.3262 14.4688l-34.502 -121.314q-75.6826 -21.1465 -367.282 -154.704zM1350 -107q-131 -383 -712 -380q-286 -1 -423.5 142.5t-103.5 387.5q15 111 88 236q44 77 72 67q25 -9 13 -37l-25 -60q-80 -202 -13 -340
q93 -191 416 -192q544 0 612 237q5 15 -28.5 20.5t-192 5.5t-215.5 47q-115 96 -36.5 360.5t255.5 350.5q47 23 96 29q157 17 213 -177q12 -43 -4 -47q-3 -1 -9 1l-48 15q-223 71 -352 -91q-75 -95 -83 -200q-6 -103 235 -101h28q150 1 186 -23q96 -61 31 -251z" />
    <glyph glyph-name="uniFE70" unicode="&#x20;&#x64b;" horiz-adv-x="687" arabic-form="isolated" 
d="M23 917v88l425 174v-89zM23 1153v88l425 174v-88z" />
    <glyph glyph-name="uniFE72" unicode="&#x20;&#x64c;" horiz-adv-x="687" arabic-form="isolated" 
d="M321 1497q-77 0 -77 -69q0 -50 57 -72q10 -5 25 -10t34 -11l5 -1l13 30q5 13 7.5 27.5t2.5 31.5q0 18 -6 32t-17 23q-8 7 -15 11t-14.5 6t-14.5 2zM44 1191q39 -85 101 -85q61 0 128 64q38 38 60 82l12 24l-26 5q-78 17 -120 75q-8 11 -13.5 21t-8 19t-2.5 17q0 26 2 36
q4 40 34 78q15 18 39 27.5t57 9.5q17 0 32 -2.5t28.5 -7.5t25 -12.5t22.5 -17.5q20 -19 30 -46t10 -62q0 -8 -0.5 -17t-2 -17.5t-3.5 -17t-5 -17.5l-8 -25l26 -1q19 -1 50 -2v-67q-29 1 -43 2l-65 6l-2 -3q-28 -67 -83 -123q-18 -19 -34.5 -33.5t-31.5 -25t-28.5 -17
t-27 -10.5t-27 -6.5t-27.5 -2.5q-97 0 -147 137q-5 16 -8.5 47.5t-4.5 75.5h47q1 -42 4 -68t10 -40z" />
    <glyph glyph-name="uniFE74" unicode="&#x20;&#x64d;" horiz-adv-x="687" arabic-form="isolated" 
d="M3 -412v91l403 165v-92zM3 -194v92l403 165v-92z" />
    <glyph glyph-name="uniFE76" unicode="&#x20;&#x64e;" horiz-adv-x="687" arabic-form="isolated" 
d="M-26 1064v92l403 165v-92z" />
    <glyph glyph-name="uniFE78" unicode="&#x20;&#x64f;" horiz-adv-x="687" arabic-form="isolated" 
d="M415 1171q-45 1 -105 7q-43 -59 -102 -96q-95 -59 -202 -63v71q105 4 167 56q28 23 40 36l17 18l-24 5q-6 1 -37 18q-30 15 -53 46q-22 31 -22 68q0 73 56 116q22 17 78 16q56 1 95 -38q39 -37 39 -103q0 -27 -12 -65l-6 -18l19 -1q30 -2 52 -2v-71zM271 1257l11 25
q9 21 9 52t-20 47.5t-44 16.5t-42 -13.5t-18 -51t49 -57.5q19 -8 55 -19z" />
    <glyph glyph-name="uniFE7A" unicode="&#x20;&#x650;" horiz-adv-x="687" arabic-form="isolated" 
d="M11 -282v92l403 164v-91z" />
    <glyph glyph-name="uniFE7C" unicode="&#x20;&#x651;" horiz-adv-x="687" arabic-form="isolated" 
d="M219 1226q-24 -132 -140 -132t-116 148q0 30 12 113h60q-10 -72 -10 -94q0 -91 64 -91q88 0 92 116q2 32 2 69.5t-1 44.5h60q1 -29 2 -67q-1 -113 97 -113h1q59 1 59 96q1 84 -9 134h64q9 -64 9 -139q0 -122 -67 -151q-27 -11 -52 -12q-57 -2 -87 19q-36 27 -40 59z" />
    <glyph glyph-name="uniFE7E" unicode="&#x20;&#x652;" horiz-adv-x="687" arabic-form="isolated" 
d="M464 1457q0 49 -34 83t-83 34q-50 0 -84 -34t-34 -83q0 -50 34 -83.5t84 -33.5q49 0 83 34t34 83zM536 1457.5q0 -79.5 -54.5 -135t-134.5 -55.5q-26 0 -50 6.5t-45 18.5t-39 30q-28 28 -41.5 61.5t-13.5 73.5q0 80 55 134.5t134.5 54.5t134 -54.5t54.5 -134z" />
    <glyph glyph-name="uniFEF5" unicode="&#xfedf;&#xfe82;" horiz-adv-x="1238" arabic-form="isolated" 
d="M1108 1197v-160q1 -705 -257 -950q-87 -49 -195 -65q-257 -40 -412 -37q-56 1 -58 41t54 54q339 82 474 146v1q-142 402 -407 717l-46 -20q-42 -18 -69 42l-89 194l64 201q482 -539 629 -1087q63 50 110 146q48 99 65 328q11 152 2 362q-10 244 -31 350l166 93l68 -227
q21 -70 -16 -95zM131.022 1476.79q-97.9414 6.67773 -172.511 -69.0049q-18.9209 -18.9199 -31.7207 -16.6943q-12.7988 2.22559 -13.3555 18.3643t3.89551 26.1553q20.0342 89.0381 67.8916 138.565q47.8584 49.5273 94.6035 51.1963q46.7441 1.66992 172.511 -13.9121
q125.767 -15.5811 254.872 12.2432q33.3887 7.79102 47.8574 1.66895q14.4688 -6.12109 -20.0332 -47.3008q-69.0049 -84.5869 -133.558 -102.395q-46.7451 -13.3555 -270.453 1.11328z" />
    <glyph glyph-name="uniFEF6" unicode="&#xfee0;&#xfe82;" horiz-adv-x="1423" arabic-form="final" 
d="M131.022 1476.79q-97.9414 6.67773 -172.511 -69.0049q-18.9209 -18.9199 -31.7207 -16.6943q-12.7988 2.22559 -13.3555 18.3643t3.89551 26.1553q20.0342 89.0381 67.8916 138.565q47.8584 49.5273 94.6035 51.1963q46.7441 1.66992 172.511 -13.9121
q125.767 -15.5811 254.872 12.2432q33.3887 7.79102 47.8574 1.66895q14.4688 -6.12109 -20.0332 -47.3008q-69.0049 -84.5869 -133.558 -102.395q-46.7451 -13.3555 -270.453 1.11328zM795 271q69 60 112 149q51 108 63 320q9 154 4 370q-6 250 -31 350l166 93v-750
q0 -601 290 -601h34v-203l-35 1q-301 5 -351 426l-3 24l-7 -23q-69 -223 -186 -340q-87 -49 -195 -65q-257 -40 -412 -37q-56 1 -58 41t54 54q349 87 474 146v1q-142 402 -407 717l-46 -20q-42 -18 -69 42l-89 194l64 201q482 -532 628 -1090z" />
    <glyph glyph-name="uniFEF7" unicode="&#xfedf;&#xfe84;" horiz-adv-x="1238" arabic-form="isolated" 
d="M1108 1197v-160q1 -705 -257 -950q-87 -49 -195 -65q-257 -40 -412 -37q-56 1 -58 41t54 54q339 82 474 146v1q-142 402 -407 717l-46 -20q-42 -18 -69 42l-89 194l64 201q482 -539 629 -1087q63 50 110 146q48 99 65 328q11 152 2 362q-10 244 -31 350l166 93l68 -227
q21 -70 -16 -95zM-47.0859 1330.39l54.5361 135.783q80.1338 37.8408 120.201 52.3096q-158.043 16.6953 -141.348 148.026q30.0498 222.595 208.126 221.482q99.0547 0 136.896 -135.783q-195.884 57.874 -258.211 -38.9541q-22.2588 -35.6152 -9.45996 -63.9961
t29.4941 -40.624q63.4395 -47.8584 199.223 -16.6943q26.7109 6.67773 62.3262 14.4688l-34.502 -121.314q-75.6826 -21.1465 -367.282 -154.704z" />
    <glyph glyph-name="uniFEF8" unicode="&#xfee0;&#xfe84;" horiz-adv-x="1423" arabic-form="final" 
d="M795 271q69 60 112 149q51 108 63 320q9 154 4 370q-6 250 -31 350l166 93v-750q0 -601 290 -601h34v-203l-35 1q-301 5 -351 426l-3 24l-7 -23q-69 -223 -186 -340q-87 -49 -195 -65q-257 -40 -412 -37q-56 1 -58 41t54 54q349 87 474 146v1q-142 402 -407 717l-46 -20
q-42 -18 -69 42l-89 194l64 201q482 -532 628 -1090zM-34.0859 1340.39l54.5361 135.783q80.1338 37.8408 120.201 52.3096q-158.043 16.6953 -141.348 148.026q30.0498 222.595 208.126 221.482q99.0547 0 136.896 -135.783q-195.884 57.874 -258.211 -38.9541
q-22.2588 -35.6152 -9.45996 -63.9961t29.4941 -40.624q63.4395 -47.8584 199.223 -16.6943q26.7109 6.67773 62.3262 14.4688l-34.502 -121.314q-75.6826 -21.1465 -367.282 -154.704z" />
    <glyph glyph-name="uniFEF9" unicode="&#xfedf;&#xfe88;" horiz-adv-x="1238" arabic-form="isolated" 
d="M1108 1197v-160q1 -705 -257 -950q-87 -49 -195 -65q-257 -40 -412 -37q-56 1 -58 41t54 54q339 82 474 146v1q-142 402 -407 717l-46 -20q-42 -18 -69 42l-89 194l64 201q482 -539 629 -1087q63 50 110 146q48 99 65 328q11 152 2 362q-10 244 -31 350l166 93l68 -227
q21 -70 -16 -95zM136.914 -597.923l54.5361 135.783q80.1338 37.8408 120.201 52.3096q-158.043 16.6943 -141.348 148.025q30.0498 222.596 208.126 221.482q99.0547 0 136.896 -135.783q-195.884 57.875 -258.211 -38.9541q-22.2588 -35.6152 -9.45996 -63.9961
t29.4941 -40.623q63.4395 -47.8584 199.223 -16.6953q26.7109 6.67773 62.3262 14.4688l-34.502 -121.314q-75.6826 -21.1465 -367.282 -154.703z" />
    <glyph glyph-name="uniFEFA" unicode="&#xfee0;&#xfe88;" horiz-adv-x="1423" arabic-form="final" 
d="M795 271q69 60 112 149q51 108 63 320q9 154 4 370q-6 250 -31 350l166 93v-750q0 -601 290 -601h34v-203l-35 1q-301 5 -351 426l-3 24l-7 -23q-69 -223 -186 -340q-87 -49 -195 -65q-257 -40 -412 -37q-56 1 -58 41t54 54q349 87 474 146v1q-142 402 -407 717l-46 -20
q-42 -18 -69 42l-89 194l64 201q482 -532 628 -1090zM181.914 -610.923l54.5361 135.783q80.1338 37.8408 120.201 52.3096q-158.043 16.6943 -141.348 148.025q30.0498 222.596 208.126 221.482q99.0547 0 136.896 -135.783q-195.884 57.875 -258.211 -38.9541
q-22.2588 -35.6152 -9.45996 -63.9961t29.4941 -40.623q63.4395 -47.8584 199.223 -16.6953q26.7109 6.67773 62.3262 14.4688l-34.502 -121.314q-75.6826 -21.1465 -367.282 -154.703z" />
    <glyph glyph-name="uniFEFB" unicode="&#xfedf;&#xfe8e;" horiz-adv-x="1238" arabic-form="isolated" 
d="M1108 1197v-160q1 -705 -257 -950q-87 -49 -195 -65q-257 -40 -412 -37q-56 1 -58 41t54 54q339 82 474 146v1q-142 402 -407 717l-46 -20q-42 -18 -69 42l-89 194l64 201q482 -539 629 -1087q63 50 110 146q48 99 65 328q11 152 2 362q-10 244 -31 350l166 93l68 -227
q21 -70 -16 -95z" />
    <glyph glyph-name="uniFEFC" unicode="&#xfee0;&#xfe8e;" horiz-adv-x="1423" arabic-form="final" 
d="M795 271q69 60 112 149q51 108 63 320q9 154 4 370q-6 250 -31 350l166 93v-750q0 -601 290 -601h34v-203l-35 1q-301 5 -351 426l-3 24l-7 -23q-69 -223 -186 -340q-87 -49 -195 -65q-257 -40 -412 -37q-56 1 -58 41t54 54q349 87 474 146v1q-142 402 -407 717l-46 -20
q-42 -18 -69 42l-89 194l64 201q482 -532 628 -1090z" />
    <glyph glyph-name="uni0651064B" unicode="&#x64b;&#x651;" 
d="M288 972v88l425 174v-89zM288 1208v88l425 174v-88zM487 599q-24 -132 -140 -132t-116 148q0 30 12 113h60q-10 -72 -10 -94q0 -91 64 -91q88 0 92 116q2 32 2 69.5t-1 44.5h60q1 -29 2 -67q-1 -113 97 -113h1q59 1 59 96q1 84 -9 134h64q9 -64 9 -139q0 -122 -67 -151
q-27 -11 -52 -12q-57 -2 -87 19q-36 27 -40 59z" />
    <glyph glyph-name="uni0651064C" unicode="&#x64c;&#x651;" 
d="M572 1460q-77 0 -77 -69q0 -50 57 -72q10 -5 25 -10t34 -11l5 -1l13 30q5 13 7.5 27.5t2.5 31.5q0 18 -6 32t-17 23q-8 7 -15 11t-14.5 6t-14.5 2zM295 1154q39 -85 101 -85q61 0 128 64q38 38 60 82l12 24l-26 5q-78 17 -120 75q-8 11 -13.5 21t-8 19t-2.5 17q0 26 2 36
q4 40 34 78q15 18 39 27.5t57 9.5q17 0 32 -2.5t28.5 -7.5t25 -12.5t22.5 -17.5q20 -19 30 -46t10 -62q0 -8 -0.5 -17t-2 -17.5t-3.5 -17t-5 -17.5l-8 -25l26 -1q19 -1 50 -2v-67q-29 1 -43 2l-65 6l-2 -3q-28 -67 -83 -123q-18 -19 -34.5 -33.5t-31.5 -25t-28.5 -17
t-27 -10.5t-27 -6.5t-27.5 -2.5q-97 0 -147 137q-5 16 -8.5 47.5t-4.5 75.5h47q1 -42 4 -68t10 -40zM476 603q-24 -132 -140 -132t-116 148q0 30 12 113h60q-10 -72 -10 -94q0 -91 64 -91q88 0 92 116q2 32 2 69.5t-1 44.5h60q1 -29 2 -67q-1 -113 97 -113h1q59 1 59 96
q1 84 -9 134h64q9 -64 9 -139q0 -122 -67 -151q-27 -11 -52 -12q-57 -2 -87 19q-36 27 -40 59z" />
    <glyph glyph-name="uni064B0651" unicode="&#x64d;&#x651;" 
d="M442 1225q-24 -132 -140 -132t-116 148q0 30 12 113h60q-10 -72 -10 -94q0 -91 64 -91q88 0 92 116q2 32 2 69.5t-1 44.5h60q1 -29 2 -67q-1 -113 97 -113h1q59 1 59 96q1 84 -9 134h64q9 -64 9 -139q0 -122 -67 -151q-27 -11 -52 -12q-57 -2 -87 19q-36 27 -40 59z
M259 598v88l425 174v-89zM259 834v88l425 174v-88z" />
    <glyph glyph-name="uni0651064E" unicode="&#x64e;&#x651;" 
d="M253 1047v92l403 165v-92zM492 776q-24 -132 -140 -132t-116 148q0 30 12 113h60q-10 -72 -10 -94q0 -91 64 -91q88 0 92 116q2 32 2 69.5t-1 44.5h60q1 -29 2 -67q-1 -113 97 -113h1q59 1 59 96q1 84 -9 134h64q9 -64 9 -139q0 -122 -67 -151q-27 -11 -52 -12
q-57 -2 -87 19q-36 27 -40 59z" />
    <glyph glyph-name="uni0651064F" unicode="&#x64f;&#x651;" 
d="M655 1069q-45 1 -105 7q-43 -59 -102 -96q-95 -59 -202 -63v71q105 4 167 56q28 23 40 36l17 18l-24 5q-6 1 -37 18q-30 15 -53 46q-22 31 -22 68q0 73 56 116q22 17 78 16q56 1 95 -38q39 -37 39 -103q0 -27 -12 -65l-6 -18l19 -1q30 -2 52 -2v-71zM511 1155l11 25
q9 21 9 52t-20 47.5t-44 16.5t-42 -13.5t-18 -51t49 -57.5q19 -8 55 -19zM477 633q-24 -132 -140 -132t-116 148q0 30 12 113h60q-10 -72 -10 -94q0 -91 64 -91q88 0 92 116q2 32 2 69.5t-1 44.5h60q1 -29 2 -67q-1 -113 97 -113h1q59 1 59 96q1 84 -9 134h64q9 -64 9 -139
q0 -122 -67 -151q-27 -11 -52 -12q-57 -2 -87 19q-36 27 -40 59z" />
    <glyph glyph-name="uni064E0651" unicode="&#x650;&#x651;" 
d="M478 1174q-24 -132 -140 -132t-116 148q0 30 12 113h60q-10 -72 -10 -94q0 -91 64 -91q88 0 92 116q2 32 2 69.5t-1 44.5h60q1 -29 2 -67q-1 -113 97 -113h1q59 1 59 96q1 84 -9 134h64q9 -64 9 -139q0 -122 -67 -151q-27 -11 -52 -12q-57 -2 -87 19q-36 27 -40 59z
M297 715v92l403 165v-92z" />
    <glyph glyph-name="uni0654064E" unicode="&#x64e;&#x654;" 
d="M319 1418v92l403 165v-92zM367 914l49 122q72 34 108 47q-142 15 -127 133q27 200 187 199q89 0 123 -122q-176 52 -232 -35q-20 -32 -8.5 -57.5t26.5 -36.5q57 -43 179 -15q24 6 56 13l-31 -109q-68 -19 -330 -139z" />
    <glyph glyph-name="uni0654064F" unicode="&#x64f;&#x654;" 
d="M753 1445q-45 1 -105 7q-43 -59 -102 -96q-95 -59 -202 -63v71q105 4 167 56q28 23 40 36l17 18l-24 5q-6 1 -37 18q-30 15 -53 46q-22 31 -22 68q0 73 56 116q22 17 78 16q56 1 95 -38q39 -37 39 -103q0 -27 -12 -65l-6 -18l19 -1q30 -2 52 -2v-71zM609 1531l11 25
q9 21 9 52t-20 47.5t-44 16.5t-42 -13.5t-18 -51t49 -57.5q19 -8 55 -19zM376 758l49 122q72 34 108 47q-142 15 -127 133q27 200 187 199q89 0 123 -122q-176 52 -232 -35q-20 -32 -8.5 -57.5t26.5 -36.5q57 -43 179 -15q24 6 56 13l-31 -109q-68 -19 -330 -139z" />
    <glyph glyph-name="uni066E.init" unicode="&#x66e;" horiz-adv-x="616" 
d="M411 279q-9 147 -124 282l125 205q107 -163 119 -346t-68 -302q-79 -119 -394 -119h-80v203l92 1q246 -5 330 76z" />
    <glyph glyph-name="uni066E.medi" unicode="&#x66e;" horiz-adv-x="721" 
d="M363 473q5 69 49 68q45 -1 49 -61l6 -92q13 -186 252 -186h13v-203h-23q-217 0 -285 153q-81 -153 -425 -153h-9v203h44q310 0 323 184z" />
    <glyph glyph-name="uni066E.fina" unicode="&#x66e;" horiz-adv-x="1929" 
d="M918 202q299 1 570 108q127 50 215 176q30 42 56 37q30 -5 16 -67q-55 -254 129 -254h36v-203h-30q-217 -1 -248 225l-3 24q-81 -83 -280 -161q-209 -82 -589 -88q-377 -6 -529 77q-205 112 -156 414q18 106 65 181q20 32 39 28q28 -5 15 -55q-14 -52 -23 -121
q-12 -88 25 -154q83 -147 420 -162q119 -5 272 -5z" />
    <glyph glyph-name="uni066F.init" unicode="&#x66f;" horiz-adv-x="864" 
d="M233 690q-12 -47 -10 -67q7 -15 68 -34q152 -47 336 11q-11 47 -28 92q-63 154 -187 151q-140 -3 -179 -153zM718 359q-76 -360 -529 -360h-195v203h175q442 0 457 224q-138 -44 -262 -28q-144 17 -197 91q-41 58 -27 173q27 211 125 306q81 79 165 76t148 -65
q64 -63 102 -167q85 -230 38 -453z" />
    <glyph glyph-name="uni066F.medi" unicode="&#x66f;" horiz-adv-x="1111" 
d="M494 110q-119 -111 -462 -111h-42v202h33q274 0 299 24q-135 129 -135 257q0 83 80 210q104 162 236 163q88 0 187 -105t100 -257q0 -142 -137 -273q85 -23 280 -19l21 1v-203h-30q-269 4 -430 111zM351 590q-55 -56 -55 -96q0 -64 66 -130q81 -81 127.5 -81t130.5 78
q62 58 62 122q0 47 -66 117q-73 77 -124 77q-54 0 -141 -87z" />
    <glyph glyph-name="uni066F.fina" unicode="&#x66f;" horiz-adv-x="1470" 
d="M1340 203l140 -1v-204h-140l-8 -72q-26 -524 -700 -524q-285 0 -423 144t-104 387q16 111 88 236q44 76 72 67q26 -9 13 -37l-24 -60q-81 -201 -14 -340q98 -201 416 -192q485 14 571 236q10 73 10 156l-157 2q-242 -1 -306 81q-61 79 -32 245q32 184 149 293
q75 70 164 71q115 0 192 -131q77 -132 93 -357zM1225 286q-48 202 -193 202q-129 1 -179 -131q-17 -48 -16 -101q32 -63 397 -53q2 36 -9 83z" />
    <glyph glyph-name="uni06A1.init" unicode="&#x6a1;" horiz-adv-x="841" 
d="M233 690q-12 -47 -10 -67q7 -15 68 -34q152 -47 336 11q-11 47 -28 92q-63 154 -187 151q-140 -3 -179 -153zM718 359q-76 -360 -529 -360h-195v203h175q442 0 457 224q-138 -44 -262 -28q-144 17 -197 91q-41 58 -27 173q27 211 125 306q81 79 165 76t148 -65
q64 -63 102 -167q85 -230 38 -453z" />
    <glyph glyph-name="uni06A1.medi" unicode="&#x6a1;" horiz-adv-x="944" 
d="M494 110q-119 -111 -462 -111h-42v202h33q274 0 299 24q-135 129 -135 257q0 83 80 210q104 162 236 163q88 0 187 -105t100 -257q0 -142 -137 -273q85 -23 280 -19l21 1v-203h-30q-269 4 -430 111zM351 590q-55 -56 -55 -96q0 -64 66 -130q81 -81 127.5 -81t130.5 78
q62 58 62 122q0 47 -66 117q-73 77 -124 77q-54 0 -141 -87z" />
    <glyph glyph-name="uni06A1.fina" unicode="&#x6a1;" horiz-adv-x="1980" 
d="M790 -1q-383 -3 -529 77q-205 112 -156 414q18 106 65 181q20 32 39 28q28 -5 15 -55q-14 -52 -23 -121q-12 -88 25 -154q83 -147 420 -162q96 -4 272 -6q260 1 453 36q-135 129 -135 257q0 83 80 210q104 162 236 163q88 0 187 -105t100 -257q0 -142 -137 -273
q150 -31 250 -31l39 1v-203h-48q-239 0 -410 122q-206 -118 -743 -122zM1400 602q-55 -56 -55 -96q0 -64 66 -130q81 -81 127.5 -81t130.5 78q62 58 62 122q0 47 -66 117q-73 77 -124 77q-54 0 -141 -87zM1539 295z" />
    <glyph glyph-name="uni06CA.fina" unicode="&#x6ca;" horiz-adv-x="909" 
d="M599.479 1129.96l109.181 -110.239q6.35938 -6.36035 1.05957 -11.6602l-114.479 -114.479q-8.48047 -8.48047 -16.96 0l-110.24 110.239q-10.5996 9.54004 0 20.1406l107.06 107.06q11.6602 11.6602 24.3799 -1.06055zM322.819 1129.96l109.18 -110.239
q6.36035 -6.36035 1.06055 -11.6602l-114.479 -114.479q-8.48047 -8.48047 -16.96 0l-110.24 110.239q-10.5996 9.54004 0 20.1406l107.06 107.06q11.6602 11.6602 24.3799 -1.06055zM692 -1l-158 2q-242 -1 -305 81q-62 79 -33 245q32 182 149 293q75 70 164 71
q115 0 192 -131q77 -132 94 -358h125v-203h-127q-63 -314 -306 -503q-48 -38 -113 -39q-187 -3 -334 59q-17 7 42 29q522 200 610 454zM679 286q-48 202 -193 202q-129 1 -178 -132q-18 -47 -17 -100q32 -63 398 -53q1 36 -10 83z" />
    <glyph glyph-name="uni06D5.fina" unicode="&#x6d5;" horiz-adv-x="1052" 
d="M206 459q56 -119 414 -110l82 2l-64 296q-264 -38 -432 -188zM1042 -1q-241 0 -324 277l-166 -110q-62 -4 -131 4q-300 34 -316 134q-5 32 34 195q39 164 475 292l-22 112l109 134l105 -564q51 -271 236 -271h22v-203h-22z" />
    <glyph glyph-name="uniFB56" unicode="&#x67e;" horiz-adv-x="1817" arabic-form="isolated" 
d="M791 -1q-377 -6 -529 77q-205 112 -156 414q18 106 65 181q20 32 39 28q28 -5 15 -55q-14 -52 -23 -121q-12 -88 25 -154q82 -146 420 -162q741 -35 943 125q-6 99 -46 168q-40 70 -77 114l125 205q94 -143 119 -358q32 -261 -234 -359q-180 -66 -502 -95q-79 -7 -184 -8
zM952.49 -663.575q-10.207 -10.207 -18.1465 -1.13379l-113.416 113.415q-7.93848 7.93945 -1.13379 14.7441l117.952 117.952q5.6709 4.53711 10.207 0l122.489 -122.488q2.26855 -2.26855 -1.13379 -5.6709zM1099.93 -412.927q-9.07324 -10.207 -17.0127 -2.26855
l-114.55 114.55q-7.93848 7.93945 -1.13379 14.7441l119.086 117.952q4.53711 4.53711 9.07324 0l117.952 -117.952q6.80469 -6.80469 0 -13.6104zM803.916 -412.927q-10.207 -10.207 -17.0127 -2.26855l-114.55 114.55q-7.93848 7.93945 -1.13379 14.7441l119.086 117.952
q4.53711 4.53711 9.07324 0l122.489 -123.623q2.26855 -1.13379 0 -4.53613z" />
    <glyph glyph-name="uniFB57" unicode="&#x67e;" horiz-adv-x="1930" arabic-form="final" 
d="M903.49 -688.575q-10.207 -10.207 -18.1465 -1.13379l-113.416 113.415q-7.93848 7.93945 -1.13379 14.7441l117.952 117.952q5.6709 4.53711 10.207 0l122.489 -122.488q2.26855 -2.26855 -1.13379 -5.6709zM1050.93 -437.927q-9.07324 -10.207 -17.0127 -2.26855
l-114.55 114.55q-7.93848 7.93945 -1.13379 14.7441l119.086 117.952q4.53711 4.53711 9.07324 0l117.952 -117.952q6.80469 -6.80469 0 -13.6104zM754.916 -437.927q-10.207 -10.207 -17.0127 -2.26855l-114.55 114.55q-7.93848 7.93945 -1.13379 14.7441l119.086 117.952
q4.53711 4.53711 9.07324 0l122.489 -123.623q2.26855 -1.13379 0 -4.53613zM918 202q299 1 570 108q127 50 215 176q30 42 56 37q30 -5 16 -67q-55 -254 129 -254h36v-203h-30q-217 -1 -248 225l-3 24q-81 -83 -280 -161q-209 -82 -589 -88q-377 -6 -529 77
q-205 112 -156 414q18 106 65 181q20 32 39 28q28 -5 15 -55q-14 -52 -23 -121q-12 -88 25 -154q83 -147 420 -162q119 -5 272 -5z" />
    <glyph glyph-name="uniFB58" unicode="&#x67e;" horiz-adv-x="671" arabic-form="initial" 
d="M298.49 -683.575q-10.207 -10.207 -18.1465 -1.13379l-113.416 113.415q-7.93848 7.93945 -1.13379 14.7441l117.952 117.952q5.6709 4.53711 10.207 0l122.489 -122.488q2.26855 -2.26855 -1.13379 -5.6709zM445.931 -432.927q-9.07324 -10.207 -17.0127 -2.26855
l-114.55 114.55q-7.93848 7.93945 -1.13379 14.7441l119.086 117.952q4.53711 4.53711 9.07324 0l117.952 -117.952q6.80469 -6.80469 0 -13.6104zM149.916 -432.927q-10.207 -10.207 -17.0127 -2.26855l-114.55 114.55q-7.93848 7.93945 -1.13379 14.7441l119.086 117.952
q4.53711 4.53711 9.07324 0l122.489 -123.623q2.26855 -1.13379 0 -4.53613zM411 279q-9 147 -124 282l125 205q107 -163 119 -346t-68 -302q-79 -119 -394 -119h-80v203l92 1q246 -5 330 76z" />
    <glyph glyph-name="uniFB59" unicode="&#x67e;" horiz-adv-x="721" arabic-form="medial" 
d="M363 473q5 69 49 68q45 -1 49 -61l6 -92q13 -186 252 -186h13v-203h-23q-217 0 -285 153q-81 -153 -425 -153h-9v203h44q310 0 323 184zM323.49 -678.575q-10.207 -10.207 -18.1465 -1.13379l-113.416 113.415q-7.93848 7.93945 -1.13379 14.7441l117.952 117.952
q5.6709 4.53711 10.207 0l122.489 -122.488q2.26855 -2.26855 -1.13379 -5.6709zM470.931 -427.927q-9.07324 -10.207 -17.0127 -2.26855l-114.55 114.55q-7.93848 7.93945 -1.13379 14.7441l119.086 117.952q4.53711 4.53711 9.07324 0l117.952 -117.952
q6.80469 -6.80469 0 -13.6104zM174.916 -427.927q-10.207 -10.207 -17.0127 -2.26855l-114.55 114.55q-7.93848 7.93945 -1.13379 14.7441l119.086 117.952q4.53711 4.53711 9.07324 0l122.489 -123.623q2.26855 -1.13379 0 -4.53613z" />
    <glyph glyph-name="uniFB7A" unicode="&#x686;" horiz-adv-x="1362" arabic-form="isolated" 
d="M879 369q-192 -37 -399 -157q-285 -165 -283 -400q0 -92 63 -177q149 -199 643 -168q218 14 272 20q54 7 53 3q-1 -3 -5 -6q-220 -196 -297 -205q-61 -7 -160 -7q-362 0 -513 142q-150 142 -150 378q1 420 400 604q141 65 343 108l-386 79q-64 13 -83 15q-86 8 -182 -97
q-64 -70 -88 -57q-16 8 -6 36q62 174 119 232q59 57 162 59q77 2 541 -128q100 -28 338 -54l-62 -178q-195 -18 -320 -42zM749.49 -398.575q-10.207 -10.207 -18.1465 -1.13379l-113.416 113.415q-7.93848 7.93945 -1.13379 14.7441l117.952 117.952
q5.6709 4.53711 10.207 0l122.489 -122.488q2.26855 -2.26855 -1.13379 -5.6709zM896.931 -147.927q-9.07324 -10.207 -17.0127 -2.26855l-114.55 114.55q-7.93848 7.93945 -1.13379 14.7441l119.086 117.952q4.53711 4.53711 9.07324 0l117.952 -117.952
q6.80469 -6.80469 0 -13.6104zM600.916 -147.927q-10.207 -10.207 -17.0127 -2.26855l-114.55 114.55q-7.93848 7.93945 -1.13379 14.7441l119.086 117.952q4.53711 4.53711 9.07324 0l122.489 -123.623q2.26855 -1.13379 0 -4.53613z" />
    <glyph glyph-name="uniFB7B" unicode="&#x686;" horiz-adv-x="1342" arabic-form="final" 
d="M671.49 -436.575q-10.207 -10.207 -18.1465 -1.13379l-113.416 113.415q-7.93848 7.93945 -1.13379 14.7441l117.952 117.952q5.6709 4.53711 10.207 0l122.489 -122.488q2.26855 -2.26855 -1.13379 -5.6709zM818.931 -185.927q-9.07324 -10.207 -17.0127 -2.26855
l-114.55 114.55q-7.93848 7.93945 -1.13379 14.7441l119.086 117.952q4.53711 4.53711 9.07324 0l117.952 -117.952q6.80469 -6.80469 0 -13.6104zM522.916 -185.927q-10.207 -10.207 -17.0127 -2.26855l-114.55 114.55q-7.93848 7.93945 -1.13379 14.7441l119.086 117.952
q4.53711 4.53711 9.07324 0l122.489 -123.623q2.26855 -1.13379 0 -4.53613zM1261 589l-62 -178l-222 -28v-10q11 -171 352 -171h23v-203h-14q-449 0 -459 370q-192 -37 -399 -157q-285 -165 -283 -400q0 -92 63 -177q149 -199 643 -168q218 14 272 20q54 7 53 3
q-1 -3 -5 -6q-220 -196 -297 -205q-61 -7 -160 -7q-362 0 -513 142q-150 142 -150 378q1 420 400 604q141 65 343 108l-386 79q-53 11 -83 14q-87 9 -182 -96q-64 -70 -88 -57q-16 8 -6 36q62 174 119 232q59 57 162 59q77 2 541 -128q100 -28 338 -54z" />
    <glyph glyph-name="uniFB7C" unicode="&#x686;" horiz-adv-x="1438" arabic-form="initial" 
d="M1272 443q-153 -15 -596 -298q-226 -146 -655 -146h-31v203h19q411 0 600 106l324 182l-384 102q-83 22 -120 26q-93 9 -173 -79q-64 -70 -88 -57q-16 8 -6 36q74 186 120 232q58 57 150 59q76 2 283 -70q452 -158 633 -156zM751.49 -680.575
q-10.207 -10.207 -18.1465 -1.13379l-113.416 113.415q-7.93848 7.93945 -1.13379 14.7441l117.952 117.952q5.6709 4.53711 10.207 0l122.489 -122.488q2.26855 -2.26855 -1.13379 -5.6709zM898.931 -429.927q-9.07324 -10.207 -17.0127 -2.26855l-114.55 114.55
q-7.93848 7.93945 -1.13379 14.7441l119.086 117.952q4.53711 4.53711 9.07324 0l117.952 -117.952q6.80469 -6.80469 0 -13.6104zM602.916 -429.927q-10.207 -10.207 -17.0127 -2.26855l-114.55 114.55q-7.93848 7.93945 -1.13379 14.7441l119.086 117.952
q4.53711 4.53711 9.07324 0l122.489 -123.623q2.26855 -1.13379 0 -4.53613z" />
    <glyph glyph-name="uniFB7D" unicode="&#x686;" horiz-adv-x="1438" arabic-form="medial" 
d="M977 328q-109 -60 -301 -183q-226 -146 -655 -146h-31v203h19q411 0 600 106l324 182l-384 104q-74 20 -120 24q-94 8 -173 -79q-64 -70 -88 -57q-16 8 -6 36q68 180 120 232q58 57 150 59q76 2 283 -70q452 -158 633 -156l-76 -140q-100 -15 -215 -75q-1 -166 257 -166
h134v-203h-144q-310 0 -327 329zM664.49 -683.575q-10.207 -10.207 -18.1465 -1.13379l-113.416 113.415q-7.93848 7.93945 -1.13379 14.7441l117.952 117.952q5.6709 4.53711 10.207 0l122.489 -122.488q2.26855 -2.26855 -1.13379 -5.6709zM811.931 -432.927
q-9.07324 -10.207 -17.0127 -2.26855l-114.55 114.55q-7.93848 7.93945 -1.13379 14.7441l119.086 117.952q4.53711 4.53711 9.07324 0l117.952 -117.952q6.80469 -6.80469 0 -13.6104zM515.916 -432.927q-10.207 -10.207 -17.0127 -2.26855l-114.55 114.55
q-7.93848 7.93945 -1.13379 14.7441l119.086 117.952q4.53711 4.53711 9.07324 0l122.489 -123.623q2.26855 -1.13379 0 -4.53613z" />
    <glyph glyph-name="uniFB8A" unicode="&#x698;" horiz-adv-x="879" arabic-form="isolated" 
d="M494 436q56 102 115 205q85 -127 127 -262q79 -252 0.5 -484.5t-278.5 -396.5q-49 -40 -102 -40q-214 2 -350 62q-6 3 -5.5 6.5t48.5 21.5q603 229 637 540q10 96 -192 348zM535.49 1325.67l116.818 -116.818q3.40234 -3.40234 1.13379 -5.6709l-122.489 -122.488
q-5.66992 -4.53711 -10.207 0l-117.952 117.952q-6.80469 6.80469 1.13379 14.7432l113.416 113.416q7.93945 9.07324 18.1465 -1.13379zM682.931 1075.03l113.415 -113.416q6.80469 -6.80469 0 -13.6094l-117.952 -117.952q-4.53613 -4.53711 -10.207 0l-117.952 117.952
q-6.80469 6.80469 1.13379 14.7441l113.416 113.415q9.07324 9.07324 18.1465 -1.13379zM386.916 1075.03l116.818 -116.818q3.40234 -3.40234 -1.13477 -7.93848l-120.221 -120.221q-4.53613 -4.53711 -10.207 0l-117.952 117.952q-6.80469 6.80469 1.13379 14.7441
l113.416 113.415q9.07324 9.07324 18.1465 -1.13379z" />
    <glyph glyph-name="uniFB8B" unicode="&#x698;" horiz-adv-x="1003" arabic-form="final" 
d="M1002 -1q-137 0 -212 63q-56 -352 -326 -563q-51 -40 -95 -41q-199 -4 -361 65q-8 4 -8 5q1 3 19 8.5t34 12.5q605 234 641 539q7 62 -37 133t-93 132l109 174q56 -118 115 -229q52 -96 219 -96h8v-203h-13zM571.49 1240.67l116.818 -116.818
q3.40234 -3.40234 1.13379 -5.6709l-122.489 -122.488q-5.66992 -4.53711 -10.207 0l-117.952 117.952q-6.80469 6.80469 1.13379 14.7432l113.416 113.416q7.93945 9.07324 18.1465 -1.13379zM718.931 990.026l113.415 -113.416q6.80469 -6.80469 0 -13.6094
l-117.952 -117.952q-4.53613 -4.53711 -10.207 0l-117.952 117.952q-6.80469 6.80469 1.13379 14.7441l113.416 113.415q9.07324 9.07324 18.1465 -1.13379zM422.916 990.026l116.818 -116.818q3.40234 -3.40234 -1.13477 -7.93848l-120.221 -120.221
q-4.53613 -4.53711 -10.207 0l-117.952 117.952q-6.80469 6.80469 1.13379 14.7441l113.416 113.415q9.07324 9.07324 18.1465 -1.13379z" />
    <glyph glyph-name="uniFB8E" unicode="&#x6a9;" horiz-adv-x="1970" arabic-form="isolated" 
d="M794 -1q-381 -6 -533 77q-205 112 -156 414q18 106 65 181q20 32 39 28q29 -5 16 -55q-12 -45 -22 -121q-12 -89 24 -154q81 -147 425 -162q341 -15 628 29q240 36 291 147q-3 108 -186 293q-218 220 -327 268q-22 279 126 335l726 274q-28 -116 -79 -226l-673 -213
q503 -410 504 -675q0 -214 -193 -327q-180 -105 -675 -113z" />
    <glyph glyph-name="uniFB8F" unicode="&#x6a9;" horiz-adv-x="2207" arabic-form="final" 
d="M799 -1q-386 -6 -538 77q-205 112 -156 414q18 106 65 181q20 32 39 28q29 -5 16 -55q-12 -45 -22 -121q-12 -93 22 -154q77 -142 433 -162q338 -19 629 25q218 32 290 151q-3 108 -186 293q-218 220 -327 268q-22 279 126 335l726 274q-28 -116 -79 -226l-673 -213
q290 -233 498 -533q265 -379 536 -379h20v-203h-20q-286 0 -521 409l-9 15q-10 -163 -106 -258q-157 -156 -763 -166z" />
    <glyph glyph-name="uniFB90" unicode="&#x6a9;" horiz-adv-x="970" arabic-form="initial" 
d="M-11 202h102q355 0 480 130q8 146 -182 350q-193 207 -323 265l-3 73q0 213 125 260l721 274q-29 -109 -79 -223l-667 -215q511 -409 512 -711q1 -149 -74 -242q-132 -164 -510 -164h-102v203z" />
    <glyph glyph-name="uniFB91" unicode="&#x6a9;" horiz-adv-x="1250" arabic-form="medial" 
d="M1240 -1q-314 0 -573 399q-1 -140 -80 -241q-122 -158 -504 -158h-89v203h96q361 0 479 128q20 138 -186 364q-174 191 -316 254q-21 276 127 332l722 274q-26 -116 -79 -224l-669 -214q318 -255 503 -532q254 -382 568 -382h17v-203h-16z" />
    <glyph glyph-name="uniFB92" unicode="&#x6af;" horiz-adv-x="1970" arabic-form="isolated" 
d="M794 -1q-381 -6 -533 77q-205 112 -156 414q18 106 65 181q20 32 39 28q29 -5 16 -55q-12 -45 -22 -121q-12 -89 24 -154q81 -147 425 -162q341 -15 628 29q240 36 291 147q-3 108 -186 293q-218 220 -327 268q-22 279 126 335l726 274q-28 -116 -79 -226l-673 -213
q503 -410 504 -675q0 -214 -193 -327q-180 -105 -675 -113zM1910.51 1846.32q-23.8164 -91.8662 -62.3779 -157.646l-699.774 -274.466l41.9639 138.366z" />
    <glyph glyph-name="uniFB93" unicode="&#x6af;" horiz-adv-x="2207" arabic-form="final" 
d="M799 -1q-386 -6 -538 77q-205 112 -156 414q18 106 65 181q20 32 39 28q29 -5 16 -55q-12 -45 -22 -121q-12 -93 22 -154q77 -142 433 -162q338 -19 629 25q218 32 290 151q-3 108 -186 293q-218 220 -327 268q-22 279 126 335l726 274q-28 -116 -79 -226l-673 -213
q290 -233 498 -533q265 -379 536 -379h20v-203h-20q-286 0 -521 409l-9 15q-10 -163 -106 -258q-157 -156 -763 -166zM1910.51 1844.32q-23.8164 -91.8662 -62.3779 -157.646l-699.774 -274.466l41.9639 138.366z" />
    <glyph glyph-name="uniFB94" unicode="&#x6af;" horiz-adv-x="970" arabic-form="initial" 
d="M-11 202h102q355 0 480 130q8 146 -182 350q-193 207 -323 265l-3 73q0 213 125 260l721 274q-29 -109 -79 -223l-667 -215q511 -409 512 -711q1 -149 -74 -242q-132 -164 -510 -164h-102v203zM904.506 1847.32q-23.8164 -91.8662 -62.3779 -157.646l-699.774 -274.466
l41.9639 138.366z" />
    <glyph glyph-name="uniFB95" unicode="&#x6af;" horiz-adv-x="1213" arabic-form="medial" 
d="M1240 -1q-314 0 -573 399q-1 -140 -80 -241q-122 -158 -504 -158h-89v203h96q361 0 479 128q20 138 -186 364q-174 191 -316 254q-21 276 127 332l722 274q-26 -116 -79 -224l-669 -214q318 -255 503 -532q254 -382 568 -382h17v-203h-16zM911.506 1846.32
q-23.8164 -91.8662 -62.3779 -157.646l-699.774 -274.466l41.9639 138.366z" />
    <glyph glyph-name="uniFB9E" unicode="&#x6ba;" horiz-adv-x="1456" arabic-form="isolated" 
d="M1262 604q61 -157 82 -303.5t18 -190.5q-39 -580 -719 -580q-285 0 -423.5 144t-103.5 387q15 111 88 236q44 75 72 67q26 -9 12 -37l-24 -61q-80 -201 -13 -339q97 -201 416 -192q487 13 574 236q-12 247 -103 484z" />
    <glyph glyph-name="uniFB9F" unicode="&#x6ba;" horiz-adv-x="1541" arabic-form="final" 
d="M1333 85q9 -99 -1 -179q-58 -502 -701 -502q-285 0 -423 144t-104 387q16 111 88 236q44 75 72 67q26 -9 13 -37l-24 -61q-80 -201 -14 -339q98 -201 416 -192q488 13 574 236q-11 247 -103 484l125 149q56 -174 84 -209q52 -67 170 -67h48v-203h-40q-144 0 -180 86z" />
    <glyph glyph-name="uniFBA5.fina" unicode="&#x6c0;" horiz-adv-x="1052" arabic-form="final" 
d="M367.148 1103.13l51.4492 128.099q75.5996 35.6992 113.398 49.3496q-149.098 15.75 -133.349 139.648q28.3506 209.998 196.349 208.947q93.4482 0 129.148 -128.099q-184.798 54.5996 -243.598 -36.749q-21 -33.5996 -8.9248 -60.375
q12.0752 -26.7744 27.8242 -38.3242q59.8496 -45.1494 187.948 -15.75q25.1992 6.30078 58.7988 13.6504l-32.5488 -114.449q-71.3994 -19.9492 -346.496 -145.948zM206 459q56 -119 414 -110l82 2l-64 296q-264 -38 -432 -188zM1042 -1q-241 0 -324 277l-166 -110
q-62 -4 -131 4q-300 34 -316 134q-5 32 34 195q39 164 475 292l-22 112l109 134l105 -564q51 -271 236 -271h22v-203h-22z" />
    <glyph glyph-name="uniFBAC" unicode="&#x6be;" horiz-adv-x="1220" arabic-form="initial" 
d="M601 264q181 -87 326 -107q65 86 55 206.5t-223 255.5q24 -215 -158 -355zM439 144q-283 -145 -419 -145h-21v204h28q175 0 285 27q-98 39 -131 135q-29 81 5 184q60 179 278 280l-132 74l88 164l332 -209q365 -230 363 -519q-1 -67 -32 -128q-87 -171 -172 -178
q-227 -17 -472 111zM482 322q109 70 160 209q52 141 -43 177q-123 48 -235 -80q-85 -100 -71 -165q9 -44 69 -82q73 -46 120 -59z" />
    <glyph glyph-name="uniFBAD" unicode="&#x6be;" horiz-adv-x="1042" arabic-form="medial" 
d="M313 202q348 5 344 171q-4 114 -132 269q-48 58 -58 58q-130 -229 -154 -498zM222 198q63 505 274 710q83 -46 153 -154q107 -163 101 -317q-8 -198 -142 -315q-81 -72 -271 -124q47 -246 240 -423q28 427 326 588q67 36 135 38h14v-202q-113 -6 -190 -40
q-264 -116 -112 -529l-128 -111q-334 247 -383 679l-249 1v202z" />
    <glyph glyph-name="uniFBE8" unicode="&#x649;" horiz-adv-x="634" arabic-form="initial" 
d="M411 279q-9 147 -124 282l125 205q107 -163 119 -346t-68 -302q-79 -119 -394 -119h-80v203l92 1q246 -5 330 76z" />
    <glyph glyph-name="uniFBE9" unicode="&#x649;" horiz-adv-x="721" arabic-form="medial" 
d="M363 473q5 69 49 68q45 -1 49 -61l6 -92q13 -186 252 -186h13v-203h-23q-217 0 -285 153q-81 -153 -425 -153h-9v203h44q310 0 323 184z" />
    <glyph glyph-name="uniFBFC" unicode="&#x6cc;" horiz-adv-x="1472" arabic-form="isolated" 
d="M1350 -107q-131 -383 -712 -380q-286 -1 -423.5 142.5t-103.5 387.5q15 111 88 236q44 77 72 67q25 -9 13 -37l-25 -60q-80 -202 -13 -340q93 -191 416 -192q544 0 612 237q5 15 -28.5 20.5t-192 5.5t-215.5 47q-115 96 -36.5 360.5t255.5 350.5q47 23 96 29
q157 17 213 -177q12 -43 -4 -47q-3 -1 -9 1l-48 15q-223 71 -352 -91q-75 -95 -83 -200q-6 -103 235 -101h28q150 1 186 -23q96 -61 31 -251z" />
    <glyph glyph-name="uniFBFD" unicode="&#x6cc;" horiz-adv-x="1534" arabic-form="final" 
d="M1412 -276q-109 -388 -728 -387q-340 1 -475 140q-133 139 -103 357q17 125 104 274q45 77 71.5 67.5t13.5 -37.5l-24 -60q-98 -244 -30 -378q82 -161 467 -160q509 1 604 191q17 34 -47 35q-257 3 -319 36q-111 60 -26 224q47 93 130 136q76 40 380 40h114v-208h-54
q-132 0 -275 32q-197 42 -222 -66q-5 -23 22 -27q96 -12 193 -19q251 -20 204 -190z" />
    <glyph glyph-name="uniFBFE" unicode="&#x6cc;" horiz-adv-x="661" arabic-form="initial" 
d="M411 279q-9 147 -124 282l125 205q107 -163 119 -346t-68 -302q-79 -119 -394 -119h-80v203l92 1q246 -5 330 76zM451.735 -245.022l116.818 -117.952q6.80469 -6.80469 1.13379 -12.4756l-122.488 -122.489q-9.07422 -9.07324 -18.1465 0l-117.953 117.952
q-11.3408 10.208 0 21.5498l114.55 114.549q12.4756 12.4766 26.0859 -1.13379zM155.721 -245.022l116.818 -117.952q6.80469 -6.80469 1.13379 -12.4756l-122.488 -122.489q-9.07324 -9.07324 -18.1465 0l-117.952 117.952q-11.3418 10.208 0 21.5498l114.549 114.549
q12.4766 12.4766 26.0859 -1.13379z" />
    <glyph glyph-name="uniFBFF" unicode="&#x6cc;" horiz-adv-x="721" arabic-form="medial" 
d="M363 473q5 69 49 68q45 -1 49 -61l6 -92q13 -186 252 -186h13v-203h-23q-217 0 -285 153q-81 -153 -425 -153h-9v203h44q310 0 323 184zM482.735 -244.022l116.818 -117.952q6.80469 -6.80469 1.13379 -12.4756l-122.488 -122.489q-9.07422 -9.07324 -18.1465 0
l-117.953 117.952q-11.3408 10.208 0 21.5498l114.55 114.549q12.4756 12.4766 26.0859 -1.13379zM186.721 -244.022l116.818 -117.952q6.80469 -6.80469 1.13379 -12.4756l-122.488 -122.489q-9.07324 -9.07324 -18.1465 0l-117.952 117.952q-11.3418 10.208 0 21.5498
l114.549 114.549q12.4766 12.4766 26.0859 -1.13379z" />
    <glyph glyph-name="uniFE71" unicode="&#xfe71;" horiz-adv-x="687" arabic-form="medial" 
d="M-10 -1v203h920v-203h-920zM23 917v88l425 174v-89zM23 1153v88l425 174v-88z" />
    <glyph glyph-name="uniFE77" unicode="&#xfe77;" horiz-adv-x="687" arabic-form="medial" 
d="M-26 1064v92l403 165v-92zM-10 -1v203h920v-203h-920z" />
    <glyph glyph-name="uniFE79" unicode="&#xfe79;" horiz-adv-x="687" arabic-form="medial" 
d="M415 1171q-45 1 -105 7q-43 -59 -102 -96q-95 -59 -202 -63v71q105 4 167 56q28 23 40 36l17 18l-24 5q-6 1 -37 18q-30 15 -53 46q-22 31 -22 68q0 73 56 116q22 17 78 16q56 1 95 -38q39 -37 39 -103q0 -27 -12 -65l-6 -18l19 -1q30 -2 52 -2v-71zM271 1257l11 25
q9 21 9 52t-20 47.5t-44 16.5t-42 -13.5t-18 -51t49 -57.5q19 -8 55 -19zM-10 -1v203h920v-203h-920z" />
    <glyph glyph-name="uniFE7B" unicode="&#xfe7b;" horiz-adv-x="687" arabic-form="medial" 
d="M11 -282v92l403 164v-91zM-10 -1v203h920v-203h-920z" />
    <glyph glyph-name="uniFE7D" unicode="&#xfe7d;" horiz-adv-x="687" arabic-form="medial" 
d="M219 1226q-24 -132 -140 -132t-116 148q0 30 12 113h60q-10 -72 -10 -94q0 -91 64 -91q88 0 92 116q2 32 2 69.5t-1 44.5h60q1 -29 2 -67q-1 -113 97 -113h1q59 1 59 96q1 84 -9 134h64q9 -64 9 -139q0 -122 -67 -151q-27 -11 -52 -12q-57 -2 -87 19q-36 27 -40 59z
M-10 -1v203h920v-203h-920z" />
    <glyph glyph-name="uniFE7F" unicode="&#xfe7f;" horiz-adv-x="687" arabic-form="medial" 
d="M-10 -1v203h920v-203h-920zM464 1457q0 49 -34 83t-83 34q-50 0 -84 -34t-34 -83q0 -50 34 -83.5t84 -33.5q49 0 83 34t34 83zM536 1457.5q0 -79.5 -54.5 -135t-134.5 -55.5q-26 0 -50 6.5t-45 18.5t-39 30q-28 28 -41.5 61.5t-13.5 73.5q0 80 55 134.5t134.5 54.5
t134 -54.5t54.5 -134z" />
    <glyph glyph-name="uniFE80" unicode="&#x621;" horiz-adv-x="858" arabic-form="isolated" 
d="M87 -55l86 212q158 76 225 98l25 8l-26 2q-218 15 -255 154q-11 43 -4 97q50 383 344 380q172 -2 233 -206l3 -10q-274 79 -369.5 0.5t-98.5 -153.5q-5 -118 139 -158q87 -24 182 -11t225 53l-90 -205q-124 -34 -291.5 -111.5t-327.5 -149.5z" />
    <glyph glyph-name="uniFE81" unicode="&#x622;" horiz-adv-x="580" arabic-form="isolated" 
d="M389.73 1406.92q33.0469 -455.428 6.19629 -1102.28q-12.3926 -303.014 -114.632 -318.437q-23.752 923.557 -38.21 1124.05q-10.3271 162.394 -22.7197 211.384zM196.022 1594.79q-97.9414 6.67773 -172.511 -69.0049q-18.9209 -18.9199 -31.7207 -16.6943
q-12.7988 2.22559 -13.3555 18.3643t3.89551 26.1553q20.0342 89.0381 67.8916 138.565q47.8584 49.5273 94.6035 51.1963q46.7441 1.66992 172.511 -13.9121q125.767 -15.5811 254.872 12.2432q33.3887 7.79102 47.8574 1.66895q14.4688 -6.12109 -20.0332 -47.3008
q-69.0049 -84.5869 -133.558 -102.395q-46.7451 -13.3555 -270.453 1.11328z" />
    <glyph glyph-name="uniFE82" unicode="&#x622;" horiz-adv-x="558" arabic-form="final" 
d="M310 1554q10 -190 10 -422.5t-9 -514t48 -348.5q56 -67 195 -67h12v-203h-13q-187 0 -269 98q-105 126 -101 374q12 783 -36 983zM137.022 1687.79q-97.9414 6.67773 -172.511 -69.0049q-18.9209 -18.9199 -31.7207 -16.6943q-12.7988 2.22559 -13.3555 18.3643
t3.89551 26.1553q20.0342 89.0381 67.8916 138.565q47.8584 49.5273 94.6035 51.1963q46.7441 1.66992 172.511 -13.9121q125.767 -15.5811 254.872 12.2432q33.3887 7.79102 47.8574 1.66895q14.4688 -6.12109 -20.0332 -47.3008q-69.0049 -84.5869 -133.558 -102.395
q-46.7451 -13.3555 -270.453 1.11328z" />
    <glyph glyph-name="uniFE83" unicode="&#x623;" horiz-adv-x="473" arabic-form="isolated" 
d="M31.9141 1532.39l54.5361 135.783q80.1338 37.8408 120.201 52.3096q-158.043 16.6953 -141.348 148.026q30.0498 222.595 208.126 221.482q99.0547 0 136.896 -135.783q-195.884 57.874 -258.211 -38.9541q-22.2588 -35.6152 -9.45996 -63.9961t29.4941 -40.624
q63.4395 -47.8584 199.223 -16.6943q26.7109 6.67773 62.3262 14.4688l-34.502 -121.314q-75.6826 -21.1465 -367.282 -154.704zM328 1553q32 -502 6 -1215q-12 -334 -111 -351q-23 1018 -37 1239q-10 179 -22 233z" />
    <glyph glyph-name="uniFE84" unicode="&#x623;" horiz-adv-x="558" arabic-form="final" 
d="M310 1554q10 -190 10 -422.5t-9 -514t48 -348.5q56 -67 195 -67h12v-203h-13q-187 0 -269 98q-105 126 -101 374q12 783 -36 983zM6.91406 1565.39l54.5361 135.783q80.1338 37.8408 120.201 52.3096q-158.043 16.6953 -141.348 148.026q30.0498 222.595 208.126 221.482
q99.0547 0 136.896 -135.783q-195.884 57.874 -258.211 -38.9541q-22.2588 -35.6152 -9.45996 -63.9961t29.4941 -40.624q63.4395 -47.8584 199.223 -16.6943q26.7109 6.67773 62.3262 14.4688l-34.502 -121.314q-75.6826 -21.1465 -367.282 -154.704z" />
    <glyph glyph-name="uniFE85" unicode="&#x624;" horiz-adv-x="924" arabic-form="isolated" 
d="M268.914 806.388l54.5361 135.783q80.1338 37.8408 120.201 52.3096q-158.043 16.6953 -141.348 148.026q30.0498 222.595 208.126 221.482q99.0547 0 136.896 -135.783q-195.884 57.874 -258.211 -38.9541q-22.2588 -35.6152 -9.45996 -63.9961t29.4941 -40.624
q63.4395 -47.8584 199.223 -16.6943q26.7109 6.67773 62.3262 14.4688l-34.502 -121.314q-75.6826 -21.1465 -367.282 -154.704zM512 694q117 0 194 -135q79 -141 95 -286q17 -165 -5 -274q-60 -299 -306 -502q-45 -38 -112 -39q-220 -3 -338 59q-6 3 -7 4q5 8 49 25
q524 208 613 453l-157 -2q-225 3 -300 99q-54 69 -26 239q31 189 136 288q75 70 164 71zM682 305q-46 186 -193 186q-127 1 -172 -119q-21 -55 -20 -128q125 -82 395 -44q1 62 -10 105z" />
    <glyph glyph-name="uniFE86" unicode="&#x624;" horiz-adv-x="909" arabic-form="final" 
d="M692 -1l-158 2q-242 -1 -305 81q-62 79 -33 245q32 182 149 293q75 70 164 71q115 0 192 -131q77 -132 94 -358h125v-203h-127q-63 -314 -306 -503q-48 -38 -113 -39q-187 -3 -334 59q-17 7 42 29q522 200 610 454zM679 286q-48 202 -193 202q-129 1 -178 -132
q-18 -47 -17 -100q32 -63 398 -53q1 36 -10 83zM289.914 788.388l54.5361 135.783q80.1338 37.8408 120.201 52.3096q-158.043 16.6953 -141.348 148.026q30.0498 222.595 208.126 221.482q99.0547 0 136.896 -135.783q-195.884 57.874 -258.211 -38.9541
q-22.2588 -35.6152 -9.45996 -63.9961t29.4941 -40.624q63.4395 -47.8584 199.223 -16.6943q26.7109 6.67773 62.3262 14.4688l-34.502 -121.314q-75.6826 -21.1465 -367.282 -154.704z" />
    <glyph glyph-name="uniFE87" unicode="&#x625;" horiz-adv-x="473" arabic-form="isolated" 
d="M-0.0859375 -615.923l54.5361 135.783q80.1338 37.8408 120.201 52.3096q-158.043 16.6943 -141.348 148.025q30.0498 222.596 208.126 221.482q99.0547 0 136.896 -135.783q-195.884 57.875 -258.211 -38.9541q-22.2588 -35.6152 -9.45996 -63.9961t29.4941 -40.623
q63.4395 -47.8584 199.223 -16.6953q26.7109 6.67773 62.3262 14.4688l-34.502 -121.314q-75.6826 -21.1465 -367.282 -154.703zM328 1553q32 -502 6 -1215q-12 -334 -111 -351q-23 1018 -37 1239q-10 179 -22 233z" />
    <glyph glyph-name="uniFE88" unicode="&#x625;" horiz-adv-x="558" arabic-form="final" 
d="M310 1554q10 -190 10 -422.5t-9 -514t48 -348.5q56 -67 195 -67h12v-203h-13q-187 0 -269 98q-105 126 -101 374q12 783 -36 983zM34.9141 -636.923l54.5361 135.783q80.1338 37.8408 120.201 52.3096q-158.043 16.6943 -141.348 148.025
q30.0498 222.596 208.126 221.482q99.0547 0 136.896 -135.783q-195.884 57.875 -258.211 -38.9541q-22.2588 -35.6152 -9.45996 -63.9961t29.4941 -40.623q63.4395 -47.8584 199.223 -16.6953q26.7109 6.67773 62.3262 14.4688l-34.502 -121.314
q-75.6826 -21.1465 -367.282 -154.703z" />
    <glyph glyph-name="uniFE89" unicode="&#x626;" horiz-adv-x="1472" arabic-form="isolated" 
d="M301.914 603.388l54.5361 135.783q80.1338 37.8408 120.201 52.3096q-158.043 16.6953 -141.348 148.026q30.0498 222.595 208.126 221.482q99.0547 0 136.896 -135.783q-195.884 57.874 -258.211 -38.9541q-22.2588 -35.6152 -9.45996 -63.9961t29.4941 -40.624
q63.4395 -47.8584 199.223 -16.6943q26.7109 6.67773 62.3262 14.4688l-34.502 -121.314q-75.6826 -21.1465 -367.282 -154.704zM1350 -107q-131 -383 -712 -380q-286 -1 -423.5 142.5t-103.5 387.5q15 111 88 236q44 77 72 67q25 -9 13 -37l-25 -60q-80 -202 -13 -340
q93 -191 416 -192q544 0 612 237q5 15 -28.5 20.5t-192 5.5t-215.5 47q-115 96 -36.5 360.5t255.5 350.5q47 23 96 29q157 17 213 -177q12 -43 -4 -47q-3 -1 -9 1l-48 15q-223 71 -352 -91q-75 -95 -83 -200q-6 -103 235 -101h28q150 1 186 -23q96 -61 31 -251z" />
    <glyph glyph-name="uniFE8A" unicode="&#x626;" horiz-adv-x="1534" arabic-form="final" 
d="M1412 -276q-109 -388 -728 -387q-340 1 -475 140q-133 139 -103 357q17 125 104 274q45 77 71.5 67.5t13.5 -37.5l-24 -60q-98 -244 -30 -378q82 -161 467 -160q509 1 604 191q17 34 -47 35q-257 3 -319 36q-111 60 -26 224q47 93 130 136q76 40 380 40h114v-208h-54
q-132 0 -275 32q-197 42 -222 -66q-5 -23 22 -27q96 -12 193 -19q251 -20 204 -190zM447.914 283.388l54.5361 135.783q80.1338 37.8408 120.201 52.3096q-158.043 16.6953 -141.348 148.026q30.0498 222.595 208.126 221.482q99.0547 0 136.896 -135.783
q-195.884 57.874 -258.211 -38.9541q-22.2588 -35.6152 -9.45996 -63.9961t29.4941 -40.624q63.4395 -47.8584 199.223 -16.6943q26.7109 6.67773 62.3262 14.4688l-34.502 -121.314q-75.6826 -21.1465 -367.282 -154.704z" />
    <glyph glyph-name="uniFE8B" unicode="&#x626;" horiz-adv-x="616" arabic-form="initial" 
d="M411 279q-9 147 -124 282l125 205q107 -163 119 -346t-68 -302q-79 -119 -394 -119h-80v203l92 1q246 -5 330 76zM41.9141 813.388l54.5361 135.783q80.1338 37.8408 120.201 52.3096q-158.043 16.6953 -141.348 148.026q30.0498 222.595 208.126 221.482
q99.0547 0 136.896 -135.783q-195.884 57.874 -258.211 -38.9541q-22.2588 -35.6152 -9.45996 -63.9961t29.4941 -40.624q63.4395 -47.8584 199.223 -16.6943q26.7109 6.67773 62.3262 14.4688l-34.502 -121.314q-75.6826 -21.1465 -367.282 -154.704z" />
    <glyph glyph-name="uniFE8C" unicode="&#x626;" horiz-adv-x="721" arabic-form="medial" 
d="M363 473q5 69 49 68q45 -1 49 -61l6 -92q13 -186 252 -186h13v-203h-23q-217 0 -285 153q-81 -153 -425 -153h-9v203h44q310 0 323 184zM110.914 604.388l54.5361 135.783q80.1338 37.8408 120.201 52.3096q-158.043 16.6953 -141.348 148.026
q30.0498 222.595 208.126 221.482q99.0547 0 136.896 -135.783q-195.884 57.874 -258.211 -38.9541q-22.2588 -35.6152 -9.45996 -63.9961t29.4941 -40.624q63.4395 -47.8584 199.223 -16.6943q26.7109 6.67773 62.3262 14.4688l-34.502 -121.314
q-75.6826 -21.1465 -367.282 -154.704z" />
    <glyph glyph-name="uniFE8D" unicode="&#x627;" horiz-adv-x="473" arabic-form="isolated" 
d="M328 1553q32 -502 6 -1215q-12 -334 -111 -351q-23 1018 -37 1239q-10 179 -22 233z" />
    <glyph glyph-name="uniFE8E" unicode="&#x627;" horiz-adv-x="555" arabic-form="final" 
d="M310 1554q10 -190 10 -422.5t-9 -514t48 -348.5q56 -67 195 -67h12v-203h-13q-187 0 -269 98q-105 126 -101 374q12 783 -36 983z" />
    <glyph glyph-name="uniFE8F" unicode="&#x628;" horiz-adv-x="1816" arabic-form="isolated" 
d="M790 -1q-377 -6 -529 77q-205 112 -156 414q18 106 65 181q20 32 39 28q28 -5 15 -55q-14 -52 -23 -121q-12 -88 25 -154q82 -146 420 -162q741 -35 943 125q-6 99 -46 168q-40 70 -77 114l125 205q94 -143 119 -358q32 -261 -234 -359q-180 -66 -502 -95q-79 -7 -184 -8
zM918.159 -247.218l117.952 -116.817q10.208 -11.3418 0 -21.5488l-122.488 -122.489q-12.4756 -12.4756 -26.0859 0l-117.952 117.952q-14.7441 14.7441 1.13477 30.6221l113.415 113.416q17.0127 17.0117 34.0244 -1.13477z" />
    <glyph glyph-name="uniFE90" unicode="&#x628;" horiz-adv-x="1930" arabic-form="final" 
d="M918 202q299 1 570 108q127 50 215 176q30 42 56 37q30 -5 16 -67q-55 -254 129 -254h36v-203h-30q-217 -1 -248 225l-3 24q-81 -83 -280 -161q-209 -82 -589 -88q-377 -6 -529 77q-205 112 -156 414q18 106 65 181q20 32 39 28q28 -5 15 -55q-14 -52 -23 -121
q-12 -88 25 -154q83 -147 420 -162q119 -5 272 -5zM948.159 -240.218l117.952 -116.817q10.208 -11.3418 0 -21.5488l-122.488 -122.489q-12.4756 -12.4756 -26.0859 0l-117.952 117.952q-14.7441 14.7441 1.13477 30.6221l113.415 113.416
q17.0127 17.0117 34.0244 -1.13477z" />
    <glyph glyph-name="uniFE91" unicode="&#x628;" horiz-adv-x="634" arabic-form="initial" 
d="M411 279q-9 147 -124 282l125 205q107 -163 119 -346t-68 -302q-79 -119 -394 -119h-80v203l92 1q246 -5 330 76zM240.159 -240.218l117.952 -116.817q10.208 -11.3418 0 -21.5488l-122.488 -122.489q-12.4756 -12.4756 -26.0859 0l-117.952 117.952
q-14.7441 14.7441 1.13477 30.6221l113.415 113.416q17.0127 17.0117 34.0244 -1.13477z" />
    <glyph glyph-name="uniFE92" unicode="&#x628;" horiz-adv-x="721" arabic-form="medial" 
d="M363 473q5 69 49 68q45 -1 49 -61l6 -92q13 -186 252 -186h13v-203h-23q-217 0 -285 153q-81 -153 -425 -153h-9v203h44q310 0 323 184zM249.159 -235.218l117.952 -116.817q10.208 -11.3418 0 -21.5488l-122.488 -122.489q-12.4756 -12.4756 -26.0859 0
l-117.952 117.952q-14.7441 14.7441 1.13477 30.6221l113.415 113.416q17.0127 17.0117 34.0244 -1.13477z" />
    <glyph glyph-name="uniFE93" unicode="&#x629;" horiz-adv-x="864" arabic-form="isolated" 
d="M413 670q-210 -239 -210 -335q-1 -154 249 -152q170 1 233 120q-18 152 -272 367zM143 135q-38 64 -39 162q-2 166 245 455l-46 35l92 167q269 -239 350 -519q70 -245 -92 -373q-76 -61 -220 -61q-210 0 -290 134zM581.735 1417.98l116.818 -117.952
q6.80469 -6.80469 1.13379 -12.4756l-122.488 -122.489q-9.07422 -9.07324 -18.1465 0l-117.953 117.952q-11.3408 10.208 0 21.5498l114.55 114.549q12.4756 12.4766 26.0859 -1.13379zM285.721 1417.98l116.818 -117.952q6.80469 -6.80469 1.13379 -12.4756
l-122.488 -122.489q-9.07324 -9.07324 -18.1465 0l-117.952 117.952q-11.3418 10.208 0 21.5498l114.549 114.549q12.4766 12.4766 26.0859 -1.13379z" />
    <glyph glyph-name="uniFE94" unicode="&#x629;" horiz-adv-x="1052" arabic-form="final" 
d="M206 459q56 -119 414 -110l82 2l-64 296q-264 -38 -432 -188zM1042 -1q-241 0 -324 277l-166 -110q-62 -4 -131 4q-300 34 -316 134q-5 32 34 195q39 164 475 292l-22 112l109 134l105 -564q51 -271 236 -271h22v-203h-22zM714.735 1450.98l116.818 -117.952
q6.80469 -6.80469 1.13379 -12.4756l-122.488 -122.489q-9.07422 -9.07324 -18.1465 0l-117.953 117.952q-11.3408 10.208 0 21.5498l114.55 114.549q12.4756 12.4766 26.0859 -1.13379zM418.721 1450.98l116.818 -117.952q6.80469 -6.80469 1.13379 -12.4756
l-122.488 -122.489q-9.07324 -9.07324 -18.1465 0l-117.952 117.952q-11.3418 10.208 0 21.5498l114.549 114.549q12.4766 12.4766 26.0859 -1.13379z" />
    <glyph glyph-name="uniFE95" unicode="&#x62a;" horiz-adv-x="1816" arabic-form="isolated" 
d="M790 -1q-377 -6 -529 77q-205 112 -156 414q18 106 65 181q20 32 39 28q28 -5 15 -55q-14 -52 -23 -121q-12 -88 25 -154q82 -146 420 -162q741 -35 943 125q-6 99 -46 168q-40 70 -77 114l125 205q94 -143 119 -358q32 -261 -234 -359q-180 -66 -502 -95q-79 -7 -184 -8
zM1057.74 1127.98l116.818 -117.952q6.80469 -6.80469 1.13379 -12.4756l-122.488 -122.489q-9.07422 -9.07324 -18.1465 0l-117.953 117.952q-11.3408 10.208 0 21.5498l114.55 114.549q12.4756 12.4766 26.0859 -1.13379zM761.721 1127.98l116.818 -117.952
q6.80469 -6.80469 1.13379 -12.4756l-122.488 -122.489q-9.07324 -9.07324 -18.1465 0l-117.952 117.952q-11.3418 10.208 0 21.5498l114.549 114.549q12.4766 12.4766 26.0859 -1.13379z" />
    <glyph glyph-name="uniFE96" unicode="&#x62a;" horiz-adv-x="1930" arabic-form="final" 
d="M918 202q299 1 570 108q127 50 215 176q30 42 56 37q30 -5 16 -67q-55 -254 129 -254h36v-203h-30q-217 -1 -248 225l-3 24q-81 -83 -280 -161q-209 -82 -589 -88q-377 -6 -529 77q-205 112 -156 414q18 106 65 181q20 32 39 28q28 -5 15 -55q-14 -52 -23 -121
q-12 -88 25 -154q83 -147 420 -162q119 -5 272 -5zM1074.74 1081.98l116.818 -117.952q6.80469 -6.80469 1.13379 -12.4756l-122.488 -122.489q-9.07422 -9.07324 -18.1465 0l-117.953 117.952q-11.3408 10.208 0 21.5498l114.55 114.549q12.4756 12.4766 26.0859 -1.13379z
M778.721 1081.98l116.818 -117.952q6.80469 -6.80469 1.13379 -12.4756l-122.488 -122.489q-9.07324 -9.07324 -18.1465 0l-117.952 117.952q-11.3418 10.208 0 21.5498l114.549 114.549q12.4766 12.4766 26.0859 -1.13379z" />
    <glyph glyph-name="uniFE97" unicode="&#x62a;" horiz-adv-x="663" arabic-form="initial" 
d="M411 279q-9 147 -124 282l125 205q107 -163 119 -346t-68 -302q-79 -119 -394 -119h-80v203l92 1q246 -5 330 76zM453.735 1275.98l116.818 -117.952q6.80469 -6.80469 1.13379 -12.4756l-122.488 -122.489q-9.07422 -9.07324 -18.1465 0l-117.953 117.952
q-11.3408 10.208 0 21.5498l114.55 114.549q12.4756 12.4766 26.0859 -1.13379zM157.721 1275.98l116.818 -117.952q6.80469 -6.80469 1.13379 -12.4756l-122.488 -122.489q-9.07324 -9.07324 -18.1465 0l-117.952 117.952q-11.3418 10.208 0 21.5498l114.549 114.549
q12.4766 12.4766 26.0859 -1.13379z" />
    <glyph glyph-name="uniFE98" unicode="&#x62a;" horiz-adv-x="721" arabic-form="medial" 
d="M363 473q5 69 49 68q45 -1 49 -61l6 -92q13 -186 252 -186h13v-203h-23q-217 0 -285 153q-81 -153 -425 -153h-9v203h44q310 0 323 184zM461.735 1111.98l116.818 -117.952q6.80469 -6.80469 1.13379 -12.4756l-122.488 -122.489q-9.07422 -9.07324 -18.1465 0
l-117.953 117.952q-11.3408 10.208 0 21.5498l114.55 114.549q12.4756 12.4766 26.0859 -1.13379zM165.721 1111.98l116.818 -117.952q6.80469 -6.80469 1.13379 -12.4756l-122.488 -122.489q-9.07324 -9.07324 -18.1465 0l-117.952 117.952q-11.3418 10.208 0 21.5498
l114.549 114.549q12.4766 12.4766 26.0859 -1.13379z" />
    <glyph glyph-name="uniFE99" unicode="&#x62b;" horiz-adv-x="1816" arabic-form="isolated" 
d="M790 -1q-377 -6 -529 77q-205 112 -156 414q18 106 65 181q20 32 39 28q28 -5 15 -55q-14 -52 -23 -121q-12 -88 25 -154q82 -146 420 -162q741 -35 943 125q-6 99 -46 168q-40 70 -77 114l125 205q94 -143 119 -358q32 -261 -234 -359q-180 -66 -502 -95q-79 -7 -184 -8
zM896.49 1254.67l116.818 -116.818q3.40234 -3.40234 1.13379 -5.6709l-122.489 -122.488q-5.66992 -4.53711 -10.207 0l-117.952 117.952q-6.80469 6.80469 1.13379 14.7432l113.416 113.416q7.93945 9.07324 18.1465 -1.13379zM1043.93 1004.03l113.415 -113.416
q6.80469 -6.80469 0 -13.6094l-117.952 -117.952q-4.53613 -4.53711 -10.207 0l-117.952 117.952q-6.80469 6.80469 1.13379 14.7441l113.416 113.415q9.07324 9.07324 18.1465 -1.13379zM747.916 1004.03l116.818 -116.818q3.40234 -3.40234 -1.13477 -7.93848
l-120.221 -120.221q-4.53613 -4.53711 -10.207 0l-117.952 117.952q-6.80469 6.80469 1.13379 14.7441l113.416 113.415q9.07324 9.07324 18.1465 -1.13379z" />
    <glyph glyph-name="uniFE9A" unicode="&#x62b;" horiz-adv-x="1930" arabic-form="final" 
d="M918 202q299 1 570 108q127 50 215 176q30 42 56 37q30 -5 16 -67q-55 -254 129 -254h36v-203h-30q-217 -1 -248 225l-3 24q-81 -83 -280 -161q-209 -82 -589 -88q-377 -6 -529 77q-205 112 -156 414q18 106 65 181q20 32 39 28q28 -5 15 -55q-14 -52 -23 -121
q-12 -88 25 -154q83 -147 420 -162q119 -5 272 -5zM984.49 1201.67l116.818 -116.818q3.40234 -3.40234 1.13379 -5.6709l-122.489 -122.488q-5.66992 -4.53711 -10.207 0l-117.952 117.952q-6.80469 6.80469 1.13379 14.7432l113.416 113.416
q7.93945 9.07324 18.1465 -1.13379zM1131.93 951.026l113.415 -113.416q6.80469 -6.80469 0 -13.6094l-117.952 -117.952q-4.53613 -4.53711 -10.207 0l-117.952 117.952q-6.80469 6.80469 1.13379 14.7441l113.416 113.415q9.07324 9.07324 18.1465 -1.13379z
M835.916 951.026l116.818 -116.818q3.40234 -3.40234 -1.13477 -7.93848l-120.221 -120.221q-4.53613 -4.53711 -10.207 0l-117.952 117.952q-6.80469 6.80469 1.13379 14.7441l113.416 113.415q9.07324 9.07324 18.1465 -1.13379z" />
    <glyph glyph-name="uniFE9B" unicode="&#x62b;" horiz-adv-x="661" arabic-form="initial" 
d="M411 279q-9 147 -124 282l125 205q107 -163 119 -346t-68 -302q-79 -119 -394 -119h-80v203l92 1q246 -5 330 76zM300.49 1463.67l116.818 -116.818q3.40234 -3.40234 1.13379 -5.6709l-122.489 -122.488q-5.66992 -4.53711 -10.207 0l-117.952 117.952
q-6.80469 6.80469 1.13379 14.7432l113.416 113.416q7.93945 9.07324 18.1465 -1.13379zM447.931 1213.03l113.415 -113.416q6.80469 -6.80469 0 -13.6094l-117.952 -117.952q-4.53613 -4.53711 -10.207 0l-117.952 117.952q-6.80469 6.80469 1.13379 14.7441
l113.416 113.415q9.07324 9.07324 18.1465 -1.13379zM151.916 1213.03l116.818 -116.818q3.40234 -3.40234 -1.13477 -7.93848l-120.221 -120.221q-4.53613 -4.53711 -10.207 0l-117.952 117.952q-6.80469 6.80469 1.13379 14.7441l113.416 113.415
q9.07324 9.07324 18.1465 -1.13379z" />
    <glyph glyph-name="uniFE9C" unicode="&#x62b;" horiz-adv-x="721" arabic-form="medial" 
d="M363 473q5 69 49 68q45 -1 49 -61l6 -92q13 -186 252 -186h13v-203h-23q-217 0 -285 153q-81 -153 -425 -153h-9v203h44q310 0 323 184zM321.49 1291.67l116.818 -116.818q3.40234 -3.40234 1.13379 -5.6709l-122.489 -122.488q-5.66992 -4.53711 -10.207 0
l-117.952 117.952q-6.80469 6.80469 1.13379 14.7432l113.416 113.416q7.93945 9.07324 18.1465 -1.13379zM468.931 1041.03l113.415 -113.416q6.80469 -6.80469 0 -13.6094l-117.952 -117.952q-4.53613 -4.53711 -10.207 0l-117.952 117.952
q-6.80469 6.80469 1.13379 14.7441l113.416 113.415q9.07324 9.07324 18.1465 -1.13379zM172.916 1041.03l116.818 -116.818q3.40234 -3.40234 -1.13477 -7.93848l-120.221 -120.221q-4.53613 -4.53711 -10.207 0l-117.952 117.952q-6.80469 6.80469 1.13379 14.7441
l113.416 113.415q9.07324 9.07324 18.1465 -1.13379z" />
    <glyph glyph-name="uniFE9D" unicode="&#x62c;" horiz-adv-x="1362" arabic-form="isolated" 
d="M879 369q-192 -37 -399 -157q-285 -165 -283 -400q0 -92 63 -177q149 -199 643 -168q218 14 272 20q54 7 53 3q-1 -3 -5 -6q-220 -196 -297 -205q-61 -7 -160 -7q-362 0 -513 142q-150 142 -150 378q1 420 400 604q141 65 343 108l-386 79q-64 13 -83 15q-86 8 -182 -97
q-64 -70 -88 -57q-16 8 -6 36q62 174 119 232q59 57 162 59q77 2 541 -128q100 -28 338 -54l-62 -178q-195 -18 -320 -42zM759.159 16.7822l117.952 -116.817q10.208 -11.3418 0 -21.5488l-122.488 -122.489q-12.4756 -12.4756 -26.0859 0l-117.952 117.952
q-14.7441 14.7441 1.13477 30.6221l113.415 113.416q17.0127 17.0117 34.0244 -1.13477z" />
    <glyph glyph-name="uniFE9E" unicode="&#x62c;" horiz-adv-x="1342" arabic-form="final" 
d="M1261 589l-62 -178l-222 -28v-10q11 -171 352 -171h23v-203h-14q-449 0 -459 370q-192 -37 -399 -157q-285 -165 -283 -400q0 -92 63 -177q149 -199 643 -168q218 14 272 20q54 7 53 3q-1 -3 -5 -6q-220 -196 -297 -205q-61 -7 -160 -7q-362 0 -513 142
q-150 142 -150 378q1 420 400 604q141 65 343 108l-386 79q-53 11 -83 14q-87 9 -182 -96q-64 -70 -88 -57q-16 8 -6 36q62 174 119 232q59 57 162 59q77 2 541 -128q100 -28 338 -54zM717.159 5.78223l117.952 -116.817q10.208 -11.3418 0 -21.5488l-122.488 -122.489
q-12.4756 -12.4756 -26.0859 0l-117.952 117.952q-14.7441 14.7441 1.13477 30.6221l113.415 113.416q17.0127 17.0117 34.0244 -1.13477z" />
    <glyph glyph-name="uniFE9F" unicode="&#x62c;" horiz-adv-x="1438" arabic-form="initial" 
d="M1272 443q-153 -15 -596 -298q-226 -146 -655 -146h-31v203h19q411 0 600 106l324 182l-384 102q-83 22 -120 26q-93 9 -173 -79q-64 -70 -88 -57q-16 8 -6 36q74 186 120 232q58 57 150 59q76 2 283 -70q452 -158 633 -156zM703.159 -238.218l117.952 -116.817
q10.208 -11.3418 0 -21.5488l-122.488 -122.489q-12.4756 -12.4756 -26.0859 0l-117.952 117.952q-14.7441 14.7441 1.13477 30.6221l113.415 113.416q17.0127 17.0117 34.0244 -1.13477z" />
    <glyph glyph-name="uniFEA0" unicode="&#x62c;" horiz-adv-x="1438" arabic-form="medial" 
d="M977 328q-109 -60 -301 -183q-226 -146 -655 -146h-31v203h19q411 0 600 106l324 182l-384 104q-74 20 -120 24q-94 8 -173 -79q-64 -70 -88 -57q-16 8 -6 36q68 180 120 232q58 57 150 59q76 2 283 -70q452 -158 633 -156l-76 -140q-100 -15 -215 -75q-1 -166 257 -166
h134v-203h-144q-310 0 -327 329zM669.159 -237.218l117.952 -116.817q10.208 -11.3418 0 -21.5488l-122.488 -122.489q-12.4756 -12.4756 -26.0859 0l-117.952 117.952q-14.7441 14.7441 1.13477 30.6221l113.415 113.416q17.0127 17.0117 34.0244 -1.13477z" />
    <glyph glyph-name="uniFEA1" unicode="&#x62d;" horiz-adv-x="1362" arabic-form="isolated" 
d="M879 369q-192 -37 -399 -157q-285 -165 -283 -400q0 -92 63 -177q149 -199 643 -168q218 14 272 20q54 7 53 3q-1 -3 -5 -6q-220 -196 -297 -205q-61 -7 -160 -7q-362 0 -513 142q-150 142 -150 378q1 420 400 604q141 65 343 108l-386 79q-64 13 -83 15q-86 8 -182 -97
q-64 -70 -88 -57q-16 8 -6 36q62 174 119 232q59 57 162 59q77 2 541 -128q100 -28 338 -54l-62 -178q-195 -18 -320 -42z" />
    <glyph glyph-name="uniFEA2" unicode="&#x62d;" horiz-adv-x="1342" arabic-form="final" 
d="M1261 589l-62 -178l-222 -28v-10q11 -171 352 -171h23v-203h-14q-449 0 -459 370q-192 -37 -399 -157q-285 -165 -283 -400q0 -92 63 -177q149 -199 643 -168q218 14 272 20q54 7 53 3q-1 -3 -5 -6q-220 -196 -297 -205q-61 -7 -160 -7q-362 0 -513 142
q-150 142 -150 378q1 420 400 604q141 65 343 108l-386 79q-53 11 -83 14q-87 9 -182 -96q-64 -70 -88 -57q-16 8 -6 36q62 174 119 232q59 57 162 59q77 2 541 -128q100 -28 338 -54z" />
    <glyph glyph-name="uniFEA3" unicode="&#x62d;" horiz-adv-x="1438" arabic-form="initial" 
d="M1272 443q-153 -15 -596 -298q-226 -146 -655 -146h-31v203h19q411 0 600 106l324 182l-384 102q-83 22 -120 26q-93 9 -173 -79q-64 -70 -88 -57q-16 8 -6 36q74 186 120 232q58 57 150 59q76 2 283 -70q452 -158 633 -156z" />
    <glyph glyph-name="uniFEA4" unicode="&#x62d;" horiz-adv-x="1438" arabic-form="medial" 
d="M977 328q-109 -60 -301 -183q-226 -146 -655 -146h-31v203h19q411 0 600 106l324 182l-384 104q-74 20 -120 24q-94 8 -173 -79q-64 -70 -88 -57q-16 8 -6 36q68 180 120 232q58 57 150 59q76 2 283 -70q452 -158 633 -156l-76 -140q-100 -15 -215 -75q-1 -166 257 -166
h134v-203h-144q-310 0 -327 329z" />
    <glyph glyph-name="uniFEA5" unicode="&#x62e;" horiz-adv-x="1362" arabic-form="isolated" 
d="M646.159 1312.78l117.952 -116.817q10.208 -11.3418 0 -21.5488l-122.488 -122.489q-12.4756 -12.4756 -26.0859 0l-117.952 117.952q-14.7441 14.7441 1.13477 30.6221l113.415 113.416q17.0127 17.0117 34.0244 -1.13477zM879 369q-192 -37 -399 -157
q-285 -165 -283 -400q0 -92 63 -177q149 -199 643 -168q218 14 272 20q54 7 53 3q-1 -3 -5 -6q-220 -196 -297 -205q-61 -7 -160 -7q-362 0 -513 142q-150 142 -150 378q1 420 400 604q141 65 343 108l-386 79q-64 13 -83 15q-86 8 -182 -97q-64 -70 -88 -57q-16 8 -6 36
q62 174 119 232q59 57 162 59q77 2 541 -128q100 -28 338 -54l-62 -178q-195 -18 -320 -42z" />
    <glyph glyph-name="uniFEA6" unicode="&#x62e;" horiz-adv-x="1342" arabic-form="final" 
d="M646.159 1312.78l117.952 -116.817q10.208 -11.3418 0 -21.5488l-122.488 -122.489q-12.4756 -12.4756 -26.0859 0l-117.952 117.952q-14.7441 14.7441 1.13477 30.6221l113.415 113.416q17.0127 17.0117 34.0244 -1.13477zM1261 589l-62 -178l-222 -28v-10
q11 -171 352 -171h23v-203h-14q-449 0 -459 370q-192 -37 -399 -157q-285 -165 -283 -400q0 -92 63 -177q149 -199 643 -168q218 14 272 20q54 7 53 3q-1 -3 -5 -6q-220 -196 -297 -205q-61 -7 -160 -7q-362 0 -513 142q-150 142 -150 378q1 420 400 604q141 65 343 108
l-386 79q-53 11 -83 14q-87 9 -182 -96q-64 -70 -88 -57q-16 8 -6 36q62 174 119 232q59 57 162 59q77 2 541 -128q100 -28 338 -54z" />
    <glyph glyph-name="uniFEA7" unicode="&#x62e;" horiz-adv-x="1438" arabic-form="initial" 
d="M589.159 1386.78l117.952 -116.817q10.208 -11.3418 0 -21.5488l-122.488 -122.489q-12.4756 -12.4756 -26.0859 0l-117.952 117.952q-14.7441 14.7441 1.13477 30.6221l113.415 113.416q17.0127 17.0117 34.0244 -1.13477zM1272 443q-153 -15 -596 -298
q-226 -146 -655 -146h-31v203h19q411 0 600 106l324 182l-384 102q-83 22 -120 26q-93 9 -173 -79q-64 -70 -88 -57q-16 8 -6 36q74 186 120 232q58 57 150 59q76 2 283 -70q452 -158 633 -156z" />
    <glyph glyph-name="uniFEA8" unicode="&#x62e;" horiz-adv-x="1438" arabic-form="medial" 
d="M589.159 1386.78l117.952 -116.817q10.208 -11.3418 0 -21.5488l-122.488 -122.489q-12.4756 -12.4756 -26.0859 0l-117.952 117.952q-14.7441 14.7441 1.13477 30.6221l113.415 113.416q17.0127 17.0117 34.0244 -1.13477zM977 328q-109 -60 -301 -183
q-226 -146 -655 -146h-31v203h19q411 0 600 106l324 182l-384 104q-74 20 -120 24q-94 8 -173 -79q-64 -70 -88 -57q-16 8 -6 36q68 180 120 232q58 57 150 59q76 2 283 -70q452 -158 633 -156l-76 -140q-100 -15 -215 -75q-1 -166 257 -166h134v-203h-144q-310 0 -327 329z
" />
    <glyph glyph-name="uniFEA9" unicode="&#x62f;" horiz-adv-x="1007" arabic-form="isolated" 
d="M879 183q-68 -197 -426 -195q-136 1 -223 36q-193 75 -119 415q33 16 67 -1q-44 -244 224 -247q200 -2 283 22q83 23 125 63q8 61 -11 130q-52 189 -358 371l58 227q416 -286 406 -684q-2 -68 -26 -137z" />
    <glyph glyph-name="uniFEAA" unicode="&#x62f;" horiz-adv-x="1151" arabic-form="final" 
d="M462 -11q-133 -3 -232 35q-192 75 -125 414q40 15 76 2q-37 -231 170 -250q37 -3 48 -3q206 -8 325 48q44 21 68 59q0 23 -25 104l-144 476l108 140l149 -530q79 -282 270 -282h11v-203h-26q-196 0 -295 222l-70 -127q-119 -101 -308 -105z" />
    <glyph glyph-name="uniFEAB" unicode="&#x630;" horiz-adv-x="1010" arabic-form="isolated" 
d="M879 183q-68 -197 -426 -195q-136 1 -223 36q-193 75 -119 415q33 16 67 -1q-44 -244 224 -247q200 -2 283 22q83 23 125 63q8 61 -11 130q-52 189 -358 371l58 227q416 -286 406 -684q-2 -68 -26 -137zM485.159 1528.78l117.952 -116.817q10.208 -11.3418 0 -21.5488
l-122.488 -122.489q-12.4756 -12.4756 -26.0859 0l-117.952 117.952q-14.7441 14.7441 1.13477 30.6221l113.415 113.416q17.0127 17.0117 34.0244 -1.13477z" />
    <glyph glyph-name="uniFEAC" unicode="&#x630;" horiz-adv-x="1151" arabic-form="final" 
d="M462 -11q-133 -3 -232 35q-192 75 -125 414q40 15 76 2q-37 -231 170 -250q37 -3 48 -3q206 -8 325 48q44 21 68 59q0 23 -25 104l-144 476l108 140l149 -530q79 -282 270 -282h11v-203h-26q-196 0 -295 222l-70 -127q-119 -101 -308 -105zM666.159 1484.78
l117.952 -116.817q10.208 -11.3418 0 -21.5488l-122.488 -122.489q-12.4756 -12.4756 -26.0859 0l-117.952 117.952q-14.7441 14.7441 1.13477 30.6221l113.415 113.416q17.0127 17.0117 34.0244 -1.13477z" />
    <glyph glyph-name="uniFEAD" unicode="&#x631;" horiz-adv-x="879" arabic-form="isolated" 
d="M494 436q56 102 115 205q85 -127 127 -262q79 -252 0.5 -484.5t-278.5 -396.5q-49 -40 -102 -40q-214 2 -350 62q-6 3 -5.5 6.5t48.5 21.5q603 229 637 540q10 96 -192 348z" />
    <glyph glyph-name="uniFEAE" unicode="&#x631;" horiz-adv-x="1003" arabic-form="final" 
d="M1002 -1q-137 0 -212 63q-56 -352 -326 -563q-51 -40 -95 -41q-199 -4 -361 65q-8 4 -8 5q1 3 19 8.5t34 12.5q605 234 641 539q7 62 -37 133t-93 132l109 174q56 -118 115 -229q52 -96 219 -96h8v-203h-13z" />
    <glyph glyph-name="uniFEAF" unicode="&#x632;" horiz-adv-x="879" arabic-form="isolated" 
d="M553.159 1110.78l117.952 -116.817q10.208 -11.3418 0 -21.5488l-122.488 -122.489q-12.4756 -12.4756 -26.0859 0l-117.952 117.952q-14.7441 14.7441 1.13477 30.6221l113.415 113.416q17.0127 17.0117 34.0244 -1.13477zM494 436q56 102 115 205q85 -127 127 -262
q79 -252 0.5 -484.5t-278.5 -396.5q-49 -40 -102 -40q-214 2 -350 62q-6 3 -5.5 6.5t48.5 21.5q603 229 637 540q10 96 -192 348z" />
    <glyph glyph-name="uniFEB0" unicode="&#x632;" horiz-adv-x="1003" arabic-form="final" 
d="M1003 -1q-137 0 -212 63q-56 -352 -326 -563q-51 -40 -95 -41q-199 -4 -361 65q-8 4 -8 5q1 3 19 8.5t34 12.5q605 234 641 539q7 62 -37 133t-93 132l109 174q56 -118 115 -229q52 -96 219 -96h8v-203h-13zM614.159 1067.78l117.952 -116.817
q10.208 -11.3418 0 -21.5488l-122.488 -122.489q-12.4756 -12.4756 -26.0859 0l-117.952 117.952q-14.7441 14.7441 1.13477 30.6221l113.415 113.416q17.0127 17.0117 34.0244 -1.13477z" />
    <glyph glyph-name="uniFEB1" unicode="&#x633;" horiz-adv-x="2457" arabic-form="isolated" 
d="M1335 269q56 -74 206 -74q171 0 193 207l5 47q7 68 45 68q33 1 43 -19q9 -20 10 -42l2 -31q11 -223 224 -223q130 0 168 72q26 48 -19 136q-46 87 -98 146l125 205q108 -164 119 -346q12 -182 -68 -301q-79 -119 -239 -119q-203 0 -269 184q-76 -184 -233 -182h-34
q-126 0 -169 88q8 -69 5 -101q-28 -580 -719 -580q-285 0 -423 144q-139 144 -104 387q15 111 88 236q45 76 72 67q26 -9 12 -37l-24 -61q-80 -200 -13 -339q97 -201 416 -192q487 13 574 236q-12 247 -103 484l124 149q57 -174 84 -209z" />
    <glyph glyph-name="uniFEB2" unicode="&#x633;" horiz-adv-x="2668" arabic-form="final" 
d="M1339 269q68 -82 214 -78q184 6 189 188l1 32q7 68 44 69q49 0 54 -61l6 -32q31 -177 217 -184q163 -6 178 189l5 61q5 68 44 69q47 0 54 -62l8 -66q23 -192 282 -192h43v-203h-35q-264 0 -346 182q-72 -178 -217 -181q-208 -4 -270 174q-73 -169 -233 -175
q-167 -5 -230 86q7 -63 5 -101q-16 -580 -719 -580q-285 0 -423 144q-139 144 -104 387q15 111 88 236q44 75 72 67q26 -9 12 -37l-24 -61q-80 -200 -13 -339q97 -201 416 -192q487 14 574 236q-12 247 -103 484l124 149q58 -173 87 -209zM1743 411v0v0z" />
    <glyph glyph-name="uniFEB3" unicode="&#x633;" horiz-adv-x="1543" arabic-form="initial" 
d="M1139 202q130 0 168 72q26 48 -19 136q-46 87 -98 146l125 205q108 -164 119 -346q12 -182 -68 -301t-212 -119q-203 0 -269 184q-74 -181 -249 -181q-209 0 -262 160l-4 13l-6 -12q-71 -160 -314 -160h-56v203h42q267 0 276 134l4 60q4 69 46 69q44 0 52 -62l6 -40
q22 -162 232 -162q164 0 185 201l5 47q7 68 45 68q33 1 43 -19q9 -20 10 -42l2 -31q11 -223 197 -223z" />
    <glyph glyph-name="uniFEB4" unicode="&#x633;" horiz-adv-x="1714" arabic-form="medial" 
d="M1375 530q42 -1 48 -62l6 -75q18 -191 271 -191h26v-203h-18q-274 0 -328 157l-10 30l-10 -30q-50 -155 -228 -159t-234 144l-10 29l-10 -29q-45 -138 -241 -141.5t-266 140.5l-8 18l-10 -18q-78 -141 -273 -141h-90v203h76q223 2 243 150l4 28q9 68 55 67q36 -2 44 -51
l5 -33q26 -159 210 -162q195 -3 206 188l1 26q4 68 49 68q44 1 50 -61l2 -33q18 -200 213 -188q147 9 169 196l7 64q8 69 51 69z" />
    <glyph glyph-name="uniFEB5" unicode="&#x634;" horiz-adv-x="2463" arabic-form="isolated" 
d="M1335 269q56 -74 206 -74q171 0 193 207l5 47q7 68 45 68q33 1 43 -19q9 -20 10 -42l2 -31q11 -223 224 -223q130 0 168 72q26 48 -19 136q-46 87 -98 146l125 205q108 -164 119 -346q12 -182 -68 -301q-79 -119 -239 -119q-203 0 -269 184q-76 -184 -233 -182h-34
q-126 0 -169 88q8 -69 5 -101q-28 -580 -719 -580q-285 0 -423 144q-139 144 -104 387q15 111 88 236q45 76 72 67q26 -9 12 -37l-24 -61q-80 -200 -13 -339q97 -201 416 -192q487 13 574 236q-12 247 -103 484l124 149q57 -174 84 -209zM1760.49 1301.67l116.818 -116.818
q3.40234 -3.40234 1.13379 -5.6709l-122.489 -122.488q-5.66992 -4.53711 -10.207 0l-117.952 117.952q-6.80469 6.80469 1.13379 14.7432l113.416 113.416q7.93945 9.07324 18.1465 -1.13379zM1907.93 1051.03l113.415 -113.416q6.80469 -6.80469 0 -13.6094
l-117.952 -117.952q-4.53613 -4.53711 -10.207 0l-117.952 117.952q-6.80469 6.80469 1.13379 14.7441l113.416 113.415q9.07324 9.07324 18.1465 -1.13379zM1611.92 1051.03l116.818 -116.818q3.40234 -3.40234 -1.13477 -7.93848l-120.221 -120.221
q-4.53613 -4.53711 -10.207 0l-117.952 117.952q-6.80469 6.80469 1.13379 14.7441l113.416 113.415q9.07324 9.07324 18.1465 -1.13379z" />
    <glyph glyph-name="uniFEB6" unicode="&#x634;" horiz-adv-x="2668" arabic-form="final" 
d="M1339 269q68 -82 214 -78q184 6 189 188l1 32q7 68 44 69q49 0 54 -61l6 -32q31 -177 217 -184q163 -6 178 189l5 61q5 68 44 69q47 0 54 -62l8 -66q23 -192 282 -192h43v-203h-35q-264 0 -346 182q-72 -178 -217 -181q-208 -4 -270 174q-73 -169 -233 -175
q-167 -5 -230 86q7 -63 5 -101q-16 -580 -719 -580q-285 0 -423 144q-139 144 -104 387q15 111 88 236q44 75 72 67q26 -9 12 -37l-24 -61q-80 -200 -13 -339q97 -201 416 -192q487 14 574 236q-12 247 -103 484l124 149q58 -173 87 -209zM1743 411v0v0zM1779.49 1296.67
l116.818 -116.818q3.40234 -3.40234 1.13379 -5.6709l-122.489 -122.488q-5.66992 -4.53711 -10.207 0l-117.952 117.952q-6.80469 6.80469 1.13379 14.7432l113.416 113.416q7.93945 9.07324 18.1465 -1.13379zM1926.93 1046.03l113.415 -113.416
q6.80469 -6.80469 0 -13.6094l-117.952 -117.952q-4.53613 -4.53711 -10.207 0l-117.952 117.952q-6.80469 6.80469 1.13379 14.7441l113.416 113.415q9.07324 9.07324 18.1465 -1.13379zM1630.92 1046.03l116.818 -116.818q3.40234 -3.40234 -1.13477 -7.93848
l-120.221 -120.221q-4.53613 -4.53711 -10.207 0l-117.952 117.952q-6.80469 6.80469 1.13379 14.7441l113.416 113.415q9.07324 9.07324 18.1465 -1.13379z" />
    <glyph glyph-name="uniFEB7" unicode="&#x634;" horiz-adv-x="1543" arabic-form="initial" 
d="M1139 202q130 0 168 72q26 48 -19 136q-46 87 -98 146l125 205q108 -164 119 -346q12 -182 -68 -301t-212 -119q-203 0 -269 184q-74 -181 -249 -181q-209 0 -262 160l-4 13l-6 -12q-71 -160 -314 -160h-56v203h42q267 0 276 134l4 60q4 69 46 69q44 0 52 -62l6 -40
q22 -162 232 -162q164 0 185 201l5 47q7 68 45 68q33 1 43 -19q9 -20 10 -42l2 -31q11 -223 197 -223zM854.49 1300.67l116.818 -116.818q3.40234 -3.40234 1.13379 -5.6709l-122.489 -122.488q-5.66992 -4.53711 -10.207 0l-117.952 117.952
q-6.80469 6.80469 1.13379 14.7432l113.416 113.416q7.93945 9.07324 18.1465 -1.13379zM1001.93 1050.03l113.415 -113.416q6.80469 -6.80469 0 -13.6094l-117.952 -117.952q-4.53613 -4.53711 -10.207 0l-117.952 117.952q-6.80469 6.80469 1.13379 14.7441
l113.416 113.415q9.07324 9.07324 18.1465 -1.13379zM705.916 1050.03l116.818 -116.818q3.40234 -3.40234 -1.13477 -7.93848l-120.221 -120.221q-4.53613 -4.53711 -10.207 0l-117.952 117.952q-6.80469 6.80469 1.13379 14.7441l113.416 113.415
q9.07324 9.07324 18.1465 -1.13379z" />
    <glyph glyph-name="uniFEB8" unicode="&#x634;" horiz-adv-x="1692" arabic-form="medial" 
d="M1375 530q42 -1 48 -62l6 -75q18 -191 271 -191h26v-203h-18q-274 0 -328 157l-10 30l-10 -30q-50 -155 -228 -159t-234 144l-10 29l-10 -29q-45 -138 -241 -141.5t-266 140.5l-8 18l-10 -18q-78 -141 -273 -141h-90v203h76q223 2 243 150l4 28q9 68 55 67q36 -2 44 -51
l5 -33q26 -159 210 -162q195 -3 206 188l1 26q4 68 49 68q44 1 50 -61l2 -33q18 -200 213 -188q147 9 169 196l7 64q8 69 51 69zM840.49 1300.67l116.818 -116.818q3.40234 -3.40234 1.13379 -5.6709l-122.489 -122.488q-5.66992 -4.53711 -10.207 0l-117.952 117.952
q-6.80469 6.80469 1.13379 14.7432l113.416 113.416q7.93945 9.07324 18.1465 -1.13379zM987.931 1050.03l113.415 -113.416q6.80469 -6.80469 0 -13.6094l-117.952 -117.952q-4.53613 -4.53711 -10.207 0l-117.952 117.952q-6.80469 6.80469 1.13379 14.7441
l113.416 113.415q9.07324 9.07324 18.1465 -1.13379zM691.916 1050.03l116.818 -116.818q3.40234 -3.40234 -1.13477 -7.93848l-120.221 -120.221q-4.53613 -4.53711 -10.207 0l-117.952 117.952q-6.80469 6.80469 1.13379 14.7441l113.416 113.415
q9.07324 9.07324 18.1465 -1.13379z" />
    <glyph glyph-name="uniFEB9" unicode="&#x635;" horiz-adv-x="2702" arabic-form="isolated" 
d="M1337 269q50 -57 207 -52q361 577 728 580q212 3 289 -147q35 -67 35 -141q0 -128 -69 -241q-163 -266 -675 -268l-228 -1q-179 0 -279 86q8 -69 6 -101q-39 -580 -720 -580q-285 0 -423 144t-104 387q16 111 88 236q45 76 72 67q26 -9 13 -37l-24 -61q-81 -200 -14 -339
q98 -201 416 -192q488 13 574 236q-11 247 -103 484l125 149q57 -176 86 -209zM1625 205h263q326 0 430 28q171 45 149 207q-22 161 -213 178q-194 17 -407 -160q-122 -102 -222 -253z" />
    <glyph glyph-name="uniFEBA" unicode="&#x635;" horiz-adv-x="2786" arabic-form="final" 
d="M1620 205h262q326 0 430 28q171 45 149 207q-22 161 -212 178q-194 17 -407 -160q-123 -102 -222 -253zM1652 0q-240 0 -305 85q8 -69 5 -101q-38 -580 -719 -580q-285 0 -423 144q-139 144 -104 387q15 111 88 236q45 76 72 67q26 -9 12 -37l-24 -61q-80 -200 -13 -339
q97 -201 416 -192q487 13 574 236q-12 247 -103 484l124 149q55 -181 92 -216q57 -56 195 -45q361 577 728 580q211 3 293 -155q32 -62 32 -133q-1 -127 -71 -241q-21 -34 -49 -65h326v-202h-139q-280 0 -373 77q-168 -78 -440 -78h-194z" />
    <glyph glyph-name="uniFEBB" unicode="&#x635;" horiz-adv-x="1821" arabic-form="initial" 
d="M739 203h263q322 0 430 29q171 45 149 206q-22 162 -213 178q-194 17 -407 -160q-122 -101 -222 -253zM413 147q-103 -148 -390 -148h-34v203h19q322 0 334 171l7 90q0 79 48 79q49 0 49 -72l6 -93q8 -143 206 -162q362 577 728 581q212 2 294 -156q32 -61 32 -131
q0 -127 -71 -243q-165 -268 -675 -268h-194q-248 0 -359 149z" />
    <glyph glyph-name="uniFEBC" unicode="&#x635;" horiz-adv-x="1906" arabic-form="medial" 
d="M739 203h263q322 0 430 29q171 45 149 206q-22 162 -213 178q-194 17 -407 -160q-122 -101 -222 -253zM1406 77q-168 -79 -440 -79h-194q-248 0 -359 149q-103 -148 -390 -148h-29v203h14q322 0 334 171l7 90q0 79 48 79q49 0 49 -72l6 -93q8 -143 206 -162
q361 576 728 581q211 2 289 -148q35 -67 35 -141q0 -128 -69 -241q-21 -34 -49 -64h326v-203h-139q-280 0 -373 78z" />
    <glyph glyph-name="uniFEBD" unicode="&#x636;" horiz-adv-x="2702" arabic-form="isolated" 
d="M1337 269q50 -57 207 -52q361 577 728 580q212 3 289 -147q35 -67 35 -141q0 -128 -69 -241q-163 -266 -675 -268l-228 -1q-179 0 -279 86q8 -69 6 -101q-39 -580 -720 -580q-285 0 -423 144t-104 387q16 111 88 236q45 76 72 67q26 -9 13 -37l-24 -61q-81 -200 -14 -339
q98 -201 416 -192q488 13 574 236q-11 247 -103 484l125 149q57 -176 86 -209zM1625 205h263q326 0 430 28q171 45 149 207q-22 161 -213 178q-194 17 -407 -160q-122 -102 -222 -253zM2160.16 1371.78l117.951 -116.817q10.208 -11.3418 0 -21.5488l-122.488 -122.489
q-12.4756 -12.4756 -26.0859 0l-117.952 117.952q-14.7441 14.7441 1.13477 30.6221l113.415 113.416q17.0127 17.0117 34.0254 -1.13477z" />
    <glyph glyph-name="uniFEBE" unicode="&#x636;" horiz-adv-x="2787" arabic-form="final" 
d="M1620 205h262q326 0 430 28q171 45 149 207q-22 161 -212 178q-194 17 -407 -160q-123 -102 -222 -253zM1652 0q-240 0 -305 85q8 -69 5 -101q-38 -580 -719 -580q-285 0 -423 144q-139 144 -104 387q15 111 88 236q45 76 72 67q26 -9 12 -37l-24 -61q-80 -200 -13 -339
q97 -201 416 -192q487 13 574 236q-12 247 -103 484l124 149q55 -181 92 -216q57 -56 195 -45q361 577 728 580q211 3 293 -155q32 -62 32 -133q-1 -127 -71 -241q-21 -34 -49 -65h326v-202h-139q-280 0 -373 77q-168 -78 -440 -78h-194zM2154.16 1374.78l117.951 -116.817
q10.208 -11.3418 0 -21.5488l-122.488 -122.489q-12.4756 -12.4756 -26.0859 0l-117.952 117.952q-14.7441 14.7441 1.13477 30.6221l113.415 113.416q17.0127 17.0117 34.0254 -1.13477z" />
    <glyph glyph-name="uniFEBF" unicode="&#x636;" horiz-adv-x="1821" arabic-form="initial" 
d="M739 203h263q322 0 430 29q171 45 149 206q-22 162 -213 178q-194 17 -407 -160q-122 -101 -222 -253zM413 147q-103 -148 -390 -148h-34v203h19q322 0 334 171l7 90q0 79 48 79q49 0 49 -72l6 -93q8 -143 206 -162q362 577 728 581q212 2 294 -156q32 -61 32 -131
q0 -127 -71 -243q-165 -268 -675 -268h-194q-248 0 -359 149zM1252.16 1381.78l117.952 -116.817q10.208 -11.3418 0 -21.5488l-122.488 -122.489q-12.4756 -12.4756 -26.0859 0l-117.952 117.952q-14.7441 14.7441 1.13477 30.6221l113.415 113.416
q17.0127 17.0117 34.0244 -1.13477z" />
    <glyph glyph-name="uniFEC0" unicode="&#x636;" horiz-adv-x="1906" arabic-form="medial" 
d="M739 203h263q322 0 430 29q171 45 149 206q-22 162 -213 178q-194 17 -407 -160q-122 -101 -222 -253zM1406 77q-168 -79 -440 -79h-194q-248 0 -359 149q-103 -148 -390 -148h-29v203h14q322 0 334 171l7 90q0 79 48 79q49 0 49 -72l6 -93q8 -143 206 -162
q361 576 728 581q211 2 289 -148q35 -67 35 -141q0 -128 -69 -241q-21 -34 -49 -64h326v-203h-139q-280 0 -373 78zM1253.16 1374.78l117.952 -116.817q10.208 -11.3418 0 -21.5488l-122.488 -122.489q-12.4756 -12.4756 -26.0859 0l-117.952 117.952
q-14.7441 14.7441 1.13477 30.6221l113.415 113.416q17.0127 17.0117 34.0244 -1.13477z" />
    <glyph glyph-name="uniFEC1" unicode="&#x637;" horiz-adv-x="1571" arabic-form="isolated" 
d="M490 201h262q326 0 431 28q170 45 148 207q-22 161 -212 178q-194 17 -407 -160q-123 -102 -222 -253zM522 0l-254 -1q-114 88 -163 203h295l58 102q0 123 -9 591q-9 427 -41 561l163 97l72 -231q19 -61 -23 -90l-49 -34l-1 -757q282 349 567 352q210 3 294 -156
q31 -61 31 -129q1 -132 -68 -245q-160 -263 -678 -263h-194z" />
    <glyph glyph-name="uniFEC2" unicode="&#x637;" horiz-adv-x="1664" arabic-form="final" 
d="M570 441q283 349 567 352q209 3 289 -148q35 -67 35 -140q3 -126 -70 -241q-24 -38 -44 -62l328 1v-202h-139q-282 0 -373 77q-174 -78 -447 -78h-194l-257 -1q-111 86 -157 203h292l58 102q0 123 -9 591q-9 427 -41 561l163 97l72 -231q19 -61 -23 -90l-49 -34zM490 201
h262q326 0 431 28q170 45 148 207q-22 161 -212 178q-194 17 -407 -160q-123 -102 -222 -253z" />
    <glyph glyph-name="uniFEC3" unicode="&#x637;" horiz-adv-x="1352" arabic-form="initial" 
d="M356 441q282 348 566 351q210 3 289 -148q34 -64 35 -137q0 -132 -70 -244q-160 -264 -674 -264h-195l-323 -1v203h201q30 52 59 103q0 123 -9 591q-9 427 -41 561l163 97l72 -231q19 -61 -23 -90l-49 -34zM275 200h263q325 0 430 28q170 45 148.5 206.5t-212.5 178.5
q-194 17 -407 -160q-122 -102 -222 -253z" />
    <glyph glyph-name="uniFEC4" unicode="&#x637;" horiz-adv-x="1448" arabic-form="medial" 
d="M357 441q281 348 565 351q210 3 289 -148q36 -67 35 -143q-1 -130 -70 -238q-23 -38 -44 -62l328 1v-203h-139q-279 0 -373 78q-173 -78 -446 -78h-195l-323 -1v203h201q30 52 60 103q0 123 -9 591q-9 427 -41 561l163 97l72 -231q19 -61 -23 -90l-49 -34zM275 200h263
q325 0 430 28q170 45 148.5 206.5t-212.5 178.5q-194 17 -407 -160q-122 -102 -222 -253z" />
    <glyph glyph-name="uniFEC5" unicode="&#x638;" horiz-adv-x="1571" arabic-form="isolated" 
d="M490 201h262q326 0 431 28q170 45 148 207q-22 161 -212 178q-194 17 -407 -160q-123 -102 -222 -253zM522 0l-254 -1q-114 88 -163 203h295l58 102q0 123 -9 591q-9 427 -41 561l163 97l72 -231q19 -61 -23 -90l-49 -34l-1 -757q282 349 567 352q210 3 294 -156
q31 -61 31 -129q1 -132 -68 -245q-160 -263 -678 -263h-194zM1033.16 1372.78l117.952 -116.817q10.208 -11.3418 0 -21.5488l-122.488 -122.489q-12.4756 -12.4756 -26.0859 0l-117.952 117.952q-14.7441 14.7441 1.13477 30.6221l113.415 113.416
q17.0127 17.0117 34.0244 -1.13477z" />
    <glyph glyph-name="uniFEC6" unicode="&#x638;" horiz-adv-x="1664" arabic-form="final" 
d="M570 441q283 349 567 352q209 3 289 -148q35 -67 35 -140q3 -126 -70 -241q-24 -38 -44 -62l328 1v-202h-139q-282 0 -373 77q-174 -78 -447 -78h-194l-257 -1q-111 86 -157 203h292l58 102q0 123 -9 591q-9 427 -41 561l163 97l72 -231q19 -61 -23 -90l-49 -34zM490 201
h262q326 0 431 28q170 45 148 207q-22 161 -212 178q-194 17 -407 -160q-123 -102 -222 -253zM1032.16 1371.78l117.952 -116.817q10.208 -11.3418 0 -21.5488l-122.488 -122.489q-12.4756 -12.4756 -26.0859 0l-117.952 117.952q-14.7441 14.7441 1.13477 30.6221
l113.415 113.416q17.0127 17.0117 34.0244 -1.13477z" />
    <glyph glyph-name="uniFEC7" unicode="&#x638;" horiz-adv-x="1352" arabic-form="initial" 
d="M356 441q282 348 566 351q210 3 289 -148q34 -64 35 -137q0 -132 -70 -244q-160 -264 -674 -264h-195l-323 -1v203h201q30 52 59 103q0 123 -9 591q-9 427 -41 561l163 97l72 -231q19 -61 -23 -90l-49 -34zM275 200h263q325 0 430 28q170 45 148.5 206.5t-212.5 178.5
q-194 17 -407 -160q-122 -102 -222 -253zM808.159 1376.78l117.952 -116.817q10.208 -11.3418 0 -21.5488l-122.488 -122.489q-12.4756 -12.4756 -26.0859 0l-117.952 117.952q-14.7441 14.7441 1.13477 30.6221l113.415 113.416q17.0127 17.0117 34.0244 -1.13477z" />
    <glyph glyph-name="uniFEC8" unicode="&#x638;" horiz-adv-x="1450" arabic-form="medial" 
d="M357 441q281 348 565 351q210 3 289 -148q36 -67 35 -143q-1 -130 -70 -238q-23 -38 -44 -62l328 1v-203h-139q-279 0 -373 78q-173 -78 -446 -78h-195l-323 -1v203h201q30 52 60 103q0 123 -9 591q-9 427 -41 561l163 97l72 -231q19 -61 -23 -90l-49 -34zM275 200h263
q325 0 430 28q170 45 148.5 206.5t-212.5 178.5q-194 17 -407 -160q-122 -102 -222 -253zM807.159 1376.78l117.952 -116.817q10.208 -11.3418 0 -21.5488l-122.488 -122.489q-12.4756 -12.4756 -26.0859 0l-117.952 117.952q-14.7441 14.7441 1.13477 30.6221
l113.415 113.416q17.0127 17.0117 34.0244 -1.13477z" />
    <glyph glyph-name="uniFEC9" unicode="&#x639;" horiz-adv-x="1320" arabic-form="isolated" 
d="M103 -208q1 410 424 609q-221 77 -226 243q-4 158 133 306q153 166 352 127q193 -37 237 -244q-105 38 -228 57q-124 18 -242 -34q-160 -72 -155 -174q3 -78 131 -165q84 -58 139 -51q231 30 471 45l-50 -188q-399 -2 -609 -112q-285 -149 -284 -366q0 -124 64 -210
q149 -199 642 -168q218 14 272 20q54 7 53 3q-1 -3 -5 -6q-193 -193 -297 -205q-60 -7 -159 -7q-362 0 -513 142q-150 142 -150 378z" />
    <glyph glyph-name="uniFECA" unicode="&#x639;" horiz-adv-x="1350" arabic-form="final" 
d="M926 -721q-61 -7 -160 -7q-362 0 -513 142q-150 142 -150 378q1 497 588 650l-4 6q-55 89 -341 116q-4 82 0 125q124 82 428 81q303 0 303 -141q0 -112 -237 -250q45 -177 482 -177h38v-203h-29q-542 0 -572 298l-1 12q-145 -25 -278 -96q-285 -152 -284 -368
q0 -124 64 -210q149 -199 643 -168q218 14 272 20q54 7 53 3q-1 -3 -5 -6q-193 -193 -297 -205z" />
    <glyph glyph-name="uniFECB" unicode="&#x639;" horiz-adv-x="1094" arabic-form="initial" 
d="M879 649q-155 78 -341 62q-113 -9 -201 -66q-93 -60 -109 -127q-20 -91 197 -240q45 -31 108 -28q132 4 277 36l177 39l-94 -199q-349 -127 -807 -127h-97v203h290q-201 198 -110 414q81 191 260 255q110 39 217 20q190 -35 233 -242z" />
    <glyph glyph-name="uniFECC" unicode="&#x639;" horiz-adv-x="1088" arabic-form="medial" 
d="M596 228q-203 -229 -510 -229h-96v203h62q233 0 468 130q-95 151 -333 176q-3 83 0 123q116 77 404.5 77t288.5 -133q0 -123 -207 -242q201 -131 402 -131h24v-203h-41q-258 0 -462 229z" />
    <glyph glyph-name="uniFECD" unicode="&#x63a;" horiz-adv-x="1321" arabic-form="isolated" 
d="M103 -208q1 410 424 609q-221 77 -226 243q-4 158 133 306q153 166 352 127q193 -37 237 -244q-105 38 -228 57q-124 18 -242 -34q-160 -72 -155 -174q3 -78 131 -165q84 -58 139 -51q231 30 471 45l-50 -188q-399 -2 -609 -112q-285 -149 -284 -366q0 -124 64 -210
q149 -199 642 -168q218 14 272 20q54 7 53 3q-1 -3 -5 -6q-193 -193 -297 -205q-60 -7 -159 -7q-362 0 -513 142q-150 142 -150 378zM732.159 1570.78l117.952 -116.817q10.208 -11.3418 0 -21.5488l-122.488 -122.489q-12.4756 -12.4756 -26.0859 0l-117.952 117.952
q-14.7441 14.7441 1.13477 30.6221l113.415 113.416q17.0127 17.0117 34.0244 -1.13477z" />
    <glyph glyph-name="uniFECE" unicode="&#x63a;" horiz-adv-x="1350" arabic-form="final" 
d="M926 -721q-61 -7 -160 -7q-362 0 -513 142q-150 142 -150 378q1 497 588 650l-4 6q-55 89 -341 116q-4 82 0 125q124 82 428 81q303 0 303 -141q0 -112 -237 -250q45 -177 482 -177h38v-203h-29q-542 0 -572 298l-1 12q-145 -25 -278 -96q-285 -152 -284 -368
q0 -124 64 -210q149 -199 643 -168q218 14 272 20q54 7 53 3q-1 -3 -5 -6q-193 -193 -297 -205zM739.159 1277.78l117.952 -116.817q10.208 -11.3418 0 -21.5488l-122.488 -122.489q-12.4756 -12.4756 -26.0859 0l-117.952 117.952q-14.7441 14.7441 1.13477 30.6221
l113.415 113.416q17.0127 17.0117 34.0244 -1.13477z" />
    <glyph glyph-name="uniFECF" unicode="&#x63a;" horiz-adv-x="1093" arabic-form="initial" 
d="M879 649q-155 78 -341 62q-113 -9 -201 -66q-93 -60 -109 -127q-20 -91 197 -240q45 -31 108 -28q132 4 277 36l177 39l-94 -199q-349 -127 -807 -127h-97v203h290q-201 198 -110 414q81 191 260 255q110 39 217 20q190 -35 233 -242zM550.159 1390.78l117.952 -116.817
q10.208 -11.3418 0 -21.5488l-122.488 -122.489q-12.4756 -12.4756 -26.0859 0l-117.952 117.952q-14.7441 14.7441 1.13477 30.6221l113.415 113.416q17.0127 17.0117 34.0244 -1.13477z" />
    <glyph glyph-name="uniFED0" unicode="&#x63a;" horiz-adv-x="1088" arabic-form="medial" 
d="M596 228q-203 -229 -510 -229h-96v203h62q233 0 468 130q-95 151 -333 176q-3 83 0 123q116 77 404.5 77t288.5 -133q0 -123 -207 -242q201 -131 402 -131h24v-203h-41q-258 0 -462 229zM567.159 1247.78l117.952 -116.817q10.208 -11.3418 0 -21.5488l-122.488 -122.489
q-12.4756 -12.4756 -26.0859 0l-117.952 117.952q-14.7441 14.7441 1.13477 30.6221l113.415 113.416q17.0127 17.0117 34.0244 -1.13477z" />
    <glyph glyph-name="uniFED1" unicode="&#x641;" horiz-adv-x="1925" arabic-form="isolated" 
d="M1335 693q-11 -32 -10 -67q7 -15 68 -34q152 -47 336 12q-11 46 -28 91q-63 154 -187 152q-127 -4 -179 -154zM1820 362q-44 -190 -245 -276q-204 -88 -785 -87q-390 1 -530 77q-205 112 -156 414q18 106 65 181q20 32 39 28q28 -5 15 -55q-14 -52 -23 -121
q-12 -88 25 -154q81 -147 420 -162l273 -5l283 5q531 8 527 218v5q-138 -45 -262 -29q-143 18 -197 91q-47 64 -33 174q27 204 131 306q81 78 165 76q83 -3 148 -66q64 -63 102 -166q88 -239 38 -454zM1508.16 1512.78l117.952 -116.817q10.208 -11.3418 0 -21.5488
l-122.488 -122.489q-12.4756 -12.4756 -26.0859 0l-117.952 117.952q-14.7441 14.7441 1.13477 30.6221l113.415 113.416q17.0127 17.0117 34.0244 -1.13477z" />
    <glyph glyph-name="uniFED2" unicode="&#x641;" horiz-adv-x="1980" arabic-form="final" 
d="M790 -1q-383 -3 -529 77q-205 112 -156 414q18 106 65 181q20 32 39 28q28 -5 15 -55q-14 -52 -23 -121q-12 -88 25 -154q83 -147 420 -162q96 -4 272 -6q260 1 453 36q-135 129 -135 257q0 83 80 210q104 162 236 163q88 0 187 -105t100 -257q0 -142 -137 -273
q150 -31 250 -31l39 1v-203h-48q-239 0 -410 122q-206 -118 -743 -122zM1400 602q-55 -56 -55 -96q0 -64 66 -130q81 -81 127.5 -81t130.5 78q62 58 62 122q0 47 -66 117q-73 77 -124 77q-54 0 -141 -87zM1539 295zM1552.16 1347.78l117.952 -116.817
q10.208 -11.3418 0 -21.5488l-122.488 -122.489q-12.4756 -12.4756 -26.0859 0l-117.952 117.952q-14.7441 14.7441 1.13477 30.6221l113.415 113.416q17.0127 17.0117 34.0244 -1.13477z" />
    <glyph glyph-name="uniFED3" unicode="&#x641;" horiz-adv-x="848" arabic-form="initial" 
d="M233 690q-12 -47 -10 -67q7 -15 68 -34q152 -47 336 11q-11 47 -28 92q-63 154 -187 151q-140 -3 -179 -153zM718 359q-76 -360 -529 -360h-195v203h175q442 0 457 224q-138 -44 -262 -28q-144 17 -197 91q-41 58 -27 173q27 211 125 306q81 79 165 76t148 -65
q64 -63 102 -167q85 -230 38 -453zM428.159 1514.78l117.952 -116.817q10.208 -11.3418 0 -21.5488l-122.488 -122.489q-12.4756 -12.4756 -26.0859 0l-117.952 117.952q-14.7441 14.7441 1.13477 30.6221l113.415 113.416q17.0127 17.0117 34.0244 -1.13477z" />
    <glyph glyph-name="uniFED4" unicode="&#x641;" horiz-adv-x="944" arabic-form="medial" 
d="M494 110q-119 -111 -462 -111h-42v202h33q274 0 299 24q-135 129 -135 257q0 83 80 210q104 162 236 163q88 0 187 -105t100 -257q0 -142 -137 -273q85 -23 280 -19l21 1v-203h-30q-269 4 -430 111zM351 590q-55 -56 -55 -96q0 -64 66 -130q81 -81 127.5 -81t130.5 78
q62 58 62 122q0 47 -66 117q-73 77 -124 77q-54 0 -141 -87zM501.159 1349.78l117.952 -116.817q10.208 -11.3418 0 -21.5488l-122.488 -122.489q-12.4756 -12.4756 -26.0859 0l-117.952 117.952q-14.7441 14.7441 1.13477 30.6221l113.415 113.416
q17.0127 17.0117 34.0244 -1.13477z" />
    <glyph glyph-name="uniFED5" unicode="&#x642;" horiz-adv-x="1431" arabic-form="isolated" 
d="M840 414q-12 -47 -10 -67q7 -15 68 -35q152 -46 336 12q-11 47 -28 92q-63 154 -187 151q-140 -4 -179 -153zM1299 516q57 -185 38 -454q-38 -522 -703 -526q-284 -1 -423 144q-138 144 -104 387q16 111 88 236q44 76 72 67q26 -9 13 -37l-24 -60q-81 -201 -14 -340
q98 -201 416 -192q485 14 571 236q10 71 4 173q-138 -44 -262 -29q-144 18 -197 92q-41 58 -27 173q26 210 125 306q81 79 165 76t147 -66q82 -79 115 -186zM1172.74 1249.98l116.818 -117.952q6.80469 -6.80469 1.13379 -12.4756l-122.488 -122.489
q-9.07422 -9.07324 -18.1465 0l-117.953 117.952q-11.3408 10.208 0 21.5498l114.55 114.549q12.4756 12.4766 26.0859 -1.13379zM876.721 1249.98l116.818 -117.952q6.80469 -6.80469 1.13379 -12.4756l-122.488 -122.489q-9.07324 -9.07324 -18.1465 0l-117.952 117.952
q-11.3418 10.208 0 21.5498l114.549 114.549q12.4766 12.4766 26.0859 -1.13379z" />
    <glyph glyph-name="uniFED6" unicode="&#x642;" horiz-adv-x="1470" arabic-form="final" 
d="M1340 203l140 -1v-204h-140l-8 -72q-26 -524 -700 -524q-285 0 -423 144t-104 387q16 111 88 236q44 76 72 67q26 -9 13 -37l-24 -60q-81 -201 -14 -340q98 -201 416 -192q485 14 571 236q10 73 10 156l-157 2q-242 -1 -306 81q-61 79 -32 245q32 184 149 293
q75 70 164 71q115 0 192 -131q77 -132 93 -357zM1225 286q-48 202 -193 202q-129 1 -179 -131q-17 -48 -16 -101q32 -63 397 -53q2 36 -9 83zM1152.74 1171.98l116.818 -117.952q6.80469 -6.80469 1.13379 -12.4756l-122.488 -122.489q-9.07422 -9.07324 -18.1465 0
l-117.953 117.952q-11.3408 10.208 0 21.5498l114.55 114.549q12.4756 12.4766 26.0859 -1.13379zM856.721 1171.98l116.818 -117.952q6.80469 -6.80469 1.13379 -12.4756l-122.488 -122.489q-9.07324 -9.07324 -18.1465 0l-117.952 117.952q-11.3418 10.208 0 21.5498
l114.549 114.549q12.4766 12.4766 26.0859 -1.13379z" />
    <glyph glyph-name="uniFED7" unicode="&#x642;" horiz-adv-x="848" arabic-form="initial" 
d="M233 690q-12 -47 -10 -67q7 -15 68 -34q152 -47 336 11q-11 47 -28 92q-63 154 -187 151q-140 -3 -179 -153zM718 359q-76 -360 -529 -360h-195v203h175q442 0 457 224q-138 -44 -262 -28q-144 17 -197 91q-41 58 -27 173q27 211 125 306q81 79 165 76t148 -65
q64 -63 102 -167q85 -230 38 -453zM569.735 1511.98l116.818 -117.952q6.80469 -6.80469 1.13379 -12.4756l-122.488 -122.489q-9.07422 -9.07324 -18.1465 0l-117.953 117.952q-11.3408 10.208 0 21.5498l114.55 114.549q12.4756 12.4766 26.0859 -1.13379z
M273.721 1511.98l116.818 -117.952q6.80469 -6.80469 1.13379 -12.4756l-122.488 -122.489q-9.07324 -9.07324 -18.1465 0l-117.952 117.952q-11.3418 10.208 0 21.5498l114.549 114.549q12.4766 12.4766 26.0859 -1.13379z" />
    <glyph glyph-name="uniFED8" unicode="&#x642;" horiz-adv-x="944" arabic-form="medial" 
d="M494 110q-119 -111 -462 -111h-42v202h33q274 0 299 24q-135 129 -135 257q0 83 80 210q104 162 236 163q88 0 187 -105t100 -257q0 -142 -137 -273q85 -23 280 -19l21 1v-203h-30q-269 4 -430 111zM351 590q-55 -56 -55 -96q0 -64 66 -130q81 -81 127.5 -81t130.5 78
q62 58 62 122q0 47 -66 117q-73 77 -124 77q-54 0 -141 -87zM626.735 1347.98l116.818 -117.952q6.80469 -6.80469 1.13379 -12.4756l-122.488 -122.489q-9.07422 -9.07324 -18.1465 0l-117.953 117.952q-11.3408 10.208 0 21.5498l114.55 114.549
q12.4756 12.4766 26.0859 -1.13379zM330.721 1347.98l116.818 -117.952q6.80469 -6.80469 1.13379 -12.4756l-122.488 -122.489q-9.07324 -9.07324 -18.1465 0l-117.952 117.952q-11.3418 10.208 0 21.5498l114.549 114.549q12.4766 12.4766 26.0859 -1.13379z" />
    <glyph glyph-name="uniFED9" unicode="&#x643;" horiz-adv-x="1871" arabic-form="isolated" 
d="M790 -1q-378 -6 -530 77q-205 112 -156 414q18 106 65 181q20 32 39 28q28 -5 15 -55q-14 -52 -23 -121q-12 -88 25 -154q82 -145 420 -162q109 -5 264 -5q498 0 689 155q10 72 11 179q1 235 -7 455q-12 314 -34 458l158 104v-962q-15 -314 -172 -420
q-243 -164 -764 -172zM1073 783q-113 -145 -402 -100l-17 3v97l23 -3q124 -16 173 -7q172 31 172 110q0 62 -105 77q-74 11 -113 54t-37 113q2 98 98 147q113 57 247 69l34 3l-47 -105q-153 -14 -215 -67q-24 -21 -24 -55q-1 -69 87 -81q166 -25 167 -114q0 -89 -41 -141z
" />
    <glyph glyph-name="uniFEDA" unicode="&#x643;" horiz-adv-x="2052" arabic-form="final" 
d="M1073 783q-113 -145 -402 -100l-17 3v97l23 -3q124 -16 173 -7q172 31 172 110q0 62 -105 77q-74 11 -113 54t-37 113q2 98 98 147q113 57 247 69l34 3l-47 -105q-153 -14 -215 -67q-24 -21 -24 -55q-1 -69 87 -81q166 -25 167 -114q0 -89 -41 -141zM1726 592
q0 -389 292 -389h45v-204h-28q-230 0 -373 306q-52 -94 -108 -134q-231 -164 -764 -172q-378 -6 -530 77q-205 112 -156 414q18 106 65 181q20 32 39 28q28 -5 15 -55q-14 -52 -23 -121q-12 -88 25 -154q80 -145 420 -162q109 -5 264 -5q498 0 689 155q10 72 11 179
q2 208 -7 455q-10 304 -34 458l158 104v-961z" />
    <glyph glyph-name="uniFEDB" unicode="&#x643;" horiz-adv-x="970" arabic-form="initial" 
d="M-11 202h102q355 0 480 130q8 146 -182 350q-193 207 -323 265l-3 73q0 213 125 260l721 274q-29 -109 -79 -223l-667 -215q511 -409 512 -711q1 -149 -74 -242q-132 -164 -510 -164h-102v203z" />
    <glyph glyph-name="uniFEDC" unicode="&#x643;" horiz-adv-x="1250" arabic-form="medial" 
d="M1240 -1q-314 0 -573 399q-1 -140 -80 -241q-122 -158 -504 -158h-89v203h96q361 0 479 128q20 138 -186 364q-174 191 -316 254q-21 276 127 332l722 274q-26 -116 -79 -224l-669 -214q318 -255 503 -532q254 -382 568 -382h17v-203h-16z" />
    <glyph glyph-name="uniFEDD" unicode="&#x644;" horiz-adv-x="1394" arabic-form="isolated" 
d="M1280 6q-27 -535 -645 -534q-286 0 -423 143t-105 388q15 107 89 236q43 76 72 67q25 -9 12 -37l-24 -61q-80 -201 -14 -339q98 -203 416 -192q416 14 502 236q2 96 -4 1067q-1 122 -10 242q-8 119 -24 236l165 96l73 -233q20 -63 -14 -84l-59 -37v-807q0 -289 -2 -301
q-3 -43 -5 -86z" />
    <glyph glyph-name="uniFEDE" unicode="&#x644;" horiz-adv-x="1555" arabic-form="final" 
d="M1287 407q0 -205 250 -205h30v-204h-20q-202 0 -267 104q-1 -631 -645 -630q-286 0 -423 143t-105 388q15 107 89 235q43 77 72 68q25 -9 12 -38l-24 -60q-80 -201 -14 -339q99 -203 416 -192q416 14 502 236q3 152 -4 1067q-1 121 -10 241q-8 119 -24 236l165 96v-1146z
" />
    <glyph glyph-name="uniFEDF" unicode="&#x644;" horiz-adv-x="544" arabic-form="initial" 
d="M275 507q1 709 -40 945l165 101l69 -227q21 -70 -17 -95l-52 -34v-758q0 -187 -52 -286q-80 -155 -339 -155h-19v204h24q167 0 218 72q44 62 43 233z" />
    <glyph glyph-name="uniFEE0" unicode="&#x644;" horiz-adv-x="709" arabic-form="medial" 
d="M283 275q42 53 41 322q-2 547 -36 853l166 103v-1027q0 -226 47 -278q42 -46 186 -46h32v-203h-41q-197 0 -300 131q-117 -131 -331 -131h-57v203h17q218 0 276 73z" />
    <glyph glyph-name="uniFEE1" unicode="&#x645;" horiz-adv-x="1178" arabic-form="isolated" 
d="M446 312q204 -19 333 -19t164 7q53 13 40 54q-19 66 -239 186q-163 89 -237 -24q-51 -78 -61 -204zM1087 340q-34 -105 -143 -206q-25 -23 -141 -18l-368 14q-130 6 -206 -38l6 -595q0 -2 -94 -193q-7 -15 -14 -17q-13 -4 -14 34l-9 461q-5 212 19 296q48 175 203 217
q32 333 147 429q124 102 287 20q224 -112 320 -354q12 -30 7 -50z" />
    <glyph glyph-name="uniFEE2" unicode="&#x645;" horiz-adv-x="1267" arabic-form="final" 
d="M103 -61q0 95 15 170q48 233 242 277q34 8 102 11l12 179q639 -374 787 -374h16v-203h-19q-136 0 -240 105q3 -226 -114 -327q-51 -44 -118 -47q-70 -3 -127 20q-223 92 -195 491h-5q-152 0 -232 -122l10 -633q1 -74 -96 -193l-14 -17q-13 -4 -14 34l-9 461q-2 73 -1 168
zM762 -88q141 -10 162 94q28 136 -146 228q-18 10 -226 109q-10 -71 0 -177t62.5 -176.5t147.5 -77.5zM474 576h-1l1 8v-8z" />
    <glyph glyph-name="uniFEE3" unicode="&#x645;" horiz-adv-x="995" arabic-form="initial" 
d="M253 143q-116 -145 -215 -145h-48v204h57q99 0 180 127q185 291 334 325q37 8 86 -6q197 -57 238 -336q5 -36 5 -85q-1 -144 -81 -207t-155 -63q-145 1 -401 186zM365 299q187 -167 331 -169q39 0 63 24q20 20 20 70q0 32 -20 81q-27 66 -82 114q-49 42 -101 42t-110 -57
q-91 -88 -101 -105z" />
    <glyph glyph-name="uniFEE4" unicode="&#x645;" horiz-adv-x="1110" arabic-form="medial" 
d="M365 256q207 -185 318 -184q40 0 71 31q37 37 27 88q-19 96 -104 181q-44 44 -104 44q-127 0 -208 -160zM253 101q-75 -103 -213 -103h-50v204h68q114 0 169 85q166 261 325 302q124 33 214 -87q84 -111 130 -219q33 -80 180 -80h44v-204h-35q-164 0 -232 71
q-59 -92 -85 -117q-56 -55 -127 -54q-117 0 -388 202z" />
    <glyph glyph-name="uniFEE5" unicode="&#x646;" horiz-adv-x="1455" arabic-form="isolated" 
d="M1250 604q61 -157 82 -303.5t18 -190.5q-39 -580 -719 -580q-285 0 -423.5 144t-103.5 387q15 111 88 236q44 75 72 67q26 -9 12 -37l-24 -61q-80 -201 -13 -339q97 -201 416 -192q487 13 574 236q-12 247 -103 484zM709.159 961.782l117.952 -116.817
q10.208 -11.3418 0 -21.5488l-122.488 -122.489q-12.4756 -12.4756 -26.0859 0l-117.952 117.952q-14.7441 14.7441 1.13477 30.6221l113.415 113.416q17.0127 17.0117 34.0244 -1.13477z" />
    <glyph glyph-name="uniFEE6" unicode="&#x646;" horiz-adv-x="1541" arabic-form="final" 
d="M1333 85q9 -99 -1 -179q-58 -502 -701 -502q-285 0 -423 144t-104 387q16 111 88 236q44 75 72 67q26 -9 13 -37l-24 -61q-80 -201 -14 -339q98 -201 416 -192q488 13 574 236q-11 247 -103 484l125 149q56 -174 84 -209q52 -67 170 -67h48v-203h-40q-144 0 -180 86z
M709.159 792.782l117.952 -116.817q10.208 -11.3418 0 -21.5488l-122.488 -122.489q-12.4756 -12.4756 -26.0859 0l-117.952 117.952q-14.7441 14.7441 1.13477 30.6221l113.415 113.416q17.0127 17.0117 34.0244 -1.13477z" />
    <glyph glyph-name="uniFEE7" unicode="&#x646;" horiz-adv-x="635" arabic-form="initial" 
d="M252.159 1280.78l117.952 -116.817q10.208 -11.3418 0 -21.5488l-122.488 -122.489q-12.4756 -12.4756 -26.0859 0l-117.952 117.952q-14.7441 14.7441 1.13477 30.6221l113.415 113.416q17.0127 17.0117 34.0244 -1.13477zM411 279q-9 147 -124 282l125 205
q107 -163 119 -346t-68 -302q-79 -119 -394 -119h-80v203l92 1q246 -5 330 76z" />
    <glyph glyph-name="uniFEE8" unicode="&#x646;" horiz-adv-x="721" arabic-form="medial" 
d="M363 473q5 69 49 68q45 -1 49 -61l6 -92q13 -186 252 -186h13v-203h-23q-217 0 -285 153q-81 -153 -425 -153h-9v203h44q310 0 323 184zM337.159 1118.78l117.952 -116.817q10.208 -11.3418 0 -21.5488l-122.488 -122.489q-12.4756 -12.4756 -26.0859 0l-117.952 117.952
q-14.7441 14.7441 1.13477 30.6221l113.415 113.416q17.0127 17.0117 34.0244 -1.13477z" />
    <glyph glyph-name="uniFEE9" unicode="&#x647;" horiz-adv-x="864" arabic-form="isolated" 
d="M413 670q-210 -239 -210 -335q-1 -154 249 -152q170 1 233 120q-18 152 -272 367zM143 135q-38 64 -39 162q-2 166 245 455l-46 35l92 167q269 -239 350 -519q70 -245 -92 -373q-76 -61 -220 -61q-210 0 -290 134z" />
    <glyph glyph-name="uniFEEA" unicode="&#x647;" horiz-adv-x="1052" arabic-form="final" 
d="M206 459q56 -119 414 -110l82 2l-64 296q-264 -38 -432 -188zM1042 -1q-241 0 -324 277l-166 -110q-62 -4 -131 4q-300 34 -316 134q-5 32 34 195q39 164 475 292l-22 112l109 134l105 -564q51 -271 236 -271h22v-203h-22z" />
    </font>
</defs>
</svg>
