<?xml version="1.0" standalone="no"?>
<!DOCTYPE svg PUBLIC "-//W3C//DTD SVG 20010904//EN"
 "http://www.w3.org/TR/2001/REC-SVG-20010904/DTD/svg10.dtd">
<svg version="1.0" xmlns="http://www.w3.org/2000/svg"
 width="350.000000pt" height="350.000000pt" viewBox="0 0 350.000000 350.000000"
 preserveAspectRatio="xMidYMid meet">
<metadata>
Created by potrace 1.11, written by Peter Selinger 2001-2013
</metadata>
<g transform="translate(0.000000,350.000000) scale(0.100000,-0.100000)"
fill="#000000" stroke="none">
<path d="M1567 3179 c-318 -37 -575 -159 -712 -341 -27 -35 -66 -100 -87 -145
-62 -131 -75 -217 -83 -525 -7 -265 -7 -268 15 -303 41 -66 151 -136 300 -190
373 -134 1158 -194 1564 -119 164 30 300 87 352 146 29 33 32 44 68 303 42
295 43 365 6 511 -80 310 -374 543 -793 628 -193 40 -463 55 -630 35z"/>
<path d="M2911 1636 l-43 -44 37 -41 c21 -22 43 -41 49 -41 14 0 86 72 86 86
0 10 -71 84 -81 84 -3 0 -24 -20 -48 -44z"/>
<path d="M1063 1604 c-31 -16 -82 -83 -101 -135 -13 -32 -6 -67 18 -99 18 -24
20 -24 37 -8 9 10 17 30 18 45 0 26 4 28 42 31 41 3 90 -16 174 -67 l31 -19
-28 -19 c-25 -16 -58 -19 -314 -23 -318 -6 -328 -8 -370 -75 -22 -35 -43 -145
-33 -171 4 -11 29 -14 109 -14 63 0 104 -4 104 -10 0 -17 -38 -49 -65 -56 -15
-4 -75 -5 -134 -2 -120 5 -175 27 -187 74 -7 28 0 109 11 137 6 15 1 17 -39
17 -41 0 -47 -3 -62 -31 -65 -127 -55 -265 27 -354 58 -63 122 -87 244 -93
123 -5 173 7 227 56 57 51 78 101 78 189 l0 71 173 4 c159 3 175 5 209 26 23
15 44 38 55 65 10 23 34 74 53 112 30 59 42 73 78 90 40 18 44 24 63 88 11 38
19 70 17 72 -2 2 -44 8 -95 14 -73 8 -109 18 -175 50 -107 51 -126 55 -165 35z"/>
<path d="M3029 1531 c-84 -26 -108 -74 -109 -210 0 -93 0 -93 34 -127 33 -33
36 -34 119 -34 81 0 116 -10 81 -24 -20 -8 -195 -8 -271 0 l-60 6 -11 43 c-39
148 -230 194 -309 76 -21 -31 -23 -46 -23 -158 0 -142 10 -171 64 -197 19 -9
60 -16 93 -16 l58 -1 -30 -25 c-39 -33 -128 -78 -234 -119 -125 -48 -122 -60
26 -109 65 -21 120 -40 122 -42 2 -1 -6 -16 -18 -32 -29 -41 -70 -56 -140 -49
-99 9 -133 34 -299 226 -75 86 -126 113 -221 119 -64 4 -86 1 -129 -18 l-52
-22 -49 21 c-34 14 -71 21 -116 21 -113 0 -180 -40 -279 -165 -85 -107 -137
-152 -200 -170 -126 -38 -216 3 -216 98 0 30 7 45 30 67 38 36 38 42 -3 27
-77 -28 -117 -84 -117 -165 0 -158 119 -228 425 -248 157 -11 371 49 498 138
25 18 30 18 45 5 82 -71 326 -147 471 -147 88 0 267 33 327 60 85 37 134 103
134 180 0 33 6 46 29 66 38 32 78 117 97 202 7 37 14 70 14 74 0 4 85 8 189
10 186 3 190 3 217 28 48 45 54 75 54 263 0 199 -10 244 -66 300 -22 21 -52
39 -79 46 -49 12 -59 13 -96 2z m82 -151 l44 -39 -52 -1 c-70 0 -103 13 -103
43 0 30 7 37 40 37 18 0 43 -14 71 -40z m-465 -192 c66 -45 67 -58 7 -58 -81
0 -125 37 -88 74 22 22 25 21 81 -16z"/>
<path d="M2167 1472 c-20 -21 -37 -42 -37 -48 0 -13 73 -84 86 -84 13 0 84 73
84 87 0 12 -75 83 -88 83 -4 0 -25 -17 -45 -38z"/>
<path d="M1581 1416 l-43 -44 37 -41 c21 -22 42 -41 49 -41 6 0 26 14 44 31
l34 31 32 -31 c17 -17 36 -31 42 -31 5 0 28 18 49 40 l39 40 -45 46 -46 46
-37 -33 -37 -32 -32 32 c-18 17 -35 31 -38 31 -3 0 -24 -20 -48 -44z"/>
<path d="M2340 1364 c-25 -20 -54 -42 -65 -50 -19 -13 -19 -14 6 -41 40 -44
49 -59 59 -92 l9 -31 -128 0 -128 0 -6 58 c-6 71 -41 146 -64 138 -23 -9 -112
-80 -113 -89 0 -5 16 -27 35 -49 19 -23 32 -45 29 -49 -3 -5 -117 -9 -254 -9
-236 0 -250 1 -260 19 -11 22 -1 59 25 84 15 16 14 19 -12 42 -15 13 -31 25
-35 25 -3 0 -24 -20 -46 -45 -77 -87 -84 -240 -14 -319 9 -10 35 -27 57 -37
35 -16 68 -19 265 -19 124 0 242 5 262 10 20 6 50 26 67 46 l31 35 27 -32 c37
-43 80 -59 160 -59 77 0 136 24 168 68 17 23 20 46 23 175 3 139 2 150 -22
202 -14 30 -26 55 -28 55 -2 0 -23 -16 -48 -36z"/>
<path d="M937 952 c-20 -21 -37 -43 -37 -49 0 -6 18 -27 41 -48 l41 -37 32 31
c18 17 36 31 41 31 5 0 23 -14 41 -31 l32 -31 41 37 c23 21 41 43 41 49 0 14
-72 86 -86 86 -6 0 -23 -14 -39 -30 l-29 -30 -31 30 c-17 16 -35 30 -41 30 -5
0 -27 -17 -47 -38z"/>
<path d="M1005 820 l-39 -40 39 -40 c21 -22 44 -40 50 -40 12 0 85 71 85 83 0
10 -73 76 -85 77 -6 0 -29 -18 -50 -40z"/>
</g>
</svg>
