<?xml version="1.0" standalone="no"?>
<!DOCTYPE svg PUBLIC "-//W3C//DTD SVG 1.1//EN" "http://www.w3.org/Graphics/SVG/1.1/DTD/svg11.dtd" >
<svg>
<metadata>
Created by FontForge 20120731 at Fri Jul 15 10:08:37 2016
 By www-data
Copyright (c) 2003 by Bitstream, Inc. All Rights Reserved.
DejaVu changes are in public domain
Copyright (c) 2015 by Saber Rastikerdar. All Rights Reserved.
</metadata>
<defs>
<font id="Samim" horiz-adv-x="0" >
  <font-face 
    font-family="Samim"
    font-weight="400"
    font-stretch="normal"
    units-per-em="2048"
    panose-1="2 11 6 3 3 8 4 2 2 4"
    ascent="1638"
    descent="-410"
    bbox="-113 -986.378 2778.67 2151"
    underline-thickness="100"
    underline-position="-100"
    unicode-range="U+0020-FEFC"
  />
<missing-glyph horiz-adv-x="748" 
d="M68 0v1365h544v-1365h-544zM136 68h408v1229h-408v-1229z" />
    <glyph glyph-name="uni0622" unicode="&#x627;&#x653;" horiz-adv-x="538" 
d="M212 1408l163 71v-1477h-112zM66 1529l-86 77q101 169 239 143l127 -24q72 -14 184 54l61 -89q-95 -107 -254 -80l-119 20q-96 16 -152 -101z" />
    <glyph glyph-name="uni0623" unicode="&#x627;&#x654;" horiz-adv-x="423" 
d="M181 1984q102 20 188 -31v-105l-19 9q-61 31 -123 24q-93 -10 -100 -82q-6 -78 101 -110q33 -10 164 20v-109l-367 -82v107l87 20q-85 53 -85 146t64 150q37 32 90 43zM130 1408l163 71v-1477h-112z" />
    <glyph glyph-name="afii57412" unicode="&#x648;&#x654;" horiz-adv-x="841" 
d="M386 1269q102 20 188 -31v-105l-19 9q-61 31 -123 24q-93 -10 -100 -82q-6 -78 101 -110q33 -10 164 20v-109l-367 -82v107l87 20q-85 53 -85 146t64 150q37 32 90 43zM416 517q-127 -4 -170 -173q-44 -170 99 -196t250 55q5 34 -10 123q-31 195 -169 191zM677 530
q106 -221 58 -550q-20 -143 -110 -258q-174 -226 -528 -229h-2l-71 132q524 31 565 418q-59 -49 -198 -51q-177 -3 -242 91q-66 93 -51 209q26 191 134 301q107 110 257 79q132 -27 188 -142z" />
    <glyph glyph-name="uni0625" unicode="&#x627;&#x655;" horiz-adv-x="423" 
d="M212 -75q102 20 188 -31v-105l-19 9q-61 31 -123 24q-93 -10 -100 -82q-6 -78 101 -110q33 -10 164 20v-109l-367 -82v107l87 20q-85 53 -85 146t64 150q37 32 90 43zM130 1408l163 71v-1477h-112z" />
    <glyph glyph-name="afii57414" unicode="&#x64a;&#x654;" horiz-adv-x="1387" 
d="M511 1185q102 20 188 -31v-105l-19 9q-61 31 -123 24q-93 -10 -100 -82q-6 -78 101 -110q33 -10 164 20v-109l-367 -82v107l87 20q-85 53 -85 146t64 150q37 32 90 43zM983 151l55 1q101 0 159 -24q99 -40 99 -150q0 -144 -130 -265q-127 -118 -352 -152q-60 -9 -127 -9
q-181 0 -325 62q-362 158 -238 674q19 81 77 204l133 -75q-32 -73 -50 -138q-69 -243 -6 -371q99 -200 407 -199q166 0 273 49q189 86 193 173q4 66 -77 65h-88q-241 4 -255 153q-7 72 18 148q53 154 192 272q133 113 266 115q45 0 85 -10l-57 -172h-4q-157 0 -285 -153
q-54 -65 -64 -131.5t101 -66.5z" />
    <glyph glyph-name="uniFDF2" unicode="&#x627;&#xfedf;&#xfee0;&#xfeea;" horiz-adv-x="2663" arabic-form="isolated" 
d="M1312 1695l-24 398l98 58v-456h-74zM1354 1378q-30 -165 -175 -165q-144 0 -145 186q0 37 16 141h75q-13 -90 -13 -118q0 -113 80 -113q110 0 116 144q1 40 1 87v56h74q2 -36 2 -84q0 -141 122 -141h1q74 1 74 119q1 106 -11 168h80q11 -79 11 -173q0 -153 -84 -189
q-33 -14 -65 -15q-71 -3 -108 24q-45 33 -51 73zM698 388q-15 157 -32 270q-403 -75 -417 -186q-10 -80 76 -97q124 -25 373 13zM646 797q-1 28 -14 124l149 37q53 -507 63.5 -564t17.5 -81q6 -25 15 -44q8 -20 17 -35q19 -29 42 -39q47 -20 136 -20h19v-175h-40
q-295 0 -335 241q-497 -79 -603 124q-19 36 -20 84q-7 240 553 348zM1175 0h-94v175h35q102 0 166 55q63 54 56 173l-39 705l163 70v-775q0 -118 56 -173q55 -55 171 -55h34v-175h-93q-148 0 -249 108q-98 -108 -206 -108zM2120 440q0 -233 -94 -336q-94 -104 -240 -104h-75
v175h26q169 0 234 135q27 56 23 142l-38 839l164 72v-923zM2370 1408l163 71v-1477h-112z" />
    <glyph glyph-name="uniFE70" unicode="&#x20;&#x64b;" horiz-adv-x="642" arabic-form="isolated" 
d="M75 1058v115l504 206v-115zM75 1332v114l504 206v-115z" />
    <glyph glyph-name="uniFE72" unicode="&#x20;&#x64c;" horiz-adv-x="642" arabic-form="isolated" 
d="M426 1733q-84 0 -84 -74q0 -54 62 -79q24 -9 69 -23l13 30q12 27 12 66q0 80 -72 80zM120 1360q32 -68 103 -68q68 0 143 73q43 41 69 93l10 20q-115 24 -166 94q-35 48 -26 116q5 41 29 73q45 61 128 61q80 0 128 -48q48 -46 49 -129q0 -40 -13 -82l-7 -21l23 -2
q27 -1 63 -2v-89q-41 1 -56 2l-72 7q-33 -78 -97 -143.5t-111 -88.5q-48 -23 -97 -23q-115 0 -160 121q-30 81 -31 191h66q1 -104 25 -155zM627 1539v0v0z" />
    <glyph glyph-name="uniFE74" unicode="&#x20;&#x64d;" horiz-adv-x="642" arabic-form="isolated" 
d="M80 -515v114l504 206v-114zM80 -242v115l504 206v-115z" />
    <glyph glyph-name="uniFE76" unicode="&#x20;&#x64e;" horiz-adv-x="642" arabic-form="isolated" 
d="M44 1330v115l504 206v-115z" />
    <glyph glyph-name="uniFE78" unicode="&#x20;&#x64f;" horiz-adv-x="642" arabic-form="isolated" 
d="M596 1464q-57 1 -132 9q-53 -74 -128 -120q-118 -74 -252 -79v89q131 4 209 69q35 29 50 45l21 23q-37 8 -76 28q-38 20 -66 59q-28 38 -28 85q0 81 67 131q46 34 101 34q70 0 119 -48q48 -47 48 -129q0 -34 -15 -82l-7 -21l23 -2q38 -2 66 -2v-89zM416 1572l13 30
q11 27 11 66t-25 59q-25 21 -54 21q-30 0 -52 -17q-25 -21 -26 -54q-1 -56 64 -82q23 -9 69 -23z" />
    <glyph glyph-name="uniFE7A" unicode="&#x20;&#x650;" horiz-adv-x="642" arabic-form="isolated" 
d="M91 -353v115l504 206v-115z" />
    <glyph glyph-name="uniFE7C" unicode="&#x20;&#x651;" horiz-adv-x="642" arabic-form="isolated" 
d="M350 1532q-30 -165 -175 -165q-144 0 -145 186q0 37 16 141h75q-13 -90 -13 -118q0 -113 80 -113q110 0 116 144q1 40 1 87v56h74q2 -36 2 -84q0 -141 122 -141h1q74 1 74 119q1 106 -11 168h80q11 -79 11 -173q0 -153 -84 -189q-33 -14 -65 -15q-71 -3 -108 24
q-45 33 -51 73z" />
    <glyph glyph-name="uniFE7E" unicode="&#x20;&#x652;" horiz-adv-x="642" arabic-form="isolated" 
d="M480 1457q0 49 -34 83t-83 34q-50 0 -84 -34t-34 -83q0 -50 34 -83.5t84 -33.5q49 0 83 34t34 83zM552 1457.5q0 -79.5 -54.5 -135t-134.5 -55.5q-26 0 -50 6.5t-45 18.5t-39 30q-28 28 -41.5 61.5t-13.5 73.5q0 80 55 134.5t134.5 54.5t134 -54.5t54.5 -134z" />
    <glyph glyph-name="uniFEF5" unicode="&#xfedf;&#xfe82;" horiz-adv-x="1126" arabic-form="isolated" 
d="M224 1338q219 -418 342 -1162q175 18 245 107q69 89 61 247l-41 877l164 72v-961q0 -272 -147 -401q-146 -127 -524 -114q-119 5 -167 20v165q110 -33 267 -23q-98 662 -332 1066zM-24 1374l-86 77q101 169 239 143l127 -24q72 -14 184 54l61 -89q-95 -107 -254 -80
l-119 20q-96 16 -152 -101z" />
    <glyph glyph-name="uniFEF6" unicode="&#xfee0;&#xfe82;" horiz-adv-x="1240" arabic-form="final" 
d="M224 1342q217 -416 332 -1141q323 108 293 710l-24 494l163 73v-843q0 -172 34 -271q64 -189 190 -189h39v-175h-38q-253 0 -323 340q-36 -95 -112 -179q-142 -159 -438 -161q-100 0 -188 17v168q200 -43 267 -17q-89 668 -328 1065zM-27 1401l-86 77q101 169 239 143
l127 -24q72 -14 184 54l61 -89q-95 -107 -254 -80l-119 20q-96 16 -152 -101z" />
    <glyph glyph-name="uniFEF7" unicode="&#xfedf;&#xfe84;" horiz-adv-x="1126" arabic-form="isolated" 
d="M224 1338q219 -418 342 -1162q175 18 245 107q69 89 61 247l-41 877l164 72v-961q0 -272 -147 -401q-146 -127 -524 -114q-119 5 -167 20v165q110 -33 267 -23q-98 662 -332 1066zM151 1822q102 20 188 -31v-105l-19 9q-61 31 -123 24q-93 -10 -100 -82q-6 -78 101 -110
q33 -10 164 20v-109l-367 -82v107l87 20q-85 53 -85 146t64 150q37 32 90 43z" />
    <glyph glyph-name="uniFEF8" unicode="&#xfee0;&#xfe84;" horiz-adv-x="1240" arabic-form="final" 
d="M224 1342q217 -416 332 -1141q323 108 293 710l-24 494l163 73v-843q0 -172 34 -271q64 -189 190 -189h39v-175h-38q-253 0 -323 340q-36 -95 -112 -179q-142 -159 -438 -161q-100 0 -188 17v168q200 -43 267 -17q-89 668 -328 1065zM151 1842q102 20 188 -31v-105l-19 9
q-61 31 -123 24q-93 -10 -100 -82q-6 -78 101 -110q33 -10 164 20v-109l-367 -82v107l87 20q-85 53 -85 146t64 150q37 32 90 43z" />
    <glyph glyph-name="uniFEF9" unicode="&#xfedf;&#xfe88;" horiz-adv-x="1126" arabic-form="isolated" 
d="M224 1338q219 -418 342 -1162q175 18 245 107q69 89 61 247l-41 877l164 72v-961q0 -272 -147 -401q-146 -127 -524 -114q-119 5 -167 20v165q110 -33 267 -23q-98 662 -332 1066zM204 -75q102 20 188 -31v-105l-19 9q-61 31 -123 24q-93 -10 -100 -82q-6 -78 101 -110
q33 -10 164 20v-109l-367 -82v107l87 20q-85 53 -85 146t64 150q37 32 90 43z" />
    <glyph glyph-name="uniFEFA" unicode="&#xfee0;&#xfe88;" horiz-adv-x="1240" arabic-form="final" 
d="M224 1342q217 -416 332 -1141q323 108 293 710l-24 494l163 73v-843q0 -172 34 -271q64 -189 190 -189h39v-175h-38q-253 0 -323 340q-36 -95 -112 -179q-142 -159 -438 -161q-100 0 -188 17v168q200 -43 267 -17q-89 668 -328 1065zM187 -75q102 20 188 -31v-105l-19 9
q-61 31 -123 24q-93 -10 -100 -82q-6 -78 101 -110q33 -10 164 20v-109l-367 -82v107l87 20q-85 53 -85 146t64 150q37 32 90 43z" />
    <glyph glyph-name="uniFEFB" unicode="&#xfedf;&#xfe8e;" horiz-adv-x="1126" arabic-form="isolated" 
d="M224 1338q219 -418 342 -1162q175 18 245 107q69 89 61 247l-41 877l164 72v-961q0 -272 -147 -401q-146 -127 -524 -114q-119 5 -167 20v165q110 -33 267 -23q-98 662 -332 1066z" />
    <glyph glyph-name="uniFEFC" unicode="&#xfee0;&#xfe8e;" horiz-adv-x="1240" arabic-form="final" 
d="M224 1342q217 -416 332 -1141q323 108 293 710l-24 494l163 73v-843q0 -172 34 -271q64 -189 190 -189h39v-175h-38q-253 0 -323 340q-36 -95 -112 -179q-142 -159 -438 -161q-100 0 -188 17v168q200 -43 267 -17q-89 668 -328 1065z" />
    <glyph glyph-name="uni0651064B" unicode="&#x64b;&#x651;" 
d="M327 1203v115l504 206v-115zM327 1477v114l504 206v-115zM602 905q-30 -165 -175 -165q-144 0 -145 186q0 37 16 141h75q-13 -90 -13 -118q0 -113 80 -113q110 0 116 144q1 40 1 87v56h74q2 -36 2 -84q0 -141 122 -141h1q74 1 74 119q1 106 -11 168h80q11 -79 11 -173
q0 -153 -84 -189q-33 -14 -65 -15q-71 -3 -108 24q-45 33 -51 73z" />
    <glyph glyph-name="uni0651064C" unicode="&#x64c;&#x651;" 
d="M667 1744q-84 0 -84 -74q0 -54 62 -79q24 -9 69 -23l13 30q12 27 12 66q0 80 -72 80zM361 1371q32 -68 103 -68q68 0 143 73q43 41 69 93l10 20q-115 24 -166 94q-35 48 -26 116q5 41 29 73q45 61 128 61q80 0 128 -48q48 -46 49 -129q0 -40 -13 -82l-7 -21l23 -2
q27 -1 63 -2v-89q-41 1 -56 2l-72 7q-33 -78 -97 -143.5t-111 -88.5q-48 -23 -97 -23q-115 0 -160 121q-30 81 -31 191h66q1 -104 25 -155zM868 1550v0v0zM591 909q-30 -165 -175 -165q-144 0 -145 186q0 37 16 141h75q-13 -90 -13 -118q0 -113 80 -113q110 0 116 144
q1 40 1 87v56h74q2 -36 2 -84q0 -141 122 -141h1q74 1 74 119q1 106 -11 168h80q11 -79 11 -173q0 -153 -84 -189q-33 -14 -65 -15q-71 -3 -108 24q-45 33 -51 73z" />
    <glyph glyph-name="uni064B0651" unicode="&#x64d;&#x651;" 
d="M557 1531q-30 -165 -175 -165q-144 0 -145 186q0 37 16 141h75q-13 -90 -13 -118q0 -113 80 -113q110 0 116 144q1 40 1 87v56h74q2 -36 2 -84q0 -141 122 -141h1q74 1 74 119q1 106 -11 168h80q11 -79 11 -173q0 -153 -84 -189q-33 -14 -65 -15q-71 -3 -108 24
q-45 33 -51 73zM282 739v115l504 206v-115zM282 1013v114l504 206v-115z" />
    <glyph glyph-name="uni0651064E" unicode="&#x64e;&#x651;" 
d="M301 1391v115l504 206v-115zM607 1082q-30 -165 -175 -165q-144 0 -145 186q0 37 16 141h75q-13 -90 -13 -118q0 -113 80 -113q110 0 116 144q1 40 1 87v56h74q2 -36 2 -84q0 -141 122 -141h1q74 1 74 119q1 106 -11 168h80q11 -79 11 -173q0 -153 -84 -189
q-33 -14 -65 -15q-71 -3 -108 24q-45 33 -51 73z" />
    <glyph glyph-name="uni0651064F" unicode="&#x64f;&#x651;" 
d="M838 1452q-57 1 -132 9q-53 -74 -128 -120q-118 -74 -252 -79v89q131 4 209 69q35 29 50 45l21 23q-37 8 -76 28q-38 20 -66 59q-28 38 -28 85q0 81 67 131q46 34 101 34q70 0 119 -48q48 -47 48 -129q0 -34 -15 -82l-7 -21l23 -2q38 -2 66 -2v-89zM658 1560l13 30
q11 27 11 66t-25 59q-25 21 -54 21q-30 0 -52 -17q-25 -21 -26 -54q-1 -56 64 -82q23 -9 69 -23zM592 939q-30 -165 -175 -165q-144 0 -145 186q0 37 16 141h75q-13 -90 -13 -118q0 -113 80 -113q110 0 116 144q1 40 1 87v56h74q2 -36 2 -84q0 -141 122 -141h1q74 1 74 119
q1 106 -11 168h80q11 -79 11 -173q0 -153 -84 -189q-33 -14 -65 -15q-71 -3 -108 24q-45 33 -51 73z" />
    <glyph glyph-name="uni064E0651" unicode="&#x650;&#x651;" 
d="M593 1480q-30 -165 -175 -165q-144 0 -145 186q0 37 16 141h75q-13 -90 -13 -118q0 -113 80 -113q110 0 116 144q1 40 1 87v56h74q2 -36 2 -84q0 -141 122 -141h1q74 1 74 119q1 106 -11 168h80q11 -79 11 -173q0 -153 -84 -189q-33 -14 -65 -15q-71 -3 -108 24
q-45 33 -51 73zM351 981v115l504 206v-115z" />
    <glyph glyph-name="uni0654064E" unicode="&#x64e;&#x654;" 
d="M250 1390v115l504 206v-115zM514 1339q102 20 188 -31v-105l-19 9q-61 31 -123 24q-93 -10 -100 -82q-6 -78 101 -110q33 -10 164 20v-109l-367 -82v107l87 20q-85 53 -85 146t64 150q37 32 90 43z" />
    <glyph glyph-name="uni0654064F" unicode="&#x64f;&#x654;" 
d="M828 1447q-57 1 -132 9q-53 -74 -128 -120q-118 -74 -252 -79v89q131 4 209 69q35 29 50 45l21 23q-37 8 -76 28q-38 20 -66 59q-28 38 -28 85q0 81 67 131q46 34 101 34q70 0 119 -48q48 -47 48 -129q0 -34 -15 -82l-7 -21l23 -2q38 -2 66 -2v-89zM648 1555l13 30
q11 27 11 66t-25 59q-25 21 -54 21q-30 0 -52 -17q-25 -21 -26 -54q-1 -56 64 -82q23 -9 69 -23zM523 1183q102 20 188 -31v-105l-19 9q-61 31 -123 24q-93 -10 -100 -82q-6 -78 101 -110q33 -10 164 20v-109l-367 -82v107l87 20q-85 53 -85 146t64 150q37 32 90 43z" />
    <glyph glyph-name="uni066E.init" unicode="&#x66e;" horiz-adv-x="604" 
d="M416 76q-89 -76 -335 -76h-91v175h104q60 0 103 6q110 14 138 80t17 199.5t-34 225.5l152 33q36 -92 43 -240q16 -307 -97 -403z" />
    <glyph glyph-name="uni066E.medi" unicode="&#x66e;" horiz-adv-x="702" 
d="M396 96q-86 -96 -234 -96h-172v175h125q114 0 164 49.5t51 121.5l5 212l145 25l8 -237q3 -76 60 -126q52 -45 142 -45h23v-175h-46q-161 0 -249 95l-11 13z" />
    <glyph glyph-name="uni066E.fina" unicode="&#x66e;" horiz-adv-x="2012" 
d="M856 0q-321 0 -480 67q-258 107 -282 374q-11 125 30 268l134 -35q-20 -133 -17 -196q9 -242 319 -289q76 -11 243 -12q456 -1 615 74q187 89 213 293h114q14 -167 40.5 -231.5t53.5 -90.5q47 -47 141 -47h42v-175h-64q-220 0 -309 207q-49 -57 -179 -118
q-189 -89 -614 -89z" />
    <glyph glyph-name="uni066F.init" unicode="&#x66f;" horiz-adv-x="753" 
d="M411 848q-117 -3 -157 -162q-39 -158 98 -181q135 -24 230 48q6 24 -11 116q-34 183 -160 179zM646 873q118 -198 75 -544q-22 -183 -157 -269q-95 -60 -365 -60h-219v175h105q317 0 364 17q125 46 131 208q-56 -47 -166 -49q-189 -3 -261 91q-63 84 -46 230
q17 147 109 243q113 120 261 89q104 -22 169 -131z" />
    <glyph glyph-name="uni066F.medi" unicode="&#x66f;" horiz-adv-x="1012" 
d="M339 478q-1 -74 51 -126q81 -83 124 -83q44 1 124 83q51 51 51 126q1 74 -51 126t-124 52t-124 -52q-51 -51 -51 -126zM377 777q61 26 145 27q83 0 150 -32q131 -65 162 -203q24 -107 -12 -198q-39 -100 -150 -171q91 -26 281 -25h68v-175h-204q-138 0 -304 107
q-164 -107 -302 -107h-221v175h83q196 0 270 27q-93 61 -133 154q-43 100 -12 215q39 147 179 206z" />
    <glyph glyph-name="uni066F.fina" unicode="&#x66f;" horiz-adv-x="1534" 
d="M1102 522q-126 -3 -173 -159q-57 -184 146 -200q53 -4 194 3q3 360 -167 356zM1261 2q-24 -1 -188 -1t-241 89t-61 215q21 179 126 280.5t220 94.5q161 -10 230 -153q53 -112 66 -267q5 -70 7 -85h75h59v-175l-137 2q-17 -264 -204 -430.5t-502.5 -159.5t-466.5 160.5
t-149 417.5h-2v6h2q3 207 94 396l155 -40q-86 -227 -85 -363q3 -418 476 -413q295 3 431 163q92 108 95 263z" />
    <glyph glyph-name="uni06A1.init" unicode="&#x6a1;" horiz-adv-x="821" 
d="M411 848q-117 -3 -157 -162q-39 -158 98 -181q135 -24 230 48q6 24 -11 116q-34 183 -160 179zM646 873q118 -198 75 -544q-22 -183 -157 -269q-95 -60 -365 -60h-219v175h105q317 0 364 17q125 46 131 208q-56 -47 -166 -49q-189 -3 -261 91q-63 84 -46 230
q17 147 109 243q113 120 261 89q104 -22 169 -131z" />
    <glyph glyph-name="uni06A1.medi" unicode="&#x6a1;" horiz-adv-x="1010" 
d="M339 478q-1 -74 51 -126q81 -83 124 -83q44 1 124 83q51 51 51 126q1 74 -51 126t-124 52t-124 -52q-51 -51 -51 -126zM377 777q61 26 145 27q83 0 150 -32q131 -65 162 -203q24 -107 -12 -198q-39 -100 -150 -171q91 -26 281 -25h68v-175h-204q-138 0 -304 107
q-164 -107 -302 -107h-221v175h83q196 0 270 27q-93 61 -133 154q-43 100 -12 215q39 147 179 206z" />
    <glyph glyph-name="uni06A1.fina" unicode="&#x6a1;" horiz-adv-x="1880" 
d="M1259 478q-1 -74 51 -126q81 -83 124 -83q44 1 124 83q51 51 51 126q1 74 -51 126t-124 52t-124 -52q-51 -51 -51 -126zM1592 200q26 -25 234 -25h65v-175h-73q-263 0 -371 110q-258 -110 -637 -110q-279 0 -438 67q-258 107 -281 374q-11 127 29 268l134 -35
q-22 -139 -19 -196q10 -240 321 -289q47 -7 174 -10q215 -6 329 1q55 3 204 22q-93 61 -133 154q-43 100 -12 215q39 147 179 206q61 26 145 27q83 0 150 -32q131 -63 162 -203q24 -107 -12 -198q-39 -100 -150 -171z" />
    <glyph glyph-name="uni06CA.fina" unicode="&#x6ca;" horiz-adv-x="854" 
d="M580 1092l78 -79q25 -24 1 -49l-82 -82q-27 -26 -52 0l-82 82q-25 25 3 52l76 77q28 28 58 -1zM297 1092l78 -79q25 -24 1 -49l-82 -82q-26 -26 -52 0l-82 82q-25 25 3 52l76 77q29 28 58 -1zM527 477q-36 39 -82 38q-81 -2 -124 -52q-64 -73 -70 -147.5t33 -110t107 -41
t204 1.5q1 236 -68 311zM586 1h-165q-179 0 -255.5 88t-61.5 216q19 171 125 273q137 132 293 82q99 -33 151.5 -141.5t65.5 -258.5q6 -72 7 -85h119v-175h-133q-27 -181 -148 -321q-159 -185 -490 -185h-2l-68 132q495 30 562 375z" />
    <glyph glyph-name="uni06D5.fina" unicode="&#x6d5;" horiz-adv-x="1080" 
d="M697 388q-15 157 -32 270q-403 -75 -417 -186q-10 -80 76 -97q124 -25 373 13zM645 797q-1 28 -14 124l149 37q53 -507 63.5 -564t17.5 -81q6 -25 15 -44q8 -20 17 -35q19 -29 42 -39q47 -20 136 -20h19v-175h-40q-295 0 -335 241q-497 -79 -603 124q-19 36 -20 84
q-7 240 553 348z" />
    <glyph glyph-name="uniFB56" unicode="&#x67e;" horiz-adv-x="1738" arabic-form="isolated" 
d="M868 1q-332 -1 -491 66q-260 108 -285 386q-10 109 33 256l134 -35q-22 -139 -19 -196q14 -278 422 -298q63 -3 218.5 -2.5t184.5 3.5q407 39 419 136q8 66 -4.5 190.5t-37.5 201.5l165 84q27 -112 40 -244q23 -239 -27 -349q-92 -197 -752 -199zM935.696 -360.77
l84.5264 -84.5254q25.6777 -26.749 0 -52.4277l-87.7363 -87.7354q-27.8184 -27.8184 -55.6367 0l-87.7363 87.7354q-26.748 25.6787 3.20996 55.6377l82.3857 82.3857q29.959 29.958 60.9873 -1.07031zM1094.05 -138.221l83.4551 -84.5254
q26.749 -25.6787 1.07031 -52.4277l-87.7354 -87.7354q-27.8193 -27.8184 -55.6377 0l-87.7354 87.7354q-26.749 26.749 3.20996 55.6377l81.3154 82.3857q31.0283 29.958 62.0576 -1.07031zM791.254 -138.221l83.4551 -84.5254q26.749 -25.6787 1.07031 -52.4277
l-87.7354 -87.7354q-28.8887 -27.8184 -55.6377 0l-87.7354 87.7354q-26.749 26.749 3.20996 55.6377l81.3164 82.3857q29.958 29.958 62.0566 -1.07031z" />
    <glyph glyph-name="uniFB57" unicode="&#x67e;" horiz-adv-x="2006" arabic-form="final" 
d="M893.696 -384.77l84.5264 -84.5254q25.6777 -26.749 0 -52.4277l-87.7363 -87.7354q-27.8184 -27.8184 -55.6367 0l-87.7363 87.7354q-26.748 25.6787 3.20996 55.6377l82.3857 82.3857q29.959 29.958 60.9873 -1.07031zM1052.05 -162.221l83.4551 -84.5254
q26.749 -25.6787 1.07031 -52.4277l-87.7354 -87.7354q-27.8193 -27.8184 -55.6377 0l-87.7354 87.7354q-26.749 26.749 3.20996 55.6377l81.3154 82.3857q31.0283 29.958 62.0576 -1.07031zM749.254 -162.221l83.4551 -84.5254q26.749 -25.6787 1.07031 -52.4277
l-87.7354 -87.7354q-28.8887 -27.8184 -55.6377 0l-87.7354 87.7354q-26.749 26.749 3.20996 55.6377l81.3164 82.3857q29.958 29.958 62.0566 -1.07031zM856 0q-321 0 -480 67q-258 107 -282 374q-11 125 30 268l134 -35q-20 -133 -17 -196q9 -242 319 -289q76 -11 243 -12
q456 -1 615 74q187 89 213 293h114q14 -167 40.5 -231.5t53.5 -90.5q47 -47 141 -47h42v-175h-64q-220 0 -309 207q-49 -57 -179 -118q-189 -89 -614 -89z" />
    <glyph glyph-name="uniFB58" unicode="&#x67e;" horiz-adv-x="618" arabic-form="initial" 
d="M306.696 -379.77l84.5264 -84.5254q25.6777 -26.749 0 -52.4277l-87.7363 -87.7354q-27.8184 -27.8184 -55.6367 0l-87.7363 87.7354q-26.748 25.6787 3.20996 55.6377l82.3857 82.3857q29.959 29.958 60.9873 -1.07031zM465.049 -157.221l83.4551 -84.5254
q26.749 -25.6787 1.07031 -52.4277l-87.7354 -87.7354q-27.8193 -27.8184 -55.6377 0l-87.7354 87.7354q-26.749 26.749 3.20996 55.6377l81.3154 82.3857q31.0283 29.958 62.0576 -1.07031zM162.254 -157.221l83.4551 -84.5254q26.749 -25.6787 1.07031 -52.4277
l-87.7354 -87.7354q-28.8887 -27.8184 -55.6377 0l-87.7354 87.7354q-26.749 26.749 3.20996 55.6377l81.3164 82.3857q29.958 29.958 62.0566 -1.07031zM416 76q-89 -76 -335 -76h-91v175h104q60 0 103 6q110 14 138 80t17 199.5t-34 225.5l152 33q36 -92 43 -240
q16 -307 -97 -403z" />
    <glyph glyph-name="uniFB59" unicode="&#x67e;" horiz-adv-x="714" arabic-form="medial" 
d="M396 96q-86 -96 -234 -96h-172v175h125q114 0 164 49.5t51 121.5l5 212l145 25l8 -237q3 -76 60 -126q52 -45 142 -45h23v-175h-46q-161 0 -249 95l-11 13zM307.696 -378.77l84.5264 -84.5254q25.6777 -26.749 0 -52.4277l-87.7363 -87.7354
q-27.8184 -27.8184 -55.6367 0l-87.7363 87.7354q-26.748 25.6787 3.20996 55.6377l82.3857 82.3857q29.959 29.958 60.9873 -1.07031zM466.049 -156.221l83.4551 -84.5254q26.749 -25.6787 1.07031 -52.4277l-87.7354 -87.7354q-27.8193 -27.8184 -55.6377 0
l-87.7354 87.7354q-26.749 26.749 3.20996 55.6377l81.3154 82.3857q31.0283 29.958 62.0576 -1.07031zM163.254 -156.221l83.4551 -84.5254q26.749 -25.6787 1.07031 -52.4277l-87.7354 -87.7354q-28.8887 -27.8184 -55.6377 0l-87.7354 87.7354
q-26.749 26.749 3.20996 55.6377l81.3164 82.3857q29.958 29.958 62.0566 -1.07031z" />
    <glyph glyph-name="uniFB7A" unicode="&#x686;" horiz-adv-x="1227" arabic-form="isolated" 
d="M113 589q161 236 349 236q30 0 67 -10t186 -83q148 -72 224 -99q77 -26 164 -38l-22 -166q-122 -9 -143 -11q-230 -28 -381 -115q-307 -177 -307 -435q0 -147 108 -233q107 -87 375 -88q186 0 353 48l51 -147q-196 -60 -402 -60q-389 0 -540 177q-104 122 -104 300
t96 323q144 217 459 310q91 27 175 34q-65 16 -188 74t-156 58q-127 0 -255 -165zM771.696 -70.7695l84.5264 -84.5254q25.6777 -26.749 0 -52.4277l-87.7363 -87.7354q-27.8184 -27.8184 -55.6367 0l-87.7363 87.7354q-26.748 25.6787 3.20996 55.6377l82.3857 82.3857
q29.959 29.958 60.9873 -1.07031zM930.049 151.779l83.4551 -84.5254q26.749 -25.6787 1.07031 -52.4277l-87.7354 -87.7354q-27.8193 -27.8184 -55.6377 0l-87.7354 87.7354q-26.749 26.749 3.20996 55.6377l81.3154 82.3857q31.0283 29.958 62.0576 -1.07031z
M627.254 151.779l83.4551 -84.5254q26.749 -25.6787 1.07031 -52.4277l-87.7354 -87.7354q-28.8887 -27.8184 -55.6377 0l-87.7354 87.7354q-26.749 26.749 3.20996 55.6377l81.3164 82.3857q29.958 29.958 62.0566 -1.07031z" />
    <glyph glyph-name="uniFB7B" unicode="&#x686;" horiz-adv-x="1305" arabic-form="final" 
d="M696.696 -105.77l84.5264 -84.5254q25.6777 -26.749 0 -52.4277l-87.7363 -87.7354q-27.8184 -27.8184 -55.6367 0l-87.7363 87.7354q-26.748 25.6787 3.20996 55.6377l82.3857 82.3857q29.959 29.958 60.9873 -1.07031zM855.049 116.779l83.4551 -84.5254
q26.749 -25.6787 1.07031 -52.4277l-87.7354 -87.7354q-27.8193 -27.8184 -55.6377 0l-87.7354 87.7354q-26.749 26.749 3.20996 55.6377l81.3154 82.3857q31.0283 29.958 62.0576 -1.07031zM552.254 116.779l83.4551 -84.5254q26.749 -25.6787 1.07031 -52.4277
l-87.7354 -87.7354q-28.8887 -27.8184 -55.6377 0l-87.7354 87.7354q-26.749 26.749 3.20996 55.6377l81.3164 82.3857q29.958 29.958 62.0566 -1.07031zM1293 0q-357 0 -413 410q-199 -36 -342 -119q-287 -166 -287 -423q0 -147 108 -233q107 -87 375 -88q192 0 356 47
l48 -146q-199 -61 -411 -61q-384 0 -533 175q-103 121 -103 299q0 179 99 329t291 239q193 89 342 102q-65 17 -143 54q-78 36 -111 50q-64 27 -91 29q-118 10 -255 -165l-109 89q161 236 349 236q30 0 67 -10t186 -83q148 -72 224 -99q77 -26 164 -38l-22 -165
q-39 -3 -68 -5q33 -250 272 -250h30v-174h-23z" />
    <glyph glyph-name="uniFB7C" unicode="&#x686;" horiz-adv-x="1332" arabic-form="initial" 
d="M621 90q-185 -90 -575 -90h-56v175h28q347 0 484 49q233 85 419 175q-80 9 -247 83t-264 88q-114 17 -240 -150l-109 84q95 133 150 173q124 90 291 45q54 -14 366 -150q204 -88 373 -77l-23 -138q-80 -17 -597 -267zM773.696 -377.77l84.5264 -84.5254
q25.6777 -26.749 0 -52.4277l-87.7363 -87.7354q-27.8184 -27.8184 -55.6367 0l-87.7363 87.7354q-26.748 25.6787 3.20996 55.6377l82.3857 82.3857q29.959 29.958 60.9873 -1.07031zM932.049 -155.221l83.4551 -84.5254q26.749 -25.6787 1.07031 -52.4277
l-87.7354 -87.7354q-27.8193 -27.8184 -55.6377 0l-87.7354 87.7354q-26.749 26.749 3.20996 55.6377l81.3154 82.3857q31.0283 29.958 62.0576 -1.07031zM629.254 -155.221l83.4551 -84.5254q26.749 -25.6787 1.07031 -52.4277l-87.7354 -87.7354
q-28.8887 -27.8184 -55.6377 0l-87.7354 87.7354q-26.749 26.749 3.20996 55.6377l81.3164 82.3857q29.958 29.958 62.0566 -1.07031z" />
    <glyph glyph-name="uniFB7D" unicode="&#x686;" horiz-adv-x="1343" arabic-form="medial" 
d="M1225 0q-326 0 -390 192q-95 -46 -214 -102q-185 -90 -575 -90h-56v175h28q347 0 484 49q233 85 419 175q-80 9 -247 83t-264 88q-114 17 -240 -150l-109 84q93 130 150 173q122 91 290 46q56 -16 367 -151q204 -88 373 -77l-23 -138q-47 -11 -245 -102q14 -79 273 -79
h108v-176h-129zM730.696 -380.77l84.5264 -84.5254q25.6777 -26.749 0 -52.4277l-87.7363 -87.7354q-27.8184 -27.8184 -55.6367 0l-87.7363 87.7354q-26.748 25.6787 3.20996 55.6377l82.3857 82.3857q29.959 29.958 60.9873 -1.07031zM889.049 -158.221l83.4551 -84.5254
q26.749 -25.6787 1.07031 -52.4277l-87.7354 -87.7354q-27.8193 -27.8184 -55.6377 0l-87.7354 87.7354q-26.749 26.749 3.20996 55.6377l81.3154 82.3857q31.0283 29.958 62.0576 -1.07031zM586.254 -158.221l83.4551 -84.5254q26.749 -25.6787 1.07031 -52.4277
l-87.7354 -87.7354q-28.8887 -27.8184 -55.6377 0l-87.7354 87.7354q-26.749 26.749 3.20996 55.6377l81.3164 82.3857q29.958 29.958 62.0566 -1.07031z" />
    <glyph glyph-name="uniFB8A" unicode="&#x698;" horiz-adv-x="837" arabic-form="isolated" 
d="M551.116 1234.05l83.4561 -83.4561q26.748 -26.749 1.06934 -52.4277l-87.7354 -87.7354q-28.8887 -28.8887 -55.6367 -1.07031l-87.7363 87.7363q-26.748 26.748 3.20996 56.707l81.3164 81.3154q29.958 29.959 62.0566 -1.06934zM703.049 994.381l83.4551 -84.5264
q26.749 -25.6787 1.07031 -52.4268l-87.7354 -87.7363q-27.8193 -27.8184 -55.6377 0l-87.7354 87.7363q-26.749 26.748 3.20996 55.6367l81.3154 82.3857q31.0283 29.959 62.0576 -1.06934zM400.254 994.381l83.4551 -84.5264q26.749 -25.6787 1.07031 -52.4268
l-87.7354 -87.7363q-28.8887 -27.8184 -55.6377 0l-87.7354 87.7363q-26.749 26.748 3.20996 55.6367l81.3164 82.3857q29.958 29.959 62.0566 -1.06934zM674 530q97 -271 68 -479q-79 -552 -644 -556h-2l-71 129q535 38 565 446q7 102 -62 359z" />
    <glyph glyph-name="uniFB8B" unicode="&#x698;" horiz-adv-x="931" arabic-form="final" 
d="M924 0q-140 0 -185 48q-75 -550 -641 -552h-3l-71 129q519 31 566 445q11 95 -62 358l142 102q56 -268 60 -283q25 -72 189 -72h23v-175h-18zM576.116 1235.05l83.4561 -83.4561q26.748 -26.749 1.06934 -52.4277l-87.7354 -87.7354q-28.8887 -28.8887 -55.6367 -1.07031
l-87.7363 87.7363q-26.748 26.748 3.20996 56.707l81.3164 81.3154q29.958 29.959 62.0566 -1.06934zM728.049 995.381l83.4551 -84.5264q26.749 -25.6787 1.07031 -52.4268l-87.7354 -87.7363q-27.8193 -27.8184 -55.6377 0l-87.7354 87.7363
q-26.749 26.748 3.20996 55.6367l81.3154 82.3857q31.0283 29.959 62.0576 -1.06934zM425.254 995.381l83.4551 -84.5264q26.749 -25.6787 1.07031 -52.4268l-87.7354 -87.7363q-28.8887 -27.8184 -55.6377 0l-87.7354 87.7363q-26.749 26.748 3.20996 55.6367
l81.3164 82.3857q29.958 29.959 62.0566 -1.06934z" />
    <glyph glyph-name="uniFB8E" unicode="&#x6a9;" horiz-adv-x="1882" arabic-form="isolated" 
d="M841 0q-309 0 -468 67q-255 107 -282 370q-13 125 30 272l134 -35q-26 -144 -23 -196q13 -277 424 -297q84 -4 144 -4l253 -2h168q213 0 241 136q16 77 -60 161l-261 290q-91 101 -93 170q-5 115 115 180l679 366v-173l-657 -357l328 -363q131 -145 89 -315
q-66 -270 -461 -270h-300z" />
    <glyph glyph-name="uniFB8F" unicode="&#x6a9;" horiz-adv-x="2030" arabic-form="final" 
d="M813 0q-272 0 -431 67q-261 108 -286 386q-10 109 34 256l134 -35q-22 -139 -19 -196q12 -241 321 -289q77 -11 239 -14l451 1q213 0 241 135q16 77 -61 162l-261 289q-91 102 -94 173q-4 110 117 176l679 368v-174l-658 -356l614 -681q56 -62 106.5 -77t88.5 -15h22
v-175h-53q-171 0 -366 257q-30 -258 -455 -258h-363z" />
    <glyph glyph-name="uniFB90" unicode="&#x6a9;" horiz-adv-x="902" arabic-form="initial" 
d="M622 270q-66 -270 -461 -270h-171v175h251q214 0 241 136q16 77 -60 161l-261 290q-91 101 -94 170q-4 115 116 180l679 366v-173l-657 -357l328 -363q131 -145 89 -315z" />
    <glyph glyph-name="uniFB91" unicode="&#x6a9;" horiz-adv-x="1029" arabic-form="medial" 
d="M616 257q-32 -256 -455 -257h-171v175h251q214 0 241 136q16 77 -60 161l-261 290q-91 101 -94 170q-4 115 116 180l679 366v-173l-657 -357l613 -680q83 -93 195 -93h26v-175h-57q-170 0 -366 257z" />
    <glyph glyph-name="uniFB92" unicode="&#x6af;" horiz-adv-x="1882" arabic-form="isolated" 
d="M841 0q-309 0 -468 67q-255 107 -282 370q-13 125 30 272l134 -35q-26 -144 -23 -196q13 -277 424 -297q84 -4 144 -4l253 -2h168q213 0 241 136q16 77 -60 161l-261 290q-91 101 -93 170q-5 115 115 180l679 366v-173l-657 -357l328 -363q131 -145 89 -315
q-66 -270 -461 -270h-300zM1842 1613.09l-719.004 -379.831v124.114l719.004 379.831v-124.114z" />
    <glyph glyph-name="uniFB93" unicode="&#x6af;" horiz-adv-x="2030" arabic-form="final" 
d="M813 0q-272 0 -431 67q-261 108 -286 386q-10 109 34 256l134 -35q-22 -139 -19 -196q12 -241 321 -289q77 -11 239 -14l451 1q213 0 241 135q16 77 -61 162l-261 289q-91 102 -94 173q-4 110 117 176l679 368v-174l-658 -356l614 -681q56 -62 106.5 -77t88.5 -15h22
v-175h-53q-171 0 -366 257q-30 -258 -455 -258h-363zM1878 1611.09l-719.004 -379.831v124.114l719.004 379.831v-124.114z" />
    <glyph glyph-name="uniFB94" unicode="&#x6af;" horiz-adv-x="870" arabic-form="initial" 
d="M622 270q-66 -270 -461 -270h-171v175h251q214 0 241 136q16 77 -60 161l-261 290q-91 101 -94 170q-4 115 116 180l679 366v-173l-657 -357l328 -363q131 -145 89 -315zM857.004 1614.09l-719.004 -379.831v124.114l719.004 379.831v-124.114z" />
    <glyph glyph-name="uniFB95" unicode="&#x6af;" horiz-adv-x="1029" arabic-form="medial" 
d="M616 257q-32 -256 -455 -257h-171v175h251q214 0 241 136q16 77 -60 161l-261 290q-91 101 -94 170q-4 115 116 180l679 366v-173l-657 -357l613 -680q83 -93 195 -93h26v-175h-57q-170 0 -366 257zM862.004 1612.09l-719.004 -379.831v124.114l719.004 379.831v-124.114
z" />
    <glyph glyph-name="uniFB9E" unicode="&#x6ba;" horiz-adv-x="1381" arabic-form="isolated" 
d="M1155 806q128 -214 127 -427q-4 -603 -606 -610q-555 -6 -585 511q-5 79 17 192t72 220l140 -54q-89 -219 -73 -371q39 -345 430 -343q430 3 449 400q8 178 -112 347z" />
    <glyph glyph-name="uniFB9F" unicode="&#x6ba;" horiz-adv-x="1384" arabic-form="final" 
d="M659 -488q-408 -6 -532 284q-63 145 -33 348q20 135 78 265l150 -51q-76 -184 -76 -325q0 -31 4 -61q39 -297 412 -297q382 -1 423 328q27 214 -106 384l138 132q56 -153 107 -248q52 -96 135 -96h36v-175h-35q-83 0 -130 67q4 -540 -571 -555z" />
    <glyph glyph-name="uniFBA5.fina" unicode="&#x6c0;" horiz-adv-x="1080" arabic-form="final" 
d="M620 1510q102 20 188 -31v-105l-19 9q-61 31 -123 24q-93 -10 -100 -82q-6 -78 101 -110q33 -10 164 20v-109l-367 -82v107l87 20q-85 53 -85 146t64 150q37 32 90 43zM697 388q-15 157 -32 270q-403 -75 -417 -186q-10 -80 76 -97q124 -25 373 13zM645 797
q-1 28 -14 124l149 37q53 -507 63.5 -564t17.5 -81q6 -25 15 -44q8 -20 17 -35q19 -29 42 -39q47 -20 136 -20h19v-175h-40q-295 0 -335 241q-497 -79 -603 124q-19 36 -20 84q-7 240 553 348z" />
    <glyph glyph-name="uniFBAC" unicode="&#x6be;" horiz-adv-x="1151" arabic-form="initial" 
d="M719 501q26 -98 -12 -175.5t-160 -152.5q338 -138 375 52q20 105 -203 276zM384 71q-156 -71 -375 -71h-19v175h60q1 0 110 1q-62 81 -57.5 187t60.5 193q75 118 198 155q34 11 58 9q-40 23 -64 35l53 122l335 -213q297 -196 316 -367q31 -291 -249 -321
q-175 -19 -426 95zM589 384q58 129 -20 181q-138 93 -248 -40q-57 -68 -67 -134q-23 -142 121 -190q168 83 214 183z" />
    <glyph glyph-name="uniFBAD" unicode="&#x6be;" horiz-adv-x="957" arabic-form="medial" 
d="M313 175l36 2q76 4 115 62q68 102 68 244q0 78 -21 111q-21 32 -63 32q-95 0 -121 -159q-24 -156 -14 -292zM417 -528q-219 143 -243 528h-185v175h183q-10 301 45 426q73 166 232 166q187 -1 228 -185q7 -34 7 -72q0 -280 -173 -438q-79 -71 -188 -72q5 -190 94 -340
q43 283 245 434q104 79 240 82l66 -1v-175h-108q-235 -1 -358 -494z" />
    <glyph glyph-name="uniFBE8" unicode="&#x649;" horiz-adv-x="604" arabic-form="initial" 
d="M416 76q-89 -76 -335 -76h-91v175h104q60 0 103 6q110 14 138 80t17 199.5t-34 225.5l152 33q36 -92 43 -240q16 -307 -97 -403z" />
    <glyph glyph-name="uniFBE9" unicode="&#x649;" horiz-adv-x="702" arabic-form="medial" 
d="M396 96q-86 -96 -234 -96h-172v175h125q114 0 164 49.5t51 121.5l5 212l145 25l8 -237q3 -76 60 -126q52 -45 142 -45h23v-175h-46q-161 0 -249 95l-11 13z" />
    <glyph glyph-name="uniFBFC" unicode="&#x6cc;" horiz-adv-x="1387" arabic-form="isolated" 
d="M983 151l55 1q101 0 159 -24q99 -40 99 -150q0 -144 -130 -265q-127 -118 -352 -152q-60 -9 -127 -9q-181 0 -325 62q-362 158 -238 674q19 81 77 204l133 -75q-32 -73 -50 -138q-69 -243 -6 -371q99 -200 407 -199q166 0 273 49q189 86 193 173q4 66 -77 65h-88
q-241 4 -255 153q-7 72 18 148q53 154 192 272q133 113 266 115q45 0 85 -10l-57 -172h-4q-157 0 -285 -153q-54 -65 -64 -131.5t101 -66.5z" />
    <glyph glyph-name="uniFBFD" unicode="&#x6cc;" horiz-adv-x="1398" arabic-form="final" 
d="M1408 175v-175l-122 1l-162 -1q-53 0 -67 -28q-13 -28 14 -43t66 -19q40 -5 55 -7q31 -6 53 -14q75 -28 75 -123q0 -150 -103 -239q-199 -172 -557 -171q-567 1 -569 481q0 70 29 200q28 130 116 261l130 -59q-88 -133 -116 -294t46 -274q97 -147 402 -147q267 0 402 99
q72 52 72 101q0 40 -74 45q-208 15 -208 199q0 54 28 107q55 101 213 101z" />
    <glyph glyph-name="uniFBFE" unicode="&#x6cc;" horiz-adv-x="616" arabic-form="initial" 
d="M416 76q-89 -76 -335 -76h-91v175h104q60 0 103 6q110 14 138 80t17 199.5t-34 225.5l152 33q36 -92 43 -240q16 -307 -97 -403zM465.979 -202.78l83.4561 -84.5254q26.748 -25.6787 1.06934 -52.4277l-87.7354 -87.7354q-28.8887 -27.8184 -55.6367 0l-87.7363 87.7354
q-26.748 26.749 3.20996 55.6377l81.3164 82.3857q29.958 29.958 62.0566 -1.07031zM163.184 -202.78l83.4561 -84.5254q26.749 -25.6787 1.06934 -52.4277l-87.7354 -87.7354q-27.8184 -27.8184 -55.6367 0l-87.7354 87.7354q-26.749 26.749 3.20898 55.6377
l81.3164 82.3857q31.0283 29.958 62.0566 -1.07031z" />
    <glyph glyph-name="uniFBFF" unicode="&#x6cc;" horiz-adv-x="702" arabic-form="medial" 
d="M396 96q-86 -96 -234 -96h-172v175h125q114 0 164 49.5t51 121.5l5 212l145 25l8 -237q3 -76 60 -126q52 -45 142 -45h23v-175h-46q-161 0 -249 95l-11 13zM468.979 -203.78l83.4561 -84.5254q26.748 -25.6787 1.06934 -52.4277l-87.7354 -87.7354
q-28.8887 -27.8184 -55.6367 0l-87.7363 87.7354q-26.748 26.749 3.20996 55.6377l81.3164 82.3857q29.958 29.958 62.0566 -1.07031zM166.184 -203.78l83.4561 -84.5254q26.749 -25.6787 1.06934 -52.4277l-87.7354 -87.7354q-27.8184 -27.8184 -55.6367 0
l-87.7354 87.7354q-26.749 26.749 3.20898 55.6377l81.3164 82.3857q31.0283 29.958 62.0566 -1.07031z" />
    <glyph glyph-name="uniFDFC" unicode="&#xfdfc;" horiz-adv-x="2882" arabic-form="isolated" 
d="M1159 162q4 -544 -509 -555q-380 -9 -507 284q-62 145 -33 348q20 135 78 265l150 -51q-74 -179 -76 -325q0 -31 4 -61q42 -297 386 -297q330 -1 375 328q5 34 5 112l-2 239l-31 961l163 68v-1029q0 -280 -3 -287zM1533 420q0 -245 221 -245h22v-175h-42q-180 0 -264 125
q-55 83 -62 282l-38 999l163 72v-1058zM2051.98 -113.78l83.4561 -84.5254q26.749 -25.6787 1.06934 -52.4277l-87.7354 -87.7354q-28.8887 -27.8184 -55.6367 0l-87.7363 87.7354q-26.748 26.749 3.20996 55.6377l81.3164 82.3857q29.958 29.958 62.0566 -1.07031z
M1749.18 -113.78l83.4561 -84.5254q26.749 -25.6787 1.06934 -52.4277l-87.7354 -87.7354q-27.8184 -27.8184 -55.6367 0l-87.7354 87.7354q-26.749 26.749 3.20898 55.6377l81.3164 82.3857q31.0283 29.958 62.0566 -1.07031zM2186 76q-89 -76 -335 -76h-91v175h104
q60 0 103 6q110 14 138 80t17 199.5t-34 225.5l152 33q36 -92 43 -240q16 -307 -97 -403zM2704 530q97 -271 68 -479q-79 -552 -644 -556h-2l-71 129q535 38 565 446q7 102 -62 359z" />
    <glyph glyph-name="uniFE71" unicode="&#xfe71;" horiz-adv-x="642" arabic-form="medial" 
d="M-10 0v175h668v-175h-668zM75 1058v115l504 206v-115zM75 1332v114l504 206v-115z" />
    <glyph glyph-name="uniFE77" unicode="&#xfe77;" horiz-adv-x="642" arabic-form="medial" 
d="M44 1330v115l504 206v-115zM-10 0v175h668v-175h-668z" />
    <glyph glyph-name="uniFE79" unicode="&#xfe79;" horiz-adv-x="642" arabic-form="medial" 
d="M596 1464q-57 1 -132 9q-53 -74 -128 -120q-118 -74 -252 -79v89q131 4 209 69q35 29 50 45l21 23q-37 8 -76 28q-38 20 -66 59q-28 38 -28 85q0 81 67 131q46 34 101 34q70 0 119 -48q48 -47 48 -129q0 -34 -15 -82l-7 -21l23 -2q38 -2 66 -2v-89zM416 1572l13 30
q11 27 11 66t-25 59q-25 21 -54 21q-30 0 -52 -17q-25 -21 -26 -54q-1 -56 64 -82q23 -9 69 -23zM-10 0v175h668v-175h-668z" />
    <glyph glyph-name="uniFE7B" unicode="&#xfe7b;" horiz-adv-x="642" arabic-form="medial" 
d="M91 -353v115l504 206v-115zM-10 0v175h668v-175h-668z" />
    <glyph glyph-name="uniFE7D" unicode="&#xfe7d;" horiz-adv-x="642" arabic-form="medial" 
d="M350 1532q-30 -165 -175 -165q-144 0 -145 186q0 37 16 141h75q-13 -90 -13 -118q0 -113 80 -113q110 0 116 144q1 40 1 87v56h74q2 -36 2 -84q0 -141 122 -141h1q74 1 74 119q1 106 -11 168h80q11 -79 11 -173q0 -153 -84 -189q-33 -14 -65 -15q-71 -3 -108 24
q-45 33 -51 73zM-10 0v175h668v-175h-668z" />
    <glyph glyph-name="uniFE7F" unicode="&#xfe7f;" horiz-adv-x="642" arabic-form="medial" 
d="M-10 0v175h668v-175h-668zM480 1457q0 49 -34 83t-83 34q-50 0 -84 -34t-34 -83q0 -50 34 -83.5t84 -33.5q49 0 83 34t34 83zM552 1457.5q0 -79.5 -54.5 -135t-134.5 -55.5q-26 0 -50 6.5t-45 18.5t-39 30q-28 28 -41.5 61.5t-13.5 73.5q0 80 55 134.5t134.5 54.5
t134 -54.5t54.5 -134z" />
    <glyph glyph-name="uniFE80" unicode="&#x621;" horiz-adv-x="734" arabic-form="isolated" 
d="M86 -9v140l199 79q-198 59 -195 254q2 162 134 242t336 35v-146q-155 42 -239 -1t-83 -139q0 -123 153 -150q37 -6 83.5 -4t173.5 58v-145z" />
    <glyph glyph-name="uniFE81" unicode="&#x622;" horiz-adv-x="423" arabic-form="isolated" 
d="M-2 1513l-86 77q101 169 239 143l127 -24q72 -14 184 54l61 -89q-95 -107 -254 -80l-119 20q-96 16 -152 -101zM130 1408l163 71v-1477h-112z" />
    <glyph glyph-name="uniFE82" unicode="&#x622;" horiz-adv-x="526" arabic-form="final" 
d="M293 420q0 -245 221 -245h22v-175h-42q-180 0 -264 125q-55 83 -62 282l-38 999l163 72v-1058zM47 1513l-86 77q101 169 239 143l127 -24q72 -14 184 54l61 -89q-95 -107 -254 -80l-119 20q-96 16 -152 -101z" />
    <glyph glyph-name="uniFE83" unicode="&#x623;" horiz-adv-x="423" arabic-form="isolated" 
d="M189 1995q102 20 188 -31v-105l-19 9q-61 31 -123 24q-93 -10 -100 -82q-6 -78 101 -110q33 -10 164 20v-109l-367 -82v107l87 20q-85 53 -85 146t64 150q37 32 90 43zM130 1408l163 71v-1477h-112z" />
    <glyph glyph-name="uniFE84" unicode="&#x623;" horiz-adv-x="526" arabic-form="final" 
d="M293 420q0 -245 221 -245h22v-175h-42q-180 0 -264 125q-55 83 -62 282l-38 999l163 72v-1058zM213 1997q102 20 188 -31v-105l-19 9q-61 31 -123 24q-93 -10 -100 -82q-6 -78 101 -110q33 -10 164 20v-109l-367 -82v107l87 20q-85 53 -85 146t64 150q37 32 90 43z" />
    <glyph glyph-name="uniFE85" unicode="&#x624;" horiz-adv-x="841" arabic-form="isolated" 
d="M386 1269q102 20 188 -31v-105l-19 9q-61 31 -123 24q-93 -10 -100 -82q-6 -78 101 -110q33 -10 164 20v-109l-367 -82v107l87 20q-85 53 -85 146t64 150q37 32 90 43zM416 517q-127 -4 -170 -173q-44 -170 99 -196t250 55q5 34 -10 123q-31 195 -169 191zM677 530
q106 -221 58 -550q-20 -143 -110 -258q-174 -226 -528 -229h-2l-71 132q524 31 565 418q-59 -49 -198 -51q-177 -3 -242 91q-66 93 -51 209q26 191 134 301q107 110 257 79q132 -27 188 -142z" />
    <glyph glyph-name="uniFE86" unicode="&#x624;" horiz-adv-x="854" arabic-form="final" 
d="M527 477q-36 39 -82 38q-81 -2 -124 -52q-64 -73 -70 -147.5t33 -110t107 -41t204 1.5q1 236 -68 311zM586 1h-165q-179 0 -255.5 88t-61.5 216q19 171 125 273q137 132 293 82q99 -33 151.5 -141.5t65.5 -258.5q6 -72 7 -85h119v-175h-133q-27 -181 -148 -321
q-159 -185 -490 -185h-2l-68 132q495 30 562 375zM404 1293q102 20 188 -31v-105l-19 9q-61 31 -123 24q-93 -10 -100 -82q-6 -78 101 -110q33 -10 164 20v-109l-367 -82v107l87 20q-85 53 -85 146t64 150q37 32 90 43z" />
    <glyph glyph-name="uniFE87" unicode="&#x625;" horiz-adv-x="423" arabic-form="isolated" 
d="M278 -75q102 20 188 -31v-105l-19 9q-61 31 -123 24q-93 -10 -100 -82q-6 -78 101 -110q33 -10 164 20v-109l-367 -82v107l87 20q-85 53 -85 146t64 150q37 32 90 43zM130 1408l163 71v-1477h-112z" />
    <glyph glyph-name="uniFE88" unicode="&#x625;" horiz-adv-x="526" arabic-form="final" 
d="M293 420q0 -245 221 -245h22v-175h-42q-180 0 -264 125q-55 83 -62 282l-38 999l163 72v-1058zM333 -75q102 20 188 -31v-105l-19 9q-61 31 -123 24q-93 -10 -100 -82q-6 -78 101 -110q33 -10 164 20v-109l-367 -82v107l87 20q-85 53 -85 146t64 150q37 32 90 43z" />
    <glyph glyph-name="uniFE89" unicode="&#x626;" horiz-adv-x="1387" arabic-form="isolated" 
d="M511 1185q102 20 188 -31v-105l-19 9q-61 31 -123 24q-93 -10 -100 -82q-6 -78 101 -110q33 -10 164 20v-109l-367 -82v107l87 20q-85 53 -85 146t64 150q37 32 90 43zM983 151l55 1q101 0 159 -24q99 -40 99 -150q0 -144 -130 -265q-127 -118 -352 -152q-60 -9 -127 -9
q-181 0 -325 62q-362 158 -238 674q19 81 77 204l133 -75q-32 -73 -50 -138q-69 -243 -6 -371q99 -200 407 -199q166 0 273 49q189 86 193 173q4 66 -77 65h-88q-241 4 -255 153q-7 72 18 148q53 154 192 272q133 113 266 115q45 0 85 -10l-57 -172h-4q-157 0 -285 -153
q-54 -65 -64 -131.5t101 -66.5z" />
    <glyph glyph-name="uniFE8A" unicode="&#x626;" horiz-adv-x="1398" arabic-form="final" 
d="M1408 175v-175l-122 1l-162 -1q-53 0 -67 -28q-13 -28 14 -43t66 -19q40 -5 55 -7q31 -6 53 -14q75 -28 75 -123q0 -150 -103 -239q-199 -172 -557 -171q-567 1 -569 481q0 70 29 200q28 130 116 261l130 -59q-88 -133 -116 -294t46 -274q97 -147 402 -147q267 0 402 99
q72 52 72 101q0 40 -74 45q-208 15 -208 199q0 54 28 107q55 101 213 101zM614 844q102 20 188 -31v-105l-19 9q-61 31 -123 24q-93 -10 -100 -82q-6 -78 101 -110q33 -10 164 20v-109l-367 -82v107l87 20q-85 53 -85 146t64 150q37 32 90 43z" />
    <glyph glyph-name="uniFE8B" unicode="&#x626;" horiz-adv-x="604" arabic-form="initial" 
d="M416 76q-89 -76 -335 -76h-91v175h104q60 0 103 6q110 14 138 80t17 199.5t-34 225.5l152 33q36 -92 43 -240q16 -307 -97 -403zM264 1339q102 20 188 -31v-105l-19 9q-61 31 -123 24q-93 -10 -100 -82q-6 -78 101 -110q33 -10 164 20v-109l-367 -82v107l87 20
q-85 53 -85 146t64 150q37 32 90 43z" />
    <glyph glyph-name="uniFE8C" unicode="&#x626;" horiz-adv-x="702" arabic-form="medial" 
d="M396 96q-86 -96 -234 -96h-172v175h125q114 0 164 49.5t51 121.5l5 212l145 25l8 -237q3 -76 60 -126q52 -45 142 -45h23v-175h-46q-161 0 -249 95l-11 13zM290 1225q102 20 188 -31v-105l-19 9q-61 31 -123 24q-93 -10 -100 -82q-6 -78 101 -110q33 -10 164 20v-109
l-367 -82v107l87 20q-85 53 -85 146t64 150q37 32 90 43z" />
    <glyph glyph-name="uniFE8D" unicode="&#x627;" horiz-adv-x="423" arabic-form="isolated" 
d="M130 1408l163 71v-1477h-112z" />
    <glyph glyph-name="uniFE8E" unicode="&#x627;" horiz-adv-x="526" arabic-form="final" 
d="M293 420q0 -245 221 -245h22v-175h-42q-180 0 -264 125q-55 83 -62 282l-38 999l163 72v-1058z" />
    <glyph glyph-name="uniFE8F" unicode="&#x628;" horiz-adv-x="1738" arabic-form="isolated" 
d="M867 1q-332 -1 -491 66q-260 108 -285 386q-10 109 33 256l134 -35q-22 -139 -19 -196q14 -278 422 -298q63 -3 218.5 -2.5t184.5 3.5q407 39 419 136q8 66 -4.5 190.5t-37.5 201.5l165 84q27 -112 40 -244q23 -239 -27 -349q-92 -197 -752 -199zM924.484 -207.78
l83.4561 -84.5254q26.748 -25.6787 1.06934 -52.4277l-87.7354 -87.7354q-27.8184 -27.8184 -55.6377 0l-87.7354 87.7354q-26.748 26.749 3.20996 55.6377l81.3164 82.3857q31.0283 29.958 62.0566 -1.07031z" />
    <glyph glyph-name="uniFE90" unicode="&#x628;" horiz-adv-x="2006" arabic-form="final" 
d="M856 0q-321 0 -480 67q-258 107 -282 374q-11 125 30 268l134 -35q-20 -133 -17 -196q9 -242 319 -289q76 -11 243 -12q456 -1 615 74q187 89 213 293h114q14 -167 40.5 -231.5t53.5 -90.5q47 -47 141 -47h42v-175h-64q-220 0 -309 207q-49 -57 -179 -118
q-189 -89 -614 -89zM915.484 -203.78l83.4561 -84.5254q26.748 -25.6787 1.06934 -52.4277l-87.7354 -87.7354q-27.8184 -27.8184 -55.6377 0l-87.7354 87.7354q-26.748 26.749 3.20996 55.6377l81.3164 82.3857q31.0283 29.958 62.0566 -1.07031z" />
    <glyph glyph-name="uniFE91" unicode="&#x628;" horiz-adv-x="598" arabic-form="initial" 
d="M416 76q-89 -76 -335 -76h-91v175h104q60 0 103 6q110 14 138 80t17 199.5t-34 225.5l152 33q36 -92 43 -240q16 -307 -97 -403zM250.484 -202.78l83.4561 -84.5254q26.748 -25.6787 1.06934 -52.4277l-87.7354 -87.7354q-27.8184 -27.8184 -55.6377 0l-87.7354 87.7354
q-26.748 26.749 3.20996 55.6377l81.3164 82.3857q31.0283 29.958 62.0566 -1.07031z" />
    <glyph glyph-name="uniFE92" unicode="&#x628;" horiz-adv-x="697" arabic-form="medial" 
d="M396 96q-86 -96 -234 -96h-172v175h125q114 0 164 49.5t51 121.5l5 212l145 25l8 -237q3 -76 60 -126q52 -45 142 -45h23v-175h-46q-161 0 -249 95l-11 13zM238.484 -201.78l83.4561 -84.5254q26.748 -25.6787 1.06934 -52.4277l-87.7354 -87.7354
q-27.8184 -27.8184 -55.6377 0l-87.7354 87.7354q-26.748 26.749 3.20996 55.6377l81.3164 82.3857q31.0283 29.958 62.0566 -1.07031z" />
    <glyph glyph-name="uniFE93" unicode="&#x629;" horiz-adv-x="911" arabic-form="isolated" 
d="M450 626q-241 -243 -184 -392q17 -46 87 -68q99 -32 198 -5q77 22 94 80q39 129 -108 294q-68 75 -87 91zM461 4q-312 3 -355 231q-26 138 51 262q98 156 172 231l-38 33l106 113q271 -198 364 -397q74 -159 43 -267q-59 -210 -343 -206zM603.979 1322.22
l83.4561 -84.5254q26.748 -25.6787 1.06934 -52.4277l-87.7354 -87.7354q-28.8887 -27.8184 -55.6367 0l-87.7363 87.7354q-26.748 26.749 3.20996 55.6377l81.3164 82.3857q29.958 29.958 62.0566 -1.07031zM301.184 1322.22l83.4561 -84.5254
q26.749 -25.6787 1.06934 -52.4277l-87.7354 -87.7354q-27.8184 -27.8184 -55.6367 0l-87.7354 87.7354q-26.749 26.749 3.20898 55.6377l81.3164 82.3857q31.0283 29.958 62.0566 -1.07031z" />
    <glyph glyph-name="uniFE94" unicode="&#x629;" horiz-adv-x="1080" arabic-form="final" 
d="M697 388q-15 157 -32 270q-403 -75 -417 -186q-10 -80 76 -97q124 -25 373 13zM645 797q-1 28 -14 124l149 37q53 -507 63.5 -564t17.5 -81q6 -25 15 -44q8 -20 17 -35q19 -29 42 -39q47 -20 136 -20h19v-175h-40q-295 0 -335 241q-497 -79 -603 124q-19 36 -20 84
q-7 240 553 348zM833.979 1340.22l83.4561 -84.5254q26.748 -25.6787 1.06934 -52.4277l-87.7354 -87.7354q-28.8887 -27.8184 -55.6367 0l-87.7363 87.7354q-26.748 26.749 3.20996 55.6377l81.3164 82.3857q29.958 29.958 62.0566 -1.07031zM531.184 1340.22
l83.4561 -84.5254q26.749 -25.6787 1.06934 -52.4277l-87.7354 -87.7354q-27.8184 -27.8184 -55.6367 0l-87.7354 87.7354q-26.749 26.749 3.20898 55.6377l81.3164 82.3857q31.0283 29.958 62.0566 -1.07031z" />
    <glyph glyph-name="uniFE95" unicode="&#x62a;" horiz-adv-x="1738" arabic-form="isolated" 
d="M867 1q-332 -1 -491 66q-260 108 -285 386q-10 109 33 256l134 -35q-22 -139 -19 -196q14 -278 422 -298q63 -3 218.5 -2.5t184.5 3.5q407 39 419 136q8 66 -4.5 190.5t-37.5 201.5l165 84q27 -112 40 -244q23 -239 -27 -349q-92 -197 -752 -199zM1026.98 1045.22
l83.4561 -84.5254q26.748 -25.6787 1.06934 -52.4277l-87.7354 -87.7354q-28.8887 -27.8184 -55.6367 0l-87.7363 87.7354q-26.748 26.749 3.20996 55.6377l81.3164 82.3857q29.958 29.958 62.0566 -1.07031zM724.184 1045.22l83.4561 -84.5254
q26.749 -25.6787 1.06934 -52.4277l-87.7354 -87.7354q-27.8184 -27.8184 -55.6367 0l-87.7354 87.7354q-26.749 26.749 3.20898 55.6377l81.3164 82.3857q31.0283 29.958 62.0566 -1.07031z" />
    <glyph glyph-name="uniFE96" unicode="&#x62a;" horiz-adv-x="2006" arabic-form="final" 
d="M856 0q-321 0 -480 67q-258 107 -282 374q-11 125 30 268l134 -35q-20 -133 -17 -196q9 -242 319 -289q76 -11 243 -12q456 -1 615 74q187 89 213 293h114q14 -167 40.5 -231.5t53.5 -90.5q47 -47 141 -47h42v-175h-64q-220 0 -309 207q-49 -57 -179 -118
q-189 -89 -614 -89zM1096.98 1011.22l83.4561 -84.5254q26.748 -25.6787 1.06934 -52.4277l-87.7354 -87.7354q-28.8887 -27.8184 -55.6367 0l-87.7363 87.7354q-26.748 26.749 3.20996 55.6377l81.3164 82.3857q29.958 29.958 62.0566 -1.07031zM794.184 1011.22
l83.4561 -84.5254q26.749 -25.6787 1.06934 -52.4277l-87.7354 -87.7354q-27.8184 -27.8184 -55.6367 0l-87.7354 87.7354q-26.749 26.749 3.20898 55.6377l81.3164 82.3857q31.0283 29.958 62.0566 -1.07031z" />
    <glyph glyph-name="uniFE97" unicode="&#x62a;" horiz-adv-x="613" arabic-form="initial" 
d="M416 76q-89 -76 -335 -76h-91v175h104q60 0 103 6q110 14 138 80t17 199.5t-34 225.5l152 33q36 -92 43 -240q16 -307 -97 -403zM463.979 1137.22l83.4561 -84.5254q26.748 -25.6787 1.06934 -52.4277l-87.7354 -87.7354q-28.8887 -27.8184 -55.6367 0l-87.7363 87.7354
q-26.748 26.749 3.20996 55.6377l81.3164 82.3857q29.958 29.958 62.0566 -1.07031zM161.184 1137.22l83.4561 -84.5254q26.749 -25.6787 1.06934 -52.4277l-87.7354 -87.7354q-27.8184 -27.8184 -55.6367 0l-87.7354 87.7354q-26.749 26.749 3.20898 55.6377
l81.3164 82.3857q31.0283 29.958 62.0566 -1.07031z" />
    <glyph glyph-name="uniFE98" unicode="&#x62a;" horiz-adv-x="702" arabic-form="medial" 
d="M396 96q-86 -96 -234 -96h-172v175h125q114 0 164 49.5t51 121.5l5 212l145 25l8 -237q3 -76 60 -126q52 -45 142 -45h23v-175h-46q-161 0 -249 95l-11 13zM475.979 1016.22l83.4561 -84.5254q26.748 -25.6787 1.06934 -52.4277l-87.7354 -87.7354
q-28.8887 -27.8184 -55.6367 0l-87.7363 87.7354q-26.748 26.749 3.20996 55.6377l81.3164 82.3857q29.958 29.958 62.0566 -1.07031zM173.184 1016.22l83.4561 -84.5254q26.749 -25.6787 1.06934 -52.4277l-87.7354 -87.7354q-27.8184 -27.8184 -55.6367 0
l-87.7354 87.7354q-26.749 26.749 3.20898 55.6377l81.3164 82.3857q31.0283 29.958 62.0566 -1.07031z" />
    <glyph glyph-name="uniFE99" unicode="&#x62b;" horiz-adv-x="1738" arabic-form="isolated" 
d="M867 1q-332 -1 -491 66q-260 108 -285 386q-10 109 33 256l134 -35q-22 -139 -19 -196q14 -278 422 -298q63 -3 218.5 -2.5t184.5 3.5q407 39 419 136q8 66 -4.5 190.5t-37.5 201.5l165 84q27 -112 40 -244q23 -239 -27 -349q-92 -197 -752 -199zM903.116 1220.05
l83.4561 -83.4561q26.748 -26.749 1.06934 -52.4277l-87.7354 -87.7354q-28.8887 -28.8887 -55.6367 -1.07031l-87.7363 87.7363q-26.748 26.748 3.20996 56.707l81.3164 81.3154q29.958 29.959 62.0566 -1.06934zM1055.05 980.381l83.4551 -84.5264
q26.749 -25.6787 1.07031 -52.4268l-87.7354 -87.7363q-27.8193 -27.8184 -55.6377 0l-87.7354 87.7363q-26.749 26.748 3.20996 55.6367l81.3154 82.3857q31.0283 29.959 62.0576 -1.06934zM752.254 980.381l83.4551 -84.5264q26.749 -25.6787 1.07031 -52.4268
l-87.7354 -87.7363q-28.8887 -27.8184 -55.6377 0l-87.7354 87.7363q-26.749 26.748 3.20996 55.6367l81.3164 82.3857q29.958 29.959 62.0566 -1.06934z" />
    <glyph glyph-name="uniFE9A" unicode="&#x62b;" horiz-adv-x="2006" arabic-form="final" 
d="M856 0q-321 0 -480 67q-258 107 -282 374q-11 125 30 268l134 -35q-20 -133 -17 -196q9 -242 319 -289q76 -11 243 -12q456 -1 615 74q187 89 213 293h114q14 -167 40.5 -231.5t53.5 -90.5q47 -47 141 -47h42v-175h-64q-220 0 -309 207q-49 -57 -179 -118
q-189 -89 -614 -89zM921.116 1163.05l83.4561 -83.4561q26.748 -26.749 1.06934 -52.4277l-87.7354 -87.7354q-28.8887 -28.8887 -55.6367 -1.07031l-87.7363 87.7363q-26.748 26.748 3.20996 56.707l81.3164 81.3154q29.958 29.959 62.0566 -1.06934zM1073.05 923.381
l83.4551 -84.5264q26.749 -25.6787 1.07031 -52.4268l-87.7354 -87.7363q-27.8193 -27.8184 -55.6377 0l-87.7354 87.7363q-26.749 26.748 3.20996 55.6367l81.3154 82.3857q31.0283 29.959 62.0576 -1.06934zM770.254 923.381l83.4551 -84.5264
q26.749 -25.6787 1.07031 -52.4268l-87.7354 -87.7363q-28.8887 -27.8184 -55.6377 0l-87.7354 87.7363q-26.749 26.748 3.20996 55.6367l81.3164 82.3857q29.958 29.959 62.0566 -1.06934z" />
    <glyph glyph-name="uniFE9B" unicode="&#x62b;" horiz-adv-x="613" arabic-form="initial" 
d="M416 76q-89 -76 -335 -76h-91v175h104q60 0 103 6q110 14 138 80t17 199.5t-34 225.5l152 33q36 -92 43 -240q16 -307 -97 -403zM312.116 1379.05l83.4561 -83.4561q26.748 -26.749 1.06934 -52.4277l-87.7354 -87.7354q-28.8887 -28.8887 -55.6367 -1.07031
l-87.7363 87.7363q-26.748 26.748 3.20996 56.707l81.3164 81.3154q29.958 29.959 62.0566 -1.06934zM464.049 1139.38l83.4551 -84.5264q26.749 -25.6787 1.07031 -52.4268l-87.7354 -87.7363q-27.8193 -27.8184 -55.6377 0l-87.7354 87.7363
q-26.749 26.748 3.20996 55.6367l81.3154 82.3857q31.0283 29.959 62.0576 -1.06934zM161.254 1139.38l83.4551 -84.5264q26.749 -25.6787 1.07031 -52.4268l-87.7354 -87.7363q-28.8887 -27.8184 -55.6377 0l-87.7354 87.7363q-26.749 26.748 3.20996 55.6367
l81.3164 82.3857q29.958 29.959 62.0566 -1.06934z" />
    <glyph glyph-name="uniFE9C" unicode="&#x62b;" horiz-adv-x="702" arabic-form="medial" 
d="M396 96q-86 -96 -234 -96h-172v175h125q114 0 164 49.5t51 121.5l5 212l145 25l8 -237q3 -76 60 -126q52 -45 142 -45h23v-175h-46q-161 0 -249 95l-11 13zM323.116 1250.05l83.4561 -83.4561q26.748 -26.749 1.06934 -52.4277l-87.7354 -87.7354
q-28.8887 -28.8887 -55.6367 -1.07031l-87.7363 87.7363q-26.748 26.748 3.20996 56.707l81.3164 81.3154q29.958 29.959 62.0566 -1.06934zM475.049 1010.38l83.4551 -84.5264q26.749 -25.6787 1.07031 -52.4268l-87.7354 -87.7363q-27.8193 -27.8184 -55.6377 0
l-87.7354 87.7363q-26.749 26.748 3.20996 55.6367l81.3154 82.3857q31.0283 29.959 62.0576 -1.06934zM172.254 1010.38l83.4551 -84.5264q26.749 -25.6787 1.07031 -52.4268l-87.7354 -87.7363q-28.8887 -27.8184 -55.6377 0l-87.7354 87.7363
q-26.749 26.748 3.20996 55.6367l81.3164 82.3857q29.958 29.959 62.0566 -1.06934z" />
    <glyph glyph-name="uniFE9D" unicode="&#x62c;" horiz-adv-x="1227" arabic-form="isolated" 
d="M113 589q161 236 349 236q30 0 67 -10t186 -83q148 -72 224 -99q77 -26 164 -38l-22 -166q-122 -9 -143 -11q-230 -28 -381 -115q-307 -177 -307 -435q0 -147 108 -233q107 -87 375 -88q186 0 353 48l51 -147q-196 -60 -402 -60q-389 0 -540 177q-104 122 -104 300
t96 323q144 217 459 310q91 27 175 34q-65 16 -188 74t-156 58q-127 0 -255 -165zM762.484 77.2197l83.4561 -84.5254q26.748 -25.6787 1.06934 -52.4277l-87.7354 -87.7354q-27.8184 -27.8184 -55.6377 0l-87.7354 87.7354q-26.748 26.749 3.20996 55.6377l81.3164 82.3857
q31.0283 29.958 62.0566 -1.07031z" />
    <glyph glyph-name="uniFE9E" unicode="&#x62c;" horiz-adv-x="1305" arabic-form="final" 
d="M1293 0q-357 0 -413 410q-199 -36 -342 -119q-287 -166 -287 -423q0 -147 108 -233q107 -87 375 -88q192 0 356 47l48 -146q-199 -61 -411 -61q-384 0 -533 175q-103 121 -103 299q0 179 99 329t291 239q193 89 342 102q-65 17 -143 54q-78 36 -111 50q-64 27 -91 29
q-118 10 -255 -165l-109 89q161 236 349 236q30 0 67 -10t186 -83q148 -72 224 -99q77 -26 164 -38l-22 -165q-39 -3 -68 -5q33 -250 272 -250h30v-174h-23zM738.484 32.2197l83.4561 -84.5254q26.748 -25.6787 1.06934 -52.4277l-87.7354 -87.7354
q-27.8184 -27.8184 -55.6377 0l-87.7354 87.7354q-26.748 26.749 3.20996 55.6377l81.3164 82.3857q31.0283 29.958 62.0566 -1.07031z" />
    <glyph glyph-name="uniFE9F" unicode="&#x62c;" horiz-adv-x="1332" arabic-form="initial" 
d="M621 90q-185 -90 -575 -90h-56v175h28q347 0 484 49q233 85 419 175q-80 9 -247 83t-264 88q-114 17 -240 -150l-109 84q95 133 150 173q124 90 291 45q54 -14 366 -150q204 -88 373 -77l-23 -138q-80 -17 -597 -267zM711.484 -201.78l83.4561 -84.5254
q26.748 -25.6787 1.06934 -52.4277l-87.7354 -87.7354q-27.8184 -27.8184 -55.6377 0l-87.7354 87.7354q-26.748 26.749 3.20996 55.6377l81.3164 82.3857q31.0283 29.958 62.0566 -1.07031z" />
    <glyph glyph-name="uniFEA0" unicode="&#x62c;" horiz-adv-x="1343" arabic-form="medial" 
d="M1225 0q-326 0 -390 192q-95 -46 -214 -102q-185 -90 -575 -90h-56v175h28q347 0 484 49q233 85 419 175q-80 9 -247 83t-264 88q-114 17 -240 -150l-109 84q93 130 150 173q122 91 290 46q56 -16 367 -151q204 -88 373 -77l-23 -138q-47 -11 -245 -102q14 -79 273 -79
h108v-176h-129zM669.484 -200.78l83.4561 -84.5254q26.748 -25.6787 1.06934 -52.4277l-87.7354 -87.7354q-27.8184 -27.8184 -55.6377 0l-87.7354 87.7354q-26.748 26.749 3.20996 55.6377l81.3164 82.3857q31.0283 29.958 62.0566 -1.07031z" />
    <glyph glyph-name="uniFEA1" unicode="&#x62d;" horiz-adv-x="1227" arabic-form="isolated" 
d="M113 589q161 236 349 236q30 0 67 -10t186 -83q148 -72 224 -99q77 -26 164 -38l-22 -166q-122 -9 -143 -11q-230 -28 -381 -115q-307 -177 -307 -435q0 -147 108 -233q107 -87 375 -88q186 0 353 48l51 -147q-196 -60 -402 -60q-389 0 -540 177q-104 122 -104 300
t96 323q144 217 459 310q91 27 175 34q-65 16 -188 74t-156 58q-127 0 -255 -165z" />
    <glyph glyph-name="uniFEA2" unicode="&#x62d;" horiz-adv-x="1305" arabic-form="final" 
d="M1293 0q-357 0 -413 410q-199 -36 -342 -119q-287 -166 -287 -423q0 -147 108 -233q107 -87 375 -88q192 0 356 47l48 -146q-199 -61 -411 -61q-384 0 -533 175q-103 121 -103 299q0 179 99 329t291 239q193 89 342 102q-65 17 -143 54q-78 36 -111 50q-64 27 -91 29
q-118 10 -255 -165l-109 89q161 236 349 236q30 0 67 -10t186 -83q148 -72 224 -99q77 -26 164 -38l-22 -165q-39 -3 -68 -5q33 -250 272 -250h30v-174h-23z" />
    <glyph glyph-name="uniFEA3" unicode="&#x62d;" horiz-adv-x="1332" arabic-form="initial" 
d="M621 90q-185 -90 -575 -90h-56v175h28q347 0 484 49q233 85 419 175q-80 9 -247 83t-264 88q-114 17 -240 -150l-109 84q95 133 150 173q124 90 291 45q54 -14 366 -150q204 -88 373 -77l-23 -138q-80 -17 -597 -267z" />
    <glyph glyph-name="uniFEA4" unicode="&#x62d;" horiz-adv-x="1343" arabic-form="medial" 
d="M1225 0q-326 0 -390 192q-95 -46 -214 -102q-185 -90 -575 -90h-56v175h28q347 0 484 49q233 85 419 175q-80 9 -247 83t-264 88q-114 17 -240 -150l-109 84q93 130 150 173q122 91 290 46q56 -16 367 -151q204 -88 373 -77l-23 -138q-47 -11 -245 -102q14 -79 273 -79
h108v-176h-129z" />
    <glyph glyph-name="uniFEA5" unicode="&#x62e;" horiz-adv-x="1227" arabic-form="isolated" 
d="M113 589q161 236 349 236q30 0 67 -10t186 -83q148 -72 224 -99q77 -26 164 -38l-22 -166q-122 -9 -143 -11q-230 -28 -381 -115q-307 -177 -307 -435q0 -147 108 -233q107 -87 375 -88q186 0 353 48l51 -147q-196 -60 -402 -60q-389 0 -540 177q-104 122 -104 300
t96 323q144 217 459 310q91 27 175 34q-65 16 -188 74t-156 58q-127 0 -255 -165zM640.484 1257.22l83.4561 -84.5254q26.748 -25.6787 1.06934 -52.4277l-87.7354 -87.7354q-27.8184 -27.8184 -55.6377 0l-87.7354 87.7354q-26.748 26.749 3.20996 55.6377l81.3164 82.3857
q31.0283 29.958 62.0566 -1.07031z" />
    <glyph glyph-name="uniFEA6" unicode="&#x62e;" horiz-adv-x="1305" arabic-form="final" 
d="M1293 0q-357 0 -413 410q-199 -36 -342 -119q-287 -166 -287 -423q0 -147 108 -233q107 -87 375 -88q192 0 356 47l48 -146q-199 -61 -411 -61q-384 0 -533 175q-103 121 -103 299q0 179 99 329t291 239q193 89 342 102q-65 17 -143 54q-78 36 -111 50q-64 27 -91 29
q-118 10 -255 -165l-109 89q161 236 349 236q30 0 67 -10t186 -83q148 -72 224 -99q77 -26 164 -38l-22 -165q-39 -3 -68 -5q33 -250 272 -250h30v-174h-23zM638.484 1259.22l83.4561 -84.5254q26.748 -25.6787 1.06934 -52.4277l-87.7354 -87.7354
q-27.8184 -27.8184 -55.6377 0l-87.7354 87.7354q-26.748 26.749 3.20996 55.6377l81.3164 82.3857q31.0283 29.958 62.0566 -1.07031z" />
    <glyph glyph-name="uniFEA7" unicode="&#x62e;" horiz-adv-x="1332" arabic-form="initial" 
d="M621 90q-185 -90 -575 -90h-56v175h28q347 0 484 49q233 85 419 175q-80 9 -247 83t-264 88q-114 17 -240 -150l-109 84q95 133 150 173q124 90 291 45q54 -14 366 -150q204 -88 373 -77l-23 -138q-80 -17 -597 -267zM639.484 1180.22l83.4561 -84.5254
q26.748 -25.6787 1.06934 -52.4277l-87.7354 -87.7354q-27.8184 -27.8184 -55.6377 0l-87.7354 87.7354q-26.748 26.749 3.20996 55.6377l81.3164 82.3857q31.0283 29.958 62.0566 -1.07031z" />
    <glyph glyph-name="uniFEA8" unicode="&#x62e;" horiz-adv-x="1343" arabic-form="medial" 
d="M1225 0q-326 0 -390 192q-95 -46 -214 -102q-185 -90 -575 -90h-56v175h28q347 0 484 49q233 85 419 175q-80 9 -247 83t-264 88q-114 17 -240 -150l-109 84q93 130 150 173q122 91 290 46q56 -16 367 -151q204 -88 373 -77l-23 -138q-47 -11 -245 -102q14 -79 273 -79
h108v-176h-129zM659.484 1182.22l83.4561 -84.5254q26.748 -25.6787 1.06934 -52.4277l-87.7354 -87.7354q-27.8184 -27.8184 -55.6377 0l-87.7354 87.7354q-26.748 26.749 3.20996 55.6377l81.3164 82.3857q31.0283 29.958 62.0566 -1.07031z" />
    <glyph glyph-name="uniFEA9" unicode="&#x62f;" horiz-adv-x="936" arabic-form="isolated" 
d="M92 188q127 -41 303.5 -33.5t259.5 65.5q74 56 29 160q-82 195 -331 385l89 137q358 -267 402 -545q31 -194 -136 -295q-110 -66 -310 -76t-306 28v174z" />
    <glyph glyph-name="uniFEAA" unicode="&#x62f;" horiz-adv-x="1097" arabic-form="final" 
d="M687 338l-239 487l148 79l266 -527q100 -199 214 -201l32 -1v-175h-35q-158 0 -249 120q-114 -149 -483 -140q-135 3 -251 43v186q118 -50 261 -52q249 -4 331 78q37 37 5 103z" />
    <glyph glyph-name="uniFEAB" unicode="&#x630;" horiz-adv-x="936" arabic-form="isolated" 
d="M92 188q127 -41 303.5 -33.5t259.5 65.5q74 56 29 160q-82 195 -331 385l89 137q358 -267 402 -545q31 -194 -136 -295q-110 -66 -310 -76t-306 28v174zM428.484 1370.22l83.4561 -84.5254q26.748 -25.6787 1.06934 -52.4277l-87.7354 -87.7354
q-27.8184 -27.8184 -55.6377 0l-87.7354 87.7354q-26.748 26.749 3.20996 55.6377l81.3164 82.3857q31.0283 29.958 62.0566 -1.07031z" />
    <glyph glyph-name="uniFEAC" unicode="&#x630;" horiz-adv-x="1097" arabic-form="final" 
d="M687 338l-239 487l148 79l266 -527q100 -199 214 -201l32 -1v-175h-35q-158 0 -249 120q-114 -149 -483 -140q-135 3 -251 43v186q118 -50 261 -52q249 -4 331 78q37 37 5 103zM525.484 1352.22l83.4561 -84.5254q26.748 -25.6787 1.06934 -52.4277l-87.7354 -87.7354
q-27.8184 -27.8184 -55.6377 0l-87.7354 87.7354q-26.748 26.749 3.20996 55.6377l81.3164 82.3857q31.0283 29.958 62.0566 -1.07031z" />
    <glyph glyph-name="uniFEAD" unicode="&#x631;" horiz-adv-x="837" arabic-form="isolated" 
d="M674 530q97 -271 68 -479q-79 -552 -644 -556h-2l-71 129q535 38 565 446q7 102 -62 359z" />
    <glyph glyph-name="uniFEAE" unicode="&#x631;" horiz-adv-x="931" arabic-form="final" 
d="M924 0q-140 0 -185 48q-75 -550 -641 -552h-3l-71 129q519 31 566 445q11 95 -62 358l142 102q56 -268 60 -283q25 -72 189 -72h23v-175h-18z" />
    <glyph glyph-name="uniFEAF" unicode="&#x632;" horiz-adv-x="837" arabic-form="isolated" 
d="M674 530q97 -271 68 -479q-79 -552 -644 -556h-2l-71 129q535 38 565 446q7 102 -62 359zM564.484 1001.22l83.4561 -84.5254q26.748 -25.6787 1.06934 -52.4277l-87.7354 -87.7354q-27.8184 -27.8184 -55.6377 0l-87.7354 87.7354q-26.748 26.749 3.20996 55.6377
l81.3164 82.3857q31.0283 29.958 62.0566 -1.07031z" />
    <glyph glyph-name="uniFEB0" unicode="&#x632;" horiz-adv-x="931" arabic-form="final" 
d="M924 0q-140 0 -185 48q-75 -550 -641 -552h-3l-71 129q519 31 566 445q11 95 -62 358l142 102q56 -268 60 -283q25 -72 189 -72h23v-175h-18zM541.484 1014.22l83.4561 -84.5254q26.748 -25.6787 1.06934 -52.4277l-87.7354 -87.7354q-27.8184 -27.8184 -55.6377 0
l-87.7354 87.7354q-26.748 26.749 3.20996 55.6377l81.3164 82.3857q31.0283 29.958 62.0566 -1.07031z" />
    <glyph glyph-name="uniFEB1" unicode="&#x633;" horiz-adv-x="2278" arabic-form="isolated" 
d="M1226 66q-11 -554 -575 -554q-398 0 -522 284q-63 145 -33 348q20 135 78 265l150 -51q-76 -184 -76 -325q0 -31 4 -61q39 -297 411.5 -297t417.5 328q5 36 5 71q0 172 -111 313l138 132q47 -148 94 -228q70 -120 201 -121q146 -1 161 161l20 200h117l13 -190
q13 -172 158 -171q98 1 127 53q25 44 24.5 119.5t-42.5 307.5l149 48q52 -152 52 -323.5t-65 -262.5q-79 -112 -244 -112t-232 139q-48 -136 -212 -138q-138 -1 -208 65z" />
    <glyph glyph-name="uniFEB2" unicode="&#x633;" horiz-adv-x="2444" arabic-form="final" 
d="M660 -325q384 -1 425 328q27 214 -106 384l138 132q37 -86 94 -228q64 -119 208 -117q152 2 165 152l17 204h116l21 -207q15 -152 175 -152q134 -1 145 165l17 259h117l19 -230q10 -121 61 -160q40 -30 144 -30h38v-175h-66q-187 0 -255 121q-74 -122 -217 -121
q-192 1 -258 133q-63 -134 -228 -133q-133 0 -201 64q-11 -547 -571 -552q-405 -4 -530 284q-63 145 -33 348q20 135 78 265l150 -51q-76 -184 -76 -325q0 -31 4 -61q39 -297 409 -297z" />
    <glyph glyph-name="uniFEB3" unicode="&#x633;" horiz-adv-x="1540" arabic-form="initial" 
d="M347 123q-33 -46 -90 -84q-58 -39 -189 -39h-78v175h19q259 0 274 196l11 158h116l15 -157q20 -199 221 -201q154 -2 173 183l19 175h112l22 -208q18 -172 197 -151q72 8 102 65q31 59 16 191q-6 53 -37 225l148 47q41 -116 50 -239q31 -456 -305 -459q-195 -1 -249 139
q-52 -141 -255 -139q-225 2 -292 123z" />
    <glyph glyph-name="uniFEB4" unicode="&#x633;" horiz-adv-x="1714" arabic-form="medial" 
d="M1407 130q-50 -128 -226 -128q-184 -1 -253 138q-89 -139 -272 -137q-193 2 -289 126q-15 -30 -90 -79q-75 -50 -211 -50h-76v175h69q224 2 242 190l17 166h112l23 -166q26 -188 201 -193q179 -6 197 160l21 199h112l28 -214q19 -145 173 -145q134 -1 145 160l18 263h116
l22 -232q12 -120 59 -154q47 -33 161 -33h19v-176h-44q-207 0 -274 130z" />
    <glyph glyph-name="uniFEB5" unicode="&#x634;" horiz-adv-x="2278" arabic-form="isolated" 
d="M1613.12 1252.05l83.4561 -83.4561q26.748 -26.749 1.06934 -52.4277l-87.7354 -87.7354q-28.8887 -28.8887 -55.6367 -1.07031l-87.7363 87.7363q-26.748 26.748 3.20996 56.707l81.3164 81.3154q29.958 29.959 62.0566 -1.06934zM1765.05 1012.38l83.4551 -84.5264
q26.749 -25.6787 1.07031 -52.4268l-87.7354 -87.7363q-27.8193 -27.8184 -55.6377 0l-87.7354 87.7363q-26.749 26.748 3.20996 55.6367l81.3154 82.3857q31.0283 29.959 62.0576 -1.06934zM1462.25 1012.38l83.4551 -84.5264q26.749 -25.6787 1.07031 -52.4268
l-87.7354 -87.7363q-28.8887 -27.8184 -55.6377 0l-87.7354 87.7363q-26.749 26.748 3.20996 55.6367l81.3164 82.3857q29.958 29.959 62.0566 -1.06934zM1226 66q-11 -554 -575 -554q-398 0 -522 284q-63 145 -33 348q20 135 78 265l150 -51q-76 -184 -76 -325q0 -31 4 -61
q39 -297 411.5 -297t417.5 328q5 36 5 71q0 172 -111 313l138 132q47 -148 94 -228q70 -120 201 -121q146 -1 161 161l20 200h117l13 -190q13 -172 158 -171q98 1 127 53q25 44 24.5 119.5t-42.5 307.5l149 48q52 -152 52 -323.5t-65 -262.5q-79 -112 -244 -112t-232 139
q-48 -136 -212 -138q-138 -1 -208 65z" />
    <glyph glyph-name="uniFEB6" unicode="&#x634;" horiz-adv-x="2444" arabic-form="final" 
d="M660 -325q384 -1 425 328q27 214 -106 384l138 132q37 -86 94 -228q64 -119 208 -117q152 2 165 152l17 204h116l21 -207q15 -152 175 -152q134 -1 145 165l17 259h117l19 -230q10 -121 61 -160q40 -30 144 -30h38v-175h-66q-187 0 -255 121q-74 -122 -217 -121
q-192 1 -258 133q-63 -134 -228 -133q-133 0 -201 64q-11 -547 -571 -552q-405 -4 -530 284q-63 145 -33 348q20 135 78 265l150 -51q-76 -184 -76 -325q0 -31 4 -61q39 -297 409 -297zM1647.12 1255.05l83.4561 -83.4561q26.748 -26.749 1.06934 -52.4277
l-87.7354 -87.7354q-28.8887 -28.8887 -55.6367 -1.07031l-87.7363 87.7363q-26.748 26.748 3.20996 56.707l81.3164 81.3154q29.958 29.959 62.0566 -1.06934zM1799.05 1015.38l83.4551 -84.5264q26.749 -25.6787 1.07031 -52.4268l-87.7354 -87.7363
q-27.8193 -27.8184 -55.6377 0l-87.7354 87.7363q-26.749 26.748 3.20996 55.6367l81.3154 82.3857q31.0283 29.959 62.0576 -1.06934zM1496.25 1015.38l83.4551 -84.5264q26.749 -25.6787 1.07031 -52.4268l-87.7354 -87.7363q-28.8887 -27.8184 -55.6377 0
l-87.7354 87.7363q-26.749 26.748 3.20996 55.6367l81.3164 82.3857q29.958 29.959 62.0566 -1.06934z" />
    <glyph glyph-name="uniFEB7" unicode="&#x634;" horiz-adv-x="1540" arabic-form="initial" 
d="M347 123q-33 -46 -90 -84q-58 -39 -189 -39h-78v175h19q259 0 274 196l11 158h116l15 -157q20 -199 221 -201q154 -2 173 183l19 175h112l22 -208q18 -172 197 -151q72 8 102 65q31 59 16 191q-6 53 -37 225l148 47q41 -116 50 -239q31 -456 -305 -459q-195 -1 -249 139
q-52 -141 -255 -139q-225 2 -292 123zM873.116 1256.05l83.4561 -83.4561q26.748 -26.749 1.06934 -52.4277l-87.7354 -87.7354q-28.8887 -28.8887 -55.6367 -1.07031l-87.7363 87.7363q-26.748 26.748 3.20996 56.707l81.3164 81.3154q29.958 29.959 62.0566 -1.06934z
M1025.05 1016.38l83.4551 -84.5264q26.749 -25.6787 1.07031 -52.4268l-87.7354 -87.7363q-27.8193 -27.8184 -55.6377 0l-87.7354 87.7363q-26.749 26.748 3.20996 55.6367l81.3154 82.3857q31.0283 29.959 62.0576 -1.06934zM722.254 1016.38l83.4551 -84.5264
q26.749 -25.6787 1.07031 -52.4268l-87.7354 -87.7363q-28.8887 -27.8184 -55.6377 0l-87.7354 87.7363q-26.749 26.748 3.20996 55.6367l81.3164 82.3857q29.958 29.959 62.0566 -1.06934z" />
    <glyph glyph-name="uniFEB8" unicode="&#x634;" horiz-adv-x="1714" arabic-form="medial" 
d="M1407 130q-50 -128 -226 -128q-184 -1 -253 138q-89 -139 -272 -137q-193 2 -289 126q-15 -30 -90 -79q-75 -50 -211 -50h-76v175h69q224 2 242 190l17 166h112l23 -166q26 -188 201 -193q179 -6 197 160l21 199h112l28 -214q19 -145 173 -145q134 -1 145 160l18 263h116
l22 -232q12 -120 59 -154q47 -33 161 -33h19v-176h-44q-207 0 -274 130zM928.116 1250.05l83.4561 -83.4561q26.748 -26.749 1.06934 -52.4277l-87.7354 -87.7354q-28.8887 -28.8887 -55.6367 -1.07031l-87.7363 87.7363q-26.748 26.748 3.20996 56.707l81.3164 81.3154
q29.958 29.959 62.0566 -1.06934zM1080.05 1010.38l83.4551 -84.5264q26.749 -25.6787 1.07031 -52.4268l-87.7354 -87.7363q-27.8193 -27.8184 -55.6377 0l-87.7354 87.7363q-26.749 26.748 3.20996 55.6367l81.3154 82.3857q31.0283 29.959 62.0576 -1.06934z
M777.254 1010.38l83.4551 -84.5264q26.749 -25.6787 1.07031 -52.4268l-87.7354 -87.7363q-28.8887 -27.8184 -55.6377 0l-87.7354 87.7363q-26.749 26.748 3.20996 55.6367l81.3164 82.3857q29.958 29.959 62.0566 -1.06934z" />
    <glyph glyph-name="uniFEB9" unicode="&#x635;" horiz-adv-x="2376" arabic-form="isolated" 
d="M656 -488q-404 0 -528 284q-63 145 -33 348q20 135 78 265l150 -51q-76 -184 -76 -325q0 -31 4 -61q39 -297 411 -297q382 -1 423 328q27 214 -106 384l138 132q37 -86 94 -228q36 -63 87 -67q353 486 657 485q106 0 191 -50q137 -82 139 -260q1 -169 -153 -292
q-136 -109 -497 -108l-260 1q-76 0 -132 74h-13q-7 -563 -574 -562zM1447 175h172q255 0 368 44q142 54 130 185q-4 46 -33 85q-35 48 -125 52q-129 6 -256 -101t-256 -265z" />
    <glyph glyph-name="uniFEBA" unicode="&#x635;" horiz-adv-x="2481" arabic-form="final" 
d="M659 -488q-408 -3 -533 284q-63 145 -33 348q20 135 78 265l150 -51q-76 -184 -76 -325q0 -31 4 -61q39 -297 411 -297q384 -1 425 328q27 214 -106 384l138 132q36 -87 94 -228q25 -61 80 -67q351 486 657 485q106 0 191 -50q138 -83 139 -260q0 -67 -21 -127
q78 -97 199 -97h36v-175h-58q-191 0 -280 129q-15 -12 -29 -22q-149 -109 -497 -108l-229 1q-99 0 -156 74h-13q-7 -559 -571 -562zM1440 175h172q257 0 368 44q142 54 130 185q-4 48 -29 81q-39 52 -129 56q-129 6 -256 -101t-256 -265z" />
    <glyph glyph-name="uniFEBB" unicode="&#x635;" horiz-adv-x="1623" arabic-form="initial" 
d="M694 176h172q256 0 368 43q142 55 130 186q-4 47 -31 82q-38 51 -127 55q-129 6 -256 -96q-102 -83 -256 -270zM545 225q349 485 657 485q106 0 191 -50q137 -82 138.5 -263.5t-152.5 -289.5t-497 -107l-216 1q-221 0 -317 153q-116 -154 -285 -154h-74v175h16
q113 0 167 43q94 72 97 170l6 149h152l7 -170q4 -122 110 -142z" />
    <glyph glyph-name="uniFEBC" unicode="&#x635;" horiz-adv-x="1735" arabic-form="medial" 
d="M694 176h172q256 0 368 43q142 56 130 186q-4 47 -32 83q-37 50 -126 54q-129 6 -256 -96q-102 -83 -256 -270zM545 225q349 485 657 485q106 0 191 -50q137 -82 139 -260q0 -67 -21 -128q77 -97 199 -97h36v-175h-58q-192 0 -280 130q-80 -63 -155 -84q-74 -21 -127 -29
q-110 -17 -244 -17l-216 1q-221 0 -317 153q-116 -154 -285 -154h-74v175h15q114 0 168 43q94 72 97 170l6 149h152l7 -170q4 -122 110 -142z" />
    <glyph glyph-name="uniFEBD" unicode="&#x636;" horiz-adv-x="2376" arabic-form="isolated" 
d="M656 -488q-404 0 -528 284q-63 145 -33 348q20 135 78 265l150 -51q-76 -184 -76 -325q0 -31 4 -61q39 -297 411 -297q382 -1 423 328q27 214 -106 384l138 132q37 -86 94 -228q36 -63 87 -67q353 486 657 485q106 0 191 -50q137 -82 139 -260q1 -169 -153 -292
q-136 -109 -497 -108l-260 1q-76 0 -132 74h-13q-7 -563 -574 -562zM1447 175h172q255 0 368 44q142 54 130 185q-4 46 -33 85q-35 48 -125 52q-129 6 -256 -101t-256 -265zM1756.48 1180.22l83.4561 -84.5254q26.748 -25.6787 1.06934 -52.4277l-87.7354 -87.7354
q-27.8184 -27.8184 -55.6377 0l-87.7354 87.7354q-26.748 26.749 3.20996 55.6377l81.3164 82.3857q31.0283 29.958 62.0566 -1.07031z" />
    <glyph glyph-name="uniFEBE" unicode="&#x636;" horiz-adv-x="2481" arabic-form="final" 
d="M659 -488q-408 -3 -533 284q-63 145 -33 348q20 135 78 265l150 -51q-76 -184 -76 -325q0 -31 4 -61q39 -297 411 -297q384 -1 425 328q27 214 -106 384l138 132q36 -87 94 -228q25 -61 80 -67q351 486 657 485q106 0 191 -50q138 -83 139 -260q0 -67 -21 -127
q78 -97 199 -97h36v-175h-58q-191 0 -280 129q-15 -12 -29 -22q-149 -109 -497 -108l-229 1q-99 0 -156 74h-13q-7 -559 -571 -562zM1440 175h172q257 0 368 44q142 54 130 185q-4 48 -29 81q-39 52 -129 56q-129 6 -256 -101t-256 -265zM1812.48 1178.22l83.4561 -84.5254
q26.748 -25.6787 1.06934 -52.4277l-87.7354 -87.7354q-27.8184 -27.8184 -55.6377 0l-87.7354 87.7354q-26.748 26.749 3.20996 55.6377l81.3164 82.3857q31.0283 29.958 62.0566 -1.07031z" />
    <glyph glyph-name="uniFEBF" unicode="&#x636;" horiz-adv-x="1623" arabic-form="initial" 
d="M694 176h172q256 0 368 43q142 55 130 186q-4 47 -31 82q-38 51 -127 55q-129 6 -256 -96q-102 -83 -256 -270zM545 225q349 485 657 485q106 0 191 -50q137 -82 138.5 -263.5t-152.5 -289.5t-497 -107l-216 1q-221 0 -317 153q-116 -154 -285 -154h-74v175h16
q113 0 167 43q94 72 97 170l6 149h152l7 -170q4 -122 110 -142zM1050.48 1174.22l83.4561 -84.5254q26.748 -25.6787 1.06934 -52.4277l-87.7354 -87.7354q-27.8184 -27.8184 -55.6377 0l-87.7354 87.7354q-26.748 26.749 3.20996 55.6377l81.3164 82.3857
q31.0283 29.958 62.0566 -1.07031z" />
    <glyph glyph-name="uniFEC0" unicode="&#x636;" horiz-adv-x="1735" arabic-form="medial" 
d="M694 176h172q256 0 368 43q142 56 130 186q-4 47 -32 83q-37 50 -126 54q-129 6 -256 -96q-102 -83 -256 -270zM545 225q349 485 657 485q106 0 191 -50q137 -82 139 -260q0 -67 -21 -128q77 -97 199 -97h36v-175h-58q-192 0 -280 130q-80 -63 -155 -84q-74 -21 -127 -29
q-110 -17 -244 -17l-216 1q-221 0 -317 153q-116 -154 -285 -154h-74v175h15q114 0 168 43q94 72 97 170l6 149h152l7 -170q4 -122 110 -142zM1084.48 1177.22l83.4561 -84.5254q26.748 -25.6787 1.06934 -52.4277l-87.7354 -87.7354q-27.8184 -27.8184 -55.6377 0
l-87.7354 87.7354q-26.748 26.749 3.20996 55.6377l81.3164 82.3857q31.0283 29.958 62.0566 -1.07031z" />
    <glyph glyph-name="uniFEC1" unicode="&#x637;" horiz-adv-x="1457" arabic-form="isolated" 
d="M528 177h172q256 0 368 43q142 56 130 185q-4 43 -30 76q-44 57 -128 61q-125 6 -256 -96q-109 -85 -256 -269zM383 241q340 469 653 469q145 0 240 -87q88 -81 90 -223q1 -184 -152 -292t-498 -108h-624v175h167l-41 1238l165 65v-1237z" />
    <glyph glyph-name="uniFEC2" unicode="&#x637;" horiz-adv-x="1571" arabic-form="final" 
d="M528 176h172q256 0 368 43q142 56 130 186q-4 43 -32 78q-42 55 -126 59q-129 6 -256 -96q-102 -83 -256 -270zM383 241q340 469 653 469q106 0 191 -50q137 -82 139 -260q0 -70 -22 -129q74 -96 202 -96h36v-175h-58q-198 0 -286 127l-25 -19q-152 -108 -497 -108h-624
v175h167l-41 1238l165 65v-1237z" />
    <glyph glyph-name="uniFEC3" unicode="&#x637;" horiz-adv-x="1389" arabic-form="initial" 
d="M460 176h172q256 0 368 43q142 55 130 186q-4 45 -31 79q-41 54 -127 58q-204 10 -512 -366zM315 241q340 469 653 469q106 0 191 -50q137 -82 138 -263t-151.5 -289t-497.5 -108h-658v175h201l-41 1238l165 65v-1237z" />
    <glyph glyph-name="uniFEC4" unicode="&#x637;" horiz-adv-x="1510" arabic-form="medial" 
d="M467 176h172q256 0 368 43q142 55 130 186q-4 46 -30 79q-41 54 -128 58q-129 6 -270 -108q-89 -71 -242 -258zM322 241q340 469 653 469q106 0 191 -50q137 -82 139 -260q0 -70 -22 -129q74 -96 202 -96h36v-175h-58q-198 0 -286 127l-25 -19q-152 -108 -497 -108h-665
v175h208l-41 1238l165 65v-1237z" />
    <glyph glyph-name="uniFEC5" unicode="&#x638;" horiz-adv-x="1457" arabic-form="isolated" 
d="M528 177h172q256 0 368 43q142 56 130 185q-4 43 -30 76q-44 57 -128 61q-125 6 -256 -96q-109 -85 -256 -269zM383 241q340 469 653 469q145 0 240 -87q88 -81 90 -223q1 -184 -152 -292t-498 -108h-624v175h167l-41 1238l165 65v-1237zM919.484 1175.22
l83.4561 -84.5254q26.748 -25.6787 1.06934 -52.4277l-87.7354 -87.7354q-27.8184 -27.8184 -55.6377 0l-87.7354 87.7354q-26.748 26.749 3.20996 55.6377l81.3164 82.3857q31.0283 29.958 62.0566 -1.07031z" />
    <glyph glyph-name="uniFEC6" unicode="&#x638;" horiz-adv-x="1571" arabic-form="final" 
d="M528 176h172q256 0 368 43q142 56 130 186q-4 43 -32 78q-42 55 -126 59q-129 6 -256 -96q-102 -83 -256 -270zM383 241q340 469 653 469q106 0 191 -50q137 -82 139 -260q0 -70 -22 -129q74 -96 202 -96h36v-175h-58q-198 0 -286 127l-25 -19q-152 -108 -497 -108h-624
v175h167l-41 1238l165 65v-1237zM937.484 1179.22l83.4561 -84.5254q26.748 -25.6787 1.06934 -52.4277l-87.7354 -87.7354q-27.8184 -27.8184 -55.6377 0l-87.7354 87.7354q-26.748 26.749 3.20996 55.6377l81.3164 82.3857q31.0283 29.958 62.0566 -1.07031z" />
    <glyph glyph-name="uniFEC7" unicode="&#x638;" horiz-adv-x="1389" arabic-form="initial" 
d="M460 176h172q256 0 368 43q142 55 130 186q-4 45 -31 79q-41 54 -127 58q-204 10 -512 -366zM315 241q340 469 653 469q106 0 191 -50q137 -82 138 -263t-151.5 -289t-497.5 -108h-658v175h201l-41 1238l165 65v-1237zM841.484 1180.22l83.4561 -84.5254
q26.748 -25.6787 1.06934 -52.4277l-87.7354 -87.7354q-27.8184 -27.8184 -55.6377 0l-87.7354 87.7354q-26.748 26.749 3.20996 55.6377l81.3164 82.3857q31.0283 29.958 62.0566 -1.07031z" />
    <glyph glyph-name="uniFEC8" unicode="&#x638;" horiz-adv-x="1510" arabic-form="medial" 
d="M467 176h172q256 0 368 43q142 55 130 186q-4 46 -30 79q-41 54 -128 58q-129 6 -270 -108q-89 -71 -242 -258zM322 241q340 469 653 469q106 0 191 -50q137 -82 139 -260q0 -70 -22 -129q74 -96 202 -96h36v-175h-58q-198 0 -286 127l-25 -19q-152 -108 -497 -108h-665
v175h208l-41 1238l165 65v-1237zM865.484 1176.22l83.4561 -84.5254q26.748 -25.6787 1.06934 -52.4277l-87.7354 -87.7354q-27.8184 -27.8184 -55.6377 0l-87.7354 87.7354q-26.748 26.749 3.20996 55.6377l81.3164 82.3857q31.0283 29.958 62.0566 -1.07031z" />
    <glyph glyph-name="uniFEC9" unicode="&#x639;" horiz-adv-x="1293" arabic-form="isolated" 
d="M791 803q-128 62 -233 62t-158 -53q-50 -49 -54 -114q-4 -61 20 -102q34 -62 133 -105q53 -23 71 -28q27 -7 166 17q107 17 213 34v-157q-242 -17 -434 -118q-260 -138 -260 -371q0 -147 108 -233q107 -87 375 -88q138 0 299 47l50 -149q-186 -57 -344 -57
q-409 0 -556 173q-98 116 -98 297.5t96.5 318.5t230.5 199q-96 26 -158 112t-62 195q0 101 55 189q92 146 299 146q140 0 281 -80z" />
    <glyph glyph-name="uniFECA" unicode="&#x639;" horiz-adv-x="1197" arabic-form="final" 
d="M1087 -555q-185 -57 -368 -57q-385 0 -532 173q-98 116 -98 294t106 312t265 217q-132 57 -226 135q-93 78 -87 165q6 97 141 158q163 76 450 47q177 -18 233 -126q93 -182 -267 -381q225 -207 450 -207h54v-175h-26q-327 0 -607 294l-21 -12q-299 -163 -299 -414
q0 -145 109 -233q106 -87 374 -88q151 0 296 42zM839 652q0 91 -252 91q-149 0 -239 -37q-55 -23 -41.5 -55t99.5 -87t181 -99q109 49 180.5 104.5t71.5 82.5z" />
    <glyph glyph-name="uniFECB" unicode="&#x639;" horiz-adv-x="1023" arabic-form="initial" 
d="M932 104q-404 -104 -605 -104h-337v175h51h169h35q-118 122 -118 268q0 90 30 160q95 225 372 227q190 1 333 -133l-58 -122q-138 87 -268 87q-244 0 -257 -210q-1 -10 -1 -20q0 -125 144 -228q33 -23 213 7l297 51v-158z" />
    <glyph glyph-name="uniFECC" unicode="&#x639;" horiz-adv-x="1018" arabic-form="medial" 
d="M773 533q0 91 -268 90.5t-269 -79.5q0 -46 190 -150q48 -26 95 -48q82 34 185 107q67 49 67 80zM640 263q146 -90 319 -88h5h65v-175h-89h-1q-257 0 -421 163q-172 -163 -425 -163h-103v175h79q220 0 328 89q-311 136 -310 292q0 18 4 37q30 139 259 175q75 12 156 12
q82 0 166 -9q175 -19 233 -128q20 -37 20 -76q0 -147 -285 -304z" />
    <glyph glyph-name="uniFECD" unicode="&#x63a;" horiz-adv-x="1177" arabic-form="isolated" 
d="M791 803q-128 62 -233 62t-158 -53q-50 -49 -54 -114q-4 -61 20 -102q34 -62 133 -105q53 -23 71 -28q27 -7 166 17q107 17 213 34v-157q-242 -17 -434 -118q-260 -138 -260 -371q0 -147 108 -233q107 -87 375 -88q138 0 299 47l50 -149q-186 -57 -344 -57
q-409 0 -556 173q-98 116 -98 297.5t96.5 318.5t230.5 199q-96 26 -158 112t-62 195q0 101 55 189q92 146 299 146q140 0 281 -80zM551.484 1430.22l83.4561 -84.5254q26.748 -25.6787 1.06934 -52.4277l-87.7354 -87.7354q-27.8184 -27.8184 -55.6377 0l-87.7354 87.7354
q-26.748 26.749 3.20996 55.6377l81.3164 82.3857q31.0283 29.958 62.0566 -1.07031z" />
    <glyph glyph-name="uniFECE" unicode="&#x63a;" horiz-adv-x="1197" arabic-form="final" 
d="M1087 -555q-185 -57 -368 -57q-385 0 -532 173q-98 116 -98 294t106 312t265 217q-132 57 -226 135q-93 78 -87 165q6 97 141 158q163 76 450 47q177 -18 233 -126q93 -182 -267 -381q225 -207 450 -207h54v-175h-26q-327 0 -607 294l-21 -12q-299 -163 -299 -414
q0 -145 109 -233q106 -87 374 -88q151 0 296 42zM839 652q0 91 -252 91q-149 0 -239 -37q-55 -23 -41.5 -55t99.5 -87t181 -99q109 49 180.5 104.5t71.5 82.5zM589.484 1304.22l83.4561 -84.5254q26.748 -25.6787 1.06934 -52.4277l-87.7354 -87.7354
q-27.8184 -27.8184 -55.6377 0l-87.7354 87.7354q-26.748 26.749 3.20996 55.6377l81.3164 82.3857q31.0283 29.958 62.0566 -1.07031z" />
    <glyph glyph-name="uniFECF" unicode="&#x63a;" horiz-adv-x="1023" arabic-form="initial" 
d="M932 104q-404 -104 -605 -104h-337v175h51h169h35q-118 122 -118 268q0 90 30 160q95 225 372 227q190 1 333 -133l-58 -122q-138 87 -268 87q-244 0 -257 -210q-1 -10 -1 -20q0 -125 144 -228q33 -23 213 7l297 51v-158zM512.484 1294.22l83.4561 -84.5254
q26.748 -25.6787 1.06934 -52.4277l-87.7354 -87.7354q-27.8184 -27.8184 -55.6377 0l-87.7354 87.7354q-26.748 26.749 3.20996 55.6377l81.3164 82.3857q31.0283 29.958 62.0566 -1.07031z" />
    <glyph glyph-name="uniFED0" unicode="&#x63a;" horiz-adv-x="1018" arabic-form="medial" 
d="M773 533q0 91 -268 90.5t-269 -79.5q0 -46 190 -150q48 -26 95 -48q82 34 185 107q67 49 67 80zM640 263q146 -90 319 -88h5h65v-175h-89h-1q-257 0 -421 163q-172 -163 -425 -163h-103v175h79q220 0 328 89q-311 136 -310 292q0 18 4 37q30 139 259 175q75 12 156 12
q82 0 166 -9q175 -19 233 -128q20 -37 20 -76q0 -147 -285 -304zM536.484 1242.22l83.4561 -84.5254q26.748 -25.6787 1.06934 -52.4277l-87.7354 -87.7354q-27.8184 -27.8184 -55.6377 0l-87.7354 87.7354q-26.748 26.749 3.20996 55.6377l81.3164 82.3857
q31.0283 29.958 62.0566 -1.07031z" />
    <glyph glyph-name="uniFED1" unicode="&#x641;" horiz-adv-x="1742" arabic-form="isolated" 
d="M1344.48 1434.22l83.4561 -84.5254q26.748 -25.6787 1.06934 -52.4277l-87.7354 -87.7354q-27.8184 -27.8184 -55.6377 0l-87.7354 87.7354q-26.748 26.749 3.20996 55.6377l81.3164 82.3857q31.0283 29.958 62.0566 -1.07031zM1358 47q-154 -50 -492 -47t-490 67
q-257 108 -282 368q-12 128 30 274l134 -35q-20 -133 -17 -196q10 -239 319 -289q40 -6 243 -12q333 -11 523 47q150 45 179 190q-57 -45 -166 -47q-190 -3 -259 91q-61 84 -43 232q17 147 106 241q113 119 261 88q169 -36 230 -285q51 -213 2.5 -413t-278.5 -274zM1338 864
q-117 -3 -156 -162q-40 -158 97 -182q137 -23 231 49q2 33 -6 101q-10 69 -36 116q-44 80 -130 78z" />
    <glyph glyph-name="uniFED2" unicode="&#x641;" horiz-adv-x="1881" arabic-form="final" 
d="M1259 478q-1 -74 51 -126q81 -83 124 -83q44 1 124 83q51 51 51 126q1 74 -51 126t-124 52t-124 -52q-51 -51 -51 -126zM1592 200q26 -25 234 -25h65v-175h-73q-263 0 -371 110q-258 -110 -637 -110q-279 0 -438 67q-258 107 -281 374q-11 127 29 268l134 -35
q-22 -139 -19 -196q10 -240 321 -289q47 -7 174 -10q215 -6 329 1q55 3 204 22q-93 61 -133 154q-43 100 -12 215q39 147 179 206q61 26 145 27q83 0 150 -32q131 -63 162 -203q24 -107 -12 -198q-39 -100 -150 -171zM1453.48 1249.22l83.4561 -84.5254
q26.748 -25.6787 1.06934 -52.4277l-87.7354 -87.7354q-27.8184 -27.8184 -55.6377 0l-87.7354 87.7354q-26.748 26.749 3.20996 55.6377l81.3164 82.3857q31.0283 29.958 62.0566 -1.07031z" />
    <glyph glyph-name="uniFED3" unicode="&#x641;" horiz-adv-x="825" arabic-form="initial" 
d="M411 848q-117 -3 -157 -162q-39 -158 98 -181q135 -24 230 48q6 24 -11 116q-34 183 -160 179zM646 873q118 -198 75 -544q-22 -183 -157 -269q-95 -60 -365 -60h-219v175h105q317 0 364 17q125 46 131 208q-56 -47 -166 -49q-189 -3 -261 91q-63 84 -46 230
q17 147 109 243q113 120 261 89q104 -22 169 -131zM438.484 1442.22l83.4561 -84.5254q26.748 -25.6787 1.06934 -52.4277l-87.7354 -87.7354q-27.8184 -27.8184 -55.6377 0l-87.7354 87.7354q-26.748 26.749 3.20996 55.6377l81.3164 82.3857
q31.0283 29.958 62.0566 -1.07031z" />
    <glyph glyph-name="uniFED4" unicode="&#x641;" horiz-adv-x="1010" arabic-form="medial" 
d="M339 478q-1 -74 51 -126q81 -83 124 -83q44 1 124 83q51 51 51 126q1 74 -51 126t-124 52t-124 -52q-51 -51 -51 -126zM377 777q61 26 145 27q83 0 150 -32q131 -65 162 -203q24 -107 -12 -198q-39 -100 -150 -171q91 -26 281 -25h68v-175h-204q-138 0 -304 107
q-164 -107 -302 -107h-221v175h83q196 0 270 27q-93 61 -133 154q-43 100 -12 215q39 147 179 206zM549.484 1243.22l83.4561 -84.5254q26.748 -25.6787 1.06934 -52.4277l-87.7354 -87.7354q-27.8184 -27.8184 -55.6377 0l-87.7354 87.7354q-26.748 26.749 3.20996 55.6377
l81.3164 82.3857q31.0283 29.958 62.0566 -1.07031z" />
    <glyph glyph-name="uniFED5" unicode="&#x642;" horiz-adv-x="1513" arabic-form="isolated" 
d="M1249.98 1241.22l83.4561 -84.5254q26.748 -25.6787 1.06934 -52.4277l-87.7354 -87.7354q-28.8887 -27.8184 -55.6367 0l-87.7363 87.7354q-26.748 26.749 3.20996 55.6377l81.3164 82.3857q29.958 29.958 62.0566 -1.07031zM947.184 1241.22l83.4561 -84.5254
q26.749 -25.6787 1.06934 -52.4277l-87.7354 -87.7354q-27.8184 -27.8184 -55.6367 0l-87.7354 87.7354q-26.749 26.749 3.20898 55.6377l81.3164 82.3857q31.0283 29.958 62.0566 -1.07031zM1107 687q-123 -3 -173 -151q-71 -205 150 -219q74 -5 182 22q3 351 -159 348z
M1351 692q55 -111 62.5 -268.5t0.5 -246t-29 -163.5q-45 -151 -150 -255q-194 -179 -547 -171q-296 7 -448 161.5t-148 422.5q3 206 94 392l155 -40q-86 -227 -85 -363q3 -418 476 -413q378 3 490 257q34 76 36 169q-304 -54 -417 73q-79 88 -59.5 247t122 258.5t218.5 92.5
q158 -9 229 -153z" />
    <glyph glyph-name="uniFED6" unicode="&#x642;" horiz-adv-x="1528" arabic-form="final" 
d="M1102 522q-126 -3 -173 -159q-57 -184 146 -200q53 -4 194 3q3 360 -167 356zM1261 2q-24 -1 -188 -1t-241 89t-61 215q21 179 126 280.5t220 94.5q161 -10 230 -153q53 -112 66 -267q5 -70 7 -85h75h59v-175l-137 2q-17 -264 -204 -430.5t-502.5 -159.5t-466.5 160.5
t-149 417.5h-2v6h2q3 207 94 396l155 -40q-86 -227 -85 -363q3 -418 476 -413q295 3 431 163q92 108 95 263zM1247.98 1091.22l83.4561 -84.5254q26.748 -25.6787 1.06934 -52.4277l-87.7354 -87.7354q-28.8887 -27.8184 -55.6367 0l-87.7363 87.7354
q-26.748 26.749 3.20996 55.6377l81.3164 82.3857q29.958 29.958 62.0566 -1.07031zM945.184 1091.22l83.4561 -84.5254q26.749 -25.6787 1.06934 -52.4277l-87.7354 -87.7354q-27.8184 -27.8184 -55.6367 0l-87.7354 87.7354q-26.749 26.749 3.20898 55.6377
l81.3164 82.3857q31.0283 29.958 62.0566 -1.07031z" />
    <glyph glyph-name="uniFED7" unicode="&#x642;" horiz-adv-x="825" arabic-form="initial" 
d="M411 848q-117 -3 -157 -162q-39 -158 98 -181q135 -24 230 48q6 24 -11 116q-34 183 -160 179zM646 873q118 -198 75 -544q-22 -183 -157 -269q-95 -60 -365 -60h-219v175h105q317 0 364 17q125 46 131 208q-56 -47 -166 -49q-189 -3 -261 91q-63 84 -46 230
q17 147 109 243q113 120 261 89q104 -22 169 -131zM564.979 1441.22l83.4561 -84.5254q26.748 -25.6787 1.06934 -52.4277l-87.7354 -87.7354q-28.8887 -27.8184 -55.6367 0l-87.7363 87.7354q-26.748 26.749 3.20996 55.6377l81.3164 82.3857
q29.958 29.958 62.0566 -1.07031zM262.184 1441.22l83.4561 -84.5254q26.749 -25.6787 1.06934 -52.4277l-87.7354 -87.7354q-27.8184 -27.8184 -55.6367 0l-87.7354 87.7354q-26.749 26.749 3.20898 55.6377l81.3164 82.3857q31.0283 29.958 62.0566 -1.07031z" />
    <glyph glyph-name="uniFED8" unicode="&#x642;" horiz-adv-x="1010" arabic-form="medial" 
d="M339 478q-1 -74 51 -126q81 -83 124 -83q44 1 124 83q51 51 51 126q1 74 -51 126t-124 52t-124 -52q-51 -51 -51 -126zM377 777q61 26 145 27q83 0 150 -32q131 -65 162 -203q24 -107 -12 -198q-39 -100 -150 -171q91 -26 281 -25h68v-175h-204q-138 0 -304 107
q-164 -107 -302 -107h-221v175h83q196 0 270 27q-93 61 -133 154q-43 100 -12 215q39 147 179 206zM691.979 1244.22l83.4561 -84.5254q26.748 -25.6787 1.06934 -52.4277l-87.7354 -87.7354q-28.8887 -27.8184 -55.6367 0l-87.7363 87.7354q-26.748 26.749 3.20996 55.6377
l81.3164 82.3857q29.958 29.958 62.0566 -1.07031zM389.184 1244.22l83.4561 -84.5254q26.749 -25.6787 1.06934 -52.4277l-87.7354 -87.7354q-27.8184 -27.8184 -55.6367 0l-87.7354 87.7354q-26.749 26.749 3.20898 55.6377l81.3164 82.3857
q31.0283 29.958 62.0566 -1.07031z" />
    <glyph glyph-name="uniFED9" unicode="&#x643;" horiz-adv-x="1770" arabic-form="isolated" 
d="M1517 440q-44 970 -45 974l167 64v-1068q0 -18 -2 -57q-15 -215 -307 -307q-143 -44 -469 -45t-485 66q-258 109 -280 370q-11 135 28 272l134 -35q-22 -139 -19 -196q13 -263 365 -294q159 -13 524 3t384 197zM689 726q64 -9 122 -9t106 19q82 32 82 84q0 58 -95 73
q-122 19 -120 132q2 78 78.5 116.5t188.5 45.5v-58q-72 -5 -110 -19q-96 -36 -96 -81q0 -60 50 -78q24 -9 69 -15.5t61 -21t21 -21.5t8 -15q6 -16 6 -51t-22.5 -72t-80.5 -70q-94 -53 -268 -24v65z" />
    <glyph glyph-name="uniFEDA" unicode="&#x643;" horiz-adv-x="1846" arabic-form="final" 
d="M1615 252q57 -77 212 -77h29v-175h-41q-175 0 -295 121q-114 -69 -272 -95t-387 -25q-337 0 -478 60q-142 60 -212 153q-70 92 -81 225t28 270l134 -35q-22 -139 -19 -196q12 -242 321 -289q76 -11 275.5 -11.5t304.5 4.5q363 19 380 212l3 46l-40 959l163 80v-1069
q-2 -91 -25 -158zM690 726q64 -9 122 -9t106 19q82 32 82 84q0 58 -95 73q-122 19 -120 132q2 78 78.5 116.5t188.5 45.5v-58q-72 -5 -110 -19q-96 -36 -96 -81q0 -36 17.5 -58.5t81.5 -31.5q116 -17 116 -98q0 -98 -91 -149q-106 -60 -280 -31v65z" />
    <glyph glyph-name="uniFEDB" unicode="&#x643;" horiz-adv-x="902" arabic-form="initial" 
d="M622 270q-66 -270 -461 -270h-171v175h251q214 0 241 136q16 77 -60 161l-261 290q-91 101 -94 170q-4 115 116 180l679 366v-173l-657 -357l328 -363q131 -145 89 -315z" />
    <glyph glyph-name="uniFEDC" unicode="&#x643;" horiz-adv-x="1029" arabic-form="medial" 
d="M616 257q-32 -256 -455 -257h-171v175h251q214 0 241 136q16 77 -60 161l-261 290q-91 101 -94 170q-4 115 116 180l679 366v-173l-657 -357l613 -680q83 -93 195 -93h26v-175h-57q-170 0 -366 257z" />
    <glyph glyph-name="uniFEDD" unicode="&#x644;" horiz-adv-x="1292" arabic-form="isolated" 
d="M1159 162q4 -544 -509 -555q-380 -9 -507 284q-62 145 -33 348q20 135 78 265l150 -51q-74 -179 -76 -325q0 -31 4 -61q42 -297 386 -297q330 -1 375 328q5 34 5 112l-2 239l-31 961l163 68v-1029q0 -280 -3 -287z" />
    <glyph glyph-name="uniFEDE" unicode="&#x644;" horiz-adv-x="1416" arabic-form="final" 
d="M1162 401q0 -226 211 -226h53v-175h-40q-159 0 -230 73q-37 -456 -506 -466q-380 -9 -507 284q-62 145 -33 348q20 135 78 265l150 -51q-74 -179 -76 -325q0 -31 4 -61q42 -297 386 -297q330 -1 375 328q5 34 5 112l-2 239l-31 961l163 68v-1077z" />
    <glyph glyph-name="uniFEDF" unicode="&#x644;" horiz-adv-x="530" arabic-form="initial" 
d="M399 440q0 -233 -94 -336.5t-240 -103.5h-75v175h26q176 0 234 135q27 61 23 142l-38 955l164 72v-1039z" />
    <glyph glyph-name="uniFEE0" unicode="&#x644;" horiz-adv-x="621" arabic-form="medial" 
d="M84 0h-94v175h35q105 0 166 54.5t56 173.5l-39 1005l163 70v-1075q0 -118 55.5 -173t171.5 -55h34v-175h-93q-148 0 -249 108q-98 -108 -206 -108z" />
    <glyph glyph-name="uniFEE1" unicode="&#x645;" horiz-adv-x="1123" arabic-form="isolated" 
d="M454 328q0 -10 97 -14.5t133 -4.5q128 0 157 19q19 13 35 48q58 125 -213 242q-106 47 -169 -30q-5 4 -19 -41.5t-21 -161.5v-57zM917 168q-65 -25 -238.5 -19.5t-289 5.5t-150.5 -69.5t-26 -202.5l32 -454l-155 -88v588q0 188 76 284q50 64 132 78q-15 301 103 413
q148 140 327 55q352 -168 299 -371q-57 -221 -110 -219z" />
    <glyph glyph-name="uniFEE2" unicode="&#x645;" horiz-adv-x="1120" arabic-form="final" 
d="M458 393q8 -204 121 -284q70 -50 152 -24q98 30 61 263q-18 110 -121 112q-122 3 -213 -67zM948 247q48 -72 156 -72h26v-174h-41q-137 0 -191 74q-42 -135 -167 -148q-98 -10 -179 22q-212 85 -226 390q-128 -48 -111 -317l38 -580l-162 -81v721q0 266 176 392
q179 130 389 133q226 3 271 -218q12 -55 21 -142z" />
    <glyph glyph-name="uniFEE3" unicode="&#x645;" horiz-adv-x="914" arabic-form="initial" 
d="M814 148q-23 -77 -74 -127q-90 -89 -255 -57q-128 25 -231 125q-56 -89 -215 -89h-49v175h64q71 0 103 60q19 36 55 114q127 275 247 299q222 45 322 -216q66 -172 33 -284zM312 232q52 -63 134 -100q149 -65 206 30q48 79 -22 226q-41 86 -108 95q-60 7 -117 -79
q-55 -84 -93 -172z" />
    <glyph glyph-name="uniFEE4" unicode="&#x645;" horiz-adv-x="1026" arabic-form="medial" 
d="M312 232q42 -61 134 -100q150 -63 206 30q48 79 -22 226q-41 86 -108 95q-64 8 -117 -79q-53 -84 -93 -172zM798 102q-29 -68 -89 -108q-88 -58 -224 -30q-126 26 -231 125q-56 -89 -215 -89h-49v175h64q68 0 101 61q46 89 57 113q123 272 247 299q216 47 322 -216
q15 -37 33 -104q41 -153 192 -153h33v-175h-36q-140 0 -205 102z" />
    <glyph glyph-name="uniFEE5" unicode="&#x646;" horiz-adv-x="1381" arabic-form="isolated" 
d="M1156 755q128 -214 127 -427q-4 -603 -606 -610q-555 -6 -585 511q-5 79 17 192t72 220l140 -54q-89 -219 -73 -371q39 -345 430 -343q430 3 449 400q8 178 -112 347zM703.484 898.22l83.4561 -84.5254q26.748 -25.6787 1.06934 -52.4277l-87.7354 -87.7354
q-27.8184 -27.8184 -55.6377 0l-87.7354 87.7354q-26.748 26.749 3.20996 55.6377l81.3164 82.3857q31.0283 29.958 62.0566 -1.07031z" />
    <glyph glyph-name="uniFEE6" unicode="&#x646;" horiz-adv-x="1384" arabic-form="final" 
d="M659 -488q-408 -6 -532 284q-63 145 -33 348q20 135 78 265l150 -51q-76 -184 -76 -325q0 -31 4 -61q39 -297 412 -297q382 -1 423 328q27 214 -106 384l138 132q56 -153 107 -248q52 -96 135 -96h36v-175h-35q-83 0 -130 67q4 -540 -571 -555zM672.484 651.22
l83.4561 -84.5254q26.748 -25.6787 1.06934 -52.4277l-87.7354 -87.7354q-27.8184 -27.8184 -55.6377 0l-87.7354 87.7354q-26.748 26.749 3.20996 55.6377l81.3164 82.3857q31.0283 29.958 62.0566 -1.07031z" />
    <glyph glyph-name="uniFEE7" unicode="&#x646;" horiz-adv-x="598" arabic-form="initial" 
d="M298.484 1137.22l83.4561 -84.5254q26.748 -25.6787 1.06934 -52.4277l-87.7354 -87.7354q-27.8184 -27.8184 -55.6377 0l-87.7354 87.7354q-26.748 26.749 3.20996 55.6377l81.3164 82.3857q31.0283 29.958 62.0566 -1.07031zM416 76q-89 -76 -335 -76h-91v175h104
q60 0 103 6q110 14 138 80t17 199.5t-34 225.5l152 33q36 -92 43 -240q16 -307 -97 -403z" />
    <glyph glyph-name="uniFEE8" unicode="&#x646;" horiz-adv-x="702" arabic-form="medial" 
d="M396 96q-86 -96 -234 -96h-172v175h125q114 0 164 49.5t51 121.5l5 212l145 25l8 -237q3 -76 60 -126q52 -45 142 -45h23v-175h-46q-161 0 -249 95l-11 13zM380.484 1018.22l83.4561 -84.5254q26.748 -25.6787 1.06934 -52.4277l-87.7354 -87.7354
q-27.8184 -27.8184 -55.6377 0l-87.7354 87.7354q-26.748 26.749 3.20996 55.6377l81.3164 82.3857q31.0283 29.958 62.0566 -1.07031z" />
    <glyph glyph-name="uniFEE9" unicode="&#x647;" horiz-adv-x="911" arabic-form="isolated" 
d="M450 626q-241 -243 -184 -392q17 -46 87 -68q99 -32 198 -5q77 22 94 80q39 129 -108 294q-68 75 -87 91zM461 4q-312 3 -355 231q-26 138 51 262q98 156 172 231l-38 33l106 113q271 -198 364 -397q74 -159 43 -267q-59 -210 -343 -206z" />
    <glyph glyph-name="uniFEEA" unicode="&#x647;" horiz-adv-x="1080" arabic-form="final" 
d="M697 388q-15 157 -32 270q-403 -75 -417 -186q-10 -80 76 -97q124 -25 373 13zM645 797q-1 28 -14 124l149 37q53 -507 63.5 -564t17.5 -81q6 -25 15 -44q8 -20 17 -35q19 -29 42 -39q47 -20 136 -20h19v-175h-40q-295 0 -335 241q-497 -79 -603 124q-19 36 -20 84
q-7 240 553 348z" />
    <glyph glyph-name="uniFEEB" unicode="&#x647;" horiz-adv-x="1151" arabic-form="initial" 
d="M719 501q26 -98 -12 -175.5t-160 -152.5q338 -138 375 52q20 105 -203 276zM384 71q-156 -71 -375 -71h-19v175h60q1 0 110 1q-62 81 -57.5 187t60.5 193q75 118 198 155q34 11 58 9q-40 23 -64 35l53 122l335 -213q297 -196 316 -367q31 -291 -249 -321
q-175 -19 -426 95zM589 384q58 129 -20 181q-138 93 -248 -40q-57 -68 -67 -134q-23 -142 121 -190q168 83 214 183z" />
    <glyph glyph-name="uniFEEC" unicode="&#x647;" horiz-adv-x="957" arabic-form="medial" 
d="M313 175l36 2q76 4 115 62q68 102 68 244q0 78 -21 111q-21 32 -63 32q-95 0 -121 -159q-24 -156 -14 -292zM417 -528q-219 143 -243 528h-185v175h183q-10 301 45 426q73 166 232 166q187 -1 228 -185q7 -34 7 -72q0 -280 -173 -438q-79 -71 -188 -72q5 -190 94 -340
q43 283 245 434q104 79 240 82l66 -1v-175h-108q-235 -1 -358 -494z" />
    <glyph glyph-name="uniFEED" unicode="&#x648;" horiz-adv-x="841" arabic-form="isolated" 
d="M416 517q-127 -4 -170 -173q-44 -170 99 -196t250 55q5 34 -10 123q-31 195 -169 191zM677 530q106 -221 58 -550q-20 -143 -110 -258q-174 -226 -528 -229h-2l-71 132q524 31 565 418q-59 -49 -198 -51q-177 -3 -242 91q-66 93 -51 209q26 191 134 301q107 110 257 79
q132 -27 188 -142z" />
    <glyph glyph-name="uniFEEE" unicode="&#x648;" horiz-adv-x="854" arabic-form="final" 
d="M527 477q-36 39 -82 38q-81 -2 -124 -52q-64 -73 -70 -147.5t33 -110t107 -41t204 1.5q1 236 -68 311zM586 1h-165q-179 0 -255.5 88t-61.5 216q19 171 125 273q137 132 293 82q99 -33 151.5 -141.5t65.5 -258.5q6 -72 7 -85h119v-175h-133q-27 -181 -148 -321
q-159 -185 -490 -185h-2l-68 132q495 30 562 375z" />
    <glyph glyph-name="uniFEEF" unicode="&#x649;" horiz-adv-x="1387" arabic-form="isolated" 
d="M983 151l55 1q101 0 159 -24q99 -40 99 -150q0 -144 -130 -265q-127 -118 -352 -152q-60 -9 -127 -9q-181 0 -325 62q-362 158 -238 674q19 81 77 204l133 -75q-32 -73 -50 -138q-69 -243 -6 -371q99 -200 407 -199q166 0 273 49q189 86 193 173q4 66 -77 65h-88
q-241 4 -255 153q-7 72 18 148q53 154 192 272q133 113 266 115q45 0 85 -10l-57 -172h-4q-157 0 -285 -153q-54 -65 -64 -131.5t101 -66.5z" />
    <glyph glyph-name="uniFEF0" unicode="&#x649;" horiz-adv-x="1398" arabic-form="final" 
d="M1408 175v-175l-122 1l-162 -1q-53 0 -67 -28q-13 -28 14 -43t66 -19q40 -5 55 -7q31 -6 53 -14q75 -28 75 -123q0 -150 -103 -239q-199 -172 -557 -171q-567 1 -569 481q0 70 29 200q28 130 116 261l130 -59q-88 -133 -116 -294t46 -274q97 -147 402 -147q267 0 402 99
q72 52 72 101q0 40 -74 45q-208 15 -208 199q0 54 28 107q55 101 213 101z" />
    <glyph glyph-name="uniFEF1" unicode="&#x64a;" horiz-adv-x="1387" arabic-form="isolated" 
d="M857.979 -493.78l83.4561 -84.5254q26.748 -25.6787 1.06934 -52.4277l-87.7354 -87.7354q-28.8887 -27.8184 -55.6367 0l-87.7363 87.7354q-26.748 26.749 3.20996 55.6377l81.3164 82.3857q29.958 29.958 62.0566 -1.07031zM555.184 -493.78l83.4561 -84.5254
q26.749 -25.6787 1.06934 -52.4277l-87.7354 -87.7354q-27.8184 -27.8184 -55.6367 0l-87.7354 87.7354q-26.749 26.749 3.20898 55.6377l81.3164 82.3857q31.0283 29.958 62.0566 -1.07031zM983 151l55 1q101 0 159 -24q99 -40 99 -150q0 -144 -130 -265
q-127 -118 -352 -152q-60 -9 -127 -9q-181 0 -325 62q-362 158 -238 674q19 81 77 204l133 -75q-32 -73 -50 -138q-69 -243 -6 -371q99 -200 407 -199q166 0 273 49q189 86 193 173q4 66 -77 65h-88q-241 4 -255 153q-7 72 18 148q53 154 192 272q133 113 266 115
q45 0 85 -10l-57 -172h-4q-157 0 -285 -153q-54 -65 -64 -131.5t101 -66.5z" />
    <glyph glyph-name="uniFEF2" unicode="&#x64a;" horiz-adv-x="1398" arabic-form="final" 
d="M802.979 -747.78l83.4561 -84.5254q26.748 -25.6787 1.06934 -52.4277l-87.7354 -87.7354q-28.8887 -27.8184 -55.6367 0l-87.7363 87.7354q-26.748 26.749 3.20996 55.6377l81.3164 82.3857q29.958 29.958 62.0566 -1.07031zM500.184 -747.78l83.4561 -84.5254
q26.749 -25.6787 1.06934 -52.4277l-87.7354 -87.7354q-27.8184 -27.8184 -55.6367 0l-87.7354 87.7354q-26.749 26.749 3.20898 55.6377l81.3164 82.3857q31.0283 29.958 62.0566 -1.07031zM1408 175v-175l-122 1l-162 -1q-53 0 -67 -28q-13 -28 14 -43t66 -19q40 -5 55 -7
q31 -6 53 -14q75 -28 75 -123q0 -150 -103 -239q-199 -172 -557 -171q-567 1 -569 481q0 70 29 200q28 130 116 261l130 -59q-88 -133 -116 -294t46 -274q97 -147 402 -147q267 0 402 99q72 52 72 101q0 40 -74 45q-208 15 -208 199q0 54 28 107q55 101 213 101z" />
    <glyph glyph-name="uniFEF3" unicode="&#x64a;" horiz-adv-x="616" arabic-form="initial" 
d="M416 76q-89 -76 -335 -76h-91v175h104q60 0 103 6q110 14 138 80t17 199.5t-34 225.5l152 33q36 -92 43 -240q16 -307 -97 -403zM465.979 -202.78l83.4561 -84.5254q26.748 -25.6787 1.06934 -52.4277l-87.7354 -87.7354q-28.8887 -27.8184 -55.6367 0l-87.7363 87.7354
q-26.748 26.749 3.20996 55.6377l81.3164 82.3857q29.958 29.958 62.0566 -1.07031zM163.184 -202.78l83.4561 -84.5254q26.749 -25.6787 1.06934 -52.4277l-87.7354 -87.7354q-27.8184 -27.8184 -55.6367 0l-87.7354 87.7354q-26.749 26.749 3.20898 55.6377
l81.3164 82.3857q31.0283 29.958 62.0566 -1.07031z" />
    <glyph glyph-name="uniFEF4" unicode="&#x64a;" horiz-adv-x="702" arabic-form="medial" 
d="M396 96q-86 -96 -234 -96h-172v175h125q114 0 164 49.5t51 121.5l5 212l145 25l8 -237q3 -76 60 -126q52 -45 142 -45h23v-175h-46q-161 0 -249 95l-11 13zM468.979 -203.78l83.4561 -84.5254q26.748 -25.6787 1.06934 -52.4277l-87.7354 -87.7354
q-28.8887 -27.8184 -55.6367 0l-87.7363 87.7354q-26.748 26.749 3.20996 55.6377l81.3164 82.3857q29.958 29.958 62.0566 -1.07031zM166.184 -203.78l83.4561 -84.5254q26.749 -25.6787 1.06934 -52.4277l-87.7354 -87.7354q-27.8184 -27.8184 -55.6367 0
l-87.7354 87.7354q-26.749 26.749 3.20898 55.6377l81.3164 82.3857q31.0283 29.958 62.0566 -1.07031z" />
    <glyph glyph-name=".notdef" horiz-adv-x="748" 
d="M68 0v1365h544v-1365h-544zM136 68h408v1229h-408v-1229z" />
    <glyph glyph-name=".null" 
 />
    <glyph glyph-name="nonmarkingreturn" horiz-adv-x="682" 
 />
    <glyph glyph-name="space" unicode=" " horiz-adv-x="550" 
 />
    <glyph glyph-name="exclam" unicode="!" horiz-adv-x="827" 
d="M512 32q0 -32 -26 -32h-142q-28 0 -28 32v142q0 30 28 30h140q28 0 28 -29v-143zM319 1406h189l-20 -1055h-149z" />
    <glyph glyph-name="period" unicode="." horiz-adv-x="657" 
d="M426 32q0 -32 -26 -32h-142q-30 0 -30 32v142q0 30 30 30h138q30 0 30 -29v-143z" />
    <glyph glyph-name="colon" unicode=":" horiz-adv-x="696" 
d="M446 783v-143q0 -32 -26 -32h-142q-28 0 -28 32v142q0 30 28 30h140q28 0 28 -29zM446 32q0 -32 -26 -32h-142q-28 0 -28 32v142q0 30 28 30h140q28 0 28 -29v-143z" />
    <glyph glyph-name="uni00A0" unicode="&#xa0;" horiz-adv-x="550" 
 />
    <glyph glyph-name="guillemotleft" unicode="&#xab;" horiz-adv-x="1001" 
d="M304 5q-156 246 -156 465.5t156 466.5h141l-28 -49q-119 -209 -119 -416q0 -209 119 -417l28 -50h-141zM680 5q-156 246 -156 465.5t156 466.5h141l-28 -49q-119 -209 -119 -416q0 -209 119 -417l28 -50h-141z" />
    <glyph glyph-name="guillemotright" unicode="&#xbb;" horiz-adv-x="998" 
d="M697 937q156 -247 156 -466.5t-156 -465.5h-141l28 50q119 208 119 417q0 207 -119 416l-28 49h141zM321 937q156 -247 156 -466.5t-156 -465.5h-141l28 50q119 208 119 417q0 207 -119 416l-28 49h141z" />
    <glyph glyph-name="afii57388" unicode="&#x60c;" horiz-adv-x="670" 
d="M370 249h36q71 0 71 -56v-130q0 -64 -56 -64h-121q-64 3 -64 61v146v1q19 204 212 368l64 -31q-139 -154 -142 -295z" />
    </font>
</defs>
</svg>
