<?xml version="1.0" standalone="no"?>
<!DOCTYPE svg PUBLIC "-//W3C//DTD SVG 1.1//EN" "http://www.w3.org/Graphics/SVG/1.1/DTD/svg11.dtd" >
<svg>
<metadata>
Created by FontForge 20120731 at Fri Jul 15 08:48:32 2016
 By www-data
(c) 2000 Borna Rayaneh
</metadata>
<defs>
<font id="BVahidBold" horiz-adv-x="0" >
  <font-face 
    font-family="B Vahid"
    font-weight="700"
    font-stretch="normal"
    units-per-em="2048"
    panose-1="0 0 7 0 0 0 0 0 0 0"
    ascent="1638"
    descent="-410"
    bbox="-166 -1487 1943 2041"
    underline-thickness="100"
    underline-position="-950"
    unicode-range="U+0020-FEFC"
  />
<missing-glyph horiz-adv-x="1024" 
d="M128 0v1185h768v-1185h-768zM256 128h512v929h-512v-929z" />
    <glyph glyph-name="uE818" unicode="&#x651;&#x64b;" 
d="M452 1424q0 -58 -31 -110q-35 -60 -89 -60q-44 0 -70 47q-38 -82 -102 -82q-42 0 -65 39q-20 33 -20 78q0 117 45 117q5 0 21 -50.5t45 -50.5q30 0 56 59.5t37 59.5q5 0 18.5 -44t32.5 -44q32 0 61.5 52t31.5 52q29 0 29 -63zM428 1721l-20 -106l-372 -115l15 106z
M428 1912l-20 -106l-372 -115l15 106z" />
    <glyph glyph-name="uFC5E" unicode="&#x651;&#x64c;" arabic-form="isolated" 
d="M437 1440q0 -58 -31 -109q-35 -59 -91 -59q-43 0 -67 46q-38 -82 -102 -82q-42 0 -66 40q-20 33 -20 78q0 115 46 115q4 0 19.5 -49t45.5 -49q31 0 56.5 59t36.5 59q6 0 19.5 -44.5t29.5 -44.5q33 0 62 53t31 53q31 0 31 -66zM417 1770q0 -42 -47 -115l-75 31
q-29 -36 -91 -77q-78 -51 -137 -51q-12 0 -27 79q7 2 40 16q2 22 2 40q0 60 -35 60q-13 0 -32.5 -26t-21.5 -26q-24 0 -24 62q0 34 29 71.5t62 37.5q39 0 63.5 -32t24.5 -72q0 -67 -9 -93q60 33 82 66q-50 45 -50 111q0 64 35 122q40 67 98 67q92 0 92 -116q0 -70 -31 -131
q12 -13 52 -24zM303 1830q20 29 20 58q0 60 -42 60q-33 0 -33 -52q0 -19 18 -39.5t37 -26.5z" />
    <glyph glyph-name="uFC5F" unicode="&#x651;&#x64d;" arabic-form="isolated" 
d="M419 1748q0 -59 -31 -110q-35 -58 -91 -58q-44 0 -67 46q-40 -82 -102 -82q-43 0 -68 40q-20 33 -20 78q0 115 47 115q3 0 19 -49t45 -49q30 0 56 59t39 59q5 0 18.5 -44.5t30.5 -44.5q33 0 62 53t31 53q31 0 31 -66zM417 1356l-20 -98l-348 -108l15 99zM417 1535
l-20 -99l-348 -107l15 98z" />
    <glyph glyph-name="uFC60" unicode="&#x651;&#x64e;" arabic-form="isolated" 
d="M437 1453q0 -59 -31 -110q-35 -58 -91 -58q-43 0 -67 46q-38 -82 -102 -82q-42 0 -66 40q-20 33 -20 78q0 115 46 115q4 0 19.5 -49.5t45.5 -49.5q31 0 56.5 59.5t36.5 59.5q6 0 19.5 -44.5t29.5 -44.5q33 0 62 52.5t31 52.5q31 0 31 -65zM456 1775l-22 -105l-370 -115
l14 105z" />
    <glyph glyph-name="uFC61" unicode="&#x651;&#x64f;" arabic-form="isolated" 
d="M423 1444q0 -59 -31 -111q-36 -59 -91 -59q-44 0 -68 47q-40 -82 -102 -82q-87 0 -87 117t47 117q3 0 19 -49.5t45 -49.5q30 0 56 59.5t39 59.5q3 0 17.5 -45t31.5 -45q32 0 61.5 52t31.5 52q31 0 31 -63zM379 1739q0 -37 -42 -104l-69 29q-31 -37 -82 -71
q-68 -46 -124 -46q-13 0 -26 72q119 31 164 94q-45 42 -45 101t31 111q37 62 91 62q82 0 82 -108q0 -60 -29 -118q11 -11 49 -22zM273 1794q19 27 19 54q0 55 -37 55q-31 0 -31 -49q0 -42 49 -60z" />
    <glyph glyph-name="uFC62" unicode="&#x651;&#x650;" arabic-form="isolated" 
d="M443 1547q0 -59 -31 -109q-35 -58 -91 -58q-44 0 -68 45q-40 -80 -104 -80q-85 0 -85 117q0 115 45 115q5 0 21 -49.5t45 -49.5q30 0 56 59.5t37 59.5q7 0 20 -45t31 -45q32 0 61.5 53t31.5 53q31 0 31 -66zM439 1343l-22 -100l-350 -107l13 98z" />
    <glyph glyph-name="uFDF2" unicode="&#xfedf;&#xfee0;&#xfeea;" horiz-adv-x="1656" arabic-form="isolated" 
d="M1125 1131q0 -67 -20 -125q-19 -53 -36 -53q-12 0 -12 37q0 -1 4.5 23.5t4.5 47.5q0 98 -79 164l45 94q26 -17 56 -67q37 -63 37 -121zM1244 860q0 -60 -34.5 -103.5t-84.5 -43.5q-56 0 -63 50q-28 -58 -85 -58q-80 0 -80 112q0 55 33 105q30 45 51 45q8 0 8 -12
q0 -87 1 -56q-1 -18 -12 -21q-33 -6 -33 -31q0 -34 42 -34q62 0 62 77q0 23 19 23q17 -1 17 -23q0 -77 57 -77q47 0 47 25q0 49 -43 53l24 90q74 -22 74 -121zM1656 434q0 -434 -283 -434h-148q-71 0 -120 86q-41 -86 -126 -86h-141q-160 0 -169 182q-47 -12 -93 -25
q-69 -15 -170 -15q-206 0 -206 178q0 137 114 265q122 136 275 136q105 0 138 -56q42 -72 42 -311q0 -153 89 -153h109q103 0 103 113q0 71 -41 183l154 168q66 -113 66 -240q0 -47 -10 -109.5t-10 -75.5q0 -39 35 -39h167q89 0 89 119q0 212 -129 478l141 165
q124 -212 124 -529zM641 371q-2 85 -23 117q-27 39 -101 39t-140.5 -37t-66.5 -83q0 -61 128 -61q86 0 203 25z" />
    <glyph glyph-name="uFEF5" unicode="&#xfedf;&#xfe82;" horiz-adv-x="841" arabic-form="isolated" 
d="M841 432q0 -133 -113 -274q-126 -158 -284 -158h-190l64 201h94q27 11 27 178q0 320 -174 493l85 154q5 9 15 9q52 0 118 -142q79 -168 79 -386q0 -193 -54 -307q205 29 205 117q0 219 -82 593q34 51 136 191q2 3 4 3q22 0 46 -224q24 -228 24 -448zM736 1321l-73 -155
h-432q-97 0 -97 -58q0 -46 97 -46h24l-50 -129h-28q-136 0 -136 114q0 42 21 98q69 176 199 176h475z" />
    <glyph glyph-name="uFEF6" unicode="&#xfee0;&#xfe82;" horiz-adv-x="1141" arabic-form="final" 
d="M1179 0h-160q-85 0 -123 53q-47 66 -47 236q-32 -52 -72 -99q-95 -112 -213 -179q-125 -73 -300 -89l49 211q30 1 56 4q64 9 98 31q22 87 22 190q0 327 -232 504q21 47 65 168q3 9 14 9q47 0 127 -99q95 -117 128 -271q22 -101 22 -201q0 -149 -43 -260q222 101 222 268
q0 80 -46 445q37 45 129 166q3 4 6 4q28 0 59 -346q26 -292 26 -396q0 -148 101 -148h112v-201zM736 1331l-73 -155h-432q-97 0 -97 -58q0 -46 97 -46h24l-50 -129h-28q-136 0 -136 114q0 42 21 98q69 176 199 176h475z" />
    <glyph glyph-name="uFEF7" unicode="&#xfedf;&#xfe84;" horiz-adv-x="789" arabic-form="isolated" 
d="M789 432q0 -133 -113 -274q-126 -158 -284 -158h-190l63 201h94q28 11 28 178q0 320 -175 493l86 154q5 9 14 9q52 0 119 -142q79 -168 79 -386q0 -193 -54 -307q204 29 204 117q0 219 -81 593q34 51 136 191q2 3 4 3q22 0 46 -224q24 -228 24 -448zM501 1297
q12 0 12 -14q0 -21 -18.5 -55t-25.5 -34q-26 0 -86 -24q-89 -36 -153 -98q-16 -15 -22 -15q-8 0 -8 65q0 13 73 67q-46 16 -46 56q0 34 42 89q49 63 99 63q52 0 77 -47l-52 -62q-21 30 -56 30q-38 0 -38 -29q0 -26 72 -26q37 0 82.5 17t47.5 17z" />
    <glyph glyph-name="uFEF8" unicode="&#xfee0;&#xfe84;" horiz-adv-x="1088" arabic-form="final" 
d="M1127 0h-161q-84 0 -122 53q-47 66 -47 236q-32 -52 -72 -99q-96 -112 -213 -179q-126 -73 -301 -89l49 211q31 1 57 4q64 9 98 31q22 87 22 190q0 327 -232 504q20 47 65 168q3 9 13 9q48 0 128 -99q95 -117 128 -271q21 -101 21 -201q0 -149 -42 -260q222 101 222 268
q0 80 -46 445q37 45 129 166q2 4 5 4q29 0 60 -346q26 -292 26 -396q0 -148 100 -148h113v-201zM501 1317q12 0 12 -14q0 -21 -18.5 -55t-25.5 -34q-26 0 -86 -24q-89 -36 -153 -98q-16 -15 -22 -15q-8 0 -8 65q0 13 73 67q-46 16 -46 56q0 34 42 89q49 63 99 63
q52 0 77 -47l-52 -62q-21 30 -56 30q-38 0 -38 -29q0 -26 72 -26q37 0 82.5 17t47.5 17z" />
    <glyph glyph-name="uFEF9" unicode="&#xfedf;&#xfe88;" horiz-adv-x="796" arabic-form="isolated" 
d="M796 432q0 -133 -113 -274q-126 -158 -284 -158h-190l63 201h94q28 11 28 178q0 320 -174 493l85 154q5 9 15 9q52 0 118 -142q79 -168 79 -386q0 -193 -54 -307q205 29 205 117q0 219 -82 593q34 51 136 191q2 3 4 3q22 0 46 -224q24 -228 24 -448zM441 -202
q12 0 12 -15q0 -20 -18.5 -54.5t-25.5 -34.5q-26 0 -86 -24q-89 -35 -153 -98q-16 -15 -22 -15q-8 0 -8 65q0 14 73 67q-46 17 -46 57q0 34 42 89q49 63 99 63q52 0 77 -48l-52 -61q-21 30 -56 30q-38 0 -38 -29q0 -27 72 -27q37 0 82.5 17.5t47.5 17.5z" />
    <glyph glyph-name="uFEFA" unicode="&#xfee0;&#xfe88;" horiz-adv-x="1095" arabic-form="final" 
d="M1134 0h-160q-85 0 -123 53q-47 66 -47 236q-32 -52 -72 -99q-96 -112 -213 -179q-126 -73 -300 -89l49 211q30 1 56 4q64 9 98 31q22 87 22 190q0 327 -232 504q20 47 65 168q3 9 13 9q48 0 128 -99q95 -117 128 -271q21 -101 21 -201q0 -149 -42 -260q222 101 222 268
q0 80 -46 445q37 45 129 166q3 4 6 4q28 0 59 -346q26 -292 26 -396q0 -148 101 -148h112v-201zM441 -272q12 0 12 -15q0 -20 -18.5 -54.5t-25.5 -34.5q-26 0 -86 -24q-89 -35 -153 -98q-16 -15 -22 -15q-8 0 -8 65q0 14 73 67q-46 17 -46 57q0 34 42 89q49 63 99 63
q52 0 77 -48l-52 -61q-21 30 -56 30q-38 0 -38 -29q0 -27 72 -27q37 0 82.5 17.5t47.5 17.5z" />
    <glyph glyph-name="uFEFB" unicode="&#xfedf;&#xfe8e;" horiz-adv-x="787" arabic-form="isolated" 
d="M787 432q0 -133 -113 -274q-126 -158 -284 -158h-190l63 201h94q28 11 28 178q0 320 -174 493l85 154q5 9 15 9q52 0 118 -142q79 -168 79 -386q0 -193 -54 -307q205 29 205 117q0 219 -82 593q34 51 136 191q2 3 4 3q22 0 46 -224q24 -228 24 -448z" />
    <glyph glyph-name="uFEFC" unicode="&#xfee0;&#xfe8e;" horiz-adv-x="1084" arabic-form="final" 
d="M1122 0h-160q-85 0 -123 53q-47 66 -47 236q-32 -52 -72 -99q-95 -112 -213 -179q-126 -73 -300 -89l49 211q30 1 56 4q64 9 98 31q22 87 22 190q0 327 -232 504q20 47 65 168q3 9 13 9q48 0 128 -99q95 -117 128 -271q21 -101 21 -201q0 -149 -42 -260q222 101 222 268
q0 80 -46 445q37 45 129 166q3 4 6 4q28 0 59 -346q26 -292 26 -396q0 -148 101 -148h112v-201z" />
    <glyph glyph-name="u0652_u064E.liga" unicode="&#x652;&#x64e;" horiz-adv-x="1" 
d="M358 632l-53 -39q4 247 -5 247q-2 -1 -3 -5q13 15 49 56q3 3 5 3q7 0 7 -51v-211z" />
    <glyph glyph-name="u0652_u064B.liga" unicode="&#x652;&#x64b;" horiz-adv-x="1" 
d="M694 915q-31 -110 -44 -141h-90l12 37q2 6 2 11q0 20 -35 20h-281l48 182h310q88 0 88 -51q0 -20 -10 -58z" />
    <glyph glyph-name="u0652_u064D.liga" unicode="&#x652;&#x64d;" horiz-adv-x="1" 
d="M815 -613q-31 -110 -44 -141h-90l12 37q2 7 2 12q0 19 -35 19h-281l48 182h310q88 0 88 -50q0 -21 -10 -59z" />
    <glyph glyph-name="u0622" unicode="&#x622;" horiz-adv-x="667" arabic-form="isolated" 
d="M766 1267l-73 -155h-432q-97 0 -97 -58q0 -46 97 -46h24l-50 -128h-29q-136 0 -136 113q0 42 22 99q68 175 199 175h475zM510 412q0 -147 -84 -268q-88 -126 -203 -126l34 182q120 -1 120 115q0 246 -20 556q31 37 124 141q5 6 10 6q19 0 19 -126v-480z" />
    <glyph glyph-name="u0623" unicode="&#x623;" horiz-adv-x="561" arabic-form="isolated" 
d="M561 1268q11 0 11 -14q0 -20 -18 -54.5t-26 -34.5q-26 0 -86 -24q-88 -35 -153 -98q-15 -15 -22 -15q-8 0 -8 65q0 13 73 67q-46 16 -46 56q0 34 43 89q48 63 98 63q53 0 77 -47l-52 -61q-21 29 -56 29q-38 0 -38 -28q0 -27 72 -27q38 0 83 17t48 17zM488 396
q0 -147 -85 -268q-87 -125 -203 -125l35 182q119 -1 119 114q0 246 -20 557q32 37 124 141q6 6 10 6q20 0 20 -126v-481z" />
    <glyph glyph-name="u0624" unicode="&#x624;" horiz-adv-x="788" arabic-form="isolated" 
d="M629 954q11 0 11 -15q0 -20 -18 -54.5t-26 -34.5q-26 0 -86 -24q-88 -35 -153 -98q-15 -15 -22 -15t-7 65q0 13 72 67q-46 17 -46 57q0 33 43 89q48 62 98 62q53 0 77 -47l-52 -61q-21 30 -56 30q-38 0 -38 -29q0 -27 72 -27q38 0 83.5 17.5t47.5 17.5zM788 108
q0 -304 -259 -478q-114 -76 -329 -138l52 206q149 46 278 131q148 97 148 173q0 46 -45 46h-200q-107 0 -136 68q-13 29 -13 120q0 76 38 186q19 56 54 103q49 64 101 64q110 0 210.5 -158t100.5 -323zM590 249q-36 116 -144 116q-29 0 -47.5 -20.5t-18.5 -46.5
q0 -49 56 -49h154z" />
    <glyph glyph-name="u0625" unicode="&#x625;" horiz-adv-x="494" arabic-form="isolated" 
d="M495 396q0 -147 -84 -268q-88 -125 -203 -125l34 182q120 -1 120 114q0 246 -20 605q32 37 124 141q5 6 10 6q19 0 19 -126v-529zM501 -182q12 0 12 -15q0 -20 -18.5 -54.5t-25.5 -34.5q-26 0 -86 -24q-89 -35 -153 -98q-16 -15 -22 -15q-8 0 -8 65q0 14 73 67
q-46 17 -46 57q0 34 42 89q49 63 99 63q52 0 77 -48l-52 -61q-21 30 -56 30q-38 0 -38 -29q0 -27 72 -27q37 0 82.5 17.5t47.5 17.5z" />
    <glyph glyph-name="u0626" unicode="&#x626;" horiz-adv-x="1352" arabic-form="isolated" 
d="M1354 577l-54 -208q-77 37 -179 37q-94 0 -169.5 -28.5t-75.5 -60.5q0 -71 209 -71q181 0 181 -151q0 -11 -1 -28t-1 -22q0 -123 -159 -259q-197 -171 -495 -171q-410 0 -410 333q0 175 102 302q112 140 295 140q24 0 50 -2l-44 -223q-20 5 -51 5q-88 0 -157 -34
q-88 -44 -88 -124q0 -184 340 -184q172 0 337 71q153 66 153 122q0 27 -96 27q-157 0 -211 26q-76 37 -76 154q0 93 88 213q122 167 327 167q86 0 185 -31zM554 587q11 0 11 -15q0 -20 -18 -54.5t-26 -34.5q-26 0 -86 -24q-88 -35 -153 -98q-16 -15 -22 -15q-8 0 -8 65
q0 14 73 67q-46 17 -46 57q0 34 43 89q48 63 98 63q53 0 77 -47l-52 -62q-21 30 -56 30q-38 0 -38 -29q0 -27 72 -27q38 0 83 17.5t48 17.5z" />
    <glyph glyph-name="u0627" unicode="&#x627;" horiz-adv-x="486" arabic-form="isolated" 
d="M488 396q0 -147 -85 -268q-87 -125 -203 -125l35 182q119 -1 119 114q0 246 -20 605q32 37 124 141q6 6 10 6q20 0 20 -126v-529z" />
    <glyph glyph-name="u0628" unicode="&#x628;" horiz-adv-x="1481" arabic-form="isolated" 
d="M1481 227q0 -107 -52 -167t-141 -60h-839q-249 0 -249 228q0 90 48 178q58 107 149 107h143l-49 -184h-124q-79 0 -79 -40q0 -88 157 -88h852q89 0 59 -1q29 1 29 20q0 45 -171 120l44 189q223 -75 223 -302zM957 -234q-30 -110 -48 -160h-90l11 37q2 6 2 11q0 20 -34 20
h-99l51 201h127q90 0 90 -52q0 -20 -10 -57z" />
    <glyph glyph-name="u0629" unicode="&#x629;" horiz-adv-x="722" arabic-form="isolated" 
d="M642 1067q12 0 12 -15q0 -20 -18.5 -54.5t-25.5 -34.5q-26 0 -86 -24q-89 -35 -153 -98q-16 -15 -22 -15q-8 0 -8 65q0 14 73 67q-46 17 -46 57q0 34 42 89q49 63 99 63q52 0 77 -47l-52 -62q-21 30 -56 30q-38 0 -38 -29q0 -27 72 -27q37 0 82.5 17.5t47.5 17.5z
M727 681l-34 -170q-43 0 -83 -6q104 -57 104 -182q0 -129 -75 -225q-78 -100 -195 -100q-180 0 -180 214q0 114 49 201q-28 12 -113 40l42 226q29 -4 61 -14q77 -24 157 -74q185 90 267 90zM612 251q0 23 -78 76t-113 53q-29 0 -50.5 -30.5t-21.5 -66.5q0 -82 122 -82
q52 0 96.5 16t44.5 34z" />
    <glyph glyph-name="u062A" unicode="&#x62a;" horiz-adv-x="1481" arabic-form="isolated" 
d="M1083 403q-31 -110 -44 -141h-90l12 37q2 7 2 12q0 19 -35 19h-281l48 182h310q88 0 88 -50q0 -21 -10 -59zM1481 227q0 -107 -52 -167t-141 -60h-839q-249 0 -249 228q0 90 48 178q58 107 149 107h143l-49 -184h-124q-79 0 -79 -40q0 -88 157 -88h852q89 0 59 -1
q29 1 29 20q0 45 -171 120l44 189q223 -75 223 -302z" />
    <glyph glyph-name="u062B" unicode="&#x62b;" horiz-adv-x="1481" arabic-form="isolated" 
d="M1002 686q-16 -58 -36 -116h-91l10 31q2 7 2 12q0 19 -35 19h-60l43 163h89q89 0 89 -50q0 -21 -11 -59zM1073 403q-30 -110 -43 -141h-90l11 37q2 7 2 12q0 19 -34 19h-282l48 182h310q89 0 89 -50q0 -21 -11 -59zM1481 227q0 -107 -52 -167t-141 -60h-839
q-249 0 -249 228q0 90 48 178q58 107 149 107h143l-49 -184h-124q-79 0 -79 -40q0 -88 157 -88h852q89 0 59 -1q29 1 29 20q0 45 -171 120l44 189q223 -75 223 -302z" />
    <glyph glyph-name="u062C" unicode="&#x62c;" horiz-adv-x="1058" arabic-form="isolated" 
d="M1058 -363l-49 -193q-52 10 -108 10q-68 0 -161.5 -17.5t-113.5 -17.5q-195 0 -290 61q-136 89 -136 323q0 104 49 225q80 195 256 287q20 10 20 15t-17 14q-54 30 -110 30q-67 0 -128.5 -44.5t-57.5 -44.5q-4 1 -4 7q0 9 12 58.5t12 70.5q0 31 60 81q68 55 134 55
q73 0 170 -33q128 -44 129 -44q87 -19 231 -23l-42 -193q-225 7 -349.5 -45t-193.5 -151q-65 -92 -65 -198q0 -178 158 -235q70 -25 206 -25q38 0 150 14.5t188 14.5q25 0 50 -2zM801 -83q-30 -109 -47 -160h-91l12 38q2 6 2 11q0 19 -35 19h-99l51 202h128q90 0 90 -52
q0 -20 -11 -58z" />
    <glyph glyph-name="u062D" unicode="&#x62d;" horiz-adv-x="1058" arabic-form="isolated" 
d="M1058 -363l-49 -193q-52 10 -108 10q-68 0 -161.5 -17.5t-113.5 -17.5q-195 0 -290 61q-136 89 -136 323q0 104 49 225q80 195 256 287q20 10 20 15t-17 14q-54 30 -110 30q-67 0 -128.5 -44.5t-57.5 -44.5q-4 1 -4 7q0 9 12 58.5t12 70.5q0 31 60 81q68 55 134 55
q73 0 170 -33q128 -44 129 -44q87 -19 231 -23l-42 -193q-225 7 -349.5 -45t-193.5 -151q-65 -92 -65 -198q0 -178 158 -235q70 -25 206 -25q38 0 150 14.5t188 14.5q25 0 50 -2z" />
    <glyph glyph-name="u062E" unicode="&#x62e;" horiz-adv-x="1058" arabic-form="isolated" 
d="M696 812q-30 -110 -48 -161h-90l11 38q2 6 2 11q0 19 -34 19h-99l51 202h127q90 0 90 -52q0 -20 -10 -57zM1058 -363l-49 -193q-52 10 -108 10q-68 0 -161.5 -17.5t-113.5 -17.5q-195 0 -290 61q-136 89 -136 323q0 104 49 225q80 195 256 287q20 10 20 15t-17 14
q-54 30 -110 30q-67 0 -128.5 -44.5t-57.5 -44.5q-4 1 -4 7q0 9 12 58.5t12 70.5q0 31 60 81q68 55 134 55q73 0 170 -33q128 -44 129 -44q87 -19 231 -23l-42 -193q-225 7 -349.5 -45t-193.5 -151q-65 -92 -65 -198q0 -178 158 -235q70 -25 206 -25q38 0 150 14.5t188 14.5
q25 0 50 -2z" />
    <glyph glyph-name="u062F" unicode="&#x62f;" horiz-adv-x="822" arabic-form="isolated" 
d="M816 327q0 -327 -253 -327h-363l54 201h382q87 0 87 43q0 77 -123.5 160t-232.5 83l53 201q154 0 278 -121q118 -114 118 -240z" />
    <glyph glyph-name="u0630" unicode="&#x630;" horiz-adv-x="816" arabic-form="isolated" 
d="M699 946q-30 -110 -48 -160h-90l11 37q2 6 2 11q0 20 -34 20h-99l51 201h127q90 0 90 -52q0 -20 -10 -57zM816 327q0 -327 -253 -327h-363l54 201h382q87 0 87 43q0 77 -123.5 160t-232.5 83l53 201q154 0 278 -121q118 -114 118 -240z" />
    <glyph glyph-name="u0631" unicode="&#x631;" horiz-adv-x="578" arabic-form="isolated" 
d="M578 80q0 -259 -263 -425q-148 -94 -315 -131l52 206q80 16 231 103q194 111 194 206q0 111 -169 192l58 202q212 -131 212 -353z" />
    <glyph glyph-name="u0632" unicode="&#x632;" horiz-adv-x="578" arabic-form="isolated" 
d="M500 708q-30 -110 -48 -160h-90l11 37q2 6 2 11q0 20 -34 20h-99l51 201h127q90 0 90 -52q0 -20 -10 -57zM578 80q0 -259 -263 -425q-148 -94 -315 -131l52 206q80 16 231 103q194 111 194 206q0 111 -169 192l58 202q212 -131 212 -353z" />
    <glyph glyph-name="u0633" unicode="&#x633;" horiz-adv-x="1671" arabic-form="isolated" 
d="M1666 205q0 -89 -65 -152q-53 -53 -100 -53h-83q-87 0 -134 118q-4 9 -4 -1q0 -37 -30 -72q-38 -45 -102 -45h-40q-31 -220 -200 -326q-131 -83 -312 -83q-396 0 -396 356q0 122 87 230q117 144 335 144q45 0 93 -6l-52 -183q-29 3 -60 3q-120 0 -208 -37
q-95 -40 -95 -104q0 -93 83 -149q90 -61 252 -61q151 0 271 62q128 64 128 156q0 93 -162 210l56 197q81 -59 137 -143q45 -66 51 -66h53q58 0 75 43q8 22 8 86t44 64q46 0 46 -64q0 -129 60 -129q5 0 13 1h12h110q50 0 50 22q0 26 -57 62q-35 22 -109 42l58 177
q188 -60 188 -247q0 -10 -1 -28v-24z" />
    <glyph glyph-name="u0634" unicode="&#x634;" horiz-adv-x="1670" arabic-form="isolated" 
d="M1415 924q-16 -58 -36 -116h-90l9 31q2 7 2 12q0 19 -34 19h-61l44 163h89q88 0 88 -50q0 -21 -11 -59zM1486 641q-30 -110 -43 -141h-90l12 37q2 7 2 11q0 20 -35 20h-281l48 182h310q88 0 88 -50q0 -21 -11 -59zM1666 205q0 -78 -47 -138q-51 -67 -132 -67h-41
q-92 0 -133 74q-18 33 -18 43q0 -37 -30 -72q-38 -45 -102 -45h-55q-31 -220 -200 -328q-132 -85 -312 -85q-396 0 -396 360q0 122 87 230q117 144 335 144q45 0 93 -6l-52 -183q-29 3 -60 3q-120 0 -208 -37q-95 -40 -95 -104q0 -93 83 -149q90 -61 252 -61q150 0 264 62
q119 64 119 156q0 93 -146 210l56 197q70 -52 115 -142q33 -66 73 -66h67q58 0 76 43q9 22 9 85.5t43 63.5q45 0 45 -64q0 -86 35 -113q18 -15 67 -15h74q50 0 50 29q0 26 -38 54.5t-79 42.5l58 177q104 -68 132 -162q11 -38 11 -137z" />
    <glyph glyph-name="u0635" unicode="&#x635;" horiz-adv-x="1793" arabic-form="isolated" 
d="M1792 350q0 -121 -85 -230q-95 -120 -225 -120h-363q-11 -167 -154 -288q-154 -130 -378 -130q-192 0 -292 96q-95 92 -95 259q0 159 115 270q124 120 327 120q32 0 65 -4l-51 -190q-37 4 -81 4q-278 0 -278 -146q0 -83 71 -141q86 -70 248 -70q146 0 273 58
q142 65 142 159q0 101 -155 210l48 183q72 -8 183 -189h71q67 149 175 241q114 98 235 98q89 0 143 -45q61 -51 61 -145zM1594 201q87 0 87 56q0 35 -38 64q-42 31 -105 31q-103 0 -193 -61q-67 -45 -92 -90h341z" />
    <glyph glyph-name="u0636" unicode="&#x636;" horiz-adv-x="1797" arabic-form="isolated" 
d="M1705 785q-30 -110 -48 -160h-90l12 37q1 6 1 11q0 20 -34 20h-99l51 201h128q89 0 89 -52q0 -20 -10 -57zM1793 350q0 -121 -85 -230q-95 -120 -224 -120h-365q-10 -163 -161 -286q-157 -127 -370 -127q-191 0 -292 97q-96 91 -96 253q0 159 115 270q124 120 327 120
q33 0 66 -4l-51 -190q-38 4 -81 4q-279 0 -279 -146q0 -84 71 -141q86 -70 249 -70q146 0 272 58q142 65 142 159q0 101 -154 210l48 183q72 -8 183 -189h70q68 149 175 241q115 98 236 98q89 0 144 -45q60 -51 60 -145zM1595 201q88 0 88 56q0 35 -39 64q-42 31 -105 31
q-103 0 -193 -61q-67 -45 -92 -90h341z" />
    <glyph glyph-name="u0637" unicode="&#x637;" horiz-adv-x="1033" arabic-form="isolated" 
d="M1031 366q0 -162 -115 -268q-106 -98 -246 -98h-470l46 201h154q35 88 121 216q7 39 7 79q0 200 -139 376l98 192q151 -170 151 -418q0 -81 -18 -162q82 80 227 80q62 0 114 -41q70 -54 70 -157zM820 201q97 0 97 74q0 38 -35 65q-39 31 -104 31q-191 0 -299 -170h341z
" />
    <glyph glyph-name="u0638" unicode="&#x638;" horiz-adv-x="1033" arabic-form="isolated" 
d="M961 823q-31 -109 -48 -160h-90l11 37q2 7 2 12q0 19 -35 19h-98l51 201h127q90 0 90 -51q0 -21 -10 -58zM1031 366q0 -162 -115 -268q-106 -98 -246 -98h-470l46 201h154q35 88 121 216q7 39 7 79q0 200 -139 376l98 192q151 -170 151 -418q0 -81 -18 -162q82 80 227 80
q62 0 114 -41q70 -54 70 -157zM820 201q97 0 97 74q0 38 -35 65q-39 31 -104 31q-191 0 -299 -170h341z" />
    <glyph glyph-name="u0639" unicode="&#x639;" horiz-adv-x="933" arabic-form="isolated" 
d="M1079 -578l-51 -203q-70 6 -224 -31q-161 -39 -192 -39q-412 0 -412 428q0 272 175 432q-50 50 -66 79q-21 38 -21 95q0 105 62 204q73 118 186 118q47 0 128.5 -9t85.5 -9l-34 -170q-106 19 -188 19q-133 0 -133 -56q0 -89 206 -89q53 0 333 23l-44 -189
q-170 1 -292 -35q-292 -84 -292 -336q0 -115 72 -202q83 -101 222 -101q68 0 231.5 35.5t247.5 35.5z" />
    <glyph glyph-name="u063A" unicode="&#x63a;" horiz-adv-x="933" arabic-form="isolated" 
d="M717 785q-30 -110 -48 -160h-90l11 37q2 6 2 11q0 20 -34 20h-99l51 201h127q90 0 90 -52q0 -20 -10 -57zM1079 -578l-51 -203q-70 6 -224 -31q-161 -39 -192 -39q-412 0 -412 428q0 272 175 432q-50 50 -66 79q-21 38 -21 95q0 105 62 204q73 118 186 118q46 0 126.5 -9
t87.5 -9l-34 -170q-106 19 -188 19q-133 0 -133 -56q0 -89 206 -89q53 0 333 23l-44 -189q-170 1 -292 -35q-292 -84 -292 -336q0 -115 72 -202q83 -101 222 -101q68 0 231.5 35.5t247.5 35.5z" />
    <glyph glyph-name="u0641" unicode="&#x641;" horiz-adv-x="1545" arabic-form="isolated" 
d="M1394 1092q-30 -110 -48 -160h-90l12 37q2 6 2 11q0 20 -35 20h-99l51 201h128q90 0 90 -52q0 -20 -11 -57zM1544 384q0 -122 -48 -227q-71 -157 -222 -157h-825q-96 0 -167 49q-82 57 -82 154q0 126 45 221q57 116 160 116h238l-76 -190h-199q-76 0 -76 -51
q0 -40 40 -69t99 -29h877q129 0 129 67q0 56 -58 55l-152 -2q-179 -2 -179 132q0 122 56 247q64 142 149 142q100 0 194 -140q97 -146 97 -318zM1353 535q-16 47 -61 78q-41 28 -82 28q-59 0 -59 -54q0 -49 67 -50z" />
    <glyph glyph-name="u0642" unicode="&#x642;" horiz-adv-x="1151" arabic-form="isolated" 
d="M1105 748q-31 -109 -44 -141h-90l12 38q2 6 2 11q0 19 -35 19h-281l48 183h310q88 0 88 -51q0 -20 -10 -59zM1153 19q0 -197 -151 -328q-156 -135 -410 -135q-190 0 -291 95t-101 263q0 173 119 288q112 108 263 108l-48 -197q-109 0 -171 -43t-62 -109q0 -79 80 -136
q88 -64 231 -64q184 0 325 79q115 65 115 109q0 51 -71 51h-187q-137 0 -137 126q0 139 51 258q59 137 149 137q115 0 203 -139q93 -147 93 -363zM967 201q-46 112 -141 112q-70 0 -70 -69q0 -31 27 -39q13 -4 62 -4h122z" />
    <glyph glyph-name="u0643" unicode="&#x643;" horiz-adv-x="1770" arabic-form="isolated" 
d="M1768 933q0 -57 -64 -131q-85 -99 -218 -99h-166q-111 0 -153 -35q253 -118 253 -385q0 -127 -50.5 -205t-131.5 -78h-814q-224 0 -224 223q0 133 69 217q60 75 134 75h202l-55 -190h-187q-78 0 -78 -44q0 -36 44 -58t108 -22h829q33 0 46 6q17 7 17 32q0 95 -125 192
q-92 72 -182 103q12 52 41 169q28 100 138 141q64 24 138 24h163q170 0 219 78q19 28 31 28q16 0 16 -41z" />
    <glyph glyph-name="u0644" unicode="&#x644;" horiz-adv-x="1127" arabic-form="isolated" 
d="M1127 34q0 -184 -134 -341q-157 -186 -406 -186q-207 0 -307 104q-80 82 -80 212q0 262 167 401q137 114 333 114q29 0 56 -3l-42 -203q-405 -10 -405 -218q0 -69 67 -127q83 -73 229 -73q264 0 354 118q44 58 44 164q0 251 -53 830q25 51 99 194q21 39 33 39
q15 0 17 -62z" />
    <glyph glyph-name="u0645" unicode="&#x645;" horiz-adv-x="987" arabic-form="isolated" 
d="M988 30q0 -118 -53 -212q-65 -115 -177 -115q-61 0 -112 54q-63 68 -63 185q0 25 3 51q-30 4 -65 4q-215 0 -215 -135q0 -74 56 -195q87 -186 273 -371l-53 -224q-143 105 -265 315q-117 202 -117 325q0 162 57 288q93 202 307 202q26 0 26 30q0 22 -57 46q18 44 78 194
q1 5 9 5q42 0 155 -98q100 -87 138 -138q75 -99 75 -211zM869 -48q0 96 -164 201q-35 -81 -35 -119q0 -63 56 -98q42 -26 87 -26q56 0 56 42z" />
    <glyph glyph-name="u0646" unicode="&#x646;" horiz-adv-x="1193" arabic-form="isolated" 
d="M876 746q-30 -109 -48 -160h-90l12 38q2 6 2 11q0 19 -35 19h-99l51 202h128q90 0 90 -52q0 -21 -11 -58zM1193 112q0 -185 -143 -331q-162 -166 -423 -166q-427 0 -427 372q0 155 108 276q129 144 351 144q37 0 76 -4l-47 -204q-190 7 -290 -39q-87 -40 -87 -109
q0 -116 115 -181q91 -50 201 -50q191 0 330 74q124 66 124 137q0 132 -169 249l52 208q229 -150 229 -376z" />
    <glyph glyph-name="u0647" unicode="&#x647;" horiz-adv-x="722" arabic-form="isolated" 
d="M727 681l-34 -170q-43 0 -83 -6q104 -57 104 -182q0 -129 -75 -225q-78 -100 -195 -100q-180 0 -180 214q0 114 49 201q-28 12 -113 40l42 226q29 -4 61 -14q77 -24 157 -74q185 90 267 90zM612 251q0 23 -78 76t-113 53q-29 0 -50.5 -30.5t-21.5 -66.5q0 -82 122 -82
q52 0 96.5 16t44.5 34z" />
    <glyph glyph-name="u0648" unicode="&#x648;" horiz-adv-x="788" arabic-form="isolated" 
d="M788 108q0 -304 -259 -478q-114 -76 -329 -138l52 206q149 46 278 131q148 97 148 173q0 46 -45 46h-200q-107 0 -136 68q-13 29 -13 120q0 76 38 186q19 56 54 103q49 64 101 64q110 0 210.5 -158t100.5 -323zM590 249q-36 116 -144 116q-29 0 -47.5 -20.5t-18.5 -46.5
q0 -49 56 -49h154z" />
    <glyph glyph-name="u0649" unicode="&#x649;" horiz-adv-x="1352" arabic-form="isolated" 
d="M1354 577l-54 -208q-77 37 -179 37q-94 0 -169.5 -28.5t-75.5 -60.5q0 -71 209 -71q181 0 181 -151q0 -11 -1 -28t-1 -22q0 -123 -159 -259q-197 -171 -495 -171q-410 0 -410 333q0 175 102 302q112 140 295 140q24 0 50 -2l-44 -223q-20 5 -51 5q-88 0 -157 -34
q-88 -44 -88 -124q0 -184 340 -184q172 0 337 71q153 66 153 122q0 27 -96 27q-157 0 -211 26q-76 37 -76 154q0 93 88 213q122 167 327 167q86 0 185 -31z" />
    <glyph glyph-name="u064A" unicode="&#x64a;" horiz-adv-x="1352" arabic-form="isolated" 
d="M1354 577l-54 -208q-77 37 -179 37q-94 0 -169.5 -28.5t-75.5 -60.5q0 -71 209 -71q181 0 181 -151q0 -11 -1 -28t-1 -22q0 -123 -159 -259q-197 -171 -495 -171q-410 0 -410 333q0 175 102 302q112 140 295 140q24 0 50 -2l-44 -223q-20 5 -51 5q-88 0 -157 -34
q-88 -44 -88 -124q0 -184 340 -184q172 0 337 71q153 66 153 122q0 27 -96 27q-157 0 -211 26q-76 37 -76 154q0 93 88 213q122 167 327 167q86 0 185 -31z" />
    <glyph glyph-name="u067E" unicode="&#x67e;" horiz-adv-x="1481" arabic-form="isolated" 
d="M1481 227q0 -107 -52 -167t-141 -60h-839q-249 0 -249 228q0 90 48 178q58 107 149 107h143l-49 -184h-124q-79 0 -79 -40q0 -88 157 -88h852q89 0 59 -1q29 1 29 20q0 45 -171 120l44 189q223 -75 223 -302zM1088 -234q-30 -110 -43 -141h-90l12 37q1 7 1 12
q0 19 -34 19h-281l48 182h310q88 0 88 -50q0 -21 -11 -59zM893 -473q-16 -58 -37 -116h-90l10 32q1 6 1 11q0 19 -34 19h-60l43 163h89q88 0 88 -50q0 -21 -10 -59z" />
    <glyph glyph-name="u0686" unicode="&#x686;" horiz-adv-x="1058" arabic-form="isolated" 
d="M931 35q-31 -110 -43 -141h-91l12 37q2 6 2 11q0 20 -35 20h-281l48 182h310q88 0 88 -51q0 -20 -10 -58zM1058 -363l-49 -193q-52 10 -108 10q-68 0 -161.5 -17.5t-113.5 -17.5q-195 0 -290 61q-136 89 -136 323q0 104 49 225q80 195 256 287q20 10 20 15t-17 14
q-54 30 -110 30q-67 0 -128.5 -44.5t-57.5 -44.5q-4 1 -4 7q0 9 12 58.5t12 70.5q0 31 60 81q68 55 134 55q73 0 170 -33q128 -44 129 -44q87 -19 231 -23l-42 -193q-225 7 -349.5 -45t-193.5 -151q-65 -92 -65 -198q0 -178 158 -235q70 -25 206 -25q38 0 150 14.5t188 14.5
q25 0 50 -2zM765 -204q-16 -58 -36 -116h-91l10 31q2 7 2 11q0 20 -35 20h-60l43 163h89q89 0 89 -50q0 -21 -11 -59z" />
    <glyph glyph-name="u0698" unicode="&#x698;" horiz-adv-x="629" arabic-form="isolated" 
d="M529 924q-16 -58 -37 -116h-90l10 31q1 7 1 12q0 19 -34 19h-61l44 163h89q88 0 88 -50q0 -21 -10 -59zM600 641q-31 -110 -44 -141h-90l12 37q2 7 2 11q0 20 -35 20h-281l48 182h310q88 0 88 -50q0 -21 -10 -59zM578 80q0 -259 -263 -425q-148 -94 -315 -131l52 206
q80 16 231 103q194 111 194 206q0 111 -169 192l58 202q212 -131 212 -353z" />
    <glyph glyph-name="u06AF" unicode="&#x6af;" horiz-adv-x="1804" arabic-form="isolated" 
d="M1769 1062q-54 -110 -197 -110q-346 0 -416 -51q-18 -13 -29 -13q-10 0 -10 11q0 16 18 42q68 96 221 96q314 0 347 25q75 55 75 26q0 -9 -9 -26zM1806 933q0 -57 -64 -131q-84 -99 -217 -99h-205q-111 0 -153 -35q253 -118 253 -385q0 -127 -50.5 -205t-131.5 -78h-814
q-224 0 -224 223q0 133 69 217q60 75 134 75h202l-55 -190h-187q-78 0 -78 -44q0 -36 44 -58t108 -22h829q33 0 46 6q17 7 17 32q0 95 -125 192q-92 72 -182 103q12 52 41 169q28 100 138 141q64 24 138 24h201q170 0 220 78q18 28 30 28q16 0 16 -41z" />
    <glyph glyph-name="uFB57" unicode="&#x67e;" horiz-adv-x="1574" arabic-form="final" 
d="M1618 0h-97q-48 0 -89 32q-52 39 -52 106q0 19 -1 19q3 0 -19 -41q-26 -47 -66 -75q-58 -41 -141 -41h-746q-88 0 -145 52q-62 55 -62 148q0 127 62 221q54 83 108 83h160l-49 -186h-136q-54 0 -54 -44q0 -33 34 -53q30 -20 73 -20h822q142 0 142 135q0 51 44 51
q35 0 35 -51q0 -135 94 -135h83v-201zM1062 -234q-30 -110 -43 -141h-90l12 37q2 7 2 12q0 19 -35 19h-281l48 182h310q88 0 88 -50q0 -21 -11 -59zM867 -473q-16 -58 -37 -116h-90l10 32q2 6 2 11q0 19 -35 19h-60l43 163h89q88 0 88 -50q0 -21 -10 -59z" />
    <glyph glyph-name="uFB58" unicode="&#x67e;" horiz-adv-x="520" arabic-form="initial" 
d="M520 228q0 -108 -58 -172q-51 -56 -117 -56h-389v201h411q62 0 62 15q0 59 -156 109l58 182q189 -68 189 -279zM423 -234q-30 -110 -43 -141h-91l12 37q2 7 2 12q0 19 -35 19h-281l48 182h310q88 0 88 -50q0 -21 -10 -59zM227 -473q-16 -58 -36 -116h-91l10 32q2 6 2 11
q0 19 -35 19h-60l43 163h89q89 0 89 -50q0 -21 -11 -59z" />
    <glyph glyph-name="uFB59" unicode="&#x67e;" horiz-adv-x="528" arabic-form="medial" 
d="M566 0h-213q-36 0 -60.5 21t-24.5 46q0 13 -3 13q5 0 -33 -40t-90 -40h-189v201h215q69 0 69 91q0 57 38 57q39 0 39 -60q0 -88 72 -88h180v-201zM412 -234q-30 -110 -43 -141h-90l12 37q2 7 2 12q0 19 -35 19h-281l48 182h310q88 0 88 -50q0 -21 -11 -59zM217 -473
q-16 -58 -37 -116h-90l10 32q2 6 2 11q0 19 -35 19h-60l43 163h89q88 0 88 -50q0 -21 -10 -59z" />
    <glyph glyph-name="uFB7B" unicode="&#x686;" horiz-adv-x="1058" arabic-form="final" 
d="M1097 0h-236q-137 0 -137 164q0 40 7 77q-10 4 -29 4q-116 0 -238 -85q-158 -111 -158 -290q0 -262 364 -262q37 0 148.5 14.5t185.5 14.5q27 0 54 -2l-49 -192q-51 9 -106 9q-69 0 -163 -17t-114 -17q-195 0 -290 61q-136 88 -136 323q0 104 49 224q81 196 257 289
q20 10 20 14t-18 14q-54 30 -109 30q-67 0 -128.5 -45t-58.5 -45q-4 0 -4 8q0 11 11.5 59.5t11.5 68.5q0 31 60 81q69 56 135 56q73 0 170 -33q128 -44 130 -44q87 -19 265 -32l-51 -198q-96 0 -139 3q-4 -7 -4 -15q0 -36 81 -36h219v-201zM691 -145q-2 -6 -4 -8h-73l10 30
q8 24 -27 24h-229l39 149h253q72 0 72 -41q0 -14 -6 -36q-20 -77 -35 -118zM564 -233q-13 -47 -29 -94h-75l9 26q8 24 -27 24h-49l35 133h73q71 0 71 -42q0 -16 -8 -47z" />
    <glyph glyph-name="uFB7C" unicode="&#x686;" horiz-adv-x="929" arabic-form="initial" 
d="M925 444l-39 -188q-206 1 -301 -112q-121 -144 -270 -144h-359v201h371q66 0 161 43q86 38 86 51q0 9 -72 37q-81 31 -136 31q-66 0 -127.5 -45.5t-58.5 -45.5q-3 2 -3 8q0 10 11.5 59t11.5 71q0 31 60 80q68 56 134 56q73 0 170 -33q129 -45 131 -45q94 -20 230 -24z
M475 -234q-31 -110 -44 -141h-90l12 37q2 7 2 12q0 19 -35 19h-281l48 182h310q88 0 88 -50q0 -21 -10 -59zM279 -473q-16 -58 -36 -116h-91l10 32q2 6 2 11q0 19 -35 19h-60l43 163h89q89 0 89 -50q0 -21 -11 -59z" />
    <glyph glyph-name="uFB7D" unicode="&#x686;" horiz-adv-x="946" arabic-form="medial" 
d="M985 0h-283q-148 0 -148 149q0 17 2 38t2 23q0 5 -2 4q-18 -22 -54 -64q-66 -76 -116 -107q-69 -43 -159 -43h-271v201h268q109 0 197 45q69 35 69 53q0 9 -72 36q-81 31 -135 31q-66 0 -128 -44.5t-58 -44.5q-4 0 -4 8q0 10 11.5 58.5t11.5 69.5q0 32 60 81
q68 56 135 56q73 0 169 -34q126 -43 130 -44q87 -18 231 -23l-43 -193q-82 8 -148 -14q-25 -9 -25 -23q0 -18 63 -18h297v-201zM447 -234q-31 -110 -43 -141h-91l12 37q2 7 2 12q0 19 -35 19h-281l48 182h310q88 0 88 -50q0 -21 -10 -59zM251 -473q-16 -58 -36 -116h-91
l10 32q2 6 2 11q0 19 -35 19h-60l43 163h89q89 0 89 -50q0 -21 -11 -59z" />
    <glyph glyph-name="uFB8B" unicode="&#x698;" horiz-adv-x="730" arabic-form="final" 
d="M533 924q-16 -58 -36 -116h-90l9 31q2 7 2 12q0 19 -34 19h-61l43 163h90q88 0 88 -50q0 -21 -11 -59zM604 641q-30 -110 -43 -141h-90l12 37q1 7 1 11q0 20 -34 20h-281l48 182h310q88 0 88 -50q0 -21 -11 -59zM767 0h-189q0 -242 -258 -413q-160 -106 -320 -141l54 214
q98 20 244 109q182 111 182 212q0 107 -173 202l59 209q29 -12 159 -138q47 -53 90 -53h152v-201z" />
    <glyph glyph-name="uFEDA" unicode="&#x6a9;" horiz-adv-x="1865" arabic-form="final" 
d="M1904 0h-328q-72 0 -114 50q-26 32 -45 94q-16 50 -24 50q-3 0 -20 -50q-19 -60 -51 -94q-47 -50 -125 -50h-790q-88 0 -145 52q-62 55 -62 148q0 127 62 221q54 83 108 83h160l-49 -186h-136q-54 0 -54 -44q0 -33 34 -53q30 -20 73 -20h864q60 0 60 48q0 84 -131 187
q-101 80 -185 113l65 201q43 134 348 134q279 0 344 85q18 25 32 25q11 0 11 -20q0 -32 -31 -90q-56 -107 -153 -145q-91 -35 -292 -35q-140 0 -163 -31q154 -81 263 -249q85 -130 85 -185q0 -38 67 -38h322v-201z" />
    <glyph glyph-name="uFEDB" unicode="&#x6a9;" horiz-adv-x="848" arabic-form="initial" 
d="M815 875q-54 -87 -103 -119q-95 -60 -285 -60q-193 0 -230 -23q124 -65 189 -181q60 -105 60 -230q0 -101 -46 -178q-50 -84 -126 -84h-321v201h355q51 0 46 47q-7 67 -87 152q-94 99 -225 140l53 171q49 157 264 157q371 0 433 73q29 33 44 33q10 0 10 -17
q0 -33 -31 -82z" />
    <glyph glyph-name="uFEDC" unicode="&#x6a9;" horiz-adv-x="707" arabic-form="medial" 
d="M815 875q-54 -87 -103 -119q-95 -60 -285 -60q-193 0 -230 -23q124 -65 189 -181q60 -105 60 -230q0 -101 -46 -178q-50 -84 -126 -84h-321v201h355q51 0 46 47q-7 67 -87 152q-94 99 -225 140l53 171q49 157 264 157q371 0 433 73q29 33 44 33q10 0 10 -17
q0 -33 -31 -82zM738 0h-328v201h328v-201z" />
    <glyph glyph-name="uFB93" unicode="&#x6af;" horiz-adv-x="1865" arabic-form="final" 
d="M1768 1058q-59 -94 -418 -94q-98 0 -176 -51q-20 -13 -31 -13q-10 0 -10 11q0 19 30 57q72 91 181 91q337 0 389 44q32 27 50 27q11 0 11 -11q0 -19 -26 -61zM1904 0h-328q-72 0 -114 50q-26 32 -45 94q-16 50 -24 50q-3 0 -20 -50q-19 -60 -51 -94q-47 -50 -125 -50
h-790q-88 0 -145 52q-62 55 -62 148q0 127 62 221q54 83 108 83h160l-49 -186h-136q-54 0 -54 -44q0 -33 34 -53q30 -20 73 -20h864q60 0 60 48q0 84 -131 187q-101 80 -185 113l65 201q43 134 348 134q285 0 344 78q20 27 33 27q10 0 10 -17q0 -30 -31 -88
q-56 -107 -153 -145q-91 -35 -292 -35q-140 0 -163 -31q154 -81 263 -249q85 -130 85 -185q0 -38 67 -38h322v-201z" />
    <glyph glyph-name="uFB94" unicode="&#x6af;" horiz-adv-x="848" arabic-form="initial" 
d="M829 1081q-55 -110 -198 -110q-345 0 -415 -51q-18 -13 -29 -13q-10 0 -10 11q0 16 18 42q67 96 220 96q315 0 349 25q74 54 74 26q0 -8 -9 -26zM815 875q-54 -87 -103 -119q-95 -60 -285 -60q-193 0 -230 -23q124 -65 189 -181q60 -105 60 -230q0 -101 -46 -178
q-50 -84 -126 -84h-321v201h355q51 0 46 47q-7 67 -87 152q-94 99 -225 140l53 171q49 157 264 157q371 0 433 73q29 33 44 33q10 0 10 -17q0 -33 -31 -82z" />
    <glyph glyph-name="uFB95" unicode="&#x6af;" horiz-adv-x="714" arabic-form="medial" 
d="M829 1081q-55 -110 -198 -110q-345 0 -415 -51q-18 -13 -29 -13t-11 11q0 16 19 42q67 96 220 96q315 0 349 25q74 54 74 26q0 -8 -9 -26zM815 875q-54 -87 -103 -119q-95 -60 -285 -60q-193 0 -230 -23q124 -65 189 -181q60 -105 60 -230q0 -101 -46 -178
q-50 -84 -126 -84h-321v201h355q51 0 46 47q-7 67 -87 152q-94 99 -225 140l53 171q49 157 264 157q371 0 433 73q29 33 44 33q10 0 10 -17q0 -33 -31 -82zM738 0h-328v201h328v-201z" />
    <glyph glyph-name="uFE94" unicode="&#x6c0;" horiz-adv-x="967" arabic-form="final" 
d="M670 1097q11 0 11 -15q0 -20 -18 -54.5t-26 -34.5q-26 0 -86 -24q-88 -35 -153 -98q-16 -15 -22 -15q-8 0 -8 65q0 13 73 67q-46 17 -46 57q0 33 43 88q48 63 98 63q53 0 77 -47l-52 -61q-21 30 -56 30q-38 0 -38 -29q0 -27 72 -27q38 0 83 17.5t48 17.5zM1005 0h-167
q-160 0 -169 182q-47 -12 -93 -25q-69 -15 -170 -15q-206 0 -206 178q0 137 114 265q122 136 275 136q105 0 138 -56q42 -72 42 -311q0 -153 89 -153h147v-201zM641 371q-2 85 -23 117q-27 39 -101 39t-140.5 -37t-66.5 -83q0 -61 128 -61q86 0 203 25z" />
    <glyph glyph-name="uFEF2" unicode="&#x6cc;" horiz-adv-x="1354" arabic-form="final" 
d="M1392 0h-128q0 -123 -159 -259q-197 -169 -495 -169q-410 0 -410 328q0 175 102 302q112 140 295 140q24 0 50 -2l-44 -223q-20 5 -51 5q-88 0 -157 -34q-88 -44 -88 -123q0 -180 340 -180q177 0 337 65q153 62 153 123q0 27 -96 27h-266l38 201h579v-201z" />
    <glyph glyph-name="uFEF3" unicode="&#x6cc;" horiz-adv-x="520" arabic-form="initial" 
d="M520 228q0 -108 -58 -172q-51 -56 -117 -56h-389v201h411q62 0 62 15q0 59 -156 109l58 182q189 -68 189 -279zM416 -234q-30 -110 -43 -141h-90l12 37q2 7 2 12q0 19 -35 19h-281l48 182h310q88 0 88 -50q0 -21 -11 -59z" />
    <glyph glyph-name="uFEF4" unicode="&#x6cc;" horiz-adv-x="528" arabic-form="medial" 
d="M566 0h-213q-36 0 -60.5 21t-24.5 46q0 13 -3 13q5 0 -33 -40t-90 -40h-189v201h215q69 0 69 91q0 57 38 57q39 0 39 -60q0 -88 72 -88h180v-201zM405 -234q-30 -110 -43 -141h-90l11 37q2 7 2 12q0 19 -35 19h-281l48 182h310q88 0 88 -50q0 -21 -10 -59z" />
    <glyph glyph-name="Hcircumflex" unicode="&#x622;" horiz-adv-x="653" arabic-form="final" 
d="M681 0h-161q-175 0 -175 197v390q-3 143 -22 275l109 147q11 15 18 15q10 0 19 -28q5 -15 5 -470q0 -231 1 -246q8 -79 57 -79h149v-201zM766 1286l-73 -155h-432q-97 0 -97 -58q0 -46 97 -46h24l-50 -128h-29q-136 0 -136 113q0 43 22 99q68 175 199 175h475z" />
    <glyph glyph-name="uFE84" unicode="&#x623;" horiz-adv-x="555" arabic-form="final" 
d="M463 1270q12 0 12 -14q0 -20 -18 -54.5t-26 -34.5q-26 0 -86 -24q-89 -35 -153 -98q-16 -15 -22 -15q-8 0 -8 65q0 13 73 67q-46 16 -46 56q0 34 42 89q49 63 99 63q53 0 77 -47l-52 -61q-21 29 -56 29q-38 0 -38 -29q0 -26 72 -26q37 0 82.5 17t47.5 17zM604 0h-161
q-174 0 -174 197q0 361 -1 390q-3 143 -21 275l108 147q11 15 18 15q10 0 19 -28q5 -15 5 -470q0 -231 2 -246q8 -79 57 -79h148v-201z" />
    <glyph glyph-name="uFE86" unicode="&#x624;" horiz-adv-x="874" arabic-form="final" 
d="M646 935q12 0 12 -14q0 -20 -18.5 -54.5t-26.5 -34.5q-26 0 -86 -24q-88 -35 -152 -98q-16 -15 -23 -15t-7 65q0 13 73 67q-46 16 -46 57q0 33 42 88q49 63 99 63q52 0 76 -47l-51 -61q-21 29 -56 29q-38 0 -38 -28q0 -27 72 -27q37 0 82.5 17t47.5 17zM913 0h-129
q-22 -269 -270 -427q-111 -71 -314 -129l52 206q149 47 278 131q148 97 148 173q0 46 -46 46h-200q-107 0 -136 68q-13 29 -13 120q0 76 38 186q19 56 54 103q49 64 101 64q86 0 171 -104q82 -99 119 -236h147v-201zM589 201q-36 116 -144 116q-29 0 -47.5 -20.5
t-18.5 -46.5q0 -49 56 -49h154z" />
    <glyph glyph-name="uFE88" unicode="&#x625;" horiz-adv-x="536" arabic-form="final" 
d="M578 0h-161q-175 0 -175 197q0 555 -22 713l109 147q10 15 17 15q11 0 20 -28q5 -15 5 -518q0 -230 1 -246q8 -79 57 -79h149v-201zM501 -182q12 0 12 -15q0 -20 -18.5 -54.5t-25.5 -34.5q-26 0 -86 -24q-89 -35 -153 -98q-16 -15 -22 -15q-8 0 -8 65q0 14 73 67
q-46 17 -46 57q0 34 42 89q49 63 99 63q52 0 77 -48l-52 -61q-21 30 -56 30q-38 0 -38 -29q0 -27 72 -27q37 0 82.5 17.5t47.5 17.5z" />
    <glyph glyph-name="uFE8A" unicode="&#x626;" horiz-adv-x="1354" arabic-form="final" 
d="M1392 0h-128q0 -123 -159 -259q-197 -169 -495 -169q-410 0 -410 328q0 175 102 302q112 140 295 140q24 0 50 -2l-44 -223q-20 5 -51 5q-88 0 -157 -34q-88 -44 -88 -123q0 -180 340 -180q177 0 337 65q153 62 153 123q0 27 -96 27h-266l38 201h579v-201zM554 539
q11 0 11 -15q0 -20 -18 -54.5t-26 -34.5q-26 0 -86 -24q-88 -35 -153 -98q-16 -15 -22 -15q-8 0 -8 65q0 14 73 67q-46 17 -46 57q0 34 43 89q48 63 98 63q53 0 77 -47l-52 -62q-21 30 -56 30q-38 0 -38 -29q0 -27 72 -27q38 0 83 17.5t48 17.5z" />
    <glyph glyph-name="uFE8B" unicode="&#x626;" horiz-adv-x="472" arabic-form="initial" 
d="M386 817q11 0 11 -14q0 -20 -18 -54.5t-26 -34.5q-26 0 -86 -24q-88 -35 -153 -98q-15 -15 -22 -15q-8 0 -8 65q0 13 73 67q-46 16 -46 57q0 33 43 88q48 63 98 63q53 0 77 -47l-52 -61q-21 29 -56 29q-38 0 -38 -28q0 -27 72 -27q38 0 83 17t48 17zM472 228
q0 -108 -58 -172q-51 -56 -117 -56h-341v201h363q62 0 62 15q0 59 -156 109l58 182q189 -68 189 -279z" />
    <glyph glyph-name="uFE8C" unicode="&#x626;" horiz-adv-x="528" arabic-form="medial" 
d="M399 700q12 0 12 -14q0 -20 -18.5 -54.5t-26.5 -34.5q-26 0 -86 -24q-88 -35 -152 -98q-16 -15 -23 -15t-7 65q0 13 73 67q-46 16 -46 57q0 33 42 88q49 63 99 63q52 0 76 -47l-51 -61q-21 29 -56 29q-38 0 -38 -28q0 -27 72 -27q37 0 82.5 17t47.5 17zM566 0h-213
q-36 0 -60.5 21t-24.5 46q0 13 -3 13q5 0 -33 -40t-90 -40h-189v201h215q69 0 69 91q0 57 38 57q39 0 39 -60q0 -88 72 -88h180v-201z" />
    <glyph glyph-name="uFE8E" unicode="&#x627;" horiz-adv-x="516" arabic-form="final" 
d="M558 0h-161q-175 0 -175 197q0 555 -22 713l108 147q11 15 18 15q11 0 20 -28q5 -15 5 -518q0 -230 1 -246q8 -79 57 -79h149v-201z" />
    <glyph glyph-name="uFE90" unicode="&#x628;" horiz-adv-x="1574" arabic-form="final" 
d="M1618 0h-97q-48 0 -89 32q-52 39 -52 106q0 19 -1 19q3 0 -19 -41q-26 -47 -66 -75q-58 -41 -141 -41h-746q-88 0 -145 52q-62 55 -62 148q0 127 62 221q54 83 108 83h160l-49 -186h-136q-54 0 -54 -44q0 -33 34 -53q30 -20 73 -20h822q142 0 142 135q0 51 44 51
q35 0 35 -51q0 -135 94 -135h83v-201zM960 -234q-30 -110 -48 -160h-90l11 37q2 6 2 11q0 20 -34 20h-99l51 201h127q90 0 90 -52q0 -20 -10 -57z" />
    <glyph glyph-name="uFE91" unicode="&#x628;" horiz-adv-x="472" arabic-form="initial" 
d="M472 228q0 -108 -58 -172q-51 -56 -117 -56h-341v201h363q62 0 62 15q0 59 -156 109l58 182q189 -68 189 -279zM261 -234q-30 -110 -48 -160h-90l12 37q2 6 2 11q0 20 -35 20h-99l51 201h128q90 0 90 -52q0 -20 -11 -57z" />
    <glyph glyph-name="uFE92" unicode="&#x628;" horiz-adv-x="528" arabic-form="medial" 
d="M566 0h-213q-36 0 -60.5 21t-24.5 46q0 13 -3 13q5 0 -33 -40t-90 -40h-189v201h215q69 0 69 91q0 57 38 57q39 0 39 -60q0 -88 72 -88h180v-201zM240 -234q-31 -110 -48 -160h-90l11 37q2 6 2 11q0 20 -35 20h-98l51 201h127q90 0 90 -52q0 -20 -10 -57z" />
    <glyph glyph-name="uFE96" unicode="&#x62a;" horiz-adv-x="1568" arabic-form="final" 
d="M1080 405q-31 -110 -43 -141h-91l12 37q2 7 2 11q0 20 -35 20h-281l48 182h310q88 0 88 -50q0 -21 -10 -59zM1618 0h-97q-48 0 -89 32q-52 39 -52 106q0 19 -1 19q3 0 -19 -41q-26 -47 -66 -75q-58 -41 -141 -41h-746q-88 0 -145 52q-62 55 -62 148q0 127 62 221
q54 83 109 83h159l-50 -186h-134q-55 0 -55 -44q0 -32 33 -52.5t75 -20.5h821q141 0 141 136q0 50 44 50q37 0 37 -50q0 -90 34 -119q19 -17 60 -17h82v-201z" />
    <glyph glyph-name="uFE97" unicode="&#x62a;" horiz-adv-x="498" arabic-form="initial" 
d="M485 710q-30 -110 -43 -141h-90l12 37q2 7 2 12q0 19 -35 19h-281l48 182h310q88 0 88 -50q0 -21 -11 -59zM472 228q0 -108 -58 -172q-51 -56 -117 -56h-341v201h363q62 0 62 15q0 59 -156 109l58 182q189 -68 189 -279z" />
    <glyph glyph-name="uFE98" unicode="&#x62a;" horiz-adv-x="528" arabic-form="medial" 
d="M466 710q-30 -110 -43 -141h-90l11 37q2 7 2 12q0 19 -34 19h-281l48 182h310q88 0 88 -50q0 -21 -11 -59zM566 0h-213q-36 0 -60.5 21t-24.5 46q0 13 -3 13q5 0 -33 -40t-90 -40h-189v201h215q69 0 69 91q0 57 38 57q39 0 39 -60q0 -88 72 -88h180v-201z" />
    <glyph glyph-name="uFE9A" unicode="&#x62b;" horiz-adv-x="1569" arabic-form="final" 
d="M1000 686q-16 -58 -36 -116h-91l10 31q2 7 2 12q0 19 -35 19h-60l43 163h89q89 0 89 -50q0 -21 -11 -59zM1071 403q-30 -110 -43 -141h-90l11 37q2 7 2 12q0 19 -34 19h-281l48 182h309q89 0 89 -50q0 -21 -11 -59zM1617 0h-96q-48 0 -90 32q-51 39 -51 106q0 19 -1 19
q3 0 -20 -41q-25 -47 -66 -75q-58 -41 -141 -41h-745q-88 0 -145 52q-62 55 -62 148q0 127 61 221q54 83 109 83h159l-49 -186h-135q-55 0 -55 -44q0 -32 33 -52.5t75 -20.5h822q141 0 141 136q0 50 44 50q36 0 36 -50q0 -90 34 -119q19 -17 60 -17h82v-201z" />
    <glyph glyph-name="uFE9B" unicode="&#x62b;" horiz-adv-x="472" arabic-form="initial" 
d="M376 993q-16 -58 -36 -116h-91l10 31q2 7 2 12q0 19 -35 19h-60l43 163h89q89 0 89 -50q0 -21 -11 -59zM447 710q-30 -110 -43 -141h-90l11 37q2 7 2 12q0 19 -34 19h-281l47 182h310q89 0 89 -50q0 -21 -11 -59zM472 228q0 -108 -58 -172q-51 -56 -117 -56h-341v201h363
q62 0 62 15q0 59 -156 109l58 182q189 -68 189 -279z" />
    <glyph glyph-name="uFE9C" unicode="&#x62b;" horiz-adv-x="502" arabic-form="medial" 
d="M414 993q-16 -58 -36 -116h-90l9 31q2 7 2 12q0 19 -34 19h-61l44 163h89q88 0 88 -50q0 -21 -11 -59zM485 710q-30 -110 -43 -141h-90l12 37q2 7 2 12q0 19 -35 19h-281l48 182h310q88 0 88 -50q0 -21 -11 -59zM566 0h-213q-36 0 -60.5 21t-24.5 46q0 13 -3 13
q5 0 -33 -40t-90 -40h-189v201h215q69 0 69 91q0 57 38 57q39 0 39 -60q0 -88 72 -88h180v-201z" />
    <glyph glyph-name="uFE9E" unicode="&#x62c;" horiz-adv-x="1058" arabic-form="final" 
d="M1097 0h-236q-137 0 -137 164q0 40 7 77q-10 4 -29 4q-116 0 -238 -85q-158 -111 -158 -290q0 -262 364 -262q37 0 148.5 14.5t185.5 14.5q27 0 54 -2l-49 -192q-51 9 -106 9q-69 0 -163 -17t-114 -17q-195 0 -290 61q-136 88 -136 323q0 104 49 224q81 196 257 289
q20 10 20 14t-18 14q-54 30 -109 30q-67 0 -128.5 -45t-58.5 -45q-4 0 -4 8q0 11 11.5 59.5t11.5 68.5q0 31 60 81q69 56 135 56q73 0 170 -33q128 -44 130 -44q87 -19 265 -32l-51 -198q-96 0 -139 3q-4 -7 -4 -15q0 -36 81 -36h219v-201zM699 -105q-30 -109 -48 -160h-90
l11 38q2 6 2 11q0 19 -34 19h-99l51 202h127q90 0 90 -52q0 -20 -10 -58z" />
    <glyph glyph-name="uFE9F" unicode="&#x62c;" horiz-adv-x="929" arabic-form="initial" 
d="M925 444l-39 -188q-206 1 -301 -112q-121 -144 -270 -144h-359v201h371q66 0 161 43q86 38 86 51q0 9 -72 37q-81 31 -136 31q-66 0 -127.5 -45.5t-58.5 -45.5q-3 2 -3 8q0 10 11.5 59t11.5 71q0 31 60 80q68 56 134 56q73 0 170 -33q129 -45 131 -45q94 -20 230 -24z
M345 -234q-30 -110 -48 -160h-90l12 37q2 6 2 11q0 20 -35 20h-99l51 201h128q90 0 90 -52q0 -20 -11 -57z" />
    <glyph glyph-name="uFEA0" unicode="&#x62c;" horiz-adv-x="937" arabic-form="medial" 
d="M976 0h-274q-148 0 -148 149q0 17 2 38t2 23q0 5 -2 4q-18 -22 -54 -64q-66 -76 -116 -107q-69 -43 -159 -43h-271v201h268q109 0 197 45q69 35 69 53q0 9 -72 36q-81 31 -135 31q-66 0 -128 -44.5t-58 -44.5q-4 0 -4 8q0 10 11.5 58.5t11.5 69.5q0 32 60 81
q68 56 135 56q73 0 169 -34q126 -43 130 -44q87 -18 231 -23l-43 -193q-82 8 -148 -14q-25 -9 -25 -23q0 -18 63 -18h288v-201zM265 -234q-30 -110 -48 -160h-90l11 37q2 6 2 11q0 20 -34 20h-99l51 201h127q90 0 90 -52q0 -20 -10 -57z" />
    <glyph glyph-name="uFEA2" unicode="&#x62d;" horiz-adv-x="1058" arabic-form="final" 
d="M1098 0h-237q-137 0 -137 164q0 40 7 77q-10 4 -29 4q-116 0 -238 -85q-158 -111 -158 -290q0 -262 364 -262q37 0 148.5 14.5t185.5 14.5q27 0 54 -2l-49 -192q-51 9 -106 9q-69 0 -163 -17t-114 -17q-195 0 -290 61q-136 88 -136 323q0 104 49 224q81 196 257 289
q20 10 20 14t-18 14q-54 30 -109 30q-67 0 -128.5 -45t-58.5 -45q-4 0 -4 8q0 11 11.5 59.5t11.5 68.5q0 31 60 81q69 56 135 56q73 0 170 -33q128 -44 130 -44q87 -19 265 -32l-51 -198q-96 0 -139 3q-4 -7 -4 -15q0 -36 81 -36h220v-201z" />
    <glyph glyph-name="uFEA3" unicode="&#x62d;" horiz-adv-x="929" arabic-form="initial" 
d="M925 444l-39 -188q-206 1 -301 -112q-121 -144 -270 -144h-359v201h371q66 0 161 43q86 38 86 51q0 9 -72 37q-81 31 -136 31q-66 0 -127.5 -45.5t-58.5 -45.5q-3 2 -3 8q0 10 11.5 59t11.5 71q0 31 60 80q68 56 134 56q73 0 170 -33q129 -45 131 -45q94 -20 230 -24z
" />
    <glyph glyph-name="uFEA4" unicode="&#x62d;" horiz-adv-x="985" arabic-form="medial" 
d="M1024 0h-322q-148 0 -148 149q0 17 2 38t2 23q0 5 -2 4q-18 -22 -54 -64q-66 -76 -116 -107q-69 -43 -159 -43h-271v201h268q109 0 197 45q69 35 69 53q0 9 -72 36q-81 31 -135 31q-66 0 -128 -44.5t-58 -44.5q-4 0 -4 8q0 10 11.5 58.5t11.5 69.5q0 32 60 81
q68 56 135 56q73 0 169 -34q126 -43 130 -44q87 -18 231 -23l-43 -193q-82 8 -148 -14q-25 -9 -25 -23q0 -18 63 -18h336v-201z" />
    <glyph glyph-name="uFEA6" unicode="&#x62e;" horiz-adv-x="1058" arabic-form="final" 
d="M704 812q-31 -110 -48 -161h-90l11 38q2 6 2 11q0 19 -35 19h-98l50 202h128q90 0 90 -52q0 -20 -10 -57zM1098 0h-237q-137 0 -137 164q0 40 7 77q-10 4 -29 4q-116 0 -238 -85q-158 -111 -158 -290q0 -262 364 -262q37 0 148.5 14.5t185.5 14.5q27 0 54 -2l-49 -192
q-51 9 -106 9q-69 0 -163 -17t-114 -17q-195 0 -290 61q-136 88 -136 323q0 104 49 224q81 196 257 289q20 10 20 14t-18 14q-54 30 -109 30q-67 0 -128.5 -45t-58.5 -45q-4 0 -4 8q0 11 11.5 59.5t11.5 68.5q0 31 60 81q69 56 135 56q73 0 170 -33q128 -44 130 -44
q87 -19 265 -32l-51 -198q-96 0 -139 3q-4 -7 -4 -15q0 -36 81 -36h220v-201z" />
    <glyph glyph-name="uFEA7" unicode="&#x62e;" horiz-adv-x="925" arabic-form="initial" 
d="M554 812q-31 -110 -48 -161h-91l12 38q2 6 2 11q0 19 -35 19h-98l50 202h128q90 0 90 -52q0 -20 -10 -57zM925 444l-39 -188q-206 1 -301 -112q-121 -144 -270 -144h-359v201h371q66 0 161 43q86 38 86 51q0 9 -72 37q-81 31 -136 31q-66 0 -127.5 -45.5t-58.5 -45.5
q-3 2 -3 8q0 10 11.5 59t11.5 71q0 31 60 80q68 56 134 56q73 0 170 -33q129 -45 131 -45q94 -20 230 -24z" />
    <glyph glyph-name="uFEA8" unicode="&#x62e;" horiz-adv-x="985" arabic-form="medial" 
d="M504 812q-31 -110 -48 -161h-91l12 38q2 6 2 11q0 19 -35 19h-98l50 202h128q90 0 90 -52q0 -20 -10 -57zM1024 0h-322q-148 0 -148 149q0 17 2 38t2 23q0 5 -2 4q-18 -22 -54 -64q-66 -76 -116 -107q-69 -43 -159 -43h-271v201h268q109 0 197 45q69 35 69 53q0 9 -72 36
q-81 31 -135 31q-66 0 -128 -44.5t-58 -44.5q-4 0 -4 8q0 10 11.5 58.5t11.5 69.5q0 32 60 81q68 56 135 56q73 0 169 -34q126 -43 130 -44q87 -18 231 -23l-43 -193q-82 8 -148 -14q-25 -9 -25 -23q0 -18 63 -18h336v-201z" />
    <glyph glyph-name="uFEAA" unicode="&#x62f;" horiz-adv-x="926" arabic-form="final" 
d="M970 0h-108q-70 0 -114 88q-66 -88 -178 -88h-370l54 201h382q87 0 87 43q0 77 -123.5 160t-232.5 83l53 201q154 0 276 -121q116 -114 116 -240q0 -50 17.5 -88t43.5 -38h97v-201z" />
    <glyph glyph-name="uFEAC" unicode="&#x630;" horiz-adv-x="926" arabic-form="final" 
d="M699 946q-30 -110 -48 -160h-90l11 37q2 6 2 11q0 20 -34 20h-99l51 201h127q90 0 90 -52q0 -20 -10 -57zM970 0h-108q-70 0 -114 88q-61 -88 -178 -88h-370l54 201h382q87 0 87 43q0 77 -123.5 160t-232.5 83l53 201q154 0 276 -121q116 -114 116 -240t61 -126h97v-201z
" />
    <glyph glyph-name="uFEAE" unicode="&#x631;" horiz-adv-x="674" arabic-form="final" 
d="M713 0h-135q0 -242 -258 -413q-160 -106 -320 -141l54 214q98 20 244 109q182 111 182 212q0 107 -173 202l59 209q29 -12 159 -138q47 -53 90 -53h98v-201z" />
    <glyph glyph-name="uFEB0" unicode="&#x632;" horiz-adv-x="674" arabic-form="final" 
d="M505 708q-31 -110 -48 -160h-91l12 37q2 6 2 11q0 20 -35 20h-98l50 201h128q90 0 90 -52q0 -20 -10 -57zM713 0h-135q0 -242 -258 -413q-160 -106 -320 -141l54 214q98 20 244 109q182 111 182 212q0 107 -173 202l59 209q29 -12 159 -138q47 -53 90 -53h98v-201z" />
    <glyph glyph-name="uFEB2" unicode="&#x633;" horiz-adv-x="1760" arabic-form="final" 
d="M1804 0h-125q-75 0 -122 103q-58 -105 -124 -105q-46 0 -79.5 29.5t-41.5 75.5q-39 -103 -164 -103h-40q-31 -220 -200 -326q-131 -83 -312 -83q-396 0 -396 356q0 122 87 230q117 144 335 144q45 0 93 -6l-52 -183q-29 3 -60 3q-120 0 -208 -37q-95 -40 -95 -104
q0 -93 83 -149q90 -61 252 -61q151 0 271 62q128 64 128 156q0 93 -162 210l56 197q81 -59 137 -143q45 -66 51 -66h53q116 0 116 129q0 66 35 66q34 0 34 -63q0 -131 96 -131q103 0 103 140q0 61 33 61q36 0 36 -64q0 -137 82 -137h100v-201z" />
    <glyph glyph-name="uFEB3" unicode="&#x633;" horiz-adv-x="852" arabic-form="initial" 
d="M852 205q0 -78 -47 -138q-51 -67 -132 -67h-41q-92 0 -133 74q-18 33 -18 43q0 -37 -30 -72q-39 -45 -102 -45q-114 0 -134 103q-39 -103 -107 -103h-154v201h156q34 0 62 28q38 38 38 114q0 41 34 41q35 0 35 -43q0 -72 14 -99q19 -41 76 -41q58 0 76 43q9 22 9 85.5
t43 63.5q45 0 45 -64q0 -86 35 -113q18 -15 67 -15h74q50 0 50 29q0 26 -38 54.5t-79 42.5l58 177q104 -68 132 -162q11 -38 11 -137z" />
    <glyph glyph-name="uFEB4" unicode="&#x633;" horiz-adv-x="945" arabic-form="medial" 
d="M983 0h-160q-79 0 -115 82q-41 -82 -119 -82q-98 0 -128 82q-43 -82 -136 -82q-118 0 -130 88q-39 -88 -100 -88h-141v201h141q86 0 86 142q0 41 34 41q35 0 35 -43q0 -69 11 -98q19 -49 78 -49q103 0 103 147q0 41 35 41q34 0 34 -42q0 -146 101 -146t101 141
q0 46 36 46t36 -49q0 -65 8 -90q13 -41 54 -41h136v-201z" />
    <glyph glyph-name="uFEB6" unicode="&#x634;" horiz-adv-x="1760" arabic-form="final" 
d="M1463 924q-16 -58 -36 -116h-90l9 31q2 7 2 12q0 19 -34 19h-61l44 163h89q88 0 88 -50q0 -21 -11 -59zM1534 641q-30 -110 -43 -141h-90l12 37q2 7 2 11q0 20 -35 20h-281l48 182h310q88 0 88 -50q0 -21 -11 -59zM1804 0h-125q-75 0 -122 103q-58 -103 -124 -103
q-103 0 -121 103q-39 -103 -164 -103h-40q-31 -220 -200 -328q-132 -85 -312 -85q-396 0 -396 360q0 122 87 230q117 144 335 144q45 0 93 -6l-52 -183q-29 3 -60 3q-120 0 -208 -37q-95 -40 -95 -104q0 -93 83 -149q90 -61 252 -61q150 0 264 62q119 64 119 156
q0 93 -146 210l56 197q69 -51 112 -142q32 -66 76 -66h53q116 0 116 128q0 66 35 66q34 0 34 -63q0 -131 96 -131q103 0 103 140q0 61 33 61q36 0 36 -64q0 -137 82 -137h100v-201z" />
    <glyph glyph-name="uFEB7" unicode="&#x634;" horiz-adv-x="852" arabic-form="initial" 
d="M852 205q0 -78 -47 -138q-51 -67 -132 -67h-41q-92 0 -133 74q-18 33 -18 43q0 -37 -30 -72q-39 -45 -102 -45q-114 0 -134 103q-39 -103 -107 -103h-154v201h156q34 0 62 28q38 38 38 114q0 41 34 41q35 0 35 -43q0 -72 14 -99q19 -41 76 -41q58 0 76 43q9 22 9 85.5
t43 63.5q45 0 45 -64q0 -86 35 -113q18 -15 67 -15h74q50 0 50 29q0 26 -38 54.5t-79 42.5l58 177q104 -68 132 -162q11 -38 11 -137zM604 924q-16 -58 -36 -116h-90l9 31q2 7 2 12q0 19 -34 19h-61l43 163h90q88 0 88 -50q0 -21 -11 -59zM675 641q-30 -110 -43 -141h-90
l12 37q1 7 1 11q0 20 -34 20h-281l48 182h310q88 0 88 -50q0 -21 -11 -59z" />
    <glyph glyph-name="uFEB8" unicode="&#x634;" horiz-adv-x="945" arabic-form="medial" 
d="M604 924q-16 -58 -36 -116h-90l9 31q2 7 2 12q0 19 -34 19h-61l43 163h90q88 0 88 -50q0 -21 -11 -59zM675 641q-30 -110 -43 -141h-90l12 37q1 7 1 11q0 20 -34 20h-281l48 182h310q88 0 88 -50q0 -21 -11 -59zM983 0h-160q-79 0 -115 82q-41 -82 -119 -82
q-98 0 -128 82q-43 -82 -136 -82q-118 0 -130 88q-39 -88 -100 -88h-141v201h141q86 0 86 142q0 41 34 41q35 0 35 -43q0 -69 11 -98q19 -49 78 -49q103 0 103 147q0 41 35 41q34 0 34 -42q0 -146 101 -146t101 141q0 46 36 46t36 -49q0 -65 8 -90q13 -41 54 -41h136v-201z
" />
    <glyph glyph-name="uFEBA" unicode="&#x635;" horiz-adv-x="1853" arabic-form="final" 
d="M1899 0h-143q-54 0 -106 42q-77 -42 -168 -42h-363q-11 -169 -150 -288q-150 -130 -382 -130q-387 0 -387 355q0 159 115 270q124 120 327 120q32 0 65 -4l-51 -190q-37 4 -81 4q-278 0 -278 -146q0 -83 71 -141q86 -70 248 -70q146 0 273 58q142 65 142 159
q0 101 -155 210l48 183q72 -8 183 -189h71q67 148 175 241q114 98 235 98q90 0 148 -45q66 -51 66 -145q0 -74 -32 -149h129v-201zM1594 201q87 0 87 56q0 35 -38 64q-42 31 -105 31q-102 0 -193 -61q-66 -45 -92 -90h341z" />
    <glyph glyph-name="uFEBB" unicode="&#x635;" horiz-adv-x="1013" arabic-form="initial" 
d="M1013 338q0 -125 -79 -223q-92 -115 -241 -115h-300q-141 0 -179 115q-36 -115 -132 -115h-129v201h153q64 0 84 43q11 25 11 99q0 65 44 65q40 0 40 -65q0 -142 103 -142q67 148 175 241q114 98 235 98q215 0 215 -202zM805 201q87 0 87 56q0 35 -39 63q-42 32 -105 32
q-102 0 -193 -61q-66 -45 -92 -90h342z" />
    <glyph glyph-name="uFEBC" unicode="&#x635;" horiz-adv-x="1118" arabic-form="medial" 
d="M1156 0h-211q-55 0 -107 42q-77 -42 -167 -42h-299q-141 0 -179 115q-37 -115 -133 -115h-107v201h130q66 0 85 43q11 25 11 99q0 65 45 65q40 0 40 -65q0 -142 102 -142q68 148 175 241q114 98 236 98q90 0 148 -45q66 -51 66 -145q0 -74 -32 -149h197v-201zM783 201
q87 0 87 56q0 35 -38 64q-43 31 -105 31q-103 0 -194 -61q-67 -45 -91 -90h341z" />
    <glyph glyph-name="uFEBE" unicode="&#x636;" horiz-adv-x="1899" arabic-form="final" 
d="M1701 785q-30 -110 -48 -160h-90l12 37q2 6 2 11q0 20 -35 20h-99l51 201h128q90 0 90 -52q0 -20 -11 -57zM1943 0h-187q-54 0 -106 42q-77 -42 -168 -42h-363q-11 -163 -162 -286q-157 -127 -370 -127q-191 0 -292 97q-95 91 -95 253q0 159 115 270q124 120 327 120
q32 0 65 -4l-51 -190q-37 4 -81 4q-278 0 -278 -146q0 -83 71 -141q86 -70 248 -70q146 0 273 58q142 65 142 159q0 101 -155 210l48 183q72 -8 183 -189h71q67 148 175 241q114 98 235 98q90 0 148 -45q66 -51 66 -145q0 -74 -32 -149h173v-201zM1594 201q87 0 87 56
q0 35 -38 64q-42 31 -105 31q-102 0 -193 -61q-66 -45 -92 -90h341z" />
    <glyph glyph-name="uFEBF" unicode="&#x636;" horiz-adv-x="969" arabic-form="initial" 
d="M873 785q-30 -110 -48 -160h-90l11 37q2 6 2 11q0 20 -34 20h-99l51 201h127q90 0 90 -52q0 -20 -10 -57zM969 338q0 -125 -79 -223q-92 -115 -241 -115h-300q-141 0 -179 115q-36 -115 -132 -115h-85v201h108q66 0 85 43q11 25 11 99q0 65 44 65q40 0 40 -65
q0 -142 102 -142q68 148 176 241q114 98 236 98q214 0 214 -202zM761 201q87 0 87 56q0 35 -39 63q-42 32 -105 32q-102 0 -193 -61q-67 -45 -92 -90h342z" />
    <glyph glyph-name="uFEC0" unicode="&#x636;" horiz-adv-x="1118" arabic-form="medial" 
d="M902 785q-30 -110 -48 -160h-90l11 37q2 6 2 11q0 20 -34 20h-99l51 201h127q90 0 90 -52q0 -20 -10 -57zM1156 0h-211q-55 0 -107 42q-77 -42 -167 -42h-299q-141 0 -179 115q-37 -115 -133 -115h-107v201h130q66 0 85 43q11 25 11 99q0 65 45 65q40 0 40 -65
q0 -142 102 -142q68 148 175 241q114 98 236 98q90 0 148 -45q66 -51 66 -145q0 -74 -32 -149h197v-201zM783 201q87 0 87 56q0 35 -38 64q-43 31 -105 31q-103 0 -194 -61q-67 -45 -91 -90h341z" />
    <glyph glyph-name="uFEC2" unicode="&#x637;" horiz-adv-x="1066" arabic-form="final" 
d="M1112 0h-141q-71 0 -104 51q-31 -51 -142 -51h-525l46 201h154q35 88 121 216q7 39 7 79q0 200 -139 376l98 192q151 -170 151 -418q0 -81 -18 -162q82 80 227 80q62 0 114 -41q70 -54 70 -157q0 -56 -40 -165h121v-201zM820 201q97 0 97 74q0 38 -35 65q-39 31 -104 31
q-191 0 -299 -170h341z" />
    <glyph glyph-name="uFEC3" unicode="&#x637;" horiz-adv-x="740" arabic-form="initial" 
d="M734 366q0 -162 -116 -268q-106 -98 -245 -98h-420l1 201h149q35 88 121 216q7 39 7 78q0 200 -141 377l99 192q152 -170 152 -418q0 -81 -18 -162q81 80 226 80q62 0 115 -41q70 -54 70 -157zM522 201q98 0 98 74q0 38 -35 65q-39 31 -103 31q-193 0 -300 -170h340z" />
    <glyph glyph-name="uFEC4" unicode="&#x637;" horiz-adv-x="770" arabic-form="medial" 
d="M819 0h-170q-71 0 -104 51q-32 -51 -143 -51h-444v201h120q35 88 122 216q6 39 6 78q0 200 -141 377l99 192q152 -171 152 -417q0 -81 -19 -163q82 80 227 80q62 0 115 -41q70 -54 70 -157q0 -56 -40 -165h150v-201zM497 201q98 0 98 74q0 38 -34 65q-40 31 -104 31
q-193 0 -300 -170h340z" />
    <glyph glyph-name="uFEC6" unicode="&#x638;" horiz-adv-x="1088" arabic-form="final" 
d="M966 823q-31 -109 -48 -160h-91l12 37q2 7 2 12q0 19 -35 19h-99l51 201h128q90 0 90 -51q0 -21 -10 -58zM1127 0h-156q-71 0 -104 51q-32 -51 -143 -51h-524l46 201h154q35 88 121 216q7 39 7 79q0 200 -140 376l99 192q151 -171 151 -417q0 -81 -19 -163q82 80 227 80
q62 0 115 -41q70 -54 70 -157q0 -56 -41 -165h137v-201zM820 201q97 0 97 73q0 38 -35 66q-39 31 -104 31q-192 0 -299 -170h341z" />
    <glyph glyph-name="uFEC7" unicode="&#x638;" horiz-adv-x="721" arabic-form="initial" 
d="M652 823q-30 -109 -48 -160h-90l12 37q2 7 2 12q0 19 -35 19h-99l51 201h128q90 0 90 -51q0 -21 -11 -58zM719 366q0 -162 -116 -268q-106 -98 -245 -98h-405l1 201h134q35 88 122 216q6 39 6 78q0 200 -140 377l99 192q152 -171 152 -417q0 -81 -19 -163q82 80 226 80
q62 0 115 -41q70 -54 70 -157zM507 201q98 0 98 74q0 38 -34 65q-39 31 -104 31q-194 0 -299 -170h339z" />
    <glyph glyph-name="uFEC8" unicode="&#x638;" horiz-adv-x="775" arabic-form="medial" 
d="M652 823q-30 -109 -48 -160h-90l12 37q2 7 2 12q0 19 -35 19h-99l51 201h128q90 0 90 -51q0 -21 -11 -58zM819 0h-156q-70 0 -104 51q-30 -51 -142 -51h-459v201h134q36 88 122 216q6 39 6 79q0 200 -139 376l97 192q153 -170 153 -418q0 -81 -18 -162q82 80 226 80
q63 0 115 -41q69 -54 69 -157q0 -56 -39 -165h135v-201zM512 201q98 0 98 74q0 38 -35 65q-39 31 -104 31q-191 0 -299 -170h340z" />
    <glyph glyph-name="uFECA" unicode="&#x639;" horiz-adv-x="1081" arabic-form="final" 
d="M1120 0h-394q-163 0 -159 155q-258 -151 -258 -419q0 -181 125 -262q81 -52 185 -52q70 0 224 30t207 30q17 0 31 -2l-59 -199q-18 1 -39 1q-81 0 -217.5 -29t-162.5 -29q-403 0 -403 451q0 361 315 577q-64 29 -154 29q-18 0 -37 -2l56 179h458l-53 -211q-26 0 -74 -17
t-48 -25q1 -4 11 -4h446v-201z" />
    <glyph glyph-name="uFECB" unicode="&#x639;" horiz-adv-x="672" arabic-form="initial" 
d="M672 201l-44 -201h-676v201h160q21 64 40 113q46 117 79 143q69 54 188 54q83 0 165 -24l-46 -181q-125 36 -209 36q-102 0 -102 -59q0 -34 38 -59q35 -23 75 -23h332z" />
    <glyph glyph-name="uFECC" unicode="&#x639;" horiz-adv-x="672" arabic-form="medial" 
d="M672 201l-44 -201h-676v201h160q21 64 40 113q46 117 79 143q69 54 188 54q83 0 165 -24l-46 -181q-125 36 -209 36q-102 0 -102 -59q0 -34 38 -59q35 -23 75 -23h332z" />
    <glyph glyph-name="uFECE" unicode="&#x63a;" horiz-adv-x="1083" arabic-form="final" 
d="M746 756q-30 -110 -48 -160h-90l11 37q2 6 2 11q0 20 -34 20h-99l51 201h127q90 0 90 -52q0 -20 -10 -57zM1120 0h-394q-163 0 -159 155q-258 -151 -258 -419q0 -181 125 -262q81 -52 185 -52q70 0 224 30t207 30q17 0 31 -2l-59 -199q-18 1 -39 1q-81 0 -217.5 -29
t-162.5 -29q-403 0 -403 451q0 361 315 577q-64 29 -154 29q-18 0 -37 -2l56 179h458l-53 -211q-26 0 -74 -17t-48 -25q1 -4 11 -4h446v-201z" />
    <glyph glyph-name="uFECF" unicode="&#x63a;" horiz-adv-x="677" arabic-form="initial" 
d="M537 756q-30 -110 -48 -160h-90l12 37q2 6 2 11q0 20 -35 20h-99l51 201h128q89 0 89 -52q0 -20 -10 -57zM677 201l-43 -201h-682v201h165q9 54 23 99q36 109 97 157q69 54 188 54q82 0 165 -24l-47 -181q-125 36 -209 36q-102 0 -102 -59q0 -34 38 -59q35 -23 74 -23
h333z" />
    <glyph glyph-name="uFED0" unicode="&#x63a;" horiz-adv-x="677" arabic-form="medial" 
d="M537 756q-30 -110 -48 -160h-90l12 37q2 6 2 11q0 20 -35 20h-99l51 201h128q89 0 89 -52q0 -20 -10 -57zM677 201l-43 -201h-682v201h165q9 54 23 99q36 109 97 157q69 54 188 54q82 0 165 -24l-47 -181q-125 36 -209 36q-102 0 -102 -59q0 -34 38 -59q35 -23 74 -23
h333z" />
    <glyph glyph-name="uFED2" unicode="&#x641;" horiz-adv-x="1650" arabic-form="final" 
d="M1499 948q-30 -110 -48 -160h-90l11 37q2 6 2 11q0 20 -34 20h-99l51 201h127q90 0 90 -52q0 -20 -10 -57zM1688 0h-211q-35 0 -71.5 12.5t-38.5 25.5q-23 -38 -104 -38h-857q-87 0 -145 52q-61 55 -61 148q0 127 61 221q54 83 109 83h160l-51 -186h-134q-55 0 -55 -44
q0 -32 34 -53q31 -20 74 -20h760q-44 49 -44 170q0 68 60 155q83 122 223 122q163 0 163 -181q0 -115 -60 -266h188v-201zM1410 242q72 64 72 125q0 77 -129 77q-136 0 -136 -48q0 -56 193 -154z" />
    <glyph glyph-name="uFED3" unicode="&#x641;" horiz-adv-x="536" arabic-form="initial" 
d="M413 1092q-31 -110 -48 -160h-91l12 37q2 6 2 11q0 20 -35 20h-99l51 201h128q90 0 90 -52q0 -20 -10 -57zM566 355q0 -141 -51 -240q-59 -115 -165 -115h-397v201h425q83 0 83 73q0 37 -70 37h-175q-151 0 -151 163q0 120 51 228q58 126 148 126q129 0 222 -174
q80 -151 80 -299zM366 524q-53 101 -146 101q-55 0 -55 -60q0 -41 49 -41h152z" />
    <glyph glyph-name="uFED4" unicode="&#x641;" horiz-adv-x="566" arabic-form="medial" 
d="M403 1092q-31 -110 -48 -160h-91l12 37q2 6 2 11q0 20 -35 20h-99l51 201h128q90 0 90 -52q0 -20 -10 -57zM566 355q0 -141 -51 -240q-59 -115 -165 -115h-397v201h425q83 0 83 73q0 37 -70 37h-175q-151 0 -151 163q0 120 51 228q58 126 148 126q129 0 222 -174
q80 -151 80 -299zM366 524q-53 101 -146 101q-55 0 -55 -60q0 -41 49 -41h152z" />
    <glyph glyph-name="uFED6" unicode="&#x642;" horiz-adv-x="1244" arabic-form="final" 
d="M1105 748q-31 -109 -44 -141h-90l12 38q2 6 2 11q0 19 -35 19h-281l48 183h310q88 0 88 -51q0 -20 -10 -59zM1282 0h-131q0 -191 -155 -318q-159 -131 -408 -131q-189 0 -291 99q-97 95 -97 264q0 173 119 288q112 108 263 108l-48 -197q-109 0 -171 -43t-62 -109
q0 -79 80 -136q88 -64 231 -64q184 0 325 79q115 65 115 109q0 51 -71 51h-187q-137 0 -137 126q0 139 51 258q59 137 149 137q94 0 179 -85q93 -93 112 -235h134v-201zM967 201q-46 112 -141 112q-70 0 -70 -69q0 -31 27 -39q13 -4 62 -4h122z" />
    <glyph glyph-name="uFED7" unicode="&#x642;" horiz-adv-x="536" arabic-form="initial" 
d="M514 1065q-30 -110 -43 -141h-90l11 37q2 7 2 11q0 20 -34 20h-281l48 182h309q89 0 89 -50q0 -21 -11 -59zM566 355q0 -141 -51 -240q-59 -115 -165 -115h-397v201h425q83 0 83 73q0 37 -70 37h-175q-151 0 -151 163q0 120 51 228q58 126 148 126q129 0 222 -174
q80 -151 80 -299zM366 524q-53 101 -146 101q-55 0 -55 -60q0 -41 49 -41h152z" />
    <glyph glyph-name="uFED8" unicode="&#x642;" horiz-adv-x="566" arabic-form="medial" 
d="M494 1065q-30 -110 -43 -141h-90l11 37q2 7 2 11q0 20 -34 20h-281l48 182h309q89 0 89 -50q0 -21 -11 -59zM566 355q0 -141 -51 -240q-59 -115 -165 -115h-397v201h425q83 0 83 73q0 37 -70 37h-175q-151 0 -151 163q0 120 51 228q58 126 148 126q129 0 222 -174
q80 -151 80 -299zM366 524q-53 101 -146 101q-55 0 -55 -60q0 -41 49 -41h152z" />
    <glyph glyph-name="uFEDE" unicode="&#x644;" horiz-adv-x="1236" arabic-form="final" 
d="M1282 0h-85q-46 0 -79 31q-8 -208 -133 -358q-148 -177 -398 -177q-207 0 -307 104q-80 83 -80 212q0 262 166 401q137 114 333 114q29 0 57 -3l-42 -202q-405 -10 -405 -219q0 -69 67 -127q83 -72 229 -72q264 0 354 118q44 58 44 164q0 251 -53 878q27 42 104 174
q13 24 27 24q24 0 24 -90q0 -37 4.5 -315t4.5 -317q0 -139 65 -139h103v-201z" />
    <glyph glyph-name="uFEDF" unicode="&#x644;" horiz-adv-x="285" arabic-form="initial" 
d="M285 1002q0 -624 -5 -679q-28 -323 -269 -323h-58v201h116q88 0 88 119q0 212 -22 603q33 33 98 106q25 30 37 30q15 0 15 -57z" />
    <glyph glyph-name="uFEE0" unicode="&#x644;" horiz-adv-x="285" arabic-form="medial" 
d="M285 1002q0 -624 -5 -679q-28 -323 -269 -323h-58v201h116q88 0 88 119q0 212 -22 603q33 33 98 106q25 30 37 30q15 0 15 -57z" />
    <glyph glyph-name="uFEE2" unicode="&#x645;" horiz-adv-x="1107" arabic-form="final" 
d="M1143 0h-156q0 -119 -62 -205q-66 -92 -167 -92q-61 0 -112 54q-63 68 -63 185q0 25 3 51q-30 4 -65 4q-215 0 -215 -135q0 -74 56 -195q87 -186 273 -371l-53 -224q-143 105 -265 315q-117 202 -117 325q0 162 57 288q93 202 307 202q49 0 49 26q0 23 -66 60
q15 34 78 194q4 10 11 10q11 0 46 -33q60 -54 93 -80l132 -116q77 -62 150 -62h86v-201zM869 -48q0 96 -164 201q-35 -81 -35 -119q0 -63 56 -98q42 -26 87 -26q56 0 56 42z" />
    <glyph glyph-name="uFEE3" unicode="&#x645;" horiz-adv-x="593" arabic-form="initial" 
d="M624 109q0 -118 -59.5 -202t-146.5 -84q-167 0 -177 238q-49 -61 -125 -61h-163v201h171q42 0 80 18q42 19 42 44q0 40 -111 47l59 221q125 -32 215 -85q215 -126 215 -337zM523 86q0 84 -191 172q-2 -18 -2 -39q0 -180 132 -180q61 0 61 47z" />
    <glyph glyph-name="uFEE4" unicode="&#x645;" horiz-adv-x="624" arabic-form="medial" 
d="M624 109q0 -118 -59.5 -202t-146.5 -84q-167 0 -177 238q-49 -61 -125 -61h-163v201h171q42 0 80 18q42 19 42 44q0 40 -111 47l59 221q125 -32 215 -85q215 -126 215 -337zM523 86q0 84 -191 172q-2 -18 -2 -39q0 -180 132 -180q61 0 61 47z" />
    <glyph glyph-name="uFEE6" unicode="&#x646;" horiz-adv-x="1298" arabic-form="final" 
d="M876 698q-30 -109 -48 -160h-90l12 38q2 6 2 11q0 19 -35 19h-99l51 202h128q90 0 90 -52q0 -21 -11 -58zM1337 0h-156q0 -160 -149 -290q-164 -143 -405 -143q-427 0 -427 372q0 155 108 276q129 144 351 144q37 0 76 -4l-47 -204q-190 7 -290 -39q-87 -40 -87 -109
q0 -116 115 -180q91 -51 201 -51q191 0 330 74q124 66 124 137q0 132 -169 249l52 208q103 -68 172 -176q40 -63 132 -63h69v-201z" />
    <glyph glyph-name="uFEE7" unicode="&#x646;" horiz-adv-x="472" arabic-form="initial" 
d="M355 746q-30 -109 -48 -160h-90l11 38q2 6 2 11q0 19 -34 19h-99l51 202h127q90 0 90 -52q0 -21 -10 -58zM472 228q0 -108 -58 -172q-51 -56 -117 -56h-341v201h363q62 0 62 15q0 59 -156 109l58 182q189 -68 189 -279z" />
    <glyph glyph-name="uFEE8" unicode="&#x646;" horiz-adv-x="528" arabic-form="medial" 
d="M374 698q-30 -109 -48 -160h-90l12 38q1 6 1 11q0 19 -34 19h-99l51 202h128q89 0 89 -52q0 -21 -10 -58zM566 0h-213q-36 0 -60.5 21t-24.5 46q0 13 -3 13q5 0 -33 -40t-90 -40h-189v201h215q69 0 69 91q0 57 38 57q39 0 39 -60q0 -88 72 -88h180v-201z" />
    <glyph glyph-name="uFEEA" unicode="&#x647;" horiz-adv-x="967" arabic-form="final" 
d="M1005 0h-167q-160 0 -169 182q-47 -12 -93 -25q-69 -15 -170 -15q-206 0 -206 178q0 137 114 265q122 136 275 136q105 0 138 -56q42 -72 42 -311q0 -153 89 -153h147v-201zM641 371q-2 85 -23 117q-27 39 -101 39t-140.5 -37t-66.5 -83q0 -61 128 -61q86 0 203 25z" />
    <glyph glyph-name="uFEEB" unicode="&#x647;" horiz-adv-x="730" arabic-form="initial" 
d="M730 281q0 -113 -60 -209q-69 -111 -179 -111q-125 0 -244 80q-71 -41 -153 -41h-141v201h182q-9 49 -9 109q0 131 47 233l-44 19l69 202q155 -38 266 -99q266 -146 266 -384zM627 212q0 87 -113 172q-27 -102 -87 -204q30 -26 106 -26q94 0 94 58zM429 358
q0 45 -46.5 82t-100.5 37q-93 0 -93 -64q0 -48 46 -113q43 -59 61 -59q133 53 133 117z" />
    <glyph glyph-name="uFEEC" unicode="&#x647;" horiz-adv-x="803" arabic-form="medial" 
d="M841 0h-317q-83 0 -83 -27q0 -68 240 -74l-54 -214h-162q-206 0 -300 117q-66 82 -66 198h-146v201h158q50 336 183 336q59 0 96 -69.5t37 -186.5q0 -73 -49 -170q-56 -111 -123 -111h-31q67 -76 105 -76q33 277 269 277h243v-201zM327 221q0 31 -25 73q-28 48 -61 48
q-51 0 -60 -141q146 0 146 20z" />
    <glyph glyph-name="uFEEE" unicode="&#x648;" horiz-adv-x="874" arabic-form="final" 
d="M913 0h-129q-22 -269 -270 -427q-111 -71 -314 -129l52 206q149 47 278 131q148 97 148 173q0 46 -46 46h-200q-107 0 -136 68q-13 29 -13 120q0 76 38 186q19 56 54 103q49 64 101 64q86 0 171 -104q82 -99 119 -236h147v-201zM589 201q-36 116 -144 116
q-29 0 -47.5 -20.5t-18.5 -46.5q0 -49 56 -49h154z" />
    <glyph glyph-name="uFEF0" unicode="&#x649;" horiz-adv-x="1354" arabic-form="final" 
d="M1392 0h-128q0 -123 -159 -259q-197 -169 -495 -169q-410 0 -410 328q0 175 102 302q112 140 295 140q24 0 50 -2l-44 -223q-20 5 -51 5q-88 0 -157 -34q-88 -44 -88 -123q0 -180 340 -180q177 0 337 65q153 62 153 123q0 27 -96 27h-266l38 201h579v-201z" />
    <glyph glyph-name=".notdef" horiz-adv-x="1024" 
d="M128 0v1185h768v-1185h-768zM256 128h512v929h-512v-929z" />
    <glyph glyph-name=".null" 
 />
    <glyph glyph-name="nonmarkingreturn" horiz-adv-x="365" 
 />
    <glyph glyph-name="space" unicode=" " horiz-adv-x="365" 
 />
    <glyph glyph-name="exclam" unicode="!" horiz-adv-x="426" 
d="M426 748q0 -137 -46 -254q-43 -106 -80 -106q-29 0 -29 79q0 -1 8.5 47t8.5 91q0 197 -162 328l100 210q200 -201 200 -395zM413 108q-21 -57 -56 -146h-80l14 38h-152l59 201h154q72 0 72 -42q0 -19 -11 -51z" />
    <glyph glyph-name="percent" unicode="%" horiz-adv-x="882" 
d="M483 774q-34 -61 -62 -108h-71l11 23q9 19 -15 19h-131l105 178h132q52 0 52 -45q0 -29 -21 -67zM874 970l-585 -1029h-160l585 1029h160zM712 113q-34 -61 -62 -108h-71l11 23q9 19 -14 19h-132l106 178h131q52 0 52 -45q0 -29 -21 -67z" />
    <glyph glyph-name="parenleft" unicode="(" horiz-adv-x="467" 
d="M416 770q-148 -195 -148 -382q0 -288 145 -383l-33 -233q-250 196 -250 617q0 311 245 597z" />
    <glyph glyph-name="parenright" unicode=")" horiz-adv-x="473" 
d="M406 389q0 -421 -251 -617l-32 233q145 95 145 383q0 187 -149 382l41 216q246 -286 246 -597z" />
    <glyph glyph-name="asterisk" unicode="*" horiz-adv-x="929" 
d="M786 663q7 -84 -70 -161q-54 -54 -50 -83l-81 -17q-13 55 70 138q41 41 39 99zM929 397q-55 -65 -165 -65q-81 0 -92 -23l-70 45q57 48 146 48q58 0 98 42zM584 494l-45 -69q-48 57 -48 146q0 58 -42 98l47 82q65 -54 65 -165q0 -80 23 -92zM840 107q-83 -7 -161 70
q-53 54 -82 50l-18 81q55 13 139 -70q40 -41 98 -38zM491 408q-55 -14 -138 70q-40 40 -99 38l-24 92q84 8 161 -70q54 -53 83 -50zM622 47l-47 -82q-66 54 -66 165q0 80 -23 92l45 69q48 -57 48 -146q0 -58 43 -98zM468 362q-57 -48 -146 -48q-58 0 -98 -43l-82 47
q55 66 165 66q81 0 92 23zM485 314q14 -55 -70 -138q-40 -41 -38 -99l-92 -24q-8 83 70 161q53 53 50 82z" />
    <glyph glyph-name="plus" unicode="+" horiz-adv-x="813" 
d="M801 240h-264v-264h-144v264h-263v144h263v264h144v-264h264v-144z" />
    <glyph glyph-name="comma" unicode="," horiz-adv-x="487" 
d="M164 128q0 58 38.5 101t96.5 43q90 0 137 -82q38 -68 38 -164q0 -90 -43.5 -181t-113.5 -149q-7 -5 -14 -5q-3 0 -6 1q-13 4 -13 20q0 -20 6 -20q13 0 55 100q61 144 61 181q0 42 -27 42q-16 0 -46.5 -8.5t-46.5 -8.5q-49 0 -85.5 40t-36.5 90z" />
    <glyph glyph-name="hyphen" unicode="-" horiz-adv-x="801" 
d="M801 249h-671v144h671v-144z" />
    <glyph glyph-name="period" unicode="." horiz-adv-x="287" 
d="M283 138q-19 -68 -30 -97h-38l3 15q3 16 -16 16h-72l33 128h78q46 0 46 -37q0 -11 -4 -25z" />
    <glyph glyph-name="slash" unicode="/" horiz-adv-x="859" 
d="M859 937l-566 -983h-153l558 983h161z" />
    <glyph glyph-name="zero" unicode="0" horiz-adv-x="449" 
d="M437 276q-37 -135 -60 -193h-77l7 28q8 33 -31 33h-146l67 255h155q93 0 93 -73q0 -22 -8 -50z" />
    <glyph glyph-name="zero" unicode="&#x6f0;" horiz-adv-x="449" 
d="M437 276q-37 -135 -60 -193h-77l7 28q8 33 -31 33h-146l67 255h155q93 0 93 -73q0 -22 -8 -50z" />
    <glyph glyph-name="zero" unicode="&#x660;" horiz-adv-x="449" 
d="M437 276q-37 -135 -60 -193h-77l7 28q8 33 -31 33h-146l67 255h155q93 0 93 -73q0 -22 -8 -50z" />
    <glyph glyph-name="one" unicode="1" horiz-adv-x="484" 
d="M484 95l-119 -188q-116 121 -116 557q0 191 -125 308l58 218q202 -149 202 -478q0 -259 100 -417z" />
    <glyph glyph-name="one" unicode="&#x6f1;" horiz-adv-x="484" 
d="M484 95l-119 -188q-116 121 -116 557q0 191 -125 308l58 218q202 -149 202 -478q0 -259 100 -417z" />
    <glyph glyph-name="one" unicode="&#x661;" horiz-adv-x="484" 
d="M484 95l-119 -188q-116 121 -116 557q0 191 -125 308l58 218q202 -149 202 -478q0 -259 100 -417z" />
    <glyph glyph-name="two" unicode="2" horiz-adv-x="721" 
d="M726 726q0 -276 -187 -276h-165q-11 -103 83 -346l-124 -200q-91 160 -91 560q0 201 -117 324l85 208q144 -177 144 -282q0 -48 81 -48h138q52 0 52 20q0 39 -172 120l53 187q220 -73 220 -267z" />
    <glyph glyph-name="two" unicode="&#x6f2;" horiz-adv-x="721" 
d="M726 726q0 -276 -187 -276h-165q-11 -103 83 -346l-124 -200q-91 160 -91 560q0 201 -117 324l85 208q144 -177 144 -282q0 -48 81 -48h138q52 0 52 20q0 39 -172 120l53 187q220 -73 220 -267z" />
    <glyph glyph-name="two" unicode="&#x662;" horiz-adv-x="721" 
d="M726 726q0 -276 -187 -276h-165q-11 -103 83 -346l-124 -200q-91 160 -91 560q0 201 -117 324l85 208q144 -177 144 -282q0 -48 81 -48h138q52 0 52 20q0 39 -172 120l53 187q220 -73 220 -267z" />
    <glyph glyph-name="three" unicode="3" horiz-adv-x="946" 
d="M950 728q0 -135 -62 -198q-41 -42 -87 -42h-94q-80 0 -125 51q-8 8 -35 58q-1 1 -1 -3q0 -24 -33 -60q-39 -43 -87 -43h-28q-4 -34 -4 -70q0 -156 67 -320l-128 -200q-71 151 -71 422q0 285 -136 415l82 232q112 -155 112 -198q0 -21 23 -47q24 -29 46 -29h55
q58 0 58 110q0 107 54 107q56 0 56 -107q0 -59 15 -82q19 -29 70 -29h101q55 0 55 16q0 30 -121 78l25 195q193 -67 193 -256z" />
    <glyph glyph-name="three" unicode="&#x6f3;" horiz-adv-x="946" 
d="M950 728q0 -135 -62 -198q-41 -42 -87 -42h-94q-80 0 -125 51q-8 8 -35 58q-1 1 -1 -3q0 -24 -33 -60q-39 -43 -87 -43h-28q-4 -34 -4 -70q0 -156 67 -320l-128 -200q-71 151 -71 422q0 285 -136 415l82 232q112 -155 112 -198q0 -21 23 -47q24 -29 46 -29h55
q58 0 58 110q0 107 54 107q56 0 56 -107q0 -59 15 -82q19 -29 70 -29h101q55 0 55 16q0 30 -121 78l25 195q193 -67 193 -256z" />
    <glyph glyph-name="three" unicode="&#x663;" horiz-adv-x="946" 
d="M950 728q0 -135 -62 -198q-41 -42 -87 -42h-94q-80 0 -125 51q-8 8 -35 58q-1 1 -1 -3q0 -24 -33 -60q-39 -43 -87 -43h-28q-4 -34 -4 -70q0 -156 67 -320l-128 -200q-71 151 -71 422q0 285 -136 415l82 232q112 -155 112 -198q0 -21 23 -47q24 -29 46 -29h55
q58 0 58 110q0 107 54 107q56 0 56 -107q0 -59 15 -82q19 -29 70 -29h101q55 0 55 16q0 30 -121 78l25 195q193 -67 193 -256z" />
    <glyph glyph-name="four" unicode="4" horiz-adv-x="872" 
d="M873 650l-47 -217h-405q-2 -199 83 -338l-105 -188q-118 75 -118 513q0 220 -159 338l53 212q66 -32 136 -137q62 -93 62 -128q0 -42 23 -42q31 0 31 46q0 108 84 189.5t208 81.5q65 0 131 -25l-41 -170q-79 17 -146 17q-139 0 -139 -83q0 -78 203 -78q72 0 146 9z" />
    <glyph glyph-name="four" unicode="&#x6f4;" horiz-adv-x="872" 
d="M873 650l-47 -217h-405q-2 -199 83 -338l-105 -188q-118 75 -118 513q0 220 -159 338l53 212q66 -32 136 -137q62 -93 62 -128q0 -42 23 -42q31 0 31 46q0 108 84 189.5t208 81.5q65 0 131 -25l-41 -170q-79 17 -146 17q-139 0 -139 -83q0 -78 203 -78q72 0 146 9z" />
    <glyph glyph-name="four" unicode="&#x664;" horiz-adv-x="872" 
d="M873 650l-47 -217h-405q-2 -199 83 -338l-105 -188q-118 75 -118 513q0 220 -159 338l53 212q66 -32 136 -137q62 -93 62 -128q0 -42 23 -42q31 0 31 46q0 108 84 189.5t208 81.5q65 0 131 -25l-41 -170q-79 17 -146 17q-139 0 -139 -83q0 -78 203 -78q72 0 146 9z" />
    <glyph glyph-name="five" unicode="5" horiz-adv-x="898" 
d="M900 286q0 -156 -80 -258q-99 -127 -300 -127q-394 0 -394 394q0 203 173 321q72 50 173 78q-14 14 -97 70l65 220q460 -353 460 -698zM798 277q0 166 -276 373v-171q-302 -39 -302 -191q0 -93 89 -141q77 -41 198 -41q142 0 219 49q72 46 72 122z" />
    <glyph glyph-name="five" unicode="&#x6f5;" horiz-adv-x="898" 
d="M900 286q0 -156 -80 -258q-99 -127 -300 -127q-394 0 -394 394q0 203 173 321q72 50 173 78q-14 14 -97 70l65 220q460 -353 460 -698zM798 277q0 166 -276 373v-171q-302 -39 -302 -191q0 -93 89 -141q77 -41 198 -41q142 0 219 49q72 46 72 122z" />
    <glyph glyph-name="five" unicode="&#x665;" horiz-adv-x="898" 
d="M900 286q0 -156 -80 -258q-99 -127 -300 -127q-394 0 -394 394q0 203 173 321q72 50 173 78q-14 14 -97 70l65 220q460 -353 460 -698zM798 277q0 166 -276 373v-171q-302 -39 -302 -191q0 -93 89 -141q77 -41 198 -41q142 0 219 49q72 46 72 122z" />
    <glyph glyph-name="six" unicode="6" horiz-adv-x="780" 
d="M781 676l-68 -206q-218 0 -476 -566l-149 177q82 160 270 363q-232 25 -232 291q0 155 91 242q68 66 141 66h288l-81 -211h-250q-89 0 -89 -62q0 -94 164 -94h391z" />
    <glyph glyph-name="six" unicode="&#x6f6;" horiz-adv-x="780" 
d="M781 676l-68 -206q-218 0 -476 -566l-149 177q82 160 270 363q-232 25 -232 291q0 155 91 242q68 66 141 66h288l-81 -211h-250q-89 0 -89 -62q0 -94 164 -94h391z" />
    <glyph glyph-name="six" unicode="&#x666;" horiz-adv-x="780" 
d="M781 676l-68 -206q-218 0 -476 -566l-149 177q82 160 270 363q-232 25 -232 291q0 155 91 242q68 66 141 66h288l-81 -211h-250q-89 0 -89 -62q0 -94 164 -94h391z" />
    <glyph glyph-name="seven" unicode="7" horiz-adv-x="946" 
d="M928 1026q19 -74 19 -152q0 -361 -357 -738l38 -30l-115 -202q-219 153 -219 526q0 239 -170 360l70 223q223 -181 223 -418t96 -359q238 242 238 501q0 71 -20 138z" />
    <glyph glyph-name="seven" unicode="&#x6f7;" horiz-adv-x="946" 
d="M928 1026q19 -74 19 -152q0 -361 -357 -738l38 -30l-115 -202q-219 153 -219 526q0 239 -170 360l70 223q223 -181 223 -418t96 -359q238 242 238 501q0 71 -20 138z" />
    <glyph glyph-name="seven" unicode="&#x667;" horiz-adv-x="946" 
d="M928 1026q19 -74 19 -152q0 -361 -357 -738l38 -30l-115 -202q-219 153 -219 526q0 239 -170 360l70 223q223 -181 223 -418t96 -359q238 242 238 501q0 71 -20 138z" />
    <glyph glyph-name="eight" unicode="8" horiz-adv-x="933" 
d="M936 141l-76 -231q-206 121 -206 413q0 234 -88 368q-239 -266 -239 -514q0 -61 16 -118l-199 -146q-15 67 -15 136q0 374 364 723l-47 44l106 183q220 -147 220 -399q0 -389 164 -459z" />
    <glyph glyph-name="eight" unicode="&#x6f8;" horiz-adv-x="933" 
d="M936 141l-76 -231q-206 121 -206 413q0 234 -88 368q-239 -266 -239 -514q0 -61 16 -118l-199 -146q-15 67 -15 136q0 374 364 723l-47 44l106 183q220 -147 220 -399q0 -389 164 -459z" />
    <glyph glyph-name="eight" unicode="&#x668;" horiz-adv-x="933" 
d="M936 141l-76 -231q-206 121 -206 413q0 234 -88 368q-239 -266 -239 -514q0 -61 16 -118l-199 -146q-15 67 -15 136q0 374 364 723l-47 44l106 183q220 -147 220 -399q0 -389 164 -459z" />
    <glyph glyph-name="nine" unicode="9" horiz-adv-x="837" 
d="M842 98l-123 -191q-119 155 -119 523q-140 -47 -256 -47q-218 0 -218 184q0 153 123 286.5t264 133.5q146 0 189 -111q29 -77 29 -326q0 -253 111 -452zM584 621q5 20 5 42q0 127 -136 127q-66 0 -133 -38q-73 -43 -73 -97q0 -61 127 -61q89 0 210 27z" />
    <glyph glyph-name="nine" unicode="&#x6f9;" horiz-adv-x="837" 
d="M842 98l-123 -191q-119 155 -119 523q-140 -47 -256 -47q-218 0 -218 184q0 153 123 286.5t264 133.5q146 0 189 -111q29 -77 29 -326q0 -253 111 -452zM584 621q5 20 5 42q0 127 -136 127q-66 0 -133 -38q-73 -43 -73 -97q0 -61 127 -61q89 0 210 27z" />
    <glyph glyph-name="nine" unicode="&#x669;" horiz-adv-x="837" 
d="M842 98l-123 -191q-119 155 -119 523q-140 -47 -256 -47q-218 0 -218 184q0 153 123 286.5t264 133.5q146 0 189 -111q29 -77 29 -326q0 -253 111 -452zM584 621q5 20 5 42q0 127 -136 127q-66 0 -133 -38q-73 -43 -73 -97q0 -61 127 -61q89 0 210 27z" />
    <glyph glyph-name="colon" unicode=":" horiz-adv-x="458" 
d="M413 600q-12 -39 -50 -138h-72q14 37 -14 37h-144l60 201h145q32 0 56 -20.5t24 -53.5q0 -13 -5 -26zM413 101q-12 -39 -50 -137h-72q14 36 -14 36h-144l60 201h145q32 0 56 -20.5t24 -53.5q0 -13 -5 -26z" />
    <glyph glyph-name="equal" unicode="=" horiz-adv-x="801" 
d="M801 393h-671v144h671v-144zM801 106h-671v143h671v-143z" />
    <glyph glyph-name="bracketleft" unicode="[" horiz-adv-x="481" 
d="M130 -466v1576h349v-125h-217v-1323h217v-128h-349z" />
    <glyph glyph-name="bracketright" unicode="]" horiz-adv-x="481" 
d="M479 -466v1576h-349v-125h217v-1323h-217v-128h349z" />
    <glyph glyph-name="braceleft" unicode="{" horiz-adv-x="747" 
d="M603 -550q-151 27 -246 125q-100 104 -100 254q0 63 26 173q20 86 20 109q0 95 -71 160q-65 61 -163 72v36q234 51 234 215q0 42 -17 119q-25 120 -25 184q0 150 97 253q94 99 245 122v-38q-92 -13 -153 -71q-65 -63 -65 -153q0 -43 12 -111q30 -156 30 -206
q0 -221 -279 -330q275 -113 275 -343q0 -48 -26 -175q-16 -81 -16 -131q0 -177 222 -228v-36z" />
    <glyph glyph-name="braceright" unicode="}" horiz-adv-x="691" 
d="M93 -547q151 26 245 124q99 104 99 253q0 67 -23 174q-20 90 -20 109q0 95 70 160q66 61 163 71v37q-233 51 -233 215q0 50 14 119q28 128 28 184q0 150 -98 253q-94 98 -245 124v-40q94 -15 153 -71q64 -60 64 -152q0 -54 -11 -113q-31 -165 -31 -206q0 -218 281 -328
q-277 -114 -277 -342q0 -45 27 -175q16 -78 16 -133q0 -177 -222 -228v-35z" />
    <glyph glyph-name="guillemotleft" unicode="&#xab;" horiz-adv-x="518" 
d="M476 460q-74 -99 -74 -192q0 -143 72 -190l-16 -118q-125 98 -125 310q0 155 123 297zM272 462q-73 -99 -73 -192q0 -143 72 -190l-17 -118q-124 98 -124 309q0 156 122 298z" />
    <glyph glyph-name="periodcentered" unicode="&#xb7;" horiz-adv-x="365" 
d="M180 465q-69 0 -69 75q0 76 69 76q68 0 68 -76q0 -75 -68 -75z" />
    <glyph glyph-name="periodcentered" unicode="&#x2219;" horiz-adv-x="365" 
d="M180 465q-69 0 -69 75q0 76 69 76q68 0 68 -76q0 -75 -68 -75z" />
    <glyph glyph-name="periodcentered" unicode="&#x2d9;" horiz-adv-x="365" 
d="M180 465q-69 0 -69 75q0 76 69 76q68 0 68 -76q0 -75 -68 -75z" />
    <glyph glyph-name="guillemotright" unicode="&#xbb;" horiz-adv-x="532" 
d="M476 273q0 -211 -125 -309l-16 118q72 47 72 189q0 94 -74 193l20 107q123 -142 123 -298zM272 271q0 -211 -124 -309l-17 118q72 47 72 190q0 93 -73 192l20 107q122 -142 122 -298z" />
    <glyph glyph-name="multiply" unicode="&#xd7;" horiz-adv-x="699" 
d="M692 126l-103 -103l-186 187l-186 -187l-103 103l187 186l-187 186l103 103l186 -188l186 188l103 -103l-187 -186z" />
    <glyph glyph-name="divide" unicode="&#xf7;" horiz-adv-x="801" 
d="M801 249h-671v144h671v-144zM589 587q-12 -39 -51 -137h-72q14 36 -13 36h-144l59 202h145q32 0 56 -20.5t24 -53.5q0 -13 -4 -27zM589 88q-12 -39 -51 -137h-72q14 37 -13 37h-144l59 201h145q32 0 56 -20.5t24 -53.5q0 -13 -4 -27z" />
    <glyph glyph-name="u060C" unicode="&#x60c;" horiz-adv-x="487" 
d="M485 146q0 -58 -39 -102t-96 -44q-90 0 -137 84q-38 68 -38 164q0 193 157 328q10 9 20 5q13 -3 13 -20q0 20 -6 20q-13 0 -56 -100q-61 -144 -61 -180q0 -42 26 -42q16 0 47.5 8t47.5 8q49 0 85.5 -39.5t36.5 -89.5z" />
    <glyph glyph-name="u061B" unicode="&#x61b;" horiz-adv-x="458" 
d="M433 652q0 -56 -60.5 -124.5t-114.5 -68.5q-132 0 -132 152q0 192 154 423q51 76 94 76q30 0 30 -36q0 -28 -25 -64t-61 -121q-41 -96 -41 -138q0 -25 17 -25q30 0 43 42t21 42q85 0 85 -79q0 -18 -5 -46t-5 -33zM413 101q-12 -39 -50 -137h-72q14 36 -14 36h-144l60 201
h145q32 0 56 -20.5t24 -53.5q0 -13 -5 -26z" />
    <glyph glyph-name="u061F" unicode="&#x61f;" horiz-adv-x="608" 
d="M612 605q0 -113 -58 -225q-29 -55 -63 -55q-28 0 -28 39q0 16 5 35q12 45 12 94q0 108 -70 108q-15 0 -49.5 -1.5t-52.5 -1.5q-182 0 -182 157q0 97 64 232q75 159 167 159q84 0 167 -82l-53 -176q-78 64 -150 64q-31 0 -59.5 -24t-28.5 -54q0 -70 110 -70q19 0 54.5 2.5
t49.5 2.5q63 0 110 -49q55 -56 55 -155zM594 100q-27 -98 -42 -136h-66l4 36h-172l53 201h153q75 0 75 -64q0 -17 -5 -37z" />
    <glyph glyph-name="u0621" unicode="&#x621;" horiz-adv-x="591" 
d="M501 238q12 0 12 -15q0 -20 -18.5 -54.5t-25.5 -34.5q-26 0 -86 -24q-89 -35 -153 -98q-16 -15 -22 -15q-8 0 -8 65q0 14 73 67q-46 17 -46 57q0 34 42 89q49 63 99 63q52 0 77 -47l-52 -62q-21 30 -56 30q-38 0 -38 -29q0 -27 72 -27q37 0 82.5 17.5t47.5 17.5z" />
    <glyph glyph-name="u0640" unicode="&#x640;" horiz-adv-x="474" 
d="M501 0h-528v201h528v-201z" />
    <glyph glyph-name="u064B" unicode="&#x64b;" 
d="M494 1416l-22 -107l-370 -113l15 105zM494 1608l-22 -108l-370 -113l15 106z" />
    <glyph glyph-name="u064C" unicode="&#x64c;" 
d="M390 1400q0 -42 -47 -115l-75 31q-29 -36 -91 -77q-78 -51 -137 -51q-13 0 -27 79q7 2 40 16q2 22 2 40q0 60 -35 60q-14 0 -33 -26t-22 -26q-23 0 -23 62q0 34 28.5 71.5t62.5 37.5q39 0 63 -32t24 -72q0 -67 -9 -93q60 33 82 66q-49 45 -49 111q0 64 35 122
q40 67 98 67q91 0 91 -116q0 -69 -31 -131q13 -13 53 -24zM275 1460q20 29 20 58q0 60 -42 60q-32 0 -32 -52q0 -19 18 -39.5t36 -26.5z" />
    <glyph glyph-name="u064D" unicode="&#x64d;" 
d="M479 -1267l-21 -107l-371 -113l15 105zM479 -1075l-21 -108l-371 -113l15 106z" />
    <glyph glyph-name="u064E" unicode="&#x64e;" 
d="M427 1418l-22 -106l-370 -114l14 105z" />
    <glyph glyph-name="u064F" unicode="&#x64f;" 
d="M390 1400q0 -42 -47 -115l-75 31q-29 -36 -91 -77q-78 -51 -137 -51q-13 0 -27 79q131 34 180 104q-49 45 -49 111q0 64 35 122q40 67 98 67q91 0 91 -116q0 -69 -31 -131q13 -13 53 -24zM275 1460q20 29 20 58q0 60 -42 60q-32 0 -32 -52q0 -19 18 -39.5t36 -26.5z" />
    <glyph glyph-name="u0650" unicode="&#x650;" 
d="M481 -1106l-22 -108l-372 -113l17 106z" />
    <glyph glyph-name="u0651" unicode="&#x651;" 
d="M412 1402q0 -59 -31 -110q-35 -58 -91 -58q-44 0 -68 46q-38 -82 -102 -82q-42 0 -65 40q-20 33 -20 78q0 115 45 115q4 0 19.5 -49.5t46.5 -49.5q30 0 55.5 59.5t37.5 59.5q5 0 18.5 -44.5t30.5 -44.5q32 0 61.5 52.5t31.5 52.5q31 0 31 -65z" />
    <glyph glyph-name="u0652" unicode="&#x652;" 
d="M355 1376q0 -70 -34 -120q-39 -57 -106 -57q-149 0 -149 179q0 53 38 115q43 67 93 67q68 0 115 -59q43 -55 43 -125zM281 1362q-31 69 -99 69q-16 0 -31.5 -14.5t-15.5 -31.5q0 -47 58 -47q62 0 88 24z" />
    <glyph glyph-name="zeronojoin" unicode="&#x200c;" horiz-adv-x="45" 
 />
    <glyph glyph-name="zerojoin" unicode="&#x200d;" horiz-adv-x="45" 
 />
    <glyph glyph-name="lefttoright" unicode="&#x200e;" horiz-adv-x="29" 
d="M193 1028l-85 -87l-22 18l56 56h-113v-1015h-29v1043h139l-53 52l22 21z" />
    <glyph glyph-name="righttoleft" unicode="&#x200f;" horiz-adv-x="29" 
d="M29 0h-29v1015h-113l55 -56l-19 -18l-89 87l89 88l19 -21l-53 -52h140v-1043z" />
    <glyph glyph-name="quoteleft" unicode="&#x2018;" horiz-adv-x="437" 
d="M416 1323q-82 -55 -137 -129q-68 -89 -68 -171q0 -50 28 -88q34 42 80 42q91 0 91 -89q0 -53 -42 -83q-37 -27 -93 -27q-74 0 -119 45t-45 119q0 125 97 252q86 113 208 177v-48z" />
    <glyph glyph-name="quoteright" unicode="&#x2019;" horiz-adv-x="437" 
d="M396 1205q0 -130 -95 -252q-80 -102 -208 -177v50q204 144 204 300q0 55 -31 90q-29 -42 -84 -42q-36 0 -61.5 24.5t-25.5 60.5q0 52 44 83q39 27 92 27q165 0 165 -164z" />
    <glyph glyph-name="quotedblleft" unicode="&#x201c;" horiz-adv-x="578" 
d="M509 1021q-11 -6 -37 -24q-45 -46 -45 -86q72 -18 72 -98q0 -41 -28 -69.5t-68 -28.5q-46 0 -75 37q-25 33 -25 81q0 179 180 319q0 -73 2 -82q3 -37 24 -49zM268 1021q-11 -6 -37 -24q-45 -46 -45 -86q73 -18 73 -98q0 -41 -28 -69.5t-69 -28.5q-46 0 -74 37
q-26 33 -26 81q0 179 180 319q0 -73 2 -82q4 -37 24 -49z" />
    <glyph glyph-name="quotedblright" unicode="&#x201d;" horiz-adv-x="578" 
d="M516 1024q0 -178 -181 -319v82q-3 37 -25 50q11 5 36 23q46 46 46 86q-73 18 -73 98q0 43 27 71t70 28q100 0 100 -119zM275 1024q0 -178 -180 -319v82q-4 37 -26 50q11 5 37 23q45 46 45 86q-73 18 -73 98q0 42 28 70.5t69 28.5q100 0 100 -119z" />
    <glyph glyph-name="guilsinglleft" unicode="&#x2039;" horiz-adv-x="338" 
d="M272 462q-73 -99 -73 -192q0 -143 72 -190l-17 -118q-124 98 -124 309q0 156 122 298z" />
    <glyph glyph-name="guilsinglright" unicode="&#x203a;" horiz-adv-x="375" 
d="M272 271q0 -211 -124 -309l-17 118q72 47 72 190q0 93 -73 192l20 107q122 -142 122 -298z" />
    <glyph glyph-name="uE820" unicode="&#xe820;" 
d="M434 1055l-22 -105l-370 -115l15 106z" />
    <glyph glyph-name="uE821" unicode="&#xe821;" 
d="M405 1070q0 -42 -48 -115l-74 31q-30 -36 -92 -76q-78 -52 -136 -52q-13 0 -28 79q132 34 181 104q-49 45 -49 111q0 64 34 122q41 67 99 67q91 0 91 -116q0 -69 -31 -131q13 -13 53 -24zM290 1130q20 29 20 58q0 61 -42 61q-33 0 -33 -53q0 -19 18 -39.5t37 -26.5z" />
    <glyph glyph-name="uE822" unicode="&#xe822;" 
d="M334 1032q0 -71 -35 -120q-39 -57 -106 -57q-149 0 -149 178q0 54 38 115q43 68 93 68q68 0 115 -59q44 -56 44 -125zM259 1017q-31 69 -99 69q-16 0 -31.5 -14.5t-15.5 -30.5q0 -48 58 -48q62 0 88 24z" />
    <glyph glyph-name="uE823" unicode="&#xe823;" 
d="M487 1068l-22 -107l-370 -113l14 105zM487 1259l-22 -107l-370 -113l14 106z" />
    <glyph glyph-name="uE824" unicode="&#xe824;" 
d="M434 1066q0 -42 -48 -115l-74 31q-30 -36 -91 -76q-79 -51 -137 -51q-13 0 -27 78q7 2 40 17q1 21 1 40q0 60 -34 60q-14 0 -33.5 -26.5t-21.5 -26.5q-24 0 -24 62q0 35 29 72t63 37q38 0 64 -33q23 -30 23 -71q0 -67 -9 -93q60 33 82 66q-49 46 -49 111t34 122
q41 68 99 68q91 0 91 -117q0 -69 -31 -131q13 -13 53 -24zM319 1126q20 30 20 59q0 60 -42 60q-33 0 -33 -53q0 -18 18 -39t37 -27z" />
    <glyph glyph-name="uE825" unicode="&#xe825;" 
d="M412 1043q0 -59 -31 -110q-35 -58 -91 -58q-44 0 -68 45q-38 -82 -102 -82q-42 0 -65 40q-20 34 -20 79q0 115 45 115q4 0 19.5 -49.5t46.5 -49.5q30 0 55.5 59.5t37.5 59.5q5 0 18.5 -45t30.5 -45q32 0 61.5 53t31.5 53q31 0 31 -65z" />
    <glyph glyph-name="uE826" unicode="&#xe826;" 
d="M403 -581l-22 -108l-372 -113l17 106z" />
    <glyph glyph-name="uE827" unicode="&#xe827;" 
d="M390 -747l-22 -108l-370 -113l15 106zM390 -556l-22 -107l-370 -113l15 105z" />
    <glyph glyph-name="uE828" unicode="&#xe828;" 
d="M423 1059q0 -58 -31 -109q-35 -59 -91 -59q-44 0 -68 46q-38 -82 -102 -82q-42 0 -66 40q-19 33 -19 78q0 115 45 115q4 0 19.5 -49t46.5 -49q30 0 55.5 59t37.5 59q5 0 18.5 -44.5t30.5 -44.5q32 0 61.5 53t31.5 53q31 0 31 -66zM441 1382l-22 -106l-370 -115l15 106z
" />
    <glyph glyph-name="uE829" unicode="&#xe829;" 
d="M423 1050q0 -59 -31 -110q-36 -60 -91 -60q-44 0 -68 48q-40 -82 -102 -82q-87 0 -87 116q0 117 47 117q3 0 19 -49t45 -49q30 0 56 59t39 59q3 0 17.5 -44.5t31.5 -44.5q32 0 61.5 52t31.5 52q31 0 31 -64zM379 1345q0 -36 -42 -104l-69 29q-31 -36 -82 -71
q-68 -45 -124 -45q-13 0 -26 71q119 31 164 95q-45 42 -45 100q0 60 31 111q37 62 91 62q82 0 82 -107q0 -61 -29 -119q11 -11 49 -22zM273 1400q19 27 19 55q0 54 -37 54q-31 0 -31 -49q0 -42 49 -60z" />
    <glyph glyph-name="uE82A" unicode="&#xe82a;" 
d="M423 1059q0 -58 -31 -110q-35 -60 -89 -60q-44 0 -70 48q-38 -82 -102 -82q-42 0 -65 39q-20 33 -20 78q0 116 45 116q4 0 20.5 -50t45.5 -50q30 0 55.5 59t37.5 59q5 0 18.5 -43.5t32.5 -43.5q32 0 61.5 52t31.5 52q29 0 29 -64zM399 1356l-20 -106l-372 -114l15 105z
M399 1547l-20 -105l-372 -115l15 106z" />
    <glyph glyph-name="uE82B" unicode="&#xe82b;" 
d="M437 1046q0 -58 -31 -109q-35 -58 -91 -58q-43 0 -67 45q-38 -82 -102 -82q-42 0 -66 40q-20 34 -20 79q0 114 46 114q4 0 19.5 -49t45.5 -49q31 0 56.5 59t36.5 59q6 0 19.5 -44.5t30.5 -44.5q32 0 61 53t31 53q31 0 31 -66zM417 1376q0 -42 -47 -115l-75 31
q-29 -36 -91 -76q-78 -51 -137 -51q-12 0 -27 78q7 2 40 16q2 22 2 41q0 60 -35 60q-13 0 -32.5 -26.5t-21.5 -26.5q-24 0 -24 62q0 35 29 72t62 37q39 0 63.5 -32t24.5 -72q0 -67 -9 -93q60 33 82 66q-50 46 -50 111t35 122q40 68 98 68q92 0 92 -117q0 -69 -31 -131
q12 -13 52 -24zM303 1436q20 29 20 59q0 60 -42 60q-33 0 -33 -53q0 -19 18 -39.5t37 -26.5z" />
    <glyph glyph-name="uE82C" unicode="&#xe82c;" 
d="M414 1227q0 -60 -31 -110q-36 -58 -91 -58q-44 0 -68 46q-40 -81 -104 -81q-85 0 -85 117q0 115 45 115q4 0 20.5 -49.5t45.5 -49.5q30 0 55.5 59.5t37.5 59.5q7 0 19.5 -44.5t31.5 -44.5q32 0 61.5 52.5t31.5 52.5q31 0 31 -65zM410 1023l-22 -101l-350 -107l13 98z" />
    <glyph glyph-name="uE82D" unicode="&#xe82d;" 
d="M419 1398q0 -59 -31 -110q-35 -58 -91 -58q-44 0 -67 46q-40 -82 -102 -82q-43 0 -68 40q-20 33 -20 78q0 115 47 115q3 0 19 -49t45 -49q30 0 56 59t39 59q5 0 18.5 -44.5t30.5 -44.5q33 0 62 53t31 53q31 0 31 -66zM417 1006l-20 -98l-348 -108l15 99zM417 1185
l-20 -99l-348 -107l15 98z" />
    <glyph glyph-name="glyph218" horiz-adv-x="1" 
d="M697 581l-53 -39q4 247 -5 247q-2 -1 -3 -5q13 15 49 56q3 3 5 3q7 0 7 -51v-211z" />
  </font>
</defs>
</svg>
