<?xml version="1.0" standalone="no"?>
<!DOCTYPE svg PUBLIC "-//W3C//DTD SVG 1.1//EN" "http://www.w3.org/Graphics/SVG/1.1/DTD/svg11.dtd" >
<svg>
<metadata>
Created by FontForge 20120731 at Fri Jul 15 08:41:47 2016
 By www-data
(c) 2000 Borna Rayaneh
</metadata>
<defs>
<font id="BNarm" horiz-adv-x="0" >
  <font-face 
    font-family="B Narm"
    font-weight="400"
    font-stretch="normal"
    units-per-em="2048"
    panose-1="0 0 4 0 0 0 0 0 0 0"
    ascent="1638"
    descent="-410"
    bbox="-244 -974 1891 2332"
    underline-thickness="60"
    underline-position="-650"
    unicode-range="U+0020-FEFC"
  />
<missing-glyph horiz-adv-x="1024" 
d="M128 0v1426h768v-1426h-768zM256 128h512v1170h-512v-1170z" />
    <glyph glyph-name="uE818" unicode="&#x651;&#x64b;" 
d="M388 2251q-15 -64 -59 -82l-266 -109q16 61 61 80zM388 2147q-10 -54 -47 -72l-280 -110q20 57 81 87zM393 1984q3 -60 -29 -109q-29 -45 -71 -45q-19 0 -35 8l-28 16q-33 -82 -99 -82q-35 0 -56 25.5t-18 67.5l2 27l4 31l27 18q9 -74 51 -74q53 0 83 126l21 6
q25 -69 55 -69q25 0 43 32q6 11 13 35l5 31l1 18l26 8l3 -30z" />
    <glyph glyph-name="uFC5E" unicode="&#x651;&#x64c;" arabic-form="isolated" 
d="M458 2065q0 -8 -7 -18l-43 11l-46 18q-73 -36 -114 -52q-37 -15 -83 -15h-23l-14 2l-17 4l-24 7q61 32 61 71q0 51 -47 51l-35 -6q23 72 68 72q26 0 42.5 -23t16.5 -49q0 -31 -16 -70l37 3q10 2 28 8q27 10 61 32q-50 36 -50 74q0 34 42.5 70.5t77.5 36.5q23 0 44 -24
t21 -47q0 -15 -7 -32l-17 -43q44 -25 44 -81zM432 1959q4 -66 -27 -116q-28 -43 -73 -43q-21 0 -68 23q-43 -80 -99 -80q-34 0 -55 29q-24 32 -21 70l3 37l6 21l13 33l19 2q0 -95 47 -95q43 0 81 129l18 2q17 -70 62 -70t70 105h19l4 -30zM375 2210q0 33 -29 39
q-11 0 -21 -6q-3 -3 -8 -17q0 -23 45 -53l8 16z" />
    <glyph glyph-name="uFC5F" unicode="&#x651;&#x64d;" arabic-form="isolated" 
d="M379 2199q5 -66 -26 -116q-26 -43 -73 -43q-31 0 -61 20q-5 -32 -35.5 -57t-62.5 -25q-78 0 -78 103q0 29 10 62l11 34l21 3q0 -105 38 -105q59 0 85 154l17 6q20 -93 55 -93q64 0 64 139l22 10l10 -51zM371 2041q-8 -38 -20 -53q-13 -19 -36 -29l-268 -121q28 71 81 95z
M371 1930q-13 -58 -62 -80l-262 -116q12 40 25 59q11 15 43 28z" />
    <glyph glyph-name="uFC60" unicode="&#x651;&#x64e;" arabic-form="isolated" 
d="M371 2252q-9 -54 -46 -72l-280 -111q20 57 81 88zM393 2041q3 -60 -29 -109q-29 -45 -71 -45q-19 0 -35 8l-28 16q-33 -82 -99 -82q-35 0 -56 25.5t-18 67.5l2 27l4 31l27 18q9 -74 51 -74q53 0 83 126l21 6q25 -69 55 -69q25 0 43 32q6 11 13 35l5 31l1 18l26 8l3 -30z
" />
    <glyph glyph-name="uFC61" unicode="&#x651;&#x64f;" arabic-form="isolated" 
d="M403 2088l-30 3l-19 5l-56 20q-120 -93 -175 -93q-24 0 -62 19q80 25 123 48l38 20l18 11l19 14q-19 15 -36 37q-10 19 -10 43q0 40 37 78.5t77 38.5q19 0 44.5 -22.5t25.5 -41.5q0 -44 -34 -84l33 -21l5 -14l2 -26v-35zM397 2047q0 -204 -103 -204q-39 0 -66 24
q-15 -35 -40 -55.5t-59 -20.5t-54 26q-23 29 -20 67l3 38q3 15 18 42l20 2q0 -78 45 -78q39 0 83 113l23 6q9 -64 51 -64q50 0 76 99zM335 2244q0 47 -41 47q-23 0 -23 -29q0 -15 10 -25l46 -34q8 23 8 41z" />
    <glyph glyph-name="uFC62" unicode="&#x651;&#x650;" arabic-form="isolated" 
d="M399 2085q5 -66 -26 -116q-26 -43 -73 -43q-19 0 -29 3l-16 6l-16 11q-5 -32 -35 -57t-63 -25q-34 0 -56 28t-22 75q0 29 10 62l11 34l21 3q0 -105 37 -105q56 0 86 154l17 6q21 -93 55 -93q64 0 64 139l22 10l10 -51zM391 1927q-8 -32 -20 -53l-14 -15l-22 -14
l-269 -121q17 41 31 58q16 21 51 37z" />
    <glyph glyph-name="uFDF2" unicode="&#xfedf;&#xfee0;&#xfeea;" horiz-adv-x="1905" arabic-form="isolated" 
d="M977 1137q-26 1 -32 31v161q0 5 13 16l10 2l17 4q40 0 40 -22v-116q0 -6 10 -12l21 -4l17 2q6 2 14 14v116q3 5 12 16l29 6q40 0 40 -22v-116q0 -6 9 -12l21 -4l17 2q10 3 14 14v116q0 5 13 16l27 6q13 0 28 -6q8 -3 11 -16v-161q0 -15 -14 -25q-4 -4 -27 -6l-28 -2h-46
q-13 0 -31 8q-21 6 -34 27l-17 -15l-27 -15l-18 -4l-26 -1h-24zM1328 468q0 -27 18 -41q13 -17 46 -22h70q45 0 74 23q42 28 39 79l-32 486q0 32 37 61q43 23 84 23q36 0 65.5 -28t35.5 -64l51 -829q0 -60 -47 -110l-26 -21l-27 -14q-24 -11 -61 -11h-213q-117 0 -149 53
q-6 -23 -49 -40q-49 -13 -101 -13h-432q-49 0 -86 38q-34 35 -46 94q-30 -55 -96 -97q-69 -45 -130 -45q-126 0 -203 118q-68 103 -68 235q0 141 98 250.5t214 106.5l35 -1q9 0 36 -8q5 0 14 -4l16 -7l16 -8q10 -4 17 -11v59q0 40 32 73q33 29 79 29q42 0 78 -29
q30 -23 33 -73l20 -254q3 -38 17 -49q9 -5 27 -9l47 -3h124q44 0 74 23q41 32 37 79l-30 414q-3 40 38 68q33 23 84 23q34 0 66.5 -31t32.5 -60zM548 425l-9 82q-46 24 -91 24q-34 0 -59.5 -15t-35.5 -50v-8q0 -23 29 -46q28 -18 70 -18q48 0 96 31z" />
    <glyph glyph-name="uFEF5" unicode="&#xfedf;&#xfe82;" horiz-adv-x="918" arabic-form="isolated" 
d="M41 1375l46 7l46 2l44 -2l42 -5l52 -2h21l28 4l23 3l30 9l15 2l11 2q30 0 43 -30q0 -14 -17 -32q-12 -13 -60 -27l-41 -6l-44 -3l-129 7h-30l-27 -3l-25 -3l-19 -5l-6 -1h-8q-40 0 -40 37q0 10 11 26l13 11zM498 1238q-4 48 30 92q31 40 81 40t86 -40.5t36 -91.5l91 -984
q0 -122 -99 -196q-90 -68 -216 -68q-127 0 -216 92q-79 82 -109 213l-24 110q14 -20 36 -30l20 -5l23 -3l30 3l25 4l76 16l15 -2l6 -6l5 -9q16 -43 62 -43q53 0 82 57q22 45 22 103v11l-1 27zM102 1111q0 32 6 51q3 18 23 44q30 38 83 38q51 0 88 -37q42 -42 47 -96l45 -543
q4 -46 -34 -91q-34 -41 -85 -41q-50 0 -89 38q-16 19 -25 42.5t-9 51.5z" />
    <glyph glyph-name="uFEF6" unicode="&#xfee0;&#xfe82;" horiz-adv-x="794" arabic-form="final" 
d="M41 1375l46 7l46 2l44 -2l42 -5l52 -2h21l28 4l23 3l30 9l15 2l11 2q30 0 43 -30q0 -14 -17 -32q-12 -13 -60 -27l-41 -6l-44 -3l-129 7h-30l-27 -3l-25 -3l-19 -5l-6 -1h-8q-40 0 -40 37q0 10 11 26l13 11zM498 1238q-4 48 30 92q31 40 81 40t86 -40.5t36 -91.5l91 -984
q0 -122 -99 -196q-90 -68 -216 -68q-127 0 -216 92q-79 82 -109 213l-24 110q14 -20 36 -30l20 -5l23 -3l30 3l25 4l76 16l15 -2l6 -6l5 -9q16 -43 62 -43q53 0 82 57q22 45 22 103v11l-1 27zM102 1111q0 32 6 51q3 18 23 44q30 38 83 38q51 0 88 -37q42 -42 47 -96l45 -543
q4 -46 -34 -91q-34 -41 -85 -41q-50 0 -89 38q-16 19 -25 42.5t-9 51.5z" />
    <glyph glyph-name="uFEF7" unicode="&#xfedf;&#xfe84;" horiz-adv-x="918" arabic-form="isolated" 
d="M254 1298l-18 -2q-9 0 -22 -13q-15 -8 -17 -28q0 -13 14 -27t36 -14q10 0 25 9l16 12q6 7 17 9l10 -13l2 -16l1 -17v-78q0 -12 -19 -22l-24 -5l-28 -1h-104q-24 0 -52.5 23.5t-28.5 46.5v61l1 17l11 7l11 -4l14 -14q5 -11 22 -11q10 0 18 5q-15 8 -20 27l-6 19l-2 24
q-3 38 28 69q28 29 70 29q63 0 96 -63l1 -14q1 -10 -7 -18l-20 -11l-13 9zM498 1238q-4 48 30 92q31 40 81 40t86 -40.5t36 -91.5l91 -984q0 -122 -99 -196q-90 -68 -216 -68q-127 0 -216 92q-79 82 -109 213l-24 110q14 -20 36 -30l20 -5l23 -3l30 3l25 4l76 16l15 -2l6 -6
l5 -9q16 -43 62 -43q53 0 82 57q22 45 22 103v11l-1 27zM111 910q0 38 5 53l7 22l13 23q26 45 78 45t95.5 -42t43.5 -93l41 -350q0 -52 -33 -91q-36 -41 -86 -41t-89 38q-16 19 -25 42.5t-9 51.5z" />
    <glyph glyph-name="uFEF8" unicode="&#xfee0;&#xfe84;" horiz-adv-x="794" arabic-form="final" 
d="M254 1298l-18 -2q-9 0 -22 -13q-15 -8 -17 -28q0 -13 14 -27t36 -14q10 0 25 9l16 12l8 8l7 1q5 0 10 -13l5 -33v-78q0 -12 -19 -22l-24 -5l-28 -1h-104q-24 0 -52.5 23.5t-28.5 46.5v61l1 17l11 7l11 -4l14 -14q5 -11 22 -11q10 0 18 5q-15 8 -20 27l-6 19l-2 24
q-3 38 28 69q28 29 70 29q63 0 96 -63l1 -14q1 -10 -7 -18l-20 -11l-13 9zM498 1238q-4 48 30 92q31 40 81 40t86 -40.5t36 -91.5l91 -984q0 -122 -99 -196q-90 -68 -216 -68q-127 0 -216 92q-79 82 -109 213l-24 110q14 -20 36 -30l20 -5l23 -3l30 3l25 4l76 16l15 -2l6 -6
l5 -9q16 -43 62 -43q53 0 82 57q22 45 22 103v11l-1 27zM111 910q0 38 5 53l7 22l13 23q26 45 78 45t95.5 -42t43.5 -93l41 -350q0 -52 -33 -91q-36 -41 -86 -41t-89 38q-16 19 -25 42.5t-9 51.5z" />
    <glyph glyph-name="uFEF9" unicode="&#xfedf;&#xfe88;" horiz-adv-x="918" arabic-form="isolated" 
d="M498 1238q-4 48 30 92q31 40 81 40t86 -40.5t36 -91.5l91 -984q0 -122 -99 -196q-90 -68 -216 -68q-127 0 -216 92q-79 82 -109 213l-24 110q14 -20 36 -30l20 -5l23 -3l30 3l25 4l76 16l15 -2l6 -6l5 -9q16 -43 62 -43q53 0 82 57q22 45 22 103v11l-1 27zM91 1229
q0 52 33 91t90 39q75 0 111 -80l6 -24l2 -26l61 -661q0 -52 -33 -91q-36 -41 -86 -41t-89 38q-16 19 -25 42.5t-9 51.5zM371 -133q-18 0 -40 -14q-15 -12 -18 -31q0 -16 16.5 -28t33.5 -12q14 0 25 7q6 2 17 12l9 7l6 3q7 0 11 -15l5 -33v-76q0 -8 -20 -21l-22 -6l-31 -1
h-99q-25 0 -55.5 24t-30.5 48v55l3 19q6 6 14 7l10 -5q7 -3 12 -13l8 -6l17 -5h9l5 3l-18 30q-9 21 -9 42q0 40 26 72q26 26 74 26q28 0 54 -14l15 -11l8 -8l18 -31l1 -11q0 -12 -8 -20l-18 -9l-13 9z" />
    <glyph glyph-name="uFEFA" unicode="&#xfee0;&#xfe88;" horiz-adv-x="794" arabic-form="final" 
d="M498 1238q-4 48 30 92q31 40 81 40t86 -40.5t36 -91.5l91 -984q0 -122 -99 -196q-90 -68 -216 -68q-127 0 -216 92q-79 82 -109 213l-24 110q14 -20 36 -30l20 -5l23 -3l30 3l25 4l76 16l15 -2l6 -6l5 -9q16 -43 62 -43q53 0 82 57q22 45 22 103v11l-1 27zM91 1229
q0 52 33 91t90 39q75 0 111 -80l6 -24l2 -26l61 -661q0 -52 -33 -91q-36 -41 -86 -41t-89 38q-16 19 -25 42.5t-9 51.5zM390 -134q-18 0 -40 -14q-15 -12 -18 -31q0 -16 16.5 -28t33.5 -12q14 0 25 7q6 3 16 13l16 9q7 0 11 -15l5 -33v-76q0 -8 -20 -21l-22 -6l-31 -1h-99
q-25 0 -55.5 24t-30.5 48v55l3 19q6 6 14 7l10 -5q7 -3 12 -13l8 -6l17 -5h9l5 3l-18 30q-9 21 -9 42q0 40 26 72q26 26 74 26q28 0 54 -14l15 -11l8 -8l18 -31l1 -11q0 -12 -8 -20l-18 -9l-13 9z" />
    <glyph glyph-name="uFEFB" unicode="&#xfedf;&#xfe8e;" horiz-adv-x="918" arabic-form="isolated" 
d="M498 1238q-4 48 30 92q31 40 81 40t86 -40.5t36 -91.5l91 -984q0 -122 -99 -196q-90 -68 -216 -68q-127 0 -216 92q-79 82 -109 213l-24 110q14 -20 36 -30l20 -5l23 -3l30 3l25 4l76 16l15 -2l6 -6l5 -9q16 -43 62 -43q53 0 82 57q22 45 22 103v11l-1 27zM91 1229
q0 52 33 91t90 39q75 0 111 -80l6 -24l2 -26l61 -661q0 -52 -33 -91q-36 -41 -86 -41t-89 38q-16 19 -25 42.5t-9 51.5z" />
    <glyph glyph-name="uFEFC" unicode="&#xfee0;&#xfe8e;" horiz-adv-x="794" arabic-form="final" 
d="M498 1238q-4 48 30 92q31 40 81 40t86 -40.5t36 -91.5l91 -984q0 -122 -99 -196q-90 -68 -216 -68q-127 0 -216 92q-79 82 -109 213l-24 110q14 -20 36 -30l20 -5l23 -3l30 3l25 4l76 16l15 -2l6 -6l5 -9q16 -43 62 -43q53 0 82 57q22 45 22 103v11l-1 27zM91 1229
q0 52 33 91t90 39q75 0 111 -80l6 -24l2 -26l61 -661q0 -52 -33 -91q-36 -41 -86 -41t-89 38q-16 19 -25 42.5t-9 51.5z" />
    <glyph glyph-name="u0652_u064E.liga" unicode="&#x652;&#x64e;" horiz-adv-x="1" 
d="M180 1120q0 -27 -27 -49q-16 -14 -22 -14t-6 17q0 76 -66 371l89 34q12 4 16 4t5 -7q11 -86 11 -356z" />
    <glyph glyph-name="u0652_u064B.liga" unicode="&#x652;&#x64b;" horiz-adv-x="1" 
d="M194 1287q40 0 70.5 -25t30.5 -64q0 -41 -29.5 -66t-71.5 -25q-103 0 -103 91q0 41 32 66q29 23 71 23zM436 1287q41 0 72 -24.5t31 -64.5q0 -42 -30.5 -66.5t-72.5 -24.5t-72.5 25t-30.5 66q0 31 26 62q30 27 77 27z" />
    <glyph glyph-name="u0652_u064D.liga" unicode="&#x652;&#x64d;" horiz-adv-x="1" 
d="M489 -462q43 4 72.5 -26t29.5 -76q0 -103 -102 -103q-44 0 -73.5 29t-29.5 74q0 47 28 75q11 10 34 21l19 4zM854 -564q0 -103 -103 -103q-99 0 -99 103q0 44 26 75q15 11 34 21q23 6 39 6q103 0 103 -102z" />
    <glyph glyph-name="u0622" unicode="&#x622;" horiz-adv-x="563" arabic-form="isolated" 
d="M362 1287l71 -1176q2 -36 -25 -70q-32 -41 -87 -41q-43 0 -85 26q-36 27 -37 65l-60 1186q-2 29 28 68l15 15l17 11l12 5l27 3l19 -1q11 0 21 -4l38 -16q43 -25 46 -71zM123 1544l86 -8l50 -2h22l25 4q10 0 27 5l29 7l13 2l13 1q20 2 31 -9q8 -6 12 -21q0 -13 -19 -32
q-21 -13 -46 -22l-50 -11l-47 -2l-80 5l-50 4l-27 -1l-23 -2l-28 -5l-21 -4l-9 -1h-7q-29 0 -39 35q0 7 11 26q9 12 32 21l49 7z" />
    <glyph glyph-name="u0623" unicode="&#x623;" horiz-adv-x="563" arabic-form="isolated" 
d="M313 1293q-21 0 -38 -13l-12 -14l-7 -19q0 -14 15 -25l13 -8l25 -5q11 0 24 6l16 14l14 10q6 0 12 -14l4 -33v-81q0 -11 -17 -19l-21 -3l-32 -2h-103q-26 0 -54 22t-31 48v57l2 17q5 8 10 9q9 0 11 -4l14 -13q4 -13 26 -13h8l7 4l-11 16l-7 14q-8 27 -8 41q0 38 26 73
q32 26 70 26q74 0 94 -65l4 -13q0 -12 -4 -18t-22 -11l-15 10zM238 1047q39 0 78 -22q43 -23 46 -69l71 -967q3 -37 -25 -72q-32 -40 -87 -40q-45 0 -82 25q-32 23 -40 66l-60 984q0 37 31 66t68 29z" />
    <glyph glyph-name="u0624" unicode="&#x624;" horiz-adv-x="954" arabic-form="isolated" 
d="M551 -102q29 51 29 103v12q0 23 -9 37q-5 12 -15 12q-5 -3 -13 -8q-13 -8 -34 -24q-41 -30 -61 -30q-144 0 -242 127q-92 118 -92 267q0 155 88 275q97 131 246 131q97 0 190 -77q78 -64 137 -188t58 -230l-4 -306l-7 -88l-6 -45l-6 -37q-1 -12 -7 -36q-3 -19 -10 -34
q-9 -32 -25 -59l-18 -28l-21 -27q-15 -18 -42 -39l-31 -19l-23 -12l-17 -4l-19 -3q-57 0 -113 58t-56 112q0 31 20 48l62 53q25 22 41 59zM593 280v12l-1 13q-6 21 -15 38l-2 6q-4 11 -11 17l-7 14l-9 13l-7 14l-12 13q-50 58 -105 58q-20 0 -25 -2q-9 -1 -23 -10
q-16 -13 -23 -33l-4 -22l-3 -23q0 -23 2 -27l10 -32q20 -45 69 -56l38 -4q39 0 61 -14q12 -10 25 -41q0 4 28 30q14 13 14 36zM406 1150q0 -15 10 -29q20 -29 61 -29q26 0 36 9l11 9l13 12q5 9 19 14q21 0 21 -65v-112q0 -42 -100 -42h-142q-39 0 -80.5 35t-41.5 67v82
q0 37 24 37q5 0 26 -27l15 -12l22 -6q13 0 25 8l-14 19l-16 25q-11 27 -11 56q0 92 85 130q27 12 57 12q43 0 80 -22q31 -21 50 -71l4 -15q0 -18 -10 -31l-24 -13l-21 14l-17 6q-25 0 -52 -17q-30 -20 -30 -44z" />
    <glyph glyph-name="u0625" unicode="&#x625;" horiz-adv-x="563" arabic-form="isolated" 
d="M238 1379l19 -1q11 0 21 -4l38 -16q43 -25 46 -71l71 -1176q2 -36 -25 -70q-32 -41 -87 -41q-43 0 -85 26q-36 27 -37 65l-60 1186q-2 29 28 68l15 15l17 11l12 5zM371 -133q-18 0 -40 -14q-15 -12 -18 -31q0 -16 16.5 -28t33.5 -12q14 0 25 7q6 2 17 12l14 10
q6 0 12 -12l4 -20l1 -16v-76q0 -8 -20 -21l-22 -6l-31 -1h-99q-25 0 -55.5 24t-30.5 48v55q0 13 2 15l14 11l10 -5l13 -13l9 -8l15 -3h9l6 3l-18 30q-9 21 -9 42q0 40 26 72q26 26 74 26q28 0 54 -14l15 -11l8 -8l18 -31l1 -11q0 -12 -8 -20l-18 -9l-13 9z" />
    <glyph glyph-name="u0626" unicode="&#x626;" horiz-adv-x="1286" arabic-form="isolated" 
d="M516 962q-27 0 -52 -16q-30 -18 -30 -43q0 -21 21 -43q22 -17 51 -17q14 0 35 11l14 10l7 8q9 10 21 15q5 0 16 -20l4 -21l3 -24v-111q0 -20 -27 -33l-31 -5l-23 -3h-161q-40 0 -81.5 35.5t-41.5 65.5v81q0 11 6 25q3 8 14 12l15 -6l8 -8l9 -14l13 -11l22 -5q16 0 26 7
q-8 9 -30 43l-10 27l-2 31q0 60 40.5 100.5t101.5 40.5q45 0 80 -23q32 -22 51 -69l4 -15q0 -11 -11 -28q-11 -12 -24 -15l-21 13zM958 222q63 0 116 -24q43 -20 69 -52q49 -59 49 -177q0 -168 -191 -257q-148 -68 -337 -68q-216 0 -363 107q-139 101 -147 252l-17 308
q-3 50 27 84q28 31 85 31q48 0 84 -36q33 -32 36 -86l10 -226q3 -69 92 -107l41 -12l57 -9q34 -6 101 -6q99 0 175 14q62 30 62 69q0 21 -32 31l-60 18l-36 12l-26 13q-82 39 -115 70q-49 46 -49 100q0 16 5 33q37 136 198 224q144 79 298 79q37 -5 52 -10.5t38 -21.5
q35 -25 35 -66l-3 -13q-25 -118 -61 -118l-9 1l-10 7l-42 15l-48 8l-10 -1l-13 -2l-38 -10q-20 -5 -41 -17q-20 -8 -39 -22l-27 -19l-19 -14q-14 -25 -14 -41q0 -18 22 -34l15 -8l21 -6z" />
    <glyph glyph-name="u0627" unicode="&#x627;" horiz-adv-x="563" arabic-form="isolated" 
d="M238 1379l19 -1q11 0 21 -4l38 -16q43 -25 46 -71l71 -1176q2 -36 -25 -70q-32 -41 -87 -41q-43 0 -85 26q-36 27 -37 65l-60 1186q-2 29 28 68l15 15l17 11l12 5z" />
    <glyph glyph-name="u0628" unicode="&#x628;" horiz-adv-x="1519" arabic-form="isolated" 
d="M218 405h870q40 0 62 50q7 15 7 33l-20 192q0 51 35 85.5t86 34.5q87 0 115 -71l5 -21l5 -28l30 -517q3 -60 -58.5 -111.5t-147.5 -51.5h-909q-37 0 -65 11l-35 15l-16 7l-16 12q-70 49 -70 97v304l22 -15l30 -14l32 -9zM766 -102q44 0 71.5 -26t27.5 -66q0 -90 -99 -90
q-39 0 -73 26q-29 25 -29 64q0 41 29 68q28 24 73 24z" />
    <glyph glyph-name="u0629" unicode="&#x629;" horiz-adv-x="846" arabic-form="isolated" 
d="M111 446q0 52 37 92q33 27 78 27l25 -3l13 -3q38 -11 52 -56l13 -38l14 -32q12 -16 25 -26l14 -7l22 -2q31 -3 64 24q30 24 30 48v7q-15 67 -65.5 106t-114.5 39q-49 0 -95 -23l-19 -9l-22 -2q-42 -4 -76.5 38t-32.5 85l1 21q5 17 8 18q23 58 78 90q27 16 104 36l45 5
l54 1h31q68 0 159 -64q96 -68 156 -184q72 -141 72 -291q0 -343 -325 -343q-229 0 -316 269q-29 87 -29 177zM461 1247q-27 0 -53 -16q-29 -18 -29 -43q0 -21 21 -43q22 -17 51 -17q13 0 35 11q10 5 22 17q8 11 22 16q5 0 13 -16l7 -23l1 -26v-111q0 -20 -28 -33l-30 -5
l-23 -3h-161q-40 0 -81.5 35.5t-41.5 65.5v81q0 37 23 37q6 0 28 -26q6 -9 14 -13l24 -5q11 0 24 7q-9 9 -30 43l-10 27l-3 31q0 60 41 100.5t102 40.5q45 0 80 -23q32 -22 51 -69l4 -16q0 -12 -12 -29q-7 -8 -23 -13l-21 13z" />
    <glyph glyph-name="u062A" unicode="&#x62a;" horiz-adv-x="1547" arabic-form="isolated" 
d="M643 972q46 0 76 -27l9 -12l10 -16q8 -15 8 -36q0 -42 -30 -67.5t-73 -25.5q-100 0 -100 93q0 37 28 64q8 8 30 19l16 5zM888 962q40 0 71.5 -27t31.5 -66q0 -34 -29 -65l-13 -9l-20 -10l-19 -5l-22 -2q-35 -3 -73 26q-28 28 -28 65q0 39 31 66t70 27zM246 405h869
q41 0 63 50q7 15 7 33l-20 192q0 51 35 85.5t85 34.5q87 0 115 -71l6 -21l5 -28l29 -517q4 -60 -60 -113q-60 -50 -145 -50h-909q-38 0 -66 11l-35 15l-15 7l-16 12q-71 49 -71 97v304l55 -29l37 -10z" />
    <glyph glyph-name="u062B" unicode="&#x62b;" horiz-adv-x="1532" arabic-form="isolated" 
d="M767 1172q42 0 76 -29q25 -23 25 -61q0 -36 -29 -65q-27 -25 -72 -25q-41 0 -75 25q-29 26 -29 65q0 40 31 65t73 25zM643 972q46 0 76 -27l9 -12l10 -16q8 -15 8 -36q0 -42 -30 -67.5t-73 -25.5q-100 0 -100 93q0 37 28 64q8 8 30 19l16 5zM888 962q40 0 71.5 -27
t31.5 -66q0 -34 -29 -65l-13 -9l-20 -10l-19 -5l-22 -2q-35 -3 -73 26q-28 28 -28 65q0 39 31 66t70 27zM246 405h869q41 0 63 50q7 15 7 33l-20 192q0 51 35 85.5t85 34.5q87 0 115 -71l6 -21l5 -28l29 -517q4 -60 -60 -113q-60 -50 -145 -50h-909q-38 0 -66 11l-35 15
l-15 7l-16 12q-71 49 -71 97v304l22 -15l31 -14l32 -9z" />
    <glyph glyph-name="u062C" unicode="&#x62c;" horiz-adv-x="1042" arabic-form="isolated" 
d="M390 800q87 0 159 -22q45 -14 66 -29q33 -15 62 -49q62 -47 120 -135q63 -95 71 -160h94v-294q-6 -48 -56 -81q-46 -30 -98 -30h-365q-54 0 -54 -54q0 -20 15 -42q14 -18 39 -25l58 -16l34 -15q12 -3 18 -10l18 -24l9 -24l4 -28l-2 -21q0 -12 -6 -25q-12 -36 -51 -62
q-26 -17 -73 -17q-127 0 -211 58q-73 51 -116 147q-36 83 -36 189q0 289 281 374h216l2 6l2 13q0 35 -37 75q-33 35 -69 49l-25 3h-8q-46 0 -90 -19q-35 -11 -80 -44l-10 -4l-15 -2q-35 0 -68 24q-29 22 -49 62v10l-1 11q-6 69 80 142q79 69 172 69zM728 -111q99 0 99 -93
q0 -38 -27 -64q-30 -27 -72 -27t-71.5 25t-29.5 66t29.5 67t71.5 26z" />
    <glyph glyph-name="u062D" unicode="&#x62d;" horiz-adv-x="1083" arabic-form="isolated" 
d="M418 800q86 0 159 -22q45 -14 65 -29q33 -15 63 -49q61 -47 120 -135q62 -95 71 -160h94v-294q-7 -48 -57 -81q-46 -30 -97 -30h-366q-53 0 -53 -54q0 -20 14 -42q15 -18 39 -25l58 -16l34 -15q13 -3 18 -10l18 -24l10 -24l4 -28l-2 -21q0 -12 -7 -25q-11 -36 -50 -62
q-27 -17 -73 -17q-128 0 -211 58q-74 51 -116 147q-36 83 -36 189q0 289 281 374h216l2 6l1 13q0 35 -36 75q-33 35 -70 49l-25 3h-7q-47 0 -90 -19q-36 -11 -80 -44l-11 -4l-14 -2q-35 0 -66.5 23t-51.5 63v10l-1 11q-5 69 80 142q80 69 173 69z" />
    <glyph glyph-name="u062E" unicode="&#x62e;" horiz-adv-x="1083" arabic-form="isolated" 
d="M511 1177q31 0 42 -7q14 -2 32 -19q29 -26 29 -64q0 -91 -103 -91q-28 0 -40 2l-14 6l-22 17q-27 27 -27 66q0 40 31 65t72 25zM418 800q86 0 159 -22q45 -14 65 -29q33 -15 63 -49q61 -47 120 -135q62 -95 71 -160h94v-294q-7 -48 -57 -81q-46 -30 -97 -30h-366
q-53 0 -53 -54q0 -20 14 -42q15 -18 39 -25l58 -16l34 -15q13 -3 18 -10l18 -24l10 -24l4 -28l-2 -21q0 -12 -7 -25q-11 -36 -50 -62q-27 -17 -73 -17q-128 0 -211 58q-74 51 -116 147q-36 83 -36 189q0 289 281 374h216l2 6l1 13q0 35 -36 75q-33 35 -70 49l-25 3h-7
q-47 0 -90 -19q-36 -11 -80 -44l-11 -4l-14 -2q-35 0 -66.5 23t-51.5 63v10l-1 11q-5 69 80 142q80 69 173 69z" />
    <glyph glyph-name="u062F" unicode="&#x62f;" horiz-adv-x="885" arabic-form="isolated" 
d="M187 671q12 70 66 106q61 39 131 35l34 -2q90 -5 193 -110q88 -90 144 -225q58 -142 58 -264q0 -54 -7 -79q-32 -105 -162 -132h-375q-57 0 -104.5 51t-47.5 112v242h426q0 53 -48 110l-23 26l-25 24q-20 20 -49 34l-9 1q-11 0 -28 -10q-35 -22 -52 -22q-51 0 -89 29
q-33 25 -33 74z" />
    <glyph glyph-name="u0630" unicode="&#x630;" horiz-adv-x="858" arabic-form="isolated" 
d="M401 1177q16 0 21.5 -1t13.5 -6q14 -2 30 -19q28 -27 28 -64q0 -40 -26.5 -65.5t-66.5 -25.5q-32 0 -64 25q-25 31 -25 66q0 33 25 64q28 26 64 26zM160 671q11 70 66 106q60 39 130 35l34 -2q91 -5 193 -110q92 -94 146 -224q57 -138 57 -262v-33l-2 -11q0 -18 -6 -38
q-29 -104 -161 -132h-376q-56 0 -104 51t-48 112v242h427q0 53 -49 110l-22 26l-25 24q-21 20 -50 34l-9 1q-11 0 -28 -10q-34 -22 -52 -22q-51 0 -88 29q-33 25 -33 74z" />
    <glyph glyph-name="u0631" unicode="&#x631;" horiz-adv-x="569" arabic-form="isolated" 
d="M123 -132q23 12 38 24l37 27q47 46 47 90l-64 716q0 49 41 90l9 7l10 6l23 15l25 5l26 3q45 0 87 -40q28 -34 33 -100l62 -813q7 -90 -85 -183q-77 -78 -157 -78h-9q-55 0 -105 64q-47 60 -47 117q0 35 29 50z" />
    <glyph glyph-name="u0632" unicode="&#x632;" horiz-adv-x="611" arabic-form="isolated" 
d="M326 1229q46 0 78 -30q32 -25 32 -71t-32 -74.5t-78 -28.5t-80 29q-31 26 -31 74q0 43 33.5 72t77.5 29zM164 -132q21 10 39 24l36 27q48 46 48 90l-64 716q0 51 41 88q29 27 67 35q13 3 26 3q45 0 87 -40q28 -34 33 -100l62 -813q7 -90 -85 -183q-77 -78 -158 -78h-7
q-52 0 -102.5 63t-50.5 116q0 41 28 52z" />
    <glyph glyph-name="u0633" unicode="&#x633;" horiz-adv-x="1868" arabic-form="isolated" 
d="M1769 182q3 -68 -59 -132q-59 -60 -145 -60q-81 0 -140 51.5t-75 131.5q0 -78 -61.5 -136t-139.5 -58q-80 0 -143 57.5t-63 136.5v-194q0 -170 -117.5 -287t-286.5 -117q-166 0 -280.5 119t-114.5 285v296q0 54 34 97t87 43q54 0 88.5 -42.5t34.5 -97.5v-164
q0 -64 48 -108t113 -44q68 0 116 45q52 49 47 107l-40 550q-4 55 33 100q32 39 88 39q65 0 100 -59q18 -31 21 -80l9 -163q3 -40 28 -66.5t66 -26.5q37 0 65 26t26 67l-10 163q-3 59 30 101q30 38 82 38q51 0 86 -40q31 -36 34 -99l9 -173q2 -22 5.5 -35.5t21.5 -31.5
q32 -27 67 -27q39 0 65.5 27.5t26.5 66.5l-21 173q0 59 31 97q34 42 91 42q52 0 85 -39t36 -100z" />
    <glyph glyph-name="u0634" unicode="&#x634;" horiz-adv-x="1826" arabic-form="isolated" 
d="M1196 1287q40 0 71 -25t31 -64q0 -34 -29 -66q-28 -25 -73 -25q-41 0 -72 25t-31 66q0 39 28.5 64t74.5 25zM1064 1077q43 0 72 -28t29 -64q0 -41 -30 -67t-71 -26q-40 0 -74 26q-30 26 -30 67q0 37 31 64.5t73 27.5zM1325 1077q45 0 74 -27t29 -65q0 -35 -29 -66
q-29 -27 -74 -27q-100 0 -100 93q0 34 28 65q32 27 72 27zM1755 182q3 -68 -59 -132q-59 -60 -146 -60q-81 0 -140 51.5t-74 131.5q0 -78 -61.5 -136t-140.5 -58t-142 57.5t-63 136.5v-194q0 -170 -117.5 -287t-287.5 -117q-165 0 -279.5 119t-114.5 285v296q0 54 34 97
t87 43q54 0 88 -42.5t34 -97.5v-164q0 -64 48.5 -108t113.5 -44q67 0 115 45q53 49 48 107l-41 550q-4 55 34 100q32 39 88 39q65 0 100 -59q18 -31 21 -80l9 -163q2 -40 27.5 -66.5t66.5 -26.5q36 0 64.5 26t25.5 67l-9 163q-3 59 30 101q30 38 82 38q51 0 86 -40
q30 -36 34 -99l9 -173q1 -22 5 -35.5t22 -31.5q32 -27 66 -27q39 0 65.5 27.5t26.5 66.5l-20 173q0 59 31 97q34 42 91 42q51 0 86 -40q32 -38 35 -99z" />
    <glyph glyph-name="u0635" unicode="&#x635;" horiz-adv-x="1975" arabic-form="isolated" 
d="M929 0q0 -175 -114 -298q-117 -127 -291 -127q-165 0 -279.5 119t-114.5 285v296q0 54 34 97t87 43q54 0 88 -42.5t34 -97.5v-164q0 -64 48.5 -108t113.5 -44q67 0 115 45q53 49 48 107l-41 550q-4 55 34 100q32 39 88 39q65 0 100 -59q18 -31 21 -80l9 -163
q134 137 291 222q167 90 300 90q179 0 280 -176q84 -146 84 -339q0 -187 -50 -247q-41 -48 -171 -48h-714zM1103 405h509q-13 75 -62 117l-40 21l-23 9l-28 7l-58 3q-89 0 -168 -40l-34 -24l-32 -26q-24 -18 -64 -67z" />
    <glyph glyph-name="u0636" unicode="&#x636;" horiz-adv-x="1999" arabic-form="isolated" 
d="M1284 1287q43 0 72 -24q11 -10 20 -29l5 -16l2 -20q0 -91 -99 -91q-39 0 -73 25q-28 26 -28 66q0 36 28 65q25 24 73 24zM957 0q0 -175 -114 -298q-117 -127 -291 -127q-166 0 -280 119t-114 285v296q0 54 33.5 97t86.5 43q54 0 90 -44q33 -41 33 -96v-164q0 -64 48 -108
t113 -44q68 0 116 45q52 49 48 107l-41 550q-4 55 33 100q33 39 89 39q65 0 99 -59q18 -31 21 -80l10 -163q133 137 290 222q167 90 301 90q179 0 280 -176q83 -146 83 -339q0 -187 -50 -247q-41 -48 -170 -48h-714zM1130 405h510q-14 75 -62 117l-40 21l-24 9l-27 7l-58 3
q-90 0 -168 -40l-35 -24l-32 -26q-23 -18 -64 -67z" />
    <glyph glyph-name="u0637" unicode="&#x637;" horiz-adv-x="1597" arabic-form="isolated" 
d="M249 405h190l-41 903q-1 27 32 49t71 22l5 1h11q38 0 71 -24t35 -58l41 -699q257 223 509 223q86 0 167 -85q76 -78 122 -217q30 -88 35 -187l11 -181q2 -44 -62 -98t-134 -54h-982q-77 0 -131 32q-62 38 -62 110v294l9 -5l28 -14l37 -9zM674 405h590q-19 88 -72 134
q-48 41 -127 41h-12l-13 -1q-29 -1 -86 -12l-44 -14q-16 -5 -45 -19l-49 -24l-21 -11l-31 -20q-42 -27 -90 -74z" />
    <glyph glyph-name="u0638" unicode="&#x638;" horiz-adv-x="1624" arabic-form="isolated" 
d="M249 405h190l-41 903q-1 27 32 49t71 22l5 1h11q38 0 71 -24t35 -58l41 -699q257 223 509 223q86 0 167 -85q76 -78 122 -218q30 -87 35 -186l11 -181q2 -44 -62 -98t-134 -54h-982q-77 0 -131 32q-62 38 -62 110v294l9 -5l28 -14l37 -9zM674 405h590q-19 88 -72 134
q-48 41 -127 41h-12l-13 -1q-29 -1 -86 -12l-44 -14q-16 -5 -45 -19l-49 -24l-21 -11l-31 -20q-42 -27 -90 -74zM916 1298q103 0 103 -100q0 -44 -29.5 -73t-73.5 -29q-40 0 -73 29q-27 32 -27 73q0 42 27 71t73 29z" />
    <glyph glyph-name="u0639" unicode="&#x639;" horiz-adv-x="978" arabic-form="isolated" 
d="M837 639q-26 -41 -83 -41l-24 2l-12 2l-13 6l-13 7l-18 7q-41 17 -59 17h-26l-27 -2q-28 -2 -40 -7q-59 -19 -63 -71l-1 -13q-4 -46 37.5 -93.5t88.5 -47.5h232q15 0 30 6l31 14v-304q0 -43 -49 -82t-93 -39h-245q-25 0 -44 -21q-10 -15 -16 -46q0 -28 29 -44l63 -16
l81 -15q64 -12 64 -100v-10l-3 -12q-13 -99 -132 -99q-160 0 -262 71q-116 81 -133 242l-3 26v8q0 199 176 311q-48 41 -82 109q-39 76 -39 168v28l4 35q3 28 15 64q22 67 70 132q107 107 254 107q111 0 215.5 -68t104.5 -167q0 -24 -15 -64z" />
    <glyph glyph-name="u063A" unicode="&#x63a;" horiz-adv-x="992" arabic-form="isolated" 
d="M514 1285q100 0 100 -102q0 -101 -100 -101h-29l-18 6l-14 6l-14 15q-29 28 -29 74q0 48 29 74q26 28 75 28zM851 639q-26 -41 -82 -41l-25 2l-12 2l-13 6l-13 7l-18 7q-41 17 -59 17h-26l-26 -2q-28 -2 -40 -7q-60 -19 -64 -71l-1 -13q-3 -46 38.5 -93.5t87.5 -47.5h232
q15 0 31 6l30 14v-304q0 -43 -49 -82t-92 -39h-246q-25 0 -43 -21q-11 -15 -16 -46q0 -28 28 -44l64 -16l80 -15q64 -12 64 -100v-10l-3 -12q-13 -99 -132 -99q-160 0 -262 71q-116 81 -133 242l-3 26v8q0 199 176 311q-47 41 -82 109q-39 76 -39 168v28l4 35q3 28 15 64
q22 67 71 132q106 107 253 107q111 0 215.5 -68t104.5 -167q0 -24 -15 -64z" />
    <glyph glyph-name="u0641" unicode="&#x641;" horiz-adv-x="1587" arabic-form="isolated" 
d="M1071 1267q24 2 41 -4q13 -3 37 -21q34 -27 34 -65q0 -37 -33 -65q-29 -25 -79 -25q-49 0 -81 24.5t-32 65.5q0 37 32 63q17 13 32 18l25 7zM1467 142q0 -49 -61.5 -95.5t-112.5 -46.5h-974q-63 0 -132.5 45t-69.5 97v304l27 -17l27 -13q34 -11 66 -11h731l-70 100
l-20 34q-23 38 -23 79q0 113 77 188.5t189 75.5q114 0 225 -123q99 -110 111 -282l9 -119l4 -185zM1151 618q-26 0 -40.5 -12.5t-14.5 -33.5q0 -31 46 -74l-1 -13l-3 -33q-1 -18 9 -44q10 -14 36 -14q42 0 64 17q26 18 23 53l-1 13l-5 30q-5 36 -41 73.5t-72 37.5z" />
    <glyph glyph-name="u0642" unicode="&#x642;" horiz-adv-x="1166" arabic-form="isolated" 
d="M594 1219q50 0 86 -31.5t36 -80.5q0 -46 -36.5 -79.5t-85.5 -31.5l-28 1q-32 1 -64 32.5t-32 77.5q0 49 37 80.5t87 31.5zM877 1209q49 0 86 -32t37 -81q0 -47 -37.5 -79t-85.5 -32q-51 0 -86.5 30.5t-35.5 80.5q0 47 35.5 80t86.5 33zM1051 568l11 -67l10 -69l3 -65
l2 -75l3 -171q4 -208 -136 -364q-136 -151 -321 -151q-110 0 -231 84q-108 74 -177 177q-56 82 -73 180q-2 16 -5 64l-11 164q-2 44 34 87t89 43q110 0 120 -110l10 -122q8 -97 69 -156q69 -67 166 -67q93 0 172 85t79 179l-37 -19l-53 -13q-111 0 -197 131q-77 118 -77 235
q0 115 68 201q74 92 186 92q101 0 189 -91q76 -77 107 -182zM865 363l5 51q0 67 -25 118t-57 48l-13 -1q-17 -1 -25 -19q-9 -14 -9 -34q0 -48 39 -100t85 -63z" />
    <glyph glyph-name="u0643" unicode="&#x643;" horiz-adv-x="1601" arabic-form="isolated" 
d="M200 407l-37 10l-54 29v-304q0 -48 71 -97l16 -12l15 -7l35 -15q16 -9 128 -10q77 -1 213 2q146 4 154 4h524q82 0 128 64q52 71 47 173l-4 68q-17 81 -82 183q-91 144 -230 276l-22 21l-29 26l-28 23l-24 19q-18 18 -52 39l85 38l78 32l254 94l83 35q51 30 51 86
q0 39 -34.5 76.5t-78.5 35.5l-16 -1l-15 -4l-21 -8l-190 -70l-202 -82l-110 -47l-95 -43q-26 -11 -36 -38q-13 -33 -11 -67l2 -36l8 -36q16 -38 27 -47l268 -210l76 -66q85 -74 85 -110q0 -7 -10 -10q-18 -6 -24 -10z" />
    <glyph glyph-name="u0644" unicode="&#x644;" horiz-adv-x="961" arabic-form="isolated" 
d="M118 0l-30 305q0 53 34.5 92t86.5 39q50 0 84 -41q26 -32 29 -90l10 -163q3 -63 44 -106q43 -46 107 -46q61 0 113.5 41.5t48.5 100.5l-80 1197q-2 30 32 57q31 26 79 26q42 0 75.5 -24t36.5 -59l99 -1308q1 -14 1 -27q0 -143 -112 -271t-273 -128q-163 0 -276 122
q-109 118 -109 283z" />
    <glyph glyph-name="u0645" unicode="&#x645;" horiz-adv-x="1198" arabic-form="isolated" 
d="M150 -234l-49 693q1 39 49 39q17 0 78 -32l45 -22q10 -4 29 -8q83 0 110 62q36 128 125 211q97 91 222 91q164 0 271 -161q95 -143 95 -315q0 -105 -29 -175q-31 -78 -82 -140q-15 -12 -34 -24q-12 -8 -39 -19q-39 -16 -92 -16q-69 0 -131 40q-70 46 -70 112
q0 47 33 79.5t78 32.5q17 0 26 3l27 1l49 8q15 6 18 28l3 24l1 21q2 54 -25 95q-25 38 -58 38q-17 0 -41 -17q-39 -28 -73 -110l-31 -74l-28 -89q-32 -142 -173 -142h-83l22 -251q0 -48 -36.5 -80t-84.5 -32q-50 0 -86 36q-31 31 -36 93z" />
    <glyph glyph-name="u0646" unicode="&#x646;" horiz-adv-x="961" arabic-form="isolated" 
d="M106 -50l-9 334q-2 52 29 86.5t82 34.5q47 0 81 -35q25 -26 30 -86l12 -142q6 -79 39 -122q40 -51 111 -51q64 0 114 51q54 56 49 122l-41 549q-3 40 34 86q37 33 89 33q48 0 78 -32l9 -15l10 -22l12 -50l48 -733q-1 -21 -11 -48l-18 -49l-26 -53q-57 -97 -146 -161
q-100 -72 -201 -72q-149 0 -262 112q-108 107 -113 263zM389 781q40 0 71 -25t31 -65q0 -35 -28 -66q-29 -26 -74 -26q-37 0 -73 25q-27 26 -27 67q0 34 28 62t72 28z" />
    <glyph glyph-name="u0647" unicode="&#x647;" horiz-adv-x="882" arabic-form="isolated" 
d="M111 446q0 52 37 92q33 27 78 27l25 -3l13 -3q38 -11 52 -56l13 -38l14 -32q12 -16 25 -26l14 -7l22 -2q31 -3 64 24q30 24 30 48v7q-15 67 -65.5 106t-114.5 39q-49 0 -95 -23l-19 -9l-22 -2q-42 -4 -76.5 38t-32.5 85l1 21q5 17 8 18q23 58 78 90q27 16 104 36l45 5
l54 1h31q68 0 159 -64q96 -68 156 -184q72 -141 72 -291q0 -343 -325 -343q-229 0 -316 269q-29 87 -29 177z" />
    <glyph glyph-name="u0648" unicode="&#x648;" horiz-adv-x="882" arabic-form="isolated" 
d="M409 -214l62 53q25 22 41 59q29 51 29 103v12q0 23 -9 37q-5 12 -15 12q-5 -3 -13 -8q-13 -8 -34 -24q-41 -30 -61 -30q-144 0 -242 127q-92 118 -92 267q0 155 88 275q97 131 246 131q97 0 190 -77q78 -64 137 -188t58 -230l-4 -306l-7 -88l-6 -45l-6 -37q-1 -12 -7 -36
q-3 -19 -10 -34q-9 -32 -25 -59l-17 -28l-22 -27q-15 -18 -42 -39l-31 -19l-23 -12l-17 -4l-19 -3q-57 0 -113 58t-56 112q0 31 20 48zM512 214q0 4 28 30q14 13 14 36v12l-1 13q-6 21 -15 38l-2 6q-4 11 -11 17l-7 14l-9 13l-7 14l-12 13q-49 58 -105 58q-20 0 -25 -2
q-9 -1 -23 -10q-16 -13 -23 -33l-4 -22l-3 -23q0 -23 2 -27l10 -32q20 -45 69 -56l38 -4q39 0 61 -14q12 -10 25 -41z" />
    <glyph glyph-name="u0649" unicode="&#x649;" horiz-adv-x="1218" arabic-form="isolated" 
d="M902 222q63 0 117 -24q43 -20 69 -52q49 -59 49 -177q0 -168 -191 -257q-148 -68 -337 -68q-216 0 -363 107q-139 101 -147 252l-17 308q-3 50 27 84q28 31 85 31q48 0 84 -36q33 -32 35 -86l11 -226q3 -69 92 -107l41 -12l57 -9q34 -6 101 -6q98 0 175 14q62 30 62 69
q0 21 -32 31l-60 18l-36 12l-26 13q-82 39 -115 70q-49 46 -49 100q0 16 5 33q37 136 198 224q144 79 298 79q37 -5 52 -10.5t38 -21.5q35 -25 35 -66l-3 -13q-25 -118 -61 -118l-9 1l-10 7l-42 15l-48 8l-10 -1l-13 -2l-38 -10q-20 -5 -42 -17q-19 -8 -39 -22l-26 -19
l-19 -14q-14 -25 -14 -41q0 -18 21 -34l16 -8l21 -6z" />
    <glyph glyph-name="u064A" unicode="&#x64a;" horiz-adv-x="1236" arabic-form="isolated" 
d="M1155 -31q0 -168 -191 -257q-148 -68 -337 -68q-216 0 -363 107q-139 101 -147 252l-17 308q-3 50 27 84q28 31 85 31q48 0 84 -36q33 -32 36 -86l10 -226q3 -69 92 -107l41 -12l57 -9q34 -6 101 -6q98 0 175 14q62 30 62 69q0 21 -32 31l-60 18l-36 12l-26 13
q-82 39 -115 70q-49 46 -49 100q0 16 5 33q37 136 198 224q144 79 298 79q37 -5 52 -10.5t38 -21.5q35 -25 35 -66l-3 -13q-25 -118 -61 -118l-9 1l-10 7l-42 15l-48 8l-10 -1l-13 -2l-38 -10q-20 -5 -42 -17q-19 -8 -38 -22l-27 -19l-19 -14q-14 -25 -14 -41q0 -18 22 -34
l15 -8l21 -6l59 -13q67 0 120 -26q40 -20 65 -50q49 -59 49 -177z" />
    <glyph glyph-name="u067E" unicode="&#x67e;" horiz-adv-x="1518" arabic-form="isolated" 
d="M232 405h869q41 0 63 50q6 15 6 33l-20 192q0 51 35 85.5t86 34.5q87 0 115 -71l6 -21l4 -28l30 -517q3 -60 -58.5 -111.5t-146.5 -51.5h-909q-38 0 -66 11l-35 15l-15 7l-16 12q-71 49 -71 97v304l22 -15l30 -14l33 -9zM831 -494q-40 0 -70.5 25t-30.5 64q0 35 28 66
q29 26 73 26q42 0 72.5 -25.5t30.5 -66.5q0 -39 -28 -64t-75 -25zM963 -284q-42 0 -71 28t-29 64q0 41 29.5 67t70.5 26q40 0 74 -25q30 -27 30 -68q0 -36 -31 -64t-73 -28zM702 -284q-45 0 -74 27.5t-29 64.5q0 35 29 67q29 26 74 26q100 0 100 -93q0 -34 -28 -64
q-31 -28 -72 -28z" />
    <glyph glyph-name="u0686" unicode="&#x686;" horiz-adv-x="1042" arabic-form="isolated" 
d="M418 800q86 0 159 -22q45 -14 65 -29q33 -15 63 -49q61 -47 120 -135q62 -95 71 -160h94v-294q-7 -48 -57 -81q-46 -30 -97 -30h-366q-53 0 -53 -54q0 -20 14 -42q15 -18 39 -25l58 -16l34 -15q13 -3 18 -10l18 -24l10 -24l4 -28l-2 -21q0 -12 -7 -25q-11 -36 -50 -62
q-27 -17 -73 -17q-128 0 -211 58q-74 51 -116 147q-36 83 -36 189q0 289 281 374h216l2 6l1 13q0 35 -36 75q-33 35 -70 49l-25 3h-7q-47 0 -90 -19q-36 -11 -80 -44l-11 -4l-14 -2q-35 0 -66.5 23t-51.5 63v10l-1 11q-5 69 80 142q80 69 173 69zM827 -427q-39 0 -70 25
t-31 64q0 34 28 65q29 26 73 26q42 0 72.5 -25.5t30.5 -65.5q0 -39 -28 -64t-75 -25zM959 -218q-42 0 -71 28t-29 65q0 40 29.5 66.5t70.5 26.5q40 0 75 -26q29 -27 29 -67q0 -37 -31 -65t-73 -28zM698 -218q-45 0 -73.5 27.5t-28.5 65.5q0 35 28 66q30 27 74 27
q100 0 100 -93q0 -35 -28 -65q-31 -28 -72 -28z" />
    <glyph glyph-name="u0698" unicode="&#x698;" horiz-adv-x="616" arabic-form="isolated" 
d="M150 -132q24 12 39 24l36 27q48 46 48 90l-64 716q0 49 41 90l8 7l11 6l23 15l24 5l27 3q45 0 86 -40q29 -34 34 -100l61 -813q7 -90 -84 -183q-77 -78 -158 -78h-8q-55 0 -105 64q-47 60 -47 117q0 35 28 50zM293 1479q39 0 71 -25t32 -63q0 -91 -103 -91q-44 0 -74 24
q-26 31 -26 67q0 39 31 65q28 23 69 23zM182 1268q45 0 73 -27q28 -23 28 -64q0 -37 -28 -66q-11 -10 -32.5 -18.5t-40.5 -8.5q-22 0 -40 6q-12 2 -32 21q-28 26 -28 66q0 39 28 65t72 26zM417 1268q45 0 73 -27q29 -23 29 -64q0 -36 -30 -66q-10 -10 -31.5 -18.5
t-40.5 -8.5q-43 0 -72 25q-32 26 -32 68q0 39 34 66q31 25 70 25z" />
    <glyph glyph-name="u06AF" unicode="&#x6af;" horiz-adv-x="1611" arabic-form="isolated" 
d="M195 407l-37 10l-54 29v-304q0 -48 70 -97l16 -12l15 -7l35 -15q16 -9 128 -10q77 -1 214 2q145 4 153 4h524q82 0 128 64q53 71 47 173l-4 68q-17 81 -81 183q-92 144 -230 276l-22 21l-30 26l-27 23l-25 19q-18 18 -52 39l85 38l78 32l254 94l83 35q51 30 51 86
q0 39 -34.5 76.5t-77.5 35.5l-16 -1l-16 -4l-21 -8l-190 -70l-202 -82l-110 -47l-95 -43q-26 -11 -36 -38q-12 -33 -11 -67l2 -36l8 -36q16 -38 27 -47l268 -210l76 -66q85 -74 85 -110q0 -7 -10 -10q-17 -6 -23 -10zM734 1196l-6 29l-2 28q-1 28 9 54q1 4 1 7l104 58l88 38
l162 65l181 66h12q35 3 62.5 -27.5t27.5 -61.5q0 -45 -40 -69l-67 -28l-203 -75l-62 -26l-245 -96q-7 9 -22 38z" />
    <glyph glyph-name="uFB57" unicode="&#x67e;" horiz-adv-x="1423" arabic-form="final" 
d="M246 405h869q41 0 63 50q7 15 7 33l-20 192q0 51 35 85.5t85 34.5q87 0 115 -71l6 -21l5 -28l29 -517q4 -60 -60 -113q-60 -50 -145 -50h-909q-38 0 -66 11l-35 15l-15 7l-16 12q-71 49 -71 97v304l22 -15l31 -14l32 -9zM845 -494q-39 0 -70 25t-31 64q0 35 28 66
q29 26 73 26q42 0 72.5 -25.5t30.5 -66.5q0 -39 -28 -64t-75 -25zM978 -284q-43 0 -72 28t-29 64q0 41 29.5 67t71.5 26q39 0 74 -25q29 -27 29 -68q0 -36 -31 -64t-72 -28zM716 -284q-45 0 -73.5 27.5t-28.5 64.5q0 35 28 67q30 26 74 26q100 0 100 -93q0 -34 -28 -64
q-31 -28 -72 -28z" />
    <glyph glyph-name="uFB58" unicode="&#x67e;" horiz-adv-x="775" arabic-form="initial" 
d="M-158 405h511q29 0 51 24l14 26q7 17 7 33l-20 192q0 53 35 86.5t88 33.5t88 -33q30 -30 34 -87l30 -517q4 -65 -59 -116q-56 -47 -144 -47l-483 1l-29 7q-29 6 -59 24q-64 39 -64 110v263zM278 -494q-40 0 -69 24q-32 26 -32 65q0 35 28 66q29 26 73 26q42 0 72.5 -25.5
t30.5 -66.5q0 -39 -28 -64t-75 -25zM410 -284q-42 0 -71 28t-29 64q0 41 29.5 67t70.5 26q40 0 74 -25q30 -27 30 -68q0 -36 -31 -64t-73 -28zM149 -284q-45 0 -73.5 27.5t-28.5 64.5q0 35 28 67q29 26 74 26q100 0 100 -93q0 -34 -28 -64q-31 -28 -72 -28z" />
    <glyph glyph-name="uFB59" unicode="&#x67e;" horiz-adv-x="651" arabic-form="medial" 
d="M-158 405h511q29 0 51 24l14 26q7 17 7 33l-20 192q0 53 35 86.5t88 33.5t88 -33q30 -30 34 -87l30 -517q4 -65 -59 -116q-56 -47 -144 -47l-483 1l-29 7q-29 6 -59 24q-64 39 -64 110v263zM278 -494q-40 0 -69 24q-32 26 -32 65q0 35 28 66q29 26 73 26q42 0 72.5 -25.5
t30.5 -66.5q0 -39 -28 -64t-75 -25zM410 -284q-42 0 -71 28t-29 64q0 41 29.5 67t70.5 26q40 0 74 -25q30 -27 30 -68q0 -36 -31 -64t-73 -28zM149 -284q-45 0 -73.5 27.5t-28.5 64.5q0 35 28 67q29 26 74 26q100 0 100 -93q0 -34 -28 -64q-31 -28 -72 -28z" />
    <glyph glyph-name="uFB7B" unicode="&#x686;" horiz-adv-x="973" arabic-form="final" 
d="M418 800q86 0 159 -22q45 -14 65 -29q33 -15 63 -49q61 -47 120 -135q62 -95 71 -160h94v-294q-7 -48 -57 -81q-46 -30 -97 -30h-366q-53 0 -53 -54q0 -20 14 -42q15 -18 39 -25l58 -16l34 -15q13 -3 18 -10l18 -24l10 -24l4 -28l-2 -21q0 -12 -7 -25q-11 -36 -50 -62
q-27 -17 -73 -17q-128 0 -211 58q-74 51 -116 147q-36 83 -36 189q0 289 281 374h216l2 6l1 13q0 35 -36 75q-33 35 -70 49l-25 3h-7q-47 0 -90 -19q-36 -11 -80 -44l-11 -4l-14 -2q-35 0 -66.5 23t-51.5 63v10l-1 11q-5 69 80 142q80 69 173 69zM827 -427q-39 0 -70 25
t-31 64q0 34 28 65q29 26 73 26q42 0 72.5 -25.5t30.5 -65.5q0 -39 -28 -64t-75 -25zM959 -218q-42 0 -71 28t-29 65q0 40 29.5 66.5t70.5 26.5q40 0 75 -26q29 -27 29 -67q0 -37 -31 -65t-73 -28zM698 -218q-45 0 -73.5 27.5t-28.5 65.5q0 35 28 66q30 27 74 27
q100 0 100 -93q0 -35 -28 -65q-31 -28 -72 -28z" />
    <glyph glyph-name="uFB7C" unicode="&#x686;" horiz-adv-x="970" arabic-form="initial" 
d="M-158 405h635q-16 61 -35 98q-16 29 -48 45q-20 11 -54 11q-33 0 -77 -11q-50 -12 -90 -29l-12 -4h-14q-64 0 -106 103q0 139 202 182l32 3h9q135 0 245.5 -80.5t141.5 -194.5q7 -54 50.5 -91.5t98.5 -37.5q20 0 31 6l1 -285q2 -56 -37 -88t-115 -32l-735 8q-29 6 -59 24
q-64 39 -64 110v263zM430 -522q-40 0 -69 24q-32 26 -32 65q0 34 28 65q29 26 73 26q42 0 72.5 -25.5t30.5 -65.5q0 -39 -28 -64t-75 -25zM562 -313q-42 0 -71 28t-29 65q0 40 29.5 66.5t70.5 26.5q40 0 74 -26q30 -27 30 -67q0 -37 -31 -65t-73 -28zM301 -313
q-45 0 -73.5 27.5t-28.5 65.5q0 35 28 66q29 27 74 27q100 0 100 -93q0 -35 -28 -65q-31 -28 -72 -28z" />
    <glyph glyph-name="uFB7D" unicode="&#x686;" horiz-adv-x="832" arabic-form="medial" 
d="M-158 405h635q-16 61 -35 98q-16 29 -48 45q-20 11 -54 11q-33 0 -77 -11q-50 -12 -90 -29l-12 -4h-14q-64 0 -106 103q0 139 202 182l32 3h9q135 0 245.5 -80.5t141.5 -194.5q7 -54 50.5 -91.5t98.5 -37.5q20 0 31 6l1 -285q2 -56 -37 -88t-115 -32l-735 8q-29 6 -59 24
q-64 39 -64 110v263zM430 -522q-40 0 -69 24q-32 26 -32 65q0 34 28 65q29 26 73 26q42 0 72.5 -25.5t30.5 -65.5q0 -39 -28 -64t-75 -25zM562 -313q-42 0 -71 28t-29 65q0 40 29.5 66.5t70.5 26.5q40 0 74 -26q30 -27 30 -67q0 -37 -31 -65t-73 -28zM301 -313
q-45 0 -73.5 27.5t-28.5 65.5q0 35 28 66q29 27 74 27q100 0 100 -93q0 -35 -28 -65q-31 -28 -72 -28z" />
    <glyph glyph-name="uFB8B" unicode="&#x698;" horiz-adv-x="504" arabic-form="final" 
d="M137 -132q24 12 39 24l36 27q47 46 47 90l-63 716q0 49 41 90l8 7l11 6l22 15l25 5l27 3q44 0 86 -40q28 -34 33 -100l62 -813q7 -90 -84 -183q-77 -78 -158 -78h-9q-54 0 -104 64q-48 60 -48 117q0 35 29 50zM294 1339q39 0 71 -25t32 -64q0 -91 -103 -91q-44 0 -74 25
q-26 30 -26 66q0 40 31 65q28 24 69 24zM183 1128q45 0 73 -28q28 -23 28 -64q0 -37 -28 -65q-11 -11 -32.5 -19.5t-40.5 -8.5q-22 0 -40 6q-12 3 -32 21q-28 27 -28 66q0 40 28 66t72 26zM418 1128q45 0 73 -28q29 -23 29 -64q0 -36 -30 -65q-10 -11 -31.5 -19.5
t-40.5 -8.5q-43 0 -72 25q-32 26 -32 68q0 39 34 66q31 26 70 26z" />
    <glyph glyph-name="uFEDA" unicode="&#x6a9;" horiz-adv-x="1477" arabic-form="final" 
d="M1146 0h-834q-38 0 -66 11l-35 15l-15 7l-16 12q-71 49 -71 97v304l54 -29l37 -10l32 -2l680 4q27 2 73 18l-36 -8l36 8q0 39 -75 117q-32 34 -65 61l-97 82l-164 123q-12 8 -27 45l-7 36l-3 40q-2 33 12 68q9 23 35 36l118 57l131 57l158 66l98 36l116 41l139 47l24 6
l22 2q46 4 84 -32q34 -32 34 -77q0 -59 -65 -89l-69 -31l-83 -34l-104 -39l-201 -73q-37 -13 -103 -41l-49 -19l-37 -20q118 -81 237 -212q110 -121 180 -244q7 -13 43 -28l27 -1l40 -2h155v-405h-74q-139 0 -188 63q-14 -24 -81 -63h-570h570z" />
    <glyph glyph-name="uFEDB" unicode="&#x6a9;" horiz-adv-x="904" arabic-form="initial" 
d="M-152 405h596q33 0 33 20q0 35 -85 109l-76 66l-105 84l-163 126q-11 9 -27 47l-8 36l-2 36q-1 34 11 68q11 26 36 38l95 42l110 48l202 81l227 82l16 1q43 3 77.5 -34.5t34.5 -77.5q0 -56 -51 -85l-83 -36l-254 -94l-78 -32l-85 -38q34 -21 52 -39l25 -19l27 -23l30 -25
l22 -21q138 -133 230 -277q64 -102 81 -183l4 -68q6 -101 -47 -173q-46 -64 -128 -64h-524q-77 0 -130 32q-63 38 -63 110v263z" />
    <glyph glyph-name="uFEDC" unicode="&#x6a9;" horiz-adv-x="851" arabic-form="medial" 
d="M-158 405h594l4 10l2 12q0 39 -75 117q-33 34 -65 61l-98 82l-163 123q-13 8 -28 45l-6 36l-3 40q-3 33 12 68q9 23 34 36l118 57l131 57l159 66l98 36l116 41l138 47l25 6l22 2q46 4 84 -32q34 -32 34 -77q0 -59 -65 -89l-69 -31l-83 -34l-104 -39l-202 -73
q-37 -13 -102 -41l-50 -19l-36 -20q117 -81 237 -212q110 -121 179 -244q8 -13 44 -28l26 -1l40 -2h155v-405h-74q-139 0 -187 63q-19 -32 -50 -50q-33 -13 -75 -13l-565 1l-29 7q-29 6 -59 24q-64 39 -64 110v263z" />
    <glyph glyph-name="uFB93" unicode="&#x6af;" horiz-adv-x="1472" arabic-form="final" 
d="M1140 0h-834q-38 0 -66 11l-35 15l-15 7l-16 12q-70 49 -70 97v304l54 -29l37 -10l31 -2l680 4q27 2 73 18l-36 -8l36 8q0 39 -75 117q-32 34 -64 61l-98 82l-163 123q-13 8 -28 45l-7 36l-3 40q-2 33 12 68q9 23 35 36l118 57l131 57l159 66l97 36l116 41l139 47l25 6
l22 2q46 4 84 -32q33 -32 33 -77q0 -59 -64 -89l-70 -31l-82 -34l-105 -39l-201 -73q-37 -13 -103 -41l-49 -19l-36 -20q117 -81 236 -212q110 -121 180 -244q8 -13 44 -28l26 -1l40 -2h155v-405h-74q-139 0 -187 63q-15 -24 -82 -63h-570h570zM667 1289l81 40l84 37l102 42
l62 23l75 27l88 29l16 5l14 1q30 2 53 -19.5t23 -50.5q0 -38 -42 -57l-44 -20l-53 -22l-67 -25l-129 -46q-23 -9 -65 -27l-32 -12l-164 -70l-24 57l-5 75q6 2 27 13z" />
    <glyph glyph-name="uFB94" unicode="&#x6af;" horiz-adv-x="901" arabic-form="initial" 
d="M48 810q-8 11 -27 47l-8 36l-2 36q-1 34 11 68q11 26 36 38l95 42l110 48l202 81l227 82l16 1q43 3 77.5 -34.5t34.5 -77.5q0 -56 -51 -85l-83 -36l-254 -94l-78 -32l-85 -38q34 -21 52 -39l25 -19l27 -23zM-152 405h596q33 0 33 20q0 35 -85 109l-76 66l-105 84
l-163 126q-11 9 -27 47l-8 36l-2 36q-1 34 11 68q11 26 36 38l95 42l110 48l202 81l227 82l16 1q43 3 77.5 -34.5t34.5 -77.5q0 -56 -51 -85l-83 -36l-254 -94l-78 -32l-85 -38q34 -21 52 -39l25 -19l27 -23l30 -25l22 -21q138 -133 230 -277q64 -102 81 -183l4 -68
q6 -101 -47 -173q-46 -64 -128 -64h-524q-77 0 -130 32q-63 38 -63 110v263zM93 1191l-4 23l-2 23q-2 53 30 68l61 27l70 30l130 53l145 52l10 1q28 1 50 -23t22 -49q0 -36 -32 -55l-54 -22l-162 -60l-50 -21l-196 -77q-5 7 -18 30z" />
    <glyph glyph-name="uFB95" unicode="&#x6af;" horiz-adv-x="900" arabic-form="medial" 
d="M-158 405h594l4 10l2 12q0 39 -75 117q-33 34 -65 61l-98 82l-163 123q-13 8 -28 45l-6 36l-3 40q-3 33 12 68q9 23 34 36l118 57l131 57l159 66l98 36l116 41l138 47l25 6l22 2q46 4 84 -32q34 -32 34 -77q0 -59 -65 -89l-69 -31l-83 -34l-104 -39l-202 -73
q-37 -13 -102 -41l-50 -19l-36 -20q117 -81 237 -212q110 -121 179 -244q8 -13 44 -28l26 -1l40 -2h155v-405h-74q-139 0 -187 63q-19 -32 -50 -50q-33 -13 -75 -13l-565 1l-29 7q-29 6 -59 24q-64 39 -64 110v263zM42 1301q1 2 17 13l88 51l88 38l162 66l180 65l13 1
q35 2 62.5 -28t27.5 -62q0 -45 -40 -68l-67 -28l-203 -76l-62 -25l-245 -96q-7 9 -22 37q-2 48 1 112z" />
    <glyph glyph-name="uFE94" unicode="&#x6c0;" horiz-adv-x="873" arabic-form="final" 
d="M606 132q-31 -55 -97 -97q-68 -45 -129 -45q-126 0 -204 118q-68 103 -68 235q0 141 98.5 250.5t214.5 106.5l35 -1q8 0 35 -8q5 0 14 -4l17 -7l16 -8q9 -4 17 -11v59q0 40 31 73q33 29 80 29q41 0 78 -29q29 -23 33 -73l20 -254q3 -38 16 -49q10 -5 28 -9l46 -3v-405
h-150q-48 0 -85 38q-34 35 -46 94zM575 425l-10 82q-45 24 -90 24q-34 0 -62 -16q-23 -14 -33 -49v-8q0 -23 28 -46q29 -18 71 -18q47 0 96 31zM482 1209q-27 0 -53 -16q-29 -18 -29 -43q0 -21 21 -43q22 -17 51 -17q13 0 35 11q10 5 22 17q8 11 22 16q5 0 13 -16l7 -23
l1 -26v-111q0 -20 -28 -33l-30 -5l-23 -3h-161q-40 0 -81.5 35.5t-41.5 65.5v81q0 37 23 37q6 0 28 -26q6 -9 14 -13l23 -5q12 0 25 7q-9 9 -30 43l-10 27l-3 31q0 60 41 100.5t102 40.5q45 0 80 -23q32 -22 51 -69l4 -16q0 -12 -12 -29q-7 -8 -23 -13l-21 13z" />
    <glyph glyph-name="uFEF2" unicode="&#x6cc;" horiz-adv-x="1092" arabic-form="final" 
d="M1073 0q2 -10 39 -25l60 -12q29 -6 29 -59v-15l-2 -22l-7 -30q-4 -21 -12 -35q-20 -54 -38 -66q-80 -54 -210 -85q-105 -24 -267 -24q-76 0 -147 6q-40 2 -61 6q-1 0 -68 15q-119 27 -194 86q-79 62 -83 156l-14 405q0 40 25 70q27 34 82 34h10l12 2q34 0 63 -22
q26 -20 29 -61l21 -274q6 -71 90 -112q77 -37 199 -37q39 0 93 7q16 1 48 7q23 6 37 12t29 23q14 12 14 28q0 23 -42 43l-103 35q-105 36 -105 178t127 176l40 6l41 3l47 -3l40 -1l98 -7h22q20 0 25 -1l41 -2h85v-405h-93z" />
    <glyph glyph-name="uFEF3" unicode="&#x6cc;" horiz-adv-x="764" arabic-form="initial" 
d="M-161 405h514q29 0 51 24l14 26q7 17 7 33l-20 192q0 53 35 86.5t88 33.5t88 -33q30 -30 34 -87l30 -517q4 -65 -59 -116q-56 -47 -144 -47l-483 1l-29 7q-29 6 -59 24q-63 39 -64 110zM305 -91q38 0 56 -13l16 -14q28 -24 28 -64q0 -37 -26.5 -65t-73.5 -28
q-101 0 -101 93q0 39 27 65t74 26zM548 -102q42 0 72 -25.5t30 -66.5q0 -37 -29 -62q-25 -28 -73 -28q-39 0 -75 26q-27 27 -27 64q0 38 27 66q32 26 75 26z" />
    <glyph glyph-name="uFEF4" unicode="&#x6cc;" horiz-adv-x="637" arabic-form="medial" 
d="M-161 405h514q29 0 51 24l14 26q7 17 7 33l-20 192q0 53 35 86.5t88 33.5t88 -33q30 -30 34 -87l30 -517q4 -65 -59 -116q-56 -47 -144 -47l-483 1l-29 7q-29 6 -59 24q-63 39 -64 110zM305 -91q38 0 56 -13l16 -14q28 -24 28 -64q0 -37 -26.5 -65t-73.5 -28
q-101 0 -101 93q0 39 27 65t74 26zM548 -102q42 0 72 -25.5t30 -66.5q0 -37 -29 -62q-25 -28 -73 -28q-39 0 -75 26q-27 27 -27 64q0 38 27 66q32 26 75 26z" />
    <glyph glyph-name="Hcircumflex" unicode="&#x622;" horiz-adv-x="544" arabic-form="final" 
d="M246 1380q37 0 72 -28q32 -26 34 -65l50 -810q2 -31 57 -56l59 -13l69 -3v-405h-195q-64 0 -128 46q-71 50 -75 127l-59 1104q-2 46 25 69t77 33h5zM152 1561l43 -2l42 -4l53 -4l20 1l26 3l29 5l27 7l14 2l11 2q18 0 29 -6.5t14 -23.5q0 -14 -18 -33q-10 -6 -60 -25
l-43 -7l-40 -3l-32 1q-19 1 -25 2l-23 3l-51 3q-31 2 -55 -4l-20 -2q-9 0 -24 -6l-7 -1h-9q-36 0 -38 37q0 11 12 25q3 10 32 19l46 9z" />
    <glyph glyph-name="uFE84" unicode="&#x623;" horiz-adv-x="544" arabic-form="final" 
d="M246 1380q37 0 72 -28q32 -26 34 -65l50 -810q2 -31 57 -56l59 -13l69 -3v-405h-195q-64 0 -128 46q-71 50 -75 127l-59 1104q-2 46 25 69t77 33h5zM216 1572q0 -16 13.5 -28.5t37.5 -12.5q15 0 25 5l7 7l8 8l5 4l8 5q6 0 12 -12l4 -20l1 -17v-75q0 -29 -70 -29h-100
q-28 0 -57.5 24.5t-29.5 47.5v57l4 16q2 8 12 9l10 -6l5 -3l6 -5l12 -12l13 -3l10 2l8 2l-10 12l-10 18l-5 18l-4 22q0 44 29 74q26 27 72 27q54 0 93 -65l2 -11q0 -10 -6.5 -18t-18.5 -12l-15 9l-3 1l-9 4q-14 0 -19 -2q-10 0 -20 -10q-18 -9 -20 -31z" />
    <glyph glyph-name="uFE86" unicode="&#x624;" horiz-adv-x="836" arabic-form="final" 
d="M590 -102q31 49 31 103q0 29 -10 49q-3 12 -15 12q-4 0 -47 -31t-62 -31q-145 0 -243 128q-90 117 -90 266q0 166 96 286t237 120q102 0 191 -77q78 -67 138 -191q58 -120 57 -227l-8 -356l-4 -38q0 -35 -7 -67l-9 -41l-12 -37q-46 -137 -161 -191l-17 -4l-19 -3
q-58 0 -113 58t-55 112q0 32 19 48l62 53q26 18 41 59zM634 280v12l-3 13q-5 23 -27 61l-7 13l-9 13q-3 9 -20 28q-51 58 -105 58q-21 0 -25 -2q-28 -2 -46 -43l-4 -22l-1 -23q-2 -30 10 -58q19 -46 68 -57l38 -4q40 0 62 -14q12 -10 25 -41l9 12l19 18q16 15 16 36z
M294 1162q0 -27 21.5 -44.5t48.5 -17.5q17 0 37 11l10 9l13 12l21 14q8 0 15 -18l5 -49v-111q0 -15 -28 -30q-27 -11 -73 -11h-142q-36 0 -80 35q-40 32 -40 68v81q0 18 4 25q3 12 17 12q7 0 29 -28l13 -11l24 -5q14 0 24 7l-16 19l-15 26q-10 27 -10 54q0 61 40.5 102
t100.5 41q93 0 132 -92l3 -17q0 -15 -11 -29q-5 -9 -24 -13l-19 13l-19 5q-68 0 -81 -58z" />
    <glyph glyph-name="uFE88" unicode="&#x625;" horiz-adv-x="559" arabic-form="final" 
d="M246 1379h6l8 1q37 0 72 -28q32 -26 35 -65l49 -810q2 -31 57 -56l59 -13l69 -3v-405h-194q-65 0 -129 46q-71 50 -75 127l-59 1104q-2 46 25 69t77 33zM454 -133q-18 0 -41 -14q-14 -12 -17 -31q0 -16 16.5 -28t33.5 -12q14 0 24 7q7 2 17 12l15 10q5 0 12 -12l4 -20
l1 -16v-76q0 -8 -20 -21l-22 -6l-31 -1h-99q-25 0 -56 24t-31 48v55q0 13 2 15l14 11l11 -5l12 -13l10 -8l15 -3h8l7 3l-18 30q-9 21 -9 42q0 40 25 72q27 26 74 26q29 0 54 -14l16 -11l7 -8l18 -31l1 -11q0 -12 -7 -20l-18 -9l-14 9z" />
    <glyph glyph-name="uFE8A" unicode="&#x626;" horiz-adv-x="1140" arabic-form="final" 
d="M1220 -37q28 -6 28 -59v-15l-2 -22l-6 -30q-5 -21 -13 -35q-19 -54 -38 -66q-80 -54 -210 -85q-105 -24 -267 -24q-76 0 -147 6q-40 2 -61 6q-1 0 -68 15q-118 27 -194 86q-79 62 -82 156l-15 405q0 40 25 70q27 34 83 34h9l13 2q33 0 61 -21t31 -62l21 -274
q5 -71 90 -112q76 -37 198 -37q40 0 93 7q16 1 49 7q23 6 36.5 12.5t28.5 22.5q15 12 15 28q0 23 -42 43l-104 35q-104 36 -104 178t126 176l40 6l42 3l46 -3l40 -1l98 -7h22q21 0 26 -1l41 -2h84v-405h-93q3 -10 40 -25zM316 773q0 -11 4.5 -20.5t15.5 -22.5q21 -18 52 -18
q13 0 36 11l23 19q9 14 19 15q21 0 21 -66v-112q0 -19 -26 -31l-32 -7l-41 -2h-142q-35 0 -79 34t-44 68v80q0 29 22 37q9 0 29 -27l15 -12l22 -4q11 0 25 6l-16 19l-14 26l-7 20l-5 36q0 60 41 100.5t101 40.5q43 0 80 -23q30 -20 50 -68l4 -17q0 -14 -10 -30
q-7 -7 -24 -13l-20 13l-18 6q-24 0 -51 -17q-31 -19 -31 -41z" />
    <glyph glyph-name="uFE8B" unicode="&#x626;" horiz-adv-x="784" arabic-form="initial" 
d="M461 1247q-27 0 -53 -16q-29 -18 -29 -43q0 -21 21 -43q22 -17 51 -17q13 0 35 11q10 5 22 17q8 11 22 16q5 0 13 -16l7 -23l1 -26v-111q0 -20 -28 -33l-30 -5l-23 -3h-161q-40 0 -81.5 35.5t-41.5 65.5v81q0 37 23 37q6 0 28 -26q6 -9 14 -13l24 -5q11 0 24 7
q-9 9 -30 43l-10 27l-3 31q0 60 41 100.5t102 40.5q45 0 80 -23q32 -22 51 -69l4 -16q0 -12 -12 -29q-7 -8 -23 -13l-21 13zM-158 405h511q29 0 51 24l14 26q7 17 7 33l-20 192q0 53 35 86.5t88 33.5t88 -33q30 -30 34 -87l30 -517q4 -65 -59 -116q-56 -47 -144 -47l-483 1
l-29 7q-29 6 -59 24q-64 39 -64 110v263z" />
    <glyph glyph-name="uFE8C" unicode="&#x626;" horiz-adv-x="637" arabic-form="medial" 
d="M461 1247q-27 0 -53 -16q-29 -18 -29 -43q0 -21 21 -43q22 -17 51 -17q13 0 35 11q10 5 22 17q8 11 22 16q5 0 13 -16l7 -23l1 -26v-111q0 -20 -28 -33l-30 -5l-23 -3h-161q-40 0 -81.5 35.5t-41.5 65.5v81q0 37 23 37q6 0 28 -26q6 -9 14 -13l24 -5q11 0 24 7
q-9 9 -30 43l-10 27l-3 31q0 60 41 100.5t102 40.5q45 0 80 -23q32 -22 51 -69l4 -16q0 -12 -12 -29q-7 -8 -23 -13l-21 13zM-158 405h511q29 0 51 24l14 26q7 17 7 33l-20 192q0 53 35 86.5t88 33.5t88 -33q30 -30 34 -87l30 -517q4 -65 -59 -116q-56 -47 -144 -47l-483 1
l-29 7q-29 6 -59 24q-64 39 -64 110v263z" />
    <glyph glyph-name="uFE8E" unicode="&#x627;" horiz-adv-x="544" arabic-form="final" 
d="M232 1379h5l9 1q37 0 72 -28q32 -26 34 -65l50 -810q2 -31 57 -56l59 -13l69 -3v-405h-195q-64 0 -128 46q-71 50 -75 127l-59 1104q-2 46 25 69t77 33z" />
    <glyph glyph-name="uFE90" unicode="&#x628;" horiz-adv-x="1409" arabic-form="final" 
d="M232 405h869q41 0 63 50q6 15 6 33l-20 192q0 51 35 85.5t86 34.5q87 0 115 -71l6 -21l4 -28l30 -517q3 -60 -58.5 -111.5t-146.5 -51.5h-909q-38 0 -66 11l-35 15l-15 7l-16 12q-71 49 -71 97v304l54 -29l37 -10zM779 -102q44 0 72 -26t28 -66q0 -90 -100 -90
q-39 0 -73 26q-29 25 -29 64q0 41 30 68q27 24 72 24z" />
    <glyph glyph-name="uFE91" unicode="&#x628;" horiz-adv-x="775" arabic-form="initial" 
d="M-158 405h511q29 0 51 24l14 26q7 17 7 33l-20 192q0 53 35 86.5t88 33.5t88 -33q30 -30 34 -87l30 -517q4 -65 -59 -116q-56 -47 -144 -47l-483 1l-29 7q-29 6 -59 24q-64 39 -64 110v263zM305 -91q38 0 56 -13l16 -14q28 -24 28 -64q0 -37 -26.5 -65t-73.5 -28
q-101 0 -101 93q0 39 27 65t74 26z" />
    <glyph glyph-name="uFE92" unicode="&#x628;" horiz-adv-x="651" arabic-form="medial" 
d="M-158 405h511q29 0 51 24l14 26q7 17 7 33l-20 192q0 53 35 86.5t88 33.5t88 -33q30 -30 34 -87l30 -517q4 -65 -59 -116q-56 -47 -144 -47l-483 1l-29 7q-29 6 -59 24q-64 39 -64 110v263zM305 -91q38 0 56 -13l16 -14q28 -24 28 -64q0 -37 -26.5 -65t-73.5 -28
q-101 0 -101 93q0 39 27 65t74 26z" />
    <glyph glyph-name="uFE96" unicode="&#x62a;" horiz-adv-x="1423" arabic-form="final" 
d="M643 972q46 0 76 -27l9 -12l10 -16q8 -15 8 -36q0 -42 -30 -67.5t-73 -25.5q-100 0 -100 93q0 37 28 64q8 8 30 19l16 5zM888 962q40 0 71.5 -27t31.5 -66q0 -34 -29 -65l-13 -9l-20 -10l-19 -5l-22 -2q-35 -3 -73 26q-28 28 -28 65q0 39 31 66t70 27zM246 405h869
q41 0 63 50q7 15 7 33l-20 192q0 51 35 85.5t85 34.5q87 0 115 -71l6 -21l5 -28l29 -517q4 -60 -60 -113q-60 -50 -145 -50h-909q-38 0 -66 11l-35 15l-15 7l-16 12q-71 49 -71 97v304l55 -29l37 -10z" />
    <glyph glyph-name="uFE97" unicode="&#x62a;" horiz-adv-x="775" arabic-form="initial" 
d="M264 1096q41 0 70 -25.5t29 -65.5t-29 -66t-70 -26q-101 0 -101 92q0 64 63 85q20 6 38 6zM507 1087q41 0 71.5 -25.5t30.5 -65.5q0 -42 -29.5 -68t-72.5 -26q-102 0 -102 94q0 39 28 65t74 26zM-158 405h511q29 0 51 24l14 26q7 17 7 33l-20 192q0 53 35 86.5t88 33.5
t88 -33q30 -30 34 -87l30 -517q4 -65 -59 -116q-56 -47 -144 -47l-483 1l-29 7q-29 6 -59 24q-64 39 -64 110v263z" />
    <glyph glyph-name="uFE98" unicode="&#x62a;" horiz-adv-x="651" arabic-form="medial" 
d="M264 1096q41 0 70 -25.5t29 -65.5t-29 -66t-70 -26q-101 0 -101 92q0 64 63 85q20 6 38 6zM507 1087q41 0 71.5 -25.5t30.5 -65.5q0 -42 -29.5 -68t-72.5 -26q-102 0 -102 94q0 39 28 65t74 26zM-158 405h511q29 0 51 24l14 26q7 17 7 33l-20 192q0 53 35 86.5t88 33.5
t88 -33q30 -30 34 -87l30 -517q4 -65 -59 -116q-56 -47 -144 -47l-483 1l-29 7q-29 6 -59 24q-64 39 -64 110v263z" />
    <glyph glyph-name="uFE9A" unicode="&#x62b;" horiz-adv-x="1436" arabic-form="final" 
d="M780 1172q43 0 76 -29q26 -23 26 -61q0 -36 -30 -65q-26 -25 -72 -25q-41 0 -75 25q-29 26 -29 65q0 40 33 66q30 24 71 24zM656 972q46 0 76 -27l9 -12l10 -16q8 -15 8 -36q0 -42 -30 -67.5t-73 -25.5q-99 0 -99 93q0 37 27 64q8 8 31 19l16 5zM902 962q39 0 70.5 -27
t31.5 -66q0 -34 -28 -65l-14 -9l-20 -10l-19 -5l-21 -2q-35 -3 -74 26q-28 28 -28 65q0 39 31 66t71 27zM259 405h870q40 0 62 50q7 15 7 33l-20 192q0 51 35 85.5t86 34.5q87 0 115 -71l5 -21l5 -28l29 -517q4 -60 -57.5 -111.5t-147.5 -51.5h-909q-37 0 -65 11l-36 15
l-15 7l-16 12q-70 49 -70 97v304l22 -15l30 -14l32 -9z" />
    <glyph glyph-name="uFE9B" unicode="&#x62b;" horiz-adv-x="775" arabic-form="initial" 
d="M384 1298q41 0 72.5 -24.5t31.5 -64.5t-31.5 -65.5t-72.5 -25.5q-100 0 -100 91q0 41 29.5 65t70.5 24zM264 1096q41 0 70 -25.5t29 -65.5t-29 -66t-70 -26q-101 0 -101 92q0 64 63 85q20 6 38 6zM507 1087q41 0 71.5 -25.5t30.5 -65.5q0 -42 -29.5 -68t-72.5 -26
q-102 0 -102 94q0 39 28 65t74 26zM-158 405h511q29 0 51 24l14 26q7 17 7 33l-20 192q0 53 35 86.5t88 33.5t88 -33q30 -30 34 -87l30 -517q4 -65 -59 -116q-56 -47 -144 -47l-483 1l-29 7q-29 6 -59 24q-64 39 -64 110v263z" />
    <glyph glyph-name="uFE9C" unicode="&#x62b;" horiz-adv-x="651" arabic-form="medial" 
d="M384 1298q41 0 72.5 -24.5t31.5 -64.5t-31.5 -65.5t-72.5 -25.5q-100 0 -100 91q0 41 29.5 65t70.5 24zM264 1096q41 0 70 -25.5t29 -65.5t-29 -66t-70 -26q-101 0 -101 92q0 64 63 85q20 6 38 6zM507 1087q41 0 71.5 -25.5t30.5 -65.5q0 -42 -29.5 -68t-72.5 -26
q-102 0 -102 94q0 39 28 65t74 26zM-158 405h511q29 0 51 24l14 26q7 17 7 33l-20 192q0 53 35 86.5t88 33.5t88 -33q30 -30 34 -87l30 -517q4 -65 -59 -116q-56 -47 -144 -47l-483 1l-29 7q-29 6 -59 24q-64 39 -64 110v263z" />
    <glyph glyph-name="uFE9E" unicode="&#x62c;" horiz-adv-x="986" arabic-form="final" 
d="M431 800q87 0 159 -22q45 -14 65 -29q33 -15 63 -49q62 -47 120 -135q63 -95 71 -160h94v-294q-6 -48 -57 -81q-45 -30 -97 -30h-365q-54 0 -54 -54q0 -20 15 -42q14 -18 39 -25l57 -16l35 -15q12 -3 18 -10l18 -24l9 -24l4 -28l-2 -21q0 -12 -6 -25q-12 -36 -51 -62
q-26 -17 -73 -17q-127 0 -211 58q-74 51 -116 147q-36 83 -36 189q0 289 281 374h216l2 6l2 13q0 35 -37 75q-33 35 -70 49l-24 3h-8q-46 0 -90 -19q-35 -11 -80 -44l-10 -4l-15 -2q-35 0 -66.5 23t-50.5 63v10l-1 11q-6 69 79 142q80 69 173 69zM769 -111q99 0 99 -93
q0 -38 -27 -64q-30 -27 -72 -27t-71.5 25t-29.5 66t29 67t72 26z" />
    <glyph glyph-name="uFE9F" unicode="&#x62c;" horiz-adv-x="970" arabic-form="initial" 
d="M-158 405h635q-16 61 -35 98q-16 29 -48 45q-20 11 -54 11q-33 0 -77 -11q-50 -12 -90 -29l-12 -4h-14q-64 0 -106 103q0 139 202 182l32 3h9q135 0 245.5 -80.5t141.5 -194.5q7 -54 50.5 -91.5t98.5 -37.5q20 0 31 6l1 -285q2 -56 -37 -88t-115 -32l-735 8q-29 6 -59 24
q-64 39 -64 110v263zM353 -111q43 0 73 -27t30 -66q0 -38 -32 -64.5t-71 -26.5t-69 25.5t-30 65.5q0 41 29 67t70 26z" />
    <glyph glyph-name="uFEA0" unicode="&#x62c;" horiz-adv-x="846" arabic-form="medial" 
d="M-161 405h638q-16 61 -35 98q-16 29 -48 45q-20 11 -54 11q-33 0 -77 -11q-50 -12 -90 -29l-12 -4h-14q-64 0 -106 103q0 139 202 182l32 3h9q135 0 245.5 -80.5t141.5 -194.5q7 -54 50.5 -91.5t98.5 -37.5q20 0 31 6l1 -285q2 -56 -37 -88t-115 -32l-735 8q-29 6 -59 24
q-63 39 -64 110zM353 -111q43 0 73 -27t30 -66q0 -38 -32 -64.5t-71 -26.5t-69 25.5t-30 65.5q0 41 29 67t70 26z" />
    <glyph glyph-name="uFEA2" unicode="&#x62d;" horiz-adv-x="974" arabic-form="final" 
d="M418 800q86 0 159 -22q45 -14 65 -29q33 -15 63 -49q61 -47 120 -135q62 -95 71 -160h94v-294q-7 -48 -57 -81q-46 -30 -97 -30h-366q-53 0 -53 -54q0 -20 14 -42q15 -18 39 -25l58 -16l34 -15q13 -3 18 -10l18 -24l10 -24l4 -28l-2 -21q0 -12 -7 -25q-11 -36 -50 -62
q-27 -17 -73 -17q-128 0 -211 58q-74 51 -116 147q-36 83 -36 189q0 289 281 374h216l2 6l1 13q0 35 -36 75q-33 35 -70 49l-25 3h-7q-47 0 -90 -19q-36 -11 -80 -44l-11 -4l-14 -2q-35 0 -66.5 23t-51.5 63v10l-1 11q-5 69 80 142q80 69 173 69z" />
    <glyph glyph-name="uFEA3" unicode="&#x62d;" horiz-adv-x="970" arabic-form="initial" 
d="M-158 405h635q-16 61 -35 98q-16 29 -48 45q-20 11 -54 11q-33 0 -77 -11q-50 -12 -90 -29l-12 -4h-14q-64 0 -106 103q0 139 202 182l32 3h9q135 0 245.5 -80.5t141.5 -194.5q7 -54 50.5 -91.5t98.5 -37.5q20 0 31 6l1 -285q2 -56 -37 -88t-115 -32l-735 8q-29 6 -59 24
q-64 39 -64 110v263z" />
    <glyph glyph-name="uFEA4" unicode="&#x62d;" horiz-adv-x="846" arabic-form="medial" 
d="M-158 405h635q-16 61 -35 98q-16 29 -48 45q-20 11 -54 11q-33 0 -77 -11q-50 -12 -90 -29l-12 -4h-14q-64 0 -106 103q0 139 202 182l32 3h9q135 0 245.5 -80.5t141.5 -194.5q7 -54 50.5 -91.5t98.5 -37.5q20 0 31 6l1 -285q2 -56 -37 -88t-115 -32l-735 8q-29 6 -59 24
q-64 39 -64 110v263z" />
    <glyph glyph-name="uFEA6" unicode="&#x62e;" horiz-adv-x="974" arabic-form="final" 
d="M418 800q86 0 159 -22q45 -14 65 -29q33 -15 63 -49q61 -47 120 -135q62 -95 71 -160h94v-294q-7 -48 -57 -81q-46 -30 -97 -30h-366q-53 0 -53 -54q0 -20 14 -42q15 -18 39 -25l58 -16l34 -15q13 -3 18 -10l18 -24l10 -24l4 -28l-2 -21q0 -12 -7 -25q-11 -36 -50 -62
q-27 -17 -73 -17q-128 0 -211 58q-74 51 -116 147q-36 83 -36 189q0 289 281 374h216l2 6l1 13q0 35 -36 75q-33 35 -70 49l-25 3h-7q-47 0 -90 -19q-36 -11 -80 -44l-11 -4l-14 -2q-35 0 -66.5 23t-51.5 63v10l-1 11q-5 69 80 142q80 69 173 69zM511 1177q31 0 42 -7
q14 -2 32 -19q29 -26 29 -64q0 -91 -103 -91q-28 0 -40 2l-14 6l-22 17q-27 27 -27 66q0 40 31 65t72 25z" />
    <glyph glyph-name="uFEA7" unicode="&#x62e;" horiz-adv-x="846" arabic-form="initial" 
d="M305 1188q40 0 70 -26t30 -66q0 -33 -28 -64q-14 -13 -31 -20q-20 -7 -41 -7q-50 0 -75.5 25t-25.5 66q0 39 27.5 65.5t73.5 26.5zM-161 405h638q-16 61 -35 98q-16 29 -48 45q-20 11 -54 11q-33 0 -77 -11q-50 -12 -90 -29l-12 -4h-14q-64 0 -106 103q0 139 202 182
l32 3h9q135 0 245.5 -80.5t141.5 -194.5q7 -54 50.5 -91.5t98.5 -37.5q20 0 31 6l1 -285q2 -56 -37 -88t-115 -32l-735 8q-29 6 -59 24q-63 39 -64 110z" />
    <glyph glyph-name="uFEA8" unicode="&#x62e;" horiz-adv-x="970" arabic-form="medial" 
d="M305 1188q40 0 70 -26t30 -66q0 -33 -28 -64q-14 -13 -31 -20q-20 -7 -41 -7q-50 0 -75.5 25t-25.5 66q0 39 27.5 65.5t73.5 26.5zM-161 405h638q-16 61 -35 98q-16 29 -48 45q-20 11 -54 11q-33 0 -77 -11q-50 -12 -90 -29l-12 -4h-14q-64 0 -106 103q0 139 202 182
l32 3h9q135 0 245.5 -80.5t141.5 -194.5q7 -54 50.5 -91.5t98.5 -37.5q20 0 31 6l1 -285q2 -56 -37 -88t-115 -32l-735 8q-29 6 -59 24q-63 39 -64 110z" />
    <glyph glyph-name="uFEAA" unicode="&#x62f;" horiz-adv-x="786" arabic-form="final" 
d="M215 671q11 70 66 106q60 39 130 35l35 -2q90 -5 192 -110q88 -90 144 -225q59 -142 59 -264q0 -54 -8 -79q-32 -105 -161 -132h-376q-56 0 -104 51t-48 112v242h427q0 53 -49 110l-22 26l-25 24q-21 20 -49 34l-10 1q-11 0 -27 -10q-35 -22 -53 -22q-51 0 -88 29
q-33 25 -33 74z" />
    <glyph glyph-name="uFEAC" unicode="&#x630;" horiz-adv-x="813" arabic-form="final" 
d="M456 1177q16 0 20 -2q8 0 15 -5q14 -2 31 -19q27 -27 27 -64q0 -40 -26.5 -65.5t-66.5 -25.5q-32 0 -64 25q-25 31 -25 66q0 33 25 64q28 26 64 26zM215 671q11 70 66 106q60 39 130 35l35 -2q90 -5 192 -110q92 -94 146 -224q57 -138 57 -262v-33l-2 -11q0 -18 -6 -38
q-29 -104 -161 -132h-376q-56 0 -104 51t-48 112v242h427q0 53 -49 110l-22 26l-25 24q-21 20 -49 34l-10 1q-11 0 -27 -10q-35 -22 -53 -22q-51 0 -88 29q-33 25 -33 74z" />
    <glyph glyph-name="uFEAE" unicode="&#x631;" horiz-adv-x="496" arabic-form="final" 
d="M137 -132q24 12 39 24l36 27q47 46 47 90l-63 716q0 49 41 90l8 7l11 6l22 15l25 5l27 3q44 0 86 -40q28 -34 33 -100l62 -813q7 -90 -84 -183q-77 -78 -158 -78h-9q-54 0 -104 64q-48 60 -48 117q0 35 29 50z" />
    <glyph glyph-name="uFEB0" unicode="&#x632;" horiz-adv-x="496" arabic-form="final" 
d="M298 1229q47 0 78 -30q32 -25 32 -71t-32 -74.5t-78 -28.5q-45 0 -80 29q-31 26 -31 74q0 43 35 73q32 28 76 28zM137 -132q20 10 39 24l36 27q47 46 47 90l-63 716q0 51 41 88q29 27 67 35q12 3 26 3q44 0 86 -40q28 -34 33 -100l62 -813q7 -90 -84 -183
q-77 -78 -158 -78h-8q-51 0 -102 63t-51 116q0 41 29 52z" />
    <glyph glyph-name="uFEB2" unicode="&#x633;" horiz-adv-x="1749" arabic-form="final" 
d="M1782 182q3 -68 -59 -132q-58 -60 -145 -60q-81 0 -140 51.5t-75 131.5q0 -78 -61.5 -136t-139.5 -58q-79 0 -142 57.5t-63 136.5v-194q0 -170 -117.5 -287t-287.5 -117q-166 0 -280 119t-114 285v296q0 54 33.5 97t86.5 43q54 0 90 -44q33 -41 33 -96v-164
q0 -64 48 -108t113 -44q68 0 116 45q52 49 48 107l-41 550q-4 55 33 100q33 39 89 39q65 0 99 -59q18 -31 21 -80l10 -163q2 -40 27 -66.5t67 -26.5q36 0 64 26t26 67l-10 163q-3 59 30 101q30 38 83 38q51 0 85 -40q31 -36 34 -99l10 -173q1 -22 4.5 -35.5t21.5 -31.5
q33 -27 67 -27q39 0 65.5 27.5t26.5 66.5l-21 173q0 59 32 97q33 42 91 42q51 0 86 -40q32 -38 34 -99z" />
    <glyph glyph-name="uFEB3" unicode="&#x633;" horiz-adv-x="1551" arabic-form="initial" 
d="M-161 405h425q31 0 57 31q23 28 22 62l-10 222q-1 39 25 59q17 13 53 19q11 2 25 2q62 0 89.5 -20t33.5 -80l20 -234q0 -30 31 -54q7 -5 27 -13l34 -4q35 0 63 17q7 5 20 20q6 9 7 24l-11 275q-1 30 37 49.5t84 19.5q78 0 104 -57q8 -18 10 -43l20 -254q2 -30 29 -46
l33 -12l40 -4q57 0 76 50q7 19 5 32l-20 245q-3 33 35 67q29 22 64 22q61 0 89 -21q35 -17 46 -68l30 -488q5 -94 -44 -163q-43 -60 -121 -60q-98 0 -148 27q-58 31 -94 115q-19 -69 -75 -109q-47 -33 -99 -33q-107 0 -162 32q-58 34 -90 110q-14 -59 -64 -100.5t-110 -41.5
l-431 1l-29 7q-29 6 -59 24q-63 39 -64 110z" />
    <glyph glyph-name="uFEB4" unicode="&#x633;" horiz-adv-x="1387" arabic-form="medial" 
d="M-158 405h422q31 0 57 31q23 28 22 62l-10 222q-1 39 25 59q17 13 53 19q11 2 25 2q62 0 89.5 -20t33.5 -80l20 -234q0 -30 31 -54q7 -5 27 -13l34 -4q35 0 63 17q7 5 20 20q6 9 7 24l-11 275q-1 30 37 49.5t84 19.5q78 0 104 -57q8 -18 10 -43l20 -254q2 -30 29 -46
l33 -12l40 -4q57 0 76 50q7 19 5 32l-20 245q-3 33 35 67q29 22 64 22q61 0 89 -21q35 -17 46 -68l30 -488q5 -94 -44 -163q-43 -60 -121 -60q-98 0 -148 27q-58 31 -94 115q-19 -69 -75 -109q-47 -33 -99 -33q-107 0 -162 32q-58 34 -90 110q-14 -59 -64 -100.5t-110 -41.5
l-431 1l-29 7q-29 6 -59 24q-64 39 -64 110v263z" />
    <glyph glyph-name="uFEB6" unicode="&#x634;" horiz-adv-x="1736" arabic-form="final" 
d="M1210 1287q40 0 71 -25t31 -64q0 -34 -29 -66q-28 -25 -73 -25q-41 0 -71.5 25t-30.5 66q0 39 28 64t74 25zM1078 1077q43 0 72 -28t29 -64q0 -41 -30 -67t-71 -26q-40 0 -74 26q-29 26 -29 67q0 37 31 64.5t72 27.5zM1339 1077q46 0 74.5 -27t28.5 -65q0 -35 -28 -66
q-30 -27 -75 -27q-99 0 -99 93q0 34 27 65q32 27 72 27zM1769 182q3 -68 -59 -132q-59 -60 -145 -60q-81 0 -140 51.5t-75 131.5q0 -78 -61.5 -136t-139.5 -58q-80 0 -143 57.5t-63 136.5v-194q0 -170 -117.5 -287t-286.5 -117q-166 0 -280.5 119t-114.5 285v296q0 54 34 97
t87 43q54 0 88.5 -42.5t34.5 -97.5v-164q0 -64 48 -108t113 -44q68 0 116 45q52 49 47 107l-40 550q-4 55 33 100q32 39 88 39q65 0 100 -59q18 -31 21 -80l9 -163q3 -40 28 -66.5t66 -26.5q37 0 65 26t26 67l-10 163q-3 59 30 101q30 38 82 38q51 0 86 -40q31 -36 34 -99
l9 -173q2 -22 5.5 -35.5t21.5 -31.5q32 -27 67 -27q39 0 65.5 27.5t26.5 66.5l-21 173q0 59 31 97q34 42 91 42q52 0 85 -39t36 -100z" />
    <glyph glyph-name="uFEB7" unicode="&#x634;" horiz-adv-x="1551" arabic-form="initial" 
d="M861 1298q39 0 71 -25t32 -64q0 -91 -103 -91q-44 0 -73 25q-27 30 -27 66q0 40 31 65q28 24 69 24zM750 1087q45 0 73 -28q28 -23 28 -63q0 -37 -28 -66q-11 -10 -32 -21q-22 -7 -41 -7q-22 0 -39 6q-13 3 -33 21q-28 27 -28 67q0 39 28 65t72 26zM985 1087q45 0 73 -28
q29 -23 29 -63q0 -37 -30 -66q-10 -10 -31 -21q-22 -7 -41 -7q-43 0 -73 26t-30 68q0 38 32 64.5t71 26.5zM-158 405h422q31 0 57 31q23 28 22 62l-10 222q-1 39 25 59q17 13 53 19q11 2 25 2q62 0 89.5 -20t33.5 -80l20 -234q0 -30 31 -54q7 -5 27 -13l34 -4q35 0 63 17
q7 5 20 20q6 9 7 24l-11 275q-1 30 37 49.5t84 19.5q78 0 104 -57q8 -18 10 -43l20 -254q2 -30 29 -46l33 -12l40 -4q57 0 76 50q7 19 5 32l-20 245q-3 33 35 67q29 22 64 22q61 0 89 -21q35 -17 46 -68l30 -488q5 -94 -44 -163q-43 -60 -121 -60q-98 0 -148 27
q-58 31 -94 115q-19 -69 -75 -109q-47 -33 -99 -33q-107 0 -162 32q-58 34 -90 110q-14 -59 -64 -100.5t-110 -41.5l-431 1l-29 7q-29 6 -59 24q-64 39 -64 110v263z" />
    <glyph glyph-name="uFEB8" unicode="&#x634;" horiz-adv-x="1428" arabic-form="medial" 
d="M861 1298q39 0 71 -25t32 -64q0 -91 -103 -91q-44 0 -73 25q-27 30 -27 66q0 40 31 65q28 24 69 24zM750 1087q45 0 73 -28q28 -23 28 -63q0 -37 -28 -66q-11 -10 -32 -21q-22 -7 -41 -7q-22 0 -39 6q-13 3 -33 21q-28 27 -28 67q0 39 28 65t72 26zM985 1087q45 0 73 -28
q29 -23 29 -63q0 -37 -30 -66q-10 -10 -31 -21q-22 -7 -41 -7q-43 0 -73 26t-30 68q0 38 32 64.5t71 26.5zM-158 405h422q31 0 57 31q23 28 22 62l-10 222q-1 39 25 59q17 13 53 19q11 2 25 2q62 0 89.5 -20t33.5 -80l20 -234q0 -30 31 -54q7 -5 27 -13l34 -4q35 0 63 17
q7 5 20 20q6 9 7 24l-11 275q-1 30 37 49.5t84 19.5q78 0 104 -57q8 -18 10 -43l20 -254q2 -30 29 -46l33 -12l40 -4q57 0 76 50q7 19 5 32l-20 245q-3 33 35 67q29 22 64 22q61 0 89 -21q35 -17 46 -68l30 -488q5 -94 -44 -163q-43 -60 -121 -60q-98 0 -148 27
q-58 31 -94 115q-19 -69 -75 -109q-47 -33 -99 -33q-107 0 -162 32q-58 34 -90 110q-14 -59 -64 -100.5t-110 -41.5l-431 1l-29 7q-29 6 -59 24q-64 39 -64 110v263z" />
    <glyph glyph-name="uFEBA" unicode="&#x635;" horiz-adv-x="1875" arabic-form="final" 
d="M957 0q0 -175 -114 -298q-117 -127 -291 -127q-166 0 -280 119t-114 285v296q0 54 33.5 97t86.5 43q54 0 90 -44q33 -41 33 -96v-164q0 -64 48 -108t113 -44q68 0 116 45q52 49 48 107l-41 550q-4 55 33 100q33 39 89 39q65 0 99 -59q18 -31 21 -80l10 -163
q133 137 290 222q167 90 301 90q179 0 280 -176q83 -146 83 -339q0 -187 -50 -247q-41 -48 -170 -48h-714zM1130 405h510q-14 75 -62 117l-40 21l-24 9l-27 7l-58 3q-90 0 -168 -40l-35 -24l-32 -26q-23 -18 -64 -67z" />
    <glyph glyph-name="uFEBB" unicode="&#x635;" horiz-adv-x="1707" arabic-form="initial" 
d="M-161 405h384q92 0 132 59q29 41 29 104v143q0 35 38.5 67t75.5 32q44 0 80 -27q40 -30 40 -72v-192q169 156 305 227q152 79 265 72l44 -3l35 -5q110 -14 200 -136q102 -137 108 -290l10 -242q2 -56 -54 -99t-119 -43h-813q-48 0 -108 49q-55 45 -76 93
q-68 -142 -242 -142l-179 1l-29 7q-29 6 -59 24q-63 39 -64 110zM790 405h549q-46 163 -171 163q-105 0 -191 -36q-97 -41 -187 -127z" />
    <glyph glyph-name="uFEBC" unicode="&#x635;" horiz-adv-x="1565" arabic-form="medial" 
d="M-158 405h381q92 0 132 59q29 41 29 104v143q0 35 38.5 67t75.5 32q44 0 80 -27q40 -30 40 -72v-192q169 156 305 227q152 79 265 72l44 -3l35 -5q110 -14 200 -136q102 -137 108 -290l10 -242q2 -56 -54 -99t-119 -43h-813q-48 0 -108 49q-55 45 -76 93
q-68 -142 -242 -142l-179 1l-29 7q-29 6 -59 24q-64 39 -64 110v263zM790 405h549q-46 163 -171 163q-105 0 -191 -36q-97 -41 -187 -127z" />
    <glyph glyph-name="uFEBE" unicode="&#x636;" horiz-adv-x="1852" arabic-form="final" 
d="M1271 1287q43 0 71 -24q11 -10 20 -29l6 -16l2 -20q0 -91 -99 -91q-39 0 -73 25q-29 26 -29 66q0 36 29 65q24 24 73 24zM943 0q0 -175 -114 -298q-117 -127 -290 -127q-166 0 -280.5 119t-114.5 285v296q0 54 34 97t87 43q54 0 88.5 -42.5t34.5 -97.5v-164
q0 -64 48 -108t113 -44q68 0 116 45q52 49 47 107l-40 550q-4 55 33 100q32 39 88 39q65 0 100 -59q18 -31 21 -80l9 -163q134 137 291 222q167 90 300 90q180 0 280 -176q84 -146 84 -339q0 -187 -50 -247q-41 -48 -170 -48h-715zM1117 405h509q-13 75 -61 117l-40 21
l-24 9l-28 7l-58 3q-89 0 -168 -40l-34 -24l-32 -26q-23 -18 -64 -67z" />
    <glyph glyph-name="uFEBF" unicode="&#x636;" horiz-adv-x="1693" arabic-form="initial" 
d="M1035 1298q45 0 79 -28t34 -72q0 -40 -33 -73q-34 -29 -80 -29t-79 28.5t-33 73.5q0 43 34 71.5t78 28.5zM-158 405h381q92 0 132 59q29 41 29 104v143q0 35 38.5 67t75.5 32q44 0 80 -27q40 -30 40 -72v-192q169 156 305 227q152 79 265 72l44 -3l35 -5
q110 -14 200 -136q102 -137 108 -290l10 -242q2 -56 -54 -99t-119 -43h-813q-48 0 -108 49q-55 45 -76 93q-68 -142 -242 -142l-179 1l-29 7q-29 6 -59 24q-64 39 -64 110v263zM790 405h549q-46 163 -171 163q-105 0 -191 -36q-97 -41 -187 -127z" />
    <glyph glyph-name="uFEC0" unicode="&#x636;" horiz-adv-x="1551" arabic-form="medial" 
d="M1035 1298q45 0 79 -28t34 -72q0 -40 -33 -73q-34 -29 -80 -29t-79 28.5t-33 73.5q0 43 34 71.5t78 28.5zM-158 405h381q92 0 132 59q29 41 29 104v143q0 35 38.5 67t75.5 32q44 0 80 -27q40 -30 40 -72v-192q169 156 305 227q152 79 265 72l44 -3l35 -5
q110 -14 200 -136q102 -137 108 -290l10 -242q2 -56 -54 -99t-119 -43h-813q-48 0 -108 49q-55 45 -76 93q-68 -142 -242 -142l-179 1l-29 7q-29 6 -59 24q-64 39 -64 110v263zM790 405h549q-46 163 -171 163q-105 0 -191 -36q-97 -41 -187 -127z" />
    <glyph glyph-name="uFEC2" unicode="&#x637;" horiz-adv-x="1486" arabic-form="final" 
d="M347 0q-78 0 -133 32q-63 37 -63 110v294l16 -9l22 -10l37 -9l39 -3h187l-41 903q-1 27 32 49t71 22l6 1h10q38 0 71 -24t35 -58l41 -699q258 223 510 223q85 0 167 -85q75 -78 121 -217q30 -88 35 -187l11 -181q3 -44 -63 -99q-62 -53 -133 -53h-978zM687 405h591
q-20 88 -72 134q-49 41 -128 41h-12l-12 -1q-29 -1 -87 -12l-44 -14q-16 -5 -44 -19l-50 -24l-21 -11l-31 -20q-42 -27 -90 -74z" />
    <glyph glyph-name="uFEC3" unicode="&#x637;" horiz-adv-x="1428" arabic-form="initial" 
d="M-158 405h401l-39 903q-1 25 32 50q39 21 69 21l10 1h9q31 0 65 -26t36 -56l41 -699l62 50l63 44q56 40 125 72q126 57 259 57q95 0 177 -92q66 -74 104 -180q25 -70 31 -111l8 -51l3 -55l10 -181q3 -46 -59 -99t-131 -53l-1153 8q-29 6 -59 24q-64 39 -64 110v263z
M477 405h589q-12 84 -69 130q-61 48 -133 45l-23 -1q-17 0 -52 -5l-59 -17q-32 -9 -64 -23l-33 -14l-64 -38l-31 -24q-35 -27 -61 -53z" />
    <glyph glyph-name="uFEC4" unicode="&#x637;" horiz-adv-x="1277" arabic-form="medial" 
d="M-158 405h401l-39 903q-1 25 32 50q39 21 69 21l10 1h9q31 0 65 -26t36 -56l41 -699l62 50l63 44q56 40 125 72q126 57 259 57q95 0 177 -92q66 -74 104 -180q25 -70 31 -111l8 -51l3 -55l10 -181q3 -46 -59 -99t-131 -53l-1153 8q-29 6 -59 24q-64 39 -64 110v263z
M477 405h589q-12 84 -69 130q-61 48 -133 45l-23 -1q-17 0 -52 -5l-59 -17q-32 -9 -64 -23l-33 -14l-64 -38l-31 -24q-35 -27 -61 -53z" />
    <glyph glyph-name="uFEC6" unicode="&#x638;" horiz-adv-x="1472" arabic-form="final" 
d="M347 0q-78 0 -133 32q-63 37 -63 110v294l16 -9l22 -10l37 -9l39 -3h187l-41 903q-1 27 32 49t71 22l6 1h10q38 0 71 -24t35 -58l41 -699q258 223 510 223q85 0 167 -85q75 -78 122 -218q29 -87 34 -186l11 -181q3 -44 -63 -99q-62 -53 -133 -53h-978zM687 405h591
q-20 88 -72 134q-49 41 -128 41h-12l-12 -1q-29 -1 -87 -12l-44 -14q-16 -5 -44 -19l-50 -24l-21 -11l-31 -20q-42 -27 -90 -74zM929 1298q104 0 104 -100q0 -44 -30 -73t-74 -29q-40 0 -73 29q-27 32 -27 73q0 42 27.5 71t72.5 29z" />
    <glyph glyph-name="uFEC7" unicode="&#x638;" horiz-adv-x="1428" arabic-form="initial" 
d="M-158 405h401l-39 903q-1 25 32 50q39 21 69 21l10 1h9q31 0 65 -26t36 -56l41 -699l62 50l63 44q56 40 125 72q126 57 259 57q95 0 177 -92q66 -74 104 -180q25 -70 31 -111l8 -51l3 -55l10 -181q3 -46 -59 -99t-131 -53l-1153 8q-29 6 -59 24q-64 39 -64 110v263z
M477 405h589q-12 84 -69 130q-61 48 -133 45l-23 -1q-17 0 -52 -5l-59 -17q-32 -9 -64 -23l-33 -14l-64 -38l-31 -24q-35 -27 -61 -53zM720 1298q43 0 73 -27q29 -31 29 -73q0 -43 -29.5 -72.5t-72.5 -29.5q-44 0 -73 29t-29 73q0 46 28 73t74 27z" />
    <glyph glyph-name="uFEC8" unicode="&#x638;" horiz-adv-x="1304" arabic-form="medial" 
d="M-158 405h401l-39 903q-1 25 32 50q39 21 69 21l10 1h9q31 0 65 -26t36 -56l41 -699l62 50l63 44q56 40 125 72q126 57 259 57q95 0 177 -92q66 -74 104 -180q25 -70 31 -111l8 -51l3 -55l10 -181q3 -46 -59 -99t-131 -53l-1153 8q-29 6 -59 24q-64 39 -64 110v263z
M477 405h589q-12 84 -69 130q-61 48 -133 45l-23 -1q-17 0 -52 -5l-59 -17q-32 -9 -64 -23l-33 -14l-64 -38l-31 -24q-35 -27 -61 -53zM720 1298q43 0 73 -27q29 -31 29 -73q0 -43 -29.5 -72.5t-72.5 -29.5q-44 0 -73 29t-29 73q0 46 28 73t74 27z" />
    <glyph glyph-name="uFECA" unicode="&#x639;" horiz-adv-x="953" arabic-form="final" 
d="M958 405v-284q0 -58 -66 -93q-54 -28 -117 -28h-264q-23 0 -37 -17q-12 -25 -12 -45v-13q0 -27 29 -36l112 -21q47 0 80 -30.5t33 -91.5q-20 -99 -133 -99l-18 -2h-20q-156 0 -273 105q-121 109 -135 250l-3 28v10q0 120 72 224.5t183 152.5l6 14q0 6 -15 27l-29 32
l-58 32l-46 26l-37 25q-44 29 -44 59l1 53l7 48q0 7 4 15l10 28q17 46 49 67q83 41 164 60q25 6 78 14l83 6l45 -2l32 -2l41 -6l37 -9q92 -21 160 -51q32 -22 58 -77l12 -47l4 -33l1 -19q2 -44 -15 -76l-26 -26l-42 -14l-24 -5l-19 -6q-21 -6 -57 -51q-19 -30 -25 -64
q0 -25 31 -28h183zM543 741q-84 0 -84 -52v-10l1 -8q2 -8 16 -19l77 -63l17 21l28 25q21 19 37 45l1 8v10q0 43 -93 43z" />
    <glyph glyph-name="uFECB" unicode="&#x639;" horiz-adv-x="1047" arabic-form="initial" 
d="M-158 405h401q-26 36 -44 85l-11 46l-4 47q-8 103 81 203q86 96 223 127l17 4l14 1l34 1q90 2 184 -52q79 -45 114 -126l9 -32l4 -26q0 -26 -33 -65l-22 -18q-9 -8 -22 -12l-20 -7l-26 -3h-22l-24 7l-27 11l-29 13l-29 5l-14 1h-12q-77 0 -107 -87q0 -38 14 -66l14 -20
q27 -37 74 -37h231q16 0 38 11l38 28l4 -7l2 -12v-304q0 -37 -48 -83q-50 -38 -94 -38l-785 8q-29 6 -59 24q-64 39 -64 110v263z" />
    <glyph glyph-name="uFECC" unicode="&#x639;" horiz-adv-x="970" arabic-form="medial" 
d="M-161 405h534l6 11l4 12q0 10 -17 36l-23 24l-54 32l-51 27l-33 24q-42 30 -42 59v42l1 35q9 71 39 108q16 16 31 26l41 20l29 12q42 18 83 26l39 7l61 10q31 5 84 5h35l41 -4l34 -4q10 0 13 -2l31 -7q88 -19 146 -53q38 -16 59 -60q19 -39 17 -86l-1 -25l-1 -18l-10 -53
l-22 -19l-20 -14l-30 -15l-38 -13q-32 -3 -58 -43.5t-26 -75.5q0 -19 20 -24h214v-405h-104q-37 0 -68 28l-28 33l-12 18l-13 23l-28 -28l-24 -21q-28 -25 -67 -38l-34 -11l-38 -4l-565 1l-29 7q-29 6 -59 24q-63 39 -64 110zM539 741q-47 0 -66 -13q-20 -17 -20 -40
q0 -15 4 -20l8 -7l57 -46l26 -26l24 25l21 21q27 26 37 45v8l1 10q0 43 -92 43z" />
    <glyph glyph-name="uFECE" unicode="&#x63a;" horiz-adv-x="953" arabic-form="final" 
d="M543 1298q39 0 70 -25.5t31 -63.5t-26 -64.5t-75 -26.5q-104 0 -104 91q0 42 31 65.5t73 23.5zM958 405v-284q0 -58 -66 -93q-54 -28 -117 -28h-264q-23 0 -37 -17q-12 -25 -12 -45v-13q0 -27 29 -36l112 -21q47 0 80 -30.5t33 -91.5q-20 -99 -133 -99l-18 -2h-20
q-156 0 -273 105q-121 109 -135 250l-3 28v10q0 120 72 224.5t183 152.5l6 14q0 6 -15 27l-29 32l-58 32l-46 26l-37 25q-44 29 -44 59l1 53l7 48q0 7 4 15l10 28q17 46 49 67q83 41 164 60q25 6 78 14l83 6l45 -2l32 -2l41 -6l37 -9q92 -21 160 -51q32 -22 58 -77l12 -47
l4 -33l1 -19q2 -44 -15 -76l-26 -26l-42 -14l-24 -5l-19 -6q-21 -6 -57 -51q-19 -30 -25 -64q0 -25 31 -28h183zM543 741q-84 0 -84 -52v-10l1 -8q2 -8 16 -19l77 -63l17 21l28 25q21 19 37 45l1 8v10q0 43 -93 43z" />
    <glyph glyph-name="uFECF" unicode="&#x63a;" horiz-adv-x="1047" arabic-form="initial" 
d="M507 1287q40 0 71 -25t31 -64q0 -91 -102 -91q-40 0 -71 25.5t-31 65.5q0 31 28 65q28 24 74 24zM-158 405h401q-26 36 -44 85l-11 46l-4 47q-8 103 81 203q86 96 223 127l17 4l14 1l34 1q90 2 184 -52q79 -45 114 -126l9 -32l4 -26q0 -26 -33 -65l-22 -18q-9 -8 -22 -12
l-20 -7l-26 -3h-22l-24 7l-27 11l-29 13l-29 5l-14 1h-12q-77 0 -107 -87q0 -38 14 -66l14 -20q27 -37 74 -37h231q16 0 38 11l38 28l4 -7l2 -12v-304q0 -37 -48 -83q-50 -38 -94 -38l-785 8q-29 6 -59 24q-64 39 -64 110v263z" />
    <glyph glyph-name="uFED0" unicode="&#x63a;" horiz-adv-x="970" arabic-form="medial" 
d="M466 1287q68 0 94 -53l6 -16l2 -20q0 -91 -102 -91q-42 0 -72.5 24.5t-30.5 66.5q0 39 32 64t71 25zM-158 405h531l6 11l4 12q0 10 -17 36l-23 24l-54 32l-51 27l-33 24q-42 30 -42 59v42l1 35q9 71 39 108q16 16 31 26l41 20l29 12q42 18 83 26l39 7l61 10q31 5 84 5h35
l41 -4l34 -4q10 0 13 -2l31 -7q88 -19 146 -53q38 -16 59 -60q19 -39 17 -86l-1 -25l-1 -18l-10 -53l-22 -19l-20 -14l-30 -15l-38 -13q-32 -3 -58 -43.5t-26 -75.5q0 -19 20 -24h214v-405h-104q-37 0 -68 28l-28 33l-12 18l-13 23l-28 -28l-24 -21q-28 -25 -67 -38l-34 -11
l-38 -4l-565 1l-29 7q-29 6 -59 24q-64 39 -64 110v263zM539 741q-47 0 -66 -13q-20 -17 -20 -40q0 -15 4 -20l8 -7l57 -46l26 -26l24 25l21 21q27 26 37 45v8l1 10q0 43 -92 43z" />
    <glyph glyph-name="uFED2" unicode="&#x641;" horiz-adv-x="1440" arabic-form="final" 
d="M1071 1267q24 2 41 -4q13 -3 37 -21q34 -27 34 -65q0 -37 -33 -65q-29 -25 -79 -25q-49 0 -81 24.5t-32 65.5q0 37 32 63q17 13 32 18l25 7zM1467 142q0 -49 -61.5 -95.5t-112.5 -46.5h-974q-63 0 -132.5 45t-69.5 97v304l27 -17l27 -13q34 -11 66 -11h731l-70 100
l-20 34q-23 38 -23 79q0 113 77 188.5t189 75.5q114 0 225 -123q99 -110 111 -282l9 -119l4 -185zM1151 618q-26 0 -40.5 -12.5t-14.5 -33.5q0 -31 46 -74l-1 -13l-3 -33q-1 -18 9 -44q10 -14 36 -14q42 0 64 17q26 18 23 53l-1 13l-5 30q-5 36 -41 73.5t-72 37.5z" />
    <glyph glyph-name="uFED3" unicode="&#x641;" horiz-adv-x="788" arabic-form="initial" 
d="M313 1267q45 0 78.5 -26t33.5 -64q0 -41 -37 -67q-32 -23 -75 -23q-109 0 -109 90q0 40 36 66q32 24 73 24zM-158 405h372l-44 60l-28 41l-19 33q-21 37 -21 79q0 111 75 187.5t186 76.5q116 0 226 -126q96 -109 111 -279l11 -120l1 -70l1 -114l-2 -31q0 -50 -62 -97
q-58 -45 -110 -45l-545 1l-29 7q-29 6 -59 24q-64 39 -64 110v263zM394 618q-27 0 -41.5 -12.5t-14.5 -33.5q0 -31 46 -74l-1 -13v-11q0 -26 8 -46q12 -20 45 -23q36 0 61 11q20 14 18 42l-2 23l-6 26q-9 42 -43 75q-38 36 -70 36z" />
    <glyph glyph-name="uFED4" unicode="&#x641;" horiz-adv-x="705" arabic-form="medial" 
d="M352 1224q42 0 75 -25q37 -27 37 -67t-37 -66q-32 -24 -75 -24q-46 0 -80 24.5t-34 65.5t38 68q34 24 76 24zM-158 405h372l-44 60l-28 41l-19 33q-21 37 -21 79q0 111 75 187.5t186 76.5q116 0 226 -126q96 -109 111 -279l11 -120l1 -70l1 -114l-2 -31q0 -50 -62 -97
q-58 -45 -110 -45h-507q-76 0 -128 32q-62 39 -62 110v263zM394 618q-27 0 -41.5 -12.5t-14.5 -33.5q0 -31 46 -74l-1 -13v-11q0 -26 8 -46q12 -20 45 -23q36 0 61 11q20 14 18 42l-2 23l-6 26q-9 42 -43 75q-38 36 -70 36z" />
    <glyph glyph-name="uFED6" unicode="&#x642;" horiz-adv-x="1063" arabic-form="final" 
d="M579 1219q51 0 87 -31.5t36 -80.5q0 -46 -36.5 -79.5t-86.5 -31.5l-27 1q-33 1 -63 31q-33 33 -33 79q0 49 37 80.5t86 31.5zM863 1209q49 0 86 -32t37 -81q0 -47 -37.5 -79t-85.5 -32q-51 0 -86.5 30.5t-35.5 80.5q0 47 35.5 80t86.5 33zM1036 568l12 -67l9 -69l4 -65
l2 -75l3 -171q3 -208 -136 -364q-136 -151 -321 -151q-110 0 -232 84q-107 74 -177 177q-55 82 -72 180q-2 16 -5 64l-11 164q-3 44 35 88q34 42 88 42q110 0 119 -110l11 -122q8 -97 69 -156q69 -67 165 -67q94 0 173 85t79 179l-37 -19l-53 -13q-111 0 -197 131
q-78 118 -78 235q0 115 69 201q74 92 186 92q101 0 189 -91q75 -77 106 -182zM851 363l5 51q0 67 -25.5 118t-57.5 48l-12 -1q-17 -1 -26 -19q-8 -14 -8 -34q0 -48 39 -100t85 -63z" />
    <glyph glyph-name="uFED7" unicode="&#x642;" horiz-adv-x="775" arabic-form="initial" 
d="M229 1224q41 0 76.5 -26t35.5 -66q0 -39 -32 -63q-35 -27 -80 -27q-47 0 -78.5 26t-31.5 64q0 41 36 67q32 25 74 25zM498 1219q27 0 41 -8q24 -8 37 -21q33 -25 33 -62t-33 -66q-11 -9 -37 -21l-20 -5l-21 -1q-45 0 -78 23q-36 27 -36 70q0 34 32.5 62.5t81.5 28.5z
M-158 405h372l-44 60l-28 41l-19 33q-21 37 -21 79q0 111 75 187.5t186 76.5q116 0 226 -126q96 -109 111 -279l11 -120l1 -70l1 -114l-2 -31q0 -50 -62 -97q-58 -45 -110 -45l-545 1l-29 7q-29 6 -59 24q-64 39 -64 110v263zM394 618q-27 0 -41.5 -12.5t-14.5 -33.5
q0 -31 46 -74l-1 -13v-11q0 -26 8 -46q12 -20 45 -23q36 0 61 11q20 14 18 42l-2 23l-6 26q-9 42 -43 75q-38 36 -70 36z" />
    <glyph glyph-name="uFED8" unicode="&#x642;" horiz-adv-x="705" arabic-form="medial" 
d="M229 1224q41 0 76.5 -26t35.5 -66q0 -39 -32 -63q-35 -27 -80 -27q-47 0 -78.5 26t-31.5 64q0 41 36 67q32 25 74 25zM498 1219q27 0 41 -8q24 -8 37 -21q33 -25 33 -62t-33 -66q-11 -9 -37 -21l-20 -5l-21 -1q-45 0 -78 23q-36 27 -36 70q0 34 32.5 62.5t81.5 28.5z
M-158 405h372l-44 60l-28 41l-19 33q-21 37 -21 79q0 111 75 187.5t186 76.5q116 0 226 -126q96 -109 111 -279l11 -120l1 -70l1 -114l-2 -31q0 -50 -62 -97q-58 -45 -110 -45l-545 1l-29 7q-29 6 -59 24q-64 39 -64 110v263zM394 618q-27 0 -41.5 -12.5t-14.5 -33.5
q0 -31 46 -74l-1 -13v-11q0 -26 8 -46q12 -20 45 -23q36 0 61 11q20 14 18 42l-2 23l-6 26q-9 42 -43 75q-38 36 -70 36z" />
    <glyph glyph-name="uFEDE" unicode="&#x644;" horiz-adv-x="857" arabic-form="final" 
d="M118 0l-30 305q0 53 34.5 92t86.5 39q50 0 84 -41q26 -32 29 -90l10 -163q3 -63 44 -106q43 -46 107 -46q61 0 113.5 41.5t48.5 100.5l-80 1197q-2 30 32 57q31 26 79 26q42 0 75.5 -24t36.5 -59l99 -1308q1 -14 1 -27q0 -143 -112 -271t-273 -128q-163 0 -276 122
q-109 118 -109 283z" />
    <glyph glyph-name="uFEDF" unicode="&#x644;" horiz-adv-x="644" arabic-form="initial" 
d="M-158 405h340q48 0 81.5 27.5t31.5 74.5l-31 780q-1 39 37 69q39 23 83 23q35 0 69 -28.5t35 -63.5l51 -1114q3 -71 -46 -124q-47 -49 -120 -49l-379 1l-29 7q-29 6 -59 24q-64 39 -64 110v263z" />
    <glyph glyph-name="uFEE0" unicode="&#x644;" horiz-adv-x="528" arabic-form="medial" 
d="M-158 405h340q48 0 81.5 27.5t31.5 74.5l-31 780q-1 39 37 69q39 23 83 23q35 0 69 -28.5t35 -63.5l51 -1114q3 -71 -46 -124q-47 -49 -120 -49l-379 1l-29 7q-29 6 -59 24q-64 39 -64 110v263z" />
    <glyph glyph-name="uFEE2" unicode="&#x645;" horiz-adv-x="1111" arabic-form="final" 
d="M150 -234l-49 693q1 39 49 39q17 0 78 -32l45 -22q10 -4 29 -8q83 0 110 62q36 128 125 211q97 91 222 91q164 0 271 -161q95 -143 95 -315q0 -105 -29 -175q-31 -78 -82 -140q-15 -12 -34 -24q-12 -8 -39 -19q-39 -16 -92 -16q-69 0 -131 40q-70 46 -70 112
q0 47 33 79.5t78 32.5q17 0 26 3l27 1l49 8q15 6 18 28l3 24l1 21q2 54 -25 95q-25 38 -58 38q-17 0 -41 -17q-39 -28 -73 -110l-31 -74l-28 -89q-32 -142 -173 -142h-83l22 -251q0 -48 -36.5 -80t-84.5 -32q-50 0 -86 36q-31 31 -36 93z" />
    <glyph glyph-name="uFEE3" unicode="&#x645;" horiz-adv-x="1137" arabic-form="initial" 
d="M-158 405l400 3l24 8l19 11q41 25 48 50q38 126 126 210q98 94 221 94q145 0 256 -144q114 -147 110 -332l-1 -49q-1 -29 -5 -45l-10 -41q-17 -66 -48 -114l-26 -42l-21 -24q-21 -23 -71 -46l-38 -10q-22 -5 -56 -5q-68 0 -131 41q-71 47 -71 112q0 38 32.5 74t79.5 38
l23 1l26 4h25q16 0 27 6q19 8 19 29l3 21l1 18q3 57 -31 104q-31 43 -69 43q-19 0 -38 -15q-25 -19 -46 -67l-18 -42l-21 -60l-19 -68l-14 -47q-17 -58 -77 -91q-53 -30 -118 -30l-359 1l-29 7q-29 6 -59 24q-64 39 -64 110v263z" />
    <glyph glyph-name="uFEE4" unicode="&#x645;" horiz-adv-x="1041" arabic-form="medial" 
d="M-158 405l400 3l24 8l19 11q41 25 48 50q38 126 126 210q98 94 221 94q145 0 256 -144q114 -147 110 -332l-1 -49q-1 -29 -5 -45l-10 -41q-17 -66 -48 -114l-26 -42l-21 -24q-21 -23 -71 -46l-38 -10q-22 -5 -56 -5q-68 0 -131 41q-71 47 -71 112q0 38 32.5 74t79.5 38
l23 1l26 4h25q16 0 27 6q19 8 19 29l3 22l1 22q2 53 -25 95q-26 38 -59 38q-12 0 -20 -4l-7 -4l-13 -9q-42 -38 -72 -109l-30 -72l-30 -92q-18 -58 -77 -91q-52 -30 -118 -30l-359 1l-29 7q-29 6 -59 24q-64 39 -64 110v263z" />
    <glyph glyph-name="uFEE6" unicode="&#x646;" horiz-adv-x="970" arabic-form="final" 
d="M106 -50l-9 334q-2 52 29 86.5t82 34.5q47 0 81 -35q25 -26 30 -86l12 -142q6 -79 39 -122q40 -51 111 -51q64 0 114 51q54 56 49 122l-41 549q-3 40 34 86q37 33 89 33q48 0 78 -32l9 -15l10 -22l12 -50l48 -733q-1 -21 -11 -48l-18 -49l-26 -53q-57 -97 -146 -161
q-100 -72 -201 -72q-149 0 -262 112q-108 107 -113 263zM389 781q40 0 71 -25t31 -65q0 -35 -28 -66q-29 -26 -74 -26q-37 0 -73 25q-27 26 -27 67q0 34 28 62t72 28z" />
    <glyph glyph-name="uFEE7" unicode="&#x646;" horiz-adv-x="762" arabic-form="initial" 
d="M456 1203q42 0 72.5 -25t30.5 -67q0 -34 -31 -64q-12 -10 -33 -18q-24 -7 -39 -7q-103 0 -103 89q0 42 32 68q29 24 71 24zM-161 405h514q29 0 51 24l14 26q7 17 7 33l-20 192q0 53 35 86.5t88 33.5t88 -33q30 -30 34 -87l30 -517q4 -65 -59 -116q-56 -47 -144 -47
l-483 1l-29 7q-29 6 -59 24q-63 39 -64 110z" />
    <glyph glyph-name="uFEE8" unicode="&#x646;" horiz-adv-x="651" arabic-form="medial" 
d="M456 1203q42 0 72.5 -25t30.5 -67q0 -34 -31 -64q-12 -10 -33 -18q-24 -7 -39 -7q-103 0 -103 89q0 42 32 68q29 24 71 24zM-161 405h514q29 0 51 24l14 26q7 17 7 33l-20 192q0 53 35 86.5t88 33.5t88 -33q30 -30 34 -87l30 -517q4 -65 -59 -116q-56 -47 -144 -47
l-483 1l-29 7q-29 6 -59 24q-63 39 -64 110z" />
    <glyph glyph-name="uFEEA" unicode="&#x647;" horiz-adv-x="873" arabic-form="final" 
d="M606 132q-31 -55 -97 -97q-68 -45 -129 -45q-126 0 -204 118q-68 103 -68 235q0 141 98.5 250.5t214.5 106.5l35 -1q8 0 35 -8q5 0 14 -4l17 -7l16 -8q9 -4 17 -11v59q0 40 31 73q33 29 80 29q41 0 78 -29q29 -23 33 -73l20 -254q3 -38 16 -49q10 -5 28 -9l46 -3v-405
h-150q-48 0 -85 38q-34 35 -46 94zM575 425l-10 82q-45 24 -90 24q-34 0 -62 -16q-23 -14 -33 -49v-8q0 -23 28 -46q29 -18 71 -18q47 0 96 31z" />
    <glyph glyph-name="uFEEB" unicode="&#x647;" horiz-adv-x="1004" arabic-form="initial" 
d="M-158 405h442l-20 24l-18 31q-12 40 -12 68q0 68 46.5 115.5t113.5 47.5q70 0 117.5 -46.5t47.5 -116.5q0 -29 -13 -60l-16 -31l-23 -32h164l3 28v29q0 133 -62 227q-71 111 -197 111h-35q-15 -2 -43 -8l-21 -9q-50 -15 -93 -63l-21 -11l-24 -4q-44 0 -86 37t-42 80
q9 84 126 155q80 49 206 65q34 4 74 4q212 0 366 -231l24 -49l8 -18l11 -35q14 -41 17 -95l20 -476q3 -47 -50 -94.5t-102 -47.5l-785 8q-29 6 -59 24q-64 39 -64 110v263z" />
    <glyph glyph-name="uFEEC" unicode="&#x647;" horiz-adv-x="898" arabic-form="medial" 
d="M-161 405h456q-19 19 -39 53q-13 32 -13 70q0 70 46 116.5t116 46.5q69 0 116 -46.5t47 -116.5q0 -27 -12 -62q-5 -13 -37 -61h161l3 28l1 29q5 135 -66 236.5t-193 101.5h-36q-14 -2 -42 -8q-6 -3 -21 -9l-26 -11l-25 -15q-21 -12 -41 -37l-21 -11l-25 -4q-39 0 -86 37
q-40 40 -40 80q0 82 126 155q121 69 278 69q111 0 211 -69q91 -62 153 -163q58 -96 62 -196l21 -476q2 -42 -49 -94q-48 -48 -103 -48l-796 8q-29 6 -59 24q-63 39 -64 110z" />
    <glyph glyph-name="uFEEE" unicode="&#x648;" horiz-adv-x="771" arabic-form="final" 
d="M436 -214l62 53q25 18 41 59q31 49 31 103q0 29 -10 49q-3 12 -16 12q-3 0 -46 -31t-62 -31q-145 0 -243 128q-90 117 -90 266q0 166 95.5 286t237.5 120q102 0 191 -77q78 -67 138 -191q58 -120 57 -227l-8 -356l-5 -38q0 -35 -6 -67l-9 -41l-12 -37q-46 -137 -162 -191
l-16 -4l-20 -3q-57 0 -112 58t-55 112q0 32 19 48zM539 214l9 12l19 18q15 15 15 36v12l-3 13q-4 23 -26 61l-8 13l-8 13q-4 9 -20 28q-51 58 -106 58q-20 0 -24 -2q-28 -2 -46 -43l-5 -22l-1 -23q-1 -30 11 -58q19 -46 68 -57l38 -4q40 0 62 -14q11 -10 25 -41z" />
    <glyph glyph-name="uFEF0" unicode="&#x649;" horiz-adv-x="1084" arabic-form="final" 
d="M1164 -37q28 -6 28 -59v-15l-2 -22l-6 -30q-5 -21 -13 -35q-19 -54 -38 -66q-80 -54 -210 -85q-105 -24 -267 -24q-76 0 -147 6q-40 2 -61 6q-1 0 -68 15q-118 27 -194 86q-79 62 -82 156l-15 405q0 40 25 70q27 34 83 34h9l12 2q34 0 62 -21t31 -62l21 -274
q5 -71 90 -112q76 -37 198 -37q40 0 93 7q16 1 49 7q22 6 36 12t29 23q15 12 15 28q0 23 -42 43l-104 35q-104 36 -104 178t126 176l40 6l42 3l46 -3l40 -1l98 -7h22q21 0 26 -1l41 -2h84v-405h-93q3 -10 40 -25z" />
    <glyph glyph-name=".notdef" horiz-adv-x="1024" 
d="M128 0v1426h768v-1426h-768zM256 128h512v1170h-512v-1170z" />
    <glyph glyph-name=".null" 
 />
    <glyph glyph-name="nonmarkingreturn" horiz-adv-x="475" 
 />
    <glyph glyph-name="space" unicode=" " horiz-adv-x="475" 
 />
    <glyph glyph-name="exclam" unicode="!" horiz-adv-x="541" 
d="M383 917v-35l-4 -42q0 -17 -5 -41l-9 -52l-36 -214q-16 -101 -17 -217l-1 -120h-43l-1 123l-5 111v25q-1 11 -4 29l-9 65q0 16 -34 198q-19 102 -19 168q0 163 95 163q92 0 92 -161zM387 26q0 -37 -28 -63.5t-66 -26.5q-39 0 -65.5 26t-26.5 64q0 41 26 69t66 28
q39 0 66.5 -29t27.5 -68z" />
    <glyph glyph-name="percent" unicode="%" horiz-adv-x="899" 
d="M278 973q0 -34 -24 -60t-57 -26q-37 0 -61.5 25t-24.5 61q0 33 26 58t60 25q31 0 56 -24.5t25 -58.5zM722 1132l-485 -1258h-64l481 1258h68zM792 45q0 -80 -81 -80q-35 0 -61 23t-26 57t27 58.5t61 24.5q80 0 80 -83z" />
    <glyph glyph-name="parenleft" unicode="(" horiz-adv-x="609" 
d="M541 846q-296 -295 -296 -601q0 -142 70 -295q67 -145 222 -318l-8 -11l-45 28l-36 25l-57 43q-38 29 -96 92q-174 193 -174 440q0 229 163 410q17 19 44 46q15 16 53 50l58 45l86 58z" />
    <glyph glyph-name="parenright" unicode=")" horiz-adv-x="581" 
d="M508 249q11 -229 -177 -440q-60 -67 -95 -92l-55 -39l-82 -57l-12 11l45 51l53 62q88 104 146 247q52 130 52 253q0 302 -296 601l17 12q155 -103 238 -199q86 -99 125 -197q15 -37 31 -102l7 -52z" />
    <glyph glyph-name="asterisk" unicode="*" horiz-adv-x="734" 
d="M670 1049q0 -43 -56 -43q-13 0 -38 5l-131 24l-9 -27l94 -66q38 -26 43 -33q21 -24 21 -42q0 -14 -12 -28q-11 -9 -27 -11q-20 0 -41 21l-25 30l-29 45l-45 65l-26 -11l30 -168q0 -55 -45 -55q-41 0 -41 53q0 30 16 94l18 76l-14 2q-8 3 -14 9l-46 -65l-22 -32
q-26 -38 -33 -43q-21 -22 -41 -22q-15 0 -29 12q-10 13 -12 29q0 31 52 65l44 28l68 47l-5 8l-7 19l-76 -15l-55 -9l-36 -5q-55 0 -55 43q0 42 53 42q20 0 49 -6l44 -9l76 -17l4 13l8 12l-68 47l-43 28q-11 7 -32 27.5t-21 38.5q0 16 12.5 28t29.5 14q18 0 40 -22
q8 -6 24 -31l31 -45l44 -63l30 11l-18 76q-16 64 -16 93q0 53 41 53q45 0 45 -57q0 -8 -6 -38l-9 -51l-15 -80l26 -7l45 63l26 42q12 19 28 34q20 20 40 20q14 0 27 -11t13 -29q0 -20 -21 -41q-8 -10 -42 -33l-34 -22l-31 -22l-34 -23l16 -25l76 17l64 13l29 2q53 3 53 -42z
M413 1047q0 34 -35 35q-31 1 -35 -35q0 -30 35 -34q35 0 35 34z" />
    <glyph glyph-name="plus" unicode="+" horiz-adv-x="899" 
d="M793 429h-305v-306h-80v306h-308v79h308v312h80v-312h305v-79z" />
    <glyph glyph-name="comma" unicode="," horiz-adv-x="488" 
d="M151 100q0 31 27 61q34 39 89 39q63 0 98 -46q32 -43 32 -107q0 -160 -133 -231q-18 -10 -44 -11t-26 11q4 6 28 27q80 71 80 168q-31 -9 -58 -9q-93 0 -93 98z" />
    <glyph glyph-name="hyphen" unicode="-" horiz-adv-x="899" 
d="M793 429h-693v79h693v-79z" />
    <glyph glyph-name="period" unicode="." horiz-adv-x="541" 
d="M356 134q0 -35 -23.5 -59.5t-57.5 -24.5q-37 0 -60.5 24.5t-23.5 59.5q0 34 22.5 59.5t55.5 25.5q37 0 62 -24t25 -61z" />
    <glyph glyph-name="slash" unicode="/" horiz-adv-x="541" 
d="M483 1354l-360 -1486h-60l357 1486h63z" />
    <glyph glyph-name="zero" unicode="0" horiz-adv-x="1005" 
d="M264 750q12 20 47 33l30 8l30 4q26 0 54 -14l214 -142q24 -7 45 -44t21 -64q0 -21 -14 -43l-61 -94q-7 -13 -31 -20l-26 -7l-21 -1q-37 -2 -64 18l-224 135l-23 21l-19 27q-18 34 -18 64q0 29 10 40z" />
    <glyph glyph-name="zero" unicode="&#x6f0;" horiz-adv-x="1005" 
d="M264 750q12 20 47 33l30 8l30 4q26 0 54 -14l214 -142q24 -7 45 -44t21 -64q0 -21 -14 -43l-61 -94q-7 -13 -31 -20l-26 -7l-21 -1q-37 -2 -64 18l-224 135l-23 21l-19 27q-18 34 -18 64q0 29 10 40z" />
    <glyph glyph-name="zero" unicode="&#x660;" horiz-adv-x="1005" 
d="M264 750q12 20 47 33l30 8l30 4q26 0 54 -14l214 -142q24 -7 45 -44t21 -64q0 -21 -14 -43l-61 -94q-7 -13 -31 -20l-26 -7l-21 -1q-37 -2 -64 18l-224 135l-23 21l-19 27q-18 34 -18 64q0 29 10 40z" />
    <glyph glyph-name="one" unicode="1" horiz-adv-x="563" 
d="M466 163q5 -62 -30 -116q-31 -47 -83 -47q-56 0 -95 55q-35 50 -35 108l-123 965q0 63 39 114q42 56 104 56q119 0 151 -180z" />
    <glyph glyph-name="one" unicode="&#x6f1;" horiz-adv-x="563" 
d="M466 163q5 -62 -30 -116q-31 -47 -83 -47q-56 0 -95 55q-35 50 -35 108l-123 965q0 63 39 114q42 56 104 56q119 0 151 -180z" />
    <glyph glyph-name="one" unicode="&#x661;" horiz-adv-x="563" 
d="M466 163q5 -62 -30 -116q-31 -47 -83 -47q-56 0 -95 55q-35 50 -35 108l-123 965q0 63 39 114q42 56 104 56q119 0 151 -180z" />
    <glyph glyph-name="two" unicode="2" horiz-adv-x="882" 
d="M194 163l-103 853l9 53q3 21 13 46q5 15 17 44q5 10 25 43q49 80 109 96l54 14l70 5l43 -1q16 -1 42 -6l39 -3l28 -6l23 -5l25 -7q30 -7 83 -25q46 -14 79 -35q29 -12 51 -62q21 -45 21 -80q-12 -43 -52 -73l-17 -9l-24 -10l-25 -5l-28 -2h-18l-15 4l-102 16l-38 2l-27 2
q-60 4 -103 -24q-16 -13 -26 -33q-8 -28 -7 -42l1 -15l2 -16l94 -740q3 -55 -38 -100q-37 -42 -86 -42q-47 0 -86 46q-33 49 -33 117z" />
    <glyph glyph-name="two" unicode="&#x6f2;" horiz-adv-x="882" 
d="M194 163l-103 853l9 53q3 21 13 46q5 15 17 44q5 10 25 43q49 80 109 96l54 14l70 5l43 -1q16 -1 42 -6l39 -3l28 -6l23 -5l25 -7q30 -7 83 -25q46 -14 79 -35q29 -12 51 -62q21 -45 21 -80q-12 -43 -52 -73l-17 -9l-24 -10l-25 -5l-28 -2h-18l-15 4l-102 16l-38 2l-27 2
q-60 4 -103 -24q-16 -13 -26 -33q-8 -28 -7 -42l1 -15l2 -16l94 -740q3 -55 -38 -100q-37 -42 -86 -42q-47 0 -86 46q-33 49 -33 117z" />
    <glyph glyph-name="two" unicode="&#x662;" horiz-adv-x="882" 
d="M194 163l-103 853l9 53q3 21 13 46q5 15 17 44q5 10 25 43q49 80 109 96l54 14l70 5l43 -1q16 -1 42 -6l39 -3l28 -6l23 -5l25 -7q30 -7 83 -25q46 -14 79 -35q29 -12 51 -62q21 -45 21 -80q-12 -43 -52 -73l-17 -9l-24 -10l-25 -5l-28 -2h-18l-15 4l-102 16l-38 2l-27 2
q-60 4 -103 -24q-16 -13 -26 -33q-8 -28 -7 -42l1 -15l2 -16l94 -740q3 -55 -38 -100q-37 -42 -86 -42q-47 0 -86 46q-33 49 -33 117z" />
    <glyph glyph-name="three" unicode="3" horiz-adv-x="1074" 
d="M790 1188q0 50 26 83q28 37 76 37q47 0 75.5 -36t28.5 -84v-101q0 -98 -74 -172q-79 -80 -172 -74l-43 3l-17 3l-17 7l-26 15l-16 13l-22 20q-11 -41 -69 -70l-58 -18q-34 -5 -63 -5h-9l-26 1l52 -647q5 -58 -35 -114q-34 -49 -88 -49q-47 0 -86 46q-33 49 -33 117
l-103 1014q0 48 43 81q40 29 89 29q103 0 130 -110l10 -70q6 -22 29 -37l26 -9l26 -4q63 0 63 45v5l-9 102q0 22 6.5 36.5t18.5 26.5q27 26 66 26q28 0 61 -26q14 -14 30 -63l11 -61q0 -53 54 -64q14 0 32 15q13 15 13 38v51z" />
    <glyph glyph-name="three" unicode="&#x6f3;" horiz-adv-x="1074" 
d="M790 1188q0 50 26 83q28 37 76 37q47 0 75.5 -36t28.5 -84v-101q0 -98 -74 -172q-79 -80 -172 -74l-43 3l-17 3l-17 7l-26 15l-16 13l-22 20q-11 -41 -69 -70l-58 -18q-34 -5 -63 -5h-9l-26 1l52 -647q5 -58 -35 -114q-34 -49 -88 -49q-47 0 -86 46q-33 49 -33 117
l-103 1014q0 48 43 81q40 29 89 29q103 0 130 -110l10 -70q6 -22 29 -37l26 -9l26 -4q63 0 63 45v5l-9 102q0 22 6.5 36.5t18.5 26.5q27 26 66 26q28 0 61 -26q14 -14 30 -63l11 -61q0 -53 54 -64q14 0 32 15q13 15 13 38v51z" />
    <glyph glyph-name="three" unicode="&#x663;" horiz-adv-x="1074" 
d="M790 1188q0 50 26 83q28 37 76 37q47 0 75.5 -36t28.5 -84v-101q0 -98 -74 -172q-79 -80 -172 -74l-43 3l-17 3l-17 7l-26 15l-16 13l-22 20q-11 -41 -69 -70l-58 -18q-34 -5 -63 -5h-9l-26 1l52 -647q5 -58 -35 -114q-34 -49 -88 -49q-47 0 -86 46q-33 49 -33 117
l-103 1014q0 48 43 81q40 29 89 29q103 0 130 -110l10 -70q6 -22 29 -37l26 -9l26 -4q63 0 63 45v5l-9 102q0 22 6.5 36.5t18.5 26.5q27 26 66 26q28 0 61 -26q14 -14 30 -63l11 -61q0 -53 54 -64q14 0 32 15q13 15 13 38v51z" />
    <glyph glyph-name="four" unicode="4" horiz-adv-x="1074" 
d="M579 1298q4 3 21 7l26 3q48 0 95 -35q49 -38 49 -85q0 -57 -46 -92l-33 -19l-41 -21l-256 -133q-12 -6 -23 -21q-4 -10 -9 -29q0 -14 12 -32q12 -12 41 -19l244 -64q69 -18 122 -38q17 0 31 -28l10 -29l3 -29v-19q-2 -14 -10 -35l-9 -24l-16 -17l-176 -215l-8 -14l-4 -25
q0 -15 15 -29l19 -9l35 -4h200q58 0 103 -31q51 -36 51 -91q0 -47 -46 -87q-20 -15 -48.5 -24.5t-59.5 -9.5h-394q-91 0 -151 73q-22 26 -45 78q-15 48 -15 87q0 47 18 86l54 83l54 74l64 98l-261 84l-53 25l-11 7q-63 35 -81 95l-2 10l-2 16l-1 16v13q0 69 34 142
q37 81 94 109z" />
    <glyph glyph-name="four" unicode="&#x6f4;" horiz-adv-x="1074" 
d="M579 1298q4 3 21 7l26 3q48 0 95 -35q49 -38 49 -85q0 -57 -46 -92l-33 -19l-41 -21l-256 -133q-12 -6 -23 -21q-4 -10 -9 -29q0 -14 12 -32q12 -12 41 -19l244 -64q69 -18 122 -38q17 0 31 -28l10 -29l3 -29v-19q-2 -14 -10 -35l-9 -24l-16 -17l-176 -215l-8 -14l-4 -25
q0 -15 15 -29l19 -9l35 -4h200q58 0 103 -31q51 -36 51 -91q0 -47 -46 -87q-20 -15 -48.5 -24.5t-59.5 -9.5h-394q-91 0 -151 73q-22 26 -45 78q-15 48 -15 87q0 47 18 86l54 83l54 74l64 98l-261 84l-53 25l-11 7q-63 35 -81 95l-2 10l-2 16l-1 16v13q0 69 34 142
q37 81 94 109z" />
    <glyph glyph-name="four" unicode="&#x664;" horiz-adv-x="1074" 
d="M579 1298q4 3 21 7l26 3q48 0 95 -35q49 -38 49 -85q0 -57 -46 -92l-33 -19l-41 -21l-256 -133q-12 -6 -23 -21q-4 -10 -9 -29q0 -14 12 -32q12 -12 41 -19l244 -64q69 -18 122 -38q17 0 31 -28l10 -29l3 -29v-19q-2 -14 -10 -35l-9 -24l-16 -17l-176 -215l-8 -14l-4 -25
q0 -15 15 -29l19 -9l35 -4h200q58 0 103 -31q51 -36 51 -91q0 -47 -46 -87q-20 -15 -48.5 -24.5t-59.5 -9.5h-394q-91 0 -151 73q-22 26 -45 78q-15 48 -15 87q0 47 18 86l54 83l54 74l64 98l-261 84l-53 25l-11 7q-63 35 -81 95l-2 10l-2 16l-1 16v13q0 69 34 142
q37 81 94 109z" />
    <glyph glyph-name="five" unicode="5" horiz-adv-x="1074" 
d="M964 507q0 -247 -132 -383q-121 -124 -313 -124q-142 0 -248 71q-99 67 -155 179q-51 102 -51 235v18l1 22l5 43q36 322 169 539q123 201 288 201q242 0 365 -312q31 -78 52 -218q19 -128 19 -271zM275 498q0 -114 63 -172q56 -51 151 -51q86 0 161 43q85 49 100 128
q0 188 -25 329q-45 250 -157 250q-166 0 -236 -194q-36 -98 -57 -333z" />
    <glyph glyph-name="five" unicode="&#x6f5;" horiz-adv-x="1074" 
d="M964 507q0 -247 -132 -383q-121 -124 -313 -124q-142 0 -248 71q-99 67 -155 179q-51 102 -51 235v18l1 22l5 43q36 322 169 539q123 201 288 201q242 0 365 -312q31 -78 52 -218q19 -128 19 -271zM275 498q0 -114 63 -172q56 -51 151 -51q86 0 161 43q85 49 100 128
q0 188 -25 329q-45 250 -157 250q-166 0 -236 -194q-36 -98 -57 -333z" />
    <glyph glyph-name="five" unicode="&#x665;" horiz-adv-x="1074" 
d="M964 507q0 -247 -132 -383q-121 -124 -313 -124q-142 0 -248 71q-99 67 -155 179q-51 102 -51 235v18l1 22l5 43q36 322 169 539q123 201 288 201q242 0 365 -312q31 -78 52 -218q19 -128 19 -271zM275 498q0 -114 63 -172q56 -51 151 -51q86 0 161 43q85 49 100 128
q0 188 -25 329q-45 250 -157 250q-166 0 -236 -194q-36 -98 -57 -333z" />
    <glyph glyph-name="six" unicode="6" horiz-adv-x="898" 
d="M194 1046q-58 0 -101 37.5t-43 93.5q0 53 45 92t99 39h374q69 0 127 -40q64 -45 66 -111l29 -994q2 -62 -27 -109q-33 -54 -92 -54q-46 0 -88 46q-31 44 -35 117l-41 782q-3 64 -19 87q-19 19 -49 17l-31 -2l-24 -1h-190z" />
    <glyph glyph-name="six" unicode="&#x6f6;" horiz-adv-x="898" 
d="M194 1046q-58 0 -101 37.5t-43 93.5q0 53 45 92t99 39h374q69 0 127 -40q64 -45 66 -111l29 -994q2 -62 -27 -109q-33 -54 -92 -54q-46 0 -88 46q-31 44 -35 117l-41 782q-3 64 -19 87q-19 19 -49 17l-31 -2l-24 -1h-190z" />
    <glyph glyph-name="six" unicode="&#x666;" horiz-adv-x="898" 
d="M194 1046q-58 0 -101 37.5t-43 93.5q0 53 45 92t99 39h374q69 0 127 -40q64 -45 66 -111l29 -994q2 -62 -27 -109q-33 -54 -92 -54q-46 0 -88 46q-31 44 -35 117l-41 782q-3 64 -19 87q-19 19 -49 17l-31 -2l-24 -1h-190z" />
    <glyph glyph-name="seven" unicode="7" horiz-adv-x="1005" 
d="M313 194l-265 1024q0 45 41 79q38 32 84 32q48 0 86 -38q34 -35 46 -103l131 -783q0 -110 62 -110q40 0 67 31q24 32 24 79q0 148 20 327q6 53 19 144q8 42 31 131l12 44l6 27l10 33l14 41l19 46q32 53 54 74q37 36 77 36q45 0 82 -29q34 -27 34 -69l-3 -12l-29 -105
l-133 -533l-44 -198l-38 -189q0 -63 -69 -121q-63 -52 -123 -52q-62 0 -132 67q-66 63 -83 127z" />
    <glyph glyph-name="seven" unicode="&#x6f7;" horiz-adv-x="1005" 
d="M313 194l-265 1024q0 45 41 79q38 32 84 32q48 0 86 -38q34 -35 46 -103l131 -783q0 -110 62 -110q40 0 67 31q24 32 24 79q0 148 20 327q6 53 19 144q8 42 31 131l12 44l6 27l10 33l14 41l19 46q32 53 54 74q37 36 77 36q45 0 82 -29q34 -27 34 -69l-3 -12l-29 -105
l-133 -533l-44 -198l-38 -189q0 -63 -69 -121q-63 -52 -123 -52q-62 0 -132 67q-66 63 -83 127z" />
    <glyph glyph-name="seven" unicode="&#x667;" horiz-adv-x="1005" 
d="M313 194l-265 1024q0 45 41 79q38 32 84 32q48 0 86 -38q34 -35 46 -103l131 -783q0 -110 62 -110q40 0 67 31q24 32 24 79q0 148 20 327q6 53 19 144q8 42 31 131l12 44l6 27l10 33l14 41l19 46q32 53 54 74q37 36 77 36q45 0 82 -29q34 -27 34 -69l-3 -12l-29 -105
l-133 -533l-44 -198l-38 -189q0 -63 -69 -121q-63 -52 -123 -52q-62 0 -132 67q-66 63 -83 127z" />
    <glyph glyph-name="eight" unicode="8" horiz-adv-x="1005" 
d="M985 182q0 -64 -29 -114q-35 -59 -95 -59q-58 0 -106 59q-44 55 -44 114l-163 782q-17 82 -71 82q-26 0 -43.5 -21.5t-18.5 -60.5l-3 -119l-3 -51q-1 -20 -7 -73l-20 -163l-16 -105l-42 -259q-13 -78 -53.5 -131.5t-88.5 -53.5q-55 0 -80 12q-42 18 -40 84l1 37l8 40
l183 966q15 81 66 128q58 53 136 53q72 0 133 -57q17 -16 38 -52q25 -45 34 -72z" />
    <glyph glyph-name="eight" unicode="&#x6f8;" horiz-adv-x="1005" 
d="M985 182q0 -64 -29 -114q-35 -59 -95 -59q-58 0 -106 59q-44 55 -44 114l-163 782q-17 82 -71 82q-26 0 -43.5 -21.5t-18.5 -60.5l-3 -119l-3 -51q-1 -20 -7 -73l-20 -163l-16 -105l-42 -259q-13 -78 -53.5 -131.5t-88.5 -53.5q-55 0 -80 12q-42 18 -40 84l1 37l8 40
l183 966q15 81 66 128q58 53 136 53q72 0 133 -57q17 -16 38 -52q25 -45 34 -72z" />
    <glyph glyph-name="eight" unicode="&#x668;" horiz-adv-x="1005" 
d="M985 182q0 -64 -29 -114q-35 -59 -95 -59q-58 0 -106 59q-44 55 -44 114l-163 782q-17 82 -71 82q-26 0 -43.5 -21.5t-18.5 -60.5l-3 -119l-3 -51q-1 -20 -7 -73l-20 -163l-16 -105l-42 -259q-13 -78 -53.5 -131.5t-88.5 -53.5q-55 0 -80 12q-42 18 -40 84l1 37l8 40
l183 966q15 81 66 128q58 53 136 53q72 0 133 -57q17 -16 38 -52q25 -45 34 -72z" />
    <glyph glyph-name="nine" unicode="9" horiz-adv-x="1005" 
d="M456 650q-156 0 -250 73q-104 81 -104 241q0 157 114.5 271.5t271.5 114.5q137 0 220 -109q69 -90 82 -277l61 -822q5 -62 -28 -105q-29 -37 -82 -37q-52 0 -92 47q-14 16 -31 52l-6 31l-3 33l-30 557zM436 871q0 8 13 14l19 4l30 3q20 0 37 -9l33 -22q0 76 -26 158
q-36 109 -96 109q-54 0 -89 -46q-33 -41 -33 -97t28 -87q30 -27 84 -27z" />
    </font>
</defs>
</svg>
