<?xml version="1.0" standalone="no"?>
<!DOCTYPE svg PUBLIC "-//W3C//DTD SVG 1.1//EN" "http://www.w3.org/Graphics/SVG/1.1/DTD/svg11.dtd" >
<svg>
<metadata>
Created by FontForge 20120731 at Fri Jul 15 08:45:16 2016
 By www-data
(c) 2000 Borna Rayaneh
</metadata>
<defs>
<font id="BShiraz" horiz-adv-x="0" >
  <font-face 
    font-family="B Shiraz"
    font-weight="400"
    font-stretch="normal"
    units-per-em="2048"
    panose-1="0 0 4 0 0 0 0 0 0 0"
    ascent="1638"
    descent="-410"
    bbox="-198 -1117 1920 2234"
    underline-thickness="120"
    underline-position="-640"
    unicode-range="U+0020-FEFC"
  />
<missing-glyph horiz-adv-x="1024" 
d="M128 0v1365h768v-1365h-768zM256 128h512v1109h-512v-1109z" />
    <glyph glyph-name="uE818" unicode="&#x651;&#x64b;" 
d="M670 1637q-12 -28 -12 -29v-74q0 -165 -182 -165h-13q-69 0 -98 29q-27 -21 -78 -27q-17 -2 -41 -2q-102 0 -141 46q-37 42 -37 147v156q0 27 13 30q7 -5 9 -8l12 -13q5 -6 18 -19q5 -6 19 -18l42 -34q15 -10 19 -19q-4 -6 -12 -29v-46q0 -46 10 -61q15 -13 48 -13
q57 0 57 67v163q0 27 14 30q6 -5 8 -8l13 -13l48 -45l35 -28q13 -8 15 -17q-12 -28 -12 -29v-74q0 -46 58 -46q33 0 44 13.5t11 60.5v156q0 27 14 30q8 -4 12 -11l11 -10l18 -19q5 -6 19 -18l42 -34q15 -10 17 -19zM560 2206q0 -10 -2 -15l-22 -21q-22 -16 -41 -44
q-30 -44 -39 -44q-7 0 -21 6l-44 5h-310q-33 0 -33 16q0 15 27 35l27 30l27 39q11 20 23 20q8 0 21 -6q19 -5 45 -5h309q33 0 33 -16zM560 1992q0 -14 -2 -16l-24 -21q-15 -13 -28.5 -31t-24.5 -37.5t-25 -19.5q-7 0 -29 5.5t-36 5.5h-310q-33 0 -33 15q0 12 2 15l25 21
l27 29l27 41q13 20 23 20l21 -6q22 -5 45 -5h309q31 0 33 -16z" />
    <glyph glyph-name="uFC5E" unicode="&#x651;&#x64c;" arabic-form="isolated" 
d="M734 1626q-11 -27 -11 -28v-74q0 -166 -183 -166h-12q-69 0 -99 30q-27 -21 -78 -28q-16 -2 -41 -2q-102 0 -141 46q-37 43 -37 148v156q0 27 13 30q7 -6 10 -9l11 -12q5 -6 18 -20q5 -5 19 -18l43 -34q15 -9 19 -19q-5 -5 -13 -28v-46q0 -46 12.5 -60t45.5 -14
q58 0 58 67v163q0 27 13 30q7 -6 9 -9l13 -12l47 -45l35 -29q13 -7 15 -17q-12 -27 -12 -28v-74q0 -46 59 -46q33 0 44 13.5t11 60.5v156q0 27 14 30q7 -4 11 -11l11 -10q0 -1 18 -20q5 -5 19 -18l42 -34q15 -9 17 -19zM545 2017q0 -50 -53 -107l51 -37l-55 -32l-40 28
q-38 -39 -67 -56t-55 -17q-38 0 -71.5 37.5t-45.5 37.5q-17 0 -34.5 -24.5t-23.5 -24.5q-16 0 -16 17q0 34 27 69t58 35q22 0 65 -51q20 -24 38 -24q29 0 68 43q-25 16 -46 45q-14 25 -14 61q0 110 107 110q46 0 76.5 -32t30.5 -78zM474 2021q0 15 -9.5 27t-26.5 12
q-13 0 -24 -11q-6 -9 -8 -28q0 -15 7.5 -28t27.5 -29q30 31 33 57z" />
    <glyph glyph-name="uFC5F" unicode="&#x651;&#x64d;" arabic-form="isolated" 
d="M705 2114q-12 -27 -12 -28v-75q0 -165 -182 -165h-13q-69 0 -99 30q-26 -21 -77 -28q-17 -2 -41 -2q-102 0 -142 46q-36 43 -36 148v156q0 26 12 30q8 -6 10 -9l12 -13q5 -5 18 -19q5 -5 19 -18l42 -34q15 -9 19 -19q-4 -5 -13 -28v-46q0 -47 11 -61q15 -13 48 -13
q57 0 57 67v163q0 26 14 30q6 -6 8 -9l13 -13l48 -44l35 -29q12 -7 14 -17q-11 -27 -11 -28v-75q0 -45 58 -45q33 0 44 13t11 61v156q0 26 14 30q8 -4 12 -11l10 -11l18 -19q5 -5 19 -18l43 -34q15 -9 17 -19zM630 1729q0 -11 -2 -15l-23 -21q-21 -17 -40 -45
q-30 -43 -39 -43q-7 0 -21 5l-45 5h-309q-33 0 -33 16q0 15 26 35l28 31l26 38q11 20 24 20q7 0 21 -5q18 -5 44 -5h310q33 0 33 -16zM630 1515q0 -15 -2 -16l-25 -22q-14 -12 -28 -30t-24.5 -38t-24.5 -20q-8 0 -29.5 5.5t-36.5 5.5h-309q-33 0 -33 15q0 13 2 16l24 20
l28 30l26 40q14 20 24 20l21 -5q21 -6 44 -6h310q31 0 33 -15z" />
    <glyph glyph-name="uFC60" unicode="&#x651;&#x64e;" arabic-form="isolated" 
d="M725 1580q-11 -27 -11 -28v-74q0 -166 -183 -166h-12q-69 0 -99 30q-27 -21 -78 -28q-16 -2 -41 -2q-102 0 -141 46q-37 43 -37 148v156q0 27 13 30q7 -6 10 -9l11 -12q5 -6 18 -20q5 -5 19 -18l43 -34q15 -9 19 -19q-5 -5 -13 -28v-46q0 -46 12.5 -60t45.5 -14
q58 0 58 67v163q0 27 13 30q7 -6 9 -9l13 -12l47 -45l35 -29q13 -7 15 -17q-12 -27 -12 -28v-74q0 -46 59 -46q33 0 44 13.5t11 60.5v156q0 27 14 30q7 -4 11 -11l11 -10q0 -1 18 -20q5 -5 19 -18l42 -34q15 -9 17 -19zM639 2048q0 -12 -2 -16l-24 -21l-28 -28
q-12 -13 -26 -40q-11 -19 -24 -19q-7 0 -21 6l-44 5h-310q-32 0 -33 14q0 13 2 15l25 21l54 70q10 20 23 20q8 0 21 -6q19 -5 45 -5h309q33 0 33 -16z" />
    <glyph glyph-name="uFC61" unicode="&#x651;&#x64f;" arabic-form="isolated" 
d="M670 1576q-12 -28 -12 -29v-74q0 -165 -182 -165h-13q-69 0 -98 29q-27 -21 -78 -27q-17 -2 -41 -2q-102 0 -141 46q-37 42 -37 147v156q0 27 13 30q7 -5 9 -8l12 -13q5 -6 18 -19q5 -6 19 -18l42 -34q15 -10 19 -19q-4 -6 -12 -29v-46q0 -46 10 -61q15 -13 48 -13
q57 0 57 67v163q0 27 14 30q6 -5 8 -8l13 -13l48 -45l35 -28q13 -8 15 -17q-12 -28 -12 -29v-74q0 -46 58 -46q33 0 44 13.5t11 60.5v156q0 27 14 30q8 -4 12 -11l11 -10l18 -19q5 -6 19 -18l42 -34q15 -10 17 -19zM524 2124q0 -27 -11 -52q-20 -31 -41 -55l49 -37l-53 -32
l-39 26l-30 -25l-39 -32q-29 -24 -62 -38l-40 -18q-16 0 -16 15v30q0 20 25 27q20 9 55 35.5t53 48.5q-33 22 -51 49q-14 25 -15 58q-1 47 30 78.5t78 31.5t77 -31.5t30 -78.5zM452 2128q0 16 -9.5 27t-25.5 11q-12 0 -23 -10q-7 -9 -9 -28q0 -34 35 -57q19 16 27 32
q3 5 5 25z" />
    <glyph glyph-name="uFC62" unicode="&#x651;&#x650;" arabic-form="isolated" 
d="M687 1897q-11 -27 -11 -29v-74q0 -165 -183 -165h-12q-69 0 -99 29q-27 -21 -78 -27q-16 -2 -41 -2q-102 0 -141 46q-37 42 -37 148v155q0 27 13 30q7 -5 10 -8l11 -13q5 -5 18 -19q5 -6 19 -18l43 -34q15 -10 19 -19q-5 -6 -13 -29v-45q0 -47 12.5 -61t45.5 -14
q58 0 58 67v163q0 27 13 30q7 -5 9 -8l13 -13l47 -45l35 -28q13 -8 15 -17q-12 -27 -12 -29v-74q0 -46 59 -46q33 0 44 13.5t11 61.5v155q0 27 14 30q7 -4 11 -10l11 -11l18 -19q5 -6 19 -18l42 -34q15 -10 17 -19zM595 1494q0 -11 -2 -15l-22 -21q-22 -17 -41 -45
q-30 -43 -39 -43q-7 0 -21 5l-45 6h-309q-33 0 -33 15q0 16 27 35l27 31l27 38q10 20 23 20q7 0 21 -5q19 -5 45 -5h309q33 0 33 -16z" />
    <glyph glyph-name="uFDF2" unicode="&#xfedf;&#xfee0;&#xfeea;" horiz-adv-x="1147" arabic-form="isolated" 
d="M586 1490l-29 -35q-27 101 -50 141q-30 55 -100 109l-24 143q113 -62 154 -146q29 -58 49 -212zM759 1347q3 -71 -27.5 -121.5t-75.5 -50.5q-18 0 -31 4l-19 8l-20 14q-27 -57 -52 -80.5t-62 -23.5q-32 0 -58 33q-10 12 -19 37q-6 17 -6 41q0 31 21 110l12 3
q0 -106 60 -106q39 0 60 42q23 46 23 123l18 6q5 -21 12 -39l19 -32q21 -27 42 -27q66 0 66 135v13l-2 15l15 11l18 -57l5 -29zM1073 391q5 -107 -41 -183q-40 -67 -109 -67q-93 0 -161 146q-61 -176 -202 -176t-208 180q-43 -111 -165 -111q-56 0 -102 28q-53 33 -53 86
q0 55 59 167q27 50 68.5 77.5t146.5 72.5q0 99 15 133q18 41 93 94l33 -323q9 -85 26 -118q28 -54 98 -54q41 0 73.5 27t32.5 67l-3 34q0 14 -9 42l-42 184q-24 109 -24 144q0 56 47 134q16 28 44 66l57 -248q19 -87 48 -210q60 -214 143 -214q24 0 31 41q0 26 -8 59l-19 77
l-70 262q-1 8 -5 25l-3 26q0 53 80 184l36 -148l43 -185q16 -66 39 -185l8 -65zM325 428l-6 87q-43 -10 -97 -34q-75 -34 -75 -59q0 -10 25 -21.5t47 -11.5q55 0 106 39z" />
    <glyph glyph-name="uFEF5" unicode="&#xfedf;&#xfe82;" horiz-adv-x="1068" arabic-form="isolated" 
d="M994 1154q-39 -45 -56 -86q-11 -40 -11 -142q0 -183 -11 -239q-14 -76 -86 -220q67 -175 67 -275q0 -119 -89 -161q-60 -28 -198 -28h-163v237h83q67 48 98 81l56 60l48 51q-36 59 -90 136q-44 63 -72 99q-57 73 -157 169q-38 -79 -71 -79q-13 0 -37 16l-74 69
q-102 94 -102 176q0 49 53 128l35 52l31 41q96 -69 152 -128q14 -15 46 -53l76 -92q87 -105 132 -177q27 -45 130 -230q28 67 37 106l5 46l3 71q2 90 -20 186l-43 191q0 71 98 163q26 -52 51 -82l30 -35zM806 270q0 10 -16 41l-23 44q-32 -41 -55 -66q-13 -13 -58 -49h78
q42 0 54 5q20 5 20 25zM611 1577q-81 -133 -223 -158q-46 -8 -90 -7q-46 2 -113 17l-32 7l-36 5l-31 2l-25 -2q-18 -2 -72 -34l-19 18q42 112 124 127q40 7 134 -12q49 -10 112 -13q60 -4 92 3l38 7l30 13q47 21 88 47z" />
    <glyph glyph-name="uFEF6" unicode="&#xfee0;&#xfe82;" horiz-adv-x="1280" arabic-form="final" 
d="M1338 137h-148q-135 0 -185 202l-34 138q-14 58 -29 196q-13 115 -13 283q-36 -273 -64 -397q-28 -128 -81 -265q-42 -109 -125 -170q-79 -58 -178 -77l-206 -41l-4 20q139 84 278 210q189 171 189 273q0 28 -73 110q-25 28 -56 59q-125 129 -162 129q-14 0 -31.5 -35
t-35.5 -35q-30 0 -84 28l-60 32l-59 37q-49 32 -49 112q0 113 2 134q10 106 56 106q24 0 74 -28t161 -109q277 -200 350 -488q41 92 70 246q27 147 27 255q0 92 9 111q4 50 102 181l8 -122l4 -100q2 -48 10 -148l12 -96q3 -18 10 -67q19 -151 26 -193q22 -125 54 -188
q25 -68 87 -68h148v-235zM563 1527q-81 -134 -223 -159q-46 -8 -90 -6q-46 2 -113 17l-32 7l-36 5l-31 2l-25 -3q-19 -1 -72 -33l-20 17q43 113 124 128q41 7 135 -12q49 -10 112 -14q60 -3 92 3l37 8l30 13q48 20 89 47z" />
    <glyph glyph-name="uFEF7" unicode="&#xfedf;&#xfe84;" horiz-adv-x="1062" arabic-form="isolated" 
d="M988 1151q-39 -45 -56 -86q-11 -40 -11 -142q0 -183 -11 -239q-14 -77 -87 -220q68 -175 68 -275q0 -119 -89 -161q-61 -28 -198 -28h-163v236h82q68 49 99 82l56 59l48 52q-36 59 -90 136q-44 62 -72 99q-58 73 -157 169q-38 -79 -71 -79q-13 0 -37 16l-74 68
q-102 95 -102 176q0 50 53 129l35 52l31 41q96 -69 152 -128q14 -15 46 -53l76 -93q87 -104 132 -177q27 -44 130 -230q28 68 37 106l5 47l2 71q3 90 -19 186l-43 190q0 72 97 164q27 -52 52 -82l30 -35zM800 267q0 10 -16 40l-23 45q-32 -41 -55 -66q-13 -13 -58 -50h78
q42 0 54 6q20 5 20 25zM361 1578l-34 -76l-257 -109q15 43 25 59q15 23 41 33l31 12l-47 28q-15 9 -29 23q-22 23 -22 49q0 48 51 108t97 60q50 0 50 -64q0 -62 -33 -62q-10 0 -21 8q-7 6 -18 26.5t-22 20.5q-13 0 -24.5 -13t-11.5 -27q0 -36 51 -68q46 -29 85 -29t88 21z
" />
    <glyph glyph-name="uFEF8" unicode="&#xfee0;&#xfe84;" horiz-adv-x="1320" arabic-form="final" 
d="M1366 137h-148q-135 0 -185 202l-34 138q-14 58 -29 196q-13 115 -13 283q-36 -273 -64 -397q-28 -128 -81 -265q-42 -109 -125 -170q-79 -58 -178 -77l-206 -41l-4 20q139 84 278 210q189 171 189 273q0 28 -73 110q-25 28 -56 59q-125 129 -162 129q-14 0 -31.5 -35
t-35.5 -35q-29 0 -84 28l-60 32l-59 37q-49 32 -49 112q0 113 2 134q11 106 56 106q24 0 74 -28t161 -109q277 -200 350 -488q41 92 70 246q28 147 28 255q0 92 8 111q4 50 102 181l8 -122l5 -100q1 -48 9 -148l12 -96q3 -18 10 -67q19 -151 27 -193q21 -125 53 -188
q25 -68 87 -68h148v-235zM344 1493l-34 -77l-257 -108q15 43 25 58q15 24 41 33l31 12l-47 29q-15 9 -29 23q-22 23 -22 49q0 48 51 108t97 60q50 0 50 -64q0 -63 -33 -63q-10 0 -20 9q-8 6 -19 26.5t-22 20.5q-13 0 -24.5 -13.5t-11.5 -26.5q0 -37 51 -68q46 -29 85 -29
t88 21z" />
    <glyph glyph-name="uFEF9" unicode="&#xfedf;&#xfe88;" horiz-adv-x="1083" arabic-form="isolated" 
d="M1009 1154q-40 -45 -56 -86q-11 -40 -11 -142q0 -183 -11 -239q-15 -76 -87 -220q68 -175 68 -275q0 -119 -89 -161q-61 -28 -198 -28h-163v237h82q68 48 99 81l56 60l48 51q-36 59 -90 136q-44 63 -72 99q-58 73 -157 169q-38 -79 -71 -79q-13 0 -37 16l-75 69
q-101 94 -101 176q0 49 53 128l35 52l30 41q97 -69 153 -128q14 -15 46 -53l76 -92q87 -105 131 -177q28 -45 131 -230q28 67 37 106l5 46l2 71q3 90 -19 186l-43 191q0 71 97 163q27 -52 52 -82l30 -35zM821 270q0 10 -16 41l-23 44q-32 -41 -55 -66q-13 -13 -59 -49h79
q42 0 54 5q20 5 20 25zM782 -338l-34 -77l-257 -108q15 42 25 58q15 23 41 33l31 12l-47 28q-15 10 -29 24q-22 23 -22 49q0 48 51 108t98 60q50 0 50 -65q0 -62 -34 -62q-9 0 -20 8q-7 7 -18 25q-12 23 -23 23q-13 0 -24.5 -13.5t-11.5 -27.5q0 -36 51 -68q46 -28 85 -28
t88 21z" />
    <glyph glyph-name="uFEFA" unicode="&#xfee0;&#xfe88;" horiz-adv-x="1284" arabic-form="final" 
d="M1339 137h-148q-135 0 -185 202l-34 138q-14 58 -29 196q-13 115 -13 283q-36 -273 -64 -397q-28 -128 -81 -265q-42 -109 -125 -170q-79 -58 -179 -77l-205 -41l-4 20q139 84 278 210q189 171 189 273q0 28 -73 110q-25 28 -56 59q-125 129 -162 129q-14 0 -31.5 -35
t-35.5 -35q-30 0 -84 28l-60 32l-59 37q-50 32 -50 112q0 113 3 134q10 106 56 106q24 0 74 -28t161 -109q277 -200 350 -488q41 92 70 246q27 147 27 255q0 92 9 111q4 50 102 181l8 -122l4 -100q2 -48 10 -148l12 -96q3 -18 10 -67q19 -151 26 -193q22 -125 54 -188
q25 -68 87 -68h148v-235zM970 -219l-33 -77l-258 -108q15 42 25 58q16 23 41 33l31 12l-47 28q-15 9 -28 24q-23 23 -23 49q0 47 51 107.5t98 60.5q50 0 50 -65q0 -62 -34 -62q-9 0 -20 8q-7 7 -17 25q-13 22 -24 22q-13 0 -24.5 -13t-11.5 -27q0 -36 51 -68q47 -29 85 -29
q39 0 88 22z" />
    <glyph glyph-name="uFEFB" unicode="&#xfedf;&#xfe8e;" horiz-adv-x="1083" arabic-form="isolated" 
d="M1008 1154q-39 -45 -56 -86q-10 -40 -10 -142q0 -183 -11 -239q-15 -76 -87 -220q68 -175 68 -275q0 -119 -89 -161q-61 -28 -198 -28h-164v237h83q68 48 99 81l56 60l48 51q-36 59 -90 136q-44 63 -73 99q-57 73 -156 169q-39 -79 -71 -79q-13 0 -38 16l-74 69
q-102 94 -102 176q0 49 53 128l35 52l31 41q97 -69 153 -128q14 -15 45 -53l77 -92q86 -105 131 -177q28 -45 131 -230q28 67 37 106l5 46l2 71q3 90 -19 186l-43 191q0 71 97 163q26 -52 52 -82l30 -35zM821 270q0 10 -16 41l-23 44q-32 -41 -56 -66q-12 -13 -58 -49h79
q42 0 54 5q20 5 20 25z" />
    <glyph glyph-name="uFEFC" unicode="&#xfee0;&#xfe8e;" horiz-adv-x="1320" arabic-form="final" 
d="M1368 137h-148q-135 0 -185 202l-34 138q-14 58 -29 196q-13 115 -13 283q-35 -273 -64 -397q-28 -128 -81 -265q-42 -109 -125 -170q-79 -58 -178 -77l-206 -41l-4 20q139 84 279 210q188 171 188 273q0 28 -73 110q-25 28 -56 59q-125 129 -162 129q-13 0 -30.5 -35
t-36.5 -35q-29 0 -84 28l-60 32l-58 37q-50 32 -50 112q0 113 2 134q11 106 56 106q24 0 74 -28t161 -109q277 -200 350 -488q41 92 70 246q28 147 28 255q0 92 8 111q4 50 102 181l8 -122l5 -100q1 -48 9 -148l12 -96q3 -18 10 -67q19 -151 27 -193q21 -125 53 -188
q25 -68 87 -68h148v-235z" />
    <glyph glyph-name="u0622" unicode="&#x622;" horiz-adv-x="514" arabic-form="isolated" 
d="M411 443q3 -112 -52 -253h-39q0 154 -14 257l-26 155l-58 353l-4 53q-2 42 23 88q18 34 98 120q0 -145 17 -253l25 -156l11 -96l11 -117q0 -37 3 -73q2 -25 5 -78zM602 1495q-81 -134 -223 -159q-46 -8 -90 -6q-46 2 -113 17l-32 7l-36 4l-31 2l-25 -2q-18 -2 -72 -33
l-19 17q42 113 124 127q40 7 134 -12q49 -10 112 -13q60 -4 92 3l38 8l30 13q47 20 88 46z" />
    <glyph glyph-name="u0623" unicode="&#x623;" horiz-adv-x="422" arabic-form="isolated" 
d="M330 435q3 -112 -52 -253h-39q0 154 -14 257l-26 155l-59 353l-3 53q-2 42 22 88q19 34 99 120q0 -145 17 -253l24 -156l12 -96l11 -117q0 -37 2 -73q3 -25 6 -78zM320 1438l-34 -77l-257 -108q15 43 25 58q15 24 41 33l31 12l-47 29q-15 9 -29 23q-22 23 -22 49
q0 48 51 108t98 60q50 0 50 -65q0 -62 -34 -62q-9 0 -20 9q-7 6 -18.5 26.5t-22.5 20.5q-13 0 -24.5 -13.5t-11.5 -26.5q0 -37 51 -68q46 -29 85 -29t88 21z" />
    <glyph glyph-name="u0624" unicode="&#x624;" horiz-adv-x="752" arabic-form="isolated" 
d="M692 358q0 -126 -37 -272q-74 -292 -222 -390q-74 -48 -161 -48q-68 0 -128 18q-71 22 -184 75l20 27l39 -8q34 -6 52 -6q163 0 339 168q208 197 208 391v26q-59 -97 -130 -97q-58 0 -93 50q-30 45 -30 105q0 123 46 229q54 123 130 123q61 0 106 -116t45 -275zM566 454
q-21 87 -83 87q-52 0 -52 -52q0 -59 70 -59l27 4q13 3 38 20zM614 999l-34 -77l-257 -108q15 42 25 58q15 24 41 33l31 12l-47 29q-15 9 -29 23q-22 23 -22 49q0 48 51 108t97 60q50 0 50 -65q0 -62 -33 -62q-10 0 -21 8q-7 7 -18 27.5t-22 20.5q-13 0 -24.5 -13.5
t-11.5 -26.5q0 -37 51 -68q46 -29 85 -29t88 21z" />
    <glyph glyph-name="u0625" unicode="&#x625;" horiz-adv-x="469" arabic-form="isolated" 
d="M301 435q3 -112 -52 -253h-39q0 154 -14 257l-26 155l-58 353l-4 53q-2 42 23 88q18 34 98 120q0 -145 17 -253l25 -156l11 -96l11 -117q0 -37 3 -73q2 -25 5 -78zM442 -112l-34 -77l-257 -108q14 43 25 58q15 24 40 33l31 12l-46 29q-15 9 -29 23q-23 23 -23 49
q0 48 51 108t98 60q50 0 50 -65q0 -62 -34 -62q-9 0 -20 9q-7 6 -17 25q-13 22 -24 22q-13 0 -24.5 -13.5t-11.5 -26.5q0 -37 52 -68q46 -29 84 -29q39 0 89 21z" />
    <glyph glyph-name="u0626" unicode="&#x626;" horiz-adv-x="1240" arabic-form="isolated" 
d="M673 600l-33 -76l-258 -109q15 43 25 59q16 23 41 33l31 12l-47 28q-15 9 -29 23q-22 24 -22 49q0 48 51 108.5t98 60.5q50 0 50 -65q0 -62 -34 -62q-9 0 -20 8q-7 7 -18 25q-12 22 -23 22q-13 0 -24.5 -13t-11.5 -27q0 -36 51 -68q46 -29 85 -29t88 21zM1167 523l-3 -49
l-5 -37q-5 -35 -14 -86q-33 39 -128 39q-81 0 -165 -46q-98 -53 -98 -128q0 -48 43 -71q39 -21 172 -47q82 -17 113 -37q50 -32 50 -99q0 -109 -133 -206q-111 -80 -300 -133q-172 -49 -310 -49q-152 0 -247 66q-109 76 -109 222q0 107 41 212q31 79 95 181q20 31 50 77
l27 -17q-109 -184 -109 -264q0 -143 152 -214q115 -53 276 -53q88 0 251 35q201 44 201 97q0 13 -32 21q-39 6 -114 6q-119 0 -179 23q-88 34 -88 126q0 119 197 344q155 176 275 176q97 0 91 -89z" />
    <glyph glyph-name="u0627" unicode="&#x627;" horiz-adv-x="385" arabic-form="isolated" 
d="M301 435q3 -112 -52 -253h-39q0 154 -14 257l-26 155l-58 353l-4 53q-2 42 23 88q18 34 98 120q0 -145 17 -253l25 -156l11 -96l11 -117q0 -37 3 -73q2 -25 5 -78z" />
    <glyph glyph-name="u0628" unicode="&#x628;" horiz-adv-x="1484" arabic-form="isolated" 
d="M1410 650q0 -60 -25 -161q-26 -106 -56 -150q-60 -89 -315 -157q-241 -64 -473 -64q-200 0 -333 63q-176 84 -176 262q0 80 27.5 140.5t109.5 157.5l22 -17q-31 -56 -42 -82l-8 -28l-3 -30q0 -124 151 -178q103 -37 254 -37q264 0 514 58q268 63 268 138q0 11 -61 72
q-30 30 -30 52q0 28 81 236q95 -131 95 -275zM947 -178l-83 -142l-136 105l85 141z" />
    <glyph glyph-name="u0629" unicode="&#x629;" horiz-adv-x="582" arabic-form="isolated" 
d="M349 1177l-33 -77l-258 -108q15 42 25 58q16 23 41 33l31 12l-47 28q-15 9 -29 24q-22 23 -22 49q0 47 51 107.5t98 60.5q50 0 50 -65q0 -62 -34 -62q-9 0 -20 8q-7 7 -17 25q-13 22 -24 22q-13 0 -24.5 -13t-11.5 -27q0 -36 51 -68q46 -29 85 -29t88 22zM508 502
q0 -149 -61 -248q-73 -119 -213 -119q-96 0 -151 68q-51 63 -51 162q0 183 125 430q69 135 138 135q101 0 164 -172q49 -133 49 -256zM437 474q-119 149 -226 149q-40 0 -70.5 -31t-30.5 -73q0 -97 137 -97q74 0 190 52z" />
    <glyph glyph-name="u062A" unicode="&#x62a;" horiz-adv-x="1484" arabic-form="isolated" 
d="M1410 650q0 -60 -25 -161q-26 -106 -56 -150q-60 -89 -315 -157q-241 -64 -473 -64q-200 0 -333 63q-176 84 -176 262q0 80 27.5 140.5t109.5 157.5l22 -17q-31 -56 -42 -82l-8 -28l-3 -30q0 -124 151 -178q103 -37 254 -37q264 0 514 58q268 63 268 138q0 11 -61 72
q-30 30 -30 52q0 28 81 236q95 -131 95 -275zM874 961l-85 -141l-131 92l-64 -118l-141 105l87 139l126 -101l77 126z" />
    <glyph glyph-name="u062B" unicode="&#x62b;" horiz-adv-x="1484" arabic-form="isolated" 
d="M1410 650q0 -60 -25 -161q-26 -106 -56 -150q-60 -89 -315 -157q-241 -64 -473 -64q-200 0 -333 63q-176 84 -176 262q0 80 27.5 140.5t109.5 157.5l22 -17q-31 -56 -42 -82l-8 -28l-3 -30q0 -124 151 -178q103 -37 254 -37q264 0 514 58q268 63 268 138q0 11 -61 72
q-30 30 -30 52q0 28 81 236q95 -131 95 -275zM786 1170l-83 -142l-136 105l84 141zM907 970l-84 -141l-131 91l-64 -118l-141 105l87 139l126 -101l77 127z" />
    <glyph glyph-name="u062C" unicode="&#x62c;" horiz-adv-x="1078" arabic-form="isolated" 
d="M727 -30l-82 -142l-137 105l85 141zM1195 -456l-445 -213h-51q-291 0 -462 108q-205 130 -205 404q0 378 378 624l-52 10l-72 12q-39 6 -96 6h-47l-57 -10l-41 -9l41 170l67 35l60 24q57 17 112 17q32 0 78 -8l218 -36l79 -10l73 -6h43l48 -3l43 -1l-35 -182l-107 -2
q-30 -1 -125 -18q-197 -37 -341 -161q-163 -140 -163 -328q0 -187 197 -302q202 -117 454 -117q36 0 73 3l78 5l122 4l132 10z" />
    <glyph glyph-name="u062D" unicode="&#x62d;" horiz-adv-x="1077" arabic-form="isolated" 
d="M1195 -456l-445 -213h-51q-291 0 -462 108q-205 130 -205 404q0 378 378 624l-52 10l-72 12q-39 6 -96 6h-47l-57 -10l-41 -9l41 170l67 35l60 24q57 17 112 17q32 0 78 -8l218 -36l79 -10l73 -6h43l48 -3l43 -1l-35 -182l-107 -2q-30 -1 -125 -18q-197 -37 -341 -161
q-163 -140 -163 -328q0 -187 197 -302q202 -117 454 -117q36 0 73 3l78 5l122 4l132 10z" />
    <glyph glyph-name="u062E" unicode="&#x62e;" horiz-adv-x="1082" arabic-form="isolated" 
d="M515 1068l-83 -142l-137 105l85 141zM1195 -456l-445 -213h-51q-291 0 -462 108q-205 130 -205 404q0 378 378 624l-52 10l-72 12q-39 6 -96 6h-47l-57 -10l-41 -9l41 170l67 35l60 24q57 17 112 17q32 0 78 -8l218 -36l79 -10l73 -6h43l48 -3l43 -1l-35 -182l-107 -2
q-30 -1 -125 -18q-197 -37 -341 -161q-163 -140 -163 -328q0 -187 197 -302q202 -117 454 -117q36 0 73 3l78 5l122 4l132 10z" />
    <glyph glyph-name="u062F" unicode="&#x62f;" horiz-adv-x="710" arabic-form="isolated" 
d="M636 447q0 -174 -95 -240q-120 -83 -356 -83h-15l-63 1l-75 10l45 267h24l26 -2h24l28 -3q149 -10 291 20q90 19 90 65q0 60 -143 149q-68 42 -224 118l104 253q127 -85 191 -157q148 -168 148 -398z" />
    <glyph glyph-name="u0630" unicode="&#x630;" horiz-adv-x="710" arabic-form="isolated" 
d="M337 1314l-83 -142l-137 105l85 141zM636 447q0 -174 -95 -240q-120 -83 -356 -83h-15l-63 1l-75 10l45 267h24l26 -2h24l28 -3q149 -10 291 20q90 19 90 65q0 60 -143 149q-68 42 -224 118l104 253q127 -85 191 -157q148 -168 148 -398z" />
    <glyph glyph-name="u0631" unicode="&#x631;" horiz-adv-x="754" arabic-form="isolated" 
d="M679 180q0 -186 -94 -354q-111 -198 -284 -198q-111 0 -269 107l14 31l42 -10l37 -2q142 -8 314 142q162 142 162 265q0 62 -86 153t-86 123q0 36 21 117l32 122q101 -114 152 -241q45 -113 45 -255z" />
    <glyph glyph-name="u0632" unicode="&#x632;" horiz-adv-x="754" arabic-form="isolated" 
d="M481 975l-83 -142l-137 105l85 141zM679 180q0 -186 -94 -354q-111 -198 -284 -198q-111 0 -269 107l14 31l42 -10l37 -2q142 -8 314 142q162 142 162 265q0 62 -86 153t-86 123q0 36 21 117l32 122q101 -114 152 -241q45 -113 45 -255z" />
    <glyph glyph-name="u0633" unicode="&#x633;" horiz-adv-x="1540" arabic-form="isolated" 
d="M1466 482q0 -110 -46 -197q-56 -109 -156 -109q-63 0 -104 36q-28 26 -64 92q-39 -82 -73 -116q-49 -51 -122 -51q-24 -172 -72 -294q-103 -265 -459 -265q-141 0 -233 64q-105 74 -105 209q0 66 27 143t63 136l79 131l28 -13q-91 -147 -91 -215q0 -111 99 -170
q82 -50 201 -50q145 0 243 39q139 56 139 179q0 64 -44.5 156.5t-44.5 106.5q0 21 49 111l49 90q34 -50 54 -74q32 -38 57 -38q127 0 222 203l23 -13q0 -74 38 -124q42 -54 115 -54q50 0 50 29l-9 8q-18 18 -26 25q-35 26 -35 65q0 83 39 234q56 -50 82.5 -118t26.5 -156z
" />
    <glyph glyph-name="u0634" unicode="&#x634;" horiz-adv-x="1540" arabic-form="isolated" 
d="M1151 1119l-82 -142l-137 105l85 141zM1273 919l-85 -141l-130 91l-65 -118l-141 105l87 139l126 -100l77 126zM1466 482q0 -110 -46 -197q-56 -109 -156 -109q-63 0 -104 36q-28 26 -64 92q-39 -82 -73 -116q-49 -51 -122 -51q-24 -172 -72 -294q-103 -265 -459 -265
q-141 0 -233 64q-105 74 -105 209q0 66 27 143t63 136l79 131l28 -13q-91 -147 -91 -215q0 -111 99 -170q82 -50 201 -50q145 0 243 39q139 56 139 179q0 64 -44.5 156.5t-44.5 106.5q0 21 49 111l49 90q34 -50 54 -74q32 -38 57 -38q127 0 222 203l23 -13q0 -74 38 -124
q42 -54 115 -54q50 0 50 29l-9 8q-18 18 -26 25q-35 26 -35 65q0 83 39 234q56 -50 82.5 -118t26.5 -156z" />
    <glyph glyph-name="u0635" unicode="&#x635;" horiz-adv-x="1807" arabic-form="isolated" 
d="M1733 598q0 -209 -263 -344q-200 -103 -445 -126l-7 -18l-3 -15q-5 -35 -14 -62q-6 -14 -17 -16q-10 0 -18 18t-9 41l-1 24l3 28l-58 9q-24 -172 -72 -294q-103 -265 -459 -265q-141 0 -233 64q-105 74 -105 209q0 180 169 410l28 -13q-91 -147 -91 -215q0 -111 99 -170
q82 -50 201 -50q145 0 243 39q139 56 139 179q0 65 -44.5 157.5t-44.5 105.5q0 19 49 110l49 91l52 -79q35 -44 78 -44h36l19 3q11 0 17 2l17 6q227 449 476 449q93 0 153 -72q56 -68 56 -162zM1636 522q0 37 -76 60q-58 18 -106 18q-86 0 -150 -44q-57 -38 -165 -171
q114 0 275 30q222 41 222 107z" />
    <glyph glyph-name="u0636" unicode="&#x636;" horiz-adv-x="1807" arabic-form="isolated" 
d="M1397 1153l-83 -142l-137 105l85 141zM1733 598q0 -209 -263 -344q-200 -103 -445 -126l-7 -18l-3 -15q-5 -35 -14 -62q-6 -14 -17 -16q-10 0 -18 18t-9 41l-1 24l3 28l-58 9q-24 -172 -72 -294q-103 -265 -459 -265q-141 0 -233 64q-105 74 -105 209q0 180 169 410
l28 -13q-91 -147 -91 -215q0 -111 99 -170q82 -50 201 -50q145 0 243 39q139 56 139 179q0 65 -44.5 157.5t-44.5 105.5q0 19 49 110l49 91l52 -79q35 -44 78 -44h36l19 3q11 0 17 2l17 6q227 449 476 449q93 0 153 -72q56 -68 56 -162zM1636 522q0 37 -76 60
q-58 18 -106 18q-86 0 -150 -44q-57 -38 -165 -171q114 0 275 30q222 41 222 107z" />
    <glyph glyph-name="u0637" unicode="&#x637;" horiz-adv-x="1240" arabic-form="isolated" 
d="M1166 611q0 -232 -284 -367q-227 -107 -486 -107q-115 0 -181 50q-55 41 -183 215q53 -13 148 -30l56 -5l67 -2q39 -2 83 4l76 9q22 53 26 80l5 35l2 39v12q0 45 -6 100q-2 16 -19 111l-23 122l-23 116l-17 109q-6 41 -6 88q0 119 111 238l21 -38l32 -52l60 -93
q-87 -115 -87 -202l24 -173q10 -78 10 -133v-47l-1 -32l-3 -38q-1 -19 -6 -64q-6 -25 -15 -67q105 201 242 284q80 48 168 48q93 0 151 -58.5t58 -151.5zM1062 515q0 34 -70 59q-57 20 -99 20q-191 0 -313 -211h41q35 0 71 5l107 16q74 11 148 34q115 37 115 77z" />
    <glyph glyph-name="u0638" unicode="&#x638;" horiz-adv-x="1240" arabic-form="isolated" 
d="M922 1272l-83 -142l-137 105l85 141zM1166 611q0 -232 -284 -367q-227 -107 -486 -107q-115 0 -181 50q-55 41 -183 215q53 -13 148 -30l56 -5l67 -2q39 -2 83 4l76 9q22 53 26 80l5 35l2 39v12q0 45 -6 100q-2 16 -19 111l-23 122l-23 116l-17 109q-6 41 -6 88
q0 119 111 238l21 -38l32 -52l60 -93q-87 -115 -87 -202l24 -173q10 -78 10 -133v-47l-1 -32l-3 -38q-1 -19 -6 -64q-6 -25 -15 -67q105 201 242 284q80 48 168 48q93 0 151 -58.5t58 -151.5zM1062 515q0 34 -70 59q-57 20 -99 20q-191 0 -313 -211h41q35 0 71 5l107 16
q74 11 148 34q115 37 115 77z" />
    <glyph glyph-name="u0639" unicode="&#x639;" horiz-adv-x="958" arabic-form="isolated" 
d="M1109 -487l-437 -178q-263 0 -442 134q-198 148 -198 403q0 157 66 291q43 88 168 253q-82 19 -118 53.5t-36 91.5q0 25 6 54q12 60 109 249q63 125 163 125q98 0 228 -137l-119 -15q-154 -19 -238 -85q-57 -46 -57 -87q0 -82 205 -127q204 122 362 172
q-88 -174 -137 -226q-51 -56 -157 -95q-166 -61 -249 -158q-86 -101 -86 -235q0 -203 216 -331t568 -128q67 0 181 9z" />
    <glyph glyph-name="u063A" unicode="&#x63a;" horiz-adv-x="955" arabic-form="isolated" 
d="M354 1263l-83 -142l-137 105l85 141zM1109 -487l-437 -178q-263 0 -442 134q-198 148 -198 403q0 157 66 291q43 88 168 253q-82 19 -118 53.5t-36 91.5q0 25 6 54q12 60 109 249q63 125 163 125q98 0 228 -137l-119 -15q-154 -19 -238 -85q-57 -46 -57 -87
q0 -82 205 -127q204 122 362 172q-88 -174 -137 -226q-51 -56 -157 -95q-166 -61 -249 -158q-86 -101 -86 -235q0 -203 216 -331t568 -128q67 0 181 9z" />
    <glyph glyph-name="u0641" unicode="&#x641;" horiz-adv-x="1516" arabic-form="isolated" 
d="M1181 1366l-81 -142l-136 105l84 141zM1442 577q0 -157 -78 -226q-129 -115 -380 -192q-247 -75 -513 -75q-190 0 -303 72q-136 87 -136 265q0 92 33 167q24 53 91 146l25 -20q-56 -108 -56 -156q0 -116 162 -173q115 -41 256 -41q220 0 481 68q357 92 357 249
q0 43 -31 105q-36 -85 -67 -118q-46 -49 -121 -49q-68 0 -105.5 34t-37.5 103q0 72 44 195q14 34 40 102q50 137 128 137q110 0 170 -255q41 -176 41 -338zM1257 899q-47 39 -76 39q-46 0 -46 -45q0 -48 50 -48q40 0 72 54z" />
    <glyph glyph-name="u0642" unicode="&#x642;" horiz-adv-x="1101" arabic-form="isolated" 
d="M961 953l-83 -139l-131 91l-65 -117l-141 105l84 136l124 -97l82 124zM1038 175q0 -249 -177 -427q-166 -168 -434 -168q-182 0 -285 86q-110 92 -110 270q0 214 161 463l25 -15q-54 -113 -71 -167q-18 -57 -18 -125q0 -269 372 -269q188 0 318 74q69 39 99 82
q41 58 40 86l-1 23l-8 33l-28 51q-36 -45 -107 -85q-39 -22 -84 -22q-69 0 -112 49t-43 129q0 38 11 102q7 43 28 108q77 235 178 235q33 0 71.5 -32.5t67.5 -86.5q107 -196 107 -394zM826 393q-56 67 -96 67q-55 0 -55 -53q0 -57 57 -57q43 0 94 43z" />
    <glyph glyph-name="u0643" unicode="&#x643;" horiz-adv-x="1564" arabic-form="isolated" 
d="M661 397l-89 1q-163 1 -364 10q-81 19 -87 85l-31 6q-34 -101 -48 -160q-8 -36 -9 -48.5t-1 -22.5v-22q0 -89 116 -108q20 -3 188 -3q339 0 365 8l134 18q124 18 168 48q94 66 94 213q0 135 -79 246q-73 104 -227 184q-112 57 -112 84q0 42 396 161l296 90q59 17 102 83
q24 36 85 171l-74 -19q-87 -22 -125 -34q-108 -33 -214 -73q-230 -86 -415 -189q-69 -38 -90 -72q-23 -37 -21 -104l2 -69l3 -73q2 -45 16 -79q15 -38 99 -72q81 -34 166 -84q126 -75 126 -117q0 -17 -20 -25q-6 -2 -62 -15l-249 -19h-39z" />
    <glyph glyph-name="u0644" unicode="&#x644;" horiz-adv-x="960" arabic-form="isolated" 
d="M886 -14q0 -238 -145 -359q-127 -106 -333 -106q-157 0 -258 68q-118 79 -118 228q0 193 137 384q21 30 49 67l27 -25q-65 -99 -85 -143q-18 -40 -18 -105q0 -104 103 -161q85 -48 197 -48q156 0 292 70q51 26 68.5 58t17.5 91q0 280 -73 573q-5 19 -47.5 171.5
t-42.5 209.5q0 86 103 164q41 -69 61 -96l27 -34l36 -36q-66 -66 -66 -147q0 -48 17 -188l33 -270q18 -148 18 -366z" />
    <glyph glyph-name="u0645" unicode="&#x645;" horiz-adv-x="717" arabic-form="isolated" 
d="M642 443q0 -78 -84 -211l-100 12l-81 4q-47 3 -113 -7q-46 -6 -87 -24q-75 -31 -75 -80q0 -22 42 -151l50 -151l29 -95q15 -51 31 -129q11 -51 11 -85q0 -67 -53 -132q-13 113 -60 280l-81 285q-39 138 -39 208q0 184 98 246q75 48 274 48q-72 106 -144 106
q-53 0 -123 -80l-53 8q53 173 105 247q63 90 160 90q105 0 205 -153q88 -133 88 -236z" />
    <glyph glyph-name="u0646" unicode="&#x646;" horiz-adv-x="907" arabic-form="isolated" 
d="M469 702l-83 -137l-137 100l85 141zM833 98q0 -192 -131 -319t-335 -127q-136 0 -230 69q-105 76 -105 207q0 119 39 221q26 64 106 201l31 -20q-79 -134 -79 -222q0 -100 99 -154q81 -45 189 -45q118 0 226 48q119 52 119 128q0 55 -83.5 168.5t-83.5 148.5q0 64 82 209
q156 -215 156 -513z" />
    <glyph glyph-name="u0647" unicode="&#x647;" horiz-adv-x="582" arabic-form="isolated" 
d="M508 502q0 -149 -61 -248q-73 -119 -213 -119q-96 0 -151 68q-51 63 -51 162q0 183 125 430q69 135 138 135q101 0 164 -172q49 -133 49 -256zM437 474q-119 149 -226 149q-40 0 -70.5 -31t-30.5 -73q0 -97 137 -97q74 0 190 52z" />
    <glyph glyph-name="u0648" unicode="&#x648;" horiz-adv-x="766" arabic-form="isolated" 
d="M692 358q0 -126 -37 -272q-74 -292 -222 -390q-74 -48 -161 -48q-68 0 -128 18q-71 22 -184 75l20 27l39 -8q34 -6 52 -6q163 0 339 168q208 197 208 391v26q-59 -97 -130 -97q-58 0 -93 50q-30 45 -30 105q0 123 46 229q54 123 130 123q61 0 106 -116t45 -275zM566 454
q-21 87 -83 87q-52 0 -52 -52q0 -59 70 -59l27 4q13 3 38 20z" />
    <glyph glyph-name="u0649" unicode="&#x649;" horiz-adv-x="1242" arabic-form="isolated" 
d="M1167 523l-3 -49l-5 -37q-5 -35 -14 -86q-33 39 -128 39q-81 0 -165 -46q-98 -53 -98 -128q0 -48 43 -71q39 -21 172 -47q82 -17 113 -37q50 -32 50 -99q0 -109 -133 -206q-111 -80 -300 -133q-172 -49 -310 -49q-152 0 -247 66q-109 77 -109 222q0 107 41 212
q31 79 95 181q20 31 50 77l27 -17q-109 -184 -109 -264q0 -143 152 -214q115 -53 276 -53q88 0 251 35q201 44 201 97q0 13 -32 21q-39 6 -114 6q-119 0 -179 23q-88 34 -88 126q0 119 197 344q155 176 275 176q97 0 91 -89z" />
    <glyph glyph-name="u064A" unicode="&#x64a;" horiz-adv-x="1242" arabic-form="isolated" 
d="M1167 523l-3 -49l-5 -37q-5 -35 -14 -86q-33 39 -128 39q-81 0 -165 -46q-98 -53 -98 -128q0 -48 43 -71q39 -21 172 -47q82 -17 113 -37q50 -32 50 -99q0 -109 -133 -206q-111 -80 -300 -133q-172 -49 -310 -49q-152 0 -247 66q-109 76 -109 222q0 107 41 212
q31 79 95 181q20 31 50 77l27 -17q-109 -184 -109 -264q0 -143 152 -214q115 -53 276 -53q88 0 251 35q201 44 201 97q0 13 -32 21q-39 6 -114 6q-119 0 -179 23q-88 34 -88 126q0 119 197 344q155 176 275 176q97 0 91 -89z" />
    <glyph glyph-name="u067E" unicode="&#x67e;" horiz-adv-x="1484" arabic-form="isolated" 
d="M1410 650q0 -60 -25 -161q-26 -106 -56 -150q-60 -89 -315 -157q-241 -64 -473 -64q-200 0 -333 63q-176 84 -176 262q0 80 27.5 140.5t109.5 157.5l22 -17q-31 -56 -42 -82l-8 -28l-3 -30q0 -124 151 -178q103 -37 254 -37q264 0 514 58q268 63 268 138q0 11 -61 72
q-30 30 -30 52q0 28 81 236q95 -131 95 -275zM964 -441l-83 -142l-136 105l84 141zM1026 -234l-85 -141l-130 91l-65 -118l-141 105l87 139l126 -101l78 126z" />
    <glyph glyph-name="u0686" unicode="&#x686;" horiz-adv-x="1082" arabic-form="isolated" 
d="M752 -178l-83 -142l-136 105l84 141zM823 46l-85 -141l-131 91l-64 -118l-141 105l87 139l126 -101l77 126zM1195 -456l-445 -213h-51q-291 0 -462 108q-205 130 -205 404q0 378 378 624l-52 10l-72 12q-39 6 -96 6h-47l-57 -10l-41 -9l41 170l67 35l60 24q57 17 112 17
q32 0 78 -8l218 -36l79 -10l73 -6h43l48 -3l43 -1l-35 -182l-107 -2q-30 -1 -125 -18q-197 -37 -341 -161q-163 -140 -163 -328q0 -187 197 -302q202 -117 454 -117q36 0 73 3l78 5l122 4l132 10z" />
    <glyph glyph-name="u0698" unicode="&#x698;" horiz-adv-x="754" arabic-form="isolated" 
d="M489 1255l-82 -142l-137 105l85 141zM619 1046l-85 -141l-130 91l-65 -117l-141 105l87 138l126 -100l78 126zM679 180q0 -186 -94 -354q-111 -198 -284 -198q-111 0 -269 107l14 31l42 -10l37 -2q142 -8 314 142q162 142 162 265q0 62 -86 153t-86 123q0 36 21 117
l32 122q101 -114 152 -241q45 -113 45 -255z" />
    <glyph glyph-name="u06AF" unicode="&#x6af;" horiz-adv-x="1573" arabic-form="isolated" 
d="M661 397l-89 1q-163 1 -364 10q-81 19 -87 85l-31 6q-34 -101 -48 -160q-8 -36 -9 -48.5t-1 -22.5v-22q0 -89 116 -108q20 -3 188 -3q339 0 365 8l134 18q124 18 168 48q94 66 94 213q0 135 -79 246q-73 104 -227 184q-112 57 -112 84q0 42 396 161l296 90q59 17 102 83
q24 36 85 171l-74 -19q-87 -22 -125 -34q-108 -33 -214 -73q-230 -86 -415 -189q-69 -38 -90 -72q-23 -37 -21 -104l2 -69l3 -73q2 -45 16 -79q15 -38 99 -72q81 -34 166 -84q126 -75 126 -117q0 -17 -20 -25q-6 -2 -62 -15l-249 -19h-39zM833 1301q90 36 260 87l281 84
q57 18 99 81q7 9 53 105q-23 -5 -70 -16q-71 -19 -119 -33q-84 -26 -202 -71q-159 -59 -340 -160q-85 -72 -91 -128q49 20 129 51z" />
    <glyph glyph-name="uFB57" unicode="&#x67e;" horiz-adv-x="1531" arabic-form="final" 
d="M1573 137h-149q-63 0 -99 28q-31 25 -50 81q-276 -194 -682 -194q-226 0 -373 78q-188 99 -188 305q0 93 31 171q23 54 86 154l27 -13q-53 -106 -53 -163q0 -155 189 -231q139 -55 320 -55q146 0 249 9q348 33 413 182l20 -7q0 -110 105 -110h154v-235zM769 -509
l-83 -142l-136 105l84 141zM840 -294l-85 -141l-131 92l-64 -118l-141 105l87 139l126 -101l77 126z" />
    <glyph glyph-name="uFB58" unicode="&#x67e;" horiz-adv-x="474" arabic-form="initial" 
d="M400 487q0 -141 -58 -236q-69 -114 -201 -114h-174v235h174q160 0 160 52q0 11 -54 74q-25 30 -25 54q0 25 50 130l49 105q44 -100 63 -163q16 -54 16 -137zM359 -409l-82 -142l-137 105l85 141zM430 -177l-85 -141l-130 91l-65 -117l-141 105l87 139l126 -101l77 126z
" />
    <glyph glyph-name="uFB59" unicode="&#x67e;" horiz-adv-x="606" arabic-form="medial" 
d="M647 137h-148q-56 0 -91 29t-61 99q-65 -128 -145 -128h-224v235h224q44 0 77 6q23 4 49 18q39 22 91 93l9 -2q15 -115 71 -115h148v-235zM375 -446l-82 -142l-137 105l85 141zM446 -205l-85 -141l-130 91l-65 -118l-141 105l87 139l126 -101l77 127z" />
    <glyph glyph-name="uFB7B" unicode="&#x686;" horiz-adv-x="1145" arabic-form="final" 
d="M693 -220l-83 -143l-137 105l85 141zM772 12l-85 -141l-130 91l-65 -118l-141 105l87 139l126 -101l77 126zM1191 -456l-443 -213h-47q-287 0 -461 110q-208 132 -208 402q0 378 377 624l-120 22q-36 6 -101 6h-46l-57 -10q-9 0 -43 -9l42 170q76 41 126.5 58.5
t111.5 17.5q37 0 79 -8l108 -19l166 -25l67 -5l72 -3l48 -3l43 -1l-35 -182q-42 0 -72 -3l-50 -6q23 -58 60 -76.5t143 -18.5h232v-235h-267q-280 0 -280 167q0 68 39 157q-213 -34 -364 -154q-175 -140 -175 -340q0 -187 197 -302q202 -117 448 -117q38 0 77 3l71 5l108 4
l152 10z" />
    <glyph glyph-name="uFB7C" unicode="&#x686;" horiz-adv-x="1017" arabic-form="initial" 
d="M535 -382l-83 -142l-137 105l85 141zM614 -150l-85 -140l-130 91l-65 -118l-141 105l87 139l126 -101l78 126zM943 669l-25 -182l-66 -7l-89 -2q-17 -1 -42 -4q-137 -21 -221 -63q-57 -28 -217 -150q-95 -72 -150 -103q-40 -21 -87 -21h-74v235h86q79 0 159 24.5
t218 96.5q-126 66 -229 66q-49 0 -86 -8q-26 -6 -96 -32q31 132 68 187q57 87 165 87q44 0 97 -13q28 -11 100 -37l114 -39l89 -25q83 -22 169 -17l47 4z" />
    <glyph glyph-name="uFB7D" unicode="&#x686;" horiz-adv-x="1173" arabic-form="medial" 
d="M557 -348l-83 -142l-136 105l84 141zM602 -124l-85 -141l-130 91l-65 -118l-141 105l87 139l126 -100l78 126zM1208 137h-244q-285 0 -285 167q0 52 39 170q-129 -19 -214 -61q-74 -35 -225 -152q-30 -24 -84 -61q-32 -22 -107 -57q-23 -6 -45 -6h-74v235h85
q79 0 159.5 24.5t218.5 96.5q-126 66 -229 66q-50 0 -86 -8q-27 -6 -97 -32q32 132 68 187q57 87 166 87q43 0 96 -13q28 -11 101 -37l113 -39l89 -25q84 -22 170 -17l62 5l94 4l-28 -182l-103 -9l-52 -6q25 -60 63 -81t138 -21h211v-235z" />
    <glyph glyph-name="uFB8B" unicode="&#x698;" horiz-adv-x="626" arabic-form="final" 
d="M387 1094l-82 -142l-137 105l85 141zM543 877l-85 -141l-130 91l-65 -118l-141 105l87 139l126 -101l77 126zM664 137h-153q-27 -207 -101 -351q-105 -204 -273 -204q-79 0 -158 36q-45 20 -142 82l16 29q3 -1 66 -10q29 -4 38 -4q241 0 493 363l-67 80q-62 74 -91 155
l126 189q66 -130 132 -130h114v-235z" />
    <glyph glyph-name="uFEDA" unicode="&#x6a9;" horiz-adv-x="1534" arabic-form="final" 
d="M147 652q-19 -35 -29 -70l-6 -29l-2 -31q-7 -102 123 -165q122 -59 340 -59q257 0 454 58q47 9 86.5 39.5t39.5 57.5q0 65 -190 170q-234 129 -234 300q0 49 28.5 104.5t76.5 106.5q77 81 240 181q58 36 153 88q100 54 169 87q131 63 270 113q-11 -46 -37 -139
q-16 -52 -25 -67q-20 -33 -111 -74l-221 -101q-174 -80 -320 -160q-163 -90 -163 -125q0 -8 33 -24q53 -26 89 -49l175 -117q113 -75 171 -165q42 -63 98 -160q21 -50 65 -50h152v-235h-148q-84 0 -121 40q-46 49 -65 195q0 -174 -207 -260q-180 -75 -523 -75
q-148 0 -240 23q-236 61 -236 318q0 101 16 157z" />
    <glyph glyph-name="uFEDB" unicode="&#x6a9;" horiz-adv-x="1024" arabic-form="initial" 
d="M950 1434q-61 -135 -85 -170q-43 -66 -103 -84l-295 -89q-396 -119 -396 -161q0 -27 112 -85q153 -80 227 -184q79 -111 79 -245q0 -165 -123 -231q-92 -48 -275 -48h-124v235h124q332 0 332 77q0 43 -127 117q-84 50 -165 84q-84 35 -99 72q-14 34 -16 79l-3 73l-2 69
q-2 67 21 104q21 34 90 72q185 103 415 189q106 40 214 73q38 12 125 34z" />
    <glyph glyph-name="uFEDC" unicode="&#x6a9;" horiz-adv-x="1004" arabic-form="medial" 
d="M1068 137h-142q-61 0 -116 42q-43 33 -132 129q-140 154 -200 214l17 -62l3 -44q20 -279 -335 -279h-202v235h202q125 0 176 10q93 17 93 72q0 64 -190 169q-234 129 -234 300q0 49 28.5 104.5t76.5 106.5q77 81 240 181q59 36 153 88q100 54 169 87q131 63 271 114
q-12 -47 -38 -140q-16 -52 -25 -67q-20 -32 -111 -74l-221 -101q-174 -79 -320 -160q-163 -90 -163 -125q0 -19 122 -73l107 -48q132 -59 291 -196l201 -173q87 -75 141 -75h138v-235z" />
    <glyph glyph-name="uFB93" unicode="&#x6af;" horiz-adv-x="1529" arabic-form="final" 
d="M147 652q-19 -35 -29 -70l-6 -29l-2 -31q-7 -102 123 -165q122 -59 340 -59q257 0 454 58q47 9 86.5 39.5t39.5 57.5q0 65 -190 170q-234 129 -234 300q0 49 28.5 104.5t76.5 106.5q77 81 240 181q58 36 153 88q100 54 169 87q131 63 270 113q-11 -46 -37 -139
q-16 -52 -25 -67q-20 -33 -111 -74l-221 -101q-174 -80 -320 -160q-163 -90 -163 -125q0 -8 33 -24q53 -26 89 -49l175 -117q113 -75 171 -165q42 -63 98 -160q21 -50 65 -50h152v-235h-148q-84 0 -121 40q-46 49 -65 195q0 -174 -207 -260q-180 -75 -523 -75
q-148 0 -240 23q-236 61 -236 318q0 101 16 157zM790 1282q11 21 40 52q44 47 56 61q54 67 181 153q46 32 145 93q9 5 168 81q66 39 246 119q-13 -49 -40 -147q-3 -10 -2 -11l2 3q-1 -1 -2 -1q-20 -33 -111 -75l-221 -100q-95 -44 -284 -148q-24 -13 -126 -63
q-44 -21 -44 -34z" />
    <glyph glyph-name="uFB94" unicode="&#x6af;" horiz-adv-x="1024" arabic-form="initial" 
d="M250 1286q90 36 260 87l281 85q57 17 99 80q7 9 53 105q-23 -5 -70 -16q-71 -19 -119 -33q-85 -26 -202 -70q-159 -60 -340 -161q-85 -72 -91 -128q49 20 129 51zM950 1434q-61 -135 -85 -170q-43 -66 -103 -84l-295 -89q-396 -119 -396 -161q0 -27 112 -85
q153 -80 227 -184q79 -111 79 -245q0 -165 -123 -231q-92 -48 -275 -48h-124v235h124q332 0 332 77q0 43 -127 117q-84 50 -165 84q-84 35 -99 72q-14 34 -16 79l-3 73l-2 69q-2 67 21 104q21 34 90 72q185 103 415 189q106 40 214 73q38 12 125 34z" />
    <glyph glyph-name="uFB95" unicode="&#x6af;" horiz-adv-x="1004" arabic-form="medial" 
d="M70 1274q10 21 40 52q44 47 55 61q55 66 182 153q46 32 145 93q9 4 168 81q66 39 245 119q-12 -49 -39 -147q-3 -10 -2 -11q0 -1 1 3q0 -1 -1 -2q-20 -32 -112 -74l-220 -101q-95 -43 -284 -147q-24 -13 -126 -63q-44 -21 -44 -35zM1068 137h-142q-61 0 -116 42
q-43 33 -132 129q-140 154 -200 214l17 -62l3 -44q20 -279 -335 -279h-202v235h202q125 0 176 10q93 17 93 72q0 64 -190 169q-234 129 -234 300q0 49 28.5 104.5t76.5 106.5q77 81 240 181q59 36 153 88q100 54 169 87q131 63 271 114q-12 -47 -38 -140q-16 -52 -25 -67
q-20 -32 -111 -74l-221 -101q-174 -79 -320 -160q-163 -90 -163 -125q0 -19 122 -73l107 -48q132 -59 291 -196l201 -173q87 -75 141 -75h138v-235z" />
    <glyph glyph-name="uFE94" unicode="&#x6c0;" horiz-adv-x="659" arabic-form="final" 
d="M281 983l-33 -77l-258 -108q15 43 25 58q16 24 41 33l31 12l-47 29q-15 9 -28 23q-23 23 -23 49q0 48 51 108t98 60q50 0 50 -65q0 -62 -34 -62q-9 0 -20 9q-7 6 -17 25q-13 22 -24 22q-13 0 -24.5 -13.5t-11.5 -26.5q0 -37 51 -68q47 -29 85 -29q39 0 88 21zM709 137
h-148q-99 0 -141 89q-25 51 -41 178q-62 -88 -98 -122q-46 -44 -97 -44q-49 0 -97 28q-55 32 -55 77q0 50 55 179q25 58 67 94q27 23 171 106l-9 55q-10 55 -10 61q0 41 104 145l17 -101l14 -88l49 -341q12 -81 71 -81h148v-235zM365 493q0 17 -10 71l-6 36q-2 13 -9 39
q-164 -92 -164 -137q0 -13 44 -29q49 -12 108 -12q37 0 37 32z" />
    <glyph glyph-name="uFEF2" unicode="&#x6cc;" horiz-adv-x="1131" arabic-form="final" 
d="M1169 137h-260q-190 0 -190 -48q0 -13 11 -21l38 -16q142 -44 180 -65q101 -54 101 -144q0 -125 -201 -233q-192 -103 -392 -103q-182 0 -296 83q-128 94 -128 269q0 98 25 197q13 49 34 105q24 61 54 126l32 -20q-38 -85 -52 -130q-13 -41 -13 -106q0 -153 133 -229
q107 -63 271 -63q155 0 293 31q144 32 144 69q0 33 -185 33q-175 0 -175 134q0 129 96 244q101 122 227 122h253v-235z" />
    <glyph glyph-name="uFEF3" unicode="&#x6cc;" horiz-adv-x="535" arabic-form="initial" 
d="M432 487q0 -141 -57 -236q-69 -114 -201 -114h-183v235h183q160 0 160 52q0 11 -54 74q-26 30 -26 54q0 25 50 130l50 105q44 -99 63 -163q15 -54 15 -137zM461 -207l-85 -141l-131 92l-64 -118l-141 105l87 139l126 -101l77 126z" />
    <glyph glyph-name="uFEF4" unicode="&#x6cc;" horiz-adv-x="702" arabic-form="medial" 
d="M725 137h-257q-56 0 -91 29t-61 99q-65 -128 -145 -128h-183v235h183q44 0 77 6q23 4 49 18q39 22 91 93l9 -2q16 -115 71 -115h257v-235zM466 -217l-85 -141l-131 91l-64 -118l-141 105l87 139l126 -101l77 126z" />
    <glyph glyph-name="Hcircumflex" unicode="&#x622;" horiz-adv-x="607" arabic-form="final" 
d="M648 128h-149q-204 0 -204 362q0 31 -2 85q-2 60 -3 84q0 62 -13 140q-11 69 -30 122q-22 62 -22 90q0 61 44 112l67 76l17 -98l55 -591q5 -83 27.5 -115t63.5 -32h149v-235zM592 1495q-81 -134 -222 -159q-46 -8 -91 -6q-46 2 -112 17l-33 7l-35 4l-32 2l-24 -2
q-19 -2 -73 -33l-19 17q42 113 124 127q41 7 134 -12q50 -10 113 -13q59 -4 92 3l37 8l30 13q48 20 89 46z" />
    <glyph glyph-name="uFE84" unicode="&#x623;" horiz-adv-x="549" arabic-form="final" 
d="M570 137h-149q-204 0 -204 362q0 31 -2 85q-2 60 -3 84q0 62 -13 140q-11 69 -30 122q-22 62 -22 90q0 61 44 112l67 76l17 -98l55 -591q5 -83 27.5 -115t63.5 -32h149v-235zM330 1438l-34 -77l-257 -108q14 43 25 58q15 24 41 33l31 12l-47 29q-15 9 -29 23
q-22 23 -22 49q0 48 50.5 108t97.5 60q50 0 50 -65q0 -62 -34 -62q-9 0 -20 9q-7 6 -17 25q-13 22 -23 22q-14 0 -25 -13.5t-11 -26.5q0 -37 51 -68q46 -29 85 -29t88 21z" />
    <glyph glyph-name="uFE86" unicode="&#x624;" horiz-adv-x="739" arabic-form="final" 
d="M788 137h-161q-102 -528 -396 -528q-86 0 -162 33q-51 23 -144 87l18 23q37 -12 52 -13l52 -4q17 -1 34 -1q294 0 496 403h-35q-99 0 -141 22q-58 31 -58 119q0 112 67 262q72 157 135 157q41 0 68 -77q14 -40 21 -98l19 -150h135v-235zM591 372q-55 104 -118 104
q-54 0 -54 -48q0 -29 28 -42.5t69 -13.5h75zM665 957l-34 -77l-257 -108q14 42 25 58q15 23 41 33l31 12l-47 28q-15 9 -29 24q-22 23 -22 49q0 47 51 107.5t97 60.5q50 0 50 -65q0 -62 -33 -62q-10 0 -21 8q-7 7 -17 25q-13 22 -23 22q-13 0 -24.5 -13t-11.5 -27
q0 -36 51 -68q46 -29 85 -29t88 22z" />
    <glyph glyph-name="uFE88" unicode="&#x625;" horiz-adv-x="502" arabic-form="final" 
d="M541 137h-148q-205 0 -205 362q0 31 -2 85q-2 60 -2 84q-1 62 -14 140q-10 69 -30 122q-22 62 -22 90q0 61 45 112l66 76l17 -98l55 -591q5 -83 27.5 -115t64.5 -32h148v-235zM508 -180l-34 -76l-258 -109q15 43 25 58q16 24 41 34l31 12l-47 28q-14 9 -28 23
q-23 23 -23 49q0 48 51 108t98 60q50 0 50 -64q0 -62 -34 -62q-9 0 -20 8q-7 6 -17 25q-13 22 -24 22q-13 0 -24.5 -13.5t-11.5 -26.5q0 -36 51 -68q47 -29 85 -29q39 0 89 21z" />
    <glyph glyph-name="uFE8A" unicode="&#x626;" horiz-adv-x="1131" arabic-form="final" 
d="M631 448l-34 -77l-257 -108q15 42 25 58q15 23 41 33l31 12l-47 28q-15 9 -29 24q-22 23 -22 49q0 47 51 107.5t97 60.5q50 0 50 -65q0 -62 -33 -62q-10 0 -21 8q-7 7 -17 25q-12 23 -23 23q-13 0 -24.5 -13.5t-11.5 -27.5q0 -36 51 -68q46 -28 85 -28t88 21zM1169 137
h-260q-190 0 -190 -48q0 -13 11 -21l38 -16q142 -44 180 -65q101 -54 101 -144q0 -125 -201 -233q-192 -103 -392 -103q-182 0 -296 83q-128 94 -128 269q0 98 25 197q13 49 34 105q24 61 54 126l32 -20q-38 -85 -52 -130q-13 -41 -13 -106q0 -153 133 -229q107 -63 271 -63
q155 0 293 31q144 32 144 69q0 33 -185 33q-175 0 -175 134q0 129 96 244q101 122 227 122h253v-235z" />
    <glyph glyph-name="uFE8B" unicode="&#x626;" horiz-adv-x="378" arabic-form="initial" 
d="M304 487q0 -141 -58 -236q-69 -114 -201 -114h-74v235h74q160 0 160 52q0 11 -54 74q-25 30 -25 54q0 25 50 130l50 105q44 -99 62 -163q16 -54 16 -137zM275 1033l-34 -77l-257 -108q14 43 25 58q15 24 40 33l31 12l-46 29q-15 9 -29 23q-22 23 -22 49q0 48 50.5 108
t97.5 60q50 0 50 -65q0 -62 -34 -62q-9 0 -20 9q-7 6 -17 25q-13 22 -24 22q-13 0 -24 -13.5t-11 -26.5q0 -37 51 -68q46 -29 85 -29t88 21z" />
    <glyph glyph-name="uFE8C" unicode="&#x626;" horiz-adv-x="450" arabic-form="medial" 
d="M494 137h-149q-55 0 -90 29t-61 99q-65 -128 -145 -128h-75v235h75q44 0 77 6q22 4 49 18q38 22 91 93l8 -2q16 -115 71 -115h149v-235zM402 846l-34 -76l-257 -109q15 43 25 59q15 23 41 33l31 12l-47 28q-15 9 -29 23q-22 23 -22 49q0 48 51 108t97 60q50 0 50 -64
q0 -62 -33 -62q-10 0 -21 8q-7 6 -18 26.5t-22 20.5q-13 0 -24.5 -13t-11.5 -27q0 -36 51 -68q46 -29 85 -29t88 21z" />
    <glyph glyph-name="uFE8E" unicode="&#x627;" horiz-adv-x="489" arabic-form="final" 
d="M531 137h-148q-205 0 -205 362q0 31 -1 85q-3 60 -3 84q-1 62 -13 140q-11 69 -30 122q-23 62 -23 90q0 61 45 112l67 76l17 -98l55 -591q5 -83 27.5 -115t63.5 -32h148v-235z" />
    <glyph glyph-name="uFE90" unicode="&#x628;" horiz-adv-x="1531" arabic-form="final" 
d="M1573 137h-149q-63 0 -99 28q-31 25 -50 81q-276 -194 -682 -194q-226 0 -373 78q-188 99 -188 305q0 93 31 171q23 54 86 154l27 -13q-53 -106 -53 -163q0 -155 189 -231q139 -55 320 -55q146 0 249 9q348 33 413 182l20 -7q0 -110 105 -110h154v-235zM795 -305
l-83 -142l-137 105l85 141z" />
    <glyph glyph-name="uFE91" unicode="&#x628;" horiz-adv-x="378" arabic-form="initial" 
d="M304 487q0 -141 -58 -236q-69 -114 -201 -114h-74v235h74q160 0 160 52q0 11 -54 74q-25 30 -25 54q0 25 50 130l50 105q44 -99 62 -163q16 -54 16 -137zM235 -161l-83 -142l-137 105l85 141z" />
    <glyph glyph-name="uFE92" unicode="&#x628;" horiz-adv-x="457" arabic-form="medial" 
d="M494 137h-149q-55 0 -90 29t-61 99q-65 -128 -145 -128h-75v235h75q44 0 77 6q22 4 49 18q38 22 91 93l8 -2q16 -115 71 -115h149v-235zM201 -187l-83 -142l-137 105l85 141z" />
    <glyph glyph-name="uFE96" unicode="&#x62a;" horiz-adv-x="1527" arabic-form="final" 
d="M1573 137h-149q-63 0 -99 28q-31 25 -50 81q-276 -194 -682 -194q-226 0 -373 78q-188 99 -188 305q0 93 31 171q23 54 86 154l27 -13q-53 -106 -53 -163q0 -155 189 -231q139 -55 320 -55q146 0 249 9q348 33 413 182l20 -7q0 -110 105 -110h154v-235zM882 843l-85 -141
l-130 91l-65 -118l-141 105l87 139l126 -101l78 126z" />
    <glyph glyph-name="uFE97" unicode="&#x62a;" horiz-adv-x="445" arabic-form="initial" 
d="M371 487q0 -141 -58 -236q-69 -114 -201 -114h-144v235h144q160 0 160 52q0 11 -54 74q-25 30 -25 54q0 25 50 130l50 105q44 -99 62 -163q16 -54 16 -137zM446 1033l-84 -141l-131 92l-64 -118l-141 105l86 139l127 -101l77 126z" />
    <glyph glyph-name="uFE98" unicode="&#x62a;" horiz-adv-x="537" arabic-form="medial" 
d="M570 137h-148q-56 0 -90.5 29t-61.5 99q-64 -128 -145 -128h-154v235h154q44 0 78 6q22 4 48 18q39 22 91 93l9 -2q16 -115 71 -115h148v-235zM452 855l-85 -141l-131 91l-64 -117l-141 105l87 138l126 -100l77 126z" />
    <glyph glyph-name="uFE9A" unicode="&#x62b;" horiz-adv-x="1531" arabic-form="final" 
d="M1573 137h-149q-63 0 -99 28q-31 25 -50 81q-276 -194 -682 -194q-226 0 -373 78q-188 99 -188 305q0 93 31 171q23 54 86 154l27 -13q-53 -106 -53 -163q0 -155 189 -231q139 -55 320 -55q146 0 249 9q348 33 413 182l20 -7q0 -110 105 -110h154v-235zM769 1060
l-83 -142l-136 105l84 141zM899 868l-85 -141l-130 91l-65 -117l-141 105l87 138l126 -100l78 126z" />
    <glyph glyph-name="uFE9B" unicode="&#x62b;" horiz-adv-x="484" arabic-form="initial" 
d="M409 487q0 -141 -57 -236q-69 -114 -201 -114h-184v235h184q160 0 160 52q0 11 -54 74q-26 30 -26 54q0 25 50 130l50 105q44 -100 62 -163q16 -54 16 -137zM312 1256l-83 -142l-137 104l85 141zM450 1055l-85 -141l-130 91l-65 -117l-141 105l87 139l126 -101l77 126z
" />
    <glyph glyph-name="uFE9C" unicode="&#x62b;" horiz-adv-x="539" arabic-form="medial" 
d="M580 137h-148q-56 0 -91 29t-61 99q-65 -128 -145 -128h-174v235h174q44 0 77 6q23 4 49 18q39 22 91 93l9 -2q15 -115 71 -115h148v-235zM310 1044l-83 -142l-137 105l85 141zM440 852l-85 -141l-130 91l-65 -117l-141 105l87 138l126 -100l77 126z" />
    <glyph glyph-name="uFE9E" unicode="&#x62c;" horiz-adv-x="1138" arabic-form="final" 
d="M676 -51l-83 -142l-137 105l85 141zM1191 -456l-443 -213h-47q-287 0 -461 110q-208 132 -208 402q0 378 377 624l-120 22q-36 6 -101 6h-46l-57 -10q-9 0 -43 -9l42 170q76 41 126.5 58.5t111.5 17.5q37 0 79 -8l108 -19l166 -25l67 -5l72 -3l48 -3l43 -1l-35 -182
q-42 0 -72 -3l-50 -6q23 -58 60 -76.5t143 -18.5h232v-235h-267q-280 0 -280 167q0 68 39 157q-213 -34 -364 -154q-175 -140 -175 -340q0 -187 197 -302q202 -117 448 -117q38 0 77 3l71 5l108 4l152 10z" />
    <glyph glyph-name="uFE9F" unicode="&#x62c;" horiz-adv-x="1017" arabic-form="initial" 
d="M488 -178l-83 -142l-136 105l84 141zM943 669l-25 -182l-66 -7l-89 -2q-17 -1 -42 -4q-137 -21 -221 -63q-57 -28 -217 -150q-95 -72 -150 -103q-40 -21 -87 -21h-74v235h86q79 0 159 24.5t218 96.5q-126 66 -229 66q-49 0 -86 -8q-26 -6 -96 -32q31 132 68 187
q57 87 165 87q44 0 97 -13q28 -11 100 -37l114 -39l89 -25q83 -22 169 -17l47 4z" />
    <glyph glyph-name="uFEA0" unicode="&#x62c;" horiz-adv-x="1173" arabic-form="medial" 
d="M489 -229l-82 -142l-137 105l85 141zM1208 137h-244q-285 0 -285 167q0 52 39 170q-129 -19 -214 -61q-74 -35 -225 -152q-30 -24 -84 -61q-32 -22 -107 -57q-23 -6 -45 -6h-74v235h85q79 0 159.5 24.5t218.5 96.5q-126 66 -229 66q-50 0 -86 -8q-27 -6 -97 -32
q32 132 68 187q57 87 166 87q43 0 96 -13q28 -11 101 -37l113 -39l89 -25q84 -22 170 -17l62 5l94 4l-28 -182l-103 -9l-52 -6q25 -60 63 -81t138 -21h211v-235z" />
    <glyph glyph-name="uFEA2" unicode="&#x62d;" horiz-adv-x="1143" arabic-form="final" 
d="M1191 -456l-443 -213h-47q-287 0 -461 110q-208 132 -208 402q0 378 377 624l-120 22q-36 6 -101 6h-46l-57 -10q-9 0 -43 -9l42 170q76 41 126.5 58.5t111.5 17.5q37 0 79 -8l108 -19l166 -25l67 -5l72 -3l48 -3l43 -1l-35 -182q-42 0 -72 -3l-50 -6q23 -58 60 -76.5
t143 -18.5h232v-235h-267q-280 0 -280 167q0 68 39 157q-213 -34 -364 -154q-175 -140 -175 -340q0 -187 197 -302q202 -117 448 -117q38 0 77 3l71 5l108 4l152 10z" />
    <glyph glyph-name="uFEA3" unicode="&#x62d;" horiz-adv-x="1017" arabic-form="initial" 
d="M943 669l-25 -182l-66 -7l-89 -2q-17 -1 -42 -4q-137 -21 -221 -63q-57 -28 -217 -150q-95 -72 -150 -103q-40 -21 -87 -21h-74v235h86q79 0 159 24.5t218 96.5q-126 66 -229 66q-49 0 -86 -8q-26 -6 -96 -32q31 132 68 187q57 87 165 87q44 0 97 -13q28 -11 100 -37
l114 -39l89 -25q83 -22 169 -17l47 4z" />
    <glyph glyph-name="uFEA4" unicode="&#x62d;" horiz-adv-x="1165" arabic-form="medial" 
d="M1208 137h-244q-285 0 -285 167q0 52 39 170q-129 -19 -214 -61q-74 -35 -225 -152q-30 -24 -84 -61q-32 -22 -107 -57q-23 -6 -45 -6h-74v235h85q79 0 159.5 24.5t218.5 96.5q-126 66 -229 66q-50 0 -86 -8q-27 -6 -97 -32q32 132 68 187q57 87 166 87q43 0 96 -13
q28 -11 101 -37l113 -39l89 -25q84 -22 170 -17l62 5l94 4l-28 -182l-103 -9l-52 -6q25 -60 63 -81t138 -21h211v-235z" />
    <glyph glyph-name="uFEA6" unicode="&#x62e;" horiz-adv-x="1145" arabic-form="final" 
d="M549 1077l-83 -142l-137 105l85 141zM1191 -456l-443 -213h-47q-287 0 -461 110q-208 132 -208 402q0 378 377 624l-120 22q-36 6 -101 6h-46l-57 -10q-9 0 -43 -9l42 170q76 41 126.5 58.5t111.5 17.5q37 0 79 -8l108 -19l166 -25l67 -5l72 -3l48 -3l43 -1l-35 -182
q-42 0 -72 -3l-50 -6q23 -58 60 -76.5t143 -18.5h232v-235h-267q-280 0 -280 167q0 68 39 157q-213 -34 -364 -154q-175 -140 -175 -340q0 -187 197 -302q202 -117 448 -117q38 0 77 3l71 5l108 4l152 10z" />
    <glyph glyph-name="uFEA7" unicode="&#x62e;" horiz-adv-x="1017" arabic-form="initial" 
d="M301 1136l-83 -142l-137 105l85 141zM943 669l-25 -182l-66 -7l-89 -2q-17 -1 -42 -4q-137 -21 -221 -63q-57 -28 -217 -150q-95 -72 -150 -103q-40 -21 -87 -21h-74v235h86q79 0 159 24.5t218 96.5q-126 66 -229 66q-49 0 -86 -8q-26 -6 -96 -32q31 132 68 187
q57 87 165 87q44 0 97 -13q28 -11 100 -37l114 -39l89 -25q83 -22 169 -17l47 4z" />
    <glyph glyph-name="uFEA8" unicode="&#x62e;" horiz-adv-x="1173" arabic-form="medial" 
d="M291 1153l-83 -142l-137 105l85 141zM1208 137h-244q-285 0 -285 167q0 52 39 170q-129 -19 -214 -61q-74 -35 -225 -152q-30 -24 -84 -61q-32 -22 -107 -57q-23 -6 -45 -6h-74v235h85q79 0 159.5 24.5t218.5 96.5q-126 66 -229 66q-50 0 -86 -8q-27 -6 -97 -32
q32 132 68 187q57 87 166 87q43 0 96 -13q28 -11 101 -37l113 -39l89 -25q84 -22 170 -17l62 5l94 4l-28 -182l-103 -9l-52 -6q25 -60 63 -81t138 -21h211v-235z" />
    <glyph glyph-name="uFEAA" unicode="&#x62f;" horiz-adv-x="864" arabic-form="final" 
d="M904 137h-139q-162 0 -229 241q-103 -221 -321 -221q-101 0 -142 28.5t-41 87.5q0 17 34 138l12 46l22 62l26 -4q17 -60 57 -86.5t123 -26.5q93 0 131 13q66 24 66 98q0 62 -25.5 186.5t-25.5 186.5q0 47 21 90q13 28 32 51l56 72l3 -115q1 -46 12 -98l32 -164l40 -184
q16 -77 32 -107q30 -59 85 -59h139v-235z" />
    <glyph glyph-name="uFEAC" unicode="&#x630;" horiz-adv-x="868" arabic-form="final" 
d="M583 1365l-83 -142l-137 105l85 141zM904 137h-139q-162 0 -229 241q-103 -221 -321 -221q-101 0 -142 28.5t-41 87.5q0 17 34 138l12 46l22 62l26 -4q17 -60 57 -86.5t123 -26.5q93 0 131 13q66 24 66 98q0 62 -25.5 186.5t-25.5 186.5q0 47 21 90q13 28 32 51l56 72
l3 -115q1 -46 12 -98l32 -164l40 -184q16 -77 32 -107q30 -59 85 -59h139v-235z" />
    <glyph glyph-name="uFEAE" unicode="&#x631;" horiz-adv-x="628" arabic-form="final" 
d="M664 137h-153q-27 -207 -101 -351q-105 -204 -273 -204q-79 0 -158 36q-45 20 -142 82l16 29q3 -1 66 -10q29 -4 38 -4q241 0 493 363l-67 80q-62 74 -91 155l126 189q66 -130 132 -130h114v-235z" />
    <glyph glyph-name="uFEB0" unicode="&#x632;" horiz-adv-x="622" arabic-form="final" 
d="M447 848l-83 -142l-137 105l85 141zM664 137h-153q-27 -207 -101 -351q-105 -204 -273 -204q-79 0 -158 36q-45 20 -142 82l16 29q3 -1 66 -10q29 -4 38 -4q241 0 493 363l-67 80q-62 74 -91 155l126 189q66 -130 132 -130h114v-235z" />
    <glyph glyph-name="uFEB2" unicode="&#x633;" horiz-adv-x="1721" arabic-form="final" 
d="M1764 137h-149q-125 0 -192 215q-61 -189 -172 -189q-96 0 -131 124q-70 -150 -194 -150h-25q-24 -172 -72 -294q-103 -265 -459 -265q-141 0 -233 64q-105 74 -105 209q0 97 44 197q9 21 35 66l35 61l55 86l28 -13q-91 -147 -91 -215q0 -111 99 -170q82 -50 201 -50
q145 0 243 39q139 56 139 179q0 43 -11 83q-4 13 -16 41l-62 139q0 21 49 111l49 90q78 -112 124 -112q62 0 107 19q80 33 127 132l27 -6q0 -124 95 -124q86 0 118 124h25q37 -156 163 -156h149v-235z" />
    <glyph glyph-name="uFEB3" unicode="&#x633;" horiz-adv-x="1041" arabic-form="initial" 
d="M967 487q0 -113 -45 -201q-56 -110 -158 -110t-165 128q-76 -167 -222 -167q-134 0 -182 130q-41 -130 -145 -130h-74v235h74q44 0 77 6q23 4 49 18q38 22 91 93l8 -2q16 -115 102 -115q110 0 180 56q61 49 107 158l22 -13q0 -75 39 -124q42 -54 115 -54q46 0 46 27
q0 5 -33 35t-33 65l1 54l9 61q6 47 30 119q107 -101 107 -269z" />
    <glyph glyph-name="uFEB4" unicode="&#x633;" horiz-adv-x="1212" arabic-form="medial" 
d="M1258 137h-148q-81 0 -132 70q-30 43 -63 145q-61 -189 -172 -189q-89 0 -130 124q-67 -150 -236 -150q-135 0 -182 130q-57 -130 -145 -130h-74v235h74q44 0 77 6q23 4 49 18q38 22 91 93l8 -2q17 -115 109 -115q99 0 155 22q92 37 140 140l27 -6q0 -63 21.5 -93.5
t73.5 -30.5q91 0 120 124h25q37 -156 164 -156h148v-235z" />
    <glyph glyph-name="uFEB6" unicode="&#x634;" horiz-adv-x="1719" arabic-form="final" 
d="M1186 1145l-83 -142l-137 105l85 141zM1323 944l-85 -141l-130 92l-65 -118l-141 105l87 139l126 -101l78 126zM1764 137h-149q-125 0 -192 215q-61 -189 -172 -189q-96 0 -131 124q-70 -150 -194 -150h-25q-24 -172 -72 -294q-103 -265 -459 -265q-141 0 -233 64
q-105 74 -105 209q0 97 44 197q9 21 35 66l35 61l55 86l28 -13q-91 -147 -91 -215q0 -111 99 -170q82 -50 201 -50q145 0 243 39q139 56 139 179q0 43 -11 83q-4 13 -16 41l-62 139q0 21 49 111l49 90q78 -112 124 -112q62 0 107 19q80 33 127 132l27 -6q0 -124 95 -124
q86 0 118 124h25q37 -156 163 -156h149v-235z" />
    <glyph glyph-name="uFEB7" unicode="&#x634;" horiz-adv-x="1041" arabic-form="initial" 
d="M591 1179l-83 -142l-136 105l84 141zM738 970l-85 -141l-130 91l-65 -118l-141 105l87 139l126 -101l77 127zM967 487q0 -113 -45 -201q-56 -110 -158 -110t-165 128q-76 -167 -222 -167q-134 0 -182 130q-41 -130 -145 -130h-74v235h74q44 0 77 6q23 4 49 18
q38 22 91 93l8 -2q16 -115 102 -115q110 0 180 56q61 49 107 158l22 -13q0 -75 39 -124q42 -54 115 -54q46 0 46 27q0 5 -33 35t-33 65l1 54l9 61q6 47 30 119q107 -101 107 -269z" />
    <glyph glyph-name="uFEB8" unicode="&#x634;" horiz-adv-x="1219" arabic-form="medial" 
d="M659 1128l-83 -142l-137 105l85 141zM789 919l-85 -141l-130 91l-65 -118l-141 105l87 139l126 -100l77 126zM1258 137h-148q-81 0 -132 70q-30 43 -63 145q-61 -189 -172 -189q-89 0 -130 124q-67 -150 -236 -150q-135 0 -182 130q-57 -130 -145 -130h-74v235h74
q44 0 77 6q23 4 49 18q38 22 91 93l8 -2q17 -115 109 -115q99 0 155 22q92 37 140 140l27 -6q0 -63 21.5 -93.5t73.5 -30.5q91 0 120 124h25q37 -156 164 -156h148v-235z" />
    <glyph glyph-name="uFEBA" unicode="&#x635;" horiz-adv-x="1873" arabic-form="final" 
d="M1920 137l-262 1l-110 3l-200 12l-115 -6l-86 -2q-60 -1 -111 -8q-7 -13 -7 -19l-12 -41q-4 -17 -6 -19q0 -39 -19 -39q-28 0 -28 64l6 54l-65 -2l-3 -35q-2 -13 -8 -39l-20 -74q-20 -79 -45 -144q-103 -265 -459 -265q-141 0 -233 64q-105 74 -105 209q0 172 169 410
l28 -13q-91 -147 -91 -215q0 -111 99 -170q82 -50 201 -50q145 0 243 39q139 56 139 179q0 65 -44.5 157.5t-44.5 105.5q0 21 49 111l49 90l52 -79q36 -45 78 -44l31 1l67 5q213 463 480 463q94 0 151 -65q54 -61 54 -157q0 -93 -30 -139q-35 -54 -152 -128l101 13l78 7h181
v-235zM1644 528q0 39 -73 63q-57 20 -105 20q-123 0 -252 -134q-42 -43 -79 -101q365 0 473 88q36 30 36 64z" />
    <glyph glyph-name="uFEBB" unicode="&#x635;" horiz-adv-x="1306" arabic-form="initial" 
d="M1232 600q0 -209 -264 -345q-201 -103 -447 -127l-7 -33q-11 -50 -16.5 -62.5t-15.5 -15.5q-13 0 -22 17l-6 18l-3 24v24l7 37l-81 -2q-74 -2 -113.5 28t-68.5 104q-60 -130 -145 -130h-74v235h74q44 0 77 6q23 4 49 18q38 22 91 93l8 -2q13 -115 98 -115h64l110 11
q227 449 469 449q95 0 157 -69q59 -67 59 -163zM1134 522q0 37 -76 60q-57 18 -105 18q-103 0 -183 -65q-47 -39 -132 -150q113 0 275 30q221 41 221 107z" />
    <glyph glyph-name="uFEBC" unicode="&#x635;" horiz-adv-x="1369" arabic-form="medial" 
d="M1415 137l-276 1l-100 3l-195 12l-116 -6l-85 -2q-60 -1 -112 -8l-6 -19l-18 -60q0 -37 -15 -39q-11 0 -24 20l-7 20l-2 26v20l7 32l-44 -2h-45q-97 0 -146 66q-20 27 -33 66q-56 -130 -145 -130h-74v235h74q44 0 78 6q22 4 48 18q39 22 92 93l8 -2q16 -118 108 -115
l105 3l60 3q214 463 476 463q100 0 154.5 -61t54.5 -161q0 -93 -41 -155q-34 -50 -137 -111l65 10q64 9 96 9h195v-235zM1140 528q0 39 -74 63q-56 20 -104 20q-123 0 -252 -134q-42 -43 -79 -101q364 0 473 88q36 30 36 64z" />
    <glyph glyph-name="uFEBE" unicode="&#x636;" horiz-adv-x="1884" arabic-form="final" 
d="M1524 1179l-83 -142l-137 105l85 141zM1920 137l-262 1l-110 3l-200 12l-115 -6l-86 -2q-60 -1 -111 -8q-7 -13 -7 -19l-12 -41q-4 -17 -6 -19q0 -39 -19 -39q-28 0 -28 64l6 54l-65 -2l-3 -35q-2 -13 -8 -39l-20 -74q-20 -79 -45 -144q-103 -265 -459 -265
q-141 0 -233 64q-105 74 -105 209q0 172 169 410l28 -13q-91 -147 -91 -215q0 -111 99 -170q82 -50 201 -50q145 0 243 39q139 56 139 179q0 65 -44.5 157.5t-44.5 105.5q0 21 49 111l49 90l52 -79q36 -45 78 -44l31 1l67 5q213 463 480 463q94 0 151 -65q54 -61 54 -157
q0 -93 -30 -139q-35 -54 -152 -128l101 13l78 7h181v-235zM1644 528q0 39 -73 63q-57 20 -105 20q-123 0 -252 -134q-42 -43 -79 -101q365 0 473 88q36 30 36 64z" />
    <glyph glyph-name="uFEBF" unicode="&#x636;" horiz-adv-x="1306" arabic-form="initial" 
d="M930 1170l-82 -142l-137 105l85 141zM1232 600q0 -209 -264 -345q-201 -103 -447 -127l-7 -33q-11 -50 -16.5 -62.5t-15.5 -15.5q-13 0 -22 17l-6 18l-3 24v24l7 37l-81 -2q-74 -2 -113.5 28t-68.5 104q-60 -130 -145 -130h-74v235h74q44 0 77 6q23 4 49 18q38 22 91 93
l8 -2q13 -115 98 -115h64l110 11q227 449 469 449q95 0 157 -69q59 -67 59 -163zM1134 522q0 37 -76 60q-57 18 -105 18q-103 0 -183 -65q-47 -39 -132 -150q113 0 275 30q221 41 221 107z" />
    <glyph glyph-name="uFEC0" unicode="&#x636;" horiz-adv-x="1371" arabic-form="medial" 
d="M964 1119l-83 -142l-136 105l84 141zM1415 137l-276 1l-100 3l-195 12l-116 -6l-85 -2q-60 -1 -112 -8l-6 -19l-18 -60q0 -37 -15 -39q-11 0 -24 20l-7 20l-2 26v20l7 32l-44 -2h-45q-97 0 -147 67q-19 26 -32 65q-56 -130 -145 -130h-74v235h74q44 0 78 6q22 4 48 18
q39 22 92 93l8 -2q16 -118 108 -115l105 3l60 3q214 463 476 463q100 0 154.5 -61t54.5 -161q0 -93 -41 -155q-34 -50 -137 -111l65 10q64 9 96 9h195v-235zM1140 528q0 39 -74 63q-56 20 -104 20q-123 0 -252 -134q-42 -43 -79 -101q364 0 473 88q36 30 36 64z" />
    <glyph glyph-name="uFEC2" unicode="&#x637;" horiz-adv-x="1314" arabic-form="final" 
d="M1360 137h-196l-178 4l-224 12l-151 -5l-247 -11q-77 -4 -125.5 20t-91.5 84l-115 161l114 -18q132 -21 155 -19l89 6l72 7q32 82 32 154q0 90 -24 217l-46 239q-25 133 -25 202q0 119 111 238q30 -55 53 -90l61 -93q-89 -116 -89 -196l11 -85l14 -95q12 -87 12 -132v-31
l-1 -36l-3 -42q-2 -36 -8 -68l-13 -71q172 332 410 332q93 0 151 -58.5t58 -151.5q0 -79 -29 -137q-23 -44 -84 -114l35 4l108 8h164v-235zM1061 515q0 34 -71 59q-56 20 -99 20q-194 0 -312 -211h29l44 1h18q14 3 19 4l107 16q74 11 149 34q116 37 116 77z" />
    <glyph glyph-name="uFEC3" unicode="&#x637;" horiz-adv-x="983" arabic-form="initial" 
d="M909 611q0 -231 -284 -366q-228 -108 -486 -108h-164v235h229q22 54 26 81l5 36l2 43q4 82 -23 223l-47 241q-23 122 -23 194q0 119 111 238l21 -38l32 -52l59 -93q-87 -122 -87 -202l25 -174l7 -70l3 -62q4 -77 -26 -248q167 332 411 332q93 0 151 -58.5t58 -151.5z
M804 515q0 34 -70 59q-57 20 -99 20q-188 0 -313 -211h41q35 0 71 5l107 16q106 16 190 51q73 30 73 60z" />
    <glyph glyph-name="uFEC4" unicode="&#x637;" horiz-adv-x="1069" arabic-form="medial" 
d="M1104 137h-204l-175 4l-218 12l-149 -5l-240 -11h-150v235h249q22 54 26 81l5 36l2 43q4 78 -23 220l-47 243l-17 108q-6 41 -6 87q0 119 111 238l21 -38l32 -52l59 -93q-86 -115 -86 -196l24 -177l7 -79l4 -56v-93l-6 -37q0 -18 -21 -118q168 332 411 332
q93 0 151 -58.5t58 -151.5v-38q-2 -24 -21 -84q-23 -51 -88 -126l88 7l40 2h163v-235zM817 515q0 34 -70 59q-57 20 -99 20q-188 0 -313 -211h41q36 0 71 5l107 16q107 16 190 51q73 30 73 60z" />
    <glyph glyph-name="uFEC6" unicode="&#x638;" horiz-adv-x="1311" arabic-form="final" 
d="M922 1238l-83 -142l-137 105l85 141zM1360 137h-196l-178 4l-224 12l-151 -5l-247 -11q-77 -4 -125.5 20t-91.5 84l-115 161l114 -18q132 -21 155 -19l89 6l72 7q32 82 32 154q0 90 -24 217l-46 239q-25 133 -25 202q0 119 111 238q30 -55 53 -90l61 -93
q-89 -116 -89 -196l11 -85l14 -95q12 -87 12 -132v-31l-1 -36l-3 -42q-2 -36 -8 -68l-13 -71q172 332 410 332q93 0 151 -58.5t58 -151.5q0 -79 -29 -137q-23 -44 -84 -114l35 4l108 8h164v-235zM1061 515q0 34 -71 59q-56 20 -99 20q-194 0 -312 -211h29l44 1h18q14 3 19 4
l107 16q74 11 149 34q116 37 116 77z" />
    <glyph glyph-name="uFEC7" unicode="&#x638;" horiz-adv-x="983" arabic-form="initial" 
d="M652 1221l-83 -142l-137 105l85 141zM909 611q0 -231 -284 -366q-228 -108 -486 -108h-174v235h239q22 54 26 81l5 36l2 43q4 82 -23 223l-47 241q-23 122 -23 194q0 119 111 238l21 -38l32 -52l59 -93q-87 -122 -87 -202l25 -174l7 -70l3 -62q4 -77 -26 -248
q167 332 411 332q93 0 151 -58.5t58 -151.5zM804 515q0 34 -70 59q-57 20 -99 20q-188 0 -313 -211h41q35 0 71 5l107 16q106 16 190 51q73 30 73 60z" />
    <glyph glyph-name="uFEC8" unicode="&#x638;" horiz-adv-x="1040" arabic-form="medial" 
d="M685 1204l-83 -142l-137 105l85 141zM1085 137h-204l-175 4l-219 12l-148 -5l-241 -11h-129v235h229q22 54 26 81l5 36l2 43q4 78 -23 220l-47 243l-17 108q-6 41 -6 87q0 119 111 238l21 -38l32 -52l59 -93q-87 -115 -87 -196l25 -177l7 -79l3 -56v-93l-5 -37
q0 -18 -21 -118q167 332 411 332q93 0 151 -58.5t58 -151.5v-38q-2 -24 -21 -84q-24 -51 -88 -126l88 7l40 2h163v-235zM798 515q0 34 -71 59q-56 20 -99 20q-187 0 -312 -211h41q35 0 71 5l107 16q106 16 190 51q73 30 73 60z" />
    <glyph glyph-name="uFECA" unicode="&#x639;" horiz-adv-x="951" arabic-form="final" 
d="M1095 -456l-417 -209q-282 0 -450 117q-195 135 -195 405q0 161 67 281q62 111 243 264l-78 43l-95 42q62 280 297 280q94 0 160 -53q70 -58 70 -149q0 -92 -117 -161q51 -20 96 -27q39 -5 113 -5h208v-235h-198q-70 0 -132 25q-50 21 -103 70l-108 101
q-140 -46 -226 -130q-100 -100 -100 -234q0 -194 192 -303q202 -115 532 -109l103 2h46q20 3 28 4l62 7z" />
    <glyph glyph-name="uFECB" unicode="&#x639;" horiz-adv-x="839" arabic-form="initial" 
d="M765 625l-6 -44l-6 -27l-16 -78q-8 -43 -31 -65q-17 -14 -61 -33l-90 -38q-85 -37 -158.5 -70t-217.5 -94q-103 -39 -137 -39h-74v235h74q31 0 48 4l18 7q34 12 50 25q-104 86 -104 138q0 65 69 177q59 94 120 153q90 86 168 86q105 0 242 -225l-72 26q-27 7 -71 7
q-82 0 -174 -21q-132 -30 -132 -84q0 -43 88 -99q84 -53 131 -53q48 0 133 27q47 14 93 35z" />
    <glyph glyph-name="uFECC" unicode="&#x639;" horiz-adv-x="648" arabic-form="medial" 
d="M695 137h-149q-49 0 -114 65l-124 124l-100 -95q-99 -94 -157 -94h-74v235h74q52 0 89 13q24 8 56 31l-64 36q-26 14 -103 43q48 287 287 287q100 0 172 -54q80 -60 80 -157q0 -64 -33 -104q-25 -30 -91 -65l43 -20q20 -10 59 -10h149v-235z" />
    <glyph glyph-name="uFECE" unicode="&#x63a;" horiz-adv-x="954" arabic-form="final" 
d="M523 1043l-83 -142l-136 105l85 141zM1095 -456l-417 -209q-282 0 -450 117q-195 135 -195 405q0 161 67 281q62 111 243 264l-78 43l-95 42q62 280 297 280q94 0 160 -53q70 -58 70 -149q0 -92 -117 -161q51 -20 96 -27q39 -5 113 -5h208v-235h-198q-70 0 -132 25
q-50 21 -103 70l-108 101q-140 -46 -226 -130q-100 -100 -100 -234q0 -194 192 -303q202 -115 532 -109l103 2h46q20 3 28 4l62 7z" />
    <glyph glyph-name="uFECF" unicode="&#x63a;" horiz-adv-x="839" arabic-form="initial" 
d="M311 1272l-83 -142l-136 105l85 141zM765 625l-6 -44l-6 -27l-16 -78q-8 -43 -31 -65q-17 -14 -61 -33l-90 -38q-85 -37 -158.5 -70t-217.5 -94q-103 -39 -137 -39h-74v235h74q31 0 48 4l18 7q34 12 50 25q-104 86 -104 138q0 65 69 177q59 94 120 153q90 86 168 86
q105 0 242 -225l-72 26q-27 7 -71 7q-82 0 -174 -21q-132 -30 -132 -84q0 -43 88 -99q84 -53 131 -53q48 0 133 27q47 14 93 35z" />
    <glyph glyph-name="uFED0" unicode="&#x63a;" horiz-adv-x="648" arabic-form="medial" 
d="M396 1068l-83 -142l-136 105l84 141zM695 137h-149q-49 0 -114 65l-124 124l-100 -95q-99 -94 -157 -94h-74v235h74q52 0 89 13q24 8 56 31l-64 36q-26 14 -103 43q48 287 287 287q100 0 172 -54q80 -60 80 -157q0 -64 -33 -104q-25 -30 -91 -65l43 -20q20 -10 59 -10
h149v-235z" />
    <glyph glyph-name="uFED2" unicode="&#x641;" horiz-adv-x="1568" arabic-form="final" 
d="M1323 1180l-83 -139l-137 100l85 141zM1614 137h-172q-173 0 -254 78q-389 -228 -745 -228q-190 0 -300.5 85.5t-110.5 227.5q0 91 36 169.5t129 195.5l31 -22q-76 -109 -76 -173q0 -102 119 -167q130 -70 317 -65l114 4q34 1 91 10q78 13 213 61q-27 46 -27 76
q0 97 118 302q111 193 199 193q64 0 106 -115q33 -92 33 -169q0 -120 -71 -207l48 -16q22 -5 42 -5h160v-235zM1358 567q0 28 -39.5 66t-67.5 38q-40 0 -90 -41q-53 -43 -53 -82q0 -27 33 -55.5t97 -51.5q35 19 59 38q61 47 61 88z" />
    <glyph glyph-name="uFED3" unicode="&#x641;" horiz-adv-x="511" arabic-form="initial" 
d="M287 1262l-78 -141l-137 104l82 141zM437 502q0 -365 -395 -365h-74v235h74q323 0 323 108q0 17 -5 30l-40 96q-30 -72 -62 -99q-39 -33 -110 -33q-128 0 -128 117q0 24 12 100q4 22 12 65l21 94q48 212 157 212q105 0 169 -238q46 -176 46 -322zM239 760q-45 66 -83 66
q-18 0 -31.5 -18.5t-13.5 -37.5q0 -28 16.5 -47t42.5 -19q35 0 69 56z" />
    <glyph glyph-name="uFED4" unicode="&#x641;" horiz-adv-x="653" arabic-form="medial" 
d="M504 1180l-82 -139l-137 100l85 141zM690 137h-148q-87 0 -158 27q-58 23 -95 58q-76 -42 -121 -62l-60 -17q-23 -6 -62 -6h-74v235h74q20 0 53 13l25 12q-15 15 -19 25l-4 30q0 145 111 301q118 164 208 164q70 0 105 -116q25 -81 25 -171q0 -131 -80 -228
q11 -10 31 -21l20 -8l21 -1h148v-235zM467 559q0 48 -40.5 84t-89.5 36q-53 0 -91.5 -27t-38.5 -64q0 -28 20 -55l33 -32l58 -47q149 43 149 105z" />
    <glyph glyph-name="uFED6" unicode="&#x642;" horiz-adv-x="1024" arabic-form="final" 
d="M938 957l-84 -138l-129 91l-65 -118l-139 104l80 140l128 -101l79 126zM1071 137h-141q-23 -253 -195 -406q-157 -139 -374 -139q-329 0 -329 352q0 142 55 260q33 71 108 179l23 -27l-53 -92l-31 -67q-20 -40 -20 -112q0 -172 180 -225q57 -17 129 -17q217 0 332 75.5
t115 218.5l-89 -41q-30 -13 -61 -13q-48 0 -125 45q-32 19 -32 124q0 132 81 312q59 128 144 128q79 0 124 -130q14 -42 43 -193l116 3v-235zM857 373q-22 61 -54 85q-31 28 -80 28q-53 0 -53 -45q0 -68 120 -68h67z" />
    <glyph glyph-name="uFED7" unicode="&#x642;" horiz-adv-x="574" arabic-form="initial" 
d="M467 1291l-85 -144l-130 91l-61 -117l-142 104l83 141l126 -101l78 128zM500 502q0 -365 -396 -365h-134v235h134q324 0 324 108q0 17 -6 30l-40 96q-30 -72 -62 -99q-38 -33 -110 -33q-128 0 -128 117q0 24 13 100q3 22 11 65l22 94q47 212 156 212q106 0 169 -238
q47 -176 47 -322zM301 760q-45 66 -82 66q-19 0 -32.5 -18.5t-13.5 -37.5q0 -28 17 -47t43 -19q35 0 68 56z" />
    <glyph glyph-name="uFED8" unicode="&#x642;" horiz-adv-x="653" arabic-form="medial" 
d="M554 1220l-84 -141l-130 89l-62 -115l-141 103l83 138l126 -97l77 124zM678 137h-193q-79 0 -143 25q-52 20 -85 51q-69 -37 -109 -55l-55 -15q-20 -6 -55 -6h-67v235h67q17 0 48 12l22 11q-14 13 -18 22l-3 27q0 131 100 272q107 148 188 148q63 0 95 -105
q22 -73 22 -155q0 -118 -72 -205q10 -9 28 -19l18 -7l19 -1h193v-235zM418 540q0 45 -37 77t-81 32q-48 0 -83 -24.5t-35 -57.5q0 -26 18 -50l30 -28l53 -43q135 38 135 94z" />
    <glyph glyph-name="uFEDE" unicode="&#x644;" horiz-adv-x="1076" arabic-form="final" 
d="M1118 137h-148q-125 0 -189 281q0 -64 8 -149q19 -219 19 -286q0 -219 -118 -338t-337 -119q-146 0 -231 72q-90 77 -90 220q0 192 139 430l33 -20q-53 -101 -70 -149l-13 -51l-4 -55q-7 -83 70 -137q71 -49 205 -49q135 0 226 39q126 53 126 170q0 43 -15 168l-30 260
q-8 65 -15 199l-15 278l-5 175q-2 65 13.5 112.5t64.5 115.5l33 45l6 -138q3 -127 13 -355q0 -29 6 -94q1 -15 33 -202.5t137 -187.5h148v-235z" />
    <glyph glyph-name="uFEDF" unicode="&#x644;" horiz-adv-x="455" arabic-form="initial" 
d="M380 1243q-46 -46 -64 -82t-18 -87v-38q3 -23 3.5 -34t14.5 -103l33 -220q19 -127 19 -209q0 -126 -52 -219q-62 -114 -178 -114h-165v235h165q63 0 88.5 21t25.5 83q0 69 -26 225l-50 292q-28 162 -28 230q0 62 21 99q19 33 89 97q26 -57 44 -82q35 -48 78 -94z" />
    <glyph glyph-name="uFEE0" unicode="&#x644;" horiz-adv-x="621" arabic-form="medial" 
d="M667 137h-148q-93 0 -143 84q-31 53 -55 168q-67 -252 -184 -252h-164v235h164q72 0 107 60q43 74 35 198l-5 84l-4 114l-19 247l-9 163l1 37q1 31 49 99q47 -52 64 -98q14 -38 17 -144l3 -130l9 -217q5 -100 14 -154q7 -41 30 -125q36 -134 90 -134h148v-235z" />
    <glyph glyph-name="uFEE2" unicode="&#x645;" horiz-adv-x="892" arabic-form="final" 
d="M938 137h-151q-135 0 -190 43l2 -64q1 -34 -49 -89.5t-95 -61.5q-8 -1 -15 -1q-55 0 -132 100q-38 50 -42 57q-15 29 -15 81q-156 -43 -153 -139l1 -39v-16q0 3 4 -27q3 -26 20 -109l74 -387l4 -46q0 -38 -8 -54q-9 -22 -37 -47l-37 161q-45 192 -58 288l-22 165
q-7 55 -7 126q0 144 48.5 230.5t172.5 154.5q55 30 75 52q17 20 35 63q148 -134 221 -170t203 -36h151v-235z" />
    <glyph glyph-name="uFEE3" unicode="&#x645;" horiz-adv-x="654" arabic-form="initial" 
d="M580 435q0 -75 -31 -132q-39 -69 -108 -69q-66 0 -246 89q-25 -87 -59 -133q-39 -53 -85 -53h-74v235h74q85 0 138 130l57 141q53 131 143 131q32 0 64.5 -24t55.5 -61q71 -117 71 -254zM454 482q0 41 -34.5 69.5t-75.5 28.5q-51 0 -83 -65l102 -54l25 -8q8 -3 34 -6
q32 0 32 35z" />
    <glyph glyph-name="uFEE4" unicode="&#x645;" horiz-adv-x="855" arabic-form="medial" 
d="M887 137h-150q-50 0 -74.5 12.5t-55.5 52.5q-18 -139 -126 -139q-70 0 -174 96q-11 10 -34 33l-79 86q-35 -73 -73 -107t-75 -34h-74v235h76q47 0 102 39q59 42 110 130q37 64 55 84q38 44 86 44q44 0 110 -96q34 -51 84 -120q66 -81 142 -81h150v-235zM467 369
q0 55 -16 117q-22 87 -61 87q-26 0 -55 -56l-44 -82l65 -60q29 -26 40 -35q29 -21 46 -21q25 0 25 50z" />
    <glyph glyph-name="uFEE6" unicode="&#x646;" horiz-adv-x="1032" arabic-form="final" 
d="M630 633l-78 -140l-136 105l79 139zM1078 137h-174q-17 -161 -71.5 -293t-173.5 -199t-290 -67q-142 0 -232 64q-104 73 -104 209q0 163 167 410l32 -13q-58 -96 -75 -132q-20 -44 -20 -83q0 -108 100 -169q85 -51 200 -51q147 0 244 39q140 55 140 179q0 70 -45 156
l-35 65q-9 23 -11 35q0 34 51 121l51 87q36 -66 44 -77q33 -46 70 -46h132v-235z" />
    <glyph glyph-name="uFEE7" unicode="&#x646;" horiz-adv-x="378" arabic-form="initial" 
d="M304 487q0 -141 -58 -236q-69 -114 -201 -114h-74v235h74q160 0 160 52q0 11 -54 74q-25 30 -25 54q0 25 50 130l50 105q44 -99 62 -163q16 -54 16 -137zM226 1077l-82 -142l-137 105l85 141z" />
    <glyph glyph-name="uFEE8" unicode="&#x646;" horiz-adv-x="446" arabic-form="medial" 
d="M494 137h-149q-55 0 -90 29t-61 99q-65 -128 -145 -128h-75v235h75q44 0 77 6q22 4 49 18q38 22 91 93l8 -2q16 -115 71 -115h149v-235zM320 869l-82 -142l-137 105l85 141z" />
    <glyph glyph-name="uFEEA" unicode="&#x647;" horiz-adv-x="667" arabic-form="final" 
d="M709 137h-148q-99 0 -141 89q-25 51 -41 178q-62 -88 -98 -122q-46 -44 -97 -44q-49 0 -97 28q-55 32 -55 77q0 50 55 179q25 58 67 94q27 23 171 106l-9 55q-10 55 -10 61q0 41 104 145l17 -101l14 -88l49 -341q12 -81 71 -81h148v-235zM365 493q0 17 -10 71l-6 36
q-2 13 -9 39q-164 -92 -164 -137q0 -13 44 -29q49 -12 108 -12q37 0 37 32z" />
    <glyph glyph-name="uFEEB" unicode="&#x647;" horiz-adv-x="812" arabic-form="initial" 
d="M738 428q0 -78 -25 -151q-35 -101 -97 -101q-72 0 -319 115q-163 -154 -251 -154h-74v235h74q35 0 67 10l32 9q-16 22 -22 38l-4 34q0 66 82 169l67 82l-33 8l-25 2l-21 -1l-31 -6q20 97 39 135q36 73 106 73q61 0 163 -66q112 -73 185 -177q87 -125 87 -254zM414 538
q0 35 -26 61t-61 26q-38 0 -75 -23q-42 -27 -42 -64q0 -44 111 -82q93 28 93 82zM667 383q0 37 -71 106q-52 50 -103 84q-10 -60 -23 -89q-9 -29 -39 -66l127 -40l45 -9l37 -4q27 0 27 18z" />
    <glyph glyph-name="uFEEC" unicode="&#x647;" horiz-adv-x="768" arabic-form="medial" 
d="M805 137l-188 -1q-3 0 -30 -8l-48 -12q61 -96 61 -188q0 -104 -40 -184q-51 -100 -145 -100q-160 0 -244 276q-23 78 -46 217h-157v235h74l32 3l26 6l23 5l27 9q34 117 135 274q122 190 211 190q40 0 59 -92q13 -60 13 -121q0 -187 -170 -311q54 20 111 26l66 8l66 3h164
v-235zM474 559q0 25 -29.5 52.5t-54.5 27.5q-67 0 -168 -221q252 76 252 141zM539 -65q0 84 -141 142q-95 38 -211 53q79 -273 228 -273q39 0 78 19q46 23 46 59z" />
    <glyph glyph-name="uFEEE" unicode="&#x648;" horiz-adv-x="737" arabic-form="final" 
d="M788 137h-161q-102 -528 -396 -528q-86 0 -162 33q-51 23 -144 87l18 23q37 -12 52 -13l52 -4q17 -1 34 -1q294 0 496 403h-35q-99 0 -141 22q-58 31 -58 119q0 112 67 262q72 157 135 157q41 0 68 -77q14 -40 21 -98l19 -150h135v-235zM591 372q-55 104 -118 104
q-54 0 -54 -48q0 -29 28 -42.5t69 -13.5h75z" />
    <glyph glyph-name="uFEF0" unicode="&#x649;" horiz-adv-x="1131" arabic-form="final" 
d="M1169 137h-260q-190 0 -190 -48q0 -13 11 -21l38 -16q142 -44 180 -65q101 -54 101 -144q0 -125 -201 -233q-192 -103 -392 -103q-182 0 -296 83q-128 94 -128 269q0 98 25 197q13 49 34 105q24 61 54 126l32 -20q-38 -85 -52 -130q-13 -41 -13 -106q0 -153 133 -229
q107 -63 271 -63q155 0 293 31q144 32 144 69q0 33 -185 33q-175 0 -175 134q0 129 96 244q101 122 227 122h253v-235z" />
    <glyph glyph-name=".notdef" horiz-adv-x="1024" 
d="M128 0v1365h768v-1365h-768zM256 128h512v1109h-512v-1109z" />
    <glyph glyph-name=".null" 
 />
    <glyph glyph-name="nonmarkingreturn" horiz-adv-x="434" 
 />
    <glyph glyph-name="space" unicode=" " horiz-adv-x="434" 
 />
    <glyph glyph-name="exclam" unicode="!" horiz-adv-x="603" 
d="M397 1048v-35q-1 -28 -7 -83q-4 -16 -11 -53l-36 -217q-17 -102 -18 -219l-1 -122h-43l-1 124q0 18 -2 55.5t-2 56.5q0 45 -14 121q0 14 -34 201q-19 105 -19 169q0 166 95 166q93 0 93 -164zM402 147q0 -37 -29 -64t-67 -27q-39 0 -66 26t-27 65q0 41 26.5 69.5
t66.5 28.5t68 -29t28 -69z" />
    <glyph glyph-name="percent" unicode="%" horiz-adv-x="1003" 
d="M311 1085q0 -38 -27 -66.5t-65 -28.5q-40 0 -67.5 28t-27.5 67q0 38 29 66t66 28q36 0 64 -27.5t28 -66.5zM806 1264l-541 -1405h-72l536 1405h77zM884 50q0 -89 -91 -89q-38 0 -67.5 25.5t-29.5 63.5q0 39 30 66t69 27q89 0 89 -93z" />
    <glyph glyph-name="parenleft" unicode="(" horiz-adv-x="691" 
d="M569 1049q-346 -380 -346 -775q0 -182 82 -380q79 -188 260 -409l-9 -15q-36 25 -52 37t-43 32l-66 55q-47 38 -113 119q-205 250 -205 566q0 291 192 529q34 43 113 124l68 57l101 75z" />
    <glyph glyph-name="parenright" unicode=")" horiz-adv-x="674" 
d="M110 1049q347 -380 347 -775q0 -182 -83 -380q-78 -188 -259 -409l9 -15q35 25 51.5 37t42.5 32l67 55q47 38 113 119q204 250 204 566q0 291 -191 529q-34 43 -114 124l-68 57l-101 75z" />
    <glyph glyph-name="asterisk" unicode="*" horiz-adv-x="782" 
d="M709 520q0 -48 -62 -48q-60 0 -187 35q-3 -19 -11 -33q176 -104 176 -157q0 -43 -46 -43q-32 0 -82 68q-10 13 -31 43l-42 67l-28 -13q0 -2 12 -61l16 -78l6 -45q0 -63 -50 -63q-46 0 -46 61q0 31 6 59l13 59l18 68l-31 13l-55 -83q-40 -59 -55 -72q-27 -23 -48 -26
q-38 0 -46 44q0 22 35 54q7 8 27 22l46 34l75 47l-14 33q-15 -4 -63 -13q-20 -5 -53 -12q-44 -8 -70 -8q-61 0 -61 48t59 48l20 -2q11 0 32 -4l37 -7q14 -4 43 -11l56 -14q3 21 14 29l-69 44q-34 21 -81 62q-33 29 -33 51q0 46 46 46q44 0 156 -180l33 14l-17 66l-14 61
l-5 31l-1 31q-2 58 46 58q26 0 38 -15q13 -23 12 -47l-1 -24l-7 -36l-14 -72l-12 -58l28 -9l31 47l42 63l41 49q24 19 41 19q46 0 46 -46q0 -17 -20 -38q-16 -17 -58 -47l-58 -40l-45 -28q6 -4 18 -31l55 14l80 17q33 7 54 7q58 0 58 -48zM422 518q0 16 -10 27.5t-28 11.5
q-20 0 -35 -26q-3 -6 -5 -13q0 -15 13 -29q12 -9 27 -9q38 0 38 38z" />
    <glyph glyph-name="plus" unicode="+" horiz-adv-x="1003" 
d="M885 479h-340v-342h-89v342h-345v88h345v348h89v-348h340v-88z" />
    <glyph glyph-name="comma" unicode="," horiz-adv-x="603" 
d="M402 95q0 -174 -195 -344l-33 35q70 63 98 107q44 67 42 127l-1 23q-131 0 -131 108q0 41 30 69t72 28q46 0 79 -36q30 -33 37 -81q2 -14 2 -36z" />
    <glyph glyph-name="hyphen" unicode="-" horiz-adv-x="1003" 
d="M885 479h-774v88h774v-88z" />
    <glyph glyph-name="period" unicode="." horiz-adv-x="603" 
d="M397 149q0 -39 -26 -66t-65 -27q-41 0 -67 27t-26 66q0 38 25 67t62 29q42 0 69.5 -27t27.5 -69z" />
    <glyph glyph-name="slash" unicode="/" horiz-adv-x="629" 
d="M538 1510l-401 -1657h-67l399 1657h69z" />
    <glyph glyph-name="zero" unicode="0" horiz-adv-x="1126" 
d="M750 534l-42 -165l-40 -174q-52 28 -153 90q-74 52 -140 110l28 112l19 69l57 178l134 -114z" />
    <glyph glyph-name="zero" unicode="&#x6f0;" horiz-adv-x="1126" 
d="M750 534l-42 -165l-40 -174q-52 28 -153 90q-74 52 -140 110l28 112l19 69l57 178l134 -114z" />
    <glyph glyph-name="zero" unicode="&#x660;" horiz-adv-x="1126" 
d="M750 534l-42 -165l-40 -174q-52 28 -153 90q-74 52 -140 110l28 112l19 69l57 178l134 -114z" />
    <glyph glyph-name="one" unicode="1" horiz-adv-x="1126" 
d="M778 416q0 -99 -12 -178q-13 -91 -48 -221h-37q0 103 -8 192q-2 50 -6 76q-2 9 -17 80q-31 140 -103 264q-62 105 -199 275l134 332q170 -218 231 -381q65 -175 65 -439z" />
    <glyph glyph-name="one" unicode="&#x6f1;" horiz-adv-x="1126" 
d="M778 416q0 -99 -12 -178q-13 -91 -48 -221h-37q0 103 -8 192q-2 50 -6 76q-2 9 -17 80q-31 140 -103 264q-62 105 -199 275l134 332q170 -218 231 -381q65 -175 65 -439z" />
    <glyph glyph-name="one" unicode="&#x661;" horiz-adv-x="1126" 
d="M778 416q0 -99 -12 -178q-13 -91 -48 -221h-37q0 103 -8 192q-2 50 -6 76q-2 9 -17 80q-31 140 -103 264q-62 105 -199 275l134 332q170 -218 231 -381q65 -175 65 -439z" />
    <glyph glyph-name="two" unicode="2" horiz-adv-x="1126" 
d="M878 1067q2 -183 -47 -260.5t-194 -111.5q60 -210 60 -364q0 -130 -41 -314h-39q-37 319 -105 490q-71 179 -264 425l95 287q107 -113 164.5 -148.5t135.5 -35.5q183 0 183 171l45 5l6 -69z" />
    <glyph glyph-name="two" unicode="&#x6f2;" horiz-adv-x="1126" 
d="M878 1067q2 -183 -47 -260.5t-194 -111.5q60 -210 60 -364q0 -130 -41 -314h-39q-37 319 -105 490q-71 179 -264 425l95 287q107 -113 164.5 -148.5t135.5 -35.5q183 0 183 171l45 5l6 -69z" />
    <glyph glyph-name="two" unicode="&#x662;" horiz-adv-x="1126" 
d="M878 1067q2 -183 -47 -260.5t-194 -111.5q60 -210 60 -364q0 -130 -41 -314h-39q-37 319 -105 490q-71 179 -264 425l95 287q107 -113 164.5 -148.5t135.5 -35.5q183 0 183 171l45 5l6 -69z" />
    <glyph glyph-name="three" unicode="3" horiz-adv-x="1126" 
d="M1002 1119q1 -26 1 -50q0 -361 -214 -361q-68 0 -146 85q-33 -60 -62.5 -79t-98.5 -29q16 -54 35 -145l7 -59l2 -73l-3 -107q-1 -32 -11 -88q-13 -75 -58 -196h-37q0 337 -62 517q-56 164 -233 377l104 312q68 -99 105 -134q70 -68 149 -68q160 0 203 196h38
q12 -137 107 -137q107 0 134 137h35z" />
    <glyph glyph-name="three" unicode="&#x6f3;" horiz-adv-x="1126" 
d="M1002 1119q1 -26 1 -50q0 -361 -214 -361q-68 0 -146 85q-33 -60 -62.5 -79t-98.5 -29q16 -54 35 -145l7 -59l2 -73l-3 -107q-1 -32 -11 -88q-13 -75 -58 -196h-37q0 337 -62 517q-56 164 -233 377l104 312q68 -99 105 -134q70 -68 149 -68q160 0 203 196h38
q12 -137 107 -137q107 0 134 137h35z" />
    <glyph glyph-name="three" unicode="&#x663;" horiz-adv-x="1126" 
d="M1002 1119q1 -26 1 -50q0 -361 -214 -361q-68 0 -146 85q-33 -60 -62.5 -79t-98.5 -29q16 -54 35 -145l7 -59l2 -73l-3 -107q-1 -32 -11 -88q-13 -75 -58 -196h-37q0 337 -62 517q-56 164 -233 377l104 312q68 -99 105 -134q70 -68 149 -68q160 0 203 196h38
q12 -137 107 -137q107 0 134 137h35z" />
    <glyph glyph-name="four" unicode="4" horiz-adv-x="1126" 
d="M850 323l-85 -304l-41 4l-37 1q-197 6 -279 53q-93 54 -93 149q0 119 215 320q-145 39 -199.5 76.5t-54.5 91.5q0 113 175 294q128 131 271 230l-41 -247q-46 -11 -97 -33q-73 -32 -73 -60q0 -37 182 -99q40 -13 56 -21q37 -19 38 -41q0 -22 -82 -105l-71 -72l-56 -64
q-46 -52 -46 -78q0 -55 140 -80q86 -15 178 -15z" />
    <glyph glyph-name="four" unicode="&#x6f4;" horiz-adv-x="1126" 
d="M850 323l-85 -304l-41 4l-37 1q-197 6 -279 53q-93 54 -93 149q0 119 215 320q-145 39 -199.5 76.5t-54.5 91.5q0 113 175 294q128 131 271 230l-41 -247q-46 -11 -97 -33q-73 -32 -73 -60q0 -37 182 -99q40 -13 56 -21q37 -19 38 -41q0 -22 -82 -105l-71 -72l-56 -64
q-46 -52 -46 -78q0 -55 140 -80q86 -15 178 -15z" />
    <glyph glyph-name="four" unicode="&#x664;" horiz-adv-x="1126" 
d="M850 323l-85 -304l-41 4l-37 1q-197 6 -279 53q-93 54 -93 149q0 119 215 320q-145 39 -199.5 76.5t-54.5 91.5q0 113 175 294q128 131 271 230l-41 -247q-46 -11 -97 -33q-73 -32 -73 -60q0 -37 182 -99q40 -13 56 -21q37 -19 38 -41q0 -22 -82 -105l-71 -72l-56 -64
q-46 -52 -46 -78q0 -55 140 -80q86 -15 178 -15z" />
    <glyph glyph-name="five" unicode="5" horiz-adv-x="1126" 
d="M934 669q0 -85 -36 -194q-38 -117 -90 -172q-56 -58 -159 -95q-96 -34 -183 -34q-104 0 -183 51q-91 59 -91 158q0 214 163 515q88 162 209 162q120 0 243 -121q127 -125 127 -270zM792 552q0 37 -91 91q-167 100 -251 100q-108 0 -108 -110q0 -74 100 -111
q73 -27 161 -27q93 0 141 15t48 42z" />
    <glyph glyph-name="five" unicode="&#x6f5;" horiz-adv-x="1126" 
d="M934 669q0 -85 -36 -194q-38 -117 -90 -172q-56 -58 -159 -95q-96 -34 -183 -34q-104 0 -183 51q-91 59 -91 158q0 214 163 515q88 162 209 162q120 0 243 -121q127 -125 127 -270zM792 552q0 37 -91 91q-167 100 -251 100q-108 0 -108 -110q0 -74 100 -111
q73 -27 161 -27q93 0 141 15t48 42z" />
    <glyph glyph-name="five" unicode="&#x665;" horiz-adv-x="1126" 
d="M934 669q0 -85 -36 -194q-38 -117 -90 -172q-56 -58 -159 -95q-96 -34 -183 -34q-104 0 -183 51q-91 59 -91 158q0 214 163 515q88 162 209 162q120 0 243 -121q127 -125 127 -270zM792 552q0 37 -91 91q-167 100 -251 100q-108 0 -108 -110q0 -74 100 -111
q73 -27 161 -27q93 0 141 15t48 42z" />
    <glyph glyph-name="six" unicode="6" horiz-adv-x="1126" 
d="M921 337l-45 -311q-142 81 -201 203q-52 109 -52 284q0 93 17 243l-100 -18q-18 -3 -99 -3q-138 0 -189 50.5t-48 183.5l2 105q1 64 5 97l46 2q19 -61 64 -88q51 -23 151 -23q96 0 288 46q-41 -183 -41 -299q0 -152 46 -258.5t156 -213.5z" />
    <glyph glyph-name="six" unicode="&#x6f6;" horiz-adv-x="1126" 
d="M921 337l-45 -311q-142 81 -201 203q-52 109 -52 284q0 93 17 243l-100 -18q-18 -3 -99 -3q-138 0 -189 50.5t-48 183.5l2 105q1 64 5 97l46 2q19 -61 64 -88q51 -23 151 -23q96 0 288 46q-41 -183 -41 -299q0 -152 46 -258.5t156 -213.5z" />
    <glyph glyph-name="six" unicode="&#x666;" horiz-adv-x="1126" 
d="M921 337l-45 -311q-142 81 -201 203q-52 109 -52 284q0 93 17 243l-100 -18q-18 -3 -99 -3q-138 0 -189 50.5t-48 183.5l2 105q1 64 5 97l46 2q19 -61 64 -88q51 -23 151 -23q96 0 288 46q-41 -183 -41 -299q0 -152 46 -258.5t156 -213.5z" />
    <glyph glyph-name="seven" unicode="7" horiz-adv-x="1126" 
d="M992 1213l-12 -333q-76 -82 -116 -141q-37 -55 -87 -166q-60 -130 -96 -251q-27 -87 -65 -296h-46q-54 262 -171 473q-65 116 -112 178.5t-153 174.5l45 371q107 -87 157 -160q62 -92 123 -256l86 -234l64 -190l62 255l21 71q13 42 52 158q69 204 103 250q39 53 145 96z
" />
    <glyph glyph-name="seven" unicode="&#x6f7;" horiz-adv-x="1126" 
d="M992 1213l-12 -333q-76 -82 -116 -141q-37 -55 -87 -166q-60 -130 -96 -251q-27 -87 -65 -296h-46q-54 262 -171 473q-65 116 -112 178.5t-153 174.5l45 371q107 -87 157 -160q62 -92 123 -256l86 -234l64 -190l62 255l21 71q13 42 52 158q69 204 103 250q39 53 145 96z
" />
    <glyph glyph-name="seven" unicode="&#x667;" horiz-adv-x="1126" 
d="M992 1213l-12 -333q-76 -82 -116 -141q-37 -55 -87 -166q-60 -130 -96 -251q-27 -87 -65 -296h-46q-54 262 -171 473q-65 116 -112 178.5t-153 174.5l45 371q107 -87 157 -160q62 -92 123 -256l86 -234l64 -190l62 255l21 71q13 42 52 158q69 204 103 250q39 53 145 96z
" />
    <glyph glyph-name="eight" unicode="8" horiz-adv-x="1126" 
d="M991 391l-45 -372q-107 83 -158 159q-43 63 -122 259q-45 110 -70 185l-81 239q-34 -157 -61 -253q-41 -141 -71 -232q-63 -188 -104 -248q-38 -54 -144 -97l9 332q73 78 117 143q32 48 85 163q65 143 94.5 243.5t68.5 304.5h43q36 -167 69 -253q12 -34 43 -101l64 -120
q51 -94 114 -179q47 -65 149 -173z" />
    <glyph glyph-name="eight" unicode="&#x6f8;" horiz-adv-x="1126" 
d="M991 391l-45 -372q-107 83 -158 159q-43 63 -122 259q-45 110 -70 185l-81 239q-34 -157 -61 -253q-41 -141 -71 -232q-63 -188 -104 -248q-38 -54 -144 -97l9 332q73 78 117 143q32 48 85 163q65 143 94.5 243.5t68.5 304.5h43q36 -167 69 -253q12 -34 43 -101l64 -120
q51 -94 114 -179q47 -65 149 -173z" />
    <glyph glyph-name="eight" unicode="&#x668;" horiz-adv-x="1126" 
d="M991 391l-45 -372q-107 83 -158 159q-43 63 -122 259q-45 110 -70 185l-81 239q-34 -157 -61 -253q-41 -141 -71 -232q-63 -188 -104 -248q-38 -54 -144 -97l9 332q73 78 117 143q32 48 85 163q65 143 94.5 243.5t68.5 304.5h43q36 -167 69 -253q12 -34 43 -101l64 -120
q51 -94 114 -179q47 -65 149 -173z" />
    <glyph glyph-name="nine" unicode="9" horiz-adv-x="1126" 
d="M908 323l-72 -310q-206 106 -206 533l-82 -19l-43 -5h-21q-105 0 -181 52q-86 60 -86 161q0 190 118 380q75 121 215 121q104 0 146 -54q31 -38 43 -207l28 -394q14 -186 141 -258zM615 845q-16 124 -122 124q-40 0 -81 -18q-52 -23 -52 -57q0 -62 153 -62h13l42 1z" />
    <glyph glyph-name="nine" unicode="&#x6f9;" horiz-adv-x="1126" 
d="M908 323l-72 -310q-206 106 -206 533l-82 -19l-43 -5h-21q-105 0 -181 52q-86 60 -86 161q0 190 118 380q75 121 215 121q104 0 146 -54q31 -38 43 -207l28 -394q14 -186 141 -258zM615 845q-16 124 -122 124q-40 0 -81 -18q-52 -23 -52 -57q0 -62 153 -62h13l42 1z" />
    <glyph glyph-name="nine" unicode="&#x669;" horiz-adv-x="1126" 
d="M908 323l-72 -310q-206 106 -206 533l-82 -19l-43 -5h-21q-105 0 -181 52q-86 60 -86 161q0 190 118 380q75 121 215 121q104 0 146 -54q31 -38 43 -207l28 -394q14 -186 141 -258zM615 845q-16 124 -122 124q-40 0 -81 -18q-52 -23 -52 -57q0 -62 153 -62h13l42 1z" />
    <glyph glyph-name="colon" unicode=":" horiz-adv-x="516" 
d="M348 571q0 -39 -26.5 -66t-64.5 -27q-42 0 -68 27t-26 66q0 37 25 66t62 29q42 0 70 -27t28 -68zM350 149q0 -39 -26.5 -66t-64.5 -27q-42 0 -68 27t-26 66q0 38 25 67t62 29q42 0 70 -27t28 -69z" />
    <glyph glyph-name="equal" unicode="=" horiz-adv-x="1003" 
d="M886 571h-775v91h775v-91zM886 384h-775v91h775v-91z" />
    <glyph glyph-name="bracketleft" unicode="[" horiz-adv-x="604" 
d="M538 -593h-420l-1 1699h420v-52h-306l1 -1595h306v-52z" />
    <glyph glyph-name="bracketright" unicode="]" horiz-adv-x="604" 
d="M117 -593h420l1 1699h-420v-52h306l-1 -1595h-306v-52z" />
    <glyph glyph-name="braceleft" unicode="{" horiz-adv-x="750" 
d="M603 -541q-138 27 -223.5 130t-85.5 243q0 59 23 171q16 82 16 108q0 90 -59 153t-149 74v37q209 50 209 211q0 46 -14 118q-24 122 -24 182q0 140 84.5 242.5t222.5 127.5v-38q-85 -14 -140 -74.5t-55 -145.5q0 -45 11 -111q27 -155 27 -203q0 -216 -251 -324
q248 -112 248 -338q0 -47 -24 -173q-15 -79 -15 -130q0 -174 199 -225v-35z" />
    <glyph glyph-name="braceright" unicode="}" horiz-adv-x="783" 
d="M174 -541q138 27 223.5 130t85.5 243q0 59 -23 171q-17 82 -17 108q0 90 59.5 153t149.5 74v37q-209 50 -209 211q0 46 14 118q23 122 23 182q0 140 -84 242.5t-222 127.5v-38q85 -14 140 -74.5t55 -145.5q0 -45 -11 -111q-27 -155 -27 -203q0 -216 251 -324
q-248 -112 -248 -338q0 -47 24 -173q14 -79 14 -130q0 -174 -198 -225v-35z" />
    <glyph glyph-name="guillemotleft" unicode="&#xab;" horiz-adv-x="789" 
d="M698 596q-229 -194 -229 -395q0 -94 55 -195q51 -96 171 -208l-6 -8q-21 11 -62 35l-45 28q-30 20 -74 61q-135 128 -135 289q0 149 127 270q22 22 74 63l45 30l67 38zM437 596q-228 -194 -228 -395q0 -94 54 -195q52 -96 171 -208l-6 -8q-21 11 -62 35l-44 28
q-31 20 -74 61q-135 128 -135 289q0 149 126 270q22 22 75 63l45 30l67 38z" />
    <glyph glyph-name="periodcentered" unicode="&#xb7;" horiz-adv-x="434" 
d="M215 554q-83 0 -83 89q0 91 83 91q80 0 80 -91q0 -37 -22 -63t-58 -26z" />
    <glyph glyph-name="periodcentered" unicode="&#x2219;" horiz-adv-x="434" 
d="M215 554q-83 0 -83 89q0 91 83 91q80 0 80 -91q0 -37 -22 -63t-58 -26z" />
    <glyph glyph-name="periodcentered" unicode="&#x2d9;" horiz-adv-x="434" 
d="M215 554q-83 0 -83 89q0 91 83 91q80 0 80 -91q0 -37 -22 -63t-58 -26z" />
    <glyph glyph-name="guillemotright" unicode="&#xbb;" horiz-adv-x="866" 
d="M171 596q229 -194 229 -395q0 -94 -55 -195q-51 -96 -171 -208l6 -8q21 11 63 35l44 28q31 20 74 61q135 128 135 289q0 149 -126 270q-23 22 -75 63l-45 30l-67 38zM432 596q228 -194 228 -395q0 -94 -54 -195q-52 -96 -171 -208l6 -8q21 11 62 35l44 28q31 20 74 61
q135 128 135 289q0 149 -126 270q-22 22 -75 63l-45 30l-66 38z" />
    <glyph glyph-name="multiply" unicode="&#xd7;" horiz-adv-x="1003" 
d="M850 232l-61 -60l-294 291l-294 -291l-62 60l291 295l-291 294l66 60l290 -293l294 293l61 -60l-296 -294z" />
    <glyph glyph-name="divide" unicode="&#xf7;" horiz-adv-x="1003" 
d="M582 818q0 -37 -25.5 -64.5t-62.5 -27.5q-39 0 -65 27t-26 65q0 37 27 62.5t64 25.5q35 0 61.5 -26t26.5 -62zM582 228q0 -37 -26 -64t-62 -27q-38 0 -64.5 26t-26.5 65q0 37 27 63.5t64 26.5q36 0 62 -27t26 -63zM885 479h-774v88h774v-88z" />
    <glyph glyph-name="u060C" unicode="&#x60c;" horiz-adv-x="603" 
d="M454 167q0 -46 -32 -77.5t-79 -31.5q-87 0 -136 88q-40 72 -40 167q0 212 185 352l25 -35q-77 -84 -108 -146q-33 -66 -31 -132l2 -29q1 -43 27 -69l34 16q20 10 45 10q45 0 76.5 -33.5t31.5 -79.5z" />
    <glyph glyph-name="u061B" unicode="&#x61b;" horiz-adv-x="603" 
d="M413 445q0 -47 -31.5 -78.5t-78.5 -31.5q-87 0 -136 88q-40 72 -40 167q0 212 185 352l25 -35q-77 -84 -108 -146q-33 -66 -31 -132l1 -29q2 -43 28 -69l34 16q20 10 44 10q45 0 76.5 -33.5t31.5 -78.5zM394 111q0 -39 -26 -66t-65 -27q-41 0 -67 27t-26 66q0 38 25 66.5
t62 28.5q41 0 69 -26.5t28 -68.5z" />
    <glyph glyph-name="u061F" unicode="&#x61f;" horiz-adv-x="699" 
d="M613 968q0 -62 -34 -111q-38 -56 -97 -56q-40 0 -66.5 28t-26.5 68q0 48 48 85l43 25q28 16 28 54q0 46 -41 74q-36 25 -83 25q-67 0 -112.5 -43t-43.5 -110l1 -30q1 -27 13 -52q5 -9 17 -28l66 -135q38 -75 59 -155q26 -99 24 -158l-1 -32v-20q-3 -9 -4 -13l-8 -54h-32
l1 45l5 35q0 35 -8 64q-10 42 -37 66l-102 92q-137 122 -137 277q0 121 82 207.5t202 86.5q102 0 173 -67t71 -168zM460 149q0 -39 -26 -66t-65 -27q-40 0 -69 26.5t-29 66.5t27 68t67 28q39 0 67 -28.5t28 -67.5z" />
    <glyph glyph-name="u0621" unicode="&#x621;" horiz-adv-x="675" 
d="M601 391l-66 -149l-501 -211q29 83 49 113q30 46 79 65l61 23l-92 55q-29 18 -56 46q-43 45 -43 95q0 86 94 203q101 125 195 125q44 0 73 -43q25 -37 25 -83q0 -121 -66 -121q-18 0 -39 16q-14 13 -34 48q-25 44 -46 44q-25 0 -50 -26q-20 -26 -20 -53q0 -70 100 -132
q90 -56 165 -56q76 0 172 41z" />
    <glyph glyph-name="u0640" unicode="&#x640;" horiz-adv-x="432" 
d="M480 137h-515v235h515v-235z" />
    <glyph glyph-name="u064B" unicode="&#x64b;" 
d="M605 1700q0 -10 -2 -15l-22 -21q-22 -16 -41 -44q-30 -44 -39 -44q-7 0 -21 6l-44 5h-310q-33 0 -33 16q0 15 27 35l27 30l27 39q10 20 23 20q8 0 21 -6q19 -5 45 -5h309q33 0 33 -16zM605 1486q0 -14 -2 -16l-24 -21q-15 -13 -28.5 -31t-24.5 -37.5t-25 -19.5
q-8 0 -29.5 5.5t-35.5 5.5h-310q-33 0 -33 14q0 13 2 16l25 21l27 29l27 40q13 21 23 21l21 -6q22 -5 45 -5h309q31 0 33 -16z" />
    <glyph glyph-name="u064C" unicode="&#x64c;" 
d="M503 1593q0 -50 -53 -107l51 -37l-55 -32l-40 28q-38 -39 -67 -56t-55 -17q-38 0 -71.5 37.5t-45.5 37.5q-17 0 -34.5 -24.5t-23.5 -24.5q-16 0 -16 17q0 34 27 69t58 35q22 0 65 -51q20 -24 38 -24q29 0 68 43q-25 16 -46 45q-14 25 -14 61q0 110 107 110q46 0 76.5 -32
t30.5 -78zM432 1597q0 15 -9.5 27t-26.5 12q-13 0 -24 -11q-6 -9 -8 -28q0 -15 7.5 -28t27.5 -29q30 31 33 57z" />
    <glyph glyph-name="u064D" unicode="&#x64d;" 
d="M564 -777q0 -15 -26 -35l-28 -30l-27 -38q-11 -21 -23 -21q-7 0 -21 4t-20 5q-13 1 -25 1h-309q-33 0 -33 16q0 11 2 15l25 22l27 29q4 4 13 17q28 41 37 41q7 0 21 -5l45 -5h309q33 0 33 -16zM564 -991q0 -11 -2 -15l-52 -50l-27 -39q-8 -18 -23 -22l-21 6q-21 5 -45 5
h-309q-33 0 -33 16q0 11 2 15l25 22q16 15 27 30q10 12 27 38q11 20 23 20q8 0 29.5 -5.5t36.5 -5.5h309q33 0 33 -15z" />
    <glyph glyph-name="u064E" unicode="&#x64e;" 
d="M605 1700q0 -12 -2 -16l-24 -21l-28 -28q-12 -13 -26 -40q-11 -19 -24 -19q-7 0 -21 6l-44 5h-310q-32 0 -33 14q0 13 2 15l25 21l54 70q10 20 23 20q8 0 21 -6q19 -5 45 -5h309q33 0 33 -16z" />
    <glyph glyph-name="u064F" unicode="&#x64f;" 
d="M375 1593q0 -26 -11 -52q-20 -31 -41 -55l49 -37l-53 -32l-39 27l-30 -26l-39 -32q-27 -22 -62 -38l-40 -18q-16 0 -16 15v30q0 20 25 27q21 9 55.5 35.5t52.5 48.5q-33 22 -51 49q-14 26 -15 58q-1 48 30 79t78 31t77 -31t30 -79zM303 1597q0 16 -9.5 27.5t-25.5 11.5
q-11 0 -23 -11q-7 -9 -9 -28q0 -34 35 -57q19 16 27 32q3 5 5 25z" />
    <glyph glyph-name="u0650" unicode="&#x650;" 
d="M606 -896q0 -15 -26 -35l-28 -30l-26 -38q-12 -21 -23 -21q-8 0 -22 4t-20 5q-13 2 -24 2h-310q-33 0 -33 15q0 11 3 15l24 23l28 28q3 4 12 17q29 41 37 41t22 -5l44 -5h310q32 0 32 -16z" />
    <glyph glyph-name="u0651" unicode="&#x651;" 
d="M695 1597q-11 -27 -11 -28v-74q0 -166 -183 -166h-12q-69 0 -99 30q-27 -21 -78 -28q-16 -2 -41 -2q-102 0 -141 46q-37 43 -37 148v156q0 27 13 30q7 -6 10 -9l11 -12q5 -6 18 -20q5 -5 19 -18l43 -34q15 -9 19 -19q-5 -5 -13 -28v-46q0 -46 12.5 -60t45.5 -14
q58 0 58 67v163q0 27 13 30q7 -6 9 -9l13 -12l47 -45l35 -29q13 -7 15 -17q-12 -27 -12 -28v-74q0 -46 59 -46q33 0 44 13.5t11 60.5v156q0 27 14 30q7 -4 11 -11l11 -10q0 -1 18 -20q5 -5 19 -18l42 -34q15 -9 17 -19z" />
    <glyph glyph-name="u0652" unicode="&#x652;" 
d="M300 1603q0 -43 -30.5 -73.5t-73.5 -30.5q-42 0 -72.5 30.5t-30.5 73.5q0 45 29 74.5t74 29.5q41 0 72.5 -31t31.5 -73zM229 1603q0 32 -33 32q-32 0 -32 -32q0 -31 32 -34q29 0 33 34z" />
    <glyph glyph-name="zeronojoin" unicode="&#x200c;" horiz-adv-x="45" 
 />
    <glyph glyph-name="zerojoin" unicode="&#x200d;" horiz-adv-x="45" 
 />
    <glyph glyph-name="lefttoright" unicode="&#x200e;" horiz-adv-x="35" 
d="M230 1224l-102 -104l-26 22l67 67h-134v-1209h-35v1242h165l-63 63l26 24z" />
    <glyph glyph-name="righttoleft" unicode="&#x200f;" horiz-adv-x="35" 
d="M35 0h-35v1209h-135l66 -67l-22 -22l-107 104l107 105l22 -24l-63 -63h167v-1242z" />
    <glyph glyph-name="quoteleft" unicode="&#x2018;" horiz-adv-x="464" 
d="M332 1594q-70 -63 -99 -107q-44 -67 -41 -127l1 -23q130 0 130 -107q0 -42 -29.5 -70t-71.5 -28q-67 0 -98 64q-20 39 -20 89q0 172 195 344z" />
    <glyph glyph-name="quoteright" unicode="&#x2019;" horiz-adv-x="464" 
d="M104 1167q70 63 99 107q44 67 41 127l-1 24q-131 0 -131 107q0 42 30 69.5t72 27.5q66 0 98 -63q20 -40 20 -89q0 -173 -195 -345z" />
    <glyph glyph-name="quotedblleft" unicode="&#x201c;" horiz-adv-x="651" 
d="M581 1583q-69 -63 -98 -107q-44 -67 -42 -127l1 -23q131 0 131 -107q0 -42 -30 -70t-72 -28q-66 0 -98 64q-20 39 -20 89q0 172 195 344zM295 1583q-70 -63 -98 -107q-45 -67 -42 -127l1 -23q131 0 131 -107q0 -42 -30 -70t-72 -28q-66 0 -98 64q-20 39 -20 89
q0 172 195 344z" />
    <glyph glyph-name="quotedblright" unicode="&#x201d;" horiz-adv-x="651" 
d="M67 1156q70 63 99 107q44 67 41 127l-1 24q-130 0 -130 107q0 42 29.5 69.5t71.5 27.5q67 0 98 -63q20 -40 20 -89q0 -173 -195 -345zM353 1156q70 63 99 107q44 67 41 127l-1 24q-130 0 -130 107q0 42 29.5 69.5t72.5 27.5q66 0 98 -63q19 -40 19 -89q0 -173 -195 -345z
" />
    <glyph glyph-name="guilsinglleft" unicode="&#x2039;" horiz-adv-x="654" 
d="M496 596q-228 -194 -228 -395q0 -94 54 -195q52 -96 171 -208l-6 -8q-21 11 -62 35l-44 28q-31 20 -74 61q-136 128 -136 289q0 149 127 270q22 22 75 63l44 30l67 38z" />
    <glyph glyph-name="guilsinglright" unicode="&#x203a;" horiz-adv-x="654" 
d="M171 596q229 -194 229 -395q0 -94 -55 -195q-51 -96 -171 -208l6 -8q21 11 63 35l44 28q31 20 74 61q135 128 135 289q0 149 -126 270q-23 22 -75 63l-45 30l-67 38z" />
    <glyph glyph-name="uE820" unicode="&#xe820;" 
d="M614 1268q0 -12 -2 -16l-24 -21l-28 -28q-12 -13 -26 -40q-11 -19 -24 -19q-7 0 -21 6l-44 5h-310q-32 0 -33 14q0 13 2 15l25 21l54 70q10 20 23 20q8 0 21 -6q19 -5 45 -5h309q33 0 33 -16z" />
    <glyph glyph-name="uE821" unicode="&#xe821;" 
d="M392 1200q0 -26 -11 -52q-20 -31 -41 -55l49 -37l-53 -32l-39 27l-30 -26l-39 -32q-27 -22 -62 -38l-40 -18q-16 0 -16 15v30q0 20 25 27q21 9 55.5 35.5t52.5 48.5q-33 22 -51 49q-14 26 -15 58q-1 48 30 79t78 31t77 -31t30 -79zM320 1204q0 16 -9.5 27.5t-25.5 11.5
q-11 0 -23 -11q-7 -9 -9 -28q0 -34 35 -57q19 16 27 32q3 5 5 25z" />
    <glyph glyph-name="uE822" unicode="&#xe822;" 
d="M274 1193q0 -43 -30.5 -73.5t-73.5 -30.5q-42 0 -72.5 30.5t-30.5 73.5q0 45 29 74.5t74 29.5q41 0 72.5 -31t31.5 -73zM203 1193q0 32 -33 32q-32 0 -32 -32q0 -31 32 -34q29 0 33 34z" />
    <glyph glyph-name="uE823" unicode="&#xe823;" 
d="M596 1285q0 -10 -2 -15l-22 -21q-22 -16 -41 -44q-30 -44 -39 -44q-7 0 -21 6l-44 5h-310q-33 0 -33 16q0 15 27 35l27 30l27 39q10 20 23 20q8 0 21 -6q19 -5 45 -5h309q33 0 33 -16zM596 1071q0 -14 -2 -16l-24 -21q-15 -13 -28.5 -31t-24.5 -37.5t-25 -19.5
q-8 0 -29.5 5.5t-35.5 5.5h-310q-33 0 -33 14q0 13 2 16l25 21l27 29l27 40q13 21 23 21l21 -6q22 -5 45 -5h309q31 0 33 -16z" />
    <glyph glyph-name="uE824" unicode="&#xe824;" 
d="M555 1196q0 -50 -53 -107l51 -37l-55 -32l-40 28q-38 -39 -67 -56t-55 -17q-38 0 -71.5 37.5t-45.5 37.5q-17 0 -34.5 -24.5t-23.5 -24.5q-16 0 -16 17q0 34 27 69t58 35q22 0 65 -51q20 -24 38 -24q29 0 68 43q-25 16 -46 45q-14 25 -14 61q0 110 107 110q46 0 76.5 -32
t30.5 -78zM484 1200q0 15 -9.5 27t-26.5 12q-13 0 -24 -11q-6 -9 -8 -28q0 -15 7.5 -28t27.5 -29q30 31 33 57z" />
    <glyph glyph-name="uE825" unicode="&#xe825;" 
d="M695 1169q-11 -27 -11 -28v-74q0 -166 -183 -166h-12q-69 0 -99 30q-27 -21 -78 -28q-16 -2 -41 -2q-102 0 -141 46q-37 43 -37 148v156q0 27 13 30q7 -6 10 -9l11 -12q5 -6 18 -20q5 -5 19 -18l43 -34q15 -9 19 -19q-5 -5 -13 -28v-46q0 -46 12.5 -60t45.5 -14
q58 0 58 67v163q0 27 13 30q7 -6 9 -9l13 -12l47 -45l35 -29q13 -7 15 -17q-12 -27 -12 -28v-74q0 -46 59 -46q33 0 44 13.5t11 60.5v156q0 27 14 30q7 -4 11 -11l11 -10q0 -1 18 -20q5 -5 19 -18l42 -34q15 -9 17 -19z" />
    <glyph glyph-name="uE826" unicode="&#xe826;" 
d="M513 -271q0 -15 -26 -35l-28 -30l-26 -38q-12 -21 -23 -21q-8 0 -22 4t-20 5q-13 2 -24 2h-310q-33 0 -33 15q0 11 3 15l24 23l28 28q3 4 12 17q29 41 37 41t22 -5l44 -5h310q32 0 32 -16z" />
    <glyph glyph-name="uE827" unicode="&#xe827;" 
d="M458 -158q0 -15 -26 -35l-28 -30l-27 -38q-11 -21 -23 -21q-7 0 -21 4t-20 5q-13 1 -25 1h-309q-33 0 -33 16q0 11 2 15l25 22l27 29q4 4 13 17q28 41 37 41q7 0 21 -5l45 -5h309q33 0 33 -16zM458 -372q0 -11 -2 -15l-52 -50l-27 -39q-8 -18 -23 -22l-21 6q-21 5 -45 5
h-309q-33 0 -33 16q0 11 2 15l25 22q16 15 27 30q10 12 27 38q11 20 23 20q8 0 29.5 -5.5t36.5 -5.5h309q33 0 33 -15z" />
    <glyph glyph-name="uE828" unicode="&#xe828;" 
d="M708 1189q-11 -27 -11 -28v-74q0 -166 -183 -166h-12q-69 0 -99 30q-27 -21 -78 -28q-16 -2 -41 -2q-102 0 -141 46q-37 43 -37 148v156q0 27 13 30q7 -6 10 -9l11 -12q5 -6 18 -20q5 -5 19 -18l43 -34q15 -9 19 -19q-5 -5 -13 -28v-46q0 -46 12.5 -60t45.5 -14
q58 0 58 67v163q0 27 13 30q7 -6 9 -9l13 -12l47 -45l35 -29q13 -7 15 -17q-12 -27 -12 -28v-74q0 -46 59 -46q33 0 44 13.5t11 60.5v156q0 27 14 30q7 -4 11 -11l11 -10q0 -1 18 -20q5 -5 19 -18l42 -34q15 -9 17 -19zM622 1657q0 -12 -2 -16l-24 -21l-28 -28
q-12 -13 -26 -40q-11 -19 -24 -19q-7 0 -21 6l-44 5h-310q-32 0 -33 14q0 13 2 15l25 21l54 70q10 20 23 20q8 0 21 -6q19 -5 45 -5h309q33 0 33 -16z" />
    <glyph glyph-name="uE829" unicode="&#xe829;" 
d="M670 1194q-12 -28 -12 -29v-74q0 -165 -182 -165h-13q-69 0 -98 29q-27 -21 -78 -27q-17 -2 -41 -2q-102 0 -141 46q-37 42 -37 147v156q0 27 13 30q7 -5 9 -8l12 -13q5 -6 18 -19q5 -6 19 -18l42 -34q15 -10 19 -19q-4 -6 -12 -29v-46q0 -46 10 -61q15 -13 48 -13
q57 0 57 67v163q0 27 14 30q6 -5 8 -8l13 -13l48 -45l35 -28q13 -8 15 -17q-12 -28 -12 -29v-74q0 -46 58 -46q33 0 44 13.5t11 60.5v156q0 27 14 30q8 -4 12 -11l11 -10l18 -19q5 -6 19 -18l42 -34q15 -10 17 -19zM524 1742q0 -27 -11 -52q-20 -31 -41 -55l49 -37l-53 -32
l-39 26l-30 -25l-39 -32q-29 -24 -62 -38l-40 -18q-16 0 -16 15v30q0 20 25 27q20 9 55 35.5t53 48.5q-33 22 -51 49q-14 25 -15 58q-1 47 30 78.5t78 31.5t77 -31.5t30 -78.5zM452 1746q0 16 -9.5 27t-25.5 11q-12 0 -23 -10q-7 -9 -9 -28q0 -34 35 -57q19 16 27 32
q3 5 5 25z" />
    </font>
</defs>
</svg>
