<?xml version="1.0" standalone="no"?>
<!DOCTYPE svg PUBLIC "-//W3C//DTD SVG 1.1//EN" "http://www.w3.org/Graphics/SVG/1.1/DTD/svg11.dtd" >
<svg>
<metadata>
Created by FontForge 20120731 at Fri Jul 15 08:37:17 2016
 By www-data
(c) 2000 Borna Rayaneh
</metadata>
<defs>
<font id="BHelal" horiz-adv-x="0" >
  <font-face 
    font-family="B Helal"
    font-weight="400"
    font-stretch="normal"
    units-per-em="2048"
    panose-1="0 0 4 0 0 0 0 0 0 0"
    ascent="1638"
    descent="-410"
    bbox="-214 -1656 2587 2581"
    underline-thickness="120"
    underline-position="-690"
    unicode-range="U+0020-FEFC"
  />
<missing-glyph horiz-adv-x="1024" 
d="M128 0v1248h768v-1248h-768zM256 128h512v992h-512v-992z" />
    <glyph glyph-name="uE818" unicode="&#x651;&#x64b;" 
d="M537 1811q0 -75 -40 -141q-46 -76 -118 -76q-56 0 -87 59q-49 -106 -132 -106q-54 0 -85 52q-26 43 -26 101q0 149 59 149q6 0 26 -63.5t59 -63.5t72.5 76.5t47.5 76.5q7 0 24.5 -58t39.5 -58q42 0 79.5 68.5t40.5 68.5q40 0 40 -85zM504 2190l-28 -136l-478 -149l18 137
zM504 2438l-28 -137l-478 -148l18 136z" />
    <glyph glyph-name="uFC5E" unicode="&#x651;&#x64c;" arabic-form="isolated" 
d="M565 1804q0 -75 -40 -141q-46 -76 -118 -76q-56 0 -87 59q-49 -106 -132 -106q-54 0 -85 52q-25 43 -25 101q0 149 59 149q5 0 25 -63.5t59 -63.5q40 0 73 76.5t47 76.5q8 0 25 -58t39 -58q42 0 80 68.5t40 68.5q40 0 40 -85zM539 2230q0 -54 -61 -148l-96 40
q-38 -47 -118 -99q-101 -66 -177 -66q-16 0 -35 101q9 3 52 22q2 28 2 51q0 78 -45 78q-17 0 -42 -34t-28 -34q-31 0 -31 80q0 45 37 93t81 48q50 0 83 -43q30 -39 30 -91q0 -87 -12 -120q78 42 106 85q-64 59 -64 143t45 158q52 87 127 87q118 0 118 -151q0 -89 -40 -169
q17 -17 68 -31zM391 2308q26 38 26 75q0 78 -54 78q-43 0 -43 -68q0 -24 23.5 -51t47.5 -34z" />
    <glyph glyph-name="uFC5F" unicode="&#x651;&#x64d;" arabic-form="isolated" 
d="M556 2292q0 -76 -40 -142q-46 -75 -118 -75q-57 0 -87 59q-50 -106 -132 -106q-54 0 -85 51q-26 44 -26 102q0 148 59 148q5 0 25.5 -63.5t59.5 -63.5t72 76.5t48 76.5q7 0 24.5 -57.5t39.5 -57.5q41 0 79 68t41 68q40 0 40 -84zM572 1778l-28 -139l-478 -146l19 137z
M572 2025l-28 -138l-478 -147l19 137z" />
    <glyph glyph-name="uFC60" unicode="&#x651;&#x64e;" arabic-form="isolated" 
d="M556 1773q0 -75 -40 -141q-46 -75 -118 -75q-57 0 -87 59q-50 -106 -132 -106q-54 0 -85 51q-26 44 -26 102q0 148 59 148q5 0 25.5 -63.5t59.5 -63.5t72 76.5t48 76.5q7 0 24.5 -57.5t39.5 -57.5q41 0 79 68t41 68q40 0 40 -85zM579 2190l-28 -136l-478 -149l19 137z
" />
    <glyph glyph-name="uFC61" unicode="&#x651;&#x64f;" arabic-form="isolated" 
d="M575 1783q0 -75 -40 -141q-46 -76 -118 -76q-57 0 -87 59q-50 -106 -132 -106q-54 0 -85 52q-26 43 -26 101q0 149 59 149q5 0 25 -64t60 -64q39 0 72 76.5t48 76.5q7 0 24.5 -57.5t39.5 -57.5q41 0 79 68.5t41 68.5q40 0 40 -85zM551 2174q0 -54 -61 -149l-97 40
q-37 -46 -117 -98q-101 -66 -177 -66q-17 0 -35 101q169 45 233 134q-64 59 -64 144q0 83 45 158q52 87 127 87q118 0 118 -151q0 -90 -40 -170q16 -16 68 -30zM403 2252q26 37 26 75q0 78 -55 78q-42 0 -42 -69q0 -24 23.5 -50.5t47.5 -33.5z" />
    <glyph glyph-name="uFC62" unicode="&#x651;&#x650;" arabic-form="isolated" 
d="M546 2056q0 -75 -40 -141q-45 -76 -117 -76q-57 0 -88 59q-49 -106 -131 -106q-55 0 -85 52q-26 43 -26 101q0 149 59 149q5 0 25 -63.5t60 -63.5q39 0 72 76.5t48 76.5q7 0 24.5 -58t38.5 -58q42 0 80 68.5t40 68.5q40 0 40 -85zM516 1797l-28 -139l-481 -146l21 137z
" />
    <glyph glyph-name="uFDF2" unicode="&#xfedf;&#xfee0;&#xfeea;" horiz-adv-x="2342" arabic-form="isolated" 
d="M1559 1709q25 -18 52 -100q9 -28 9 -56q0 -89 -66 -89q-34 0 -71 19q-10 -48 -67 -48q-37 0 -73 35q-31 31 -44 70q-19 59 -19 97q0 25 11 35q7 -1 20 -37q35 -96 87 -96q37 0 37 53q0 9 -3 28.5t-3 29.5q0 21 9 23q7 -6 12 -16l4 -18l7 -24q15 -52 61 -52q49 0 49 35
q0 10 -5 23l-10 27q-6 25 -6 33q0 19 9 28zM1216 0q-87 0 -147 31q-83 43 -168 166q-84 -131 -178 -172q-59 -25 -171 -25q-164 0 -299 135t-135 299q0 158 130 290q136 140 315 140q167 0 299 -132t132 -298q0 -103 60.5 -175.5t161.5 -83.5v-175zM798 431q0 87 -80 169
q-88 90 -189 90q-95 0 -178.5 -82t-83.5 -177q0 -104 82 -181.5t187 -77.5q104 0 183 77.5t79 181.5zM2212 430q0 -156 -122.5 -286t-277.5 -144v174q95 10 161 85t66 171v891h173v-891zM1834 0q-86 0 -147 31q-83 43 -168 166q-81 -124 -164 -167q-58 -30 -149 -30v175
q95 11 161.5 85.5t66.5 170.5v894h172v-894q0 -93 67.5 -167.5t160.5 -88.5v-175z" />
    <glyph glyph-name="uFEF5" unicode="&#xfedf;&#xfe82;" horiz-adv-x="1193" arabic-form="isolated" 
d="M705 1734h-89q-18 80 -94 80q-41 0 -70.5 -26t-29.5 -66q0 -75 -56.5 -131.5t-130.5 -56.5q-69 0 -120.5 41.5t-65.5 108.5h92q20 -74 94 -74q41 0 68.5 27t27.5 68q0 81 54 137.5t134 56.5q72 0 122.5 -46.5t63.5 -118.5zM1063 -227q0 -180 -125 -305t-306 -125
q-183 0 -314 123q-135 126 -135 307q0 201 184 355q-67 42 -120 131q-58 98 -58 202v888h172v-888q0 -101 78 -180.5t185 -79.5q100 0 180 80t80 180v888h173v-888q0 -100 -59 -202q-50 -87 -118 -131q183 -152 183 -355zM885 -236q0 110 -76 187t-186 77
q-114 0 -188.5 -74.5t-74.5 -189.5q0 -105 80 -176q77 -69 183 -69q108 0 185 69.5t77 175.5z" />
    <glyph glyph-name="uFEF6" unicode="&#xfee0;&#xfe82;" horiz-adv-x="1193" arabic-form="final" 
d="M739 1573h-88q-19 80 -94 80q-42 0 -71 -26t-29 -66q0 -75 -56.5 -131.5t-131.5 -56.5q-68 0 -119.5 41.5t-65.5 108.5h92q19 -74 93 -74q42 0 69.5 27t27.5 68q0 81 53.5 137.5t133.5 56.5q72 0 124 -47q49 -46 62 -118zM1235 0q-93 0 -153 30q-88 44 -168 167
q-90 -133 -178 -173q-58 -26 -162 -26q-172 0 -299 115q-130 120 -130 289h154q9 -51 40 -97q48 -71 141 -124v863h173v-832q53 0 115 80q58 74 58 140v888h172v-888q0 -98 69 -170.5t168 -86.5v-175z" />
    <glyph glyph-name="uFEF7" unicode="&#xfedf;&#xfe84;" horiz-adv-x="1193" arabic-form="isolated" 
d="M1063 -227q0 -180 -125 -305t-306 -125q-183 0 -314 123q-135 126 -135 307q0 201 184 355q-67 42 -120 131q-58 98 -58 202v888h172v-888q0 -101 78 -180.5t185 -79.5q100 0 180 80t80 180v888h173v-888q0 -100 -59 -202q-50 -87 -118 -131q183 -152 183 -355zM885 -236
q0 110 -76 187t-186 77q-114 0 -188.5 -74.5t-74.5 -189.5q0 -105 80 -176q77 -69 183 -69q108 0 185 69.5t77 175.5zM496 1589h-378v115h149q0 87 71 158.5t158 71.5v-115q-49 0 -81.5 -33t-32.5 -82h114v-115z" />
    <glyph glyph-name="uFEF8" unicode="&#xfee0;&#xfe84;" horiz-adv-x="1178" arabic-form="final" 
d="M1208 0q-93 0 -153 30q-88 44 -168 167q-90 -133 -178 -173q-59 -26 -162 -26q-172 0 -299 115q-130 120 -130 289h154q9 -51 40 -97q48 -71 140 -124v863h174v-832q52 0 115 80q58 74 58 140v888h172v-888q0 -98 69 -170.5t168 -86.5v-175zM538 1432h-378v115h149
q0 86 71 158t158 72v-115q-49 0 -81.5 -33.5t-32.5 -81.5h114v-115z" />
    <glyph glyph-name="uFEF9" unicode="&#xfedf;&#xfe88;" horiz-adv-x="1270" arabic-form="isolated" 
d="M1140 -227q0 -180 -125 -305t-305 -125q-183 0 -315 123q-135 126 -135 307q0 201 184 355q-66 42 -119 131q-59 98 -59 202v888h173v-888q0 -101 78 -180.5t185 -79.5q100 0 180 80t80 180v888h172v-888q0 -100 -58 -202q-50 -87 -119 -131q183 -152 183 -355zM963 -236
q0 110 -76.5 187t-185.5 77q-115 0 -189.5 -74.5t-74.5 -189.5q0 -105 80 -176q77 -69 184 -69t184.5 69.5t77.5 175.5zM495 -1029h-377v115h148q0 86 71 158t158 72v-115q-47 0 -80.5 -32t-33.5 -83h114v-115z" />
    <glyph glyph-name="uFEFA" unicode="&#xfee0;&#xfe88;" horiz-adv-x="1166" arabic-form="final" 
d="M1208 0q-93 0 -153 30q-88 44 -168 167q-90 -133 -178 -173q-59 -26 -162 -26q-172 0 -299 115q-130 120 -130 289h154q9 -51 40 -97q48 -71 140 -124v863h174v-832q52 0 115 80q58 74 58 140v888h172v-888q0 -98 69 -170.5t168 -86.5v-175zM536 -455h-377v115h149
q0 86 71 158t157 72v-115q-46 0 -79.5 -32t-33.5 -83h113v-115z" />
    <glyph glyph-name="uFEFB" unicode="&#xfedf;&#xfe8e;" horiz-adv-x="1128" arabic-form="isolated" 
d="M998 -227q0 -180 -125.5 -305t-305.5 -125q-183 0 -314 123q-135 126 -135 307q0 201 184 355q-67 42 -120 131q-58 98 -58 202v888h172v-888q0 -101 78 -180.5t185 -79.5q100 0 180 80t80 180v888h173v-888q0 -100 -59 -202q-50 -87 -118 -131q183 -152 183 -355z
M820 -236q0 110 -76 187t-186 77q-114 0 -188.5 -74.5t-74.5 -189.5q0 -105 80 -176q77 -69 183 -69q108 0 185 69.5t77 175.5z" />
    <glyph glyph-name="uFEFC" unicode="&#xfee0;&#xfe8e;" horiz-adv-x="1185" arabic-form="final" 
d="M1208 0q-93 0 -153 30q-88 44 -168 167q-90 -133 -178 -173q-59 -26 -162 -26q-172 0 -299 115q-130 120 -130 289h154q9 -51 40 -97q48 -71 140 -124v863h174v-832q52 0 115 80q58 74 58 140v888h172v-888q0 -98 69 -170.5t168 -86.5v-175z" />
    <glyph glyph-name="u0622" unicode="&#x622;" horiz-adv-x="462" arabic-form="isolated" 
d="M567 1700h-89q-18 79 -94 79q-41 0 -70.5 -25.5t-29.5 -66.5q0 -75 -56.5 -131t-130.5 -56q-68 0 -120 41.5t-66 107.5h92q20 -74 94 -74q41 0 68.5 27t27.5 69q0 80 54 136.5t134 56.5q72 0 122.5 -46t63.5 -118zM312 1324l-2 -1324h-173v1324h175z" />
    <glyph glyph-name="u0623" unicode="&#x623;" horiz-adv-x="462" arabic-form="isolated" 
d="M312 1324l-2 -1324h-173v1324h175zM404 1569h-378v115h149q0 86 71 158t158 72v-115q-49 0 -81.5 -33.5t-32.5 -81.5h114v-115z" />
    <glyph glyph-name="u0624" unicode="&#x624;" horiz-adv-x="1116" arabic-form="isolated" 
d="M986 -264q0 -165 -132 -298.5t-297 -133.5q-73 0 -159 41q-72 33 -112 73l106 127q80 -68 165 -68q105 0 181 77t76 182v393q-42 -42 -74 -65q-91 -64 -185 -64q-164 0 -296.5 132.5t-132.5 296.5q0 163 131.5 298t294.5 135q170 0 302 -129t132 -299v-698zM814 429
q0 83 -75 168q-82 93 -184 93q-100 0 -183 -94q-76 -87 -76 -167q0 -101 79.5 -179.5t179.5 -78.5q99 0 179 80t80 178zM462 1040h-377v115h148q0 86 71 158t158 72v-115q-49 0 -81.5 -33.5t-32.5 -81.5h114v-115z" />
    <glyph glyph-name="u0625" unicode="&#x625;" horiz-adv-x="462" arabic-form="isolated" 
d="M312 1324l-2 -1324h-173v1324h175zM402 -445h-377v115h149q0 87 71 158.5t157 71.5v-115q-46 0 -79.5 -32t-33.5 -83h113v-115z" />
    <glyph glyph-name="u0626" unicode="&#x626;" horiz-adv-x="1347" arabic-form="isolated" 
d="M1217 -231q0 -172 -128 -301t-300 -129h-221q-69 0 -158 34q-118 46 -189 129q-91 107 -91 263v205h173v-205q0 -99 82.5 -176.5t182.5 -77.5h214q96 0 179 82.5t83 177.5q0 87 -55 151q-51 59 -138 99l-176 80q-108 50 -153 77q-168 104 -168 288q0 172 129.5 301
t302.5 129q155 0 285 -125.5t145 -281.5h-173q-10 99 -82.5 166t-171.5 67q-95 0 -178.5 -81.5t-83.5 -177.5q0 -135 163 -215l311 -151q92 -46 153 -125q63 -82 63 -203zM436 934h-377v115h148q0 86 71.5 158t157.5 72v-115q-48 0 -81 -33.5t-33 -81.5h114v-115z" />
    <glyph glyph-name="u0627" unicode="&#x627;" horiz-adv-x="423" arabic-form="isolated" 
d="M293 1324l-2 -1324h-173v1324h175z" />
    <glyph glyph-name="u0628" unicode="&#x628;" horiz-adv-x="1108" arabic-form="isolated" 
d="M978 431q0 -164 -132.5 -297.5t-296.5 -133.5t-297.5 133.5t-133.5 297.5v201h172v-201q0 -104 76 -181.5t181 -77.5t181.5 77t76.5 182v201h173v-201zM635 -236q0 -35 -25.5 -60.5t-60.5 -25.5t-60.5 25.5t-25.5 60.5q0 36 25.5 61.5t60.5 25.5t60.5 -25.5t25.5 -61.5z
" />
    <glyph glyph-name="u0629" unicode="&#x629;" horiz-adv-x="1110" arabic-form="isolated" 
d="M980 430q0 -178 -127 -304t-305 -126q-179 0 -304.5 125.5t-125.5 304.5q0 180 125 305t305 125t306 -125t126 -305zM801 421q0 109 -76.5 186t-185.5 77t-186 -77t-77 -186q0 -103 78 -175q75 -70 185 -70q106 0 184 70t78 175zM668 1041h-378v115h149q0 86 71 158
t158 72v-115q-49 0 -81.5 -33.5t-32.5 -81.5h114v-115z" />
    <glyph glyph-name="u062A" unicode="&#x62a;" horiz-adv-x="1108" arabic-form="isolated" 
d="M762 920q0 -35 -25.5 -60.5t-60.5 -25.5q-36 0 -61.5 25.5t-25.5 60.5t25.5 60.5t61.5 25.5q35 0 60.5 -25.5t25.5 -60.5zM509 920q0 -35 -25.5 -60.5t-60.5 -25.5q-36 0 -61.5 25.5t-25.5 60.5t25.5 60.5t61.5 25.5q35 0 60.5 -25.5t25.5 -60.5zM978 431
q0 -164 -132.5 -297.5t-296.5 -133.5t-297.5 133.5t-133.5 297.5v201h172v-201q0 -104 76 -181.5t181 -77.5t181.5 77t76.5 182v201h173v-201z" />
    <glyph glyph-name="u062B" unicode="&#x62b;" horiz-adv-x="1108" arabic-form="isolated" 
d="M633 1148q0 -36 -25.5 -61.5t-60.5 -25.5q-36 0 -61.5 25.5t-25.5 61.5q0 35 25.5 60.5t61.5 25.5q35 0 60.5 -25.5t25.5 -60.5zM762 920q0 -35 -25.5 -60.5t-60.5 -25.5q-36 0 -61.5 25.5t-25.5 60.5t25.5 60.5t61.5 25.5q35 0 60.5 -25.5t25.5 -60.5zM509 920
q0 -35 -25.5 -60.5t-60.5 -25.5q-36 0 -61.5 25.5t-25.5 60.5t25.5 60.5t61.5 25.5q35 0 60.5 -25.5t25.5 -60.5zM978 431q0 -164 -132.5 -297.5t-296.5 -133.5t-297.5 133.5t-133.5 297.5v201h172v-201q0 -104 76 -181.5t181 -77.5t181.5 77t76.5 182v201h173v-201z" />
    <glyph glyph-name="u062C" unicode="&#x62c;" horiz-adv-x="1110" arabic-form="isolated" 
d="M980 0h-431q-104 0 -181.5 -76t-77.5 -180q0 -88 77 -171q82 -88 185 -88t173.5 63t81.5 165h172q-14 -155 -145 -278.5t-285 -123.5q-172 0 -301.5 129.5t-129.5 300.5q0 164 133.5 297.5t297.5 133.5h259q0 109 -76 197q-80 91 -186 91q-104 0 -173 -63.5t-82 -166.5
h-172q14 156 144 280t286 124q171 0 301 -131t130 -302v-201zM624 -236q0 -35 -25.5 -60.5t-60.5 -25.5q-36 0 -61.5 25.5t-25.5 60.5q0 36 25.5 61.5t61.5 25.5q35 0 60.5 -25.5t25.5 -61.5z" />
    <glyph glyph-name="u062D" unicode="&#x62d;" horiz-adv-x="1110" arabic-form="isolated" 
d="M980 0h-431q-104 0 -181.5 -76t-77.5 -180q0 -88 77 -171q82 -88 185 -88t173.5 63t81.5 165h172q-14 -155 -145 -278.5t-285 -123.5q-172 0 -301.5 129.5t-129.5 300.5q0 164 133.5 297.5t297.5 133.5h259q0 109 -76 197q-80 91 -186 91q-104 0 -173 -63.5t-82 -166.5
h-172q14 156 144 280t286 124q171 0 301 -131t130 -302v-201z" />
    <glyph glyph-name="u062E" unicode="&#x62e;" horiz-adv-x="1110" arabic-form="isolated" 
d="M540 946q-39 0 -64.5 27t-25.5 65q0 39 26.5 64.5t65.5 25.5q38 0 64 -27t26 -65t-27 -64t-65 -26zM980 0h-431q-104 0 -181.5 -76t-77.5 -180q0 -88 77 -171q82 -88 185 -88t173.5 63t81.5 165h172q-14 -155 -145 -278.5t-285 -123.5q-172 0 -301.5 129.5t-129.5 300.5
q0 164 133.5 297.5t297.5 133.5h259q0 109 -76 197q-80 91 -186 91q-104 0 -173 -63.5t-82 -166.5h-172q14 156 144 280t286 124q171 0 301 -131t130 -302v-201z" />
    <glyph glyph-name="u062F" unicode="&#x62f;" horiz-adv-x="880" arabic-form="isolated" 
d="M750 431q0 -164 -133.5 -297.5t-297.5 -133.5h-201v172h201q103 0 181 77t78 180q0 105 -77 182t-182 77h-201v172h201q164 0 297.5 -132t133.5 -297z" />
    <glyph glyph-name="u0630" unicode="&#x630;" horiz-adv-x="880" arabic-form="isolated" 
d="M291 1165q-38 0 -63.5 26.5t-25.5 65.5t26.5 64.5t65.5 25.5q38 0 63.5 -27t25.5 -65t-26.5 -64t-65.5 -26zM750 431q0 -164 -133.5 -297.5t-297.5 -133.5h-201v172h201q103 0 181 77t78 180q0 105 -77 182t-182 77h-201v172h201q164 0 297.5 -132t133.5 -297z" />
    <glyph glyph-name="u0631" unicode="&#x631;" horiz-adv-x="843" arabic-form="isolated" 
d="M713 -259q0 -167 -135 -302t-302 -135q-152 0 -276 121l112 135q81 -72 164 -72q104 0 179.5 74.5t75.5 178.5v901h182v-901z" />
    <glyph glyph-name="u0632" unicode="&#x632;" horiz-adv-x="843" arabic-form="isolated" 
d="M687 1084q0 -39 -26.5 -64.5t-64.5 -25.5q-40 0 -65.5 26t-25.5 64q0 39 26 65t65 26q38 0 64.5 -26t26.5 -65zM713 -259q0 -167 -135 -302t-302 -135q-152 0 -276 121l112 135q81 -72 164 -72q104 0 179.5 74.5t75.5 178.5v901h182v-901z" />
    <glyph glyph-name="u0633" unicode="&#x633;" horiz-adv-x="2478" arabic-form="isolated" 
d="M2348 434q0 -164 -134 -299t-298 -135q-83 0 -143 24q-109 44 -198 173q-131 -197 -342 -197q-62 0 -102 15q-72 27 -154 113v-157q0 -164 -132.5 -297.5t-296.5 -133.5q-172 0 -301 129.5t-129 301.5q0 158 124 287q121 126 279 142v-171q-100 -10 -165 -82t-65 -172
q0 -95 82 -178.5t177 -83.5q104 0 180.5 77t76.5 181v661h170v-201q0 -100 78 -179.5t178 -79.5q105 0 184.5 77.5t79.5 181.5v201h172v-201q0 -98 74 -177q76 -82 173 -82q105 0 182 77t77 182v201h173v-198z" />
    <glyph glyph-name="u0634" unicode="&#x634;" horiz-adv-x="2478" arabic-form="isolated" 
d="M1624 1265q0 -35 -25.5 -60.5t-60.5 -25.5t-60.5 25.5t-25.5 60.5t25.5 60.5t60.5 25.5t60.5 -25.5t25.5 -60.5zM1751 1023q0 -35 -25.5 -60.5t-60.5 -25.5q-36 0 -61.5 25.5t-25.5 60.5q0 36 25.5 61.5t61.5 25.5q35 0 60.5 -25.5t25.5 -61.5zM1498 1023
q0 -35 -25.5 -60.5t-60.5 -25.5q-36 0 -61.5 25.5t-25.5 60.5q0 36 25.5 61.5t61.5 25.5q35 0 60.5 -25.5t25.5 -61.5zM2348 434q0 -164 -134 -299t-298 -135q-83 0 -143 24q-109 44 -198 173q-131 -197 -342 -197q-62 0 -102 15q-72 27 -154 113v-157q0 -164 -132.5 -297.5
t-296.5 -133.5q-172 0 -301 129.5t-129 301.5q0 158 124 287q121 126 279 142v-171q-100 -10 -165 -82t-65 -172q0 -95 82 -178.5t177 -83.5q104 0 180.5 77t76.5 181v661h170v-201q0 -100 78 -179.5t178 -79.5q105 0 184.5 77.5t79.5 181.5v201h172v-201q0 -98 74 -177
q76 -82 173 -82q105 0 182 77t77 182v201h173v-198z" />
    <glyph glyph-name="u0635" unicode="&#x635;" horiz-adv-x="2484" arabic-form="isolated" 
d="M2354 434q0 -163 -134 -298.5t-297 -135.5h-690q-66 0 -106 21q-55 28 -150 140v-190q0 -164 -132.5 -297.5t-296.5 -133.5q-172 0 -301 129.5t-129 301.5q0 156 122.5 285.5t278.5 143.5v-171q-100 -11 -164 -82t-64 -172q0 -95 82 -178.5t177 -83.5q104 0 180.5 77
t76.5 181v661h170v-201q0 -109 89 -186q85 -73 196 -73v260q0 163 134.5 296.5t296.5 133.5h264q148 0 274 -141q123 -138 123 -287zM2182 429q0 105 -76.5 181.5t-182.5 77.5l-230 2q-105 1 -181.5 -77.5t-76.5 -184.5v-256h488q103 0 181 77t78 180z" />
    <glyph glyph-name="u0636" unicode="&#x636;" horiz-adv-x="2484" arabic-form="isolated" 
d="M1713 1165q-39 0 -64.5 26.5t-25.5 65.5t26.5 64.5t65.5 25.5q38 0 64 -27t26 -65t-27 -64t-65 -26zM2354 434q0 -163 -134 -298.5t-297 -135.5h-690q-66 0 -106 21q-55 28 -150 140v-190q0 -164 -132.5 -297.5t-296.5 -133.5q-172 0 -301 129.5t-129 301.5
q0 156 122.5 285.5t278.5 143.5v-171q-100 -11 -164 -82t-64 -172q0 -95 82 -178.5t177 -83.5q104 0 180.5 77t76.5 181v661h170v-201q0 -109 89 -186q85 -73 196 -73v260q0 163 134.5 296.5t296.5 133.5h264q148 0 274 -141q123 -138 123 -287zM2182 429q0 105 -76.5 181.5
t-182.5 77.5l-230 2q-105 1 -181.5 -77.5t-76.5 -184.5v-256h488q103 0 181 77t78 180z" />
    <glyph glyph-name="u0637" unicode="&#x637;" horiz-adv-x="1568" arabic-form="isolated" 
d="M1438 434q0 -163 -134.5 -298.5t-296.5 -135.5h-889v172h230v1150h172v-614q59 48 101 77q113 77 161 77h227q164 0 296.5 -132.5t132.5 -295.5zM1268 429q0 105 -77 181.5t-182 77.5l-230 2q-58 1 -164 -81q-46 -34 -95 -81v-356h489q103 0 181 77t78 180z" />
    <glyph glyph-name="u0638" unicode="&#x638;" horiz-adv-x="1568" arabic-form="isolated" 
d="M980 1252q0 -39 -26 -65t-65 -26t-64.5 26.5t-25.5 64.5q0 39 26 65t64 26q39 0 65 -26t26 -65zM1438 434q0 -163 -134.5 -298.5t-296.5 -135.5h-889v172h230v1150h172v-614q59 48 101 77q113 77 161 77h227q164 0 296.5 -132.5t132.5 -295.5zM1268 429q0 105 -77 181.5
t-182 77.5l-230 2q-58 1 -164 -81q-46 -34 -95 -81v-356h489q103 0 181 77t78 180z" />
    <glyph glyph-name="u0639" unicode="&#x639;" horiz-adv-x="1105" arabic-form="isolated" 
d="M975 -298q0 -160 -134 -277q-128 -114 -290 -114q-171 0 -302 130t-131 301q0 83 24 145q44 113 176 199q-88 52 -139 142q-41 72 -47 141l-6 66q0 164 138.5 298.5t302.5 134.5q63 0 160 -36q110 -40 130 -87l-126 -106q-57 57 -164 57q-111 0 -190 -76t-79 -188
q0 -123 74 -192q71 -66 195 -66q69 0 127 31q17 9 37 26l120 -100q-49 -38 -124 -73t-165 -58q-96 0 -184 -81.5t-88 -176.5q0 -103 77.5 -179.5t181.5 -76.5q100 0 170 59t83 157h173z" />
    <glyph glyph-name="u063A" unicode="&#x63a;" horiz-adv-x="1105" arabic-form="isolated" 
d="M666 1249q0 -39 -26 -65t-65 -26t-64.5 26t-25.5 65q0 38 26 64.5t64 26.5q39 0 65 -26.5t26 -64.5zM975 -299q0 -160 -134 -278q-128 -113 -290 -113q-171 0 -302 130t-131 301q0 83 24 145q44 113 176 199q-88 52 -139 142q-41 72 -47 141l-6 66q0 164 138.5 298.5
t302.5 134.5q63 0 160 -36q110 -40 130 -87l-126 -106q-57 57 -164 57q-111 0 -190 -76t-79 -188q0 -123 74 -192q71 -67 195 -67q69 0 127 32q17 9 37 26l120 -100q-49 -38 -124 -73t-165 -58q-96 0 -184 -81.5t-88 -176.5q0 -103 77.5 -179.5t181.5 -76.5q100 0 170 58.5
t83 157.5h173z" />
    <glyph glyph-name="u0641" unicode="&#x641;" horiz-adv-x="2026" arabic-form="isolated" 
d="M1555 1252q0 -39 -26 -65t-65 -26t-64.5 26.5t-25.5 64.5q0 39 26 65t64 26q39 0 65 -26t26 -65zM1896 435q0 -171 -129.5 -303t-299.5 -132h-920q-171 0 -300 129.5t-129 299.5q0 156 121 291q125 139 279 139v-171q-91 -12 -160.5 -90t-69.5 -169q0 -101 79 -179
t180 -78h597q-39 40 -56 66q-55 85 -55 193q0 164 132.5 296.5t296.5 132.5t299 -131t135 -294zM1723 431q0 100 -94 183q-86 76 -167 76q-100 0 -178.5 -79t-78.5 -180q0 -96 80.5 -177.5t176.5 -81.5q83 0 168 75q93 83 93 184z" />
    <glyph glyph-name="u0642" unicode="&#x642;" horiz-adv-x="1678" arabic-form="isolated" 
d="M1372 1252q0 -39 -26 -65t-65 -26t-65 26.5t-26 64.5q0 39 26.5 65t64.5 26t64.5 -26t26.5 -65zM1080 1252q0 -39 -26 -65t-65 -26t-65 26.5t-26 64.5q0 39 26.5 65t64.5 26t64.5 -26t26.5 -65zM1452 -20q-33 -86 -83 -167q-64 -103 -125 -161q-105 -99 -280 -155
q-127 -40 -232 -40q-96 0 -227 35q-107 28 -140 41q-66 27 -119 79q-130 127 -128 297q1 164 124 293q114 120 276 137v-171q-93 -17 -159 -89q-70 -77 -71 -170q-1 -96 77 -176q35 -36 83 -53q6 -2 99.5 -27.5t166.5 -25.5q72 0 167 25q194 52 286 161q76 91 101 203
q-116 -32 -232 -10q-60 11 -85 19q-39 13 -75 40q-60 45 -89 107q-22 25 -42 65q-18 36 -31 91q-12 52 -11 103q2 165 134 297t295 132q159 0 294 -134q63 -63 89 -125q22 -51 33 -144q9 -74 -12 -191q-7 -41 -42 -155q-11 -40 -42 -131zM1393 431q0 104 -80.5 182
t-180.5 77q-98 -1 -177 -78q-82 -79 -81 -181q0 -100 87 -183q80 -76 171 -76q86 1 167 75q94 86 94 184z" />
    <glyph glyph-name="u0643" unicode="&#x643;" horiz-adv-x="1959" arabic-form="isolated" 
d="M556 0q-69 0 -159 34q-117 46 -188 129q-91 107 -91 264v204h172v-204q0 -100 82.5 -177.5t183.5 -77.5h1095q0 117 -70 199q-74 87 -189 87h-224q-164 0 -298 133.5t-134 297.5q0 163 134.5 296t297.5 133h661v-173h-661q-106 0 -182.5 -76t-76.5 -182q0 -105 77 -181
t182 -76h224q165 0 298 -132t133 -297v-201h-1267z" />
    <glyph glyph-name="u0644" unicode="&#x644;" horiz-adv-x="1107" arabic-form="isolated" 
d="M977 2q0 -164 -132.5 -297.5t-296.5 -133.5q-172 0 -301 129.5t-129 301.5q0 158 124 287q121 126 279 142v-171q-100 -10 -165 -81.5t-65 -172.5q0 -95 82 -178.5t177 -83.5q104 0 180.5 77t76.5 181v1358h170v-1358z" />
    <glyph glyph-name="u0645" unicode="&#x645;" horiz-adv-x="1806" arabic-form="isolated" 
d="M1676 434q0 -175 -141 -308q-135 -126 -294 -126q-116 0 -185 34q-83 42 -162 163q-86 -128 -190 -172q-60 -25 -155 -25q-105 0 -182 -76.5t-77 -182.5q0 -96 67 -170t163 -85v-173q-163 0 -284 135q-118 131 -118 296q0 162 134 295t297 133q111 0 181 75t70 187
q0 168 131.5 299t299.5 131q170 0 307 -129q138 -132 138 -301zM1508 431q0 87 -77 170q-82 89 -185 89q-95 0 -182 -82t-87 -177q0 -104 79 -181.5t183 -77.5q106 0 187.5 77t81.5 182z" />
    <glyph glyph-name="u0646" unicode="&#x646;" horiz-adv-x="1107" arabic-form="isolated" 
d="M636 2q0 -35 -25.5 -60.5t-60.5 -25.5t-60.5 25.5t-25.5 60.5q0 36 25.5 61.5t60.5 25.5t60.5 -25.5t25.5 -61.5zM977 2q0 -164 -132.5 -297.5t-296.5 -133.5q-172 0 -301 129.5t-129 301.5q0 158 124 287q121 126 279 142v-171q-100 -10 -165 -81.5t-65 -172.5
q0 -95 82 -178.5t177 -83.5q104 0 180.5 77t76.5 181v432h170v-432z" />
    <glyph glyph-name="u0647" unicode="&#x647;" horiz-adv-x="1110" arabic-form="isolated" 
d="M980 430q0 -178 -127 -304t-305 -126q-179 0 -304.5 125.5t-125.5 304.5q0 180 125 305t305 125t306 -125t126 -305zM801 421q0 109 -76.5 186t-185.5 77t-186 -77t-77 -186q0 -103 78 -175q75 -70 185 -70q106 0 184 70t78 175z" />
    <glyph glyph-name="u0648" unicode="&#x648;" horiz-adv-x="1108" arabic-form="isolated" 
d="M978 -264q0 -165 -132.5 -298.5t-296.5 -133.5q-74 0 -160 41q-71 33 -111 73l105 127q81 -68 166 -68q104 0 180 77t76 182v393q-42 -42 -73 -65q-91 -64 -185 -64q-164 0 -296.5 132.5t-132.5 296.5q0 163 131 298t294 135q171 0 303 -129t132 -299v-698zM805 429
q0 83 -74 168q-83 93 -184 93q-100 0 -183 -94q-76 -87 -76 -167q0 -101 79 -179.5t180 -78.5q98 0 178 80t80 178z" />
    <glyph glyph-name="u0649" unicode="&#x649;" horiz-adv-x="1335" arabic-form="isolated" 
d="M1205 -231q0 -172 -128.5 -301t-299.5 -129h-221q-69 0 -159 34q-117 46 -188 129q-91 107 -91 263v205h172v-205q0 -99 82.5 -176.5t183.5 -77.5h214q95 0 178.5 82.5t83.5 177.5q0 87 -55 151q-51 59 -138 99l-176 80q-109 50 -153 77q-168 104 -168 288
q0 172 129.5 301t301.5 129q156 0 287 -127q128 -124 143 -280h-172q-10 99 -82.5 166t-171.5 67q-95 0 -178.5 -81.5t-83.5 -177.5q0 -135 163 -215l310 -151q93 -46 153 -125q64 -82 64 -203z" />
    <glyph glyph-name="u064A" unicode="&#x64a;" horiz-adv-x="1335" arabic-form="isolated" 
d="M1205 -231q0 -172 -128.5 -301t-299.5 -129h-221q-69 0 -159 34q-117 46 -188 129q-91 107 -91 263v205h172v-205q0 -99 82.5 -176.5t183.5 -77.5h214q95 0 178.5 82.5t83.5 177.5q0 87 -55 151q-51 59 -138 99l-176 80q-109 50 -153 77q-168 104 -168 288
q0 172 129.5 301t301.5 129q156 0 287 -127q128 -124 143 -280h-172q-10 99 -82.5 166t-171.5 67q-95 0 -178.5 -81.5t-83.5 -177.5q0 -135 163 -215l310 -151q93 -46 153 -125q64 -82 64 -203z" />
    <glyph glyph-name="u067E" unicode="&#x67e;" horiz-adv-x="1108" arabic-form="isolated" 
d="M978 431q0 -164 -132.5 -297.5t-296.5 -133.5t-297.5 133.5t-133.5 297.5v201h172v-201q0 -104 76 -181.5t181 -77.5t181.5 77t76.5 182v201h173v-201zM472 -508q0 35 25.5 60.5t60.5 25.5t60.5 -25.5t25.5 -60.5t-25.5 -60.5t-60.5 -25.5t-60.5 25.5t-25.5 60.5z
M343 -280q0 35 25.5 60.5t60.5 25.5q36 0 61 -25.5t25 -60.5t-25 -60.5t-61 -25.5q-35 0 -60.5 25.5t-25.5 60.5zM596 -280q0 35 25.5 60.5t60.5 25.5q36 0 61 -25.5t25 -60.5t-25 -60.5t-61 -25.5q-35 0 -60.5 25.5t-25.5 60.5z" />
    <glyph glyph-name="u0686" unicode="&#x686;" horiz-adv-x="1110" arabic-form="isolated" 
d="M980 0h-431q-104 0 -181.5 -76t-77.5 -180q0 -88 77 -171q82 -88 185 -88t173.5 63t81.5 165h172q-14 -155 -145 -278.5t-285 -123.5q-172 0 -301.5 129.5t-129.5 300.5q0 164 133.5 297.5t297.5 133.5h259q0 109 -76 197q-80 91 -186 91q-104 0 -173 -63.5t-82 -166.5
h-172q14 156 144 280t286 124q171 0 301 -131t130 -302v-201zM517 -395q0 35 25.5 60.5t60.5 25.5q36 0 61.5 -25.5t25.5 -60.5q0 -36 -25.5 -61.5t-61.5 -25.5q-35 0 -60.5 25.5t-25.5 61.5zM388 -168q0 36 25.5 61.5t60.5 25.5q36 0 61.5 -25.5t25.5 -61.5
q0 -35 -25.5 -60.5t-61.5 -25.5q-35 0 -60.5 25.5t-25.5 60.5zM641 -168q0 36 25.5 61.5t60.5 25.5q36 0 61.5 -25.5t25.5 -61.5q0 -35 -25.5 -60.5t-61.5 -25.5q-35 0 -60.5 25.5t-25.5 60.5z" />
    <glyph glyph-name="u0698" unicode="&#x698;" horiz-adv-x="937" arabic-form="isolated" 
d="M713 -259q0 -167 -135 -302t-302 -135q-152 0 -276 121l112 135q81 -72 164 -72q104 0 179.5 74.5t75.5 178.5v901h182v-901zM678 1185q0 -36 -25.5 -61t-60.5 -25t-60.5 25t-25.5 61q0 35 25.5 60.5t60.5 25.5t60.5 -25.5t25.5 -60.5zM807 957q0 -35 -25.5 -60.5
t-60.5 -25.5q-36 0 -61 25.5t-25 60.5t25 60.5t61 25.5q35 0 60.5 -25.5t25.5 -60.5zM554 957q0 -35 -25.5 -60.5t-60.5 -25.5q-36 0 -61 25.5t-25 60.5t25 60.5t61 25.5q35 0 60.5 -25.5t25.5 -60.5z" />
    <glyph glyph-name="u06AF" unicode="&#x6af;" horiz-adv-x="1959" arabic-form="isolated" 
d="M556 0q-69 0 -159 34q-117 46 -188 129q-91 107 -91 264v204h172v-204q0 -100 82.5 -177.5t183.5 -77.5h1095q0 117 -70 199q-74 87 -189 87h-224q-164 0 -298 133.5t-134 297.5q0 163 134.5 296t297.5 133h661v-173h-661q-106 0 -182.5 -76t-76.5 -182q0 -105 77 -181
t182 -76h224q165 0 298 -132t133 -297v-201h-1267zM1118 1541h657v-148h-657v148z" />
    <glyph glyph-name="uFB57" unicode="&#x67e;" horiz-adv-x="1415" arabic-form="final" 
d="M1436 0q-87 0 -148 31q-83 43 -167 166q-83 -130 -176 -172q-57 -25 -166 -25h-230q-172 0 -301.5 130t-129.5 301q0 155 124 286t278 144v-172q-98 -11 -166 -83t-68 -170q0 -108 77.5 -186t185.5 -78h230q98 0 173 67t87 163h180q8 -92 66.5 -153.5t150.5 -74.5v-174z
M583 -492q0 35 25.5 60.5t60.5 25.5q36 0 61.5 -25.5t25.5 -60.5t-25.5 -60.5t-61.5 -25.5q-35 0 -60.5 25.5t-25.5 60.5zM454 -264q0 35 25.5 60.5t61.5 25.5q35 0 60.5 -25.5t25.5 -60.5q0 -36 -25.5 -61.5t-60.5 -25.5q-36 0 -61.5 25.5t-25.5 61.5zM707 -264
q0 35 25.5 60.5t61.5 25.5q35 0 60.5 -25.5t25.5 -60.5q0 -36 -25.5 -61.5t-60.5 -25.5q-36 0 -61.5 25.5t-25.5 61.5z" />
    <glyph glyph-name="uFB58" unicode="&#x67e;" horiz-adv-x="481" arabic-form="initial" 
d="M381 430q0 -166 -117 -293q-119 -130 -283 -130v167q95 10 161 85t66 171v201h173v-201zM104 -548q0 36 25.5 61.5t61.5 25.5q35 0 60.5 -25.5t25.5 -61.5q0 -35 -25.5 -60.5t-60.5 -25.5q-36 0 -61.5 25.5t-25.5 60.5zM-24 -320q0 35 25 60.5t61 25.5q35 0 60.5 -25.5
t25.5 -60.5t-25.5 -60.5t-60.5 -25.5q-36 0 -61 25.5t-25 60.5zM229 -320q0 35 25 60.5t61 25.5q35 0 60.5 -25.5t25.5 -60.5t-25.5 -60.5t-60.5 -25.5q-36 0 -61 25.5t-25 60.5z" />
    <glyph glyph-name="uFB59" unicode="&#x67e;" horiz-adv-x="582" arabic-form="medial" 
d="M602 0q-87 0 -147 31q-84 43 -168 166q-82 -124 -165 -167q-58 -30 -148 -30v175q95 11 161.5 85.5t66.5 170.5v201h172v-201q0 -93 67.5 -167.5t160.5 -88.5v-175zM21 -548q0 36 25 61.5t61 25.5q35 0 60.5 -25.5t25.5 -61.5q0 -35 -25.5 -60.5t-60.5 -25.5
q-36 0 -61 25.5t-25 60.5zM-108 -320q0 35 25.5 60.5t60.5 25.5t60.5 -25.5t25.5 -60.5t-25.5 -60.5t-60.5 -25.5t-60.5 25.5t-25.5 60.5zM145 -320q0 35 25.5 60.5t60.5 25.5t60.5 -25.5t25.5 -60.5t-25.5 -60.5t-60.5 -25.5t-60.5 25.5t-25.5 60.5z" />
    <glyph glyph-name="uFB7B" unicode="&#x686;" horiz-adv-x="969" arabic-form="final" 
d="M980 0h-431q-104 0 -181.5 -76t-77.5 -180q0 -88 77 -171q82 -88 185 -88t173.5 63t81.5 165h172q-14 -155 -145 -278.5t-285 -123.5q-172 0 -301.5 129.5t-129.5 300.5q0 164 133.5 297.5t297.5 133.5h259q0 109 -76 197q-80 91 -186 91q-104 0 -173 -63.5t-82 -166.5
h-172q14 156 144 280t286 124q171 0 301 -131t130 -302v-201zM496 -401q0 35 25 60.5t61 25.5q35 0 60.5 -25.5t25.5 -60.5q0 -36 -25.5 -61.5t-60.5 -25.5q-36 0 -61 25.5t-25 61.5zM367 -174q0 36 25.5 61t60.5 25t60.5 -25t25.5 -61q0 -35 -25.5 -60.5t-60.5 -25.5
t-60.5 25.5t-25.5 60.5zM620 -174q0 36 25.5 61t60.5 25t60.5 -25t25.5 -61q0 -35 -25.5 -60.5t-60.5 -25.5t-60.5 25.5t-25.5 60.5z" />
    <glyph glyph-name="uFB7C" unicode="&#x686;" horiz-adv-x="1014" arabic-form="initial" 
d="M884 431q0 -164 -134 -297.5t-298 -133.5h-470v172h470q104 0 181.5 77t77.5 180q0 87 -77 170q-82 89 -185 89q-102 0 -170.5 -63.5t-79.5 -164.5h-177q14 155 144.5 278t285.5 123q170 0 301 -130t131 -300zM210 -550q0 35 25.5 60.5t60.5 25.5q36 0 61 -25.5t25 -60.5
t-25 -60.5t-61 -25.5q-35 0 -60.5 25.5t-25.5 60.5zM81 -322q0 35 25.5 60.5t60.5 25.5q36 0 61.5 -25.5t25.5 -60.5t-25.5 -60.5t-61.5 -25.5q-35 0 -60.5 25.5t-25.5 60.5zM334 -322q0 35 25.5 60.5t60.5 25.5q36 0 61.5 -25.5t25.5 -60.5t-25.5 -60.5t-61.5 -25.5
q-35 0 -60.5 25.5t-25.5 60.5z" />
    <glyph glyph-name="uFB7D" unicode="&#x686;" horiz-adv-x="1091" arabic-form="medial" 
d="M1105 0q-87 0 -148 31q-83 43 -168 166q-83 -130 -176 -172q-56 -25 -165 -25h-466v172h466q104 0 183 77.5t79 181.5q0 87 -77 170q-82 89 -185 89q-104 0 -173 -63.5t-81 -166.5h-173q14 156 144 280t286 124q167 0 299.5 -132t132.5 -298q0 -103 60.5 -175.5
t161.5 -83.5v-175zM189 -559q0 35 25.5 60.5t61.5 25.5q35 0 60.5 -25.5t25.5 -60.5t-25.5 -60.5t-60.5 -25.5q-36 0 -61.5 25.5t-25.5 60.5zM60 -331q0 35 25.5 60.5t61.5 25.5q35 0 60.5 -25.5t25.5 -60.5q0 -36 -25.5 -61.5t-60.5 -25.5q-36 0 -61.5 25.5t-25.5 61.5z
M313 -331q0 35 25.5 60.5t61.5 25.5q35 0 60.5 -25.5t25.5 -60.5q0 -36 -25.5 -61.5t-60.5 -25.5q-36 0 -61.5 25.5t-25.5 61.5z" />
    <glyph glyph-name="uFB8B" unicode="&#x698;" horiz-adv-x="929" arabic-form="final" 
d="M952 0q-61 0 -122 21q-79 27 -117 76v-356q0 -167 -135 -302t-302 -135q-152 0 -276 121l112 135q81 -72 164 -72q104 0 179.5 74.5t75.5 178.5v901h182v-205q0 -81 66 -167q73 -95 173 -95v-175zM667 1194q0 -35 -25.5 -60.5t-60.5 -25.5q-36 0 -61.5 25.5t-25.5 60.5
t25.5 60.5t61.5 25.5q35 0 60.5 -25.5t25.5 -60.5zM796 966q0 -35 -25.5 -60.5t-60.5 -25.5q-36 0 -61.5 25.5t-25.5 60.5q0 36 25.5 61.5t61.5 25.5q35 0 60.5 -25.5t25.5 -61.5zM543 966q0 -35 -25.5 -60.5t-60.5 -25.5q-36 0 -61.5 25.5t-25.5 60.5q0 36 25.5 61.5
t61.5 25.5q35 0 60.5 -25.5t25.5 -61.5z" />
    <glyph glyph-name="uFEDA" unicode="&#x6a9;" horiz-adv-x="2080" arabic-form="final" 
d="M556 0q-69 0 -159 34q-117 46 -188 129q-91 107 -91 264v204h172v-204q0 -100 82.5 -177.5t183.5 -77.5h975q96 0 130 35q39 39 39 107q0 61 -56 103q-51 38 -113 38h-388q-162 0 -296 135q-106 106 -106 297q0 188 106 294q134 135 296 135h663v-173h-663
q-106 0 -182 -76.5t-76 -182.5q0 -104 77 -180t181 -76h296q174 0 295 -77q53 -34 80 -107q39 -104 56 -130q16 -33 67 -94q57 -48 181 -48v-172h-85l-33 -1q-31 -1 -57 22.5t-50 47.5q-62 51 -107 121q-57 -76 -112 -121q-18 -16 -65 -47q-48 -24 -75 -23l-43 1h-935z" />
    <glyph glyph-name="uFEDB" unicode="&#x6a9;" horiz-adv-x="1433" arabic-form="initial" 
d="M1303 0h-1322v172h1150q0 117 -70 199q-74 87 -189 87h-460q-164 0 -297.5 133.5t-133.5 297.5q0 163 134 296t297 133h661v-173h-661q-106 0 -182.5 -76t-76.5 -182q0 -105 77.5 -181t181.5 -76h460q165 0 298 -132t133 -297v-201z" />
    <glyph glyph-name="uFEDC" unicode="&#x6a9;" horiz-adv-x="1552" arabic-form="medial" 
d="M1575 0h-85l-34 -1q-62 -2 -107 23q-58 33 -106 121q-42 -89 -112 -121q-55 -25 -140 -23l-43 1h-967v172h1006q169 0 169 142q0 61 -55 103q-51 38 -114 38h-552q-164 0 -297.5 134t-133.5 298q0 162 134 295.5t297 133.5h780v-173h-780q-106 0 -182.5 -76.5
t-76.5 -182.5q0 -104 77.5 -180t181.5 -76h460q175 0 296 -77q135 -87 135 -237q0 -68 96 -109q75 -33 153 -33v-172z" />
    <glyph glyph-name="uFB93" unicode="&#x6af;" horiz-adv-x="2062" arabic-form="final" 
d="M556 0q-69 0 -159 34q-117 46 -188 129q-91 107 -91 264v204h172v-204q0 -100 82.5 -177.5t183.5 -77.5h975q96 0 130 35q39 39 39 107q0 61 -56 103q-51 38 -113 38h-388q-162 0 -296 135q-106 106 -106 297q0 188 106 294q134 135 296 135h663v-173h-663
q-106 0 -182 -76.5t-76 -182.5q0 -104 77 -180t181 -76h296q174 0 295 -77q53 -34 80 -107q39 -104 56 -130q16 -33 67 -94q57 -48 181 -48v-172h-85l-33 -1q-31 -1 -57 22.5t-50 47.5q-62 51 -107 121q-57 -76 -112 -121q-18 -16 -65 -47q-48 -24 -75 -23l-43 1h-935z
M1085 1541h657v-148h-657v148z" />
    <glyph glyph-name="uFB94" unicode="&#x6af;" horiz-adv-x="1427" arabic-form="initial" 
d="M1297 0h-1323v172h1150q0 117 -70 199q-73 87 -188 87h-460q-164 0 -298 133.5t-134 297.5q0 163 134.5 296t297.5 133h661v-173h-661q-106 0 -182.5 -76t-76.5 -182q0 -105 77 -181t182 -76h460q164 0 297.5 -132t133.5 -297v-201zM304 1542h723v-148h-723v148z" />
    <glyph glyph-name="uFB95" unicode="&#x6af;" horiz-adv-x="1545" arabic-form="medial" 
d="M1568 0h-85l-33 -1q-63 -2 -107 23q-59 33 -107 121q-42 -89 -112 -121q-55 -25 -140 -23l-43 1h-967v172h1007q169 0 169 142q0 61 -56 103q-51 38 -113 38h-552q-164 0 -298 134t-134 298q0 162 134.5 295.5t297.5 133.5h780v-173h-780q-106 0 -182.5 -76.5
t-76.5 -182.5q0 -104 77 -180t182 -76h460q174 0 295 -77q136 -87 136 -237q0 -69 95 -109q75 -33 153 -33v-172zM399 1537h746v-148h-746v148z" />
    <glyph glyph-name="uFE94" unicode="&#x6c0;" horiz-adv-x="1171" arabic-form="final" 
d="M1216 0q-87 0 -147 31q-83 43 -168 166q-84 -131 -178 -172q-59 -25 -171 -25q-164 0 -299 135t-135 299q0 158 130 290q136 140 315 140q167 0 299 -132t132 -298q0 -103 60.5 -175.5t161.5 -83.5v-175zM822 431q0 87 -81 169q-87 90 -189 90q-95 0 -178.5 -82
t-83.5 -177q0 -104 82 -181.5t187 -77.5t184 77.5t79 181.5zM677 1061h-377v115h148q0 87 71 158.5t158 71.5v-115q-49 0 -81.5 -33t-32.5 -82h114v-115z" />
    <glyph glyph-name="uFEF2" unicode="&#x6cc;" horiz-adv-x="1561" arabic-form="final" 
d="M1596 0q-106 0 -228 128v-194q0 -163 -132.5 -285.5t-296.5 -122.5h-391q-172 0 -301 129.5t-129 301.5q0 158 124 287q121 126 279 142v-171q-100 -10 -165 -81.5t-65 -172.5q0 -95 82 -178.5t177 -83.5h391q107 0 180 63q77 67 77 172v468h171q0 -100 64 -161
q61 -59 163 -67v-174z" />
    <glyph glyph-name="uFEF3" unicode="&#x6cc;" horiz-adv-x="504" arabic-form="initial" 
d="M388 430q0 -155 -122 -291q-125 -139 -278 -139v174q91 0 161 83q66 80 66 173v201h173v-201zM399 -236q0 -35 -25.5 -60.5t-60.5 -25.5q-36 0 -61.5 25.5t-25.5 60.5q0 36 25.5 61.5t61.5 25.5q35 0 60.5 -25.5t25.5 -61.5zM146 -236q0 -35 -25.5 -60.5t-60.5 -25.5
q-36 0 -61.5 25.5t-25.5 60.5q0 36 25.5 61.5t61.5 25.5q35 0 60.5 -25.5t25.5 -61.5z" />
    <glyph glyph-name="uFEF4" unicode="&#x6cc;" horiz-adv-x="650" arabic-form="medial" 
d="M687 0q-89 0 -149 31q-82 43 -166 166q-80 -123 -165 -167q-56 -29 -118 -29q-3 -1 -119 -1v175q52 0 110 3q67 2 139 81q68 74 68 172v201h173v-201q0 -93 67 -167.5t160 -88.5v-175zM437 -236q0 -35 -25.5 -60.5t-60.5 -25.5q-36 0 -61.5 25.5t-25.5 60.5
q0 36 25.5 61.5t61.5 25.5q35 0 60.5 -25.5t25.5 -61.5zM184 -236q0 -35 -25.5 -60.5t-60.5 -25.5q-36 0 -61.5 25.5t-25.5 60.5q0 36 25.5 61.5t61.5 25.5q35 0 60.5 -25.5t25.5 -61.5z" />
    <glyph glyph-name="Hcircumflex" unicode="&#x622;" horiz-adv-x="537" arabic-form="final" 
d="M567 1700h-89q-18 79 -94 79q-41 0 -70.5 -25.5t-29.5 -66.5q0 -75 -56.5 -131t-130.5 -56q-68 0 -120 41.5t-66 107.5h92q20 -74 94 -74q41 0 68.5 27t27.5 69q0 80 54 136.5t134 56.5q72 0 122.5 -46t63.5 -118zM555 0q-164 0 -282 124.5t-118 289.5v904h173v-888
q0 -101 63.5 -173.5t163.5 -84.5v-172z" />
    <glyph glyph-name="uFE84" unicode="&#x623;" horiz-adv-x="541" arabic-form="final" 
d="M555 0q-173 0 -288 121q-112 118 -112 293v904h173v-888q0 -101 63.5 -173.5t163.5 -84.5v-172zM404 1569h-378v115h149q0 86 71 158t158 72v-115q-49 0 -81.5 -33.5t-32.5 -81.5h114v-115z" />
    <glyph glyph-name="uFE86" unicode="&#x624;" horiz-adv-x="1212" arabic-form="final" 
d="M1229 0q-103 0 -226 129v-393q0 -165 -132 -298.5t-297 -133.5q-73 0 -160 41q-71 33 -111 73l106 127q80 -68 165 -68q105 0 181 77t76 182v393q-43 -42 -74 -65q-91 -64 -185 -64q-164 0 -296.5 132.5t-132.5 296.5q0 163 131.5 298t294.5 135q170 0 302 -129t132 -299
q0 -105 82 -187q74 -73 144 -73v-174zM831 429q0 83 -75 168q-82 93 -184 93q-100 0 -183 -94q-76 -87 -76 -167q0 -101 79 -179.5t180 -78.5q98 0 178.5 80t80.5 178zM495 1037h-377v115h148q0 87 71 158.5t158 71.5v-115q-49 0 -81.5 -33t-32.5 -82h114v-115z" />
    <glyph glyph-name="uFE88" unicode="&#x625;" horiz-adv-x="537" arabic-form="final" 
d="M555 0q-173 0 -288 121q-112 118 -112 293v904h173v-888q0 -101 63.5 -173.5t163.5 -84.5v-172zM402 -445h-377v115h149q0 87 71 158.5t157 71.5v-115q-46 0 -79.5 -32t-33.5 -83h113v-115z" />
    <glyph glyph-name="uFE8A" unicode="&#x626;" horiz-adv-x="1579" arabic-form="final" 
d="M1596 -1q-106 0 -228 127v-193q0 -163 -132.5 -285.5t-296.5 -122.5h-391q-172 0 -301 129.5t-129 301.5q0 158 124 287q121 126 279 142v-171q-100 -10 -165 -81.5t-65 -172.5q0 -95 82 -178.5t177 -83.5h391q107 0 180 63q77 67 77 172v468h171q0 -100 64 -162
q61 -58 163 -67v-173zM593 715h-377v115h148q0 87 71 158.5t158 71.5v-115q-49 0 -81.5 -33t-32.5 -82h114v-115z" />
    <glyph glyph-name="uFE8B" unicode="&#x626;" horiz-adv-x="587" arabic-form="initial" 
d="M388 430q0 -156 -121 -291q-125 -139 -279 -139v174q95 10 161 85t66 171v201h173v-201zM469 934h-377v115h149q0 86 71 158t157 72v-115q-48 0 -80.5 -33.5t-32.5 -81.5h113v-115z" />
    <glyph glyph-name="uFE8C" unicode="&#x626;" horiz-adv-x="601" arabic-form="medial" 
d="M616 0q-87 0 -148 31q-83 43 -168 166q-81 -124 -164 -167q-58 -30 -148 -30v175q95 11 161 85.5t66 170.5v201h173v-201q0 -93 67 -167.5t161 -88.5v-175zM469 934h-377v115h149q0 86 71 158t157 72v-115q-48 0 -80.5 -33.5t-32.5 -81.5h113v-115z" />
    <glyph glyph-name="uFE8E" unicode="&#x627;" horiz-adv-x="504" arabic-form="final" 
d="M518 0q-164 0 -282 124.5t-118 289.5v904h172v-888q0 -101 64 -173.5t164 -84.5v-172z" />
    <glyph glyph-name="uFE90" unicode="&#x628;" horiz-adv-x="1419" arabic-form="final" 
d="M1436 0q-87 0 -148 31q-83 43 -167 166q-83 -130 -176 -172q-57 -25 -166 -25h-230q-172 0 -301.5 130t-129.5 301q0 155 124 286t278 144v-172q-98 -11 -166 -83t-68 -170q0 -108 77.5 -186t185.5 -78h230q98 0 173 67t87 163h180q8 -92 66.5 -153.5t150.5 -74.5v-174z
M802 -236q0 -35 -25.5 -60.5t-60.5 -25.5q-36 0 -61 25.5t-25 60.5q0 36 25 61.5t61 25.5q35 0 60.5 -25.5t25.5 -61.5z" />
    <glyph glyph-name="uFE91" unicode="&#x628;" horiz-adv-x="511" arabic-form="initial" 
d="M185 -236q0 -35 -25 -60.5t-61 -25.5q-35 0 -60.5 25.5t-25.5 60.5q0 36 25.5 61.5t60.5 25.5q36 0 61 -25.5t25 -61.5zM381 430q0 -166 -116 -293q-120 -130 -284 -130v167q95 10 161.5 85t66.5 171v201h172v-201z" />
    <glyph glyph-name="uFE92" unicode="&#x628;" horiz-adv-x="577" arabic-form="medial" 
d="M602 0q-86 0 -147 31q-83 43 -168 166q-81 -124 -164 -167q-58 -30 -149 -30v175q95 11 161.5 85.5t66.5 170.5v201h173v-201q0 -93 67 -167.5t160 -88.5v-175zM179 -236q0 -35 -25.5 -60.5t-60.5 -25.5q-36 0 -61.5 25.5t-25.5 60.5q0 36 25.5 61.5t61.5 25.5
q35 0 60.5 -25.5t25.5 -61.5z" />
    <glyph glyph-name="uFE96" unicode="&#x62a;" horiz-adv-x="1417" arabic-form="final" 
d="M1107 925q0 -36 -25.5 -61.5t-60.5 -25.5q-36 0 -61.5 25.5t-25.5 61.5q0 35 25.5 60.5t61.5 25.5q35 0 60.5 -25.5t25.5 -60.5zM874 925q0 -36 -25 -61.5t-61 -25.5q-35 0 -60.5 25.5t-25.5 61.5q0 35 25.5 60.5t60.5 25.5q36 0 61 -25.5t25 -60.5zM1436 0
q-87 0 -148 31q-83 43 -167 166q-83 -130 -176 -172q-57 -25 -166 -25h-230q-172 0 -301.5 130t-129.5 301q0 155 124 286t278 144v-172q-98 -11 -166 -83t-68 -170q0 -108 77.5 -186t185.5 -78h230q98 0 173 67t87 163h180q8 -92 66.5 -153.5t150.5 -74.5v-174z" />
    <glyph glyph-name="uFE97" unicode="&#x62a;" horiz-adv-x="559" arabic-form="initial" 
d="M429 1035q0 -35 -25 -60.5t-61 -25.5q-35 0 -60.5 25.5t-25.5 60.5t25.5 60.5t60.5 25.5q36 0 61 -25.5t25 -60.5zM176 1035q0 -35 -25 -60.5t-61 -25.5q-35 0 -60.5 25.5t-25.5 60.5t25.5 60.5t60.5 25.5q36 0 61 -25.5t25 -60.5zM381 430q0 -166 -116 -293
q-120 -130 -284 -130v167q95 10 161.5 85t66.5 171v201h172v-201z" />
    <glyph glyph-name="uFE98" unicode="&#x62a;" horiz-adv-x="589" arabic-form="medial" 
d="M429 1035q0 -35 -25 -60.5t-61 -25.5q-35 0 -60.5 25.5t-25.5 60.5t25.5 60.5t60.5 25.5q36 0 61 -25.5t25 -60.5zM176 1035q0 -35 -25 -60.5t-61 -25.5q-35 0 -60.5 25.5t-25.5 60.5t25.5 60.5t60.5 25.5q36 0 61 -25.5t25 -60.5zM609 0q-87 0 -147 31q-83 43 -168 166
q-82 -124 -165 -167q-58 -30 -148 -30v175q95 11 161.5 85.5t66.5 170.5v201h172v-201q0 -93 67.5 -167.5t160.5 -88.5v-175z" />
    <glyph glyph-name="uFE9A" unicode="&#x62b;" horiz-adv-x="1423" arabic-form="final" 
d="M989 1148q0 -36 -25 -61.5t-61 -25.5q-35 0 -60.5 25.5t-25.5 61.5q0 35 25.5 60.5t60.5 25.5q36 0 61 -25.5t25 -60.5zM1118 920q0 -35 -25.5 -60.5t-60.5 -25.5t-60.5 25.5t-25.5 60.5t25.5 60.5t60.5 25.5t60.5 -25.5t25.5 -60.5zM865 920q0 -35 -25.5 -60.5
t-60.5 -25.5t-60.5 25.5t-25.5 60.5t25.5 60.5t60.5 25.5t60.5 -25.5t25.5 -60.5zM1436 0q-87 0 -148 31q-83 43 -167 166q-83 -130 -176 -172q-57 -25 -166 -25h-230q-172 0 -301.5 130t-129.5 301q0 155 124 286t278 144v-172q-98 -11 -166 -83t-68 -170q0 -108 77.5 -186
t185.5 -78h230q98 0 173 67t87 163h180q8 -92 66.5 -153.5t150.5 -74.5v-174z" />
    <glyph glyph-name="uFE9B" unicode="&#x62b;" horiz-adv-x="553" arabic-form="initial" 
d="M294 1263q0 -36 -25.5 -61.5t-60.5 -25.5q-36 0 -61 25.5t-25 61.5q0 35 25 60.5t61 25.5q35 0 60.5 -25.5t25.5 -60.5zM423 1035q0 -35 -25.5 -60.5t-60.5 -25.5q-36 0 -61.5 25.5t-25.5 60.5t25.5 60.5t61.5 25.5q35 0 60.5 -25.5t25.5 -60.5zM170 1035
q0 -35 -25.5 -60.5t-60.5 -25.5q-36 0 -61.5 25.5t-25.5 60.5t25.5 60.5t61.5 25.5q35 0 60.5 -25.5t25.5 -60.5zM375 430q0 -166 -117 -293q-119 -130 -284 -130v167q95 10 161.5 85t66.5 171v201h173v-201z" />
    <glyph glyph-name="uFE9C" unicode="&#x62b;" horiz-adv-x="589" arabic-form="medial" 
d="M301 1263q0 -36 -25.5 -61.5t-61.5 -25.5q-35 0 -60.5 25.5t-25.5 61.5q0 35 25.5 60.5t60.5 25.5q36 0 61.5 -25.5t25.5 -60.5zM429 1035q0 -35 -25 -60.5t-61 -25.5q-35 0 -60.5 25.5t-25.5 60.5t25.5 60.5t60.5 25.5q36 0 61 -25.5t25 -60.5zM176 1035
q0 -35 -25 -60.5t-61 -25.5q-35 0 -60.5 25.5t-25.5 60.5t25.5 60.5t60.5 25.5q36 0 61 -25.5t25 -60.5zM609 0q-87 0 -147 31q-83 43 -168 166q-82 -124 -165 -167q-58 -30 -148 -30v175q95 11 161.5 85.5t66.5 170.5v201h172v-201q0 -93 67.5 -167.5t160.5 -88.5v-175z
" />
    <glyph glyph-name="uFE9E" unicode="&#x62c;" horiz-adv-x="970" arabic-form="final" 
d="M980 0h-431q-104 0 -181.5 -76t-77.5 -180q0 -88 77 -171q82 -88 185 -88t173.5 63t81.5 165h172q-14 -155 -145 -278.5t-285 -123.5q-172 0 -301.5 129.5t-129.5 300.5q0 164 133.5 297.5t297.5 133.5h259q0 109 -76 197q-80 91 -186 91q-104 0 -173 -63.5t-82 -166.5
h-172q14 156 144 280t286 124q171 0 301 -131t130 -302v-201zM635 -236q0 -35 -25.5 -60.5t-60.5 -25.5t-60.5 25.5t-25.5 60.5q0 36 25.5 61.5t60.5 25.5t60.5 -25.5t25.5 -61.5z" />
    <glyph glyph-name="uFE9F" unicode="&#x62c;" horiz-adv-x="1011" arabic-form="initial" 
d="M881 431q0 -164 -133.5 -297.5t-297.5 -133.5h-477v172h477q103 0 181 77t78 180q0 87 -77 170q-82 89 -185 89q-102 0 -171 -63.5t-79 -164.5h-177q14 155 144.5 278t285.5 123q170 0 300.5 -130t130.5 -300zM418 -236q0 -35 -25.5 -60.5t-60.5 -25.5q-36 0 -61.5 25.5
t-25.5 60.5q0 36 25.5 61.5t61.5 25.5q35 0 60.5 -25.5t25.5 -61.5z" />
    <glyph glyph-name="uFEA0" unicode="&#x62c;" horiz-adv-x="1084" arabic-form="medial" 
d="M1098 0q-87 0 -147 31q-83 43 -168 166q-83 -130 -176 -172q-57 -25 -166 -25h-466v172h466q105 0 183.5 77.5t78.5 181.5q0 87 -77 170q-82 89 -185 89t-172 -63.5t-82 -166.5h-172q13 156 143.5 280t286.5 124q167 0 299 -132t132 -298q0 -103 60.5 -175.5t161.5 -83.5
v-175zM434 -236q0 -35 -25.5 -60.5t-60.5 -25.5t-60.5 25.5t-25.5 60.5q0 36 25.5 61.5t60.5 25.5t60.5 -25.5t25.5 -61.5z" />
    <glyph glyph-name="uFEA2" unicode="&#x62d;" horiz-adv-x="969" arabic-form="final" 
d="M980 0h-431q-104 0 -181.5 -76t-77.5 -180q0 -88 77 -171q82 -88 185 -88t173.5 63t81.5 165h172q-14 -155 -145 -278.5t-285 -123.5q-172 0 -301.5 129.5t-129.5 300.5q0 164 133.5 297.5t297.5 133.5h259q0 109 -76 197q-80 91 -186 91q-104 0 -173 -63.5t-82 -166.5
h-172q14 156 144 280t286 124q171 0 301 -131t130 -302v-201z" />
    <glyph glyph-name="uFEA3" unicode="&#x62d;" horiz-adv-x="1011" arabic-form="initial" 
d="M881 431q0 -164 -133.5 -297.5t-297.5 -133.5h-470v172h470q103 0 181 77t78 180q0 87 -77 170q-82 89 -185 89q-102 0 -171 -63.5t-79 -164.5h-177q14 155 144.5 278t285.5 123q170 0 300.5 -130t130.5 -300z" />
    <glyph glyph-name="uFEA4" unicode="&#x62d;" horiz-adv-x="1091" arabic-form="medial" 
d="M1105 0q-87 0 -148 31q-83 43 -168 166q-83 -130 -176 -172q-56 -25 -165 -25h-466v172h466q104 0 183 77.5t79 181.5q0 87 -77 170q-82 89 -185 89q-104 0 -173 -63.5t-81 -166.5h-173q14 156 144 280t286 124q167 0 299.5 -132t132.5 -298q0 -103 60.5 -175.5
t161.5 -83.5v-175z" />
    <glyph glyph-name="uFEA6" unicode="&#x62e;" horiz-adv-x="969" arabic-form="final" 
d="M540 946q-39 0 -64.5 27t-25.5 65q0 39 26.5 64.5t65.5 25.5q38 0 64 -27t26 -65t-27 -64t-65 -26zM980 0h-431q-104 0 -181.5 -76t-77.5 -180q0 -88 77 -171q82 -88 185 -88t173.5 63t81.5 165h172q-14 -155 -145 -278.5t-285 -123.5q-172 0 -301.5 129.5t-129.5 300.5
q0 164 133.5 297.5t297.5 133.5h259q0 109 -76 197q-80 91 -186 91q-104 0 -173 -63.5t-82 -166.5h-172q14 156 144 280t286 124q171 0 301 -131t130 -302v-201z" />
    <glyph glyph-name="uFEA7" unicode="&#x62e;" horiz-adv-x="1011" arabic-form="initial" 
d="M438 1165q-39 0 -64.5 26.5t-25.5 65.5t26.5 64.5t65.5 25.5q38 0 64 -27t26 -65t-27 -64t-65 -26zM881 431q0 -164 -133.5 -297.5t-297.5 -133.5h-472v172h472q103 0 181 77t78 180q0 87 -77 170q-82 89 -185 89q-102 0 -171 -63.5t-79 -164.5h-177q14 155 144.5 278
t285.5 123q170 0 300.5 -130t130.5 -300z" />
    <glyph glyph-name="uFEA8" unicode="&#x62e;" horiz-adv-x="1078" arabic-form="medial" 
d="M431 1165q-39 0 -64.5 26.5t-25.5 65.5t26.5 64.5t65.5 25.5q38 0 64 -27t26 -65t-27 -64t-65 -26zM1098 0q-87 0 -147 31q-83 43 -168 166q-83 -130 -176 -172q-57 -25 -166 -25h-466v172h466q105 0 183.5 77.5t78.5 181.5q0 87 -77 170q-82 89 -185 89t-172 -63.5
t-82 -166.5h-172q13 156 143.5 280t286.5 124q167 0 299 -132t132 -298q0 -103 60.5 -175.5t161.5 -83.5v-175z" />
    <glyph glyph-name="uFEAA" unicode="&#x62f;" horiz-adv-x="948" arabic-form="final" 
d="M976 0q-87 0 -148 31q-83 43 -167 166q-83 -130 -176 -172q-57 -25 -166 -25h-201v172h201q104 0 183 77.5t79 181.5q0 87 -77 170q-81 88 -185 89l-201 1v173h204q167 0 299.5 -132t132.5 -298q0 -103 60.5 -175.5t161.5 -83.5v-175z" />
    <glyph glyph-name="uFEAC" unicode="&#x630;" horiz-adv-x="987" arabic-form="final" 
d="M207 1165q-38 0 -63.5 26.5t-25.5 65.5t26.5 64.5t65.5 25.5q38 0 63.5 -27t25.5 -65t-26.5 -64t-65.5 -26zM1015 0q-87 0 -147 31q-84 43 -168 166q-83 -130 -176 -172q-57 -25 -166 -25h-201v172h201q105 0 183.5 77.5t78.5 181.5q0 87 -77 170q-82 89 -185 89h-182
q-2 0 -19 1v173h205q166 0 298.5 -132t132.5 -298q0 -103 60.5 -175.5t161.5 -83.5v-175z" />
    <glyph glyph-name="uFEAE" unicode="&#x631;" horiz-adv-x="929" arabic-form="final" 
d="M952 0q-61 0 -122 21q-79 27 -117 76v-356q0 -167 -135 -302t-302 -135q-152 0 -276 121l112 135q81 -72 164 -72q104 0 179.5 74.5t75.5 178.5v901h182v-205q0 -81 66 -167q73 -95 173 -95v-175z" />
    <glyph glyph-name="uFEB0" unicode="&#x632;" horiz-adv-x="929" arabic-form="final" 
d="M687 1084q0 -39 -26.5 -64.5t-64.5 -25.5q-40 0 -65.5 26t-25.5 64q0 39 26 65t65 26q38 0 64.5 -26t26.5 -65zM952 0q-61 0 -122 21q-79 27 -117 76v-356q0 -167 -135 -302t-302 -135q-152 0 -276 121l112 135q81 -72 164 -72q104 0 179.5 74.5t75.5 178.5v901h182v-205
q0 -81 66 -167q73 -95 173 -95v-175z" />
    <glyph glyph-name="uFEB2" unicode="&#x633;" horiz-adv-x="2570" arabic-form="final" 
d="M2587 0q-87 0 -147 31q-84 43 -168 166q-128 -197 -356 -197q-83 0 -143 24q-109 44 -198 173q-131 -197 -342 -197q-62 0 -102 15q-72 27 -154 113v-157q0 -164 -132.5 -297.5t-296.5 -133.5q-172 0 -301 129.5t-129 301.5q0 156 122.5 285.5t278.5 143.5v-171
q-100 -11 -164 -82t-64 -172q0 -95 82 -178.5t177 -83.5q104 0 180.5 77t76.5 181v661h170v-201q0 -100 78 -179.5t178 -79.5q105 0 184.5 77.5t79.5 181.5v201h172v-201q0 -98 74 -177q76 -82 173 -82q105 0 188 77.5t83 181.5v201h172v-201q0 -93 67.5 -167.5t160.5 -88.5
v-175z" />
    <glyph glyph-name="uFEB3" unicode="&#x633;" horiz-adv-x="1875" arabic-form="initial" 
d="M1745 434q0 -172 -129.5 -303t-301.5 -131q-84 0 -144 24q-108 44 -197 173q-131 -197 -342 -197q-81 0 -143 24q-115 45 -201 173q-81 -124 -164 -167q-58 -30 -149 -30v175q96 11 163 85.5t67 170.5v201h171v-201q0 -100 78 -179.5t178 -79.5q105 0 184 77.5t79 181.5
v201h173v-201q0 -98 74 -177q76 -82 173 -82q104 0 180.5 77.5t76.5 181.5q0 100 -59 170t-158 83v173q160 0 278 -133q113 -129 113 -290z" />
    <glyph glyph-name="uFEB4" unicode="&#x633;" horiz-adv-x="1926" arabic-form="medial" 
d="M1971 0q-86 0 -147 31q-83 43 -168 166q-130 -197 -341 -197q-84 0 -144 24q-108 44 -198 173q-130 -197 -341 -197q-81 0 -143 24q-115 45 -201 173q-82 -124 -165 -167q-58 -30 -148 -30v175q95 11 162.5 85.5t67.5 170.5v201h170v-201q0 -100 78.5 -179.5t178.5 -79.5
q104 0 183.5 77.5t79.5 181.5v201h172v-201q0 -98 75 -177q75 -82 173 -82q104 0 180 77.5t76 181.5v201h173v-201q0 -93 67 -167.5t160 -88.5v-175z" />
    <glyph glyph-name="uFEB6" unicode="&#x634;" horiz-adv-x="2565" arabic-form="final" 
d="M1623 1276q0 -35 -25.5 -60.5t-60.5 -25.5t-60.5 25.5t-25.5 60.5q0 36 25.5 61.5t60.5 25.5t60.5 -25.5t25.5 -61.5zM1750 1035q0 -35 -25.5 -60.5t-61.5 -25.5q-35 0 -60.5 25.5t-25.5 60.5t25.5 60.5t60.5 25.5q36 0 61.5 -25.5t25.5 -60.5zM1497 1035
q0 -35 -25.5 -60.5t-61.5 -25.5q-35 0 -60.5 25.5t-25.5 60.5t25.5 60.5t60.5 25.5q36 0 61.5 -25.5t25.5 -60.5zM2587 0q-87 0 -147 31q-84 43 -168 166q-128 -197 -356 -197q-83 0 -143 24q-109 44 -198 173q-131 -197 -342 -197q-62 0 -102 15q-72 27 -154 113v-157
q0 -164 -132.5 -297.5t-296.5 -133.5q-172 0 -301 129.5t-129 301.5q0 156 122.5 285.5t278.5 143.5v-171q-100 -11 -164 -82t-64 -172q0 -95 82 -178.5t177 -83.5q104 0 180.5 77t76.5 181v661h170v-201q0 -100 78 -179.5t178 -79.5q105 0 184.5 77.5t79.5 181.5v201h172
v-201q0 -98 74 -177q76 -82 173 -82q105 0 188 77.5t83 181.5v201h172v-201q0 -93 67.5 -167.5t160.5 -88.5v-175z" />
    <glyph glyph-name="uFEB7" unicode="&#x634;" horiz-adv-x="1873" arabic-form="initial" 
d="M984 1265q0 -35 -25.5 -60.5t-60.5 -25.5q-36 0 -61 25.5t-25 60.5t25 60.5t61 25.5q35 0 60.5 -25.5t25.5 -60.5zM1111 1023q0 -35 -25.5 -60.5t-61.5 -25.5q-35 0 -60.5 25.5t-25.5 60.5q0 36 25.5 61.5t60.5 25.5q36 0 61.5 -25.5t25.5 -61.5zM858 1023
q0 -35 -25.5 -60.5t-61.5 -25.5q-35 0 -60.5 25.5t-25.5 60.5q0 36 25.5 61.5t60.5 25.5q36 0 61.5 -25.5t25.5 -61.5zM1743 434q0 -172 -130 -303t-301 -131q-84 0 -144 24q-108 44 -198 173q-130 -197 -341 -197q-81 0 -143 24q-115 45 -201 173q-82 -124 -165 -167
q-58 -30 -148 -30v175q95 11 162.5 85.5t67.5 170.5v201h170v-201q0 -100 78.5 -179.5t178.5 -79.5q104 0 183.5 77.5t79.5 181.5v201h173v-201q0 -98 74 -177q75 -82 173 -82q103 0 179.5 77.5t76.5 181.5q0 100 -58.5 170t-157.5 83v173q160 0 278 -133q113 -129 113 -290
z" />
    <glyph glyph-name="uFEB8" unicode="&#x634;" horiz-adv-x="1950" arabic-form="medial" 
d="M1038 1276q0 -35 -25.5 -60.5t-60.5 -25.5q-36 0 -61.5 25.5t-25.5 60.5q0 36 25.5 61.5t61.5 25.5q35 0 60.5 -25.5t25.5 -61.5zM1164 1035q0 -35 -25.5 -60.5t-60.5 -25.5t-60.5 25.5t-25.5 60.5t25.5 60.5t60.5 25.5t60.5 -25.5t25.5 -60.5zM911 1035
q0 -35 -25.5 -60.5t-60.5 -25.5t-60.5 25.5t-25.5 60.5t25.5 60.5t60.5 25.5t60.5 -25.5t25.5 -60.5zM1976 0q-86 0 -147 31q-83 43 -168 166q-130 -197 -341 -197q-84 0 -144 24q-109 44 -198 173q-130 -197 -342 -197q-80 0 -142 24q-115 45 -201 173q-82 -124 -165 -167
q-58 -30 -148 -30v175q95 11 162.5 85.5t67.5 170.5v201h170v-201q0 -100 78 -179.5t178 -79.5q105 0 184.5 77.5t79.5 181.5v201h172v-201q0 -98 74 -177q76 -82 174 -82q104 0 180 77.5t76 181.5v201h173v-201q0 -93 67 -167.5t160 -88.5v-175z" />
    <glyph glyph-name="uFEBA" unicode="&#x635;" horiz-adv-x="2540" arabic-form="final" 
d="M2573 0q-99 0 -158 30q-87 44 -149 168q-102 -134 -189 -173q-56 -25 -154 -25h-690q-66 0 -106 21q-55 28 -150 140v-190q0 -164 -132.5 -297.5t-296.5 -133.5q-172 0 -301 129.5t-129 301.5q0 156 122.5 285.5t278.5 143.5v-171q-100 -11 -164 -82t-64 -172
q0 -95 82 -178.5t177 -83.5q104 0 180.5 77t76.5 181v661h170v-201q0 -109 89 -186q85 -73 196 -73v260q0 163 134.5 296.5t296.5 133.5h264q145 0 274 -157q123 -150 123 -299q0 -92 65 -158q62 -64 154 -74v-174zM2182 429q0 105 -76.5 181.5t-182.5 77.5l-230 2
q-105 1 -181.5 -77.5t-76.5 -184.5v-256h488q103 0 181 77t78 180z" />
    <glyph glyph-name="uFEBB" unicode="&#x635;" horiz-adv-x="1885" arabic-form="initial" 
d="M1755 434q0 -163 -134.5 -298.5t-297.5 -135.5h-690q-101 0 -158 24q-96 40 -186 173q-81 -124 -164 -167q-58 -30 -148 -30v175q95 11 161 85.5t66 170.5v201h173v-201q0 -109 89 -186q85 -73 196 -73v260q0 163 134.5 296.5t296.5 133.5h264q148 0 273 -139.5
t125 -288.5zM1584 429q0 105 -76.5 181.5t-181.5 77.5l-230 2q-106 1 -182.5 -77.5t-76.5 -184.5v-256h489q103 0 180.5 77t77.5 180z" />
    <glyph glyph-name="uFEBC" unicode="&#x635;" horiz-adv-x="1954" arabic-form="medial" 
d="M1982 0q-110 0 -158 24q-72 36 -153 173q-88 -131 -183 -173q-56 -24 -165 -24h-690q-104 0 -160 24q-93 41 -184 173q-81 -124 -164 -167q-58 -30 -148 -30v175q95 11 161 85.5t66 170.5v201h173v-201q0 -109 89 -186q85 -73 196 -73v260q0 163 134.5 296.5t296.5 133.5
h264q153 0 277 -139q121 -135 121 -289q0 -100 64.5 -172.5t162.5 -86.5v-175zM1584 429q0 105 -76.5 181.5t-181.5 77.5l-230 2q-106 1 -182.5 -77.5t-76.5 -184.5v-256h489q103 0 180.5 77t77.5 180z" />
    <glyph glyph-name="uFEBE" unicode="&#x636;" horiz-adv-x="2539" arabic-form="final" 
d="M1677 1165q-38 0 -63.5 26.5t-25.5 65.5t26.5 64.5t65.5 25.5q38 0 63.5 -27t25.5 -65t-26.5 -64t-65.5 -26zM2573 0q-99 0 -158 30q-87 44 -149 168q-102 -134 -189 -173q-56 -25 -154 -25h-690q-66 0 -106 21q-55 28 -150 140v-190q0 -164 -132.5 -297.5t-296.5 -133.5
q-172 0 -301 129.5t-129 301.5q0 156 122.5 285.5t278.5 143.5v-171q-100 -11 -164 -82t-64 -172q0 -95 82 -178.5t177 -83.5q104 0 180.5 77t76.5 181v661h170v-201q0 -109 89 -186q85 -73 196 -73v260q0 163 134.5 296.5t296.5 133.5h264q141 0 272 -158
q125 -153 125 -298q0 -92 65 -158q62 -64 154 -74v-174zM2182 429q0 105 -76.5 181.5t-182.5 77.5l-230 2q-105 1 -181.5 -77.5t-76.5 -184.5v-256h488q103 0 181 77t78 180z" />
    <glyph glyph-name="uFEBF" unicode="&#x636;" horiz-adv-x="1885" arabic-form="initial" 
d="M1136 1165q-39 0 -64.5 26.5t-25.5 65.5t26.5 64.5t65.5 25.5q38 0 64 -27t26 -65t-27 -64t-65 -26zM1755 434q0 -163 -134.5 -298.5t-297.5 -135.5h-690q-101 0 -158 24q-96 40 -186 173q-81 -124 -164 -167q-58 -30 -148 -30v175q95 11 161 85.5t66 170.5v201h173v-201
q0 -109 89 -186q85 -73 196 -73v260q0 163 134.5 296.5t296.5 133.5h264q148 0 273 -139.5t125 -288.5zM1584 429q0 105 -76.5 181.5t-181.5 77.5l-230 2q-106 1 -182.5 -77.5t-76.5 -184.5v-256h489q103 0 180.5 77t77.5 180z" />
    <glyph glyph-name="uFEC0" unicode="&#x636;" horiz-adv-x="1960" arabic-form="medial" 
d="M1088 1165q-39 0 -64.5 26.5t-25.5 65.5t27 64.5t65 25.5q39 0 64.5 -27t25.5 -65t-27 -64t-65 -26zM1982 0q-110 0 -158 24q-72 36 -153 173q-88 -131 -183 -173q-56 -24 -165 -24h-690q-104 0 -160 24q-93 41 -184 173q-81 -124 -164 -167q-58 -30 -148 -30v175
q95 11 161 85.5t66 170.5v201h173v-201q0 -109 89 -186q85 -73 196 -73v260q0 163 134.5 296.5t296.5 133.5h264q153 0 277 -139q121 -135 121 -289q0 -100 64.5 -172.5t162.5 -86.5v-175zM1584 429q0 105 -76.5 181.5t-181.5 77.5l-230 2q-106 1 -182.5 -77.5t-76.5 -184.5
v-256h489q103 0 180.5 77t77.5 180z" />
    <glyph glyph-name="uFEC2" unicode="&#x637;" horiz-adv-x="1633" arabic-form="final" 
d="M1675 1q-168 0 -315 216q-86 -133 -185 -183q-69 -34 -168 -34h-889v172h230v1148h172v-617q30 27 92 79q106 80 170 80h227q169 0 299 -129.5t130 -298.5q0 -99 69 -172t168 -87v-174zM1268 429q0 109 -75 183.5t-184 75.5l-230 2q-58 1 -164 -81q-46 -34 -95 -81v-356
h489q101 0 180 78.5t79 178.5z" />
    <glyph glyph-name="uFEC3" unicode="&#x637;" horiz-adv-x="1420" arabic-form="initial" 
d="M1290 434q0 -163 -134 -298.5t-297 -135.5h-889v172h230v1150h173v-614q58 48 101 77q112 77 161 77h226q164 0 296.5 -132.5t132.5 -295.5zM1120 429q0 105 -76.5 181.5t-182.5 77.5l-230 2q-57 1 -164 -81q-46 -34 -94 -81v-356h488q103 0 181 77t78 180z" />
    <glyph glyph-name="uFEC4" unicode="&#x637;" horiz-adv-x="1499" arabic-form="medial" 
d="M1535 1q-168 0 -315 216q-86 -133 -185 -183q-69 -34 -168 -34h-889v172h230v1148h172v-617q30 27 92 79q106 80 170 80h227q170 0 299.5 -129.5t129.5 -298.5q0 -99 69 -172t168 -87v-174zM1128 429q0 109 -75 183.5t-184 75.5l-230 2q-58 1 -164 -81q-46 -34 -95 -81
v-356h489q101 0 180 78.5t79 178.5z" />
    <glyph glyph-name="uFEC6" unicode="&#x638;" horiz-adv-x="1633" arabic-form="final" 
d="M993 1252q0 -39 -26 -65t-65 -26t-65 26.5t-26 64.5q0 39 26.5 65t64.5 26t64.5 -26t26.5 -65zM1675 1q-168 0 -315 216q-86 -133 -185 -183q-69 -34 -168 -34h-889v172h230v1148h172v-617q30 27 92 79q106 80 170 80h227q169 0 299 -129.5t130 -298.5q0 -99 69 -172
t168 -87v-174zM1268 429q0 109 -75 183.5t-184 75.5l-230 2q-58 1 -164 -81q-46 -34 -95 -81v-356h489q101 0 180 78.5t79 178.5z" />
    <glyph glyph-name="uFEC7" unicode="&#x638;" horiz-adv-x="1427" arabic-form="initial" 
d="M868 1252q0 -39 -26 -65t-65 -26t-65 26.5t-26 64.5q0 39 26.5 65t64.5 26t64.5 -26t26.5 -65zM1297 434q0 -163 -134.5 -298.5t-296.5 -135.5h-889v172h230v1150h172v-614q59 48 101 77q112 77 161 77h227q164 0 296.5 -132.5t132.5 -295.5zM1127 429q0 105 -77 181.5
t-182 77.5l-230 2q-58 1 -165 -81q-45 -34 -94 -81v-356h489q103 0 181 77t78 180z" />
    <glyph glyph-name="uFEC8" unicode="&#x638;" horiz-adv-x="1499" arabic-form="medial" 
d="M868 1252q0 -39 -26 -65t-65 -26t-65 26.5t-26 64.5q0 39 26.5 65t64.5 26t64.5 -26t26.5 -65zM1535 1q-168 0 -315 216q-86 -133 -185 -183q-69 -34 -168 -34h-889v172h230v1148h172v-617q30 27 92 79q106 80 170 80h227q170 0 299.5 -129.5t129.5 -298.5q0 -99 69 -172
t168 -87v-174zM1128 429q0 109 -75 183.5t-184 75.5l-230 2q-58 1 -164 -81q-46 -34 -95 -81v-356h489q101 0 180 78.5t79 178.5z" />
    <glyph glyph-name="uFECA" unicode="&#x639;" horiz-adv-x="1192" arabic-form="final" 
d="M1224 0q-86 0 -147 31q-83 43 -168 166q-85 -134 -166 -172q-53 -25 -176 -25q-110 0 -192 -74q-85 -76 -85 -185q0 -103 77.5 -179.5t181.5 -76.5q100 0 170 58.5t83 157.5h173q0 -160 -134 -278q-128 -113 -290 -113q-171 0 -302 130t-131 301q0 83 24 145
q44 113 176 199q-88 52 -139 142q-41 72 -47 141l-6 66q0 164 138.5 298.5t302.5 134.5q63 0 160 -36q110 -40 130 -87l-126 -106q-57 57 -164 57q-111 0 -190 -76t-79 -188q0 -123 74 -192q71 -67 195 -67q104 0 176.5 64t84.5 166h166q11 -91 81 -156q62 -58 149 -71v-175
z" />
    <glyph glyph-name="uFECB" unicode="&#x639;" horiz-adv-x="1048" arabic-form="initial" 
d="M918 734l-120 -102q-73 58 -164 58q-95 0 -178.5 -82t-83.5 -177q0 -104 79 -181.5t183 -77.5h203v-172h-203q-110 0 -165 24q-90 39 -175 173q-82 -123 -169 -167q-59 -30 -147 -30v175q100 11 161 84t61 175q0 168 131.5 299t299.5 131q146 0 287 -130z" />
    <glyph glyph-name="uFECC" unicode="&#x639;" horiz-adv-x="1269" arabic-form="medial" 
d="M1298 0q-87 0 -147 31q-83 43 -168 166q-85 -134 -166 -172q-53 -25 -176 -25q-128 0 -180 24q-80 37 -167 173q-82 -123 -169 -167q-59 -30 -147 -30v175q100 11 161 84t61 175q0 164 138 298.5t303 134.5q63 0 160 -36q110 -40 130 -87l-126 -106q-57 57 -164 57
q-111 0 -190 -76t-79 -188q0 -123 74 -192q71 -67 195 -67q104 0 176.5 64t84.5 166h166q11 -91 80 -156q63 -58 150 -71v-175z" />
    <glyph glyph-name="uFECE" unicode="&#x63a;" horiz-adv-x="1188" arabic-form="final" 
d="M649 1249q0 -39 -26 -65t-65 -26t-65 26t-26 65q0 38 26.5 64.5t64.5 26.5t64.5 -26.5t26.5 -64.5zM1224 0q-86 0 -147 31q-83 43 -168 166q-85 -134 -166 -172q-53 -25 -176 -25q-110 0 -192 -74q-85 -76 -85 -185q0 -103 77.5 -179.5t181.5 -76.5q100 0 170 58.5
t83 157.5h173q0 -160 -134 -278q-128 -113 -290 -113q-171 0 -302 130t-131 301q0 83 24 145q44 113 176 199q-88 52 -139 142q-41 72 -47 141l-6 66q0 164 138.5 298.5t302.5 134.5q63 0 160 -36q110 -40 130 -87l-126 -106q-57 57 -164 57q-111 0 -190 -76t-79 -188
q0 -123 74 -192q71 -67 195 -67q104 0 176.5 64t84.5 166h166q11 -91 81 -156q62 -58 149 -71v-175z" />
    <glyph glyph-name="uFECF" unicode="&#x63a;" horiz-adv-x="1048" arabic-form="initial" 
d="M734 1249q0 -39 -26 -65t-64 -26q-40 0 -65.5 26t-25.5 65q0 38 26 64.5t65 26.5q38 0 64 -26.5t26 -64.5zM918 734l-120 -102q-73 58 -164 58q-95 0 -178.5 -82t-83.5 -177q0 -104 79 -181.5t183 -77.5h203v-172h-203q-110 0 -165 24q-90 39 -175 173
q-82 -123 -169 -167q-59 -30 -147 -30v175q100 11 161 84t61 175q0 168 131.5 299t299.5 131q146 0 287 -130z" />
    <glyph glyph-name="uFED0" unicode="&#x63a;" horiz-adv-x="1261" arabic-form="medial" 
d="M757 1249q0 -39 -26 -65t-64 -26q-40 0 -65.5 26t-25.5 65q0 38 26 64.5t65 26.5q38 0 64 -26.5t26 -64.5zM1298 0q-87 0 -147 31q-83 43 -168 166q-85 -134 -166 -172q-53 -25 -176 -25q-128 0 -180 24q-80 37 -167 173q-82 -123 -169 -167q-59 -30 -147 -30v175
q100 11 161 84t61 175q0 164 138 298.5t303 134.5q63 0 160 -36q110 -40 130 -87l-126 -106q-57 57 -164 57q-111 0 -190 -76t-79 -188q0 -123 74 -192q71 -67 195 -67q104 0 176.5 64t84.5 166h166q11 -91 80 -156q63 -58 150 -71v-175z" />
    <glyph glyph-name="uFED2" unicode="&#x641;" horiz-adv-x="2081" arabic-form="final" 
d="M1560 1252q0 -39 -26 -65t-65 -26t-65 26.5t-26 64.5q0 39 26.5 65t64.5 26t64.5 -26t26.5 -65zM2126 0h-1579q-171 0 -300 129.5t-129 299.5q0 156 121 291q125 139 279 139v-171q-91 -12 -160.5 -90t-69.5 -169q0 -101 79 -179t180 -78h575q-53 67 -74 156
q-11 50 -11 103q0 164 132.5 296.5t296.5 132.5q162 0 295 -133.5t133 -295.5q0 -108 -42 -193q-15 -30 -43 -66h317v-172zM1727 431q0 103 -79 181t-182 78q-101 0 -179.5 -79t-78.5 -180q0 -96 80.5 -177.5t177.5 -81.5q83 0 167 75q94 83 94 184z" />
    <glyph glyph-name="uFED3" unicode="&#x641;" horiz-adv-x="1198" arabic-form="initial" 
d="M743 1252q0 -39 -26.5 -65t-64.5 -26q-40 0 -65.5 26.5t-25.5 64.5q0 39 26 65t65 26q38 0 64.5 -26t26.5 -65zM1068 435q0 -171 -129.5 -303t-299.5 -132h-665v172h376q-50 40 -72 67q-74 90 -74 192q0 164 133.5 296.5t296.5 132.5q164 0 299 -131t135 -294zM895 431
q0 100 -94 183q-86 76 -167 76q-100 0 -178.5 -79t-78.5 -180q0 -96 80.5 -177.5t176.5 -81.5q84 0 168 75q93 83 93 184z" />
    <glyph glyph-name="uFED4" unicode="&#x641;" horiz-adv-x="1261" arabic-form="medial" 
d="M740 1252q0 -37 -28 -64.5t-65 -27.5q-35 0 -60.5 27.5t-25.5 67.5q0 38 25 63t63 25t64.5 -26t26.5 -65zM1301 0h-1320v172h316q-29 38 -42 64q-43 85 -43 195q0 164 132.5 296.5t296.5 132.5q162 0 295.5 -133.5t133.5 -295.5q0 -114 -43 -199q-14 -28 -42 -60h316
v-172zM902 431q0 103 -79 181t-182 78q-101 0 -179.5 -79t-78.5 -180q0 -96 81 -177.5t177 -81.5q83 0 168 75q93 83 93 184z" />
    <glyph glyph-name="uFED6" unicode="&#x642;" horiz-adv-x="1748" arabic-form="final" 
d="M1366 1252q0 -39 -26 -65t-65 -26t-65 26.5t-26 64.5q0 39 26.5 65t64.5 26t64.5 -26t26.5 -65zM1074 1252q0 -39 -26 -65t-65 -26t-65 26.5t-26 64.5q0 39 26.5 65t64.5 26t64.5 -26t26.5 -65zM1786 0h-398q-47 -94 -108 -174q-75 -98 -142 -151q-91 -73 -233 -119
q-151 -49 -248 -49q-72 0 -154 22q-169 44 -257 136q-129 136 -128 298t124 292q114 121 276 138v-172q-93 -16 -159 -89q-71 -77 -71 -169q0 -96 77 -176q48 -50 182 -81q113 -26 241.5 1.5t231.5 104t166 188.5q-93 -24 -186 0q-71 18 -130.5 65t-88.5 107q-22 25 -42 65
q-17 36 -31 91q-12 52 -11 103q2 165 134 297t295 132q162 0 295 -133.5t133 -295.5q0 -106 -42 -193q-16 -32 -43 -66h317v-172zM1387 431q0 103 -79 181t-182 78q-96 0 -177.5 -78t-80.5 -181q0 -102 87 -183q83 -76 171 -76q87 1 167 75q94 86 94 184z" />
    <glyph glyph-name="uFED7" unicode="&#x642;" horiz-adv-x="1198" arabic-form="initial" 
d="M895 1250q0 -39 -26 -65t-64 -26q-40 0 -65.5 26t-25.5 65q0 38 26 64.5t65 26.5q38 0 64 -26.5t26 -64.5zM603 1250q0 -39 -26 -65t-64 -26q-40 0 -65.5 26t-25.5 65q0 38 26 64.5t65 26.5q38 0 64 -26.5t26 -64.5zM1068 435q0 -171 -129.5 -303t-299.5 -132h-665v172
h376q-50 40 -72 67q-74 90 -74 192q0 164 133.5 296.5t296.5 132.5q164 0 299 -131t135 -294zM895 431q0 100 -94 183q-86 76 -167 76q-100 0 -178.5 -79t-78.5 -180q0 -96 80.5 -177.5t176.5 -81.5q84 0 168 75q93 83 93 184z" />
    <glyph glyph-name="uFED8" unicode="&#x642;" horiz-adv-x="1249" arabic-form="medial" 
d="M886 1250q0 -39 -26 -65t-65 -26t-64.5 26t-25.5 65q0 38 26 64.5t64 26.5q39 0 65 -26.5t26 -64.5zM594 1250q0 -39 -26 -65t-65 -26t-65 26t-26 65q0 38 26.5 64.5t64.5 26.5q39 0 65 -26.5t26 -64.5zM1295 0h-1321v172h317q-30 38 -43 64q-43 85 -43 195
q0 164 133 296.5t296 132.5t296 -133.5t133 -295.5q0 -114 -42 -199q-14 -28 -43 -60h317v-172zM895 431q0 103 -78.5 181t-182.5 78q-100 0 -178.5 -79t-78.5 -180q0 -96 80.5 -177.5t176.5 -81.5q84 0 168 75q93 83 93 184z" />
    <glyph glyph-name="uFEDE" unicode="&#x644;" horiz-adv-x="1187" arabic-form="final" 
d="M1205 0q-50 0 -95 23q-61 32 -133 105v-157q0 -164 -132.5 -297.5t-296.5 -133.5q-172 0 -301 129.5t-129 301.5q0 158 124 287q121 126 279 142v-171q-100 -10 -165 -82t-65 -172q0 -95 82 -178.5t177 -83.5q104 0 180.5 77t76.5 181v1358h170v-898q0 -75 76.5 -160.5
t151.5 -95.5v-175z" />
    <glyph glyph-name="uFEDF" unicode="&#x644;" horiz-adv-x="511" arabic-form="initial" 
d="M381 430q0 -156 -122 -286t-278 -144v174q95 10 161.5 85t66.5 171v891h172v-891z" />
    <glyph glyph-name="uFEE0" unicode="&#x644;" horiz-adv-x="597" arabic-form="medial" 
d="M616 0q-87 0 -148 31q-83 43 -168 166q-81 -124 -164 -167q-58 -30 -148 -30v175q95 11 161 85.5t66 170.5v894h173v-894q0 -93 67 -167.5t161 -88.5v-175z" />
    <glyph glyph-name="uFEE2" unicode="&#x645;" horiz-adv-x="1858" arabic-form="final" 
d="M1898 0q-87 0 -147 31q-83 43 -168 166q-76 -122 -160 -165q-64 -32 -182 -32q-120 0 -185 31q-86 41 -162 166q-86 -128 -190 -172q-60 -25 -155 -25q-105 0 -182 -76.5t-77 -182.5q0 -96 67 -170t163 -85v-173q-163 0 -284 135q-118 131 -118 296q0 162 134 295
t297 133q111 0 181 75t70 187q0 168 131.5 299t299.5 131q171 0 307 -129q138 -132 138 -301q0 -103 60.5 -175.5t161.5 -83.5v-175zM1504 431q0 87 -78 170q-82 89 -185 89q-95 0 -182 -82t-87 -177q0 -104 79 -181.5t183 -77.5q106 0 188 77t82 182z" />
    <glyph glyph-name="uFEE3" unicode="&#x645;" horiz-adv-x="1213" arabic-form="initial" 
d="M1083 431q0 -164 -135 -297.5t-300 -133.5q-113 0 -169 24q-93 40 -178 173q-82 -123 -169 -167q-59 -30 -148 -30v175q100 11 161 84t61 175q0 168 132 299t300 131q170 0 307.5 -131.5t137.5 -301.5zM910 431q0 87 -77 170q-82 89 -185 89q-95 0 -182 -82t-87 -177
q0 -104 79 -181.5t183 -77.5q106 0 187.5 77t81.5 182z" />
    <glyph glyph-name="uFEE4" unicode="&#x645;" horiz-adv-x="1277" arabic-form="medial" 
d="M1307 0q-87 0 -148 31q-83 43 -167 166q-135 -197 -342 -197q-106 0 -175 33q-91 44 -172 164q-82 -123 -169 -167q-59 -30 -148 -30v175q100 11 161 84t61 175q0 168 132 299t300 131q179 0 315 -140q130 -133 130 -290q0 -103 60.5 -175.5t161.5 -83.5v-175zM910 428
q0 143 -120 221q-64 41 -141 41q-144 0 -220 -120q-41 -65 -41 -140q0 -141 119 -220q64 -41 142 -41q65 0 124 31q137 71 137 228z" />
    <glyph glyph-name="uFEE6" unicode="&#x646;" horiz-adv-x="1177" arabic-form="final" 
d="M739 791q0 -35 -25.5 -60.5t-60.5 -25.5q-36 0 -61.5 25.5t-25.5 60.5q0 36 25.5 61t61.5 25q35 0 60.5 -25t25.5 -61zM1205 0q-50 0 -95 23q-61 32 -133 105v-157q0 -164 -132.5 -297.5t-296.5 -133.5q-172 0 -301 129.5t-129 301.5q0 158 124 287q121 126 279 142v-171
q-100 -10 -165 -82t-65 -172q0 -95 82 -178.5t177 -83.5q104 0 180.5 77t76.5 181v431h172q0 -69 79 -144q75 -72 147 -83v-175z" />
    <glyph glyph-name="uFEE7" unicode="&#x646;" horiz-adv-x="511" arabic-form="initial" 
d="M243 1028q0 -35 -25.5 -60.5t-60.5 -25.5t-60.5 25.5t-25.5 60.5t25.5 60.5t60.5 25.5t60.5 -25.5t25.5 -60.5zM381 430q0 -166 -116 -296q-120 -134 -284 -134v174q95 0 163 82q65 77 65 174v201h172v-201z" />
    <glyph glyph-name="uFEE8" unicode="&#x646;" horiz-adv-x="578" arabic-form="medial" 
d="M250 1033q0 -36 -25.5 -61.5t-60.5 -25.5q-36 0 -61 25.5t-25 61.5q0 35 25.5 60.5t60.5 25.5t60.5 -25.5t25.5 -60.5zM610 0q-87 0 -147 31q-83 43 -168 166q-82 -124 -165 -167q-57 -30 -148 -30v175q95 11 161.5 85.5t66.5 170.5v201h172v-201q0 -93 67.5 -167.5
t160.5 -88.5v-175z" />
    <glyph glyph-name="uFEEA" unicode="&#x647;" horiz-adv-x="1178" arabic-form="final" 
d="M1216 0q-87 0 -147 31q-83 43 -168 166q-84 -131 -178 -172q-59 -25 -171 -25q-164 0 -299 135t-135 299q0 158 130 290q136 140 315 140q167 0 299 -132t132 -298q0 -103 60.5 -175.5t161.5 -83.5v-175zM822 431q0 87 -81 169q-87 90 -189 90q-95 0 -178.5 -82
t-83.5 -177q0 -104 82 -181.5t187 -77.5t184 77.5t79 181.5z" />
    <glyph glyph-name="uFEEB" unicode="&#x647;" horiz-adv-x="1619" arabic-form="initial" 
d="M1489 431q0 -164 -133.5 -297.5t-297.5 -133.5h-1084v172h331q0 163 99 286q97 120 256 161q55 106 166.5 174t231.5 68q170 0 300.5 -130t130.5 -300zM1317 429q0 87 -77 170q-82 89 -185 89q-109 0 -217 -72q327 -130 327 -395q65 0 111 72q41 63 41 136zM995 175
q0 115 -70 199q-74 88 -187 88q-106 0 -184 -91q-74 -88 -74 -196h515z" />
    <glyph glyph-name="uFEEC" unicode="&#x647;" horiz-adv-x="1245" arabic-form="medial" 
d="M1287 0h-216q0 -182 -125 -319q-129 -141 -309 -141t-306 142q-123 136 -123 318h-239v172h239q0 191 135 325q129 129 299 129q178 0 305 -139q124 -135 124 -315h216v-172zM898 172q0 116 -70 199q-73 89 -186 89q-107 0 -185 -92q-74 -87 -74 -196h515zM898 0h-515
q0 -114 79 -202t180 -88q115 0 188 89q68 84 68 201z" />
    <glyph glyph-name="uFEEE" unicode="&#x648;" horiz-adv-x="1183" arabic-form="final" 
d="M1203 0q-102 0 -225 129v-393q0 -165 -132.5 -298.5t-296.5 -133.5q-74 0 -160 41q-71 33 -111 73l105 127q81 -68 166 -68q104 0 180 77t76 182v393q-42 -42 -73 -65q-91 -64 -185 -64q-164 0 -296.5 132.5t-132.5 296.5q0 163 131 298t294 135q171 0 303 -129t132 -299
q0 -74 76 -165q78 -95 149 -95v-174zM805 429q0 83 -74 168q-83 93 -184 93q-100 0 -183 -94q-76 -87 -76 -167q0 -101 79 -179.5t180 -78.5q98 0 178 80t80 178z" />
    <glyph glyph-name="uFEF0" unicode="&#x649;" horiz-adv-x="1567" arabic-form="final" 
d="M1596 0q-106 0 -228 128v-194q0 -163 -132.5 -285.5t-296.5 -122.5h-391q-172 0 -301 129.5t-129 301.5q0 158 124 287q121 126 279 142v-171q-100 -10 -165 -81.5t-65 -172.5q0 -95 82 -178.5t177 -83.5h391q107 0 180 63q77 67 77 172v468h171q0 -100 64 -161
q61 -59 163 -67v-174z" />
    <glyph glyph-name=".notdef" horiz-adv-x="1024" 
d="M128 0v1248h768v-1248h-768zM256 128h512v992h-512v-992z" />
    <glyph glyph-name=".null" 
 />
    <glyph glyph-name="nonmarkingreturn" horiz-adv-x="575" 
 />
    <glyph glyph-name="space" unicode=" " horiz-adv-x="575" 
 />
    <glyph glyph-name="exclam" unicode="!" horiz-adv-x="462" 
d="M314 345h-174v966h174v-966zM323 97q0 -39 -27.5 -68t-67.5 -29t-69 27.5t-29 69.5q0 38 29 67t68 29q38 0 67 -29t29 -67z" />
    <glyph glyph-name="percent" unicode="%" horiz-adv-x="1088" 
d="M335 1473q0 -38 -27.5 -67t-68.5 -29q-40 0 -69 27t-29 69q0 39 29 68t68 29t68 -29t29 -68zM891 1536l-547 -1351l-162 59l547 1351zM949 279q0 -38 -27.5 -67t-68.5 -29q-39 0 -68 27.5t-29 68.5q0 39 28.5 68t67.5 29t68 -29t29 -68z" />
    <glyph glyph-name="parenleft" unicode="(" horiz-adv-x="1180" 
d="M995 -201q-356 0 -611 268q-251 264 -251 621q0 368 246 627q249 263 616 263v-167q-289 0 -492 -217q-199 -212 -199 -503q0 -289 200 -502q203 -217 491 -217v-173z" />
    <glyph glyph-name="parenright" unicode=")" horiz-adv-x="1180" 
d="M1028 688q0 -359 -250 -622q-255 -267 -611 -267v173q286 0 490 218q201 213 201 501q0 293 -198 505q-202 215 -493 215v167q365 0 615 -264q246 -259 246 -626z" />
    <glyph glyph-name="asterisk" unicode="*" horiz-adv-x="782" 
d="M662 952q8 -42 -64 -47l-77 -6v53q0 96 38 96l9 -2q79 -9 94 -94zM476 1066q1 -22 -42 -68l-44 -46l-38 45q-40 48 -40 69q0 16 16 25q37 22 66 22q18 0 34 -6q47 -9 48 -41zM712 707q-10 -15 -27 -16q-19 0 -51 27l-61 51l61 57q32 30 53 30q15 0 25 -15q22 -32 22 -67
q0 -34 -22 -67zM667 593q-13 -79 -94 -94q-43 -8 -49 64l-5 79h35q57 0 89 -10q29 -8 24 -39zM262 898l-94 8q-50 4 -50 37l2 9q9 79 93 94q49 10 49 -115v-33zM210 769l-47 -40q-44 -38 -66 -38q-17 0 -27 16q-22 37 -22 67q0 31 22 67q11 14 25 15q24 0 69 -43zM461 450
q-30 -22 -67 -22q-33 0 -66 22q-16 10 -16 26q-1 21 26 53l52 60l56 -62q30 -33 30 -52q0 -15 -15 -25zM263 642q0 -8 -9 -100q-10 -49 -45 -43q-80 14 -94 94q-4 24 17 36.5t93 12.5h38zM522 768l-17 7z" />
    <glyph glyph-name="plus" unicode="+" horiz-adv-x="1360" 
d="M1206 644h-461v-465h-132v465h-468v131h468v472h132v-472h461v-131z" />
    <glyph glyph-name="comma" unicode="," horiz-adv-x="358" 
d="M282 282q0 -94 -65 -180q-18 -25 -53 -59l-21 -22l-26 -21v38q-2 11 -2 16q0 25 -13 45q73 40 73 126q-67 19 -67 82q0 34 24.5 56.5t58.5 22.5q91 0 91 -104z" />
    <glyph glyph-name="hyphen" unicode="-" horiz-adv-x="1088" 
d="M966 514h-851v107h851v-107z" />
    <glyph glyph-name="period" unicode="." horiz-adv-x="477" 
d="M313 252q0 -30 -22 -52.5t-52 -22.5q-29 0 -52.5 21.5t-23.5 53.5q0 29 23 52t52 23t52 -23t23 -52z" />
    <glyph glyph-name="slash" unicode="/" horiz-adv-x="869" 
d="M758 1299l-453 -1242l-160 57l448 1245z" />
    <glyph glyph-name="zero" unicode="0" horiz-adv-x="724" 
d="M420 499q-38 -16 -82 -16q-86 0 -144 55q-32 30 -48.5 70t-16.5 84q0 86 56 145q60 65 153 65q86 0 145 -57q64 -62 64 -153q0 -138 -127 -193z" />
    <glyph glyph-name="zero" unicode="&#x6f0;" horiz-adv-x="724" 
d="M420 499q-38 -16 -82 -16q-86 0 -144 55q-32 30 -48.5 70t-16.5 84q0 86 56 145q60 65 153 65q86 0 145 -57q64 -62 64 -153q0 -138 -127 -193z" />
    <glyph glyph-name="zero" unicode="&#x660;" horiz-adv-x="724" 
d="M420 499q-38 -16 -82 -16q-86 0 -144 55q-32 30 -48.5 70t-16.5 84q0 86 56 145q60 65 153 65q86 0 145 -57q64 -62 64 -153q0 -138 -127 -193z" />
    <glyph glyph-name="one" unicode="1" horiz-adv-x="462" 
d="M314 0h-174v1322h174v-1322z" />
    <glyph glyph-name="one" unicode="&#x6f1;" horiz-adv-x="462" 
d="M314 0h-174v1322h174v-1322z" />
    <glyph glyph-name="one" unicode="&#x661;" horiz-adv-x="462" 
d="M314 0h-174v1322h174v-1322z" />
    <glyph glyph-name="two" unicode="2" horiz-adv-x="1020" 
d="M915 1320q-23 -166 -143 -279q-69 -66 -102 -86q-57 -34 -123 -31q-39 2 -88 21q-73 28 -129 89v-597q0 -103 64 -176.5t166 -88.5v-172q-142 14 -255 110q-145 124 -145 327v881h179q11 -96 85 -160q68 -60 120 -59t116 57q77 68 83 164h172z" />
    <glyph glyph-name="two" unicode="&#x6f2;" horiz-adv-x="1020" 
d="M915 1320q-23 -166 -143 -279q-69 -66 -102 -86q-57 -34 -123 -31q-39 2 -88 21q-73 28 -129 89v-597q0 -103 64 -176.5t166 -88.5v-172q-142 14 -255 110q-145 124 -145 327v881h179q11 -96 85 -160q68 -60 120 -59t116 57q77 68 83 164h172z" />
    <glyph glyph-name="two" unicode="&#x662;" horiz-adv-x="1020" 
d="M915 1320q-23 -166 -143 -279q-69 -66 -102 -86q-57 -34 -123 -31q-39 2 -88 21q-73 28 -129 89v-597q0 -103 64 -176.5t166 -88.5v-172q-142 14 -255 110q-145 124 -145 327v881h179q11 -96 85 -160q68 -60 120 -59t116 57q77 68 83 164h172z" />
    <glyph glyph-name="three" unicode="3" horiz-adv-x="1357" 
d="M830 1310q-19 -166 -143 -279q-68 -63 -86 -75q-48 -31 -103 -26q-25 3 -55 15q-84 34 -129 89v-597q0 -103 64 -176.5t166 -88.5v-172q-142 14 -255 110q-145 124 -145 327v881h179q0 -100 85 -160q36 -26 76 -29q50 -5 91 17q85 46 85 135q0 14 -2 29h172zM702 1308
q11 -96 84 -160q69 -60 121 -59q51 1 116 57q77 68 82 164h173q-23 -166 -143 -279q-70 -66 -103 -86q-57 -34 -123 -31q-38 2 -88 21q-82 32 -129 89z" />
    <glyph glyph-name="three" unicode="&#x6f3;" horiz-adv-x="1357" 
d="M830 1310q-19 -166 -143 -279q-68 -63 -86 -75q-48 -31 -103 -26q-25 3 -55 15q-84 34 -129 89v-597q0 -103 64 -176.5t166 -88.5v-172q-142 14 -255 110q-145 124 -145 327v881h179q0 -100 85 -160q36 -26 76 -29q50 -5 91 17q85 46 85 135q0 14 -2 29h172zM702 1308
q11 -96 84 -160q69 -60 121 -59q51 1 116 57q77 68 82 164h173q-23 -166 -143 -279q-70 -66 -103 -86q-57 -34 -123 -31q-38 2 -88 21q-82 32 -129 89z" />
    <glyph glyph-name="three" unicode="&#x663;" horiz-adv-x="1357" 
d="M830 1310q-19 -166 -143 -279q-68 -63 -86 -75q-48 -31 -103 -26q-25 3 -55 15q-84 34 -129 89v-597q0 -103 64 -176.5t166 -88.5v-172q-142 14 -255 110q-145 124 -145 327v881h179q0 -100 85 -160q36 -26 76 -29q50 -5 91 17q85 46 85 135q0 14 -2 29h172zM702 1308
q11 -96 84 -160q69 -60 121 -59q51 1 116 57q77 68 82 164h173q-23 -166 -143 -279q-70 -66 -103 -86q-57 -34 -123 -31q-38 2 -88 21q-82 32 -129 89z" />
    <glyph glyph-name="four" unicode="4" horiz-adv-x="1133" 
d="M988 264q0 -159 -133 -277q-129 -113 -290 -113q-171 0 -302.5 130t-131.5 301q0 82 24 143q44 111 173 199q-197 128 -197 341q0 176 129 310.5t305 134.5q164 0 291 -112q132 -117 132 -279h-173q-10 98 -81.5 157t-171.5 59q-105 0 -181.5 -76t-76.5 -180
q0 -91 70 -176t160 -99v-177q-91 -10 -160.5 -82.5t-69.5 -162.5q0 -104 77.5 -180.5t180.5 -76.5q100 0 170.5 59.5t82.5 156.5h173z" />
    <glyph glyph-name="four" unicode="&#x6f4;" horiz-adv-x="1133" 
d="M988 264q0 -159 -133 -277q-129 -113 -290 -113q-171 0 -302.5 130t-131.5 301q0 82 24 143q44 111 173 199q-197 128 -197 341q0 176 129 310.5t305 134.5q164 0 291 -112q132 -117 132 -279h-173q-10 98 -81.5 157t-171.5 59q-105 0 -181.5 -76t-76.5 -180
q0 -91 70 -176t160 -99v-177q-91 -10 -160.5 -82.5t-69.5 -162.5q0 -104 77.5 -180.5t180.5 -76.5q100 0 170.5 59.5t82.5 156.5h173z" />
    <glyph glyph-name="four" unicode="&#x664;" horiz-adv-x="1133" 
d="M988 264q0 -159 -133 -277q-129 -113 -290 -113q-171 0 -302.5 130t-131.5 301q0 82 24 143q44 111 173 199q-197 128 -197 341q0 176 129 310.5t305 134.5q164 0 291 -112q132 -117 132 -279h-173q-10 98 -81.5 157t-171.5 59q-105 0 -181.5 -76t-76.5 -180
q0 -91 70 -176t160 -99v-177q-91 -10 -160.5 -82.5t-69.5 -162.5q0 -104 77.5 -180.5t180.5 -76.5q100 0 170.5 59.5t82.5 156.5h173z" />
    <glyph glyph-name="five" unicode="5" horiz-adv-x="1097" 
d="M981 728q0 -180 -125.5 -305t-304.5 -125t-304.5 125.5t-125.5 304.5t125 304.5t305 125.5t305 -125t125 -305zM804 719q0 109 -76.5 186t-185.5 77t-186 -77t-77 -186q0 -103 76.5 -174t186.5 -71q106 0 184 69.5t78 175.5z" />
    <glyph glyph-name="five" unicode="&#x6f5;" horiz-adv-x="1097" 
d="M981 728q0 -180 -125.5 -305t-304.5 -125t-304.5 125.5t-125.5 304.5t125 304.5t305 125.5t305 -125t125 -305zM804 719q0 109 -76.5 186t-185.5 77t-186 -77t-77 -186q0 -103 76.5 -174t186.5 -71q106 0 184 69.5t78 175.5z" />
    <glyph glyph-name="five" unicode="&#x665;" horiz-adv-x="1097" 
d="M981 728q0 -180 -125.5 -305t-304.5 -125t-304.5 125.5t-125.5 304.5t125 304.5t305 125.5t305 -125t125 -305zM804 719q0 109 -76.5 186t-185.5 77t-186 -77t-77 -186q0 -103 76.5 -174t186.5 -71q106 0 184 69.5t78 175.5z" />
    <glyph glyph-name="six" unicode="6" horiz-adv-x="1084" 
d="M921 0h-170v894q0 101 -79 179.5t-180 78.5q-92 0 -168.5 -69t-90.5 -161h-171q0 156 139 280q134 120 291 120q171 0 300 -129t129 -299v-894z" />
    <glyph glyph-name="six" unicode="&#x6f6;" horiz-adv-x="1084" 
d="M921 0h-170v894q0 101 -79 179.5t-180 78.5q-92 0 -168.5 -69t-90.5 -161h-171q0 156 139 280q134 120 291 120q171 0 300 -129t129 -299v-894z" />
    <glyph glyph-name="six" unicode="&#x666;" horiz-adv-x="1084" 
d="M921 0h-170v894q0 101 -79 179.5t-180 78.5q-92 0 -168.5 -69t-90.5 -161h-171q0 156 139 280q134 120 291 120q171 0 300 -129t129 -299v-894z" />
    <glyph glyph-name="seven" unicode="7" horiz-adv-x="1110" 
d="M979 463q0 -163 -132 -311q-136 -152 -297 -152q-160 0 -297 151q-132 147 -132 309v891h172v-891q0 -104 76 -181.5t181 -77.5q97 0 176.5 82.5t79.5 179.5v888h173v-888z" />
    <glyph glyph-name="seven" unicode="&#x6f7;" horiz-adv-x="1110" 
d="M979 463q0 -163 -132 -311q-136 -152 -297 -152q-160 0 -297 151q-132 147 -132 309v891h172v-891q0 -104 76 -181.5t181 -77.5q97 0 176.5 82.5t79.5 179.5v888h173v-888z" />
    <glyph glyph-name="seven" unicode="&#x667;" horiz-adv-x="1110" 
d="M979 463q0 -163 -132 -311q-136 -152 -297 -152q-160 0 -297 151q-132 147 -132 309v891h172v-891q0 -104 76 -181.5t181 -77.5q97 0 176.5 82.5t79.5 179.5v888h173v-888z" />
    <glyph glyph-name="eight" unicode="8" horiz-adv-x="1094" 
d="M979 0h-173v891q0 99 -79 180.5t-177 81.5q-105 0 -181 -77t-76 -181v-895h-172v895q0 164 132 297.5t297 133.5q163 0 296 -135.5t133 -299.5v-891z" />
    <glyph glyph-name="eight" unicode="&#x6f8;" horiz-adv-x="1094" 
d="M979 0h-173v891q0 99 -79 180.5t-177 81.5q-105 0 -181 -77t-76 -181v-895h-172v895q0 164 132 297.5t297 133.5q163 0 296 -135.5t133 -299.5v-891z" />
    <glyph glyph-name="eight" unicode="&#x668;" horiz-adv-x="1094" 
d="M979 0h-173v891q0 99 -79 180.5t-177 81.5q-105 0 -181 -77t-76 -181v-895h-172v895q0 164 132 297.5t297 133.5q163 0 296 -135.5t133 -299.5v-891z" />
    <glyph glyph-name="nine" unicode="9" horiz-adv-x="1138" 
d="M977 0h-170v894q0 103 -76.5 180.5t-179.5 77.5q-87 0 -170 -77q-89 -82 -89 -185t63.5 -172.5t166.5 -81.5v-171q-156 13 -280 143t-124 286q0 169 130 300t300 131q163 0 296 -134.5t133 -296.5v-894z" />
    <glyph glyph-name="nine" unicode="&#x6f9;" horiz-adv-x="1138" 
d="M977 0h-170v894q0 103 -76.5 180.5t-179.5 77.5q-87 0 -170 -77q-89 -82 -89 -185t63.5 -172.5t166.5 -81.5v-171q-156 13 -280 143t-124 286q0 169 130 300t300 131q163 0 296 -134.5t133 -296.5v-894z" />
    <glyph glyph-name="nine" unicode="&#x669;" horiz-adv-x="1138" 
d="M977 0h-170v894q0 103 -76.5 180.5t-179.5 77.5q-87 0 -170 -77q-89 -82 -89 -185t63.5 -172.5t166.5 -81.5v-171q-156 13 -280 143t-124 286q0 169 130 300t300 131q163 0 296 -134.5t133 -296.5v-894z" />
    <glyph glyph-name="colon" unicode=":" horiz-adv-x="477" 
d="M313 386q0 -30 -22 -52t-52 -22q-31 0 -53.5 21.5t-22.5 52.5q0 32 22 53.5t53 21.5t53 -21.5t22 -53.5zM313 75q0 -30 -22 -52.5t-52 -22.5q-31 0 -53.5 22t-22.5 53t22 52.5t53 21.5t53 -21.5t22 -52.5z" />
    <glyph glyph-name="equal" unicode="=" horiz-adv-x="1088" 
d="M967 614h-852v110h852v-110zM967 319h-852v110h852v-110z" />
    <glyph glyph-name="bracketleft" unicode="[" horiz-adv-x="934" 
d="M647 -258q-142 14 -255 111q-145 123 -145 326v916q0 163 119.5 293.5t280.5 130.5v-168q-92 -12 -161 -88t-69 -168v-916q0 -102 64.5 -176t165.5 -88v-173z" />
    <glyph glyph-name="bracketright" unicode="]" horiz-adv-x="934" 
d="M760 179q0 -202 -144 -325q-111 -95 -256 -112v173q99 11 164.5 87.5t65.5 176.5v916q0 94 -68 168t-162 88v168q161 0 282 -133q118 -129 118 -291v-916z" />
    <glyph glyph-name="braceleft" unicode="{" horiz-adv-x="966" 
d="M780 -448q-196 29 -318 131q-130 109 -130 266q0 65 33 181q26 90 26 114q0 107 -101 175q-85 57 -201 68v38q302 53 302 225q0 43 -21 124q-33 125 -33 192q0 169 142 278q121 93 301 115v-40q-111 -12 -189 -67q-94 -66 -94 -167q0 -45 16 -117q38 -163 38 -215
q0 -231 -360 -345q355 -119 355 -359q0 -51 -33 -183q-21 -85 -21 -138q0 -185 288 -238v-38z" />
    <glyph glyph-name="braceright" unicode="}" horiz-adv-x="1065" 
d="M218 -448q196 29 318 131q129 109 129 266q0 65 -33 181q-25 90 -25 114q0 107 101 175q84 57 200 68v38q-301 53 -301 225q0 43 21 124q33 125 33 192q0 169 -142 278q-121 93 -301 115v-40q110 -12 189 -67q94 -66 94 -167q0 -45 -17 -117q-38 -163 -38 -215
q0 -231 361 -345q-356 -119 -356 -359q0 -51 33 -183q21 -85 21 -138q0 -185 -287 -238v-38z" />
    <glyph glyph-name="guillemotleft" unicode="&#xab;" horiz-adv-x="834" 
d="M475 196q-153 0 -261.5 114.5t-108.5 268.5q0 158 106 270.5t264 112.5v-72q-124 0 -210.5 -92.5t-86.5 -217.5q0 -124 87 -216.5t210 -92.5v-75zM758 196q-153 0 -262 114.5t-109 268.5q0 158 106.5 270.5t264.5 112.5v-72q-125 0 -211.5 -92.5t-86.5 -217.5
q0 -124 87 -216.5t211 -92.5v-75z" />
    <glyph glyph-name="periodcentered" unicode="&#xb7;" horiz-adv-x="471" 
d="M233 601q-89 0 -89 96q0 99 89 99q87 0 87 -99q0 -39 -24 -67.5t-63 -28.5z" />
    <glyph glyph-name="periodcentered" unicode="&#x2219;" horiz-adv-x="471" 
d="M233 601q-89 0 -89 96q0 99 89 99q87 0 87 -99q0 -39 -24 -67.5t-63 -28.5z" />
    <glyph glyph-name="periodcentered" unicode="&#x2d9;" horiz-adv-x="471" 
d="M233 601q-89 0 -89 96q0 99 89 99q87 0 87 -99q0 -39 -24 -67.5t-63 -28.5z" />
    <glyph glyph-name="guillemotright" unicode="&#xbb;" horiz-adv-x="854" 
d="M407 196q153 0 262 114.5t109 268.5q0 158 -106.5 270.5t-264.5 112.5v-72q125 0 211.5 -92.5t86.5 -217.5q0 -124 -87 -216.5t-211 -92.5v-75zM124 196q153 0 262 114.5t109 268.5q0 158 -105 270q-108 113 -266 113v-72q125 0 211.5 -92.5t86.5 -217.5
q0 -124 -87 -216.5t-211 -92.5v-75z" />
    <glyph glyph-name="multiply" unicode="&#xd7;" horiz-adv-x="1224" 
d="M1045 284l-81 -80l-359 355l-359 -357l-83 82l356 360l-356 360l89 79l353 -357l359 357l81 -79l-361 -360z" />
    <glyph glyph-name="divide" unicode="&#xf7;" horiz-adv-x="1360" 
d="M760 1110q0 -40 -26.5 -68.5t-65.5 -28.5q-34 0 -63.5 29t-29.5 69q0 39 28 64.5t67 25.5q34 0 62 -26.5t28 -64.5zM1206 644h-1061v131h1061v-131zM760 309q0 -39 -26.5 -67t-65.5 -28t-66 29t-27 67q0 40 26 65q30 27 71 27q47 0 75 -42q13 -21 13 -51z" />
    <glyph glyph-name="u060C" unicode="&#x60c;" horiz-adv-x="391" 
d="M271 260q-64 -37 -64 -119q60 -15 60 -70q0 -29 -21.5 -50t-51.5 -21q-79 0 -79 93q0 111 105 215l16 16l23 19q0 -58 12 -83z" />
    <glyph glyph-name="u061B" unicode="&#x61b;" horiz-adv-x="477" 
d="M317 570q-64 -36 -64 -118q60 -16 60 -70q0 -30 -21.5 -51t-51.5 -21q-79 0 -79 94q0 110 105 215l16 16l23 18q0 -57 12 -83zM313 75q0 -30 -22 -52.5t-52 -22.5q-31 0 -53.5 22t-22.5 53t22 52.5t53 21.5t53 -21.5t22 -52.5z" />
    <glyph glyph-name="u061F" unicode="&#x61f;" horiz-adv-x="1056" 
d="M940 987h-173q-11 98 -83 166t-170 68q-110 0 -186.5 -76.5t-76.5 -186.5q0 -101 64.5 -172t165.5 -83v-394h-173v333q-125 0 -186 118q-44 84 -44 198q0 172 130 301.5t301 129.5q164 0 295 -118q136 -122 136 -284zM483 86q0 -35 -25.5 -60.5t-60.5 -25.5
q-36 0 -61.5 25.5t-25.5 60.5q0 36 25.5 61t61.5 25q35 0 60.5 -25t25.5 -61z" />
    <glyph glyph-name="u0621" unicode="&#x621;" horiz-adv-x="945" 
d="M815 0h-697v172h296q0 168 117 304q118 140 284 155v-173q-103 -12 -168 -98q-60 -81 -60 -188h228v-172z" />
    <glyph glyph-name="u0640" unicode="&#x640;" horiz-adv-x="583" 
d="M604 0h-622v175h622v-175z" />
    <glyph glyph-name="u064B" unicode="&#x64b;" 
d="M551 1832l-28 -136l-478 -149l19 137zM551 2080l-28 -137l-478 -148l19 136z" />
    <glyph glyph-name="u064C" unicode="&#x64c;" 
d="M504 1809q0 -54 -61 -149l-97 40q-38 -46 -118 -98q-100 -66 -176 -66q-17 0 -36 101q10 2 52 21q3 28 3 52q0 78 -45 78q-18 0 -43 -34.5t-28 -34.5q-30 0 -30 80q0 45 37 93.5t80 48.5q51 0 82 -41.5t31 -93.5q0 -87 -11 -120q77 43 106 85q-64 59 -64 144q0 83 45 158
q52 87 127 87q118 0 118 -151q0 -90 -40 -170q16 -16 68 -30zM356 1887q26 37 26 75q0 78 -55 78q-42 0 -42 -69q0 -24 23.5 -50.5t47.5 -33.5z" />
    <glyph glyph-name="u064D" unicode="&#x64d;" 
d="M622 -1371l-28 -139l-479 -146l19 137zM622 -1123l-28 -139l-479 -146l19 136z" />
    <glyph glyph-name="u064E" unicode="&#x64e;" 
d="M551 1832l-28 -136l-478 -149l19 137z" />
    <glyph glyph-name="u064F" unicode="&#x64f;" 
d="M504 1809q0 -54 -61 -149l-97 40q-38 -46 -118 -98q-100 -66 -176 -66q-17 0 -36 101q170 45 234 134q-64 59 -64 144q0 83 45 158q52 87 127 87q118 0 118 -151q0 -90 -40 -170q16 -16 68 -30zM356 1887q26 37 26 75q0 78 -55 78q-42 0 -42 -69q0 -24 23.5 -50.5
t47.5 -33.5z" />
    <glyph glyph-name="u0650" unicode="&#x650;" 
d="M617 -1123l-28 -139l-481 -146l22 136z" />
    <glyph glyph-name="u0651" unicode="&#x651;" 
d="M532 1811q0 -75 -40 -141q-45 -76 -118 -76q-56 0 -87 59q-49 -106 -132 -106q-54 0 -85 52q-25 43 -25 101q0 149 59 149q5 0 25 -63.5t59 -63.5q40 0 73 76.5t48 76.5q7 0 24 -58t39 -58q42 0 80 68.5t40 68.5q40 0 40 -85z" />
    <glyph glyph-name="u0652" unicode="&#x652;" 
d="M459 1778q0 -91 -44 -155q-51 -73 -137 -73q-193 0 -193 231q0 69 49 148q56 87 120 87q88 0 149 -76q56 -72 56 -162zM363 1759q-40 90 -127 90q-22 0 -42 -19t-20 -40q0 -61 76 -61q80 0 113 30z" />
    <glyph glyph-name="zeronojoin" unicode="&#x200c;" horiz-adv-x="45" 
 />
    <glyph glyph-name="zerojoin" unicode="&#x200d;" horiz-adv-x="45" 
 />
    <glyph glyph-name="lefttoright" unicode="&#x200e;" horiz-adv-x="38" 
d="M250 1328l-111 -113l-28 24l73 73h-146v-1312h-38v1347h179l-68 68l28 26z" />
    <glyph glyph-name="righttoleft" unicode="&#x200f;" horiz-adv-x="38" 
d="M38 0h-38v1312h-146l71 -73l-24 -24l-115 113l115 113l24 -26l-69 -68h182v-1347z" />
    <glyph glyph-name="quoteleft" unicode="&#x2018;" horiz-adv-x="519" 
d="M302 1250q-72 -40 -72 -126q67 -19 67 -82q0 -33 -25 -56t-58 -23q-91 0 -91 104q0 129 116 239l23 22l25 21l2 -55q0 -19 13 -44z" />
    <glyph glyph-name="quoteright" unicode="&#x2019;" horiz-adv-x="498" 
d="M316 1263q0 -94 -64 -180q-19 -25 -53 -60l-22 -21l-25 -21v38q-3 11 -3 16q0 25 -12 45q72 40 72 126q-66 19 -66 82q0 34 24 56.5t58 22.5q91 0 91 -104z" />
    <glyph glyph-name="quotedblleft" unicode="&#x201c;" horiz-adv-x="747" 
d="M601 1250q-72 -40 -72 -126q67 -19 67 -82q0 -33 -25 -56t-58 -23q-91 0 -91 104q0 129 116 239l23 22l25 21l2 -55q0 -19 13 -44zM302 1250q-72 -40 -72 -126q67 -19 67 -82q0 -33 -25 -56t-58 -23q-91 0 -91 104q0 129 116 239l23 22l25 21l2 -55q0 -19 13 -44z" />
    <glyph glyph-name="quotedblright" unicode="&#x201d;" horiz-adv-x="747" 
d="M615 1263q0 -94 -64 -180q-19 -25 -53 -60l-22 -21l-25 -21v38q-3 11 -3 16q0 25 -12 45q72 40 72 126q-66 19 -66 82q0 34 24 56.5t58 22.5q91 0 91 -104zM316 1263q0 -94 -64 -180q-19 -25 -53 -60l-22 -21l-25 -21v38q-3 11 -3 16q0 25 -12 45q72 40 72 126
q-66 19 -66 82q0 34 24 56.5t58 22.5q91 0 91 -104z" />
    <glyph glyph-name="guilsinglleft" unicode="&#x2039;" horiz-adv-x="607" 
d="M475 196q-153 0 -261.5 114.5t-108.5 268.5q0 158 106 270.5t264 112.5v-72q-124 0 -210.5 -92.5t-86.5 -217.5q0 -124 87 -216.5t210 -92.5v-75z" />
    <glyph glyph-name="guilsinglright" unicode="&#x203a;" horiz-adv-x="595" 
d="M128 196q153 0 262 114.5t109 268.5q0 158 -105 270q-108 113 -266 113v-72q125 0 211.5 -92.5t86.5 -217.5q0 -124 -87 -216.5t-211 -92.5v-75z" />
    <glyph glyph-name="uE820" unicode="&#xe820;" 
d="M561 1364l-29 -137l-478 -148l19 136z" />
    <glyph glyph-name="uE821" unicode="&#xe821;" 
d="M523 1382q0 -54 -61 -148l-97 40q-38 -47 -118 -99q-101 -66 -176 -66q-17 0 -36 102q170 44 233 134q-63 59 -63 143t45 158q52 87 127 87q118 0 118 -150q0 -90 -40 -170q16 -16 68 -31zM374 1460q26 38 26 76q0 77 -54 77q-42 0 -42 -68q0 -24 23.5 -51t46.5 -34z" />
    <glyph glyph-name="uE822" unicode="&#xe822;" 
d="M431 1333q0 -91 -45 -155q-50 -73 -136 -73q-193 0 -193 230q0 70 49 148q55 88 120 88q88 0 149 -77q56 -71 56 -161zM334 1314q-40 90 -127 90q-21 0 -41 -19t-20 -40q0 -61 75 -61q80 0 113 30z" />
    <glyph glyph-name="uE823" unicode="&#xe823;" 
d="M542 1382l-29 -136l-478 -149l19 137zM542 1630l-29 -137l-478 -148l19 136z" />
    <glyph glyph-name="uE824" unicode="&#xe824;" 
d="M561 1378q0 -54 -62 -149l-96 40q-38 -46 -118 -98q-101 -66 -177 -66q-16 0 -35 101q9 2 52 21q2 28 2 52q0 78 -45 78q-17 0 -42 -34.5t-28 -34.5q-31 0 -31 80q0 45 37 93.5t81 48.5q50 0 83 -43q30 -40 30 -92q0 -87 -12 -120q78 43 106 85q-63 59 -63 144
q0 83 44 158q53 87 128 87q117 0 117 -151q0 -90 -40 -170q17 -16 69 -30zM412 1455q26 38 26 76q0 78 -54 78q-43 0 -43 -69q0 -24 23.5 -50.5t47.5 -34.5z" />
    <glyph glyph-name="uE825" unicode="&#xe825;" 
d="M532 1347q0 -75 -40 -141q-45 -76 -118 -76q-56 0 -87 59q-49 -106 -132 -106q-54 0 -85 52q-25 43 -25 101q0 149 59 149q5 0 25 -63.5t59 -63.5q40 0 73 76.5t48 76.5q7 0 24 -58t39 -58q42 0 80 68.5t40 68.5q40 0 40 -85z" />
    <glyph glyph-name="uE826" unicode="&#xe826;" 
d="M516 -445l-28 -139l-481 -146l21 137z" />
    <glyph glyph-name="uE827" unicode="&#xe827;" 
d="M506 -699l-28 -139l-478 -146l19 136zM506 -452l-28 -139l-478 -146l19 136z" />
    <glyph glyph-name="uE828" unicode="&#xe828;" 
d="M546 1368q0 -75 -40 -141q-45 -75 -117 -75q-57 0 -88 59q-49 -106 -131 -106q-55 0 -85 51q-26 44 -26 102q0 148 59 148q5 0 25 -63.5t60 -63.5q39 0 72 76.5t48 76.5q7 0 24.5 -57.5t38.5 -57.5q42 0 80 68t40 68q40 0 40 -85zM570 1785l-28 -136l-478 -149l18 137z
" />
    <glyph glyph-name="uE829" unicode="&#xe829;" 
d="M546 1368q0 -75 -40 -141q-45 -75 -117 -75q-57 0 -88 59q-49 -106 -131 -106q-55 0 -85 51q-26 44 -26 102q0 148 59 148q5 0 25 -63.5t60 -63.5q39 0 72 76.5t48 76.5q7 0 24.5 -57.5t38.5 -57.5q42 0 80 68t40 68q40 0 40 -85zM523 1759q0 -54 -61 -148l-97 40
q-38 -47 -118 -99q-101 -66 -176 -66q-17 0 -36 101q170 45 233 135q-63 58 -63 143q0 83 45 158q52 87 127 87q118 0 118 -151q0 -89 -40 -169q16 -17 68 -31zM374 1837q26 38 26 75q0 78 -54 78q-42 0 -42 -68q0 -24 23.5 -51t46.5 -34z" />
    <glyph glyph-name="uE82A" unicode="&#xe82a;" 
d="M546 1368q0 -75 -40 -141q-45 -75 -117 -75q-57 0 -88 59q-49 -106 -131 -106q-55 0 -85 51q-26 44 -26 102q0 148 59 148q5 0 25 -63.5t60 -63.5q39 0 72 76.5t48 76.5q7 0 24.5 -57.5t38.5 -57.5q42 0 80 68t40 68q40 0 40 -85zM513 1748l-28 -137l-478 -148l19 136z
M513 1995l-28 -137l-478 -148l19 136z" />
    <glyph glyph-name="uE82B" unicode="&#xe82b;" 
d="M565 1352q0 -75 -40 -141q-46 -76 -118 -76q-56 0 -87 59q-49 -106 -132 -106q-54 0 -85 52q-25 43 -25 101q0 149 59 149q5 0 25 -64t59 -64q40 0 73 76.5t47 76.5q8 0 25 -57.5t39 -57.5q42 0 80 68.5t40 68.5q40 0 40 -85zM539 1778q0 -54 -61 -148l-96 40
q-38 -47 -118 -99q-101 -66 -177 -66q-16 0 -35 101q9 3 52 21q2 29 2 52q0 78 -45 78q-17 0 -42 -34t-28 -34q-31 0 -31 80q0 45 36 91q38 50 82 50q50 0 83 -43q30 -39 30 -91q0 -87 -12 -120q78 42 106 84q-64 59 -64 144q0 83 45 158q52 87 127 87q118 0 118 -151
q0 -89 -40 -169q17 -17 68 -31zM391 1856q26 38 26 75q0 78 -54 78q-43 0 -43 -68q0 -24 23.5 -51t47.5 -34z" />
    <glyph glyph-name="uE82C" unicode="&#xe82c;" 
d="M546 1594q0 -75 -40 -141q-45 -75 -117 -75q-57 0 -88 59q-49 -106 -131 -106q-55 0 -85 51q-26 44 -26 102q0 148 59 148q5 0 25 -63.5t60 -63.5q39 0 72 76.5t48 76.5q7 0 24.5 -57.5t38.5 -57.5q42 0 80 68t40 68q40 0 40 -85zM516 1335l-28 -139l-481 -146l21 137z
" />
    <glyph glyph-name="uE82D" unicode="&#xe82d;" 
d="M546 1792q0 -75 -40 -141q-45 -75 -117 -75q-57 0 -88 58q-49 -106 -131 -106q-55 0 -85 52q-26 44 -26 102q0 148 59 148q5 0 25 -63.5t60 -63.5q39 0 72 76.5t48 76.5q7 0 24.5 -58t38.5 -58q42 0 80 68.5t40 68.5q40 0 40 -85zM563 1279l-28 -139l-478 -146l18 137z
M563 1526l-28 -139l-478 -146l18 137z" />
  </font>
</defs>
</svg>
