<?xml version="1.0" standalone="no"?>
<!DOCTYPE svg PUBLIC "-//W3C//DTD SVG 1.1//EN" "http://www.w3.org/Graphics/SVG/1.1/DTD/svg11.dtd" >
<svg>
<metadata>
Created by FontForge 20120731 at Fri Jul 15 08:45:58 2016
 By www-data
MRT Magic Pack http://www.Win2Farsi.com Email:Win2Farsi@yahoo.com Mohammad Reza Tavakoli Mob: 0913 116 1242
</metadata>
<defs>
<font id="BSinaBold" horiz-adv-x="0" >
  <font-face 
    font-family="B Sina"
    font-weight="700"
    font-stretch="normal"
    units-per-em="2048"
    panose-1="0 0 7 0 0 0 0 0 0 0"
    ascent="1638"
    descent="-410"
    bbox="-430 -1196 2878 2321"
    underline-thickness="100"
    underline-position="-550"
    unicode-range="U+0020-FEFC"
  />
<missing-glyph horiz-adv-x="1024" 
d="M128 0v1359h768v-1359h-768zM256 128h512v1103h-512v-1103z" />
    <glyph glyph-name="uE818" unicode="&#x651;&#x64b;" 
d="M447 1841q6 -30 6 -57q0 -66 -27 -111q-33 -55 -96 -55q-60 0 -81 59q-33 -90 -119 -90q-83 0 -83 108q0 48 20 89q11 24 30 24q28 0 23 -40q-9 -76 34 -76q63 0 79 111q5 37 31 37q23 0 25 -34q3 -86 54 -86q58 0 43 109q-1 6 -1 13q0 39 27 39t35 -40zM382 2134
l-331 -103q-6 -2 -13 -2q-38 0 -38 41q0 30 36 42l319 101q9 3 18 3q43 0 43 -42q0 -29 -34 -40zM390 1960l-330 -103q-6 -2 -13 -2q-38 0 -38 41q0 31 35 42l319 101q8 3 18 3q44 0 44 -41q0 -30 -35 -41z" />
    <glyph glyph-name="uFC5E" unicode="&#x651;&#x64c;" arabic-form="isolated" 
d="M468 1856q6 -30 6 -57q0 -66 -27 -111q-33 -55 -96 -55q-60 0 -81 59q-33 -90 -119 -90q-83 0 -83 108q0 48 20 89q11 24 30 24q28 0 23 -40q-9 -76 34 -76q63 0 79 111q5 37 31 37q23 0 25 -34q3 -86 54 -86q58 0 43 109q-1 6 -1 13q0 39 27 39t35 -40zM487 2224
q0 -91 -87 -157q31 -22 31 -46q0 -29 -34 -29q-27 0 -58 24q-189 -100 -265 -100q-45 0 -45 37q0 30 36 39q58 16 58 68q0 24 -33 24q-24 0 -46 -13q-13 -8 -22 -8q-21 0 -21 22q0 17 16 34q36 35 89 35q79 0 79 -72q0 -26 -15 -57q50 19 101 51q-38 39 -38 88
q0 60 44.5 108.5t103.5 48.5q42 0 74 -27.5t32 -69.5zM411 2195q0 49 -47 49q-23 0 -42 -22.5t-19 -46.5q0 -38 40 -60q23 7 45.5 32t22.5 48z" />
    <glyph glyph-name="uFC5F" unicode="&#x651;&#x64d;" arabic-form="isolated" 
d="M461 2190q6 -30 6 -57q0 -66 -27 -111q-33 -55 -96 -55q-60 0 -81 59q-33 -90 -119 -90q-83 0 -83 108q0 48 20 89q11 24 30 24q28 0 23 -40q-9 -76 34 -76q63 0 79 111q5 37 31 37q23 0 25 -34q3 -86 54 -86q58 0 43 109q-1 6 -1 13q0 39 27 39t35 -40zM440 1809
l-331 -104q-5 -1 -13 -1q-37 0 -37 40q0 31 36 42l319 102q8 2 18 2q43 0 43 -41q0 -30 -35 -40zM448 1643l-330 -103q-6 -1 -13 -1q-38 0 -38 39q0 31 35 42l320 103q8 2 18 2q43 0 43 -41q0 -30 -35 -41z" />
    <glyph glyph-name="uFC60" unicode="&#x651;&#x64e;" arabic-form="isolated" 
d="M460 1853q6 -30 6 -57q0 -66 -27 -111q-33 -55 -96 -55q-60 0 -81 59q-33 -90 -119 -90q-83 0 -83 108q0 48 20 89q11 24 30 24q28 0 23 -40q-9 -76 34 -76q63 0 79 111q5 37 31 37q23 0 25 -34q3 -86 54 -86q58 0 43 109q-1 6 -1 13q0 39 27 39t35 -40zM418 2034
l-330 -103q-6 -2 -13 -2q-38 0 -38 41q0 31 35 42l319 101q8 3 18 3q44 0 44 -41q0 -30 -35 -41z" />
    <glyph glyph-name="uFC61" unicode="&#x651;&#x64f;" arabic-form="isolated" 
d="M476 1850q6 -30 6 -57q0 -66 -27 -111q-33 -55 -96 -55q-60 0 -81 59q-33 -90 -119 -90q-83 0 -83 108q0 48 20 89q11 24 30 24q28 0 23 -40q-9 -76 34 -76q63 0 79 111q5 37 31 37q23 0 25 -34q3 -86 54 -86q58 0 43 109q-1 6 -1 13q0 39 27 39t35 -40zM497 2192
q0 -91 -87 -157q31 -22 31 -46q0 -29 -34 -29q-27 0 -58 24q-189 -100 -265 -100q-45 0 -45 37q0 30 36 39q127 34 206 84q-38 39 -38 88q0 60 44.5 108.5t103.5 48.5q42 0 74 -27.5t32 -69.5zM421 2163q0 49 -47 49q-23 0 -42 -22.5t-19 -46.5q0 -38 40 -60q23 7 45.5 32
t22.5 48z" />
    <glyph glyph-name="uFC62" unicode="&#x651;&#x650;" arabic-form="isolated" 
d="M454 2064q6 -30 6 -57q0 -66 -27 -111q-33 -55 -96 -55q-60 0 -81 59q-33 -90 -119 -90q-83 0 -83 108q0 48 20 89q11 24 30 24q28 0 23 -40q-9 -76 34 -76q63 0 79 111q5 37 31 37q23 0 25 -34q3 -86 54 -86q58 0 43 109q-1 6 -1 13q0 39 27 39t35 -40zM438 1679
l-330 -103q-6 -2 -13 -2q-38 0 -38 40q0 31 35 42l319 102q8 3 18 3q44 0 44 -42q0 -29 -35 -40z" />
    <glyph glyph-name="uFDF2" unicode="&#xfedf;&#xfee0;&#xfeea;" horiz-adv-x="2437" arabic-form="isolated" 
d="M1904 1413q0 -61 -62 -61h-450q-62 0 -62 61v225h123v-163h82v163h164v-163h82v163h123v-225zM2437 206q0 -88 -58.5 -146.5t-146.5 -58.5h-409v207q0 -89 -58.5 -148t-146.5 -59h-613q-91 0 -148.5 55.5t-57.5 145.5v741h-205v-656h123v-286h-328q-90 0 -147.5 57.5
t-57.5 146.5v823q0 90 57.5 145.5t148.5 55.5h614q92 0 148 -57.5t56 -150.5v-734h205v942h410v-942h205v942h409v-1023z" />
    <glyph glyph-name="uFEF5" unicode="&#xfedf;&#xfe82;" horiz-adv-x="1478" arabic-form="isolated" 
d="M1478 205q0 -87 -58.5 -146t-145.5 -59h-820v287h615v1039h409v-1121zM864 410h-410v894h410v-894zM1348 1407h-614v123h-204v-123h-410v123q0 85 60 145t145 60h613v-123h205v123h205v-328z" />
    <glyph glyph-name="uFEF6" unicode="&#xfee0;&#xfe82;" horiz-adv-x="1478" arabic-form="final" 
d="M1510 1h-32v286h32v-286zM1478 205q0 -87 -58.5 -146t-145.5 -59h-820v287h615v1039h409v-1121zM864 410h-410v894h410v-894zM1348 1407h-614v123h-204v-123h-410v123q0 85 60 145t145 60h613v-123h205v123h205v-328z" />
    <glyph glyph-name="uFEF7" unicode="&#xfedf;&#xfe84;" horiz-adv-x="1218" arabic-form="isolated" 
d="M1218 205q0 -87 -58.5 -146t-145.5 -59h-820v287h615v1259h409v-1341zM604 410h-410v734h410v-734zM611 1234h-412v115h65v113q0 82 82 82h216v-114h-134v-81h183v-115z" />
    <glyph glyph-name="uFEF8" unicode="&#xfee0;&#xfe84;" horiz-adv-x="1218" arabic-form="final" 
d="M1218 205q0 -87 -58.5 -146t-145.5 -59h-820v287h615v1259h409v-1341zM604 410h-410v734h410v-734zM611 1234h-412v115h65v113q0 82 82 82h216v-114h-134v-81h183v-115zM1250 1h-32v286h32v-286z" />
    <glyph glyph-name="uFEF9" unicode="&#xfedf;&#xfe88;" horiz-adv-x="1218" arabic-form="isolated" 
d="M1218 205q0 -87 -58.5 -146t-145.5 -59h-820v287h615v1259h409v-1341zM604 410h-410v1134h410v-1134zM604 -445h-412v115h65v113q0 82 82 82h216v-114h-134v-81h183v-115z" />
    <glyph glyph-name="uFEFA" unicode="&#xfee0;&#xfe88;" horiz-adv-x="1218" arabic-form="final" 
d="M1250 1h-32v286h32v-286zM1218 205q0 -87 -58.5 -146t-145.5 -59h-820v287h615v1259h409v-1341zM604 410h-410v1134h410v-1134zM604 -445h-412v115h65v113q0 82 82 82h216v-114h-134v-81h183v-115z" />
    <glyph glyph-name="uFEFB" unicode="&#xfedf;&#xfe8e;" horiz-adv-x="1208" arabic-form="isolated" 
d="M1208 205q0 -87 -58.5 -146t-145.5 -59h-820v287h615v1269h409v-1351zM594 410h-410v1145h410v-1145z" />
    <glyph glyph-name="uFEFC" unicode="&#xfee0;&#xfe8e;" horiz-adv-x="1208" arabic-form="final" 
d="M1208 205q0 -87 -58.5 -146t-145.5 -59h-820v287h615v1269h409v-1351zM594 410h-410v1145h410v-1145zM1240 1h-32v286h32v-286z" />
    <glyph glyph-name="u0652_u064E.liga" unicode="&#x652;&#x64e;" horiz-adv-x="1" 
d="M243 1785l-4 -346q0 -5 -2 -13q-12 -35 -50 -23q-29 10 -29 47l2 334q0 9 3 18q14 42 53 29q28 -9 27 -46z" />
    <glyph glyph-name="u0652_u064B.liga" unicode="&#x652;&#x64b;" horiz-adv-x="1" 
d="M998 1096q0 -68 -47.5 -116t-115.5 -48t-116 48t-48 116t48 116t116 48t115.5 -48t47.5 -116zM670 1096q0 -68 -48 -116t-116 -48t-116 48t-48 116q0 67 48.5 115.5t115.5 48.5q68 0 116 -48t48 -116z" />
    <glyph glyph-name="u0652_u064D.liga" unicode="&#x652;&#x64d;" horiz-adv-x="1" 
d="M1156 -754q0 -68 -47.5 -116t-115.5 -48t-116 48t-48 116t48 116t116 48t115.5 -48t47.5 -116zM828 -754q0 -68 -48 -116t-116 -48t-116 48t-48 116q0 67 48.5 115.5t115.5 48.5q68 0 116 -48t48 -116z" />
    <glyph glyph-name="u0622" unicode="&#x622;" horiz-adv-x="595" arabic-form="isolated" 
d="M798 1639h-614v123h-204v-123h-410v123q0 85 60 145t145 60h613v-123h205v123h205v-328zM594 1h-205q-86 0 -145.5 59t-59.5 145v1350h410v-1554z" />
    <glyph glyph-name="u0623" unicode="&#x623;" horiz-adv-x="595" arabic-form="isolated" 
d="M594 1h-205q-86 0 -145.5 59t-59.5 145v1130h410v-1334zM594 1389h-412v115h65v113q0 82 82 82h216v-114h-134v-81h183v-115z" />
    <glyph glyph-name="u0624" unicode="&#x624;" horiz-adv-x="1208" arabic-form="isolated" 
d="M1208 -287q0 -87 -58.5 -146t-145.5 -59h-820v287h615v206h-615v573q0 89 58 146.5t147 57.5h615q89 0 146.5 -57.5t57.5 -146.5v-861zM799 287v205h-205v-205h205zM955 988h-494v138h78v136q0 98 98 98h259v-137h-160v-97h219v-138z" />
    <glyph glyph-name="u0625" unicode="&#x625;" horiz-adv-x="595" arabic-form="isolated" 
d="M594 1h-205q-86 0 -145.5 59t-59.5 145v1130h410v-1334zM594 -396h-412v115h65v113q0 82 82 82h216v-114h-134v-81h183v-115z" />
    <glyph glyph-name="u0626" unicode="&#x626;" horiz-adv-x="1618" arabic-form="isolated" 
d="M1618 -287q0 -87 -59 -146t-146 -59h-1024q-87 0 -146 59t-59 146v779h410v-697h614v206h-409v572q0 90 57.5 147.5t147.5 57.5h614v-286h-410v-205h410v-574zM594 675h-412v115h65v113q0 82 82 82h216v-114h-134v-81h183v-115z" />
    <glyph glyph-name="u0627" unicode="&#x627;" horiz-adv-x="594" arabic-form="isolated" 
d="M594 1h-205q-86 0 -145.5 59t-59.5 145v1350h410v-1554z" />
    <glyph glyph-name="u0628" unicode="&#x628;" horiz-adv-x="1740" arabic-form="isolated" 
d="M1740 205q0 -86 -59.5 -145t-145.5 -59h-1146q-86 0 -145.5 59t-59.5 145v573h410v-491h736v491h410v-573zM1108 -283q0 -68 -48 -116t-116 -48t-116 48t-48 116q0 67 48.5 115.5t115.5 48.5q68 0 116 -48t48 -116z" />
    <glyph glyph-name="u0629" unicode="&#x629;" horiz-adv-x="1208" arabic-form="isolated" 
d="M1208 207q0 -89 -58 -147.5t-146 -58.5h-614q-91 0 -148.5 55.5t-57.5 145.5v372q0 89 58 146.5t147 57.5h615q87 0 145.5 -58.5t58.5 -145.5v-367zM799 287v205h-205v-205h205zM955 988h-494v138h78v136q0 98 98 98h259v-137h-160v-97h219v-138z" />
    <glyph glyph-name="u062A" unicode="&#x62a;" horiz-adv-x="1740" arabic-form="isolated" 
d="M1740 205q0 -86 -59.5 -145t-145.5 -59h-1146q-86 0 -145.5 59t-59.5 145v573h410v-491h736v491h410v-573zM1277 1147q0 -68 -47.5 -116t-115.5 -48t-116 48t-48 116t48 116t116 48t115.5 -48t47.5 -116zM949 1147q0 -68 -48 -116t-116 -48q-67 0 -115.5 48.5
t-48.5 115.5q0 68 48 116t116 48t116 -48t48 -116z" />
    <glyph glyph-name="u062B" unicode="&#x62b;" horiz-adv-x="1740" arabic-form="isolated" 
d="M1740 205q0 -86 -59.5 -145t-145.5 -59h-1146q-86 0 -145.5 59t-59.5 145v573h410v-491h736v491h410v-573zM1273 1146q0 68 -48 116t-116 48t-116 -48t-48 -116q0 -67 48.5 -115.5t115.5 -48.5q68 0 116 48t48 116zM944 1146q0 68 -48 116t-116 48t-116 -48t-48 -116
q0 -67 48.5 -115.5t115.5 -48.5q68 0 116 48t48 116zM1108 1515q0 68 -48 116t-116 48t-116 -48t-48 -116q0 -67 48.5 -115.5t115.5 -48.5q68 0 116 48t48 116z" />
    <glyph glyph-name="u062C" unicode="&#x62c;" horiz-adv-x="1536" arabic-form="isolated" 
d="M1536 1h-942v-247q0 -80 62.5 -142.5t142.5 -62.5v-41h-410q-87 0 -146 59t-59 146v369q0 93 56 149t149 56h615v205h-492v286h696q90 0 147.5 -57t57.5 -147v-287h123v-286zM1148 -283q0 -68 -48 -116t-116 -48t-116 48t-48 116q0 67 48.5 115.5t115.5 48.5
q68 0 116 -48t48 -116z" />
    <glyph glyph-name="u062D" unicode="&#x62d;" horiz-adv-x="1536" arabic-form="isolated" 
d="M1536 1h-942v-247q0 -80 62.5 -142.5t142.5 -62.5v-41h-410q-87 0 -146 59t-59 146v369q0 93 56 149t149 56h615v205h-492v286h696q90 0 147.5 -57t57.5 -147v-287h123v-286z" />
    <glyph glyph-name="u062E" unicode="&#x62e;" horiz-adv-x="1536" arabic-form="isolated" 
d="M1536 1h-942v-247q0 -80 62.5 -142.5t142.5 -62.5v-41h-410q-87 0 -146 59t-59 146v369q0 93 56 149t149 56h615v205h-492v286h696q90 0 147.5 -57t57.5 -147v-287h123v-286zM1148 1148q0 -68 -48 -116t-116 -48q-67 0 -115.5 48.5t-48.5 115.5q0 68 48 116t116 48
t116 -48t48 -116z" />
    <glyph glyph-name="u062F" unicode="&#x62f;" horiz-adv-x="1136" arabic-form="isolated" 
d="M1134 206q0 -73 -51 -134q-60 -71 -154 -71h-745v286h540v205h-417v286h622q90 0 147.5 -57t57.5 -147v-368z" />
    <glyph glyph-name="u0630" unicode="&#x630;" horiz-adv-x="1136" arabic-form="isolated" 
d="M1134 206q0 -73 -51 -134q-60 -71 -154 -71h-745v286h540v205h-417v286h622q90 0 147.5 -57t57.5 -147v-368zM818 1148q0 -68 -48 -116t-116 -48q-67 0 -115.5 48.5t-48.5 115.5q0 68 48 116t116 48t116 -48t48 -116z" />
    <glyph glyph-name="u0631" unicode="&#x631;" horiz-adv-x="799" arabic-form="isolated" 
d="M799 -287q0 -87 -59 -146t-146 -59h-410v287h205v983h410v-1065z" />
    <glyph glyph-name="u0632" unicode="&#x632;" horiz-adv-x="799" arabic-form="isolated" 
d="M799 -287q0 -87 -59 -146t-146 -59h-410v287h205v983h410v-1065zM758 1148q0 -68 -48 -116t-116 -48q-67 0 -115.5 48.5t-48.5 115.5q0 68 48 116t116 48t116 -48t48 -116z" />
    <glyph glyph-name="u0633" unicode="&#x633;" horiz-adv-x="2724" arabic-form="isolated" 
d="M2724 206q0 -92 -56.5 -148.5t-148.5 -56.5h-1024v-288q0 -87 -59 -146t-146 -59h-901q-87 0 -146 59t-59 146v901h410v-819h491v983h410v-491h205v491h409v-491h205v491h410v-572z" />
    <glyph glyph-name="u0634" unicode="&#x634;" horiz-adv-x="2724" arabic-form="isolated" 
d="M2724 206q0 -92 -56.5 -148.5t-148.5 -56.5h-1024v-288q0 -87 -59 -146t-146 -59h-901q-87 0 -146 59t-59 146v901h410v-819h491v983h410v-491h205v491h409v-491h205v491h410v-572zM2235 1147q0 68 -48 116t-116 48t-116 -48t-48 -116q0 -67 48.5 -115.5t115.5 -48.5
q68 0 116 48t48 116zM1906 1147q0 68 -48 116t-116 48t-116 -48t-48 -116q0 -67 48.5 -115.5t115.5 -48.5q68 0 116 48t48 116zM2070 1516q0 68 -48 116t-116 48t-116 -48t-48 -116q0 -67 48.5 -115.5t115.5 -48.5q68 0 116 48t48 116z" />
    <glyph glyph-name="u0635" unicode="&#x635;" horiz-adv-x="2847" arabic-form="isolated" 
d="M2847 206q0 -91 -57 -148t-148 -57h-1147v-288q0 -87 -59 -146t-146 -59h-901q-87 0 -146 59t-59 146v901h410v-819h491v983h410v-491l282 352q111 139 279 139h586q90 0 147.5 -57t57.5 -147v-368zM2437 287v205h-328l-163 -205h491z" />
    <glyph glyph-name="u0636" unicode="&#x636;" horiz-adv-x="2847" arabic-form="isolated" 
d="M2847 206q0 -91 -57 -148t-148 -57h-1147v-288q0 -87 -59 -146t-146 -59h-901q-87 0 -146 59t-59 146v901h410v-819h491v983h410v-491l282 352q111 139 279 139h586q90 0 147.5 -57t57.5 -147v-368zM2437 287v205h-328l-163 -205h491zM2428 1147q0 -68 -48 -116t-116 -48
q-67 0 -115.5 48.5t-48.5 115.5q0 68 48 116t116 48t116 -48t48 -116z" />
    <glyph glyph-name="u0637" unicode="&#x637;" horiz-adv-x="1802" arabic-form="isolated" 
d="M1802 206q0 -89 -58 -147t-146 -58h-1415v286h266l281 352q111 139 203 139v778h410v-574q0 -89 -57.5 -146.5t-146.5 -57.5h459q90 0 147 -57t57 -147v-368zM1393 287v205h-330l-164 -205h494z" />
    <glyph glyph-name="u0638" unicode="&#x638;" horiz-adv-x="1802" arabic-form="isolated" 
d="M1802 206q0 -89 -58 -147t-146 -58h-1415v286h266l281 352q111 139 203 139v778h410v-574q0 -89 -57.5 -146.5t-146.5 -57.5h459q90 0 147 -57t57 -147v-368zM1393 287v205h-330l-164 -205h494zM1768 1148q0 -68 -48 -116t-116 -48q-67 0 -115.5 48.5t-48.5 115.5
q0 68 48 116t116 48t116 -48t48 -116z" />
    <glyph glyph-name="u0639" unicode="&#x639;" horiz-adv-x="1536" arabic-form="isolated" 
d="M1536 1h-942v-247q0 -80 62.5 -142.5t142.5 -62.5v-41h-410q-87 0 -146 59t-59 146v369q0 93 56 149t149 56h205v287q0 89 58 146.5t147 57.5h614v-286h-409v-205h532v-286z" />
    <glyph glyph-name="u063A" unicode="&#x63a;" horiz-adv-x="1536" arabic-form="isolated" 
d="M1536 1h-942v-247q0 -80 62.5 -142.5t142.5 -62.5v-41h-410q-87 0 -146 59t-59 146v369q0 93 56 149t149 56h205v287q0 89 58 146.5t147 57.5h614v-286h-409v-205h532v-286zM1178 1147q0 -68 -48 -116t-116 -48q-67 0 -115.5 48.5t-48.5 115.5q0 68 48 116t116 48
t116 -48t48 -116z" />
    <glyph glyph-name="u0641" unicode="&#x641;" horiz-adv-x="2111" arabic-form="isolated" 
d="M2111 205q0 -88 -58.5 -146.5t-145.5 -58.5h-1518q-86 0 -145.5 59t-59.5 145v410h410v-327h696q-86 0 -145.5 59.5t-59.5 145.5v205q0 89 58 146.5t147 57.5h617q90 0 147 -57t57 -147v-492zM1701 287v327h-206v-122q0 -86 60 -145.5t146 -59.5zM1766 1273
q0 -68 -48 -116t-116 -48q-67 0 -115.5 48.5t-48.5 115.5q0 68 48 116t116 48t116 -48t48 -116z" />
    <glyph glyph-name="u0642" unicode="&#x642;" horiz-adv-x="1906" arabic-form="isolated" 
d="M1906 -287q0 -92 -56.5 -148.5t-148.5 -56.5h-1312q-86 0 -145.5 59t-59.5 145v901h410v-818h902v205h-412q-86 0 -145 59.5t-59 145.5v489q0 90 57 147t147 57h617q91 0 148 -56.5t57 -147.5v-981zM1496 287v325h-206v-325h206zM1728 1273q0 -68 -47.5 -116t-115.5 -48
t-116 48t-48 116t48 116t116 48t115.5 -48t47.5 -116zM1400 1273q0 -68 -48 -116t-116 -48q-67 0 -115.5 48.5t-48.5 115.5q0 68 48 116t116 48t116 -48t48 -116z" />
    <glyph glyph-name="u0643" unicode="&#x643;" horiz-adv-x="2108" arabic-form="isolated" 
d="M2191 983h-901v-205h614q90 0 147 -57t57 -147v-370q0 -86 -59 -145t-145 -59h-1515q-86 0 -145.5 59t-59.5 145v410h410v-327h1105v205h-819v574q0 86 59 145t145 59h1107v-287z" />
    <glyph glyph-name="u0644" unicode="&#x644;" horiz-adv-x="1495" arabic-form="isolated" 
d="M1495 -287q0 -87 -59 -146t-146 -59h-901q-87 0 -146 59t-59 146v901h410v-819h491v1761h410v-1843z" />
    <glyph glyph-name="u0645" unicode="&#x645;" horiz-adv-x="1618" arabic-form="isolated" 
d="M1618 207q0 -85 -60 -145.5t-145 -60.5h-819v-493h-410v574q0 88 58.5 146.5t146.5 58.5h205v287q0 89 58 146.5t147 57.5h614q90 0 147.5 -57t57.5 -147v-367zM1208 287v205h-204v-205h204z" />
    <glyph glyph-name="u0646" unicode="&#x646;" horiz-adv-x="1495" arabic-form="isolated" 
d="M1495 -287q0 -87 -59 -146t-146 -59h-901q-87 0 -146 59t-59 146v1065h410v-983h491v983h410v-1065zM998 613q0 -68 -48 -116t-116 -48q-67 0 -115.5 48.5t-48.5 115.5q0 68 48 116t116 48t116 -48t48 -116z" />
    <glyph glyph-name="u0647" unicode="&#x647;" horiz-adv-x="1208" arabic-form="isolated" 
d="M1208 207q0 -89 -58 -147.5t-146 -58.5h-614q-91 0 -148.5 55.5t-57.5 145.5v372q0 89 58 146.5t147 57.5h615q87 0 145.5 -58.5t58.5 -145.5v-367zM799 287v205h-205v-205h205z" />
    <glyph glyph-name="u0648" unicode="&#x648;" horiz-adv-x="1208" arabic-form="isolated" 
d="M1208 -287q0 -87 -58.5 -146t-145.5 -59h-820v287h615v206h-615v573q0 89 58 146.5t147 57.5h615q89 0 146.5 -57.5t57.5 -146.5v-861zM799 287v205h-205v-205h205z" />
    <glyph glyph-name="u0649" unicode="&#x649;" horiz-adv-x="1618" arabic-form="isolated" 
d="M1618 -287q0 -87 -59 -146t-146 -59h-1024q-87 0 -146 59t-59 146v779h410v-697h614v206h-409v572q0 90 57.5 147.5t147.5 57.5h614v-286h-410v-205h410v-574z" />
    <glyph glyph-name="u064A" unicode="&#x64a;" horiz-adv-x="1618" arabic-form="isolated" 
d="M1618 -287q0 -87 -59 -146t-146 -59h-1024q-87 0 -146 59t-59 146v779h410v-697h614v206h-409v572q0 90 57.5 147.5t147.5 57.5h614v-286h-410v-205h410v-574z" />
    <glyph glyph-name="u067E" unicode="&#x67e;" horiz-adv-x="1740" arabic-form="isolated" 
d="M1740 205q0 -86 -59.5 -145t-145.5 -59h-1146q-86 0 -145.5 59t-59.5 145v573h410v-491h736v491h410v-573zM1273 -285q0 -68 -48 -116t-116 -48t-116 48t-48 116q0 67 48.5 115.5t115.5 48.5q68 0 116 -48t48 -116zM944 -285q0 -68 -48 -116t-116 -48t-116 48t-48 116
q0 67 48.5 115.5t115.5 48.5q68 0 116 -48t48 -116zM1108 -654q0 -68 -48 -116t-116 -48t-116 48t-48 116q0 67 48.5 115.5t115.5 48.5q68 0 116 -48t48 -116z" />
    <glyph glyph-name="u0686" unicode="&#x686;" horiz-adv-x="1536" arabic-form="isolated" 
d="M1536 1h-942v-247q0 -80 62.5 -142.5t142.5 -62.5v-41h-410q-87 0 -146 59t-59 146v369q0 93 56 149t149 56h615v205h-492v286h696q90 0 147.5 -57t57.5 -147v-287h123v-286zM1497 -283q0 -68 -48 -116t-116 -48t-116 48t-48 116q0 67 48.5 115.5t115.5 48.5
q68 0 116 -48t48 -116zM1168 -283q0 -68 -48 -116t-116 -48t-116 48t-48 116q0 67 48.5 115.5t115.5 48.5q68 0 116 -48t48 -116zM1332 -652q0 -68 -48 -116t-116 -48t-116 48t-48 116q0 67 48.5 115.5t115.5 48.5q68 0 116 -48t48 -116z" />
    <glyph glyph-name="u0698" unicode="&#x698;" horiz-adv-x="799" arabic-form="isolated" 
d="M799 -287q0 -87 -59 -146t-146 -59h-410v287h205v983h410v-1065zM925 1147q0 68 -48 116t-116 48t-116 -48t-48 -116q0 -67 48.5 -115.5t115.5 -48.5q68 0 116 48t48 116zM596 1147q0 68 -48 116t-116 48t-116 -48t-48 -116q0 -67 48.5 -115.5t115.5 -48.5q68 0 116 48
t48 116zM760 1516q0 68 -48 116t-116 48t-116 -48t-48 -116q0 -67 48.5 -115.5t115.5 -48.5q68 0 116 48t48 116z" />
    <glyph glyph-name="u06AF" unicode="&#x6af;" horiz-adv-x="2108" arabic-form="isolated" 
d="M2108 1290h-1024v144h1024v-144zM2191 942h-901v-164h614q90 0 147 -57t57 -147v-369q0 -86 -59 -145t-145 -59h-1515q-86 0 -145.5 59t-59.5 145v409h410v-327h1105v205h-819v492q0 86 59 145t145 59h1107v-246z" />
    <glyph glyph-name="uFB57" unicode="&#x67e;" horiz-adv-x="1740" arabic-form="final" 
d="M1772 1h-32v286h32v-286zM1740 205q0 -86 -59.5 -145t-145.5 -59h-1146q-86 0 -145.5 59t-59.5 145v573h410v-491h736v491h410v-573zM1273 -285q0 -68 -48 -116t-116 -48t-116 48t-48 116q0 67 48.5 115.5t115.5 48.5q68 0 116 -48t48 -116zM944 -285q0 -68 -48 -116
t-116 -48t-116 48t-48 116q0 67 48.5 115.5t115.5 48.5q68 0 116 -48t48 -116zM1108 -654q0 -68 -48 -116t-116 -48t-116 48t-48 116q0 67 48.5 115.5t115.5 48.5q68 0 116 -48t48 -116z" />
    <glyph glyph-name="uFB58" unicode="&#x67e;" horiz-adv-x="820" arabic-form="initial" 
d="M820 205q0 -86 -59.5 -145t-145.5 -59h-647v286h443v491h409v-573zM813 -285q0 -68 -48 -116t-116 -48t-116 48t-48 116q0 67 48.5 115.5t115.5 48.5q68 0 116 -48t48 -116zM484 -285q0 -68 -48 -116t-116 -48t-116 48t-48 116q0 67 48.5 115.5t115.5 48.5q68 0 116 -48
t48 -116zM648 -654q0 -68 -48 -116t-116 -48t-116 48t-48 116q0 67 48.5 115.5t115.5 48.5q68 0 116 -48t48 -116z" />
    <glyph glyph-name="uFB59" unicode="&#x67e;" horiz-adv-x="820" arabic-form="medial" 
d="M852 1h-32v286h32v-286zM820 205q0 -86 -59.5 -145t-145.5 -59h-647v286h443v491h409v-573zM813 -285q0 -68 -48 -116t-116 -48t-116 48t-48 116q0 67 48.5 115.5t115.5 48.5q68 0 116 -48t48 -116zM484 -285q0 -68 -48 -116t-116 -48t-116 48t-48 116q0 67 48.5 115.5
t115.5 48.5q68 0 116 -48t48 -116zM648 -654q0 -68 -48 -116t-116 -48t-116 48t-48 116q0 67 48.5 115.5t115.5 48.5q68 0 116 -48t48 -116z" />
    <glyph glyph-name="uFB7B" unicode="&#x686;" horiz-adv-x="1536" arabic-form="final" 
d="M1566 1h-972v-247q0 -80 62.5 -142.5t142.5 -62.5v-41h-410q-87 0 -146 59t-59 146v369q0 93 56 149t149 56h615v205h-492v286h696q90 0 147.5 -57t57.5 -147v-287h153v-286zM1497 -283q0 -68 -48 -116t-116 -48t-116 48t-48 116q0 67 48.5 115.5t115.5 48.5
q68 0 116 -48t48 -116zM1168 -283q0 -68 -48 -116t-116 -48t-116 48t-48 116q0 67 48.5 115.5t115.5 48.5q68 0 116 -48t48 -116zM1332 -652q0 -68 -48 -116t-116 -48t-116 48t-48 116q0 67 48.5 115.5t115.5 48.5q68 0 116 -48t48 -116z" />
    <glyph glyph-name="uFB7C" unicode="&#x686;" horiz-adv-x="1229" arabic-form="initial" 
d="M1229 1h-1260v286h727v205h-491v286h696q90 0 147.5 -57t57.5 -147v-287h123v-286zM985 -283q0 -68 -48 -116t-116 -48t-116 48t-48 116q0 67 48.5 115.5t115.5 48.5q68 0 116 -48t48 -116zM656 -283q0 -68 -48 -116t-116 -48t-116 48t-48 116q0 67 48.5 115.5
t115.5 48.5q68 0 116 -48t48 -116zM820 -652q0 -68 -48 -116t-116 -48t-116 48t-48 116q0 67 48.5 115.5t115.5 48.5q68 0 116 -48t48 -116z" />
    <glyph glyph-name="uFB7D" unicode="&#x686;" horiz-adv-x="1229" arabic-form="medial" 
d="M1260 1h-1291v286h727v205h-491v286h696q90 0 147.5 -57t57.5 -147v-287h154v-286zM985 -283q0 -68 -48 -116t-116 -48t-116 48t-48 116q0 67 48.5 115.5t115.5 48.5q68 0 116 -48t48 -116zM656 -283q0 -68 -48 -116t-116 -48t-116 48t-48 116q0 67 48.5 115.5
t115.5 48.5q68 0 116 -48t48 -116zM820 -652q0 -68 -48 -116t-116 -48t-116 48t-48 116q0 67 48.5 115.5t115.5 48.5q68 0 116 -48t48 -116z" />
    <glyph glyph-name="uFB8B" unicode="&#x698;" horiz-adv-x="799" arabic-form="final" 
d="M830 1h-31v286h31v-286zM799 -287q0 -87 -59 -146t-146 -59h-410v287h205v983h410v-1065zM925 1147q0 68 -48 116t-116 48t-116 -48t-48 -116q0 -67 48.5 -115.5t115.5 -48.5q68 0 116 48t48 116zM596 1147q0 68 -48 116t-116 48t-116 -48t-48 -116q0 -67 48.5 -115.5
t115.5 -48.5q68 0 116 48t48 116zM760 1516q0 68 -48 116t-116 48t-116 -48t-48 -116q0 -67 48.5 -115.5t115.5 -48.5q68 0 116 48t48 116z" />
    <glyph glyph-name="uFEDA" unicode="&#x6a9;" horiz-adv-x="2108" arabic-form="final" 
d="M2140 1h-32v286h32v-286zM2191 983h-901v-205h614q90 0 147 -57t57 -147v-370q0 -86 -59 -145t-145 -59h-1515q-86 0 -145.5 59t-59.5 145v410h410v-327h1105v205h-819v574q0 86 59 145t145 59h1107v-287z" />
    <glyph glyph-name="uFEDB" unicode="&#x6a9;" horiz-adv-x="1433" arabic-form="initial" 
d="M1516 983h-902v-205h614q90 0 147.5 -57.5t57.5 -146.5v-370q0 -86 -59.5 -145t-145.5 -59h-1259v287h1054v205h-819v574q0 86 59.5 145t145.5 59h1107v-287z" />
    <glyph glyph-name="uFEDC" unicode="&#x6a9;" horiz-adv-x="1433" arabic-form="medial" 
d="M1465 1h-32v286h32v-286zM1516 983h-902v-205h614q90 0 147.5 -57.5t57.5 -146.5v-370q0 -86 -59.5 -145t-145.5 -59h-1259v287h1054v205h-819v574q0 86 59.5 145t145.5 59h1107v-287z" />
    <glyph glyph-name="uFB93" unicode="&#x6af;" horiz-adv-x="2108" arabic-form="final" 
d="M2108 1290h-1024v144h1024v-144zM2140 1h-32v286h32v-286zM2191 942h-901v-164h614q90 0 147 -57t57 -147v-369q0 -86 -59 -145t-145 -59h-1515q-86 0 -145.5 59t-59.5 145v409h410v-327h1105v205h-819v492q0 86 59 145t145 59h1107v-246z" />
    <glyph glyph-name="uFB94" unicode="&#x6af;" horiz-adv-x="1433" arabic-form="initial" 
d="M1433 1290h-1024v144h1024v-144zM1516 942h-902v-164h614q90 0 147.5 -57.5t57.5 -146.5v-370q0 -86 -59.5 -145t-145.5 -59h-1259v287h1054v205h-819v492q0 86 59.5 145t145.5 59h1107v-246z" />
    <glyph glyph-name="uFB95" unicode="&#x6af;" horiz-adv-x="1433" arabic-form="medial" 
d="M1433 1290h-1024v144h1024v-144zM1465 1h-32v286h32v-286zM1516 942h-902v-164h614q90 0 147.5 -57.5t57.5 -146.5v-370q0 -86 -59.5 -145t-145.5 -59h-1259v287h1054v205h-819v492q0 86 59.5 145t145.5 59h1107v-246z" />
    <glyph glyph-name="uFE94" unicode="&#x6c0;" horiz-adv-x="1207" arabic-form="final" 
d="M1239 1h-32v286h32v-286zM1207 1h-205q-86 0 -145 59.5t-59 146.5v285h-205v-205h123v-286h-328q-85 0 -145 60.5t-60 145.5v367q0 89 58 146.5t147 57.5h614q90 0 147.5 -57t57.5 -147v-573zM955 988h-494v138h78v136q0 98 98 98h259v-137h-160v-97h219v-138z" />
    <glyph glyph-name="uFEF2" unicode="&#x6cc;" horiz-adv-x="1618" arabic-form="final" 
d="M1650 1h-32v286h32v-286zM1618 -287q0 -87 -59 -146t-146 -59h-1024q-87 0 -146 59t-59 146v779h410v-697h614v206h-409v286h819v-574z" />
    <glyph glyph-name="uFEF3" unicode="&#x6cc;" horiz-adv-x="822" arabic-form="initial" 
d="M820 205q0 -86 -59.5 -145t-145.5 -59h-647v286h443v491h409v-573zM816 -284q0 -68 -47.5 -116t-115.5 -48t-116 48t-48 116t48 116t116 48t115.5 -48t47.5 -116zM488 -284q0 -68 -48 -116t-116 -48t-116 48t-48 116q0 67 48.5 115.5t115.5 48.5q68 0 116 -48t48 -116z
" />
    <glyph glyph-name="uFEF4" unicode="&#x6cc;" horiz-adv-x="822" arabic-form="medial" 
d="M852 1h-32v286h32v-286zM820 205q0 -86 -59.5 -145t-145.5 -59h-647v286h443v491h409v-573zM816 -284q0 -68 -47.5 -116t-115.5 -48t-116 48t-48 116t48 116t116 48t115.5 -48t47.5 -116zM488 -284q0 -68 -48 -116t-116 -48t-116 48t-48 116q0 67 48.5 115.5t115.5 48.5
q68 0 116 -48t48 -116z" />
    <glyph glyph-name="Hcircumflex" unicode="&#x622;" horiz-adv-x="595" arabic-form="final" 
d="M798 1639h-614v123h-204v-123h-410v123q0 85 60 145t145 60h613v-123h205v123h205v-328zM594 1h-205q-86 0 -145.5 59t-59.5 145v1350h410v-1554zM626 1h-32v286h32v-286z" />
    <glyph glyph-name="uFE84" unicode="&#x623;" horiz-adv-x="595" arabic-form="final" 
d="M594 1h-205q-86 0 -145.5 59t-59.5 145v1130h410v-1334zM626 1h-32v286h32v-286zM594 1389h-412v115h65v113q0 82 82 82h216v-114h-134v-81h183v-115z" />
    <glyph glyph-name="uFE86" unicode="&#x624;" horiz-adv-x="1208" arabic-form="final" 
d="M1240 1h-32v286h32v-286zM1208 -287q0 -87 -58.5 -146t-145.5 -59h-820v287h615v206h-615v573q0 89 58 146.5t147 57.5h615q89 0 146.5 -57.5t57.5 -146.5v-861zM799 287v205h-205v-205h205zM955 988h-494v138h78v136q0 98 98 98h259v-137h-160v-97h219v-138z" />
    <glyph glyph-name="uFE88" unicode="&#x625;" horiz-adv-x="595" arabic-form="final" 
d="M594 1h-205q-86 0 -145.5 59t-59.5 145v1130h410v-1334zM626 1h-32v286h32v-286zM594 -396h-412v115h65v113q0 82 82 82h216v-114h-134v-81h183v-115z" />
    <glyph glyph-name="uFE8A" unicode="&#x626;" horiz-adv-x="1618" arabic-form="final" 
d="M1650 1h-32v286h32v-286zM1618 -287q0 -87 -59 -146t-146 -59h-1024q-87 0 -146 59t-59 146v779h410v-697h614v206h-409v286h819v-574zM594 675h-412v115h65v113q0 82 82 82h216v-114h-134v-81h183v-115z" />
    <glyph glyph-name="uFE8B" unicode="&#x626;" horiz-adv-x="615" arabic-form="initial" 
d="M615 205q0 -86 -59 -145t-145 -59h-443v286h238v491h409v-573zM614 909h-412v115h65v113q0 82 82 82h216v-114h-134v-81h183v-115z" />
    <glyph glyph-name="uFE8C" unicode="&#x626;" horiz-adv-x="615" arabic-form="medial" 
d="M647 1h-32v286h32v-286zM615 205q0 -86 -59 -145t-145 -59h-443v286h238v491h409v-573zM614 909h-412v115h65v113q0 82 82 82h216v-114h-134v-81h183v-115z" />
    <glyph glyph-name="uFE8E" unicode="&#x627;" horiz-adv-x="594" arabic-form="final" 
d="M594 1h-205q-86 0 -145.5 59t-59.5 145v1350h410v-1554zM626 1h-32v286h32v-286z" />
    <glyph glyph-name="uFE90" unicode="&#x628;" horiz-adv-x="1740" arabic-form="final" 
d="M1772 1h-32v286h32v-286zM1740 205q0 -86 -59.5 -145t-145.5 -59h-1146q-86 0 -145.5 59t-59.5 145v573h410v-491h736v491h410v-573zM1108 -283q0 -68 -48 -116t-116 -48t-116 48t-48 116q0 67 48.5 115.5t115.5 48.5q68 0 116 -48t48 -116z" />
    <glyph glyph-name="uFE91" unicode="&#x628;" horiz-adv-x="615" arabic-form="initial" 
d="M615 205q0 -86 -59 -145t-145 -59h-443v286h238v491h409v-573zM528 -283q0 -68 -48 -116t-116 -48t-116 48t-48 116q0 67 48.5 115.5t115.5 48.5q68 0 116 -48t48 -116z" />
    <glyph glyph-name="uFE92" unicode="&#x628;" horiz-adv-x="615" arabic-form="medial" 
d="M647 1h-32v286h32v-286zM615 205q0 -86 -59 -145t-145 -59h-443v286h238v491h409v-573zM528 -283q0 -68 -48 -116t-116 -48t-116 48t-48 116q0 67 48.5 115.5t115.5 48.5q68 0 116 -48t48 -116z" />
    <glyph glyph-name="uFE96" unicode="&#x62a;" horiz-adv-x="1740" arabic-form="final" 
d="M1772 1h-32v286h32v-286zM1740 205q0 -86 -59.5 -145t-145.5 -59h-1146q-86 0 -145.5 59t-59.5 145v573h410v-491h736v491h410v-573zM1277 1147q0 -68 -47.5 -116t-115.5 -48t-116 48t-48 116t48 116t116 48t115.5 -48t47.5 -116zM949 1147q0 -68 -48 -116t-116 -48
q-67 0 -115.5 48.5t-48.5 115.5q0 68 48 116t116 48t116 -48t48 -116z" />
    <glyph glyph-name="uFE97" unicode="&#x62a;" horiz-adv-x="820" arabic-form="initial" 
d="M820 205q0 -86 -59.5 -145t-145.5 -59h-647v286h443v491h409v-573zM944 1146q0 68 -48 116t-116 48t-116 -48t-48 -116q0 -67 48.5 -115.5t115.5 -48.5q68 0 116 48t48 116zM615 1146q0 68 -48 116t-116 48t-116 -48t-48 -116q0 -67 48.5 -115.5t115.5 -48.5q68 0 116 48
t48 116z" />
    <glyph glyph-name="uFE98" unicode="&#x62a;" horiz-adv-x="820" arabic-form="medial" 
d="M852 1h-32v286h32v-286zM820 205q0 -86 -59.5 -145t-145.5 -59h-647v286h443v491h409v-573zM944 1146q0 68 -48 116t-116 48t-116 -48t-48 -116q0 -67 48.5 -115.5t115.5 -48.5q68 0 116 48t48 116zM615 1146q0 68 -48 116t-116 48t-116 -48t-48 -116q0 -67 48.5 -115.5
t115.5 -48.5q68 0 116 48t48 116z" />
    <glyph glyph-name="uFE9A" unicode="&#x62b;" horiz-adv-x="1740" arabic-form="final" 
d="M1772 1h-32v286h32v-286zM1740 205q0 -86 -59.5 -145t-145.5 -59h-1146q-86 0 -145.5 59t-59.5 145v573h410v-491h736v491h410v-573zM1273 1146q0 68 -48 116t-116 48t-116 -48t-48 -116q0 -67 48.5 -115.5t115.5 -48.5q68 0 116 48t48 116zM944 1146q0 68 -48 116
t-116 48t-116 -48t-48 -116q0 -67 48.5 -115.5t115.5 -48.5q68 0 116 48t48 116zM1108 1515q0 68 -48 116t-116 48t-116 -48t-48 -116q0 -67 48.5 -115.5t115.5 -48.5q68 0 116 48t48 116z" />
    <glyph glyph-name="uFE9B" unicode="&#x62b;" horiz-adv-x="820" arabic-form="initial" 
d="M820 205q0 -86 -59.5 -145t-145.5 -59h-647v286h443v491h409v-573zM944 1146q0 68 -48 116t-116 48t-116 -48t-48 -116q0 -67 48.5 -115.5t115.5 -48.5q68 0 116 48t48 116zM615 1146q0 68 -48 116t-116 48t-116 -48t-48 -116q0 -67 48.5 -115.5t115.5 -48.5q68 0 116 48
t48 116zM779 1515q0 68 -48 116t-116 48t-116 -48t-48 -116q0 -67 48.5 -115.5t115.5 -48.5q68 0 116 48t48 116z" />
    <glyph glyph-name="uFE9C" unicode="&#x62b;" horiz-adv-x="820" arabic-form="medial" 
d="M852 1h-32v286h32v-286zM820 205q0 -86 -59.5 -145t-145.5 -59h-647v286h443v491h409v-573zM944 1146q0 68 -48 116t-116 48t-116 -48t-48 -116q0 -67 48.5 -115.5t115.5 -48.5q68 0 116 48t48 116zM615 1146q0 68 -48 116t-116 48t-116 -48t-48 -116q0 -67 48.5 -115.5
t115.5 -48.5q68 0 116 48t48 116zM779 1515q0 68 -48 116t-116 48t-116 -48t-48 -116q0 -67 48.5 -115.5t115.5 -48.5q68 0 116 48t48 116z" />
    <glyph glyph-name="uFE9E" unicode="&#x62c;" horiz-adv-x="1536" arabic-form="final" 
d="M1567 1h-973v-247q0 -80 62.5 -142.5t142.5 -62.5v-41h-410q-87 0 -146 59t-59 146v369q0 93 56 149t149 56h615v205h-492v286h696q90 0 147.5 -57t57.5 -147v-287h154v-286zM1148 -283q0 -68 -48 -116t-116 -48t-116 48t-48 116q0 67 48.5 115.5t115.5 48.5
q68 0 116 -48t48 -116z" />
    <glyph glyph-name="uFE9F" unicode="&#x62c;" horiz-adv-x="1229" arabic-form="initial" 
d="M1229 1h-1260v286h727v205h-491v286h696q90 0 147.5 -57t57.5 -147v-287h123v-286zM848 -283q0 -68 -48 -116t-116 -48t-116 48t-48 116q0 67 48.5 115.5t115.5 48.5q68 0 116 -48t48 -116z" />
    <glyph glyph-name="uFEA0" unicode="&#x62c;" horiz-adv-x="1229" arabic-form="medial" 
d="M1260 1h-1291v286h727v205h-491v286h696q90 0 147.5 -57t57.5 -147v-287h154v-286zM848 -283q0 -68 -48 -116t-116 -48t-116 48t-48 116q0 67 48.5 115.5t115.5 48.5q68 0 116 -48t48 -116z" />
    <glyph glyph-name="uFEA2" unicode="&#x62d;" horiz-adv-x="1536" arabic-form="final" 
d="M1567 1h-973v-247q0 -80 62.5 -142.5t142.5 -62.5v-41h-410q-87 0 -146 59t-59 146v369q0 93 56 149t149 56h615v205h-492v286h696q90 0 147.5 -57t57.5 -147v-287h154v-286z" />
    <glyph glyph-name="uFEA3" unicode="&#x62d;" horiz-adv-x="1229" arabic-form="initial" 
d="M1229 1h-1260v286h727v205h-491v286h696q90 0 147.5 -57t57.5 -147v-287h123v-286z" />
    <glyph glyph-name="uFEA4" unicode="&#x62d;" horiz-adv-x="1229" arabic-form="medial" 
d="M1260 1h-1291v286h727v205h-491v286h696q90 0 147.5 -57t57.5 -147v-287h154v-286z" />
    <glyph glyph-name="uFEA6" unicode="&#x62e;" horiz-adv-x="1536" arabic-form="final" 
d="M1567 1h-973v-247q0 -80 62.5 -142.5t142.5 -62.5v-41h-410q-87 0 -146 59t-59 146v369q0 93 56 149t149 56h615v205h-492v286h696q90 0 147.5 -57t57.5 -147v-287h154v-286zM1148 1148q0 -68 -48 -116t-116 -48q-67 0 -115.5 48.5t-48.5 115.5q0 68 48 116t116 48
t116 -48t48 -116z" />
    <glyph glyph-name="uFEA7" unicode="&#x62e;" horiz-adv-x="1229" arabic-form="initial" 
d="M1229 1h-1260v286h727v205h-491v286h696q90 0 147.5 -57t57.5 -147v-287h123v-286zM848 1148q0 -68 -48 -116t-116 -48q-67 0 -115.5 48.5t-48.5 115.5q0 68 48 116t116 48t116 -48t48 -116z" />
    <glyph glyph-name="uFEA8" unicode="&#x62e;" horiz-adv-x="1229" arabic-form="medial" 
d="M1260 1h-1291v286h727v205h-491v286h696q90 0 147.5 -57t57.5 -147v-287h154v-286zM848 1148q0 -68 -48 -116t-116 -48q-67 0 -115.5 48.5t-48.5 115.5q0 68 48 116t116 48t116 -48t48 -116z" />
    <glyph glyph-name="uFEAA" unicode="&#x62f;" horiz-adv-x="1136" arabic-form="final" 
d="M1165 1h-31v286h31v-286zM1134 206q0 -73 -51 -134q-60 -71 -154 -71h-745v286h540v205h-417v286h622q90 0 147.5 -57t57.5 -147v-368z" />
    <glyph glyph-name="uFEAC" unicode="&#x630;" horiz-adv-x="1136" arabic-form="final" 
d="M1165 1h-31v286h31v-286zM1134 206q0 -73 -51 -134q-60 -71 -154 -71h-745v286h540v205h-417v286h622q90 0 147.5 -57t57.5 -147v-368zM818 1148q0 -68 -48 -116t-116 -48q-67 0 -115.5 48.5t-48.5 115.5q0 68 48 116t116 48t116 -48t48 -116z" />
    <glyph glyph-name="uFEAE" unicode="&#x631;" horiz-adv-x="799" arabic-form="final" 
d="M830 1h-31v286h31v-286zM799 -287q0 -87 -59 -146t-146 -59h-410v287h205v983h410v-1065z" />
    <glyph glyph-name="uFEB0" unicode="&#x632;" horiz-adv-x="799" arabic-form="final" 
d="M830 1h-31v286h31v-286zM799 -287q0 -87 -59 -146t-146 -59h-410v287h205v983h410v-1065zM758 1148q0 -68 -48 -116t-116 -48q-67 0 -115.5 48.5t-48.5 115.5q0 68 48 116t116 48t116 -48t48 -116z" />
    <glyph glyph-name="uFEB2" unicode="&#x633;" horiz-adv-x="2724" arabic-form="final" 
d="M2756 1h-32v286h32v-286zM2724 206q0 -92 -56.5 -148.5t-148.5 -56.5h-1024v-288q0 -87 -59 -146t-146 -59h-901q-87 0 -146 59t-59 146v901h410v-819h491v983h410v-491h205v491h409v-491h205v491h410v-572z" />
    <glyph glyph-name="uFEB3" unicode="&#x633;" horiz-adv-x="1843" arabic-form="initial" 
d="M1843 206q0 -73 -51 -134q-60 -71 -154 -71h-1669v286h236v491h409v-491h205v491h410v-491h205v491h409v-572z" />
    <glyph glyph-name="uFEB4" unicode="&#x633;" horiz-adv-x="1843" arabic-form="medial" 
d="M1875 1h-32v286h32v-286zM1843 206q0 -73 -51 -134q-60 -71 -154 -71h-1669v286h236v491h409v-491h205v491h410v-491h205v491h409v-572z" />
    <glyph glyph-name="uFEB6" unicode="&#x634;" horiz-adv-x="2724" arabic-form="final" 
d="M2756 1h-32v286h32v-286zM2724 206q0 -92 -56.5 -148.5t-148.5 -56.5h-1024v-288q0 -87 -59 -146t-146 -59h-901q-87 0 -146 59t-59 146v901h410v-819h491v983h410v-491h205v491h409v-491h205v491h410v-572zM2235 1147q0 68 -48 116t-116 48t-116 -48t-48 -116
q0 -67 48.5 -115.5t115.5 -48.5q68 0 116 48t48 116zM1906 1147q0 68 -48 116t-116 48t-116 -48t-48 -116q0 -67 48.5 -115.5t115.5 -48.5q68 0 116 48t48 116zM2070 1516q0 68 -48 116t-116 48t-116 -48t-48 -116q0 -67 48.5 -115.5t115.5 -48.5q68 0 116 48t48 116z" />
    <glyph glyph-name="uFEB7" unicode="&#x634;" horiz-adv-x="1843" arabic-form="initial" 
d="M1843 206q0 -73 -51 -134q-60 -71 -154 -71h-1669v286h236v491h409v-491h205v491h410v-491h205v491h409v-572zM1355 1147q0 68 -48 116t-116 48t-116 -48t-48 -116q0 -67 48.5 -115.5t115.5 -48.5q68 0 116 48t48 116zM1026 1147q0 68 -48 116t-116 48t-116 -48t-48 -116
q0 -67 48.5 -115.5t115.5 -48.5q68 0 116 48t48 116zM1190 1516q0 68 -48 116t-116 48t-116 -48t-48 -116q0 -67 48.5 -115.5t115.5 -48.5q68 0 116 48t48 116z" />
    <glyph glyph-name="uFEB8" unicode="&#x634;" horiz-adv-x="1843" arabic-form="medial" 
d="M1875 1h-32v286h32v-286zM1843 206q0 -73 -51 -134q-60 -71 -154 -71h-1669v286h236v491h409v-491h205v491h410v-491h205v491h409v-572zM1355 1147q0 68 -48 116t-116 48t-116 -48t-48 -116q0 -67 48.5 -115.5t115.5 -48.5q68 0 116 48t48 116zM1026 1147q0 68 -48 116
t-116 48t-116 -48t-48 -116q0 -67 48.5 -115.5t115.5 -48.5q68 0 116 48t48 116zM1190 1516q0 68 -48 116t-116 48t-116 -48t-48 -116q0 -67 48.5 -115.5t115.5 -48.5q68 0 116 48t48 116z" />
    <glyph glyph-name="uFEBA" unicode="&#x635;" horiz-adv-x="2847" arabic-form="final" 
d="M2878 1h-31v286h31v-286zM2847 206q0 -91 -57 -148t-148 -57h-1147v-288q0 -87 -59 -146t-146 -59h-901q-87 0 -146 59t-59 146v901h410v-819h491v983h410v-491l282 352q111 139 279 139h586q90 0 147.5 -57t57.5 -147v-368zM2437 287v205h-328l-163 -205h491z" />
    <glyph glyph-name="uFEBB" unicode="&#x635;" horiz-adv-x="1966" arabic-form="initial" 
d="M1966 206q0 -88 -58.5 -146.5t-146.5 -58.5h-1792v286h236v491h409v-491l282 352q111 139 280 139h585q90 0 147.5 -57t57.5 -147v-368zM1556 287v205h-327l-164 -205h491z" />
    <glyph glyph-name="uFEBC" unicode="&#x635;" horiz-adv-x="1966" arabic-form="medial" 
d="M1998 1h-32v286h32v-286zM1966 206q0 -88 -58.5 -146.5t-146.5 -58.5h-1792v286h236v491h409v-491l282 352q111 139 280 139h585q90 0 147.5 -57t57.5 -147v-368zM1556 287v205h-327l-164 -205h491z" />
    <glyph glyph-name="uFEBE" unicode="&#x636;" horiz-adv-x="2847" arabic-form="final" 
d="M2878 1h-31v286h31v-286zM2847 206q0 -91 -57 -148t-148 -57h-1147v-288q0 -87 -59 -146t-146 -59h-901q-87 0 -146 59t-59 146v901h410v-819h491v983h410v-491l282 352q111 139 279 139h586q90 0 147.5 -57t57.5 -147v-368zM2437 287v205h-328l-163 -205h491zM2428 1147
q0 -68 -48 -116t-116 -48q-67 0 -115.5 48.5t-48.5 115.5q0 68 48 116t116 48t116 -48t48 -116z" />
    <glyph glyph-name="uFEBF" unicode="&#x636;" horiz-adv-x="1966" arabic-form="initial" 
d="M1966 206q0 -88 -58.5 -146.5t-146.5 -58.5h-1792v286h236v491h409v-491l282 352q111 139 280 139h585q90 0 147.5 -57t57.5 -147v-368zM1556 287v205h-327l-164 -205h491zM1548 1148q0 -68 -48 -116t-116 -48q-67 0 -115.5 48.5t-48.5 115.5q0 68 48 116t116 48t116 -48
t48 -116z" />
    <glyph glyph-name="uFEC0" unicode="&#x636;" horiz-adv-x="1966" arabic-form="medial" 
d="M1998 1h-32v286h32v-286zM1966 206q0 -88 -58.5 -146.5t-146.5 -58.5h-1792v286h236v491h409v-491l282 352q111 139 280 139h585q90 0 147.5 -57t57.5 -147v-368zM1556 287v205h-327l-164 -205h491zM1548 1148q0 -68 -48 -116t-116 -48q-67 0 -115.5 48.5t-48.5 115.5
q0 68 48 116t116 48t116 -48t48 -116z" />
    <glyph glyph-name="uFEC2" unicode="&#x637;" horiz-adv-x="1802" arabic-form="final" 
d="M1834 1h-32v286h32v-286zM1802 206q0 -89 -58 -147t-146 -58h-1415v286h266l281 352q111 139 203 139v778h410v-574q0 -89 -57.5 -146.5t-146.5 -57.5h459q90 0 147 -57t57 -147v-368zM1393 287v205h-330l-164 -205h494z" />
    <glyph glyph-name="uFEC3" unicode="&#x637;" horiz-adv-x="1560" arabic-form="initial" 
d="M1562 206q0 -89 -58 -147t-146 -58h-1385v286h236l281 352q111 139 203 139v778h410v-574q0 -89 -57.5 -146.5t-146.5 -57.5h459q90 0 147 -57t57 -147v-368zM1153 287v205h-330l-164 -205h494z" />
    <glyph glyph-name="uFEC4" unicode="&#x637;" horiz-adv-x="1564" arabic-form="medial" 
d="M1594 1h-32v286h32v-286zM1562 206q0 -89 -58 -147t-146 -58h-1385v286h236l281 352q111 139 203 139v778h410v-574q0 -89 -57.5 -146.5t-146.5 -57.5h459q90 0 147 -57t57 -147v-368zM1153 287v205h-330l-164 -205h494z" />
    <glyph glyph-name="uFEC6" unicode="&#x638;" horiz-adv-x="1802" arabic-form="final" 
d="M1834 1h-32v286h32v-286zM1802 206q0 -89 -58 -147t-146 -58h-1415v286h266l281 352q111 139 203 139v778h410v-574q0 -89 -57.5 -146.5t-146.5 -57.5h459q90 0 147 -57t57 -147v-368zM1393 287v205h-330l-164 -205h494zM1768 1148q0 -68 -48 -116t-116 -48
q-67 0 -115.5 48.5t-48.5 115.5q0 68 48 116t116 48t116 -48t48 -116z" />
    <glyph glyph-name="uFEC7" unicode="&#x638;" horiz-adv-x="1564" arabic-form="initial" 
d="M1562 206q0 -89 -58 -147t-146 -58h-1385v286h236l281 352q111 139 203 139v778h410v-574q0 -89 -57.5 -146.5t-146.5 -57.5h459q90 0 147 -57t57 -147v-368zM1153 287v205h-330l-164 -205h494zM1518 1148q0 -68 -48 -116t-116 -48q-67 0 -115.5 48.5t-48.5 115.5
q0 68 48 116t116 48t116 -48t48 -116z" />
    <glyph glyph-name="uFEC8" unicode="&#x638;" horiz-adv-x="1564" arabic-form="medial" 
d="M1594 1h-32v286h32v-286zM1562 206q0 -89 -58 -147t-146 -58h-1385v286h236l281 352q111 139 203 139v778h410v-574q0 -89 -57.5 -146.5t-146.5 -57.5h459q90 0 147 -57t57 -147v-368zM1153 287v205h-330l-164 -205h494zM1518 1148q0 -68 -48 -116t-116 -48
q-67 0 -115.5 48.5t-48.5 115.5q0 68 48 116t116 48t116 -48t48 -116z" />
    <glyph glyph-name="uFECA" unicode="&#x639;" horiz-adv-x="1536" arabic-form="final" 
d="M1566 1h-972v-247q0 -80 62.5 -142.5t142.5 -62.5v-41h-410q-87 0 -146 59t-59 146v369q0 93 56 149t149 56h205v287q0 89 58 146.5t147 57.5h737v-286l-205 -205h235v-286zM1208 492h-204v-205z" />
    <glyph glyph-name="uFECB" unicode="&#x639;" horiz-adv-x="1147" arabic-form="initial" 
d="M1147 1h-1178v286h236v287q0 89 58 146.5t147 57.5h614v-286h-410v-205h533v-286z" />
    <glyph glyph-name="uFECC" unicode="&#x639;" horiz-adv-x="1147" arabic-form="medial" 
d="M1177 1h-1208v286h236v287q0 89 58 146.5t147 57.5h737v-286l-205 -205h235v-286zM819 492h-205v-205z" />
    <glyph glyph-name="uFECE" unicode="&#x63a;" horiz-adv-x="1536" arabic-form="final" 
d="M1566 1h-972v-247q0 -80 62.5 -142.5t142.5 -62.5v-41h-410q-87 0 -146 59t-59 146v369q0 93 56 149t149 56h205v287q0 89 58 146.5t147 57.5h737v-286l-205 -205h235v-286zM1208 492h-204v-205zM1248 1148q0 -68 -48 -116t-116 -48q-67 0 -115.5 48.5t-48.5 115.5
q0 68 48 116t116 48t116 -48t48 -116z" />
    <glyph glyph-name="uFECF" unicode="&#x63a;" horiz-adv-x="1147" arabic-form="initial" 
d="M1147 1h-1178v286h236v287q0 89 58 146.5t147 57.5h614v-286h-410v-205h533v-286zM778 1148q0 -68 -48 -116t-116 -48q-67 0 -115.5 48.5t-48.5 115.5q0 68 48 116t116 48t116 -48t48 -116z" />
    <glyph glyph-name="uFED0" unicode="&#x63a;" horiz-adv-x="1147" arabic-form="medial" 
d="M1177 1h-1208v286h236v287q0 89 58 146.5t147 57.5h737v-286l-205 -205h235v-286zM819 492h-205v-205zM858 1148q0 -68 -48 -116t-116 -48q-67 0 -115.5 48.5t-48.5 115.5q0 68 48 116t116 48t116 -48t48 -116z" />
    <glyph glyph-name="uFED2" unicode="&#x641;" horiz-adv-x="2111" arabic-form="final" 
d="M2143 1h-32v286h32v-286zM2111 205q0 -88 -58.5 -146.5t-145.5 -58.5h-1518q-86 0 -145.5 59t-59.5 145v410h410v-327h696q-86 0 -145.5 59.5t-59.5 145.5v205q0 89 58 146.5t147 57.5h617q90 0 147 -57t57 -147v-492zM1701 287v327h-206v-122q0 -86 60 -145.5t146 -59.5
zM1766 1273q0 -68 -48 -116t-116 -48q-67 0 -115.5 48.5t-48.5 115.5q0 68 48 116t116 48t116 -48t48 -116z" />
    <glyph glyph-name="uFED3" unicode="&#x641;" horiz-adv-x="1230" arabic-form="initial" 
d="M1230 205q0 -73 -51 -134q-60 -71 -154 -71h-1056v287h440q-86 0 -145.5 59.5t-59.5 145.5v205q0 89 58 146.5t147 57.5h616q90 0 147.5 -57t57.5 -147v-492zM819 287v327h-206v-122q0 -86 60 -145.5t146 -59.5zM884 1273q0 -68 -48 -116t-116 -48q-67 0 -115.5 48.5
t-48.5 115.5q0 68 48 116t116 48t116 -48t48 -116z" />
    <glyph glyph-name="uFED4" unicode="&#x641;" horiz-adv-x="1230" arabic-form="medial" 
d="M1262 1h-32v286h32v-286zM1230 205q0 -73 -51 -134q-60 -71 -154 -71h-1056v287h440q-86 0 -145.5 59.5t-59.5 145.5v205q0 89 58 146.5t147 57.5h616q90 0 147.5 -57t57.5 -147v-492zM819 287v327h-206v-122q0 -86 60 -145.5t146 -59.5zM884 1273q0 -68 -48 -116
t-116 -48q-67 0 -115.5 48.5t-48.5 115.5q0 68 48 116t116 48t116 -48t48 -116z" />
    <glyph glyph-name="uFED6" unicode="&#x642;" horiz-adv-x="1906" arabic-form="final" 
d="M1938 1h-32v286h32v-286zM1906 -287q0 -92 -56.5 -148.5t-148.5 -56.5h-1312q-86 0 -145.5 59t-59.5 145v901h410v-818h902v205h-412q-86 0 -145 59.5t-59 145.5v489q0 90 57 147t147 57h617q91 0 148 -56.5t57 -147.5v-981zM1496 287v325h-206v-325h206zM1728 1273
q0 -68 -47.5 -116t-115.5 -48t-116 48t-48 116t48 116t116 48t115.5 -48t47.5 -116zM1400 1273q0 -68 -48 -116t-116 -48q-67 0 -115.5 48.5t-48.5 115.5q0 68 48 116t116 48t116 -48t48 -116z" />
    <glyph glyph-name="uFED7" unicode="&#x642;" horiz-adv-x="1230" arabic-form="initial" 
d="M1230 205q0 -73 -51 -134q-60 -71 -154 -71h-1056v287h440q-86 0 -145.5 59.5t-59.5 145.5v205q0 89 58 146.5t147 57.5h616q90 0 147.5 -57t57.5 -147v-492zM819 287v327h-206v-122q0 -86 60 -145.5t146 -59.5zM1048 1273q0 -68 -47.5 -116t-115.5 -48t-116 48t-48 116
t48 116t116 48t115.5 -48t47.5 -116zM720 1273q0 -68 -48 -116t-116 -48q-67 0 -115.5 48.5t-48.5 115.5q0 68 48 116t116 48t116 -48t48 -116z" />
    <glyph glyph-name="uFED8" unicode="&#x642;" horiz-adv-x="1230" arabic-form="medial" 
d="M1262 1h-32v286h32v-286zM1230 205q0 -73 -51 -134q-60 -71 -154 -71h-1056v287h440q-86 0 -145.5 59.5t-59.5 145.5v205q0 89 58 146.5t147 57.5h616q90 0 147.5 -57t57.5 -147v-492zM819 287v327h-206v-122q0 -86 60 -145.5t146 -59.5zM1048 1273q0 -68 -47.5 -116
t-115.5 -48t-116 48t-48 116t48 116t116 48t115.5 -48t47.5 -116zM720 1273q0 -68 -48 -116t-116 -48q-67 0 -115.5 48.5t-48.5 115.5q0 68 48 116t116 48t116 -48t48 -116z" />
    <glyph glyph-name="uFEDE" unicode="&#x644;" horiz-adv-x="1495" arabic-form="final" 
d="M1528 1h-32v286h32v-286zM1495 -287q0 -87 -59 -146t-146 -59h-901q-87 0 -146 59t-59 146v901h410v-819h491v1761h410v-1843z" />
    <glyph glyph-name="uFEDF" unicode="&#x644;" horiz-adv-x="614" arabic-form="initial" 
d="M614 206q0 -87 -58.5 -146t-145.5 -59h-441v286h236v1269h409v-1350z" />
    <glyph glyph-name="uFEE0" unicode="&#x644;" horiz-adv-x="614" arabic-form="medial" 
d="M614 206q0 -87 -58.5 -146t-145.5 -59h-441v286h236v1269h409v-1350zM646 1h-32v286h32v-286z" />
    <glyph glyph-name="uFEE2" unicode="&#x645;" horiz-adv-x="1618" arabic-form="final" 
d="M1650 1h-32v286h32v-286zM1618 207q0 -85 -60 -145.5t-145 -60.5h-819v-493h-410v574q0 88 58.5 146.5t146.5 58.5h205v287q0 89 58 146.5t147 57.5h614q90 0 147.5 -57t57.5 -147v-367zM1208 287v205h-204v-205h204z" />
    <glyph glyph-name="uFEE3" unicode="&#x645;" horiz-adv-x="1229" arabic-form="initial" 
d="M1229 207q0 -85 -60 -145.5t-145 -60.5h-410v286h205v205h-205v-285q0 -88 -58.5 -147t-145.5 -59h-441v286h236v287q0 89 58 146.5t147 57.5h614q90 0 147.5 -57t57.5 -147v-367z" />
    <glyph glyph-name="uFEE4" unicode="&#x645;" horiz-adv-x="1229" arabic-form="medial" 
d="M1261 1h-32v286h32v-286zM1229 207q0 -85 -60 -145.5t-145 -60.5h-410v286h205v205h-205v-285q0 -88 -58.5 -147t-145.5 -59h-441v286h236v287q0 89 58 146.5t147 57.5h614q90 0 147.5 -57t57.5 -147v-367z" />
    <glyph glyph-name="uFEE6" unicode="&#x646;" horiz-adv-x="1495" arabic-form="final" 
d="M1527 1h-32v286h32v-286zM1495 -287q0 -87 -59 -146t-146 -59h-901q-87 0 -146 59t-59 146v1065h410v-983h491v983h410v-1065zM998 613q0 -68 -48 -116t-116 -48q-67 0 -115.5 48.5t-48.5 115.5q0 68 48 116t116 48t116 -48t48 -116z" />
    <glyph glyph-name="uFEE7" unicode="&#x646;" horiz-adv-x="615" arabic-form="initial" 
d="M615 205q0 -86 -59 -145t-145 -59h-443v286h238v491h409v-573zM561 1147q0 -68 -48 -116t-116 -48q-67 0 -115.5 48.5t-48.5 115.5q0 68 48 116t116 48t116 -48t48 -116z" />
    <glyph glyph-name="uFEE8" unicode="&#x646;" horiz-adv-x="615" arabic-form="medial" 
d="M647 1h-32v286h32v-286zM615 205q0 -86 -59 -145t-145 -59h-443v286h238v491h409v-573zM561 1147q0 -68 -48 -116t-116 -48q-67 0 -115.5 48.5t-48.5 115.5q0 68 48 116t116 48t116 -48t48 -116z" />
    <glyph glyph-name="uFEEA" unicode="&#x647;" horiz-adv-x="1207" arabic-form="final" 
d="M1239 1h-32v286h32v-286zM1207 1h-205q-86 0 -145 59.5t-59 146.5v285h-205v-205h123v-286h-328q-85 0 -145 60.5t-60 145.5v367q0 89 58 146.5t147 57.5h614q90 0 147.5 -57t57.5 -147v-573z" />
    <glyph glyph-name="uFEEB" unicode="&#x647;" horiz-adv-x="1843" arabic-form="initial" 
d="M1843 207q0 -74 -51 -135q-60 -71 -154 -71h-1669v286h236v287q0 89 58 146.5t147 57.5h409v205h410v-205h409q90 0 147.5 -57t57.5 -147v-367zM1434 287v205h-205v-205h205zM819 287v205h-205v-205h205z" />
    <glyph glyph-name="uFEEC" unicode="&#x647;" horiz-adv-x="1843" arabic-form="medial" 
d="M1875 1h-32v286h32v-286zM1843 207q0 -74 -51 -135q-60 -71 -154 -71h-1669v286h236v287q0 89 58 146.5t147 57.5h409v205h410v-205h409q90 0 147.5 -57t57.5 -147v-367zM1434 287v205h-205v-205h205zM819 287v205h-205v-205h205z" />
    <glyph glyph-name="uFEEE" unicode="&#x648;" horiz-adv-x="1208" arabic-form="final" 
d="M1240 1h-32v286h32v-286zM1208 -287q0 -87 -58.5 -146t-145.5 -59h-820v287h615v206h-615v573q0 89 58 146.5t147 57.5h615q89 0 146.5 -57.5t57.5 -146.5v-861zM799 287v205h-205v-205h205z" />
    <glyph glyph-name="uFEF0" unicode="&#x649;" horiz-adv-x="1618" arabic-form="final" 
d="M1650 1h-32v286h32v-286zM1618 -287q0 -87 -59 -146t-146 -59h-1024q-87 0 -146 59t-59 146v779h410v-697h614v206h-409v286h819v-574z" />
    <glyph glyph-name=".notdef" horiz-adv-x="1024" 
d="M128 0v1359h768v-1359h-768zM256 128h512v1103h-512v-1103z" />
    <glyph glyph-name=".null" 
 />
    <glyph glyph-name="nonmarkingreturn" horiz-adv-x="400" 
 />
    <glyph glyph-name="space" unicode=" " horiz-adv-x="400" 
 />
    <glyph glyph-name="exclam" unicode="!" horiz-adv-x="594" 
d="M594 390h-410v1023h205q86 0 145.5 -59t59.5 -145v-819zM553 63q0 -68 -48 -115.5t-116 -47.5t-116 47.5t-48 115.5t48 116t116 48t116 -48t48 -116z" />
    <glyph glyph-name="percent" unicode="%" horiz-adv-x="1005" 
d="M512 1188q0 -68 -48 -116t-116 -48q-67 0 -115.5 48.5t-48.5 115.5q0 68 48 116t116 48t116 -48t48 -116zM1005 1434l-534 -1434h-287l533 1434h288zM1005 246q0 -68 -48 -116t-116 -48q-67 0 -115.5 48.5t-48.5 115.5q0 68 48 116t116 48t116 -48t48 -116z" />
    <glyph glyph-name="parenleft" unicode="(" horiz-adv-x="860" 
d="M860 -204h-471q-88 0 -146.5 58.5t-58.5 146.5v1432q0 87 59 145.5t146 58.5h471v-285h-266v-1270h266v-286z" />
    <glyph glyph-name="parenright" unicode=")" horiz-adv-x="860" 
d="M184 -204h471q88 0 146.5 58.5t58.5 146.5v1432q0 87 -59 145.5t-146 58.5h-471v-285h266v-1270h-266v-286z" />
    <glyph glyph-name="asterisk" unicode="*" horiz-adv-x="1595" 
d="M1588 702q0 -57 -37.5 -95t-94.5 -38h-251l271 -271l-94 -94q-41 -41 -95 -41q-53 0 -93 40l-177 178v-383h-133q-57 0 -95 37.5t-38 94.5v251l-271 -271l-94 94q-41 41 -41 95q0 53 40 93l177 177h-382v133q0 57 37.5 95t94.5 38h249l-269 271l94 94q41 41 95 41
q53 0 93 -40l176 -177l1 382h133q57 0 95 -37.5t38 -94.5v-251l271 271l94 -94q41 -41 41 -95q0 -53 -40 -93l-178 -177h383v-133zM1030 700q0 58 -41 99t-99 41t-99 -41t-41 -99t41 -99t99 -41t99 41t41 99z" />
    <glyph glyph-name="plus" unicode="+" horiz-adv-x="1413" 
d="M1413 370h-409v-369h-410v369h-410v244h410v368h410v-368h409v-244z" />
    <glyph glyph-name="comma" unicode="," horiz-adv-x="512" 
d="M179 331h122q95 0 152 -72q53 -66 53 -163v-92q0 -142 -91 -269q-100 -140 -236 -140v205q122 48 122 204h-122v327z" />
    <glyph glyph-name="hyphen" unicode="-" horiz-adv-x="1413" 
d="M1413 370h-1229v244h1229v-244z" />
    <glyph glyph-name="period" unicode="." horiz-adv-x="512" 
d="M512 1h-122q-205 0 -205 203v124h327v-327z" />
    <glyph glyph-name="slash" unicode="/" horiz-adv-x="1005" 
d="M1005 1556l-534 -1679h-287l533 1679h288z" />
    <glyph glyph-name="zero" unicode="0" horiz-adv-x="814" 
d="M747 288h-533v532h328q86 0 145.5 -59t59.5 -145v-328z" />
    <glyph glyph-name="zero" unicode="&#x6f0;" horiz-adv-x="814" 
d="M747 288h-533v532h328q86 0 145.5 -59t59.5 -145v-328z" />
    <glyph glyph-name="zero" unicode="&#x660;" horiz-adv-x="814" 
d="M747 288h-533v532h328q86 0 145.5 -59t59.5 -145v-328z" />
    <glyph glyph-name="one" unicode="1" horiz-adv-x="797" 
d="M666 1h-409v1433h409v-1433z" />
    <glyph glyph-name="one" unicode="&#x6f1;" horiz-adv-x="797" 
d="M666 1h-409v1433h409v-1433z" />
    <glyph glyph-name="one" unicode="&#x661;" horiz-adv-x="797" 
d="M666 1h-409v1433h409v-1433z" />
    <glyph glyph-name="two" unicode="2" horiz-adv-x="1208" 
d="M1208 821q0 -89 -58 -147.5t-146 -58.5h-410v-614h-410v1433h410v-533h205v533h409v-613z" />
    <glyph glyph-name="two" unicode="&#x6f2;" horiz-adv-x="1208" 
d="M1208 821q0 -89 -58 -147.5t-146 -58.5h-410v-614h-410v1433h410v-533h205v533h409v-613z" />
    <glyph glyph-name="two" unicode="&#x662;" horiz-adv-x="1208" 
d="M1208 821q0 -89 -58 -147.5t-146 -58.5h-410v-614h-410v1433h410v-533h205v533h409v-613z" />
    <glyph glyph-name="three" unicode="3" horiz-adv-x="1618" 
d="M1618 821q0 -89 -58 -147.5t-147 -58.5h-205v206q0 -86 -59 -146t-145 -60h-410v-614h-410v1433h410v-533h205v533h409v-533h123v533h287v-613z" />
    <glyph glyph-name="three" unicode="&#x6f3;" horiz-adv-x="1618" 
d="M1618 821q0 -89 -58 -147.5t-147 -58.5h-205v206q0 -86 -59 -146t-145 -60h-410v-614h-410v1433h410v-533h205v533h409v-533h123v533h287v-613z" />
    <glyph glyph-name="three" unicode="&#x663;" horiz-adv-x="1618" 
d="M1618 821q0 -89 -58 -147.5t-147 -58.5h-205v206q0 -86 -59 -146t-145 -60h-410v-614h-410v1433h410v-533h205v533h409v-533h123v533h287v-613z" />
    <glyph glyph-name="four" unicode="4" horiz-adv-x="1540" 
d="M1538 615h-944v-614h-410v1433h410v-533h125v329q0 89 58 146.5t147 57.5h491v-287h-287v-246h410v-286z" />
    <glyph glyph-name="four" unicode="&#x6f4;" horiz-adv-x="1540" 
d="M1538 615h-944v-614h-410v1433h410v-533h125v329q0 89 58 146.5t147 57.5h491v-287h-287v-246h410v-286z" />
    <glyph glyph-name="four" unicode="&#x664;" horiz-adv-x="1540" 
d="M1538 615h-944v-614h-410v1433h410v-533h125v329q0 89 58 146.5t147 57.5h491v-287h-287v-246h410v-286z" />
    <glyph glyph-name="five" unicode="5" horiz-adv-x="1619" 
d="M1619 207q0 -89 -58 -147.5t-147 -58.5h-409v204q0 -83 -61 -143.5t-144 -60.5h-410q-86 0 -145.5 59t-59.5 145v901h287v-819h123v320h410v-320h204v860h-1022v287h1227q86 0 145.5 -59t59.5 -145v-1023z" />
    <glyph glyph-name="five" unicode="&#x6f5;" horiz-adv-x="1619" 
d="M1619 207q0 -89 -58 -147.5t-147 -58.5h-409v204q0 -83 -61 -143.5t-144 -60.5h-410q-86 0 -145.5 59t-59.5 145v901h287v-819h123v320h410v-320h204v860h-1022v287h1227q86 0 145.5 -59t59.5 -145v-1023z" />
    <glyph glyph-name="five" unicode="&#x665;" horiz-adv-x="1619" 
d="M1619 207q0 -89 -58 -147.5t-147 -58.5h-409v204q0 -83 -61 -143.5t-144 -60.5h-410q-86 0 -145.5 59t-59.5 145v901h287v-819h123v320h410v-320h204v860h-1022v287h1227q86 0 145.5 -59t59.5 -145v-1023z" />
    <glyph glyph-name="six" unicode="6" horiz-adv-x="1085" 
d="M1085 1h-409l1 1146h-492v287h696q86 0 145 -59t59 -145v-1229z" />
    <glyph glyph-name="six" unicode="&#x6f6;" horiz-adv-x="1085" 
d="M1085 1h-409l1 1146h-492v287h696q86 0 145 -59t59 -145v-1229z" />
    <glyph glyph-name="six" unicode="&#x666;" horiz-adv-x="1085" 
d="M1085 1h-409l1 1146h-492v287h696q86 0 145 -59t59 -145v-1229z" />
    <glyph glyph-name="seven" unicode="7" horiz-adv-x="1208" 
d="M1208 207q0 -89 -58 -147.5t-146 -58.5h-614q-91 0 -148.5 55.5t-57.5 145.5v1232h410v-1147h205v1147h409v-1227z" />
    <glyph glyph-name="seven" unicode="&#x6f7;" horiz-adv-x="1208" 
d="M1208 207q0 -89 -58 -147.5t-146 -58.5h-614q-91 0 -148.5 55.5t-57.5 145.5v1232h410v-1147h205v1147h409v-1227z" />
    <glyph glyph-name="seven" unicode="&#x667;" horiz-adv-x="1208" 
d="M1208 207q0 -89 -58 -147.5t-146 -58.5h-614q-91 0 -148.5 55.5t-57.5 145.5v1232h410v-1147h205v1147h409v-1227z" />
    <glyph glyph-name="eight" unicode="8" horiz-adv-x="1208" 
d="M1208 1228q0 89 -58 147.5t-146 58.5h-614q-91 0 -148.5 -55.5t-57.5 -145.5v-1232h410v1147h205v-1147h409v1227z" />
    <glyph glyph-name="eight" unicode="&#x6f8;" horiz-adv-x="1208" 
d="M1208 1228q0 89 -58 147.5t-146 58.5h-614q-91 0 -148.5 -55.5t-57.5 -145.5v-1232h410v1147h205v-1147h409v1227z" />
    <glyph glyph-name="eight" unicode="&#x668;" horiz-adv-x="1208" 
d="M1208 1228q0 89 -58 147.5t-146 58.5h-614q-91 0 -148.5 -55.5t-57.5 -145.5v-1232h410v1147h205v-1147h409v1227z" />
    <glyph glyph-name="nine" unicode="9" horiz-adv-x="1208" 
d="M1208 1h-409l1 614h-410q-91 0 -148.5 55.5t-57.5 145.5v414q0 89 58 146.5t147 57.5h615q87 0 145.5 -58.5t58.5 -145.5v-1229zM799 901v246h-205v-246h205z" />
    <glyph glyph-name="nine" unicode="&#x6f9;" horiz-adv-x="1208" 
d="M1208 1h-409l1 614h-410q-91 0 -148.5 55.5t-57.5 145.5v414q0 89 58 146.5t147 57.5h615q87 0 145.5 -58.5t58.5 -145.5v-1229zM799 901v246h-205v-246h205z" />
    <glyph glyph-name="nine" unicode="&#x669;" horiz-adv-x="1208" 
d="M1208 1h-409l1 614h-410q-91 0 -148.5 55.5t-57.5 145.5v414q0 89 58 146.5t147 57.5h615q87 0 145.5 -58.5t58.5 -145.5v-1229zM799 901v246h-205v-246h205z" />
    <glyph glyph-name="colon" unicode=":" horiz-adv-x="512" 
d="M512 1h-122q-205 0 -205 203v124h327v-327zM512 531h-122q-205 0 -205 203v124h327v-327z" />
    <glyph glyph-name="equal" unicode="=" horiz-adv-x="1413" 
d="M1413 580h-1229v244h1229v-244zM1413 180h-1229v244h1229v-244z" />
    <glyph glyph-name="bracketleft" unicode="[" horiz-adv-x="860" 
d="M860 -474h-471q-88 0 -146.5 58.5t-58.5 146.5v1702q0 87 59 145.5t146 58.5h471v-285h-416v-1540h416v-286z" />
    <glyph glyph-name="bracketright" unicode="]" horiz-adv-x="860" 
d="M860 -269q0 -88 -58.5 -146.5t-146.5 -58.5h-471v286h416v1540h-416v285h471q87 0 146 -58.5t59 -145.5v-1702z" />
    <glyph glyph-name="braceleft" unicode="{" horiz-adv-x="981" 
d="M832 -320q-152 27 -249 129q-103 107 -103 257q0 61 26 177q19 85 19 112q0 97 -72 163q-67 62 -166 73v38q239 52 239 219q0 47 -16 122q-27 126 -27 188q0 151 101 257q96 102 248 127v-40q-94 -14 -155 -73q-67 -64 -67 -155q0 -46 13 -115q30 -160 30 -210
q0 -224 -286 -336q283 -116 283 -350q0 -49 -27 -179q-17 -82 -17 -135q0 -180 226 -233v-36z" />
    <glyph glyph-name="braceright" unicode="}" horiz-adv-x="981" 
d="M695 593q-239 -52 -239 -220q0 -52 15 -122q28 -131 28 -187q0 -151 -101 -257q-96 -102 -248 -127v40q94 14 155 73q66 63 66 155q0 48 -12 114q-30 164 -30 211q0 223 285 336q-282 116 -282 349q0 55 26 180q18 87 18 135q0 180 -226 233v36q152 -28 249 -129
q103 -106 103 -257q0 -57 -27 -177q-18 -80 -18 -113q0 -97 73 -162q64 -58 165 -74v-37z" />
    <glyph glyph-name="guillemotleft" unicode="&#xab;" horiz-adv-x="952" 
d="M952 -55h-241q-45 0 -75 30t-30 75v733q0 44 30.5 74.5t74.5 30.5h241v-146h-136v-651h136v-146zM532 -55h-241q-45 0 -75 30t-30 75v733q0 44 30.5 74.5t74.5 30.5h241v-146h-136v-651h136v-146z" />
    <glyph glyph-name="periodcentered" unicode="&#xb7;" horiz-adv-x="405" 
d="M326 768q0 -50 -35.5 -85t-85.5 -35q-49 0 -84.5 35.5t-35.5 84.5t34.5 85t83.5 36q51 0 87 -35t36 -86z" />
    <glyph glyph-name="periodcentered" unicode="&#x2219;" horiz-adv-x="405" 
d="M326 768q0 -50 -35.5 -85t-85.5 -35q-49 0 -84.5 35.5t-35.5 84.5t34.5 85t83.5 36q51 0 87 -35t36 -86z" />
    <glyph glyph-name="periodcentered" unicode="&#x2d9;" horiz-adv-x="405" 
d="M326 768q0 -50 -35.5 -85t-85.5 -35q-49 0 -84.5 35.5t-35.5 84.5t34.5 85t83.5 36q51 0 87 -35t36 -86z" />
    <glyph glyph-name="guillemotright" unicode="&#xbb;" horiz-adv-x="952" 
d="M186 -55h241q45 0 75 30t30 75v733q0 44 -30.5 74.5t-74.5 30.5h-241v-146h136v-651h-136v-146zM606 -55h241q45 0 75 30t30 75v733q0 44 -30.5 74.5t-74.5 30.5h-241v-146h136v-651h-136v-146z" />
    <glyph glyph-name="multiply" unicode="&#xd7;" horiz-adv-x="946" 
d="M802 219l-58 -57l-277 275l-277 -275l-59 57l275 278l-275 278l62 56l274 -276l277 276l58 -56l-279 -278z" />
    <glyph glyph-name="divide" unicode="&#xf7;" horiz-adv-x="1413" 
d="M1413 370h-1229v244h1229v-244zM952 -89h-122q-205 0 -205 203v124h327v-327zM912 751h-122q-205 0 -205 203v124h327v-327z" />
    <glyph glyph-name="u060C" unicode="&#x60c;" horiz-adv-x="512" 
d="M512 1h-122q-95 0 -152 72q-53 66 -53 163v92q0 142 91 269q100 140 236 140v-205q-122 -48 -122 -204h122v-327z" />
    <glyph glyph-name="u061B" unicode="&#x61b;" horiz-adv-x="512" 
d="M512 1h-122q-205 0 -205 203v124h327v-327zM512 441h-122q-95 0 -152 72q-53 66 -53 163v92q0 142 91 269q100 140 236 140v-205q-122 -48 -122 -204h122v-327z" />
    <glyph glyph-name="u061F" unicode="&#x61f;" horiz-adv-x="1207" 
d="M1212 387h-408v206h-411q-89 0 -146.5 58t-57.5 147v368q0 90 57 147.5t147 57.5h614q91 0 148 -57t57 -148v-205h-408v123h-205v-205h408q91 0 148 -56.5t57 -147.5v-288zM1167 63q0 -68 -47.5 -115.5t-115.5 -47.5t-116 47.5t-48 115.5t48 116t116 48t115.5 -48
t47.5 -116z" />
    <glyph glyph-name="u0621" unicode="&#x621;" horiz-adv-x="819" 
d="M821 2h-637v156h128v154q0 49 31 79.5t80 30.5h331v-153h-221v-112h288v-155z" />
    <glyph glyph-name="u0640" unicode="&#x640;" horiz-adv-x="832" 
d="M861 1h-891v286h891v-286z" />
    <glyph glyph-name="u064B" unicode="&#x64b;" 
d="M417 1964l-331 -103q-6 -2 -13 -2q-38 0 -38 41q0 30 36 42l319 101q9 3 18 3q43 0 43 -42q0 -29 -34 -40zM425 1790l-330 -103q-6 -2 -13 -2q-38 0 -38 41q0 31 35 42l319 101q8 3 18 3q44 0 44 -41q0 -30 -35 -41z" />
    <glyph glyph-name="u064C" unicode="&#x64c;" 
d="M461 1987q0 -91 -87 -157q31 -22 31 -46q0 -29 -34 -29q-27 0 -58 24q-189 -100 -265 -100q-45 0 -45 37q0 30 36 39q58 16 58 68q0 24 -33 24q-24 0 -46 -13q-13 -8 -22 -8q-21 0 -21 22q0 17 16 34q36 35 89 35q79 0 79 -72q0 -26 -15 -57q50 19 101 51q-38 39 -38 88
q0 60 44.5 108.5t103.5 48.5q42 0 74 -27.5t32 -69.5zM385 1958q0 49 -47 49q-23 0 -42 -22.5t-19 -46.5q0 -38 40 -60q23 7 45.5 32t22.5 48z" />
    <glyph glyph-name="u064D" unicode="&#x64d;" 
d="M415 -926l-331 -104q-5 -1 -13 -1q-37 0 -37 40q0 31 36 42l319 102q8 2 18 2q43 0 43 -41q0 -30 -35 -40zM423 -1092l-330 -103q-6 -1 -13 -1q-38 0 -38 39q0 31 35 42l320 103q8 2 18 2q43 0 43 -41q0 -30 -35 -41z" />
    <glyph glyph-name="u064E" unicode="&#x64e;" 
d="M425 1790l-330 -103q-6 -2 -13 -2q-38 0 -38 41q0 31 35 42l319 101q8 3 18 3q44 0 44 -41q0 -30 -35 -41z" />
    <glyph glyph-name="u064F" unicode="&#x64f;" 
d="M461 1987q0 -91 -87 -157q31 -22 31 -46q0 -29 -34 -29q-27 0 -58 24q-189 -100 -265 -100q-45 0 -45 37q0 30 36 39q127 34 206 84q-38 39 -38 88q0 60 44.5 108.5t103.5 48.5q42 0 74 -27.5t32 -69.5zM385 1958q0 49 -47 49q-23 0 -42 -22.5t-19 -46.5q0 -38 40 -60
q23 7 45.5 32t22.5 48z" />
    <glyph glyph-name="u0650" unicode="&#x650;" 
d="M425 -928l-330 -103q-6 -2 -13 -2q-38 0 -38 40q0 31 35 42l319 102q8 3 18 3q44 0 44 -42q0 -29 -35 -40z" />
    <glyph glyph-name="u0651" unicode="&#x651;" 
d="M443 1939q6 -30 6 -57q0 -66 -27 -111q-33 -55 -96 -55q-60 0 -81 59q-33 -90 -119 -90q-83 0 -83 108q0 48 20 89q11 24 30 24q28 0 23 -40q-9 -76 34 -76q63 0 79 111q5 37 31 37q23 0 25 -34q3 -86 54 -86q58 0 43 109q-1 6 -1 13q0 39 27 39t35 -40z" />
    <glyph glyph-name="u0652" unicode="&#x652;" 
d="M396 1839q0 -63 -43.5 -108.5t-106.5 -45.5q-60 0 -95 38t-35 98q0 63 36 111q40 52 101 52q64 0 103.5 -40.5t39.5 -104.5zM333 1825q0 34 -27.5 55t-62.5 21q-25 0 -43.5 -22.5t-18.5 -48.5q0 -61 77 -61q26 0 50.5 15.5t24.5 40.5z" />
    <glyph glyph-name="zeronojoin" unicode="&#x200c;" horiz-adv-x="28" 
 />
    <glyph glyph-name="zerojoin" unicode="&#x200d;" horiz-adv-x="28" 
 />
    <glyph glyph-name="lefttoright" unicode="&#x200e;" horiz-adv-x="28" 
d="M187 993l-83 -84l-21 17l54 55h-109v-981h-28v1007h134l-51 52l21 19z" />
    <glyph glyph-name="righttoleft" unicode="&#x200f;" horiz-adv-x="28" 
d="M28 0h-28v981h-109l53 -55l-18 -17l-86 84l86 85l18 -19l-51 -52h135v-1007z" />
    <glyph glyph-name="quoteleft" unicode="&#x2018;" horiz-adv-x="491" 
d="M467 1486q-89 -59 -154 -145q-76 -101 -76 -193q0 -55 32 -98q39 47 90 47q102 0 102 -100q0 -59 -48 -92q-43 -30 -104 -30q-82 0 -133 50.5t-51 132.5q0 141 108 283q97 127 234 200v-55z" />
    <glyph glyph-name="quoteright" unicode="&#x2019;" horiz-adv-x="491" 
d="M444 1353q0 -143 -107 -281q-91 -118 -232 -200v56q228 162 228 338q0 62 -33 101q-33 -49 -95 -49q-41 0 -69.5 28t-28.5 69q0 58 49 93q43 31 104 31q86 0 135 -50t49 -136z" />
    <glyph glyph-name="quotedblleft" unicode="&#x201c;" horiz-adv-x="650" 
d="M572 1146q-13 -6 -41 -26q-52 -51 -52 -95q82 -22 82 -112q0 -45 -31.5 -78t-76.5 -33q-52 0 -84 42q-29 38 -29 92q0 201 203 359q0 -83 1 -93q4 -40 28 -56zM302 1146q-13 -6 -41 -26q-52 -51 -52 -95q82 -22 82 -112q0 -45 -31.5 -78t-76.5 -33q-52 0 -84 42
q-29 38 -29 92q0 201 203 359q0 -83 1 -93q4 -40 28 -56z" />
    <glyph glyph-name="quotedblright" unicode="&#x201d;" horiz-adv-x="650" 
d="M580 1151q0 -201 -203 -359q0 83 -1 93q-4 40 -28 56q13 6 41 26q52 51 52 95q-82 22 -82 112q0 46 31 78.5t77 32.5q54 0 85 -41q28 -37 28 -93zM310 1151q0 -201 -203 -359q0 83 -1 93q-4 40 -28 56q13 6 41 26q52 51 52 95q-82 22 -82 112q0 46 31 78.5t77 32.5
q54 0 85 -41q28 -37 28 -93z" />
    <glyph glyph-name="guilsinglleft" unicode="&#x2039;" horiz-adv-x="512" 
d="M457 966l-228 -382l222 -380v-75l-383 455l389 457v-75z" />
    <glyph glyph-name="guilsinglright" unicode="&#x203a;" horiz-adv-x="512" 
d="M457 586l-393 -457v75l231 382l-222 381v77z" />
    <glyph glyph-name="uE820" unicode="&#xe820;" 
d="M432 1354l-330 -103q-6 -2 -13 -2q-38 0 -38 41q0 31 35 42l319 101q8 3 18 3q44 0 44 -41q0 -30 -35 -41z" />
    <glyph glyph-name="uE821" unicode="&#xe821;" 
d="M476 1582q0 -91 -87 -157q31 -22 31 -46q0 -29 -34 -29q-27 0 -58 24q-189 -100 -265 -100q-45 0 -45 37q0 30 36 39q127 34 206 84q-38 39 -38 88q0 60 44.5 108.5t103.5 48.5q42 0 74 -27.5t32 -69.5zM400 1553q0 49 -47 49q-23 0 -42 -22.5t-19 -46.5q0 -38 40 -60
q23 7 45.5 32t22.5 48z" />
    <glyph glyph-name="uE822" unicode="&#xe822;" 
d="M375 1420q0 -63 -43.5 -108.5t-106.5 -45.5q-60 0 -95 38t-35 98q0 63 36 111q40 52 101 52q64 0 103.5 -40.5t39.5 -104.5zM312 1406q0 34 -27.5 55t-62.5 21q-25 0 -43.5 -22.5t-18.5 -48.5q0 -61 77 -61q26 0 50.5 15.5t24.5 40.5z" />
    <glyph glyph-name="uE823" unicode="&#xe823;" 
d="M410 1542l-331 -103q-6 -2 -13 -2q-38 0 -38 41q0 30 36 42l319 101q9 3 18 3q43 0 43 -42q0 -29 -34 -40zM418 1368l-330 -103q-6 -2 -13 -2q-38 0 -38 41q0 31 35 42l319 101q8 3 18 3q44 0 44 -41q0 -30 -35 -41z" />
    <glyph glyph-name="uE824" unicode="&#xe824;" 
d="M503 1579q0 -91 -87 -157q31 -22 31 -46q0 -29 -34 -29q-27 0 -58 24q-189 -100 -265 -100q-45 0 -45 37q0 30 36 39q58 16 58 68q0 24 -33 24q-24 0 -46 -13q-13 -8 -22 -8q-21 0 -21 22q0 17 16 34q36 35 89 35q79 0 79 -72q0 -26 -15 -57q50 19 101 51q-38 39 -38 88
q0 60 44.5 108.5t103.5 48.5q42 0 74 -27.5t32 -69.5zM427 1550q0 49 -47 49q-23 0 -42 -22.5t-19 -46.5q0 -38 40 -60q23 7 45.5 32t22.5 48z" />
    <glyph glyph-name="uE825" unicode="&#xe825;" 
d="M443 1506q6 -30 6 -57q0 -66 -27 -111q-33 -55 -96 -55q-60 0 -81 59q-33 -90 -119 -90q-83 0 -83 108q0 48 20 89q11 24 30 24q28 0 23 -40q-9 -76 34 -76q63 0 79 111q5 37 31 37q23 0 25 -34q3 -86 54 -86q58 0 43 109q-1 6 -1 13q0 39 27 39t35 -40z" />
    <glyph glyph-name="uE826" unicode="&#xe826;" 
d="M349 -421l-330 -103q-6 -2 -13 -2q-38 0 -38 40q0 31 35 42l319 102q8 3 18 3q44 0 44 -42q0 -29 -35 -40z" />
    <glyph glyph-name="uE827" unicode="&#xe827;" 
d="M328 -424l-331 -104q-5 -1 -13 -1q-37 0 -37 40q0 31 36 42l319 102q8 2 18 2q43 0 43 -41q0 -30 -35 -40zM336 -590l-330 -103q-6 -1 -13 -1q-38 0 -38 39q0 31 35 42l320 103q8 2 18 2q43 0 43 -41q0 -30 -35 -41z" />
    <glyph glyph-name="uE828" unicode="&#xe828;" 
d="M453 1522q6 -30 6 -57q0 -66 -27 -111q-33 -55 -96 -55q-60 0 -81 59q-33 -90 -119 -90q-83 0 -83 108q0 48 20 89q11 24 30 24q28 0 23 -40q-9 -76 34 -76q63 0 79 111q5 37 31 37q23 0 25 -34q3 -86 54 -86q58 0 43 109q-1 6 -1 13q0 39 27 39t35 -40zM411 1703
l-330 -103q-6 -2 -13 -2q-38 0 -38 41q0 31 35 42l319 101q8 3 18 3q44 0 44 -41q0 -30 -35 -41z" />
    <glyph glyph-name="uE829" unicode="&#xe829;" 
d="M455 1522q6 -30 6 -57q0 -66 -27 -111q-33 -55 -96 -55q-60 0 -81 59q-33 -90 -119 -90q-83 0 -83 108q0 48 20 89q11 24 30 24q28 0 23 -40q-9 -76 34 -76q63 0 79 111q5 37 31 37q23 0 25 -34q3 -86 54 -86q58 0 43 109q-1 6 -1 13q0 39 27 39t35 -40zM476 1864
q0 -91 -87 -157q31 -22 31 -46q0 -29 -34 -29q-27 0 -58 24q-189 -100 -265 -100q-45 0 -45 37q0 30 36 39q127 34 206 84q-38 39 -38 88q0 60 44.5 108.5t103.5 48.5q42 0 74 -27.5t32 -69.5zM400 1835q0 49 -47 49q-23 0 -42 -22.5t-19 -46.5q0 -38 40 -60q23 7 45.5 32
t22.5 48z" />
    <glyph glyph-name="uE82A" unicode="&#xe82a;" 
d="M454 1522q6 -30 6 -57q0 -66 -27 -111q-33 -55 -96 -55q-60 0 -81 59q-33 -90 -119 -90q-83 0 -83 108q0 48 20 89q11 24 30 24q28 0 23 -40q-9 -76 34 -76q63 0 79 111q5 37 31 37q23 0 25 -34q3 -86 54 -86q58 0 43 109q-1 6 -1 13q0 39 27 39t35 -40zM389 1815
l-331 -103q-6 -2 -13 -2q-38 0 -38 41q0 30 36 42l319 101q9 3 18 3q43 0 43 -42q0 -29 -34 -40zM397 1641l-330 -103q-6 -2 -13 -2q-38 0 -38 41q0 31 35 42l319 101q8 3 18 3q44 0 44 -41q0 -30 -35 -41z" />
    <glyph glyph-name="uE82B" unicode="&#xe82b;" 
d="M468 1510q6 -30 6 -57q0 -66 -27 -111q-33 -55 -96 -55q-60 0 -81 59q-33 -90 -119 -90q-83 0 -83 108q0 48 20 89q11 24 30 24q28 0 23 -40q-9 -76 34 -76q63 0 79 111q5 37 31 37q23 0 25 -34q3 -86 54 -86q58 0 43 109q-1 6 -1 13q0 39 27 39t35 -40zM487 1878
q0 -91 -87 -157q31 -22 31 -46q0 -29 -34 -29q-27 0 -58 24q-189 -100 -265 -100q-45 0 -45 37q0 30 36 39q58 16 58 68q0 24 -33 24q-24 0 -46 -13q-13 -8 -22 -8q-21 0 -21 22q0 17 16 34q36 35 89 35q79 0 79 -72q0 -26 -15 -57q50 19 101 51q-38 39 -38 88
q0 60 44.5 108.5t103.5 48.5q42 0 74 -27.5t32 -69.5zM411 1849q0 49 -47 49q-23 0 -42 -22.5t-19 -46.5q0 -38 40 -60q23 7 45.5 32t22.5 48z" />
    <glyph glyph-name="uE82C" unicode="&#xe82c;" 
d="M454 1691q6 -30 6 -57q0 -66 -27 -111q-33 -55 -96 -55q-60 0 -81 59q-33 -90 -119 -90q-83 0 -83 108q0 48 20 89q11 24 30 24q28 0 23 -40q-9 -76 34 -76q63 0 79 111q5 37 31 37q23 0 25 -34q3 -86 54 -86q58 0 43 109q-1 6 -1 13q0 39 27 39t35 -40zM438 1306
l-330 -103q-6 -2 -13 -2q-38 0 -38 40q0 31 35 42l319 102q8 3 18 3q44 0 44 -42q0 -29 -35 -40z" />
    <glyph glyph-name="uE82D" unicode="&#xe82d;" 
d="M454 1839q6 -30 6 -57q0 -66 -27 -111q-33 -55 -96 -55q-60 0 -81 59q-33 -90 -119 -90q-83 0 -83 108q0 48 20 89q11 24 30 24q28 0 23 -40q-9 -76 34 -76q63 0 79 111q5 37 31 37q23 0 25 -34q3 -86 54 -86q58 0 43 109q-1 6 -1 13q0 39 27 39t35 -40zM433 1458
l-331 -104q-5 -1 -13 -1q-37 0 -37 40q0 31 36 42l319 102q8 2 18 2q43 0 43 -41q0 -30 -35 -40zM441 1292l-330 -103q-6 -1 -13 -1q-38 0 -38 39q0 31 35 42l320 103q8 2 18 2q43 0 43 -41q0 -30 -35 -41z" />
    <glyph glyph-name="glyph218" horiz-adv-x="1" 
d="M650 1130l-4 -346q0 -5 -2 -13q-9 -26 -32 -26q-8 0 -18 3q-29 10 -29 47l2 334q0 9 3 18q10 32 36 32q8 0 17 -3q28 -9 27 -46z" />
  </font>
</defs>
</svg>
