<?xml version="1.0" standalone="no"?>
<!DOCTYPE svg PUBLIC "-//W3C//DTD SVG 1.1//EN" "http://www.w3.org/Graphics/SVG/1.1/DTD/svg11.dtd" >
<svg>
<metadata>
Created by FontForge 20120731 at Fri Jul 15 08:34:01 2016
 By www-data
(c) 2000 Borna Rayaneh
</metadata>
<defs>
<font id="BCompset" horiz-adv-x="0" >
  <font-face 
    font-family="B Compset"
    font-weight="400"
    font-stretch="normal"
    units-per-em="2048"
    panose-1="0 0 4 0 0 0 0 0 0 0"
    ascent="1638"
    descent="-410"
    bbox="-179 -1379 2107 2044"
    underline-thickness="60"
    underline-position="-969"
    unicode-range="U+0020-FEFC"
  />
<missing-glyph horiz-adv-x="1024" 
d="M128 0v1232h768v-1232h-768zM256 128h512v976h-512v-976z" />
    <glyph glyph-name="uE818" unicode="&#x651;&#x64b;" 
d="M434 1411q2 -54 -20 -110q-29 -73 -82 -73q-36 0 -77 41q-27 -48 -42 -61q-24 -22 -69 -22q-70 0 -70 85q0 31 14 75q17 52 37 52q15 0 15 -20q0 -9 -3 -26.5t-3 -26.5q0 -35 34 -35q35 0 69.5 64t40.5 64q8 0 18 -44.5t36 -44.5q29 0 44 25q8 13 24 61q7 18 19 18
q14 0 15 -22zM471 1675l-17 -96l-368 -125l14 88zM491 1849l-16 -96l-369 -125l14 88z" />
    <glyph glyph-name="uFC5E" unicode="&#x651;&#x64c;" arabic-form="isolated" 
d="M447 1464q2 -54 -20 -110q-29 -73 -82 -73q-36 0 -77 41q-27 -48 -42 -61q-24 -22 -69 -22q-70 0 -70 85q0 30 14 75q16 52 37 52q15 0 15 -20q0 -9 -3 -26.5t-3 -26.5q0 -35 34 -35q35 0 69.5 64t40.5 64q8 0 17.5 -44.5t36.5 -44.5q29 0 44 25q7 12 24 61q6 18 19 18
q14 0 15 -22zM489 1745l-37 -84q-31 10 -77 37q-106 -157 -263 -180l-26 48q11 5 36 15q13 23 13 76q0 58 -40 58q-20 0 -36 -25l-16 -24q-30 0 -30 60q0 36 28 71.5t64 35.5q32 0 59 -37t27 -70q0 -75 -16 -117q123 68 151 121q-79 73 -79 157q0 40 33 94q39 63 86 63
q93 0 93 -123q0 -80 -29 -139zM405 1889q0 73 -45 73q-43 0 -43 -57q0 -20 22 -48.5t41 -38.5q25 44 25 71z" />
    <glyph glyph-name="uFC5F" unicode="&#x651;&#x64d;" arabic-form="isolated" 
d="M428 1927q2 -54 -20 -110q-29 -73 -82 -73q-37 0 -78 41q-25 -46 -42 -61q-24 -22 -68 -22q-70 0 -70 85q0 30 14 75q17 52 36 52q15 0 15 -20q0 -9 -2.5 -26.5t-2.5 -26.5q0 -35 33 -35q36 0 70 64t41 64q8 0 17.5 -44.5t36.5 -44.5q29 0 44 25q9 13 24 61q6 18 18 18
q15 0 16 -22zM429 1679l-17 -96l-368 -125l14 88zM435 1540l-17 -96l-368 -125l14 88z" />
    <glyph glyph-name="uFC60" unicode="&#x651;&#x64e;" arabic-form="isolated" 
d="M436 1414q2 -54 -20 -110q-29 -73 -82 -73q-36 0 -77 41q-27 -48 -42 -61q-24 -22 -69 -22q-70 0 -70 85q0 30 14 75q16 52 37 52q15 0 15 -20q0 -9 -3 -26.5t-3 -26.5q0 -35 34 -35q35 0 69.5 64t40.5 64q8 0 17.5 -44.5t36.5 -44.5q29 0 44 25q7 12 24 61q6 18 19 18
q14 0 15 -22zM461 1672l-17 -96l-368 -125l14 88z" />
    <glyph glyph-name="uFC61" unicode="&#x651;&#x64f;" arabic-form="isolated" 
d="M419 1419q2 -54 -20 -110q-29 -73 -82 -73q-36 0 -77 41q-28 -48 -42 -61q-24 -22 -69 -22q-70 0 -70 85q0 30 14 75q16 52 37 52q15 0 15 -20q0 -9 -3 -26.5t-3 -26.5q0 -35 34 -35t69 64t41 64q8 0 17.5 -44.5t36.5 -44.5q29 0 44 25q7 12 24 61q6 18 19 18
q14 0 15 -22zM436 1690l-37 -84q-31 9 -76 36q-107 -157 -264 -180l-26 48q202 92 240 164q-78 74 -78 157q0 41 32 94q39 64 86 64q93 0 93 -124q0 -80 -29 -139zM352 1833q0 74 -45 74q-43 0 -43 -58q0 -20 22 -48t42 -39q24 44 24 71z" />
    <glyph glyph-name="uFC62" unicode="&#x651;&#x650;" arabic-form="isolated" 
d="M419 1726q2 -54 -20 -110q-29 -73 -82 -73q-36 0 -77 41q-27 -47 -42 -61q-25 -22 -69 -22q-70 0 -70 85q0 31 14 75q16 52 37 52q15 0 15 -20q0 -8 -3 -26t-3 -27q0 -35 34 -35t69 64t41 64q8 0 17.5 -44.5t36.5 -44.5q28 0 44 25q8 14 24 61q6 18 19 18q14 0 15 -22z
M420 1478l-17 -95l-368 -125l14 88z" />
    <glyph glyph-name="uFDF2" unicode="&#xfedf;&#xfee0;&#xfeea;" horiz-adv-x="1204" arabic-form="isolated" 
d="M768 1286q-5 0 -15 53q-13 70 -22 101q-14 45 -47 94l61 80q43 -76 43 -214q0 -114 -20 -114zM928 1221q2 -53 -19 -109q-27 -72 -75 -72q-37 0 -78 41q-48 -83 -111 -83q-32 0 -51 26t-19 59q0 27 15 76q18 58 36 58q9 0 9 -18q0 -10 -2.5 -31t-2.5 -31q0 -50 38 -50
q34 0 69.5 72t41.5 72q8 0 17.5 -52.5t37.5 -52.5q27 0 40 31q5 18 20 68q5 17 18 17q15 0 16 -21zM1201 271q0 -271 -133 -271q-101 0 -166 176q-62 -186 -225 -186q-141 0 -180 183q-66 -117 -87 -117q-213 0 -213 69q0 103 68 175q37 39 67 60q62 43 147 62q-2 87 6 151
q49 34 58 34q2 -1 2 -2q0 -112 17 -245q27 -210 154 -210q55 0 112 47q49 40 49 74q0 3 -92 427q-3 12 34 92q8 18 16 18t11 -16q20 -117 68 -349q61 -259 162 -259q60 0 60 64q0 95 -96 466q-1 4 -1 10q0 38 54 99q27 -87 61 -238q47 -209 47 -314zM494 240l-10 96
q-47 0 -106 -28q-70 -33 -70 -74q0 -18 47 -18q60 0 139 24z" />
    <glyph glyph-name="uFEF5" unicode="&#xfedf;&#xfe82;" horiz-adv-x="1211" arabic-form="isolated" 
d="M1196 1100q12 -22 -5 -40q-36 -38 -38 -88q-2 -83 -13 -297q-14 -223 -101 -384q42 -97 42 -185q0 -90 -18 -122q-35 -63 -155 -63h-182q-45 0 -60 34q-11 25 -11 90q0 23 26 31q54 16 161 90q119 82 119 121q0 42 -147 240q-162 218 -288 300q-33 -58 -44 -58q-5 1 -8 4
q-101 105 -180 167q-2 3 -2 9q0 64 54 184q11 25 39 4q357 -271 615 -769q21 15 48 151q32 161 32 336q0 105 -12 200q-6 46 8 77q7 15 44 66q7 10 14 1q31 -42 62 -99zM1034 90q0 65 -41 135q-66 -97 -211 -162q27 -7 76 -7q41 0 97 7q79 10 79 27zM844 1394
q-58 -69 -188 -107q-113 -33 -225 -33q-28 0 -83.5 10t-83.5 10q-11 0 -17 -3q-18 -9 -23 -42q-4 -27 -23 -27q-38 0 -62 36q-22 32 -22 71q0 89 96 88q40 0 119.5 -14t120.5 -14q101 0 221 17q16 2 91 21q56 14 66 14q13 0 17 -8q5 -9 -4 -19z" />
    <glyph glyph-name="uFEF6" unicode="&#xfee0;&#xfe82;" horiz-adv-x="1451" arabic-form="final" 
d="M1482 1h-70q-106 0 -165 149q-48 121 -97 456q-43 -276 -148 -464q-83 -149 -183 -222l-289 -37q-8 -1 -18 -1q-31 0 -31 14q0 13 26 23q127 48 281 149q202 132 202 218q0 50 -126 199q-142 167 -261 199q-16 4 -38 -45q-9 -20 -36 0q-66 49 -151 96q-20 11 -22 32
q-9 118 0 195q3 27 31 18q154 -51 345 -222q221 -198 297 -406q45 102 70 304q15 123 0 400q16 24 44 68q13 20 18 20t9 -44q45 -486 88 -684q58 -266 156 -266h68v-149zM844 1261q-58 -69 -188 -107q-113 -33 -225 -33q-28 0 -83.5 10t-83.5 10q-11 0 -17 -3
q-18 -9 -23 -42q-4 -27 -23 -27q-38 0 -62 36q-22 32 -22 71q0 89 96 88q40 0 119.5 -14t120.5 -14q100 0 221 17q18 3 82 20q56 15 75 15q13 0 17 -8q5 -9 -4 -19z" />
    <glyph glyph-name="uFEF7" unicode="&#xfedf;&#xfe84;" horiz-adv-x="1014" arabic-form="isolated" 
d="M1012 1100q12 -22 -5 -40q-36 -38 -38 -88q-2 -83 -13 -297q-14 -222 -101 -384q42 -97 42 -185t-19 -122q-35 -63 -154 -63h-182q-48 0 -63 42q-8 22 -8 82q0 23 26 31q53 16 160 90q119 83 119 121q0 44 -146 240q-161 216 -288 300q-34 -58 -44 -58q-5 1 -8 4
q-101 105 -180 167q-3 3 -3 9q0 62 55 184q11 25 39 4q357 -271 615 -769q21 15 48 151q31 157 31 336q0 104 -11 200q-5 46 8 77q7 16 44 66q7 9 13 1q36 -49 63 -99zM850 90q0 65 -41 135q-66 -97 -211 -162q27 -7 76 -7q41 0 97 7q79 10 79 27zM442 1354q0 -79 -35 -92
q-43 -4 -129 -17l-160 -30q-7 17 -6 41q27 13 92 46q-19 14 -39 48t-20 56q0 33 45 95q51 70 97 70q22 0 45.5 -17t23.5 -38q0 -12 -14 -43q-9 -20 -23 -5q-20 22 -60 22q-44 0 -44 -46q0 -27 42.5 -65.5t70.5 -38.5q30 0 104 21q10 3 10 -7z" />
    <glyph glyph-name="uFEF8" unicode="&#xfee0;&#xfe84;" horiz-adv-x="1204" arabic-form="final" 
d="M1236 1h-70q-106 0 -165 149q-48 121 -97 456q-76 -499 -331 -686l-288 -37q-8 -1 -18 -1q-32 0 -32 14q0 13 26 23q127 48 282 149q201 131 201 218q0 50 -126 199q-142 168 -261 199q-17 4 -38 -45q-9 -20 -35 0q-60 45 -152 96q-19 11 -21 32q-9 119 0 195q3 27 30 18
q154 -51 345 -222q221 -198 297 -406q45 102 70 304q15 123 0 400q7 10 44 68q13 20 18 20q6 0 10 -44q44 -487 87 -684q58 -266 156 -266h68v-149zM442 1251q0 -71 -15 -81q-1 -1 -98 -18l-51 -9l-160 -30q-7 17 -6 41q27 12 92 45q-20 14 -39.5 48t-19.5 57q0 33 45 95
q50 69 97 69q23 0 46 -16.5t23 -38.5q0 -13 -14 -43q-9 -20 -23 -4q-20 22 -60 22q-44 0 -44 -47q0 -26 43 -64.5t70 -38.5q30 0 104 20q10 3 10 -7z" />
    <glyph glyph-name="uFEF9" unicode="&#xfedf;&#xfe88;" horiz-adv-x="1014" arabic-form="isolated" 
d="M1012 1100q12 -22 -5 -40q-36 -38 -38 -88q-2 -83 -13 -297q-14 -222 -101 -384q42 -97 42 -185t-19 -122q-35 -63 -154 -63h-182q-48 0 -63 42q-8 22 -8 82q0 23 26 31q53 16 160 90q119 83 119 121q0 44 -146 240q-161 216 -288 300q-34 -58 -44 -58q-5 1 -8 4
q-101 105 -180 167q-3 3 -3 9q0 62 55 184q11 25 39 4q357 -271 615 -769q21 15 48 151q31 157 31 336q0 104 -11 200q-5 46 8 77q7 16 44 66q7 9 13 1q36 -49 63 -99zM850 90q0 65 -41 135q-66 -97 -211 -162q27 -7 76 -7q41 0 97 7q79 10 79 27zM650 -390q0 -79 -35 -92
q-43 -5 -130 -17q-42 -8 -159 -29q-7 16 -7 41q28 12 93 45q-19 14 -39 48t-20 56q0 34 45 96q50 69 97 69q23 0 46 -16.5t23 -38.5q0 -12 -14 -43q-9 -20 -23 -4q-19 21 -60 21q-44 0 -44 -46q0 -27 42.5 -65t70.5 -38q30 0 104 20q10 3 10 -7z" />
    <glyph glyph-name="uFEFA" unicode="&#xfee0;&#xfe88;" horiz-adv-x="1204" arabic-form="final" 
d="M1236 1h-70q-106 0 -165 149q-48 121 -97 456q-76 -499 -331 -686l-288 -37q-8 -1 -18 -1q-32 0 -32 14q0 13 26 23q127 48 282 149q201 131 201 218q0 50 -126 199q-142 168 -261 199q-17 4 -38 -45q-9 -20 -35 0q-60 45 -152 96q-19 11 -21 32q-9 119 0 195q3 27 30 18
q154 -51 345 -222q221 -198 297 -406q45 102 70 304q15 123 0 400q7 10 44 68q13 20 18 20q6 0 10 -44q44 -487 87 -684q58 -266 156 -266h68v-149zM630 -411q0 -71 -15 -81q-1 -1 -99 -18l-51 -9l-160 -30q-6 17 -6 41q27 12 92 45q-19 14 -38.5 48.5t-19.5 56.5
q0 34 44 95q50 69 97 69q23 0 46.5 -16.5t23.5 -38.5q0 -12 -15 -43q-9 -19 -22 -4q-19 22 -61 22q-44 0 -44 -47q0 -26 43 -64.5t70 -38.5t105 21q10 3 10 -8z" />
    <glyph glyph-name="uFEFB" unicode="&#xfedf;&#xfe8e;" horiz-adv-x="1014" arabic-form="isolated" 
d="M1012 1100q12 -22 -5 -40q-36 -38 -38 -88q-2 -83 -13 -297q-14 -222 -101 -384q42 -97 42 -185t-19 -122q-35 -63 -154 -63h-182q-48 0 -63 42q-8 22 -8 82q0 23 26 31q53 16 160 90q119 83 119 121q0 44 -146 240q-161 216 -288 300q-34 -58 -44 -58q-5 1 -8 4
q-101 105 -180 167q-3 3 -3 9q0 62 55 184q11 25 39 4q357 -271 615 -769q21 15 48 151q31 157 31 336q0 104 -11 200q-5 46 8 77q7 16 44 66q7 9 13 1q36 -49 63 -99zM850 90q0 65 -41 135q-66 -97 -211 -162q27 -7 76 -7q41 0 97 7q79 10 79 27z" />
    <glyph glyph-name="uFEFC" unicode="&#xfee0;&#xfe8e;" horiz-adv-x="1204" arabic-form="final" 
d="M1236 1h-70q-106 0 -165 149q-48 121 -97 456q-76 -499 -331 -686l-288 -37q-8 -1 -18 -1q-32 0 -32 14q0 13 26 23q127 48 282 149q201 131 201 218q0 50 -126 199q-142 168 -261 199q-17 4 -38 -45q-9 -20 -35 0q-60 45 -152 96q-19 11 -21 32q-9 119 0 195q3 27 30 18
q154 -51 345 -222q221 -198 297 -406q45 102 70 304q15 123 0 400q7 10 44 68q13 20 18 20q6 0 10 -44q44 -487 87 -684q58 -266 156 -266h68v-149z" />
    <glyph glyph-name="u0652_u064E.liga" unicode="&#x652;&#x64e;" horiz-adv-x="1" 
d="M269 892q1 -15 -6 -39q-8 -30 -19 -30q-5 0 -5 14q0 60 -29 300q-1 4 36 27q11 7 12 -4z" />
    <glyph glyph-name="u0652_u064B.liga" unicode="&#x652;&#x64b;" horiz-adv-x="1" 
d="M592 858l-110 -110l-113 112l110 111zM376 847l-110 -111l-113 113l110 111z" />
    <glyph glyph-name="u0652_u064D.liga" unicode="&#x652;&#x64d;" horiz-adv-x="1" 
d="M873 -757l-110 -110l-113 112l110 111zM657 -768l-110 -111l-113 113l110 111z" />
    <glyph glyph-name="u0622" unicode="&#x622;" horiz-adv-x="768" arabic-form="isolated" 
d="M520 228q1 -43 -12 -126q-16 -103 -38 -103q-10 0 -10 46q0 188 -60 1002q-1 13 74 89q22 23 23 -12zM844 1404q-57 -69 -188 -107q-110 -32 -225 -32q-28 0 -83.5 9.5t-83.5 9.5q-11 0 -17 -3q-18 -9 -23 -41q-4 -28 -23 -28q-38 0 -62 36q-22 32 -22 71q0 89 96 88
q40 0 119.5 -14t120.5 -14q89 0 221 18q19 3 81 20q55 15 76 15q13 0 17 -9q5 -8 -4 -19z" />
    <glyph glyph-name="u0623" unicode="&#x623;" horiz-adv-x="481" arabic-form="isolated" 
d="M397 228q1 -43 -12 -126q-16 -103 -38 -103q-10 0 -10 46q0 202 -59 1002q-1 13 73 89q22 23 23 -12zM504 1354q0 -79 -36 -92q-43 -4 -129 -17l-160 -30q-6 17 -6 41q27 13 92 46q-58 44 -58 104q0 34 44 95q50 70 97 70q22 0 46 -17t24 -38q0 -10 -15 -43
q-9 -20 -22 -5q-20 22 -60 22q-45 0 -45 -46q0 -27 42.5 -65.5t70.5 -38.5q30 0 105 21q10 3 10 -7z" />
    <glyph glyph-name="u0624" unicode="&#x624;" horiz-adv-x="813" arabic-form="isolated" 
d="M811 175q0 -190 -159 -377q-148 -175 -267 -175q-127 28 -258 64q-21 6 -21 20q0 19 33 17q18 -1 41 -1q251 0 464 216q97 99 97 163q0 26 -18 43q-79 -54 -148 -54q-119 0 -119 169q0 75 62 175q68 109 138 109q51 0 97 -82q58 -104 58 -287zM676 272q-3 29 -23 63
q-23 40 -48 40q-26 0 -52.5 -34t-26.5 -60q0 -57 59 -57q65 0 91 48zM734 878q0 -79 -35 -92q-43 -5 -130 -17q-30 -6 -159 -30q-7 17 -7 41q28 13 93 45q-19 13 -39 48t-20 57q0 33 45 95q51 70 97 70q23 0 46 -17t23 -39q0 -12 -14 -43q-9 -20 -23 -4q-20 22 -60 22
q-44 0 -44 -46q0 -27 42.5 -65.5t70.5 -38.5q26 0 104 21q10 3 10 -7z" />
    <glyph glyph-name="u0625" unicode="&#x625;" horiz-adv-x="535" arabic-form="isolated" 
d="M408 228q1 -41 -13 -126q-17 -103 -38 -103q-10 0 -10 46q0 202 -59 1002q-1 13 73 89q22 23 23 -12zM514 -295q0 -74 -19 -84l-122 -20l-24 -4l-160 -30q-6 17 -6 41q27 12 92 45q-58 44 -58 104q0 34 45 96q50 69 96 69q23 0 46.5 -16.5t23.5 -38.5q0 -12 -14 -43
q-9 -20 -23 -4q-19 21 -60 21q-44 0 -44 -46q0 -28 42 -65.5t70 -37.5q31 0 105 20q10 3 10 -7z" />
    <glyph glyph-name="u0626" unicode="&#x626;" horiz-adv-x="1270" arabic-form="isolated" 
d="M1268 539q0 -19 -18 -70q-19 -55 -31 -55q-18 0 -54 8t-55 8q-78 0 -172 -70q-104 -77 -104 -165q0 -86 98 -104q51 -7 183 -30q98 -18 98 -95q0 -113 -58 -176q-37 -40 -162 -109q-212 -117 -430 -117q-367 0 -367 338q0 82 34.5 184t83.5 169q17 23 29 23q9 0 9 -12
q0 -11 -10 -29q-75 -137 -75 -265q0 -136 104 -202q87 -56 231 -56q183 0 375 81q170 72 170 112q0 27 -100 41q-139 19 -185 38q-100 41 -100 136q0 161 146 314q139 146 267 146q93 0 93 -43zM571 498q0 -79 -35 -92q-43 -4 -129 -17l-160 -30q-7 17 -6 41q27 13 92 45
q-19 13 -39 48t-20 57q0 33 45 95q51 70 97 70q23 0 46 -17t23 -39q0 -13 -14 -43q-9 -19 -22 -4q-20 22 -61 22q-44 0 -44 -46q0 -27 42.5 -65.5t70.5 -38.5q30 0 104 21q10 3 10 -7z" />
    <glyph glyph-name="u0627" unicode="&#x627;" horiz-adv-x="316" arabic-form="isolated" 
d="M315 228q1 -43 -12 -126q-16 -103 -38 -103q-10 0 -10 46q0 202 -59 1002q-1 13 73 89q22 23 23 -12z" />
    <glyph glyph-name="u0628" unicode="&#x628;" horiz-adv-x="1528" arabic-form="isolated" 
d="M1527 401q0 -141 -38 -190q-93 -120 -371 -182q-207 -46 -423 -46q-499 0 -499 269q0 130 87 229q18 21 26 21q7 0 7 -15q0 -11 -9 -26q-43 -71 -43 -131q0 -76 109 -130q135 -67 386 -67q335 0 587 100q119 47 119 86q0 58 -69 134q-8 9 -1 23l49 95q12 24 30 0
q53 -71 53 -170zM968 -343l-116 -116l-119 119l116 116z" />
    <glyph glyph-name="u0629" unicode="&#x629;" horiz-adv-x="596" arabic-form="isolated" 
d="M595 248q0 -258 -211 -258q-188 0 -188 192q0 79 61 211q66 142 120 142q93 0 159 -100q59 -90 59 -187zM521 220q0 45 -63 85q-56 36 -96 36q-39 0 -67 -42q-26 -38 -26 -79q0 -78 109 -78q143 0 143 78zM535 908q0 -71 -15 -81q-1 -1 -99 -18l-51 -9l-160 -30
q-7 17 -6 41q27 12 92 45q-20 14 -39 47.5t-19 57.5q0 34 44 95q50 69 97 69q22 0 46 -17t24 -38q0 -12 -15 -43q-9 -19 -22 -4q-19 21 -61 21q-44 0 -44 -46q0 -26 43 -64.5t70 -38.5q28 0 104 20q11 3 11 -7z" />
    <glyph glyph-name="u062A" unicode="&#x62a;" horiz-adv-x="1528" arabic-form="isolated" 
d="M1527 401q0 -141 -38 -190q-93 -120 -371 -182q-207 -46 -423 -46q-499 0 -499 269q0 130 87 229q18 21 26 21q7 0 7 -15q0 -11 -9 -26q-43 -71 -43 -131q0 -76 109 -130q135 -67 386 -67q335 0 587 100q119 47 119 86q0 58 -69 134q-8 9 -1 23l49 95q12 24 30 0
q53 -71 53 -170zM1022 740l-110 -110l-112 112l109 111zM806 729l-110 -111l-112 113l109 111z" />
    <glyph glyph-name="u062B" unicode="&#x62b;" horiz-adv-x="1528" arabic-form="isolated" 
d="M1527 401q0 -141 -38 -190q-93 -120 -371 -182q-207 -46 -423 -46q-499 0 -499 269q0 130 87 229q18 21 26 21q7 0 7 -15q0 -11 -9 -26q-43 -71 -43 -131q0 -76 109 -130q135 -67 386 -67q335 0 587 100q119 47 119 86q0 58 -69 134q-8 9 -1 23l49 95q12 24 30 0
q53 -71 53 -170zM588 669l104 104l108 -107l-105 -105zM802 679l104 104l108 -107l-105 -105zM689 885l105 104l106 -106l-104 -105z" />
    <glyph glyph-name="u062C" unicode="&#x62c;" horiz-adv-x="1087" arabic-form="isolated" 
d="M1354 -723q0 -14 -49 -30l-134 -45q-74 -25 -147 -50q-74 -21 -157 -21q-671 0 -671 529q0 247 168 431q110 121 279 200q-60 12 -182 12q-119 0 -161 -19q-28 -13 -37 -13q-16 0 -16 21q0 33 46 86q65 75 170 75q59 0 177 -15.5t177 -15.5h243q27 0 19 -28
q-17 -60 -35 -113q-4 -11 -20 -11q-192 0 -359 -66q-183 -72 -297 -208q-117 -140 -117 -310q0 -195 202 -309q182 -103 444 -103q108 0 265 12l170 13q22 2 22 -22zM860 -297l-116 -116l-118 119l115 116z" />
    <glyph glyph-name="u062D" unicode="&#x62d;" horiz-adv-x="1087" arabic-form="isolated" 
d="M1354 -723q0 -14 -49 -30l-134 -45q-74 -25 -147 -50q-74 -21 -157 -21q-671 0 -671 529q0 247 168 431q110 121 279 200q-60 12 -182 12q-119 0 -161 -19q-28 -13 -37 -13q-16 0 -16 21q0 33 46 86q65 75 170 75q59 0 177 -15.5t177 -15.5h243q27 0 19 -28
q-17 -60 -35 -113q-4 -11 -20 -11q-192 0 -359 -66q-183 -72 -297 -208q-117 -140 -117 -310q0 -195 202 -309q182 -103 444 -103q108 0 265 12l170 13q22 2 22 -22z" />
    <glyph glyph-name="u062E" unicode="&#x62e;" horiz-adv-x="1087" arabic-form="isolated" 
d="M1354 -723q0 -14 -49 -30l-134 -45q-74 -25 -147 -50q-74 -21 -157 -21q-671 0 -671 529q0 247 168 431q110 121 279 200q-60 12 -182 12q-119 0 -161 -19q-28 -13 -37 -13q-16 0 -16 21q0 33 46 86q65 75 170 75q59 0 177 -15.5t177 -15.5h243q27 0 19 -28
q-17 -60 -35 -113q-4 -11 -20 -11q-192 0 -359 -66q-183 -72 -297 -208q-117 -140 -117 -310q0 -195 202 -309q182 -103 444 -103q108 0 265 12l170 13q22 2 22 -22zM758 773l-116 -116l-119 119l116 116z" />
    <glyph glyph-name="u062F" unicode="&#x62f;" horiz-adv-x="718" arabic-form="isolated" 
d="M717 225q0 -233 -399 -233q-63 0 -104 11q-18 5 -18 34q0 76 20 123q431 -10 431 104q0 107 -285 275q-9 5 -1 28q22 60 45 112q7 15 18 9q92 -49 167 -135q126 -144 126 -328z" />
    <glyph glyph-name="u0630" unicode="&#x630;" horiz-adv-x="718" arabic-form="isolated" 
d="M717 225q0 -233 -399 -233q-63 0 -104 11q-18 5 -18 34q0 76 20 123q431 -10 431 104q0 107 -285 275q-9 5 -1 28q22 60 45 112q7 15 18 9q92 -49 167 -135q126 -144 126 -328zM497 1009l-116 -116l-119 119l116 115z" />
    <glyph glyph-name="u0631" unicode="&#x631;" horiz-adv-x="757" arabic-form="isolated" 
d="M757 223q0 -230 -148 -409q-125 -151 -249 -168q-108 39 -234 80q-24 8 -24 25q0 23 33 23q180 0 301 52q70 30 156 115q98 97 98 165q0 76 -96 223q-7 11 6 27q23 26 84 97q10 9 16 0q57 -83 57 -230z" />
    <glyph glyph-name="u0632" unicode="&#x632;" horiz-adv-x="757" arabic-form="isolated" 
d="M757 223q0 -230 -148 -409q-125 -151 -249 -168q-108 39 -234 80q-24 8 -24 25q0 23 33 23q180 0 301 52q70 30 156 115q98 97 98 165q0 76 -96 223q-7 11 6 27q23 26 84 97q10 9 16 0q57 -83 57 -230zM696 753l-115 -116l-119 119l116 115z" />
    <glyph glyph-name="u0633" unicode="&#x633;" horiz-adv-x="1702" arabic-form="isolated" 
d="M1701 305q0 -83 -30 -155q-41 -98 -116 -98q-92 0 -173 75q-109 -126 -216 -126q-70 0 -104 15q0 -570 -506 -570q-154 0 -250 69q-110 78 -110 226q0 92 44 197q35 84 78 137q13 16 25 16q13 0 13 -15q0 -10 -8 -22q-84 -126 -84 -230q0 -87 69 -147q92 -80 282 -80
q235 0 336 116q45 51 45 193q0 115 -26 168q-20 28 -34 50q-9 14 13 61q16 31 32 61q10 22 25 1q39 -54 44 -59q44 -38 121 -38q172 0 217 179q8 34 25 34q20 0 20 -36q0 -127 146 -127q49 0 49 38q0 32 -43 97q-9 13 0 24q38 48 63 76q9 10 18 -2q35 -49 35 -128z" />
    <glyph glyph-name="u0634" unicode="&#x634;" horiz-adv-x="1702" arabic-form="isolated" 
d="M1705 305q0 -82 -30 -155q-40 -98 -115 -98q-93 0 -174 75q-109 -126 -216 -126q-69 0 -104 15q0 -570 -506 -570q-154 0 -250 69q-110 78 -110 226q0 92 44 197q35 84 79 137q13 16 24 16q13 0 13 -15q0 -10 -8 -22q-84 -126 -84 -230q0 -87 69 -147q92 -80 283 -80
q234 0 335 116q45 51 45 193q0 115 -26 168q-20 28 -34 50q-9 14 2 35q14 27 43 87q10 21 25 1q27 -37 44 -59q43 -38 122 -38q171 0 216 179q8 34 25 34q20 0 20 -36q0 -127 146 -127q49 0 49 38q0 32 -43 97q-9 13 0 24q38 48 63 76q9 10 18 -2q35 -49 35 -128zM1170 693
l105 105l107 -108l-104 -104zM1384 703l105 105l107 -108l-104 -104zM1272 909l104 105l107 -107l-105 -104z" />
    <glyph glyph-name="u0635" unicode="&#x635;" horiz-adv-x="2002" arabic-form="isolated" 
d="M2001 401q0 -232 -326 -344q-166 -57 -383 -57q-28 -46 -53 -102q-12 -26 -29 -26q-21 0 -16 28q3 21 30 102q-130 0 -162 14q0 -570 -506 -570q-154 0 -250 69q-110 78 -110 226q0 92 44 197q35 84 78 137q13 16 25 16q13 0 13 -15q0 -10 -8 -22q-84 -126 -84 -230
q0 -87 69 -147q92 -80 282 -80q235 0 336 116q45 51 45 193q0 115 -26 168q-20 28 -34 50q-9 14 13 61q16 31 32 61q10 21 25 1q36 -50 51 -62q44 -35 114 -35q87 0 116 21q75 82 180 187q199 200 374 200q160 0 160 -157zM1892 313q0 38 -47 60q-37 18 -80 18
q-100 0 -220 -79q-103 -68 -177 -160q174 0 357 65q167 59 167 96z" />
    <glyph glyph-name="u0636" unicode="&#x636;" horiz-adv-x="2002" arabic-form="isolated" 
d="M2001 401q0 -232 -326 -344q-166 -57 -383 -57q-28 -46 -53 -102q-12 -26 -29 -26q-21 0 -16 28q3 21 30 102q-130 0 -162 14q0 -570 -506 -570q-154 0 -250 69q-110 78 -110 226q0 92 44 197q35 84 78 137q13 16 25 16q13 0 13 -15q0 -10 -8 -22q-84 -126 -84 -230
q0 -87 69 -147q92 -80 282 -80q235 0 336 116q45 51 45 193q0 115 -26 168q-20 28 -34 50q-9 14 13 61q16 31 32 61q10 21 25 1q36 -50 51 -62q44 -35 114 -35q87 0 116 21q75 82 180 187q199 200 374 200q160 0 160 -157zM1892 313q0 38 -47 60q-37 18 -80 18
q-100 0 -220 -79q-103 -68 -177 -160q174 0 357 65q167 59 167 96zM1695 860l-116 -116l-119 119l116 116z" />
    <glyph glyph-name="u0637" unicode="&#x637;" horiz-adv-x="1186" arabic-form="isolated" 
d="M1183 410q0 -193 -243 -311q-107 -52 -323 -82q-158 -22 -265 -22q-27 0 -40 13q-83 82 -114 138q0 12 8 23q111 -17 144 -17q211 0 202 189q-17 359 -74 648q-10 51 -10 90q0 74 42 131q14 19 29 -1l76 -102q16 -22 -4 -41q-40 -38 -40 -95q0 -17 3 -33q44 -238 39 -612
q260 242 401 242q69 0 119 -44.5t50 -113.5zM1063 342q0 77 -126 77q-87 0 -219 -99q-18 -14 -191 -164q240 -2 426 74q110 45 110 112z" />
    <glyph glyph-name="u0638" unicode="&#x638;" horiz-adv-x="1186" arabic-form="isolated" 
d="M1183 410q0 -193 -243 -311q-107 -52 -323 -82q-158 -22 -265 -22q-27 0 -40 13q-83 82 -114 138q0 12 8 23q111 -17 144 -17q211 0 202 189q-17 359 -74 648q-10 51 -10 90q0 74 42 131q14 19 29 -1l76 -102q16 -22 -4 -41q-40 -38 -40 -95q0 -17 3 -33q44 -238 39 -612
q260 242 401 242q69 0 119 -44.5t50 -113.5zM1063 342q0 77 -126 77q-87 0 -219 -99q-18 -14 -191 -164q240 -2 426 74q110 45 110 112zM1029 860l-116 -116l-118 119l115 116z" />
    <glyph glyph-name="u0639" unicode="&#x639;" horiz-adv-x="920" arabic-form="isolated" 
d="M1253 -799q-32 -12 -233 -99q-72 -31 -153 -31q-671 0 -671 542q0 299 241 563q-91 35 -127 67q-48 43 -48 112q0 93 79 210q87 129 182 129q61 0 121 -53q28 -25 28 -40q0 -17 -40 -21q-96 -9 -186 -54q-117 -58 -117 -137q0 -21 84 -57q72 -31 139 -47q116 72 279 160
q25 14 25 -5q0 -11 -53 -138q-6 -14 -26 -22q-233 -95 -382 -281q-134 -168 -134 -317q0 -243 221 -365q178 -98 442 -98q147 0 314 24q14 2 25 2q31 0 31 -13q0 -15 -41 -31z" />
    <glyph glyph-name="u063A" unicode="&#x63a;" horiz-adv-x="920" arabic-form="isolated" 
d="M1253 -799q-32 -12 -233 -99q-72 -31 -153 -31q-671 0 -671 542q0 299 241 563q-91 35 -127 67q-48 43 -48 112q0 93 79 210q87 129 182 129q61 0 121 -53q28 -25 28 -40q0 -17 -40 -21q-96 -9 -186 -54q-117 -58 -117 -137q0 -21 84 -57q72 -31 139 -47q116 72 279 160
q25 14 25 -5q0 -11 -53 -138q-6 -14 -26 -22q-233 -95 -382 -281q-134 -168 -134 -317q0 -243 221 -365q178 -98 442 -98q147 0 314 24q14 2 25 2q31 0 31 -13q0 -15 -41 -31zM486 937l-115 -116l-119 119l116 116z" />
    <glyph glyph-name="u0641" unicode="&#x641;" horiz-adv-x="1663" arabic-form="isolated" 
d="M1660 438q0 -190 -78 -275q-69 -75 -310 -142q-267 -74 -541 -74q-535 0 -535 355q0 43 25 119t52 107q20 23 29 23q7 0 7 -13q0 -10 -8 -26q-41 -83 -41 -170q0 -155 219 -207q109 -26 318 -26q190 0 396 44q253 54 359 148q38 34 38 88q0 28 -11 74q-72 -90 -164 -90
q-69 0 -109 52q-37 48 -37 119q0 87 58 183q65 107 146 107q42 0 104 -91q83 -122 83 -305zM1507 596q-9 30 -36 62q-31 36 -58 36q-21 0 -37 -37q-14 -32 -14 -55q0 -75 57 -75q65 0 88 69zM1311 1116l-116 -116l-119 119l116 116z" />
    <glyph glyph-name="u0642" unicode="&#x642;" horiz-adv-x="1138" arabic-form="isolated" 
d="M1137 353q0 -281 -192 -427q-159 -121 -395 -121q-354 0 -354 319q0 107 47 219q40 95 94 155q12 13 21 13q10 0 10 -12q0 -13 -13 -30q-26 -34 -55 -111q-32 -86 -32 -139q0 -132 109 -196q88 -52 229 -52q136 0 286 72q189 91 189 232q0 42 -27 89q-64 -56 -163 -56
q-140 0 -140 158q0 79 60 181q66 113 139 113q51 0 110 -91q77 -119 77 -316zM1000 498q-7 32 -36 80q-34 55 -61 55q-26 0 -45 -41q-16 -34 -16 -64q0 -71 59 -71q72 0 99 41zM1089 1089l-110 -111l-113 113l110 110zM872 1077l-109 -110l-113 112l110 111z" />
    <glyph glyph-name="u0643" unicode="&#x643;" horiz-adv-x="1956" arabic-form="isolated" 
d="M1982 1326l-17 -108q-1 -7 -14 -17q-216 -55 -444 -160q-241 -111 -406 -238q-19 -15 1 -31q357 -290 357 -402q0 -120 -49 -190q-138 -196 -671 -196q-209 0 -348 49q-195 69 -195 223q0 51 34 142q40 107 85 107q6 0 6 -7t-8 -19q-43 -64 -43 -129q0 -112 172 -170
q143 -48 367 -48q149 0 301 26q281 48 281 144q0 17 -9 36q-18 38 -145 156q-45 42 -162 150q-34 32 -34 132q0 69 28 98q139 143 416 284q249 127 472 188q11 3 18 3q8 1 9 -4q0 -4 -2 -19z" />
    <glyph glyph-name="u0644" unicode="&#x644;" horiz-adv-x="981" arabic-form="isolated" 
d="M979 301q1 -12 1 -27q0 -176 -150 -278q-132 -90 -315 -90q-144 0 -229 73q-90 77 -90 219q0 99 46 208q41 97 86 137q8 7 15 7q21 0 4 -25q-78 -116 -78 -244q0 -211 285 -211q119 0 231 48q146 61 133 167l-98 775q-1 8 -1 25q0 92 65 172q13 16 22 -1l63 -113
q13 -24 0 -38q-50 -53 -45 -120z" />
    <glyph glyph-name="u0645" unicode="&#x645;" horiz-adv-x="703" arabic-form="isolated" 
d="M699 238q-5 -59 -42 -59q-165 0 -243 -25q-162 -52 -162 -161q0 -73 19 -192l45 -282q30 -190 40 -383q3 -56 -23 -56q-20 0 -26 46q-3 109 -46 364q-65 385 -65 431q0 191 71 301q24 99 63 182q70 149 153 149q65 0 132 -71q56 -59 79 -126q13 -36 5 -118zM586 321
q-21 32 -63 61q-46 32 -80 32q-47 0 -72 -55q-19 -43 -19 -96q80 42 234 58z" />
    <glyph glyph-name="u0646" unicode="&#x646;" horiz-adv-x="1008" arabic-form="isolated" 
d="M1008 362q0 -183 -147 -310q-140 -122 -326 -122q-156 0 -244 73q-95 78 -95 231q0 78 38 176q33 86 69 122q15 15 23 15q7 0 7 -10q0 -12 -9 -29q-63 -115 -63 -219q0 -106 109 -157q82 -39 201 -39q148 0 271 74q109 66 109 123q0 144 -128 390q-8 15 0 31l59 116
q12 23 23 -1q103 -215 103 -464zM676 1004l-116 -116l-119 119l116 115z" />
    <glyph glyph-name="u0647" unicode="&#x647;" horiz-adv-x="596" arabic-form="isolated" 
d="M595 248q0 -258 -211 -258q-188 0 -188 192q0 79 61 211q66 142 120 142q93 0 159 -100q59 -90 59 -187zM521 220q0 45 -63 85q-56 36 -96 36q-39 0 -67 -42q-26 -38 -26 -79q0 -78 109 -78q143 0 143 78z" />
    <glyph glyph-name="u0648" unicode="&#x648;" horiz-adv-x="813" arabic-form="isolated" 
d="M811 175q0 -190 -159 -377q-148 -175 -267 -175q-127 28 -258 64q-21 6 -21 20q0 19 33 17q18 -1 41 -1q251 0 464 216q97 99 97 163q0 26 -18 43q-79 -54 -148 -54q-119 0 -119 169q0 75 62 175q68 109 138 109q51 0 97 -82q58 -104 58 -287zM676 272q-3 29 -23 63
q-23 40 -48 40q-26 0 -52.5 -34t-26.5 -60q0 -57 59 -57q65 0 91 48z" />
    <glyph glyph-name="u0649" unicode="&#x649;" horiz-adv-x="1270" arabic-form="isolated" 
d="M1268 539q0 -19 -18 -70q-19 -55 -31 -55q-18 0 -54 8t-55 8q-78 0 -172 -70q-104 -77 -104 -165q0 -86 98 -104q51 -7 183 -30q98 -18 98 -95q0 -113 -58 -176q-37 -40 -162 -109q-212 -117 -430 -117q-367 0 -367 338q0 82 34.5 184t83.5 169q17 23 29 23q9 0 9 -12
q0 -11 -10 -29q-75 -137 -75 -265q0 -136 104 -202q87 -56 231 -56q183 0 375 81q170 72 170 112q0 27 -100 41q-139 19 -185 38q-100 41 -100 136q0 161 146 314q139 146 267 146q93 0 93 -43z" />
    <glyph glyph-name="u064A" unicode="&#x64a;" horiz-adv-x="1270" arabic-form="isolated" 
d="M1268 539q0 -19 -18 -70q-19 -55 -31 -55q-18 0 -54 8t-55 8q-78 0 -172 -70q-104 -77 -104 -165q0 -86 98 -104q51 -7 183 -30q98 -18 98 -95q0 -113 -58 -176q-37 -40 -162 -109q-212 -117 -430 -117q-367 0 -367 338q0 82 34.5 184t83.5 169q17 23 29 23q9 0 9 -12
q0 -11 -10 -29q-75 -137 -75 -265q0 -136 104 -202q87 -56 231 -56q183 0 375 81q170 72 170 112q0 27 -100 41q-139 19 -185 38q-100 41 -100 136q0 161 146 314q139 146 267 146q93 0 93 -43z" />
    <glyph glyph-name="u067E" unicode="&#x67e;" horiz-adv-x="1528" arabic-form="isolated" 
d="M1527 401q0 -141 -38 -190q-93 -120 -371 -182q-207 -46 -423 -46q-499 0 -499 269q0 130 87 229q18 21 26 21q7 0 7 -15q0 -11 -9 -26q-43 -71 -43 -131q0 -76 109 -130q135 -67 386 -67q335 0 587 100q119 47 119 86q0 58 -69 134q-8 9 -1 23l49 95q12 24 30 0
q53 -71 53 -170zM1009 -282l-105 -104l-107 107l104 105zM795 -292l-105 -104l-107 107l104 105zM907 -498l-104 -104l-107 106l105 105z" />
    <glyph glyph-name="u0686" unicode="&#x686;" horiz-adv-x="1087" arabic-form="isolated" 
d="M1354 -723q0 -14 -49 -30l-134 -45q-74 -25 -147 -50q-74 -21 -157 -21q-671 0 -671 529q0 247 168 431q110 121 279 200q-60 12 -182 12q-119 0 -161 -19q-28 -13 -37 -13q-16 0 -16 21q0 33 46 86q65 75 170 75q59 0 177 -15.5t177 -15.5h243q27 0 19 -28
q-17 -60 -35 -113q-4 -11 -20 -11q-192 0 -359 -66q-183 -72 -297 -208q-117 -140 -117 -310q0 -195 202 -309q182 -103 444 -103q108 0 265 12l170 13q22 2 22 -22zM911 -205l-104 -104l-108 107l105 105zM697 -215l-104 -104l-108 107l105 104zM810 -421l-104 -104
l-107 106l104 105z" />
    <glyph glyph-name="u0698" unicode="&#x698;" horiz-adv-x="814" arabic-form="isolated" 
d="M757 223q0 -230 -148 -409q-125 -151 -249 -168q-108 39 -234 80q-24 8 -24 25q0 23 33 23q180 0 301 52q70 30 156 115q98 97 98 165q0 76 -96 223q-7 11 6 27q23 26 84 97q10 9 16 0q57 -83 57 -230zM388 720l105 104l107 -107l-104 -105zM602 730l105 105l107 -108
l-104 -104zM489 936l105 104l106 -106l-104 -105z" />
    <glyph glyph-name="u06AF" unicode="&#x6af;" horiz-adv-x="1956" arabic-form="isolated" 
d="M1987 1690q-23 -79 -61 -134q-534 -206 -898 -462v80q362 310 944 537q12 5 16 1q4 -5 -1 -22zM1962 1330l-19 -107q-3 -18 -17 -22q-209 -55 -430 -161q-232 -110 -394 -235q-19 -15 1 -31q356 -289 356 -401q0 -123 -49 -193q-138 -196 -671 -196q-209 0 -348 49
q-195 69 -195 223q0 51 34 142q40 107 85 107q6 0 6 -7t-8 -19q-43 -64 -43 -129q0 -112 172 -170q143 -48 367 -48q151 0 304 26q282 48 282 142q0 16 -9 34q-18 38 -149 160q-45 42 -162 150q-35 33 -35 133q0 70 29 99q137 137 409 280q244 128 461 194q18 6 22 3
q5 -3 1 -23z" />
    <glyph glyph-name="uFB57" unicode="&#x67e;" horiz-adv-x="1680" arabic-form="final" 
d="M1712 1h-71q-178 0 -234 177q-160 -203 -620 -203q-252 0 -385 46q-205 71 -205 258q0 131 92 227q9 9 17 9q10 0 10 -13q0 -7 -4 -15q-45 -90 -45 -139q0 -129 242 -186q153 -36 337 -36q348 0 506 108q41 28 62 63q10 16 17 16q9 0 14 -21q17 -72 43 -99
q42 -43 143 -43h81v-149zM1009 -282l-105 -104l-107 107l104 105zM795 -292l-105 -104l-107 107l104 105zM907 -498l-104 -104l-107 106l105 105z" />
    <glyph glyph-name="uFB58" unicode="&#x67e;" horiz-adv-x="466" arabic-form="initial" 
d="M303 293q0 -119 -72 -203q-76 -89 -193 -89h-68v149h79q56 0 110 15q77 21 77 64q0 42 -95 162l65 119q11 19 21 2q76 -125 76 -219zM456 -271l-105 -105l-107 108l104 104zM242 -282l-105 -104l-107 107l104 105zM354 -487l-104 -105l-107 107l105 104z" />
    <glyph glyph-name="uFB59" unicode="&#x67e;" horiz-adv-x="487" arabic-form="medial" 
d="M518 1h-63q-55 0 -115 40.5t-82 90.5q-69 -131 -219 -131h-69v149h89q121 0 188 93q22 30 27 32q7 0 17 -20q15 -30 24 -41q50 -64 138 -64h65v-149zM456 -271l-105 -105l-107 108l104 104zM242 -282l-105 -104l-107 107l104 105zM354 -487l-104 -105l-107 107l105 104z
" />
    <glyph glyph-name="uFB7B" unicode="&#x686;" horiz-adv-x="1128" arabic-form="final" 
d="M1354 -723q0 -14 -49 -30l-134 -45q-74 -25 -147 -50q-74 -21 -157 -21q-671 0 -671 529q0 248 167 432q114 126 280 199q-60 12 -182 12q-115 0 -198 -33q-16 0 -16 20q0 36 45 88q64 75 171 75q59 0 177 -15.5t177 -15.5h243q27 0 19 -28q-12 -41 -40 -105
q-7 -15 -29 -15q-85 0 -159 -13q7 -60 32 -81q35 -30 138 -30h138v-149h-107q-157 0 -215 72q-41 51 -46 175q-220 -55 -371 -198q-169 -160 -169 -364q0 -195 202 -309q182 -103 444 -103q108 0 265 12l170 13q22 2 22 -22zM881 -225l-105 -105l-107 108l104 104zM667 -236
l-105 -104l-107 108l104 104zM779 -441l-104 -105l-107 107l105 104z" />
    <glyph glyph-name="uFB7C" unicode="&#x686;" horiz-adv-x="956" arabic-form="initial" 
d="M953 336q-17 -58 -28 -89q-7 -20 -32 -20q16 0 -113 8q-94 6 -147 -5q-127 -26 -353 -132q-207 -97 -254 -97h-56v149h53q98 0 260 56l223 77q-77 27 -139 47q-119 38 -197 38q-20 0 -57.5 -9t-55.5 -9q-12 0 -12 16q0 42 52 98q59 63 128 63q54 0 152 -43
q136 -60 211 -81q156 -44 350 -44q22 0 15 -23zM696 -205l-104 -104l-108 107l105 105zM482 -215l-104 -104l-108 107l105 104zM595 -421l-105 -104l-106 106l104 105z" />
    <glyph glyph-name="uFB7D" unicode="&#x686;" horiz-adv-x="1002" arabic-form="medial" 
d="M1032 1h-101q-147 0 -211 48q-75 55 -77 197q-156 -35 -378 -147q-194 -98 -242 -98h-53v149h53q96 0 260 66q209 84 223 87q-39 14 -140 48q-112 37 -199 37q-19 0 -55.5 -8.5t-54.5 -8.5q-12 0 -12 16q0 40 53 97q60 65 127 65q53 0 152 -44q133 -59 211 -81
q156 -44 350 -44q17 0 17 -14q0 -4 -2 -10q-12 -40 -28 -89q-6 -19 -32 -19q-13 0 -103 3l-90 3q-3 -16 -3 -30q0 -74 118 -74h217v-149zM686 -205l-104 -104l-108 107l105 105zM472 -215l-104 -104l-108 107l105 104zM585 -421l-105 -104l-106 106l104 105z" />
    <glyph glyph-name="uFB8B" unicode="&#x698;" horiz-adv-x="907" arabic-form="final" 
d="M937 1h-65q-52 0 -112 41q1 -13 1 -26q0 -126 -114 -265q-159 -193 -287 -217l-240 76q-26 8 -26 27q0 21 35 20q172 -7 311 63q83 42 167 123q102 99 102 172q0 41 -80 130q-9 10 -3 22l58 116q12 23 27 -1q85 -132 160 -132h66v-149zM383 561l104 105l108 -108
l-105 -104zM597 571l104 105l108 -108l-104 -104zM484 777l105 105l106 -107l-104 -104z" />
    <glyph glyph-name="uFEDA" unicode="&#x6a9;" horiz-adv-x="2052" arabic-form="final" 
d="M2083 1h-87q-60 0 -245 168q-231 210 -246 220q-27 18 -32 18t-5 -49q0 -95 -58 -178q-138 -196 -671 -196q-209 0 -348 49q-195 69 -195 223q0 51 34 142q40 107 85 107q6 0 6 -7t-8 -19q-43 -64 -43 -129q0 -112 172 -170q143 -48 367 -48q130 0 284 25q214 35 281 97
q47 44 47 122q0 63 -149 144q-171 93 -183 109q-43 57 -43 156q0 57 26 85q125 134 420 315q281 172 469 239q22 8 26 4q2 -3 2 -6q0 -8 -4 -21q-9 -26 -42 -118q-8 -23 -20 -27q-199 -71 -426 -200.5t-390 -264.5q-28 -23 1 -37q269 -125 479 -284q53 -40 267 -227
q106 -93 163 -93h66v-149z" />
    <glyph glyph-name="uFEDB" unicode="&#x6a9;" horiz-adv-x="973" arabic-form="initial" 
d="M991 1328l-17 -107q-3 -18 -17 -22q-214 -55 -443 -160q-246 -112 -406 -236q-19 -15 1 -31q169 -136 224 -191q132 -131 132 -222q0 -130 -51 -224q-73 -134 -341 -134h-104v149h115q150 0 239 43q70 34 76 75q6 42 -23 86q-18 28 -133 135q-135 126 -161 155
q-33 37 -33 135q0 69 27 99q116 128 399 270q248 124 495 199q15 5 20 0q4 -3 1 -19z" />
    <glyph glyph-name="uFEDC" unicode="&#x6a9;" horiz-adv-x="1069" arabic-form="medial" 
d="M1100 1h-87q-80 0 -241 144q-62 56 -225 203q-27 20 -35 21l-6 -12q5 -50 5 -74q0 -282 -361 -282h-180v149h203q109 0 188 35q99 44 99 126q0 84 -112 155q-33 19 -118 69q-91 53 -125 90q-51 55 -51 163q0 52 25 80q119 132 416 307q251 148 473 239q22 9 26 5
t-45 -146q-8 -23 -19 -27q-205 -74 -436 -201q-252 -138 -375 -253q-26 -24 1 -37q263 -129 477 -294q35 -27 262 -223q102 -88 160 -88h81v-149z" />
    <glyph glyph-name="uFB93" unicode="&#x6af;" horiz-adv-x="2052" arabic-form="final" 
d="M1966 1730q-24 -83 -60 -136q-393 -151 -888 -500v82q451 386 934 575q12 5 15 1q4 -5 -1 -22zM2083 1h-87q-60 0 -245 169q-255 233 -274 233q-9 0 -9 -45q0 -95 -58 -178q-138 -196 -671 -196q-209 0 -348 49q-195 69 -195 223q0 51 34 142q40 107 85 107q6 0 6 -7
t-8 -19q-43 -64 -43 -129q0 -112 172 -170q143 -48 367 -48q130 0 284 25q214 35 281 97q46 43 46 124q0 50 -146 133q-165 93 -180 114q-45 61 -45 162q0 55 25 82q116 124 419 306q273 164 468 241q22 9 26 5q2 -3 2 -6q0 -10 -4 -22q-11 -32 -42 -120q-8 -23 -20 -27
q-204 -74 -427 -198q-230 -128 -390 -260q-28 -23 1 -36q262 -119 476 -280q55 -41 269 -228q108 -94 165 -94h66v-149z" />
    <glyph glyph-name="uFB94" unicode="&#x6af;" horiz-adv-x="963" arabic-form="initial" 
d="M993 1690q-27 -92 -55 -134q-502 -193 -898 -473v80q388 333 939 548q12 5 16 1q3 -5 -2 -22zM973 1315l-15 -105q-2 -17 -16 -21q-214 -57 -434 -160q-235 -110 -395 -236q-19 -15 1 -31q356 -289 356 -396q0 -129 -39 -210q-74 -155 -314 -155h-137v149h96
q256 0 314 75q32 41 7 94q-18 39 -149 163q-45 42 -161 152q-34 33 -34 129q0 69 28 98q130 133 392 276q245 133 475 204q19 6 23 2q5 -5 2 -28z" />
    <glyph glyph-name="uFB95" unicode="&#x6af;" horiz-adv-x="1060" arabic-form="medial" 
d="M997 1753q-23 -81 -60 -134q-383 -148 -888 -504v83q457 393 934 577q12 4 16 0q3 -3 -2 -22zM1090 1h-88q-61 0 -228 147l-229 202q-10 9 -33 19q-5 0 -2 -52q1 -18 1 -34q0 -282 -361 -282h-181v149h204q109 0 188 35q99 44 99 126q0 92 -127 170q-62 35 -124 71
q-81 48 -109 81q-45 53 -45 151q0 60 25 87q123 134 422 317q281 171 466 237q23 8 26 5q4 -4 -45 -147q-8 -23 -19 -27q-199 -71 -428 -200q-233 -132 -392 -264q-28 -23 1 -37q253 -120 470 -284q26 -20 274 -228q111 -93 169 -93h66v-149z" />
    <glyph glyph-name="uFE94" unicode="&#x6c0;" horiz-adv-x="784" arabic-form="final" 
d="M814 1h-60q-190 0 -232 231l-51 -63q-34 -42 -56 -42q-66 0 -131 19q-88 26 -88 71q0 32 30 90q65 125 266 230q-2 16 -13 77l49 66q14 19 20 -5q4 -17 26 -235q19 -193 49 -243q22 -37 68 -45q12 -2 80 -2h43v-149zM518 283q-6 54 -16 153q-36 -9 -106 -46
q-81 -43 -81 -68q0 -42 203 -39zM535 949q0 -71 -15 -81q-1 -1 -99 -18l-51 -9l-160 -30q-7 17 -6 41q27 12 92 45q-20 14 -39 47t-19 57q0 35 44 96q50 69 97 69q22 0 46 -17t24 -38q0 -12 -15 -43q-9 -19 -22 -4q-19 21 -61 21q-44 0 -44 -46q0 -26 43 -64.5t70 -38.5
q28 0 104 20q11 3 11 -7z" />
    <glyph glyph-name="uFEF2" unicode="&#x6cc;" horiz-adv-x="1206" arabic-form="final" 
d="M1237 1h-58q-69 0 -154 -14q-123 -21 -123 -58q0 -24 68 -38q103 -22 129 -33q73 -32 82 -97q10 -76 -10 -119q-49 -104 -247 -173q-170 -59 -325 -59q-186 0 -292 94q-111 98 -111 282q0 87 39 192q34 91 70 133q14 16 24 16q21 0 5 -35q-71 -158 -71 -251
q0 -279 368 -279q110 0 277 38q217 50 217 120q0 26 -76 41q-114 22 -143 35q-77 34 -77 107q0 105 115 179q105 68 231 68h62v-149z" />
    <glyph glyph-name="uFEF3" unicode="&#x6cc;" horiz-adv-x="461" arabic-form="initial" 
d="M303 293q0 -119 -72 -203q-76 -89 -193 -89h-68v149h79q56 0 110 15q77 21 77 64q0 42 -95 162l65 119q11 19 21 2q76 -125 76 -219zM454 -304l-110 -111l-113 113l110 111zM238 -315l-110 -111l-113 113l110 110z" />
    <glyph glyph-name="uFEF4" unicode="&#x6cc;" horiz-adv-x="487" arabic-form="medial" 
d="M518 1h-63q-55 0 -115 40.5t-82 90.5q-69 -131 -219 -131h-69v149h89q121 0 188 93q22 30 27 32q7 0 17 -20q15 -30 24 -41q50 -64 138 -64h65v-149zM454 -304l-110 -111l-113 113l110 111zM238 -315l-110 -111l-113 113l110 110z" />
    <glyph glyph-name="Hcircumflex" unicode="&#x622;" horiz-adv-x="746" arabic-form="final" 
d="M844 1404q-57 -69 -188 -107q-110 -32 -225 -32q-28 0 -83.5 9.5t-83.5 9.5q-11 0 -17 -3q-18 -9 -23 -41q-4 -28 -23 -28q-38 0 -62 36q-22 32 -22 71q0 89 96 88q40 0 119.5 -14t120.5 -14q89 0 221 18q19 3 81 20q55 15 76 15q13 0 17 -9q5 -8 -4 -19zM777 1h-61
q-80 0 -142 73q-89 105 -102 334q-26 468 -59 644q-7 39 16 66l56 48q19 16 20 -8l44 -791q6 -107 29 -149q38 -68 144 -68h55v-149z" />
    <glyph glyph-name="uFE84" unicode="&#x623;" horiz-adv-x="624" arabic-form="final" 
d="M654 1h-61q-80 0 -142 73q-89 105 -102 334q-26 468 -59 644q-8 42 8 57q28 26 64 57q19 16 20 -8l44 -791q6 -107 29 -149q38 -68 144 -68h55v-149zM504 1354q0 -79 -36 -92q-43 -4 -129 -17l-160 -30q-6 17 -6 41q27 13 92 46q-58 44 -58 104q0 34 44 95q50 70 97 70
q22 0 46 -17t24 -38q0 -10 -15 -43q-9 -20 -22 -5q-20 22 -60 22q-45 0 -45 -46q0 -27 42.5 -65.5t70.5 -38.5q30 0 105 21q10 3 10 -7z" />
    <glyph glyph-name="uFE86" unicode="&#x624;" horiz-adv-x="887" arabic-form="final" 
d="M918 1h-134q-29 -147 -161 -298q-145 -166 -283 -166q-112 31 -227 71q-23 8 -23 23q0 20 33 20q119 0 171 9q178 31 333 190q85 87 85 150q-121 15 -166 42q-72 43 -72 151q0 65 51 148q55 90 117 90q77 0 121 -112q30 -77 35 -169h120v-149zM705 152q-4 49 -26 88
q-28 48 -72 48q-55 0 -55 -67q0 -69 153 -69zM739 785q0 -78 -35 -91q-65 -8 -130 -17q-9 -2 -159 -30q-7 17 -6 41q27 12 92 45q-19 13 -39 48t-20 57q0 33 45 95q50 69 97 69q23 0 46 -16.5t23 -38.5q0 -13 -14 -43q-9 -20 -23 -4q-20 22 -60 22q-44 0 -44 -46
q0 -27 42.5 -65.5t70.5 -38.5q26 0 104 21q10 3 10 -8z" />
    <glyph glyph-name="uFE88" unicode="&#x625;" horiz-adv-x="611" arabic-form="final" 
d="M644 1h-61q-80 0 -142 73q-89 105 -102 334q-26 468 -59 644q-7 39 16 66l56 48q19 16 20 -8l44 -791q6 -107 29 -149q38 -68 144 -68h55v-149zM606 -264q0 -79 -35 -92q-43 -5 -130 -17q-42 -8 -159 -29q-7 16 -7 41q28 12 93 45q-19 14 -39 48t-20 56q0 34 45 96
q50 69 97 69q23 0 46 -16.5t23 -38.5q0 -12 -14 -43q-9 -20 -23 -5q-20 22 -60 22q-44 0 -44 -46q0 -27 42.5 -65.5t70.5 -38.5q30 0 104 21q10 3 10 -7z" />
    <glyph glyph-name="uFE8A" unicode="&#x626;" horiz-adv-x="1206" arabic-form="final" 
d="M1237 1h-58q-69 0 -154 -14q-123 -21 -123 -58q0 -24 68 -38q103 -22 129 -33q73 -32 82 -97q10 -76 -10 -119q-49 -104 -247 -173q-170 -59 -325 -59q-186 0 -292 94q-111 98 -111 282q0 87 39 192q34 91 70 133q14 16 24 16q21 0 5 -35q-71 -158 -71 -251
q0 -279 368 -279q110 0 277 38q217 50 217 120q0 26 -76 41q-114 22 -143 35q-77 34 -77 107q0 105 115 179q105 68 231 68h62v-149zM571 385q0 -79 -35 -92q-43 -5 -129 -17q-43 -8 -160 -29q-7 17 -6 41q27 12 92 45q-19 14 -39 48t-20 56q0 34 45 96q50 69 97 69
q23 0 46 -16.5t23 -38.5q0 -13 -14 -43q-9 -19 -22 -4q-19 21 -61 21q-44 0 -44 -46q0 -29 47 -68q43 -35 66 -35q30 0 104 20q10 3 10 -7z" />
    <glyph glyph-name="uFE8B" unicode="&#x626;" horiz-adv-x="333" arabic-form="initial" 
d="M303 293q0 -119 -72 -203q-76 -89 -193 -89h-68v149h79q56 0 110 15q77 21 77 64q0 42 -95 162l65 119q11 19 21 2q76 -125 76 -219zM350 872q0 -78 -36 -91q-43 -6 -129 -17q-30 -6 -159 -30q-7 17 -7 41q28 12 93 45q-19 13 -39 48t-20 57q0 32 45 95q50 70 97 70
q23 0 46 -17t23 -39q0 -12 -14 -43q-9 -20 -23 -4q-20 22 -60 22q-44 0 -44 -46q0 -27 42.5 -65.5t70.5 -38.5q26 0 104 21q10 3 10 -8z" />
    <glyph glyph-name="uFE8C" unicode="&#x626;" horiz-adv-x="487" arabic-form="medial" 
d="M518 1h-63q-55 0 -115 40.5t-82 90.5q-69 -131 -219 -131h-69v149h89q121 0 188 93q22 30 27 32q7 0 17 -20q15 -30 24 -41q50 -64 138 -64h65v-149zM412 606q0 -71 -15 -81q-1 -1 -99 -18l-51 -9l-160 -30q-6 17 -6 41q27 12 92 45q-20 14 -39 47t-19 57q0 35 44 96
q50 69 97 69q22 0 46 -17t24 -38q0 -12 -15 -43q-9 -19 -22 -4q-19 21 -61 21q-44 0 -44 -46q0 -29 47 -68q43 -35 66 -35q28 0 104 20q11 3 11 -7z" />
    <glyph glyph-name="uFE8E" unicode="&#x627;" horiz-adv-x="530" arabic-form="final" 
d="M562 1h-61q-80 0 -142 73q-89 105 -102 334q-26 468 -59 644q-7 39 16 66l56 48q19 16 20 -8l44 -791q6 -107 29 -149q38 -68 144 -68h55v-149z" />
    <glyph glyph-name="uFE90" unicode="&#x628;" horiz-adv-x="1680" arabic-form="final" 
d="M1712 1h-71q-178 0 -234 177q-160 -203 -620 -203q-252 0 -385 46q-205 71 -205 258q0 131 92 227q9 9 17 9q10 0 10 -13q0 -7 -4 -15q-45 -90 -45 -139q0 -129 242 -186q153 -36 337 -36q348 0 506 108q41 28 62 63q10 16 17 16q9 0 14 -21q17 -72 43 -99
q42 -43 143 -43h81v-149zM978 -343l-116 -116l-119 119l116 116z" />
    <glyph glyph-name="uFE91" unicode="&#x628;" horiz-adv-x="313" arabic-form="initial" 
d="M303 293q0 -119 -72 -203q-76 -89 -193 -89h-68v149h79q56 0 110 15q77 21 77 64q0 42 -95 162l65 119q11 19 21 2q76 -125 76 -219zM302 -302l-116 -116l-118 119l115 116z" />
    <glyph glyph-name="uFE92" unicode="&#x628;" horiz-adv-x="487" arabic-form="medial" 
d="M518 1h-63q-55 0 -115 40.5t-82 90.5q-69 -131 -219 -131h-69v149h89q121 0 188 93q22 30 27 32q7 0 17 -20q15 -30 24 -41q50 -64 138 -64h65v-149zM353 -302l-115 -116l-119 119l115 116z" />
    <glyph glyph-name="uFE96" unicode="&#x62a;" horiz-adv-x="1680" arabic-form="final" 
d="M1712 1h-71q-178 0 -234 177q-160 -203 -620 -203q-252 0 -385 46q-205 71 -205 258q0 131 92 227q9 9 17 9q10 0 10 -13q0 -7 -4 -15q-45 -90 -45 -139q0 -129 242 -186q153 -36 337 -36q348 0 506 108q41 28 62 63q10 16 17 16q9 0 14 -21q17 -72 43 -99
q42 -43 143 -43h81v-149zM1022 740l-110 -110l-112 112l109 111zM806 729l-110 -111l-112 113l109 111z" />
    <glyph glyph-name="uFE97" unicode="&#x62a;" horiz-adv-x="445" arabic-form="initial" 
d="M303 293q0 -119 -72 -203q-76 -89 -193 -89h-68v149h79q56 0 110 15q77 21 77 64q0 42 -95 162l65 119q11 19 21 2q76 -125 76 -219zM454 833l-110 -111l-113 113l110 110zM238 821l-110 -110l-113 112l110 111z" />
    <glyph glyph-name="uFE98" unicode="&#x62a;" horiz-adv-x="487" arabic-form="medial" 
d="M518 1h-63q-55 0 -115 40.5t-82 90.5q-69 -131 -219 -131h-69v149h89q121 0 188 93q22 30 27 32q7 0 17 -20q15 -30 24 -41q50 -64 138 -64h65v-149zM452 648l-110 -110l-113 112l110 111zM236 637l-110 -111l-113 113l110 111z" />
    <glyph glyph-name="uFE9A" unicode="&#x62b;" horiz-adv-x="1680" arabic-form="final" 
d="M1712 1h-71q-178 0 -234 177q-160 -203 -620 -203q-252 0 -385 46q-205 71 -205 258q0 131 92 227q9 9 17 9q10 0 10 -13q0 -7 -4 -15q-45 -90 -45 -139q0 -129 242 -186q153 -36 337 -36q348 0 506 108q41 28 62 63q10 16 17 16q9 0 14 -21q17 -72 43 -99
q42 -43 143 -43h81v-149zM588 669l104 104l108 -107l-105 -105zM802 679l104 104l108 -107l-105 -105zM689 885l105 104l106 -106l-104 -105z" />
    <glyph glyph-name="uFE9B" unicode="&#x62b;" horiz-adv-x="461" arabic-form="initial" 
d="M303 293q0 -119 -72 -203q-76 -89 -193 -89h-68v149h79q56 0 110 15q77 21 77 64q0 42 -95 162l65 119q11 19 21 2q76 -125 76 -219zM25 781l104 105l108 -108l-105 -104zM239 792l104 104l108 -108l-105 -104zM126 997l104 105l107 -107l-105 -104z" />
    <glyph glyph-name="uFE9C" unicode="&#x62b;" horiz-adv-x="487" arabic-form="medial" 
d="M518 1h-63q-55 0 -115 40.5t-82 90.5q-69 -131 -219 -131h-69v149h89q121 0 188 93q22 30 27 32q7 0 17 -20q15 -30 24 -41q50 -64 138 -64h65v-149zM25 566l104 105l108 -108l-105 -104zM239 577l104 104l108 -108l-105 -104zM126 782l104 105l107 -107l-105 -104z" />
    <glyph glyph-name="uFE9E" unicode="&#x62c;" horiz-adv-x="1128" arabic-form="final" 
d="M1354 -723q0 -14 -49 -30l-134 -45q-74 -25 -147 -50q-74 -21 -157 -21q-671 0 -671 529q0 248 167 432q114 126 280 199q-60 12 -182 12q-115 0 -198 -33q-16 0 -16 20q0 36 45 88q64 75 171 75q59 0 177 -15.5t177 -15.5h243q27 0 19 -28q-12 -41 -40 -105
q-7 -15 -29 -15q-85 0 -159 -13q7 -60 32 -81q35 -30 138 -30h138v-149h-107q-157 0 -215 72q-41 51 -46 175q-220 -55 -371 -198q-169 -160 -169 -364q0 -195 202 -309q182 -103 444 -103q108 0 265 12l170 13q22 2 22 -22zM819 -317l-116 -116l-118 119l115 115z" />
    <glyph glyph-name="uFE9F" unicode="&#x62c;" horiz-adv-x="956" arabic-form="initial" 
d="M953 336q-17 -58 -28 -89q-7 -20 -32 -20q16 0 -113 8q-94 6 -147 -5q-127 -26 -353 -132q-207 -97 -254 -97h-56v149h53q98 0 260 56l223 77q-77 27 -139 47q-119 38 -197 38q-20 0 -57.5 -9t-55.5 -9q-12 0 -12 16q0 42 52 98q59 63 128 63q54 0 152 -43
q136 -60 211 -81q156 -44 350 -44q22 0 15 -23zM625 -256l-116 -116l-119 119l116 116z" />
    <glyph glyph-name="uFEA0" unicode="&#x62c;" horiz-adv-x="1002" arabic-form="medial" 
d="M1032 1h-101q-147 0 -211 48q-75 55 -77 197q-156 -35 -378 -147q-194 -98 -242 -98h-53v149h53q96 0 260 66q209 84 223 87q-39 14 -140 48q-112 37 -199 37q-19 0 -55.5 -8.5t-54.5 -8.5q-12 0 -12 16q0 40 53 97q60 65 127 65q53 0 152 -44q133 -59 211 -81
q156 -44 350 -44q17 0 17 -14q0 -4 -2 -10q-12 -40 -28 -89q-6 -19 -32 -19q-13 0 -103 3l-90 3q-3 -16 -3 -30q0 -74 118 -74h217v-149zM625 -256l-116 -116l-119 119l116 116z" />
    <glyph glyph-name="uFEA2" unicode="&#x62d;" horiz-adv-x="1128" arabic-form="final" 
d="M1354 -723q0 -14 -49 -30l-134 -45q-74 -25 -147 -50q-74 -21 -157 -21q-671 0 -671 529q0 248 167 432q114 126 280 199q-60 12 -182 12q-115 0 -198 -33q-16 0 -16 20q0 36 45 88q64 75 171 75q59 0 177 -15.5t177 -15.5h243q27 0 19 -28q-12 -41 -40 -105
q-7 -15 -29 -15q-85 0 -159 -13q7 -60 32 -81q35 -30 138 -30h138v-149h-107q-157 0 -215 72q-41 51 -46 175q-220 -55 -371 -198q-169 -160 -169 -364q0 -195 202 -309q182 -103 444 -103q108 0 265 12l170 13q22 2 22 -22z" />
    <glyph glyph-name="uFEA3" unicode="&#x62d;" horiz-adv-x="956" arabic-form="initial" 
d="M953 336q-17 -58 -28 -89q-7 -20 -32 -20q16 0 -113 8q-94 6 -147 -5q-127 -26 -353 -132q-207 -97 -254 -97h-56v149h53q98 0 260 56l223 77q-77 27 -139 47q-119 38 -197 38q-20 0 -57.5 -9t-55.5 -9q-12 0 -12 16q0 42 52 98q59 63 128 63q54 0 152 -43
q136 -60 211 -81q156 -44 350 -44q22 0 15 -23z" />
    <glyph glyph-name="uFEA4" unicode="&#x62d;" horiz-adv-x="1002" arabic-form="medial" 
d="M1032 1h-101q-147 0 -211 48q-75 55 -77 197q-156 -35 -378 -147q-194 -98 -242 -98h-53v149h53q96 0 260 66q209 84 223 87q-39 14 -140 48q-112 37 -199 37q-19 0 -55.5 -8.5t-54.5 -8.5q-12 0 -12 16q0 40 53 97q60 65 127 65q53 0 152 -44q133 -59 211 -81
q156 -44 350 -44q17 0 17 -14q0 -4 -2 -10q-12 -40 -28 -89q-6 -19 -32 -19q-13 0 -103 3l-90 3q-3 -16 -3 -30q0 -74 118 -74h217v-149z" />
    <glyph glyph-name="uFEA6" unicode="&#x62e;" horiz-adv-x="1128" arabic-form="final" 
d="M1354 -723q0 -14 -49 -30l-134 -45q-74 -25 -147 -50q-74 -21 -157 -21q-671 0 -671 529q0 248 167 432q114 126 280 199q-60 12 -182 12q-115 0 -198 -33q-16 0 -16 20q0 36 45 88q64 75 171 75q59 0 177 -15.5t177 -15.5h243q27 0 19 -28q-12 -41 -40 -105
q-7 -15 -29 -15q-85 0 -159 -13q7 -60 32 -81q35 -30 138 -30h138v-149h-107q-157 0 -215 72q-41 51 -46 175q-220 -55 -371 -198q-169 -160 -169 -364q0 -195 202 -309q182 -103 444 -103q108 0 265 12l170 13q22 2 22 -22zM758 773l-116 -116l-119 119l116 116z" />
    <glyph glyph-name="uFEA7" unicode="&#x62e;" horiz-adv-x="956" arabic-form="initial" 
d="M953 336q-17 -58 -28 -89q-7 -20 -32 -20q16 0 -113 8q-94 6 -147 -5q-127 -26 -353 -132q-207 -97 -254 -97h-56v149h53q98 0 260 56l223 77q-77 27 -139 47q-119 38 -197 38q-20 0 -57.5 -9t-55.5 -9q-12 0 -12 16q0 42 52 98q59 63 128 63q54 0 152 -43
q136 -60 211 -81q156 -44 350 -44q22 0 15 -23zM717 773l-116 -116l-119 119l116 116z" />
    <glyph glyph-name="uFEA8" unicode="&#x62e;" horiz-adv-x="1002" arabic-form="medial" 
d="M1032 1h-101q-147 0 -211 48q-75 55 -77 197q-156 -35 -378 -147q-194 -98 -242 -98h-53v149h53q96 0 260 66q209 84 223 87q-39 14 -140 48q-112 37 -199 37q-19 0 -55.5 -8.5t-54.5 -8.5q-12 0 -12 16q0 40 53 97q60 65 127 65q53 0 152 -44q133 -59 211 -81
q156 -44 350 -44q17 0 17 -14q0 -4 -2 -10q-12 -40 -28 -89q-6 -19 -32 -19q-13 0 -103 3l-90 3q-3 -16 -3 -30q0 -74 118 -74h217v-149zM676 773l-116 -116l-119 119l116 116z" />
    <glyph glyph-name="uFEAA" unicode="&#x62f;" horiz-adv-x="897" arabic-form="final" 
d="M927 1h-62q-138 0 -199 230q-69 -98 -116 -134q-88 -68 -219 -68q-135 0 -135 74q0 69 25 158q6 22 18 3q52 -81 161 -81q76 0 144 34q94 47 94 135q0 89 -65 374q-2 11 4.5 19.5t56.5 80.5q10 14 15 -2q28 -89 78 -451q16 -115 39 -159q34 -64 111 -64h50v-149z" />
    <glyph glyph-name="uFEAC" unicode="&#x630;" horiz-adv-x="897" arabic-form="final" 
d="M927 1h-62q-138 0 -199 230q-69 -98 -116 -134q-88 -68 -219 -68q-135 0 -135 74q0 69 25 158q6 22 18 3q52 -81 161 -81q76 0 144 34q94 47 94 135q0 89 -65 374q-2 11 4.5 19.5t56.5 80.5q10 14 15 -2q28 -89 78 -451q16 -115 39 -159q34 -64 111 -64h50v-149z
M696 1065l-115 -116l-119 119l116 116z" />
    <glyph glyph-name="uFEAE" unicode="&#x631;" horiz-adv-x="907" arabic-form="final" 
d="M937 1h-65q-52 0 -112 41q1 -13 1 -26q0 -126 -114 -265q-159 -193 -287 -217l-240 76q-26 8 -26 27q0 21 35 20q172 -7 311 63q83 42 167 123q102 99 102 172q0 41 -80 130q-9 10 -3 22l58 116q12 23 27 -1q85 -132 160 -132h66v-149z" />
    <glyph glyph-name="uFEB0" unicode="&#x632;" horiz-adv-x="907" arabic-form="final" 
d="M937 1h-65q-52 0 -112 41q1 -13 1 -26q0 -126 -114 -265q-159 -193 -287 -217l-240 76q-26 8 -26 27q0 21 35 20q172 -7 311 63q83 42 167 123q102 99 102 172q0 41 -80 130q-9 10 -3 22l58 116q12 23 27 -1q85 -132 160 -132h66v-149zM712 558l-116 -116l-119 119
l116 116z" />
    <glyph glyph-name="uFEB2" unicode="&#x633;" horiz-adv-x="1891" arabic-form="final" 
d="M1922 1h-61q-138 0 -214 153q-87 -141 -196 -141q-89 0 -128 100q-53 -112 -157 -112q-70 0 -104 15q0 -570 -506 -570q-154 0 -250 69q-110 78 -110 226q0 92 44 197q35 84 78 137q13 16 25 16q13 0 13 -15q0 -10 -8 -22q-84 -126 -84 -230q0 -87 69 -147
q92 -80 282 -80q235 0 336 116q45 51 45 193q0 115 -26 168q-20 28 -34 50q-9 14 13 61q16 31 32 61q10 22 25 1q39 -54 44 -59q44 -38 121 -38q67 0 122 60q38 41 56 87q7 17 20 17q11 0 19 -39q10 -49 21 -64q27 -38 80 -38q126 0 160 124q5 20 18 20q15 0 20 -22
q14 -62 58 -102q46 -43 107 -43h70v-149z" />
    <glyph glyph-name="uFEB3" unicode="&#x633;" horiz-adv-x="865" arabic-form="initial" 
d="M864 326q0 -238 -138 -238q-96 0 -165 94q-52 -80 -66 -95q-61 -62 -153 -62q-108 0 -149 73q-80 -97 -161 -97h-62v149h87q121 0 164 138q8 26 27 26q15 0 15 -26q0 -122 89 -122q146 0 207 200q8 25 24 25q13 0 18 -21q31 -132 132 -132q52 0 52 50q0 43 -41 89
q-6 7 2 17q42 48 63 75q9 11 16 0q39 -59 39 -143z" />
    <glyph glyph-name="uFEB4" unicode="&#x633;" horiz-adv-x="1041" arabic-form="medial" 
d="M1072 1h-61q-127 0 -190 151q-66 -140 -178 -140q-99 0 -129 116q-25 -46 -79 -79.5t-106 -33.5q-86 0 -125 80q-70 -94 -165 -94h-70v149h72q145 0 190 132q9 25 23 25q13 0 18 -31q8 -47 23 -68q25 -34 84 -34q66 0 118 48q37 34 53 75q7 17 20 17q16 0 16 -20
q0 -121 94 -121q91 0 123 116q5 19 19 19t19 -21q31 -137 161 -137h70v-149z" />
    <glyph glyph-name="uFEB6" unicode="&#x634;" horiz-adv-x="1891" arabic-form="final" 
d="M1922 1h-61q-138 0 -214 153q-87 -141 -196 -141q-89 0 -128 100q-53 -112 -157 -112q-70 0 -104 15q0 -570 -506 -570q-154 0 -250 69q-110 78 -110 226q0 92 44 197q35 84 78 137q13 16 25 16q13 0 13 -15q0 -10 -8 -22q-84 -126 -84 -230q0 -87 69 -147
q92 -80 282 -80q235 0 336 116q45 51 45 193q0 115 -26 168q-20 28 -34 50q-9 14 13 61q16 31 32 61q10 22 25 1q39 -54 44 -59q44 -38 121 -38q67 0 122 60q38 41 56 87q7 17 20 17q11 0 19 -39q10 -49 21 -64q27 -38 80 -38q126 0 160 124q5 20 18 20q15 0 20 -22
q14 -62 58 -102q46 -43 107 -43h70v-149zM1146 653l104 105l108 -108l-105 -104zM1360 664l104 104l108 -108l-105 -104zM1247 869l105 105l106 -107l-104 -104z" />
    <glyph glyph-name="uFEB7" unicode="&#x634;" horiz-adv-x="865" arabic-form="initial" 
d="M864 326q0 -238 -138 -238q-96 0 -165 94q-52 -80 -66 -95q-61 -62 -153 -62q-108 0 -149 73q-80 -97 -161 -97h-62v149h87q121 0 164 138q8 26 27 26q15 0 15 -26q0 -122 89 -122q146 0 207 200q8 25 24 25q13 0 18 -21q31 -132 132 -132q52 0 52 50q0 43 -41 89
q-6 7 2 17q42 48 63 75q9 11 16 0q39 -59 39 -143zM306 725l105 104l107 -107l-104 -105zM520 735l105 105l107 -108l-104 -104zM408 941l104 105l106 -107l-104 -104z" />
    <glyph glyph-name="uFEB8" unicode="&#x634;" horiz-adv-x="1041" arabic-form="medial" 
d="M1072 1h-61q-127 0 -190 151q-66 -140 -178 -140q-99 0 -129 116q-25 -46 -79 -79.5t-106 -33.5q-86 0 -125 80q-70 -94 -165 -94h-70v149h72q145 0 190 132q9 25 23 25q13 0 18 -31q8 -47 23 -68q25 -34 84 -34q66 0 118 48q37 34 53 75q7 17 20 17q16 0 16 -20
q0 -121 94 -121q91 0 123 116q5 19 19 19t19 -21q31 -137 161 -137h70v-149zM378 653l104 105l108 -108l-105 -104zM592 664l104 104l108 -108l-105 -104zM479 869l105 105l106 -107l-104 -104z" />
    <glyph glyph-name="uFEBA" unicode="&#x635;" horiz-adv-x="2077" arabic-form="final" 
d="M2107 1h-73q-63 0 -189.5 11t-189.5 11q-61 0 -181.5 -11.5t-181.5 -11.5q-28 -46 -53 -102q-12 -26 -29 -26q-21 0 -16 28q3 21 30 102q-130 0 -162 14q0 -570 -506 -570q-154 0 -250 69q-110 78 -110 226q0 92 44 197q35 84 78 137q13 16 25 16q13 0 13 -15
q0 -10 -8 -22q-84 -126 -84 -230q0 -87 69 -147q92 -80 282 -80q235 0 336 116q45 51 45 193q0 115 -26 168q-20 28 -34 50q-9 14 13 61q16 31 32 61q10 21 25 1q36 -50 51 -62q44 -35 114 -35q100 0 134 24q45 54 162 184q73 81 169 136q111 64 205 64q70 0 115 -38.5
t45 -107.5q0 -186 -199 -297l246 35h59v-149zM1892 313q0 38 -47 60q-37 18 -80 18q-100 0 -220 -79q-103 -68 -177 -160q174 0 357 65q167 59 167 96z" />
    <glyph glyph-name="uFEBB" unicode="&#x635;" horiz-adv-x="1226" arabic-form="initial" 
d="M1223 401q0 -270 -423 -367q-148 -34 -286 -34q-28 -46 -53 -102q-12 -26 -29 -26q-21 0 -16 28q4 21 29 102q-100 0 -142 16q-66 25 -104 108q-56 -125 -164 -125h-66v149h84q125 0 165 122q10 30 21 30q12 0 14 -36q7 -116 140 -116q91 0 119 18q20 13 68 68
q65 75 110 122q75 79 170 134q113 66 203 66q160 0 160 -157zM1114 313q0 38 -47 60q-37 18 -80 18q-101 0 -221 -79q-102 -67 -176 -160q174 0 357 65q167 59 167 96z" />
    <glyph glyph-name="uFEBC" unicode="&#x635;" horiz-adv-x="1299" arabic-form="medial" 
d="M1329 1h-74q-63 0 -189 11t-189 11q-61 0 -181.5 -11.5t-181.5 -11.5q-28 -46 -53 -102q-12 -26 -29 -26q-21 0 -16 28q4 21 29 102q-100 0 -143 16q-66 25 -104 108q-56 -125 -163 -125h-66v149h84q125 0 165 122q10 30 21 30t14 -36q8 -116 140 -116q73 0 102 11
q35 13 78 64q84 99 115 133q74 81 170 136q110 64 205 64q73 0 116.5 -42t43.5 -115q0 -86 -61 -167q-56 -75 -138 -117q279 33 246 33h59v-149zM1114 313q0 38 -47 60q-37 18 -80 18q-101 0 -221 -79q-102 -67 -176 -160q174 0 357 65q167 59 167 96z" />
    <glyph glyph-name="uFEBE" unicode="&#x636;" horiz-adv-x="2077" arabic-form="final" 
d="M2107 1h-73q-63 0 -189.5 11t-189.5 11q-61 0 -181.5 -11.5t-181.5 -11.5q-28 -46 -53 -102q-12 -26 -29 -26q-21 0 -16 28q3 21 30 102q-130 0 -162 14q0 -570 -506 -570q-154 0 -250 69q-110 78 -110 226q0 92 44 197q35 84 78 137q13 16 25 16q13 0 13 -15
q0 -10 -8 -22q-84 -126 -84 -230q0 -87 69 -147q92 -80 282 -80q235 0 336 116q45 51 45 193q0 115 -26 168q-20 28 -34 50q-9 14 13 61q16 31 32 61q10 21 25 1q36 -50 51 -62q44 -35 114 -35q100 0 134 24q45 54 162 184q73 81 169 136q111 64 205 64q70 0 115 -38.5
t45 -107.5q0 -186 -199 -297l246 35h59v-149zM1892 313q0 38 -47 60q-37 18 -80 18q-100 0 -220 -79q-103 -68 -177 -160q174 0 357 65q167 59 167 96zM1695 860l-116 -116l-119 119l116 116z" />
    <glyph glyph-name="uFEBF" unicode="&#x636;" horiz-adv-x="1226" arabic-form="initial" 
d="M1223 401q0 -270 -423 -367q-148 -34 -286 -34q-28 -46 -53 -102q-12 -26 -29 -26q-21 0 -16 28q4 21 29 102q-100 0 -142 16q-66 25 -104 108q-56 -125 -164 -125h-66v149h84q125 0 165 122q10 30 21 30q12 0 14 -36q7 -116 140 -116q91 0 119 18q20 13 68 68
q65 75 110 122q75 79 170 134q113 66 203 66q160 0 160 -157zM1114 313q0 38 -47 60q-37 18 -80 18q-101 0 -221 -79q-102 -67 -176 -160q174 0 357 65q167 59 167 96zM927 860l-116 -116l-119 119l116 116z" />
    <glyph glyph-name="uFEC0" unicode="&#x636;" horiz-adv-x="1299" arabic-form="medial" 
d="M1329 1h-74q-63 0 -189 11t-189 11q-61 0 -181.5 -11.5t-181.5 -11.5q-28 -46 -53 -102q-12 -26 -29 -26q-21 0 -16 28q4 21 29 102q-100 0 -143 16q-66 25 -104 108q-56 -125 -163 -125h-66v149h84q125 0 165 122q10 30 21 30t14 -36q8 -116 140 -116q73 0 102 11
q35 13 78 64q84 99 115 133q74 81 170 136q110 64 205 64q73 0 116.5 -42t43.5 -115q0 -86 -61 -167q-56 -75 -138 -117q279 33 246 33h59v-149zM1114 313q0 38 -47 60q-37 18 -80 18q-101 0 -221 -79q-102 -67 -176 -160q174 0 357 65q167 59 167 96zM927 860l-116 -116
l-119 119l116 116z" />
    <glyph glyph-name="uFEC2" unicode="&#x637;" horiz-adv-x="1256" arabic-form="final" 
d="M1288 1h-74q-28 0 -182 6q-129 5 -247 5q-67 0 -240 -9q-154 -8 -193 -8q-27 0 -40 13q-83 82 -114 138q0 12 8 23q111 -17 144 -17q211 0 202 189q-17 359 -74 648q-10 51 -10 90q0 74 42 131q14 19 29 -1l76 -102q16 -22 -4 -41q-40 -38 -40 -95q0 -17 3 -33
q44 -238 39 -612q260 242 401 242q69 0 119 -44.5t50 -113.5q0 -100 -86 -192q-60 -64 -128 -97q194 29 260 29h59v-149zM1063 339q0 77 -126 77q-87 0 -219 -99q-18 -14 -191 -164q240 -2 426 74q110 45 110 112z" />
    <glyph glyph-name="uFEC3" unicode="&#x637;" horiz-adv-x="827" arabic-form="initial" 
d="M824 410q0 -192 -207 -292q-243 -117 -582 -117h-66v149h33q91 0 143.5 50.5t48.5 140.5q-17 354 -74 648q-10 51 -10 90q0 73 42 131q13 18 28 -1l77 -102q16 -22 -4 -41q-40 -38 -40 -95q0 -16 3 -33q43 -236 39 -612q260 242 400 242q70 0 119.5 -44t49.5 -114z
M705 342q0 77 -126 77q-88 0 -219 -99q-20 -15 -191 -164q239 -2 426 74q110 45 110 112z" />
    <glyph glyph-name="uFEC4" unicode="&#x637;" horiz-adv-x="899" arabic-form="medial" 
d="M930 1h-74q-27 0 -182 6q-129 5 -247 5q-62 0 -216 -6q-129 -5 -176 -5h-66v149h33q91 0 143.5 50.5t48.5 140.5q-17 354 -74 648q-10 51 -10 90q0 73 42 131q13 18 28 -1l77 -102q16 -22 -4 -41q-40 -38 -40 -95q0 -16 3 -33q43 -236 39 -612q260 242 400 242
q70 0 119.5 -44t49.5 -114q0 -100 -86 -192q-59 -64 -128 -97q195 29 260 29h60v-149zM705 339q0 77 -126 77q-88 0 -219 -99q-20 -15 -191 -164q239 -2 426 74q110 45 110 112z" />
    <glyph glyph-name="uFEC6" unicode="&#x638;" horiz-adv-x="1256" arabic-form="final" 
d="M1288 1h-74q-28 0 -182 6q-129 5 -247 5q-67 0 -240 -9q-154 -8 -193 -8q-27 0 -40 13q-83 82 -114 138q0 12 8 23q111 -17 144 -17q211 0 202 189q-17 359 -74 648q-10 51 -10 90q0 74 42 131q14 19 29 -1l76 -102q16 -22 -4 -41q-40 -38 -40 -95q0 -17 3 -33
q44 -238 39 -612q260 242 401 242q69 0 119 -44.5t50 -113.5q0 -100 -86 -192q-60 -64 -128 -97q194 29 260 29h59v-149zM1063 339q0 77 -126 77q-87 0 -219 -99q-18 -14 -191 -164q240 -2 426 74q110 45 110 112zM1029 860l-116 -116l-118 119l115 116z" />
    <glyph glyph-name="uFEC7" unicode="&#x638;" horiz-adv-x="827" arabic-form="initial" 
d="M824 410q0 -192 -207 -292q-243 -117 -582 -117h-66v149h33q91 0 143.5 50.5t48.5 140.5q-17 354 -74 648q-10 51 -10 90q0 73 42 131q13 18 28 -1l77 -102q16 -22 -4 -41q-40 -38 -40 -95q0 -16 3 -33q43 -236 39 -612q260 242 400 242q70 0 119.5 -44t49.5 -114z
M705 342q0 77 -126 77q-88 0 -219 -99q-20 -15 -191 -164q239 -2 426 74q110 45 110 112zM660 860l-115 -116l-119 119l116 116z" />
    <glyph glyph-name="uFEC8" unicode="&#x638;" horiz-adv-x="899" arabic-form="medial" 
d="M930 1h-74q-27 0 -182 6q-129 5 -247 5q-62 0 -216 -6q-129 -5 -176 -5h-66v149h33q91 0 143.5 50.5t48.5 140.5q-17 354 -74 648q-10 51 -10 90q0 73 42 131q13 18 28 -1l77 -102q16 -22 -4 -41q-40 -38 -40 -95q0 -16 3 -33q43 -236 39 -612q260 242 400 242
q70 0 119.5 -44t49.5 -114q0 -100 -86 -192q-59 -64 -128 -97q195 29 260 29h60v-149zM705 339q0 77 -126 77q-88 0 -219 -99q-20 -15 -191 -164q239 -2 426 74q110 45 110 112zM660 860l-115 -116l-119 119l116 116z" />
    <glyph glyph-name="uFECA" unicode="&#x639;" horiz-adv-x="959" arabic-form="final" 
d="M1303 -772q46 4 46 -12q0 -18 -49 -31q-85 -23 -246 -83q-107 -40 -178 -40q-680 0 -680 513q0 206 120 389q74 113 237 265q-6 3 -80 25q-61 18 -61 31q0 77 81 133q73 50 153 50q60 0 126 -40q74 -45 74 -101q0 -42 -44 -74q-6 -5 -79 -46q63 -57 177 -57h91v-149h-90
q-141 0 -264 169q-373 -259 -373 -536q0 -241 240 -349q174 -78 450 -78q121 0 349 21z" />
    <glyph glyph-name="uFECB" unicode="&#x639;" horiz-adv-x="756" arabic-form="initial" 
d="M754 367q-8 -40 -26 -109q-3 -11 -13 -15q-114 -40 -432 -172q-169 -70 -256 -70h-57v149h59q130 0 192 47q-74 61 -74 128q0 95 93 211q104 129 223 129q42 0 107 -31q73 -35 73 -71q0 -28 -53 -28q-15 0 -45.5 4t-45.5 4q-112 0 -192 -53q-63 -42 -63 -74q0 -33 68 -88
q52 -42 98 -66q45 19 163 68q81 33 167 53q11 3 14 -2q2 -4 0 -14z" />
    <glyph glyph-name="uFECC" unicode="&#x639;" horiz-adv-x="633" arabic-form="medial" 
d="M664 1h-60q-79 0 -168 64q-66 48 -106 103q-167 -167 -297 -167h-63v149h62q160 0 215 71q-10 8 -87 48q-64 33 -64 48q0 50 56 95q70 56 187 56q63 0 127 -34q75 -40 75 -96q0 -41 -44 -74q-13 -7 -79 -45q76 -69 185 -69h61v-149z" />
    <glyph glyph-name="uFECE" unicode="&#x63a;" horiz-adv-x="959" arabic-form="final" 
d="M1303 -772q46 4 46 -12q0 -18 -49 -31q-85 -23 -246 -83q-107 -40 -178 -40q-680 0 -680 513q0 206 120 389q74 113 237 265q-6 3 -80 25q-61 18 -61 31q0 77 81 133q73 50 153 50q60 0 126 -40q74 -45 74 -101q0 -42 -44 -74q-6 -5 -79 -46q63 -57 177 -57h91v-149h-90
q-141 0 -264 169q-373 -259 -373 -536q0 -241 240 -349q174 -78 450 -78q121 0 349 21zM742 753l-115 -116l-119 119l116 115z" />
    <glyph glyph-name="uFECF" unicode="&#x63a;" horiz-adv-x="756" arabic-form="initial" 
d="M754 367q-8 -40 -26 -109q-3 -11 -13 -15q-114 -40 -432 -172q-169 -70 -256 -70h-57v149h59q130 0 192 47q-74 61 -74 128q0 95 93 211q104 129 223 129q42 0 107 -31q73 -35 73 -71q0 -28 -53 -28q-15 0 -45.5 4t-45.5 4q-112 0 -192 -53q-63 -42 -63 -74q0 -33 68 -88
q52 -42 98 -66q45 19 163 68q81 33 167 53q11 3 14 -2q2 -4 0 -14zM476 957l-116 -115l-118 119l115 115z" />
    <glyph glyph-name="uFED0" unicode="&#x63a;" horiz-adv-x="633" arabic-form="medial" 
d="M664 1h-60q-79 0 -168 64q-66 48 -106 103q-167 -167 -297 -167h-63v149h62q160 0 215 71q-10 8 -87 48q-64 33 -64 48q0 50 56 95q70 56 187 56q63 0 127 -34q75 -40 75 -96q0 -41 -44 -74q-13 -7 -79 -45q76 -69 185 -69h61v-149zM435 753l-116 -116l-118 119l115 115z
" />
    <glyph glyph-name="uFED2" unicode="&#x641;" horiz-adv-x="1815" arabic-form="final" 
d="M1845 1h-62q-51 0 -142 32q-73 26 -106 45q-105 -87 -399 -172q-221 -64 -427 -64q-513 0 -513 323q0 54 23 132.5t53 118.5q15 20 26 20q8 0 8 -12q0 -13 -7 -27q-37 -77 -37 -167q0 -132 184 -189q120 -37 290 -37q144 0 338 36q276 51 350 107q-74 40 -74 114
q0 99 99 232q91 123 136 123q50 0 94 -94q38 -82 38 -139q0 -142 -66 -211q42 -22 145 -22h49v-149zM1645 336q0 25 -26 69q-28 48 -50 48q-32 0 -88.5 -53t-56.5 -84q0 -54 113 -97q108 60 108 117zM1587 952l-116 -115l-118 118l115 116z" />
    <glyph glyph-name="uFED3" unicode="&#x641;" horiz-adv-x="441" arabic-form="initial" 
d="M440 369q0 -195 -97 -284q-93 -84 -290 -84h-84v149h98q112 0 190 19q99 24 99 69q0 48 -26 83q-58 -57 -144 -57q-108 0 -108 118q0 77 54 193q62 133 127 133q77 0 134 -136q47 -112 47 -203zM297 439q0 33 -18 72q-22 47 -50 47q-30 0 -52 -44q-18 -36 -18 -63
q0 -54 40 -54q64 0 98 42zM328 1024l-116 -116l-119 119l116 116z" />
    <glyph glyph-name="uFED4" unicode="&#x641;" horiz-adv-x="647" arabic-form="medial" 
d="M678 1h-77q-205 0 -300 69q-160 -69 -268 -69h-64v149h71q121 0 158 15q-22 26 -22 90q0 71 96 207q104 147 185 147q41 0 69 -69q23 -57 23 -105q0 -98 -45 -179q-31 -56 -67 -81q40 -25 178 -25h63v-149zM471 334q0 40 -37 69q-30 24 -52 24q-24 0 -72 -37
q-55 -42 -55 -83q0 -67 81 -92q41 11 79 37q56 38 56 82zM461 973l-116 -116l-119 119l116 116z" />
    <glyph glyph-name="uFED6" unicode="&#x642;" horiz-adv-x="1258" arabic-form="final" 
d="M1290 1h-129q-8 -178 -138 -331q-170 -200 -462 -200q-164 0 -259 74q-106 82 -106 242q0 78 44.5 189t98.5 170q18 20 31 20q11 0 11 -12l-51 -102q-51 -103 -51 -175q0 -123 93 -187q80 -55 208 -55q158 0 293 56q166 69 212 197q20 55 5 114q-83 0 -146 23
q-102 37 -102 123q0 62 49 158q57 112 125 112q112 0 142 -267h132v-149zM1070 155q3 37 -19 82q-25 50 -59 50q-21 0 -40.5 -25t-19.5 -46q0 -61 138 -61zM1129 761l-109 -111l-113 113l110 110zM913 750l-109 -111l-113 113l110 110z" />
    <glyph glyph-name="uFED7" unicode="&#x642;" horiz-adv-x="461" arabic-form="initial" 
d="M440 369q0 -195 -97 -284q-93 -84 -290 -84h-84v149h98q112 0 190 19q99 24 99 69q0 48 -26 83q-58 -57 -144 -57q-108 0 -108 118q0 77 54 193q62 133 127 133q77 0 134 -136q47 -112 47 -203zM297 439q0 33 -18 72q-22 47 -50 47q-30 0 -52 -44q-18 -36 -18 -63
q0 -54 40 -54q64 0 98 42zM454 996l-110 -110l-113 112l110 111zM238 985l-110 -111l-113 113l110 111z" />
    <glyph glyph-name="uFED8" unicode="&#x642;" horiz-adv-x="647" arabic-form="medial" 
d="M678 1h-77q-205 0 -300 69q-160 -69 -268 -69h-64v149h71q121 0 158 15q-22 26 -22 90q0 71 96 207q104 147 185 147q41 0 69 -69q23 -57 23 -105q0 -98 -45 -179q-31 -56 -67 -81q40 -25 178 -25h63v-149zM471 334q0 40 -37 69q-30 24 -52 24q-24 0 -72 -37
q-55 -42 -55 -83q0 -67 81 -92q41 11 79 37q56 38 56 82zM587 955l-110 -110l-112 112l109 111zM371 944l-110 -110l-113 112l110 111z" />
    <glyph glyph-name="uFEDE" unicode="&#x644;" horiz-adv-x="1174" arabic-form="final" 
d="M1204 1h-59q-95 0 -143 185l-1 -346q0 -138 -73 -253q-127 -201 -432 -201q-136 0 -218 84t-82 220q0 103 46 215q36 88 81 140q12 14 21 14q8 0 8 -9q0 -8 -7 -20q-75 -134 -75 -248q0 -240 284 -240q140 0 255 65q138 78 137 210q-3 244 -21 574q-22 391 -29 727
q-1 43 62 83q23 15 23 -15q0 -451 20 -664q35 -372 168 -372h35v-149z" />
    <glyph glyph-name="uFEDF" unicode="&#x644;" horiz-adv-x="287" arabic-form="initial" 
d="M282 1090q9 -18 -3 -33q-30 -37 -45 -53q-27 -42 -25 -92l27 -605q5 -103 -49 -197q-62 -109 -160 -109h-57v149h64q54 0 92 25q45 29 41 81l-49 662q-2 27 -2 46q0 144 54 216q19 25 25 25t17 -14q53 -68 70 -101z" />
    <glyph glyph-name="uFEE0" unicode="&#x644;" horiz-adv-x="393" arabic-form="medial" 
d="M423 1h-55q-145 0 -188 189q-15 -63 -51 -118q-46 -71 -98 -71h-62v149h34q136 0 141 165q3 88 -11 343q-14 259 -14 370q0 156 33 156q16 0 35 -9q24 -11 23 -25q-16 -386 12 -711q25 -289 152 -289h49v-149z" />
    <glyph glyph-name="uFEE2" unicode="&#x645;" horiz-adv-x="899" arabic-form="final" 
d="M929 1h-52q-151 0 -222 50q0 -248 -67 -248q-92 0 -142 280q-96 -28 -136 -55q-60 -40 -60 -108q0 -44 40 -297q43 -271 51 -433q6 -118 -19 -118q-26 0 -31 114q-4 93 -51 359q-44 249 -44 349q0 250 176 335q101 49 104 52l14 45q6 0 74 -55q151 -121 332 -121h33v-149
z" />
    <glyph glyph-name="uFEE3" unicode="&#x645;" horiz-adv-x="560" arabic-form="initial" 
d="M559 265q0 -151 -89 -151q-33 0 -128 45q-77 36 -106 56q-99 -214 -203 -214h-63v149h54q86 0 147 86q32 44 85 176q64 157 164 157q65 0 107 -125q32 -96 32 -179zM450 302q0 29 -31 83.5t-57 54.5q-20 0 -36.5 -27.5t-16.5 -48.5q0 -23 53 -53q48 -27 68 -27t20 18z
" />
    <glyph glyph-name="uFEE4" unicode="&#x645;" horiz-adv-x="842" arabic-form="medial" 
d="M871 1h-59q-56 0 -136.5 34t-122.5 73l-6 -88q-11 -54 -51 -54q-47 0 -138 69q-32 25 -114 88q-21 16 -60 -9q-12 -10 -75 -67q-51 -46 -77 -46h-62v149h43q96 0 177 73q19 17 112 123q58 66 89 66q24 0 80 -57q84 -86 118 -113q115 -92 236 -92h46v-149zM469 163
q0 29 -28 83q-33 63 -69 63q-23 0 -42 -23.5t-19 -47.5q0 -12 6 -19q76 -84 135 -84q17 0 17 28z" />
    <glyph glyph-name="uFEE6" unicode="&#x646;" horiz-adv-x="1209" arabic-form="final" 
d="M1241 1h-64q-64 0 -115 26q0 -224 -61 -347q-116 -234 -445 -234q-154 0 -250 69q-110 78 -110 226q0 91 44 197q36 88 78 137q13 15 25 15q11 0 11 -13q0 -11 -8 -23q-82 -121 -82 -230q0 -87 69 -147q92 -80 282 -80q235 0 336 116q45 51 45 193q0 115 -26 168
q-20 28 -34 50q-9 14 13 61q16 31 32 61q10 21 25 1q70 -97 176 -97h59v-149zM804 548l-116 -116l-119 119l116 116z" />
    <glyph glyph-name="uFEE7" unicode="&#x646;" horiz-adv-x="294" arabic-form="initial" 
d="M303 293q0 -119 -72 -203q-76 -89 -193 -89h-68v149h79q56 0 110 15q77 21 77 64q0 42 -95 162l65 119q11 19 21 2q76 -125 76 -219zM292 835l-116 -116l-119 119l116 115z" />
    <glyph glyph-name="uFEE8" unicode="&#x646;" horiz-adv-x="487" arabic-form="medial" 
d="M518 1h-63q-55 0 -115 40.5t-82 90.5q-69 -131 -219 -131h-69v149h89q121 0 188 93q22 30 27 32q7 0 17 -20q15 -30 24 -41q50 -64 138 -64h65v-149zM333 620l-116 -116l-119 119l116 115z" />
    <glyph glyph-name="uFEEA" unicode="&#x647;" horiz-adv-x="784" arabic-form="final" 
d="M814 1h-60q-190 0 -232 231l-51 -63q-34 -42 -56 -42q-66 0 -131 19q-88 26 -88 71q0 32 30 90q65 125 266 230q-2 16 -13 77l49 66q14 19 20 -5q4 -17 26 -235q19 -193 49 -243q22 -37 68 -45q12 -2 80 -2h43v-149zM518 283q-6 54 -16 153q-36 -9 -106 -46
q-81 -43 -81 -68q0 -42 203 -39z" />
    <glyph glyph-name="uFEEB" unicode="&#x647;" horiz-adv-x="752" arabic-form="initial" 
d="M749 217q0 -56 -24 -106q-30 -62 -80 -62q-75 0 -318 84q-180 -132 -294 -132h-64v149h58q149 0 196 40q-79 50 -79 126q0 62 74 148q59 69 124 113q-2 2 -47 34q-39 28 -39 31q0 13 35.5 66t44.5 53q12 0 91 -63q85 -68 144 -135q178 -202 178 -346zM679 209
q0 47 -78 137q-72 83 -122 111q8 -22 8 -119q0 -27 -17 -63.5t-38 -51.5q187 -59 205 -59q42 0 42 45zM423 334q0 115 -65 115q-32 0 -84 -35q-55 -36 -55 -66t48 -61q44 -29 76 -29q25 0 52.5 25.5t27.5 50.5z" />
    <glyph glyph-name="uFEEC" unicode="&#x647;" horiz-adv-x="752" arabic-form="medial" 
d="M785 1h-77q-150 0 -218 -15q80 -71 80 -169q0 -84 -30 -140q-37 -71 -114 -71q-194 0 -242 353q-31 0 -38.5 10t-7.5 42q-45 -10 -109 -10h-60v149h69q109 0 163 19q19 106 90 245q88 172 167 172q50 0 76 -65q19 -48 19 -108q0 -123 -36 -182q-44 -71 -165 -137
q9 1 159 32q117 24 221 24h53v-149zM478 317q0 31 -15 65q-19 42 -47 42q-47 0 -100 -95q-41 -74 -59 -145q75 17 139 49q82 41 82 84zM511 -180q0 56 -101 102q-83 38 -151 43q23 -235 169 -235q83 0 83 90z" />
    <glyph glyph-name="uFEEE" unicode="&#x648;" horiz-adv-x="887" arabic-form="final" 
d="M918 1h-134q-29 -147 -161 -298q-145 -166 -283 -166q-112 31 -227 71q-23 8 -23 23q0 20 33 20q119 0 171 9q178 31 333 190q85 87 85 150q-121 15 -166 42q-72 43 -72 151q0 65 51 148q55 90 117 90q77 0 121 -112q30 -77 35 -169h120v-149zM705 152q-4 49 -26 88
q-28 48 -72 48q-55 0 -55 -67q0 -69 153 -69z" />
    <glyph glyph-name="uFEF0" unicode="&#x649;" horiz-adv-x="1206" arabic-form="final" 
d="M1237 1h-58q-69 0 -154 -14q-123 -21 -123 -58q0 -24 68 -38q103 -22 129 -33q73 -32 82 -97q10 -76 -10 -119q-49 -104 -247 -173q-170 -59 -325 -59q-186 0 -292 94q-111 98 -111 282q0 87 39 192q34 91 70 133q14 16 24 16q21 0 5 -35q-71 -158 -71 -251
q0 -279 368 -279q110 0 277 38q217 50 217 120q0 26 -76 41q-114 22 -143 35q-77 34 -77 107q0 105 115 179q105 68 231 68h62v-149z" />
    <glyph glyph-name=".notdef" horiz-adv-x="1024" 
d="M128 0v1232h768v-1232h-768zM256 128h512v976h-512v-976z" />
    <glyph glyph-name=".null" 
 />
    <glyph glyph-name="nonmarkingreturn" horiz-adv-x="512" 
 />
    <glyph glyph-name="space" unicode=" " horiz-adv-x="512" 
 />
    <glyph glyph-name="exclam" unicode="!" horiz-adv-x="421" 
d="M418 955q0 -80 -33 -232q-39 -179 -42 -253q-2 -64 -10 -229q-2 -28 -23 -28q-22 0 -23 27q-4 83 -14 229q-5 70 -44 257q-33 158 -33 232q0 234 116 234q106 0 106 -237zM416 -2q0 -44 -32.5 -76t-76.5 -32t-75.5 32t-31.5 76t31.5 75.5t75.5 31.5t76.5 -31.5
t32.5 -75.5z" />
    <glyph glyph-name="percent" unicode="%" horiz-adv-x="790" 
d="M280 924q-36 -70 -93 -199l-131 146q67 104 87 190zM698 1149l-521 -1207h-69l524 1207h66zM735 225q-35 -70 -92 -198l-131 146q33 51 87 189z" />
    <glyph glyph-name="parenleft" unicode="(" horiz-adv-x="692" 
d="M199 449q0 193 112 399q83 153 214 293q106 113 128 113q31 0 31 -33q0 6 -87 -106q-247 -318 -247 -681q0 -334 249 -663l87 -115q0 -30 -27 -30q-25 0 -128 94q-132 121 -217 277q-115 213 -115 452z" />
    <glyph glyph-name="parenright" unicode=")" horiz-adv-x="688" 
d="M683 432q0 -190 -113 -399q-84 -155 -213 -293q-107 -114 -129 -114q-30 0 -30 34q0 -7 86 105q247 321 247 681q0 336 -248 664l-87 115q0 29 26 29t129 -94q133 -121 217 -277q115 -212 115 -451z" />
    <glyph glyph-name="asterisk" unicode="*" horiz-adv-x="1006" 
d="M905 623q0 -33 -26 -59q-88 -87 -205 -119q-19 -5 -19 9q0 5 2 8q31 122 120 211q21 21 57 21q29 0 50 -21t21 -50zM1002 389q0 -76 -79 -76q-122 0 -230 62q-21 12 0 23q119 64 233 64q30 0 53 -21.5t23 -51.5zM673 714q0 -119 -64 -234q-12 -21 -24 0q-61 107 -61 230
q0 81 76 81q29 0 51 -24t22 -53zM541 462q3 -11 -2 -15.5t-16 -1.5q-126 37 -209 120q-22 22 -22 58q0 29 20.5 49.5t49.5 20.5q34 0 59 -25q87 -86 120 -206zM835 81q-36 0 -58 22q-82 83 -120 210q-3 11 2 16t16 2q118 -32 205 -119q26 -26 26 -59q0 -29 -21 -50.5
t-50 -21.5zM505 373q-108 -61 -230 -61q-79 0 -79 75q0 29 23 51.5t52 22.5q113 0 234 -65q21 -11 0 -23zM675 59q0 -29 -22 -52.5t-51 -23.5q-76 0 -76 80q0 121 61 230q12 22 24 0q64 -116 64 -234zM542 311q-34 -120 -119 -206q-26 -26 -59 -26q-29 0 -50 21t-21 50
q0 36 22 58q83 82 210 120q10 3 15 -1.5t2 -15.5z" />
    <glyph glyph-name="plus" unicode="+" horiz-adv-x="803" 
d="M743 311h-300v-300h-81v300h-301v80h301v302h81v-302h300v-80z" />
    <glyph glyph-name="comma" unicode="," horiz-adv-x="455" 
d="M202 110q0 47 32.5 81.5t79.5 34.5q64 0 105 -55q38 -50 38 -115q0 -115 -71 -230q-56 -91 -117 -130q-5 -3 -10 -3q-26 0 -26 22q0 7 6 13q148 151 148 252q0 25 -77 25q-45 0 -76.5 30t-31.5 75z" />
    <glyph glyph-name="hyphen" unicode="-" horiz-adv-x="803" 
d="M743 311h-682v80h682v-80z" />
    <glyph glyph-name="period" unicode="." horiz-adv-x="393" 
d="M389 96q0 -39 -29 -67.5t-68 -28.5t-67.5 28.5t-28.5 67.5t28.5 68t67.5 29t68 -29t29 -68z" />
    <glyph glyph-name="slash" unicode="/" horiz-adv-x="614" 
d="M509 1139l-347 -1208h-70l350 1208h67z" />
    <glyph glyph-name="zero" unicode="0" horiz-adv-x="840" 
d="M508 537l-61 -249q-75 53 -182 150q1 4 57 242z" />
    <glyph glyph-name="zero" unicode="&#x6f0;" horiz-adv-x="840" 
d="M508 537l-61 -249q-75 53 -182 150q1 4 57 242z" />
    <glyph glyph-name="zero" unicode="&#x660;" horiz-adv-x="840" 
d="M508 537l-61 -249q-75 53 -182 150q1 4 57 242z" />
    <glyph glyph-name="one" unicode="1" horiz-adv-x="840" 
d="M543 301q7 -96 7 -164q0 -142 -32 -142q-26 0 -43 134q-26 204 -66 333q-36 116 -108 257q-53 104 -86 149q-14 19 -6 44q26 80 58 181q7 23 20 8q79 -89 152 -299q85 -244 104 -501z" />
    <glyph glyph-name="one" unicode="&#x6f1;" horiz-adv-x="840" 
d="M543 301q7 -96 7 -164q0 -142 -32 -142q-26 0 -43 134q-26 204 -66 333q-36 116 -108 257q-53 104 -86 149q-14 19 -6 44q26 80 58 181q7 23 20 8q79 -89 152 -299q85 -244 104 -501z" />
    <glyph glyph-name="one" unicode="&#x661;" horiz-adv-x="840" 
d="M543 301q7 -96 7 -164q0 -142 -32 -142q-26 0 -43 134q-26 204 -66 333q-36 116 -108 257q-53 104 -86 149q-14 19 -6 44q26 80 58 181q7 23 20 8q79 -89 152 -299q85 -244 104 -501z" />
    <glyph glyph-name="two" unicode="2" horiz-adv-x="840" 
d="M711 1058q-13 -202 -112 -299q-74 -72 -174 -72q69 -220 69 -480q0 -210 -48 -210q-23 0 -30 109q-10 166 -27 241q-58 260 -209 497q-8 13 -1 45l40 182q5 22 15 22q7 0 17 -13q35 -60 74 -120.5t124 -60.5q96 0 146 53q30 31 56 107q18 51 37 51q26 0 23 -52z" />
    <glyph glyph-name="two" unicode="&#x6f2;" horiz-adv-x="840" 
d="M711 1058q-13 -202 -112 -299q-74 -72 -174 -72q69 -220 69 -480q0 -210 -48 -210q-23 0 -30 109q-10 166 -27 241q-58 260 -209 497q-8 13 -1 45l40 182q5 22 15 22q7 0 17 -13q35 -60 74 -120.5t124 -60.5q96 0 146 53q30 31 56 107q18 51 37 51q26 0 23 -52z" />
    <glyph glyph-name="two" unicode="&#x662;" horiz-adv-x="840" 
d="M711 1058q-13 -202 -112 -299q-74 -72 -174 -72q69 -220 69 -480q0 -210 -48 -210q-23 0 -30 109q-10 166 -27 241q-58 260 -209 497q-8 13 -1 45l40 182q5 22 15 22q7 0 17 -13q35 -60 74 -120.5t124 -60.5q96 0 146 53q30 31 56 107q18 51 37 51q26 0 23 -52z" />
    <glyph glyph-name="three" unicode="3" horiz-adv-x="840" 
d="M814 1028q-13 -141 -35 -202q-44 -121 -147 -121q-104 0 -156 96q-16 -52 -66.5 -91.5t-104.5 -39.5q-14 0 -27 3q27 -75 48 -207q20 -127 20 -212q0 -124 -2 -157q-6 -99 -36 -99q-25 0 -34 93q-17 179 -34 268q-29 149 -115 319q-28 53 -101 193l55 192q8 29 24 10
q22 -34 79 -123q45 -69 110 -69q91 0 139 54q27 30 52 102q19 55 40 55q18 0 22 -43q6 -58 17 -80q22 -43 84 -43q65 0 96 44q13 18 30 78q7 24 23 24q23 0 19 -44z" />
    <glyph glyph-name="three" unicode="&#x6f3;" horiz-adv-x="840" 
d="M814 1028q-13 -141 -35 -202q-44 -121 -147 -121q-104 0 -156 96q-16 -52 -66.5 -91.5t-104.5 -39.5q-14 0 -27 3q27 -75 48 -207q20 -127 20 -212q0 -124 -2 -157q-6 -99 -36 -99q-25 0 -34 93q-17 179 -34 268q-29 149 -115 319q-28 53 -101 193l55 192q8 29 24 10
q22 -34 79 -123q45 -69 110 -69q91 0 139 54q27 30 52 102q19 55 40 55q18 0 22 -43q6 -58 17 -80q22 -43 84 -43q65 0 96 44q13 18 30 78q7 24 23 24q23 0 19 -44z" />
    <glyph glyph-name="three" unicode="&#x663;" horiz-adv-x="840" 
d="M814 1028q-13 -141 -35 -202q-44 -121 -147 -121q-104 0 -156 96q-16 -52 -66.5 -91.5t-104.5 -39.5q-14 0 -27 3q27 -75 48 -207q20 -127 20 -212q0 -124 -2 -157q-6 -99 -36 -99q-25 0 -34 93q-17 179 -34 268q-29 149 -115 319q-28 53 -101 193l55 192q8 29 24 10
q22 -34 79 -123q45 -69 110 -69q91 0 139 54q27 30 52 102q19 55 40 55q18 0 22 -43q6 -58 17 -80q22 -43 84 -43q65 0 96 44q13 18 30 78q7 24 23 24q23 0 19 -44z" />
    <glyph glyph-name="four" unicode="4" horiz-adv-x="840" 
d="M677 690q0 -35 -55 -54q-41 -14 -83 -14q-82 0 -160 25q83 -257 85 -477q1 -176 -37 -176q-28 0 -39 94q-20 176 -60 318q-49 175 -175 351q-14 20 -10 39q16 75 48 210q7 20 23 2q10 -13 54 -66q32 45 92 87q82 58 158 58q82 0 82 -45q0 -25 -49 -33q-72 -12 -94 -23
q-105 -53 -105 -146q0 -43 48 -83q64 -54 182 -54q12 0 34.5 4t34.5 4q26 0 26 -21z" />
    <glyph glyph-name="four" unicode="&#x6f4;" horiz-adv-x="840" 
d="M677 690q0 -35 -55 -54q-41 -14 -83 -14q-82 0 -160 25q83 -257 85 -477q1 -176 -37 -176q-28 0 -39 94q-20 176 -60 318q-49 175 -175 351q-14 20 -10 39q16 75 48 210q7 20 23 2q10 -13 54 -66q32 45 92 87q82 58 158 58q82 0 82 -45q0 -25 -49 -33q-72 -12 -94 -23
q-105 -53 -105 -146q0 -43 48 -83q64 -54 182 -54q12 0 34.5 4t34.5 4q26 0 26 -21z" />
    <glyph glyph-name="four" unicode="&#x664;" horiz-adv-x="840" 
d="M677 690q0 -35 -55 -54q-41 -14 -83 -14q-82 0 -160 25q83 -257 85 -477q1 -176 -37 -176q-28 0 -39 94q-20 176 -60 318q-49 175 -175 351q-14 20 -10 39q16 75 48 210q7 20 23 2q10 -13 54 -66q32 45 92 87q82 58 158 58q82 0 82 -45q0 -25 -49 -33q-72 -12 -94 -23
q-105 -53 -105 -146q0 -43 48 -83q64 -54 182 -54q12 0 34.5 4t34.5 4q26 0 26 -21z" />
    <glyph glyph-name="five" unicode="5" horiz-adv-x="840" 
d="M724 278q0 -277 -163 -277q-96 0 -144 94q-56 -102 -148 -102q-77 0 -121 84q-36 68 -36 153q0 183 118 391q4 7 129 212l-64 86q-9 12 1 20l96 82q16 14 26 1q306 -385 306 -744zM665 285q0 140 -266 501q-204 -264 -204 -473q0 -132 98 -132q34 0 87 46.5t44 46.5
q1 0 26 -30.5t32 -34.5q36 -23 97 -23q86 0 86 99z" />
    <glyph glyph-name="five" unicode="&#x6f5;" horiz-adv-x="840" 
d="M724 278q0 -277 -163 -277q-96 0 -144 94q-56 -102 -148 -102q-77 0 -121 84q-36 68 -36 153q0 183 118 391q4 7 129 212l-64 86q-9 12 1 20l96 82q16 14 26 1q306 -385 306 -744zM665 285q0 140 -266 501q-204 -264 -204 -473q0 -132 98 -132q34 0 87 46.5t44 46.5
q1 0 26 -30.5t32 -34.5q36 -23 97 -23q86 0 86 99z" />
    <glyph glyph-name="five" unicode="&#x665;" horiz-adv-x="840" 
d="M724 278q0 -277 -163 -277q-96 0 -144 94q-56 -102 -148 -102q-77 0 -121 84q-36 68 -36 153q0 183 118 391q4 7 129 212l-64 86q-9 12 1 20l96 82q16 14 26 1q306 -385 306 -744zM665 285q0 140 -266 501q-204 -264 -204 -473q0 -132 98 -132q34 0 87 46.5t44 46.5
q1 0 26 -30.5t32 -34.5q36 -23 97 -23q86 0 86 99z" />
    <glyph glyph-name="six" unicode="6" horiz-adv-x="840" 
d="M778 577q-50 -171 -62 -171q-72 0 -157 -46q-31 -17 -140 -90q-47 -32 -188 -162q-124 -115 -138 -115q-34 0 -34 39q0 33 145 189q131 141 181 178q-106 62 -146 106q-81 90 -81 232q0 129 81 209t211 80q84 0 138 -34q41 -26 106 -104q10 -12 -2 -25l-67 -77
q-14 -16 -24 -5q-141 143 -186 143t-97 -107q-47 -97 -49 -160q-4 -127 152 -127q92 0 186 26q19 5 142 43q24 7 29 2q6 -4 0 -24z" />
    <glyph glyph-name="six" unicode="&#x6f6;" horiz-adv-x="840" 
d="M778 577q-50 -171 -62 -171q-72 0 -157 -46q-31 -17 -140 -90q-47 -32 -188 -162q-124 -115 -138 -115q-34 0 -34 39q0 33 145 189q131 141 181 178q-106 62 -146 106q-81 90 -81 232q0 129 81 209t211 80q84 0 138 -34q41 -26 106 -104q10 -12 -2 -25l-67 -77
q-14 -16 -24 -5q-141 143 -186 143t-97 -107q-47 -97 -49 -160q-4 -127 152 -127q92 0 186 26q19 5 142 43q24 7 29 2q6 -4 0 -24z" />
    <glyph glyph-name="six" unicode="&#x666;" horiz-adv-x="840" 
d="M778 577q-50 -171 -62 -171q-72 0 -157 -46q-31 -17 -140 -90q-47 -32 -188 -162q-124 -115 -138 -115q-34 0 -34 39q0 33 145 189q131 141 181 178q-106 62 -146 106q-81 90 -81 232q0 129 81 209t211 80q84 0 138 -34q41 -26 106 -104q10 -12 -2 -25l-67 -77
q-14 -16 -24 -5q-141 143 -186 143t-97 -107q-47 -97 -49 -160q-4 -127 152 -127q92 0 186 26q19 5 142 43q24 7 29 2q6 -4 0 -24z" />
    <glyph glyph-name="seven" unicode="7" horiz-adv-x="840" 
d="M813 903q4 -22 -10 -40q-194 -250 -321 -757q-32 -126 -44 -126q-19 0 -53 143q-46 193 -117 336q-140 283 -221 379q-23 27 -12 64q30 100 50 156q7 19 14 19t19 -15q89 -111 197 -405q75 -204 129 -408q57 193 108 355q75 240 208 462q10 17 16 17q7 0 9 -18
q6 -34 28 -162z" />
    <glyph glyph-name="seven" unicode="&#x6f7;" horiz-adv-x="840" 
d="M813 903q4 -22 -10 -40q-194 -250 -321 -757q-32 -126 -44 -126q-19 0 -53 143q-46 193 -117 336q-140 283 -221 379q-23 27 -12 64q30 100 50 156q7 19 14 19t19 -15q89 -111 197 -405q75 -204 129 -408q57 193 108 355q75 240 208 462q10 17 16 17q7 0 9 -18
q6 -34 28 -162z" />
    <glyph glyph-name="seven" unicode="&#x667;" horiz-adv-x="840" 
d="M813 903q4 -22 -10 -40q-194 -250 -321 -757q-32 -126 -44 -126q-19 0 -53 143q-46 193 -117 336q-140 283 -221 379q-23 27 -12 64q30 100 50 156q7 19 14 19t19 -15q89 -111 197 -405q75 -204 129 -408q57 193 108 355q75 240 208 462q10 17 16 17q7 0 9 -18
q6 -34 28 -162z" />
    <glyph glyph-name="eight" unicode="8" horiz-adv-x="840" 
d="M26 174q-4 22 10 40q192 248 321 758q32 126 43 126q19 0 54 -144q49 -199 116 -336q135 -275 222 -378q23 -28 12 -65q-30 -100 -50 -156q-7 -19 -14 -19t-19 15q-89 113 -197 405q-74 201 -130 408l-108 -354q-73 -240 -207 -463q-10 -16 -16 -16q-7 0 -10 17
q0 7 -27 162z" />
    <glyph glyph-name="eight" unicode="&#x6f8;" horiz-adv-x="840" 
d="M26 174q-4 22 10 40q192 248 321 758q32 126 43 126q19 0 54 -144q49 -199 116 -336q135 -275 222 -378q23 -28 12 -65q-30 -100 -50 -156q-7 -19 -14 -19t-19 15q-89 113 -197 405q-74 201 -130 408l-108 -354q-73 -240 -207 -463q-10 -16 -16 -16q-7 0 -10 17
q0 7 -27 162z" />
    <glyph glyph-name="eight" unicode="&#x668;" horiz-adv-x="840" 
d="M26 174q-4 22 10 40q192 248 321 758q32 126 43 126q19 0 54 -144q49 -199 116 -336q135 -275 222 -378q23 -28 12 -65q-30 -100 -50 -156q-7 -19 -14 -19t-19 15q-89 113 -197 405q-74 201 -130 408l-108 -354q-73 -240 -207 -463q-10 -16 -16 -16q-7 0 -10 17
q0 7 -27 162z" />
    <glyph glyph-name="nine" unicode="9" horiz-adv-x="840" 
d="M712 156l-67 -166q-7 -17 -18 -3q-98 124 -136 347l-36 237q-335 -13 -335 181q0 76 75 197q80 130 151 130q96 0 139 -159q20 -74 41 -283q28 -280 184 -465q6 -7 2 -16zM416 771q-32 140 -115 140q-30 0 -51 -26.5t-21 -57.5q0 -58 134 -58q23 0 53 2z" />
    <glyph glyph-name="nine" unicode="&#x6f9;" horiz-adv-x="840" 
d="M712 156l-67 -166q-7 -17 -18 -3q-98 124 -136 347l-36 237q-335 -13 -335 181q0 76 75 197q80 130 151 130q96 0 139 -159q20 -74 41 -283q28 -280 184 -465q6 -7 2 -16zM416 771q-32 140 -115 140q-30 0 -51 -26.5t-21 -57.5q0 -58 134 -58q23 0 53 2z" />
    <glyph glyph-name="nine" unicode="&#x669;" horiz-adv-x="840" 
d="M712 156l-67 -166q-7 -17 -18 -3q-98 124 -136 347l-36 237q-335 -13 -335 181q0 76 75 197q80 130 151 130q96 0 139 -159q20 -74 41 -283q28 -280 184 -465q6 -7 2 -16zM416 771q-32 140 -115 140q-30 0 -51 -26.5t-21 -57.5q0 -58 134 -58q23 0 53 2z" />
    <glyph glyph-name="colon" unicode=":" horiz-adv-x="393" 
d="M390 96q0 -39 -29 -67.5t-68 -28.5t-67.5 28.5t-28.5 67.5t28.5 68t67.5 29t68 -29t29 -68zM390 537q0 -40 -28.5 -68.5t-68.5 -28.5t-68 28.5t-28 68.5q0 39 28.5 67.5t67.5 28.5t68 -28.5t29 -67.5z" />
    <glyph glyph-name="equal" unicode="=" horiz-adv-x="803" 
d="M739 424h-682v80h682v-80zM739 199h-682v80h682v-80z" />
    <glyph glyph-name="bracketleft" unicode="[" horiz-adv-x="583" 
d="M571 -326h-406v1534h406v-50h-296v-1433h296v-51z" />
    <glyph glyph-name="bracketright" unicode="]" horiz-adv-x="583" 
d="M578 -326h-403v51h295v1433h-295v50h403v-1534z" />
    <glyph glyph-name="braceleft" unicode="{" horiz-adv-x="981" 
d="M832 -320q-152 27 -249 129q-103 107 -103 257q0 61 26 177q19 85 19 112q0 97 -72 163q-67 62 -166 73v38q239 52 239 219q0 47 -16 122q-27 126 -27 188q0 151 101 257q96 102 248 127v-40q-94 -14 -155 -73q-67 -64 -67 -155q0 -46 13 -115q30 -160 30 -210
q0 -224 -286 -336q283 -116 283 -350q0 -49 -27 -179q-17 -82 -17 -135q0 -180 226 -233v-36z" />
    <glyph glyph-name="braceright" unicode="}" horiz-adv-x="981" 
d="M695 593q-239 -52 -239 -220q0 -52 15 -122q28 -131 28 -187q0 -151 -101 -257q-96 -102 -248 -127v40q94 14 155 73q66 63 66 155q0 48 -12 114q-30 164 -30 211q0 223 285 336q-282 116 -282 349q0 55 26 180q18 87 18 135q0 180 -226 233v36q152 -28 249 -129
q103 -106 103 -257q0 -57 -27 -177q-18 -80 -18 -113q0 -97 73 -162q64 -58 165 -74v-37z" />
    <glyph glyph-name="guillemotleft" unicode="&#xab;" horiz-adv-x="854" 
d="M804 129h-93l-340 400l340 393h87l-226 -393zM497 129h-89l-338 400l340 393h87l-226 -393z" />
    <glyph glyph-name="periodcentered" unicode="&#xb7;" horiz-adv-x="405" 
d="M326 768q0 -50 -35.5 -85t-85.5 -35q-49 0 -84.5 35.5t-35.5 84.5t34.5 85t83.5 36q51 0 87 -35t36 -86z" />
    <glyph glyph-name="periodcentered" unicode="&#x2219;" horiz-adv-x="405" 
d="M326 768q0 -50 -35.5 -85t-85.5 -35q-49 0 -84.5 35.5t-35.5 84.5t34.5 85t83.5 36q51 0 87 -35t36 -86z" />
    <glyph glyph-name="periodcentered" unicode="&#x2d9;" horiz-adv-x="405" 
d="M326 768q0 -50 -35.5 -85t-85.5 -35q-49 0 -84.5 35.5t-35.5 84.5t34.5 85t83.5 36q51 0 87 -35t36 -86z" />
    <glyph glyph-name="guillemotright" unicode="&#xbb;" horiz-adv-x="854" 
d="M784 529l-338 -400h-89l226 400l-226 393h87zM483 529l-340 -400h-93l232 400l-226 393h87z" />
    <glyph glyph-name="multiply" unicode="&#xd7;" horiz-adv-x="946" 
d="M802 219l-58 -57l-277 275l-277 -275l-59 57l275 278l-275 278l62 56l274 -276l277 276l58 -56l-279 -278z" />
    <glyph glyph-name="divide" unicode="&#xf7;" horiz-adv-x="675" 
d="M622 311h-574v67h574v-67zM337 646q33 0 56.5 -23.5t23.5 -56.5t-23.5 -56.5t-56.5 -23.5t-56.5 23.5t-23.5 56.5t23.5 56.5t56.5 23.5zM337 222q33 0 56.5 -23.5t23.5 -56.5t-23.5 -56.5t-56.5 -23.5t-56.5 23.5t-23.5 56.5t23.5 56.5t56.5 23.5z" />
    <glyph glyph-name="u060C" unicode="&#x60c;" horiz-adv-x="455" 
d="M451 115q0 -47 -32.5 -81.5t-79.5 -34.5q-64 0 -105 55q-38 50 -38 115q0 115 71 230q56 91 117 130q5 3 10 3q26 0 26 -22q0 -7 -6 -13q-148 -151 -148 -252q0 -25 77 -25q45 0 76.5 -30t31.5 -75z" />
    <glyph glyph-name="u061B" unicode="&#x61b;" horiz-adv-x="455" 
d="M426 96q0 -39 -29 -67.5t-68 -28.5t-68 28.5t-29 67.5t29 68t68 29t68 -29t29 -68zM451 416q0 -47 -32.5 -81.5t-79.5 -34.5q-64 0 -105 55q-38 50 -38 115q0 115 71 230q56 91 117 130q5 3 10 3q26 0 26 -22q0 -7 -6 -13q-148 -151 -148 -252q0 -25 77 -25
q45 0 76.5 -30t31.5 -75z" />
    <glyph glyph-name="u061F" unicode="&#x61f;" horiz-adv-x="876" 
d="M872 932q0 -66 -33 -117q-38 -59 -100 -59q-47 0 -89 26q-49 30 -49 74t26 80.5t69 36.5q14 0 40.5 -5.5t39.5 -5.5q21 0 21 25q0 37 -38 74q-54 52 -155 52q-77 0 -138 -56q-79 -73 -79 -209q0 -109 59 -209q23 -39 105 -172q54 -113 54 -200q0 -49 -28 -49
q-18 0 -38 69q-24 84 -43 108q-30 38 -202 194q-97 111 -97 273q0 130 94 226q106 108 280 108q128 0 211 -67q90 -72 90 -197zM684 3q0 -46 -32 -79t-78 -33t-78 33t-32 79t32 78t78 32t78 -32t32 -78z" />
    <glyph glyph-name="u0621" unicode="&#x621;" horiz-adv-x="702" 
d="M701 232q0 -79 -9 -92q-73 -18 -221 -61q-6 -2 -266 -84q-6 -2 -8 14q-6 43 9 58q5 5 142 78q-28 22 -56 64q-34 51 -34 91q0 52 69 142q78 102 151 102q37 0 71.5 -31t34.5 -67q0 -41 -24 -92q-10 -21 -25 -4q-59 66 -118 66q-57 0 -57 -59q0 -36 72 -93q67 -53 94 -53
q39 0 161 28q14 3 14 -7z" />
    <glyph glyph-name="u0640" unicode="&#x640;" horiz-adv-x="838" 
d="M868 1h-899v149h899v-149z" />
    <glyph glyph-name="u064B" unicode="&#x64b;" 
d="M425 1499l-16 -96l-369 -125l14 88zM445 1673l-16 -96l-369 -125l15 88z" />
    <glyph glyph-name="u064C" unicode="&#x64c;" 
d="M385 1505l-37 -84q-31 10 -77 37q-106 -157 -263 -180l-26 48q11 5 36 15q13 23 13 76q0 58 -40 58q-20 0 -36 -24l-16 -25q-30 0 -30 60q0 36 28.5 71.5t63.5 35.5q32 0 59 -36.5t27 -70.5q0 -75 -16 -117q123 68 151 121q-79 73 -79 157q0 40 33 94q39 63 86 63
q93 0 93 -123q0 -80 -29 -139zM301 1649q0 73 -45 73q-43 0 -43 -57q0 -19 22 -48t41 -39q25 44 25 71z" />
    <glyph glyph-name="u064D" unicode="&#x64d;" 
d="M579 -1158l-17 -96l-368 -125l14 88zM599 -984l-16 -96l-369 -125l14 88z" />
    <glyph glyph-name="u064E" unicode="&#x64e;" 
d="M420 1499l-17 -96l-368 -125l14 88z" />
    <glyph glyph-name="u064F" unicode="&#x64f;" 
d="M385 1505l-37 -84q-31 10 -77 37q-106 -157 -263 -180l-26 48q201 92 240 164q-79 73 -79 157q0 40 33 94q39 63 86 63q93 0 93 -123q0 -80 -29 -139zM301 1649q0 73 -45 73q-43 0 -43 -57q0 -19 22 -48t41 -39q25 44 25 71z" />
    <glyph glyph-name="u0650" unicode="&#x650;" 
d="M573 -986l-16 -96l-369 -125l15 88z" />
    <glyph glyph-name="u0651" unicode="&#x651;" 
d="M419 1501q2 -54 -20 -110q-29 -73 -82 -73q-36 0 -77 41q-28 -48 -42 -61q-24 -22 -69 -22q-70 0 -70 85q0 30 14 75q16 52 37 52q15 0 15 -20q0 -9 -3 -26.5t-3 -26.5q0 -35 34 -35t69 64t41 64q8 0 17.5 -44.5t36.5 -44.5q29 0 44 25q7 12 24 61q6 18 19 18
q14 0 15 -22z" />
    <glyph glyph-name="u0652" unicode="&#x652;" 
d="M371 1436q0 -159 -186 -159q-134 0 -134 138q0 68 38 138q45 82 108 82q49 0 104 -48q70 -61 70 -151zM298 1446q0 33 -45 62q-41 26 -76 26q-21 0 -42.5 -32.5t-21.5 -55.5q0 -51 81 -51q104 0 104 51z" />
    <glyph glyph-name="zeronojoin" unicode="&#x200c;" horiz-adv-x="31" 
 />
    <glyph glyph-name="zerojoin" unicode="&#x200d;" horiz-adv-x="31" 
 />
    <glyph glyph-name="lefttoright" unicode="&#x200e;" horiz-adv-x="31" 
d="M208 1109l-92 -95l-24 20l61 61h-122v-1095h-31v1125h149l-57 57l24 21z" />
    <glyph glyph-name="righttoleft" unicode="&#x200f;" horiz-adv-x="31" 
d="M31 0h-31v1095h-122l59 -61l-20 -20l-96 95l96 94l20 -21l-57 -57h151v-1125z" />
    <glyph glyph-name="quoteleft" unicode="&#x2018;" horiz-adv-x="491" 
d="M467 1486q-89 -59 -154 -145q-76 -101 -76 -193q0 -55 32 -98q39 47 90 47q102 0 102 -100q0 -59 -48 -92q-43 -30 -104 -30q-82 0 -133 50.5t-51 132.5q0 141 108 283q97 127 234 200v-55z" />
    <glyph glyph-name="quoteright" unicode="&#x2019;" horiz-adv-x="491" 
d="M444 1353q0 -143 -107 -281q-91 -118 -232 -200v56q228 162 228 338q0 62 -33 101q-33 -49 -95 -49q-41 0 -69.5 28t-28.5 69q0 58 49 93q43 31 104 31q86 0 135 -50t49 -136z" />
    <glyph glyph-name="quotedblleft" unicode="&#x201c;" horiz-adv-x="650" 
d="M572 1146q-13 -6 -41 -26q-52 -51 -52 -95q82 -22 82 -112q0 -45 -31.5 -78t-76.5 -33q-52 0 -84 42q-29 38 -29 92q0 201 203 359q0 -83 1 -93q4 -40 28 -56zM302 1146q-13 -6 -41 -26q-52 -51 -52 -95q82 -22 82 -112q0 -45 -31.5 -78t-76.5 -33q-52 0 -84 42
q-29 38 -29 92q0 201 203 359q0 -83 1 -93q4 -40 28 -56z" />
    <glyph glyph-name="quotedblright" unicode="&#x201d;" horiz-adv-x="650" 
d="M580 1151q0 -201 -203 -359q0 83 -1 93q-4 40 -28 56q13 6 41 26q52 51 52 95q-82 22 -82 112q0 46 31 78.5t77 32.5q54 0 85 -41q28 -37 28 -93zM310 1151q0 -201 -203 -359q0 83 -1 93q-4 40 -28 56q13 6 41 26q52 51 52 95q-82 22 -82 112q0 46 31 78.5t77 32.5
q54 0 85 -41q28 -37 28 -93z" />
    <glyph glyph-name="guilsinglleft" unicode="&#x2039;" horiz-adv-x="512" 
d="M457 966l-228 -382l222 -380v-75l-383 455l389 457v-75z" />
    <glyph glyph-name="guilsinglright" unicode="&#x203a;" horiz-adv-x="512" 
d="M457 586l-393 -457v75l231 382l-222 381v77z" />
    <glyph glyph-name="uE820" unicode="&#xe820;" 
d="M418 988l-17 -96l-368 -125l14 88z" />
    <glyph glyph-name="uE821" unicode="&#xe821;" 
d="M381 989l-37 -84q-31 10 -77 37q-106 -157 -263 -180l-26 48q201 92 240 164q-79 73 -79 157q0 40 33 94q38 63 86 63q93 0 93 -123q0 -80 -29 -139zM297 1133q0 73 -45 73q-43 0 -43 -57q0 -19 22 -48t41 -39q25 44 25 71z" />
    <glyph glyph-name="uE822" unicode="&#xe822;" 
d="M367 924q0 -159 -186 -159q-134 0 -134 138q0 68 38 138q45 82 108 82q49 0 104 -48q70 -61 70 -151zM294 934q0 33 -45 62q-40 26 -76 26q-21 0 -42.5 -32.5t-21.5 -55.5q0 -51 81 -51q104 0 104 51z" />
    <glyph glyph-name="uE823" unicode="&#xe823;" 
d="M427 983l-16 -96l-369 -125l14 88zM447 1157l-16 -96l-369 -125l15 88z" />
    <glyph glyph-name="uE824" unicode="&#xe824;" 
d="M382 995l-37 -84q-31 10 -77 37q-106 -157 -263 -180l-26 48q11 5 36 15q13 23 13 76q0 58 -40 58q-20 0 -36 -24l-16 -25q-30 0 -30 60q0 37 28.5 72t63.5 35q33 0 59.5 -36.5t26.5 -70.5q0 -75 -16 -117q123 68 151 121q-79 73 -79 157q0 41 33 94q39 63 86 63
q93 0 93 -123q0 -80 -29 -139zM298 1139q0 73 -45 73q-43 0 -43 -57q0 -19 22 -48t41 -39q25 44 25 71z" />
    <glyph glyph-name="uE825" unicode="&#xe825;" 
d="M419 984q2 -54 -20 -110q-29 -73 -82 -73q-36 0 -77 41q-28 -48 -42 -61q-24 -22 -69 -22q-70 0 -70 85q0 30 14 75q16 52 37 52q15 0 15 -20q0 -9 -3 -26.5t-3 -26.5q0 -35 34 -35t69 64t41 64q8 0 17.5 -44.5t36.5 -44.5q29 0 44 25q7 12 24 61q6 18 19 18q14 0 15 -22
z" />
    <glyph glyph-name="uE826" unicode="&#xe826;" 
d="M488 -420l-16 -96l-369 -125l15 88z" />
    <glyph glyph-name="uE827" unicode="&#xe827;" 
d="M483 -598l-17 -96l-368 -125l14 88zM503 -424l-16 -96l-369 -125l14 88z" />
    <glyph glyph-name="uE828" unicode="&#xe828;" 
d="M421 991q2 -54 -20 -110q-29 -73 -82 -73q-36 0 -77 41q-28 -48 -42 -61q-25 -22 -69 -22q-70 0 -70 85q0 31 14 75q16 52 37 52q15 0 15 -20q0 -9 -3 -26.5t-3 -26.5q0 -35 34 -35t68.5 64t41.5 64q8 0 17.5 -44.5t36.5 -44.5q29 0 44 25q7 13 24 61q6 18 19 18
q14 0 15 -22zM446 1250l-17 -96l-368 -125l14 88z" />
    <glyph glyph-name="uE829" unicode="&#xe829;" 
d="M419 989q2 -54 -20 -110q-29 -73 -82 -73q-36 0 -77 41q-28 -48 -42 -61q-24 -22 -69 -22q-70 0 -70 85q0 30 14 75q16 52 37 52q15 0 15 -20q0 -9 -3 -26.5t-3 -26.5q0 -35 34 -35t69 64t41 64q8 0 17.5 -44.5t36.5 -44.5q29 0 44 25q7 12 24 61q6 18 19 18q14 0 15 -22
zM436 1260l-37 -84q-31 9 -76 36q-107 -157 -264 -180l-26 48q202 92 240 164q-78 74 -78 157q0 41 32 94q39 64 86 64q93 0 93 -124q0 -80 -29 -139zM352 1403q0 74 -45 74q-43 0 -43 -58q0 -20 22 -48t42 -39q24 44 24 71z" />
    <glyph glyph-name="uE82A" unicode="&#xe82a;" 
d="M419 989q2 -54 -20 -110q-29 -73 -82 -73q-36 0 -77 41q-28 -48 -42 -61q-24 -22 -69 -22q-70 0 -70 85q0 30 14 75q16 52 37 52q15 0 15 -20q0 -9 -3 -26.5t-3 -26.5q0 -35 34 -35t69 64t41 64q8 0 17.5 -44.5t36.5 -44.5q29 0 44 25q7 12 24 61q6 18 19 18q14 0 15 -22
zM456 1253l-17 -96l-368 -125l14 88zM476 1427l-16 -96l-369 -125l14 88z" />
    <glyph glyph-name="uE82B" unicode="&#xe82b;" 
d="M417 988q2 -54 -20 -110q-29 -73 -82 -73q-36 0 -77 41q-28 -48 -42 -61q-25 -22 -69 -22q-70 0 -70 85q0 30 14 75q16 52 37 52q15 0 15 -20q0 -9 -3 -26.5t-3 -26.5q0 -35 34 -35t68.5 64t41.5 64q8 0 17.5 -44.5t36.5 -44.5q29 0 44 25q7 12 24 61q6 18 19 18
q14 0 15 -22zM458 1269l-37 -84q-31 10 -77 37q-106 -157 -263 -180l-26 48q11 5 36 15q13 23 13 76q0 58 -40 58q-20 0 -36 -25l-16 -24q-30 0 -30 60q0 36 28.5 71.5t63.5 35.5q33 0 59.5 -37t26.5 -70q0 -75 -16 -117q123 68 151 121q-79 73 -79 157q0 40 33 94
q39 63 86 63q93 0 93 -123q0 -80 -29 -139zM374 1413q0 73 -45 73q-43 0 -43 -57q0 -20 22 -48.5t41 -38.5q25 44 25 71z" />
    <glyph glyph-name="uE82C" unicode="&#xe82c;" 
d="M419 1235q2 -54 -20 -110q-29 -73 -82 -73q-36 0 -77 41q-27 -48 -42 -61q-25 -22 -69 -22q-70 0 -70 85q0 30 14 75q16 52 37 52q15 0 15 -20q0 -9 -3 -26.5t-3 -26.5q0 -35 34 -35t69 64t41 64q8 0 17.5 -44.5t36.5 -44.5q28 0 44 25q8 14 24 61q6 18 19 18
q14 0 15 -22zM420 987l-17 -96l-368 -125l14 88z" />
    <glyph glyph-name="uE82D" unicode="&#xe82d;" 
d="M413 1374q2 -54 -20 -110q-29 -73 -82 -73q-37 0 -78 41q-26 -46 -42 -61q-24 -22 -68 -22q-70 0 -70 85q0 30 14 75q16 52 36 52q15 0 15 -20q0 -9 -2.5 -26.5t-2.5 -26.5q0 -35 33 -35q35 0 69.5 64t41.5 64q8 0 17 -44.5t37 -44.5t44 25q8 14 24 61q6 18 18 18
q15 0 16 -22zM414 1126l-17 -96l-368 -125l14 88zM420 987l-17 -96l-368 -125l14 88z" />
    <glyph glyph-name="glyph218" horiz-adv-x="1" 
d="M555 436q1 -14 -6 -39q-8 -30 -19 -30q-5 0 -5 14q0 60 -29 300q-1 4 36 27q11 7 12 -4z" />
  </font>
</defs>
</svg>
